<?xml version="1.0" encoding="UTF-8"?>
<svg xmlns="http://www.w3.org/2000/svg" xmlns:xlink="http://www.w3.org/1999/xlink" width="62px" height="50px" viewBox="0 0 61 50" version="1.1">
<g id="surface1">
<path style=" stroke:none;fill-rule:nonzero;fill:rgb(0%,0%,0%);fill-opacity:1;" d="M 23.335938 0.09375 C 23.320312 0.140625 23.300781 0.605469 23.289062 1.121094 L 23.269531 2.0625 L 23.121094 2.101562 C 23.039062 2.121094 21.695312 2.410156 20.125 2.730469 C 18.5625 3.058594 17.269531 3.34375 17.257812 3.359375 C 17.246094 3.375 15.890625 3.203125 14.246094 2.972656 C 10.703125 2.46875 10.984375 2.503906 10.949219 2.5625 C 10.933594 2.585938 10.410156 2.746094 9.789062 2.914062 L 8.660156 3.222656 L 8.664062 3.675781 C 8.671875 4.046875 8.664062 4.128906 8.613281 4.128906 C 8.558594 4.128906 7.296875 3.949219 7.042969 3.90625 C 6.941406 3.890625 6.914062 3.902344 6.875 3.996094 C 6.835938 4.082031 6.824219 6.046875 6.824219 13.398438 L 6.824219 22.6875 L 3.464844 23.570312 C 1.613281 24.054688 0.078125 24.449219 0.0507812 24.449219 C 0.0117188 24.449219 0 24.847656 0 26.308594 L 0 28.164062 L 0.113281 28.191406 C 0.171875 28.203125 1.65625 28.414062 3.410156 28.660156 C 5.164062 28.90625 6.640625 29.117188 6.695312 29.125 L 6.78125 29.144531 L 6.78125 43.828125 L 7.054688 43.851562 C 7.503906 43.894531 42.152344 49.582031 42.226562 49.628906 C 42.265625 49.648438 42.414062 49.667969 42.558594 49.667969 L 42.820312 49.667969 L 42.820312 49.285156 C 42.820312 49.0625 42.835938 48.898438 42.859375 48.898438 C 42.878906 48.898438 43.507812 49.023438 44.25 49.183594 C 44.992188 49.335938 45.648438 49.464844 45.710938 49.464844 C 45.773438 49.464844 46.335938 49.339844 46.960938 49.183594 C 47.585938 49.027344 48.136719 48.890625 48.191406 48.878906 C 48.277344 48.859375 48.277344 48.851562 48.277344 48.179688 L 48.277344 47.5 L 51.460938 46.777344 L 54.640625 46.058594 L 57.328125 46.363281 C 58.808594 46.535156 60.066406 46.679688 60.128906 46.691406 C 60.222656 46.710938 60.238281 46.695312 60.238281 46.621094 C 60.238281 46.566406 60.257812 46.507812 60.28125 46.480469 C 60.308594 46.453125 60.390625 40.203125 60.539062 26.671875 C 60.769531 5.664062 60.777344 4.871094 60.722656 4.78125 C 60.695312 4.734375 56.261719 4.160156 42.191406 2.382812 C 32.019531 1.101562 23.621094 0.0351562 23.53125 0.0234375 C 23.382812 0.00390625 23.359375 0.0117188 23.335938 0.09375 Z M 42.058594 2.9375 C 52.023438 4.199219 60.179688 5.234375 60.1875 5.242188 C 60.203125 5.253906 59.820312 41.113281 59.773438 44.28125 L 59.742188 46.074219 L 59.480469 46.050781 C 59.335938 46.03125 59.160156 46.011719 59.097656 45.996094 L 58.980469 45.976562 L 58.996094 26.3125 C 59.003906 15.496094 59.003906 6.632812 58.992188 6.625 C 58.976562 6.609375 25.234375 2.140625 24.03125 1.996094 L 23.839844 1.972656 L 23.839844 1.3125 C 23.839844 0.816406 23.851562 0.648438 23.886719 0.648438 C 23.914062 0.648438 32.089844 1.679688 42.058594 2.9375 Z M 40.480469 4.734375 C 49.589844 5.9375 57.058594 6.925781 57.074219 6.933594 C 57.089844 6.9375 55.082031 7.402344 52.605469 7.964844 C 50.128906 8.523438 48.097656 8.980469 48.09375 8.972656 C 48.085938 8.96875 48.078125 8.679688 48.074219 8.332031 L 48.066406 7.699219 L 47.941406 7.679688 C 47.871094 7.671875 41.316406 6.75 33.371094 5.648438 C 25.421875 4.539062 18.910156 3.617188 18.894531 3.605469 C 18.863281 3.578125 23.617188 2.5625 23.804688 2.554688 C 23.863281 2.550781 31.367188 3.535156 40.480469 4.734375 Z M 29.015625 5.605469 C 38.671875 6.953125 46.589844 8.0625 46.605469 8.066406 C 46.625 8.070312 46.394531 8.15625 46.101562 8.253906 L 45.570312 8.429688 L 27.972656 5.914062 C 18.292969 4.53125 10.347656 3.394531 10.3125 3.386719 C 10.195312 3.363281 11.175781 3.121094 11.316406 3.140625 C 11.394531 3.148438 19.359375 4.257812 29.015625 5.605469 Z M 27.371094 6.398438 C 37.226562 7.804688 45.292969 8.957031 45.296875 8.960938 C 45.308594 8.972656 45.390625 38.808594 45.390625 43.902344 L 45.390625 48.84375 L 44.117188 48.574219 L 42.839844 48.308594 L 42.8125 48.125 C 42.765625 47.816406 42.460938 9.519531 42.503906 9.253906 C 42.523438 9.125 42.535156 9.011719 42.53125 9.007812 C 42.523438 9.003906 35.035156 7.925781 25.886719 6.613281 L 9.25 4.226562 L 9.226562 3.796875 L 9.339844 3.820312 C 9.398438 3.832031 17.511719 4.996094 27.371094 6.398438 Z M 24.761719 7.027344 C 34.175781 8.375 41.882812 9.484375 41.890625 9.492188 C 41.902344 9.503906 42.25 48.996094 42.234375 49.011719 C 42.226562 49.023438 8.941406 43.578125 7.597656 43.347656 L 7.34375 43.304688 L 7.34375 36.265625 C 7.34375 31.964844 7.359375 29.226562 7.378906 29.226562 C 7.445312 29.226562 8.039062 29.308594 8.140625 29.328125 L 8.226562 29.347656 L 8.226562 42.417969 L 8.378906 42.457031 C 8.460938 42.480469 15.886719 43.691406 24.882812 45.15625 C 33.875 46.617188 41.320312 47.828125 41.417969 47.84375 C 41.546875 47.863281 41.628906 47.859375 41.671875 47.820312 C 41.742188 47.773438 41.734375 46.710938 41.585938 29.5 C 41.472656 16.890625 41.4375 11.140625 41.464844 10.9375 C 41.484375 10.773438 41.496094 10.632812 41.488281 10.625 C 41.480469 10.617188 34.007812 9.570312 24.882812 8.296875 C 15.753906 7.027344 8.238281 5.980469 8.179688 5.964844 C 8.082031 5.945312 8.070312 5.957031 8.042969 6.089844 C 8.03125 6.167969 8.003906 6.234375 7.980469 6.234375 C 7.960938 6.234375 7.941406 9.65625 7.9375 14.316406 L 7.925781 22.402344 L 7.65625 22.46875 L 7.382812 22.539062 L 7.382812 4.527344 L 7.515625 4.550781 C 7.585938 4.5625 15.347656 5.675781 24.761719 7.027344 Z M 9.804688 6.769531 L 11.035156 6.9375 L 11.027344 14.265625 L 11.015625 21.589844 L 9.8125 21.90625 C 9.148438 22.082031 8.585938 22.222656 8.558594 22.222656 C 8.519531 22.222656 8.507812 20.632812 8.507812 14.410156 C 8.507812 10.113281 8.519531 6.597656 8.539062 6.597656 C 8.554688 6.597656 9.121094 6.675781 9.804688 6.769531 Z M 12.480469 14.171875 L 12.480469 21.207031 L 12.332031 21.246094 C 11.890625 21.363281 11.683594 21.414062 11.640625 21.414062 C 11.609375 21.414062 11.597656 19.445312 11.597656 14.214844 L 11.597656 7.019531 L 12.039062 7.078125 L 12.480469 7.140625 Z M 19.003906 8.050781 L 24.742188 8.847656 L 24.765625 9.496094 C 24.78125 9.847656 24.792969 10.425781 24.796875 10.78125 C 24.800781 11.351562 24.792969 11.429688 24.726562 11.527344 C 24.679688 11.589844 24.539062 11.8125 24.40625 12.027344 C 24.191406 12.378906 19.433594 19.265625 19.328125 19.378906 C 19.296875 19.414062 13.164062 21.050781 13.0625 21.050781 C 13.050781 21.050781 13.042969 17.9375 13.042969 14.136719 L 13.042969 7.21875 L 13.15625 7.234375 C 13.214844 7.246094 15.847656 7.609375 19.003906 8.050781 Z M 58.429688 25.925781 L 58.429688 44.609375 L 58.34375 44.628906 C 57.90625 44.734375 48.296875 46.90625 48.292969 46.902344 C 48.289062 46.898438 48.246094 39.652344 48.203125 30.804688 C 48.15625 21.957031 48.109375 13.554688 48.097656 12.144531 L 48.074219 9.574219 L 53.164062 8.414062 C 55.960938 7.777344 58.292969 7.253906 58.34375 7.25 L 58.429688 7.246094 Z M 47.640625 30.816406 C 47.6875 40.472656 47.71875 48.386719 47.707031 48.394531 C 47.675781 48.425781 45.996094 48.839844 45.980469 48.816406 C 45.953125 48.785156 45.871094 8.972656 45.894531 8.949219 C 45.90625 8.9375 46.273438 8.804688 46.707031 8.660156 L 47.496094 8.390625 L 47.523438 10.824219 C 47.539062 12.164062 47.59375 21.160156 47.640625 30.816406 Z M 33.128906 10.019531 C 37.363281 10.609375 40.832031 11.097656 40.839844 11.101562 C 40.847656 11.109375 40.863281 12.160156 40.878906 13.433594 L 40.90625 15.753906 L 40.789062 15.730469 C 40.726562 15.71875 37.277344 15.28125 33.128906 14.753906 C 28.980469 14.226562 25.542969 13.792969 25.5 13.78125 C 25.414062 13.761719 25.410156 13.746094 25.386719 12.519531 C 25.375 11.832031 25.351562 10.75 25.339844 10.109375 C 25.320312 9.125 25.324219 8.945312 25.371094 8.945312 C 25.402344 8.945312 28.894531 9.425781 33.128906 10.019531 Z M 33.308594 16.773438 L 40.914062 17.792969 L 40.925781 19.421875 C 40.933594 20.953125 40.929688 21.050781 40.867188 21.050781 C 40.792969 21.050781 25.511719 19.019531 25.496094 19.007812 C 25.492188 19.007812 25.476562 18.265625 25.460938 17.363281 L 25.429688 15.722656 L 25.566406 15.738281 C 25.644531 15.746094 29.128906 16.210938 33.308594 16.773438 Z M 24.917969 18.347656 L 24.921875 18.945312 L 24.773438 18.921875 C 24.6875 18.90625 24.390625 18.867188 24.109375 18.832031 L 23.601562 18.761719 L 24.230469 17.726562 L 24.863281 16.6875 L 24.886719 17.21875 C 24.902344 17.511719 24.914062 18.015625 24.917969 18.347656 Z M 31.714844 20.945312 C 36.789062 21.621094 40.945312 22.179688 40.953125 22.1875 C 40.976562 22.214844 40.996094 27.355469 40.96875 27.378906 C 40.957031 27.394531 39.105469 27.761719 36.855469 28.195312 L 32.765625 28.980469 L 17.972656 26.886719 C 9.828125 25.738281 3.195312 24.785156 3.222656 24.773438 C 3.289062 24.75 22.40625 19.726562 22.453125 19.71875 C 22.476562 19.71875 26.644531 20.269531 31.714844 20.945312 Z M 16.5625 27.789062 C 24.988281 28.980469 31.925781 29.960938 31.976562 29.976562 C 32.066406 29.996094 32.066406 30 32.066406 30.808594 L 32.066406 31.621094 L 31.957031 31.597656 C 31.828125 31.574219 1.21875 27.242188 1.160156 27.242188 C 1.140625 27.242188 1.125 26.914062 1.125 26.433594 C 1.125 25.753906 1.132812 25.625 1.179688 25.625 C 1.210938 25.625 8.132812 26.597656 16.5625 27.789062 Z M 41.007812 30.101562 C 41 30.105469 39.277344 30.433594 37.183594 30.824219 C 35.082031 31.21875 33.328125 31.550781 33.28125 31.5625 L 33.1875 31.582031 L 33.1875 30.808594 C 33.1875 30.207031 33.199219 30.027344 33.242188 30.011719 C 33.269531 30.003906 35.027344 29.660156 37.144531 29.253906 L 40.996094 28.511719 L 41.007812 29.300781 C 41.011719 29.730469 41.011719 30.09375 41.007812 30.101562 Z M 9.867188 29.570312 C 10.433594 29.652344 10.945312 29.722656 11.007812 29.734375 L 11.117188 29.761719 L 11.109375 35.25 L 11.097656 40.738281 L 10.171875 41.105469 C 9.667969 41.308594 9.144531 41.511719 9.023438 41.558594 L 8.789062 41.648438 L 8.789062 35.539062 C 8.789062 32.175781 8.800781 29.429688 8.816406 29.429688 C 8.832031 29.429688 9.304688 29.492188 9.867188 29.570312 Z M 12.179688 29.898438 L 12.441406 29.925781 L 12.441406 35.175781 C 12.441406 40.144531 12.445312 40.429688 12.511719 40.460938 C 12.550781 40.472656 18.964844 41.523438 26.769531 42.789062 C 34.570312 44.058594 41.003906 45.105469 41.066406 45.117188 C 41.164062 45.136719 41.175781 45.160156 41.175781 45.300781 C 41.175781 45.40625 41.160156 45.457031 41.117188 45.457031 C 41.0625 45.457031 11.984375 40.738281 11.789062 40.699219 L 11.679688 40.671875 L 11.679688 29.820312 L 11.796875 29.84375 C 11.863281 29.863281 12.035156 29.882812 12.179688 29.898438 Z M 19.007812 30.867188 C 22.234375 31.324219 24.882812 31.695312 24.898438 31.695312 C 24.910156 31.695312 24.917969 33.121094 24.914062 34.859375 L 24.902344 38.03125 L 19.523438 39.070312 C 16.566406 39.644531 14.070312 40.113281 13.972656 40.113281 C 13.878906 40.113281 13.621094 40.085938 13.402344 40.046875 L 13.003906 39.980469 L 13.003906 35.007812 C 13.003906 30.324219 13.007812 30.035156 13.070312 30.035156 C 13.109375 30.035156 15.78125 30.40625 19.007812 30.867188 Z M 41.074219 35.957031 C 41.097656 38.542969 41.113281 40.664062 41.109375 40.671875 C 41.109375 40.675781 37.59375 40.109375 33.304688 39.414062 L 25.503906 38.148438 L 25.492188 34.960938 L 25.484375 31.777344 L 25.652344 31.800781 C 26.589844 31.953125 32.769531 32.808594 32.789062 32.789062 C 32.8125 32.753906 40.988281 31.21875 41.015625 31.242188 C 41.027344 31.25 41.054688 33.371094 41.074219 35.957031 Z M 32.988281 39.9375 C 37.457031 40.660156 41.117188 41.261719 41.125 41.269531 C 41.128906 41.273438 41.128906 42.011719 41.125 42.910156 L 41.113281 44.546875 L 28.40625 42.484375 C 21.417969 41.347656 15.703125 40.410156 15.714844 40.402344 C 15.726562 40.386719 24.6875 38.636719 24.820312 38.621094 C 24.839844 38.617188 28.515625 39.210938 32.988281 39.9375 Z M 26.40625 43.648438 L 41.15625 46.046875 L 41.179688 47.226562 L 40.847656 47.171875 C 38.304688 46.765625 9.375 42.058594 9.367188 42.050781 C 9.363281 42.042969 9.804688 41.859375 10.347656 41.644531 C 11.003906 41.386719 11.390625 41.253906 11.496094 41.253906 C 11.585938 41.253906 18.296875 42.328125 26.40625 43.648438 Z M 58.429688 45.5625 L 58.429688 45.914062 L 58.164062 45.890625 C 57.429688 45.824219 56.335938 45.683594 56.390625 45.664062 C 56.511719 45.621094 58.257812 45.222656 58.34375 45.21875 C 58.425781 45.214844 58.429688 45.226562 58.429688 45.5625 Z M 58.429688 45.5625 "/>
</g>
</svg>
