<?xml version="1.0" encoding="UTF-8"?>
<svg xmlns="http://www.w3.org/2000/svg" xmlns:xlink="http://www.w3.org/1999/xlink" width="75px" height="50px" viewBox="0 0 74 50" version="1.1">
<g id="surface1">
<path style=" stroke:none;fill-rule:nonzero;fill:rgb(0%,0%,0%);fill-opacity:1;" d="M 24.578125 0.0234375 C 24.5625 0.0351562 24.554688 3.40625 24.554688 7.515625 L 24.554688 14.980469 L 2.136719 14.980469 L 2.136719 12.378906 L 0.300781 12.378906 L 0.300781 37.304688 L 2.136719 37.304688 L 2.136719 34.597656 L 24.554688 34.597656 L 24.554688 49.953125 L 36.875 49.945312 L 49.191406 49.9375 L 49.199219 42.269531 L 49.207031 34.597656 L 71.855469 34.597656 L 71.855469 37.304688 L 73.691406 37.304688 L 73.691406 12.378906 L 71.855469 12.378906 L 71.855469 14.980469 L 49.207031 14.980469 L 49.199219 7.496094 L 49.191406 0.015625 L 36.894531 0.0078125 C 30.132812 0.00390625 24.585938 0.0117188 24.578125 0.0234375 Z M 35.996094 3.941406 L 35.996094 6.949219 L 25.539062 6.949219 L 25.527344 3.972656 C 25.523438 2.335938 25.527344 0.976562 25.539062 0.953125 C 25.546875 0.917969 26.613281 0.914062 30.773438 0.917969 L 35.996094 0.929688 Z M 48.289062 3.941406 L 48.289062 6.949219 L 38.367188 6.949219 L 38.355469 3.972656 C 38.351562 2.335938 38.355469 0.976562 38.367188 0.953125 C 38.375 0.917969 39.386719 0.914062 43.332031 0.917969 L 48.289062 0.929688 Z M 37.480469 4.398438 L 37.480469 7.847656 L 42.886719 7.851562 L 48.289062 7.863281 L 48.289062 8.472656 L 45.726562 8.480469 L 43.160156 8.488281 L 43.160156 14.609375 L 45.726562 14.617188 L 48.289062 14.628906 L 48.289062 15.234375 L 42.871094 15.246094 L 37.449219 15.253906 L 37.449219 21.375 L 42.871094 21.382812 L 48.289062 21.390625 L 48.289062 22.136719 L 43.328125 22.152344 L 43.328125 28.273438 L 48.289062 28.289062 L 48.289062 28.933594 L 42.871094 28.945312 L 37.449219 28.949219 L 37.449219 35.039062 L 42.871094 35.042969 L 48.289062 35.054688 L 48.289062 35.699219 L 43.226562 35.714844 L 43.226562 41.800781 L 48.269531 41.800781 L 48.269531 42.78125 L 37.378906 42.78125 L 37.378906 49.003906 L 36.644531 49.003906 L 36.644531 42.816406 L 25.488281 42.816406 L 25.488281 41.734375 L 30.800781 41.734375 L 30.800781 35.613281 L 25.472656 35.597656 L 25.472656 35.054688 L 31.09375 35.042969 L 36.710938 35.039062 L 36.710938 28.949219 L 31.09375 28.945312 L 25.472656 28.933594 L 25.472656 28.289062 L 30.800781 28.273438 L 30.800781 22.152344 L 25.472656 22.136719 L 25.472656 21.390625 L 31.09375 21.382812 L 36.710938 21.375 L 36.710938 15.285156 L 31.09375 15.28125 L 25.472656 15.269531 L 25.472656 14.628906 L 28.136719 14.617188 L 30.800781 14.609375 L 30.800781 8.488281 L 25.472656 8.472656 L 25.472656 7.863281 L 31.175781 7.851562 L 36.878906 7.847656 L 36.878906 0.945312 L 37.480469 0.945312 Z M 29.914062 11.550781 L 29.914062 13.714844 L 25.539062 13.714844 L 25.527344 11.582031 C 25.523438 10.410156 25.527344 9.433594 25.539062 9.410156 C 25.546875 9.375 26.007812 9.367188 27.734375 9.375 L 29.914062 9.386719 Z M 48.289062 11.550781 L 48.289062 13.714844 L 44.046875 13.714844 L 44.035156 11.582031 C 44.03125 10.410156 44.035156 9.433594 44.046875 9.410156 C 44.054688 9.375 44.5 9.367188 46.171875 9.375 L 48.289062 9.386719 Z M 48.289062 18.3125 L 48.289062 20.476562 L 38.332031 20.476562 L 38.324219 18.347656 C 38.320312 17.175781 38.324219 16.195312 38.332031 16.171875 C 38.34375 16.140625 39.359375 16.132812 43.316406 16.140625 L 48.289062 16.148438 Z M 35.828125 18.332031 L 35.828125 20.476562 L 25.539062 20.476562 L 25.527344 18.363281 C 25.523438 17.199219 25.527344 16.230469 25.539062 16.207031 C 25.546875 16.171875 26.597656 16.167969 30.691406 16.171875 L 35.828125 16.183594 Z M 24.554688 18.433594 L 24.554688 20.023438 L 14.699219 20.023438 L 14.699219 21.882812 L 24.554688 21.882812 L 24.554688 32.738281 L 2.136719 32.738281 L 2.136719 21.882812 L 7.28125 21.882812 L 7.28125 20.023438 L 2.136719 20.023438 L 2.136719 16.84375 L 24.554688 16.84375 Z M 71.855469 18.433594 L 71.855469 20.023438 L 66.675781 20.023438 L 66.675781 21.882812 L 71.855469 21.882812 L 71.855469 32.738281 L 49.207031 32.738281 L 49.207031 21.882812 L 59.261719 21.882812 L 59.261719 20.023438 L 49.207031 20.023438 L 49.207031 16.84375 L 71.855469 16.84375 Z M 29.914062 25.214844 L 29.914062 27.378906 L 25.539062 27.378906 L 25.527344 25.246094 C 25.523438 24.074219 25.527344 23.097656 25.539062 23.070312 C 25.546875 23.039062 26.007812 23.03125 27.734375 23.039062 L 29.914062 23.046875 Z M 48.289062 25.214844 L 48.289062 27.378906 L 44.210938 27.378906 L 44.203125 25.246094 C 44.199219 24.074219 44.203125 23.097656 44.210938 23.070312 C 44.222656 23.039062 44.648438 23.03125 46.257812 23.039062 L 48.289062 23.046875 Z M 35.828125 31.992188 L 35.828125 34.140625 L 25.539062 34.140625 L 25.527344 32.027344 C 25.523438 30.863281 25.527344 29.894531 25.539062 29.871094 C 25.546875 29.835938 26.597656 29.828125 30.691406 29.835938 L 35.828125 29.847656 Z M 48.289062 31.992188 L 48.289062 34.140625 L 38.332031 34.140625 L 38.324219 32.027344 C 38.320312 30.863281 38.324219 29.894531 38.332031 29.871094 C 38.34375 29.835938 39.359375 29.828125 43.316406 29.835938 L 48.289062 29.847656 Z M 29.914062 38.671875 L 29.914062 40.839844 L 25.472656 40.839844 L 25.460938 38.707031 C 25.457031 37.535156 25.460938 36.554688 25.472656 36.53125 C 25.480469 36.5 25.945312 36.492188 27.699219 36.5 L 29.914062 36.507812 Z M 48.289062 38.757812 L 48.289062 40.90625 L 44.113281 40.90625 L 44.101562 38.792969 C 44.097656 37.628906 44.101562 36.65625 44.113281 36.632812 C 44.121094 36.601562 44.558594 36.59375 46.207031 36.601562 L 48.289062 36.609375 Z M 48.289062 46.351562 L 48.289062 49.023438 L 38.265625 49.023438 L 38.257812 46.382812 C 38.253906 44.933594 38.257812 43.726562 38.265625 43.703125 C 38.277344 43.667969 39.296875 43.660156 43.285156 43.667969 L 48.289062 43.679688 Z M 35.761719 46.382812 L 35.761719 49.054688 L 25.472656 49.054688 L 25.460938 46.417969 C 25.457031 44.96875 25.460938 43.761719 25.472656 43.738281 C 25.480469 43.703125 26.53125 43.695312 30.621094 43.703125 L 35.761719 43.710938 Z M 35.761719 46.382812 "/>
<path style=" stroke:none;fill-rule:nonzero;fill:rgb(0%,0%,0%);fill-opacity:1;" d="M 31.566406 11.550781 L 31.566406 14.609375 L 42.523438 14.609375 L 42.523438 8.488281 L 31.566406 8.488281 Z M 41.640625 11.550781 L 41.640625 13.714844 L 32.453125 13.714844 L 32.445312 11.582031 C 32.441406 10.410156 32.445312 9.433594 32.453125 9.410156 C 32.464844 9.375 33.402344 9.367188 37.054688 9.375 L 41.640625 9.386719 Z M 41.640625 11.550781 "/>
<path style=" stroke:none;fill-rule:nonzero;fill:rgb(0%,0%,0%);fill-opacity:1;" d="M 31.566406 25.214844 L 31.566406 28.273438 L 42.523438 28.273438 L 42.523438 22.152344 L 31.566406 22.152344 Z M 41.640625 25.214844 L 41.640625 27.378906 L 32.453125 27.378906 L 32.445312 25.246094 C 32.441406 24.074219 32.445312 23.097656 32.453125 23.070312 C 32.464844 23.039062 33.402344 23.03125 37.054688 23.039062 L 41.640625 23.046875 Z M 41.640625 25.214844 "/>
<path style=" stroke:none;fill-rule:nonzero;fill:rgb(0%,0%,0%);fill-opacity:1;" d="M 31.566406 38.742188 L 31.566406 41.800781 L 42.523438 41.800781 L 42.523438 35.679688 L 31.566406 35.679688 Z M 41.640625 38.742188 L 41.640625 40.90625 L 32.453125 40.90625 L 32.445312 38.773438 C 32.441406 37.601562 32.445312 36.625 32.453125 36.601562 C 32.464844 36.566406 33.402344 36.558594 37.054688 36.566406 L 41.640625 36.578125 Z M 41.640625 38.742188 "/>
<path style=" stroke:none;fill-rule:nonzero;fill:rgb(0%,0%,0%);fill-opacity:1;" d="M 10.78125 19.988281 C 10.417969 20.082031 10.105469 20.347656 9.941406 20.699219 C 9.851562 20.890625 9.839844 20.957031 9.839844 21.207031 C 9.839844 21.457031 9.851562 21.519531 9.941406 21.710938 C 10.070312 21.992188 10.277344 22.203125 10.554688 22.335938 C 10.75 22.425781 10.808594 22.441406 11.074219 22.441406 C 11.339844 22.441406 11.398438 22.425781 11.589844 22.335938 C 11.867188 22.203125 12.074219 21.992188 12.207031 21.710938 C 12.296875 21.519531 12.308594 21.457031 12.308594 21.207031 C 12.308594 20.957031 12.296875 20.890625 12.207031 20.699219 C 12.003906 20.265625 11.613281 19.996094 11.152344 19.972656 C 11.015625 19.960938 10.851562 19.972656 10.78125 19.988281 Z M 10.78125 19.988281 "/>
<path style=" stroke:none;fill-rule:nonzero;fill:rgb(0%,0%,0%);fill-opacity:1;" d="M 62.554688 20.007812 C 61.742188 20.269531 61.421875 21.171875 61.878906 21.898438 C 62.246094 22.472656 62.992188 22.621094 63.585938 22.242188 C 64.398438 21.710938 64.28125 20.453125 63.378906 20.046875 C 63.167969 19.953125 62.78125 19.933594 62.554688 20.007812 Z M 62.554688 20.007812 "/>
</g>
</svg>
