<?xml version="1.0" encoding="UTF-8"?>
<svg xmlns="http://www.w3.org/2000/svg" xmlns:xlink="http://www.w3.org/1999/xlink" width="42px" height="50px" viewBox="0 0 42 49" version="1.1">
<g id="surface1">
<path style=" stroke:none;fill-rule:nonzero;fill:rgb(0%,0%,0%);fill-opacity:1;" d="M 0.0664062 3.839844 L 0.0664062 7.648438 L 12.300781 7.648438 L 12.300781 0.03125 L 0.0664062 0.03125 Z M 11.417969 3.839844 L 11.417969 6.773438 L 0.949219 6.773438 L 0.941406 3.875 C 0.9375 2.277344 0.941406 0.953125 0.949219 0.929688 C 0.960938 0.898438 2.027344 0.890625 6.191406 0.898438 L 11.417969 0.90625 Z M 11.417969 3.839844 "/>
<path style=" stroke:none;fill-rule:nonzero;fill:rgb(0%,0%,0%);fill-opacity:1;" d="M 12.898438 3.839844 L 12.898438 7.648438 L 28.933594 7.648438 L 28.933594 0.03125 L 12.898438 0.03125 Z M 28.050781 3.839844 L 28.050781 6.773438 L 13.785156 6.773438 L 13.773438 3.875 C 13.769531 2.277344 13.773438 0.953125 13.785156 0.929688 C 13.792969 0.898438 15.238281 0.890625 20.921875 0.898438 L 28.050781 0.90625 Z M 28.050781 3.839844 "/>
<path style=" stroke:none;fill-rule:nonzero;fill:rgb(0%,0%,0%);fill-opacity:1;" d="M 0.0664062 11.257812 L 0.0664062 14.242188 L 6.234375 14.242188 L 6.234375 8.273438 L 0.0664062 8.273438 Z M 5.351562 11.257812 L 5.351562 13.367188 L 0.949219 13.367188 L 0.941406 11.289062 C 0.9375 10.148438 0.941406 9.195312 0.949219 9.171875 C 0.960938 9.136719 1.421875 9.132812 3.15625 9.136719 L 5.351562 9.148438 Z M 5.351562 11.257812 "/>
<path style=" stroke:none;fill-rule:nonzero;fill:rgb(0%,0%,0%);fill-opacity:1;" d="M 7 11.257812 L 7 14.242188 L 17.933594 14.242188 L 17.933594 8.273438 L 7 8.273438 Z M 17.050781 11.257812 L 17.050781 13.367188 L 7.882812 13.367188 L 7.875 11.289062 C 7.871094 10.148438 7.875 9.195312 7.882812 9.171875 C 7.894531 9.136719 8.828125 9.132812 12.472656 9.136719 L 17.050781 9.148438 Z M 17.050781 11.257812 "/>
<path style=" stroke:none;fill-rule:nonzero;fill:rgb(0%,0%,0%);fill-opacity:1;" d="M 18.566406 11.257812 L 18.566406 14.242188 L 28.933594 14.242188 L 28.933594 8.273438 L 18.566406 8.273438 Z M 28.050781 11.257812 L 28.050781 13.367188 L 19.449219 13.367188 L 19.441406 11.289062 C 19.4375 10.148438 19.441406 9.195312 19.449219 9.171875 C 19.460938 9.136719 20.339844 9.132812 23.757812 9.136719 L 28.050781 9.148438 Z M 28.050781 11.257812 "/>
<path style=" stroke:none;fill-rule:nonzero;fill:rgb(0%,0%,0%);fill-opacity:1;" d="M 0.0664062 17.867188 L 0.0664062 20.835938 L 12.101562 20.835938 L 12.101562 14.902344 L 0.0664062 14.902344 Z M 11.214844 17.867188 L 11.214844 19.960938 L 0.949219 19.960938 L 0.941406 17.898438 C 0.9375 16.765625 0.941406 15.820312 0.949219 15.796875 C 0.960938 15.765625 2.007812 15.757812 6.089844 15.765625 L 11.214844 15.773438 Z M 11.214844 17.867188 "/>
<path style=" stroke:none;fill-rule:nonzero;fill:rgb(0%,0%,0%);fill-opacity:1;" d="M 12.867188 17.867188 L 12.867188 20.835938 L 18.847656 20.835938 C 22.136719 20.835938 24.835938 20.847656 24.847656 20.859375 C 24.855469 20.878906 24.824219 21.042969 24.773438 21.234375 L 24.683594 21.574219 L 21.710938 21.585938 L 18.734375 21.59375 L 18.734375 27.558594 L 20.367188 27.558594 C 21.433594 27.558594 22 27.570312 22 27.59375 C 22 27.609375 21.980469 27.625 21.953125 27.625 C 21.859375 27.625 21.363281 27.851562 21.078125 28.023438 L 20.785156 28.203125 L 16.828125 28.210938 L 12.867188 28.21875 L 12.867188 34.152344 L 16.375 34.160156 L 19.878906 34.167969 L 20.058594 34.449219 C 20.152344 34.605469 20.230469 34.75 20.234375 34.769531 C 20.234375 34.800781 20.054688 34.8125 19.433594 34.8125 L 18.632812 34.8125 L 18.632812 36.972656 C 18.632812 38.230469 18.621094 39.128906 18.601562 39.128906 C 18.554688 39.128906 18.0625 38.875 17.996094 38.8125 C 17.9375 38.761719 17.933594 38.679688 17.933594 36.765625 L 17.933594 34.777344 L 7 34.777344 L 7 40.746094 L 12.15625 40.753906 L 17.316406 40.761719 L 17.347656 40.910156 C 17.363281 40.992188 17.410156 41.203125 17.449219 41.378906 C 17.488281 41.554688 17.515625 41.707031 17.507812 41.71875 C 17.496094 41.726562 16.433594 41.734375 15.144531 41.734375 L 12.800781 41.734375 L 12.800781 48.65625 L 18.925781 48.664062 C 24.464844 48.671875 25.078125 48.679688 25.316406 48.730469 C 25.886719 48.84375 25.96875 48.832031 25.550781 48.691406 C 24.96875 48.496094 24.453125 48.207031 23.953125 47.796875 C 22.902344 46.9375 22.277344 45.699219 22.128906 44.183594 C 22.09375 43.820312 22.09375 43.773438 22.148438 43.699219 C 22.230469 43.570312 22.355469 43.589844 22.78125 43.792969 C 22.984375 43.894531 23.199219 43.984375 23.261719 43.992188 C 23.328125 44.003906 23.390625 44.019531 23.402344 44.027344 C 23.464844 44.066406 23.964844 44.042969 24.074219 44 C 24.136719 43.972656 24.246094 43.878906 24.320312 43.792969 L 24.449219 43.636719 L 24.445312 43.269531 C 24.441406 42.761719 24.363281 42.5625 23.789062 41.632812 C 23.390625 40.984375 23.265625 40.738281 23.152344 40.371094 C 22.988281 39.855469 23.042969 39.351562 23.308594 38.859375 C 23.527344 38.445312 24.101562 37.949219 24.566406 37.773438 C 24.785156 37.691406 24.851562 37.695312 24.949219 37.796875 C 25.019531 37.859375 25.035156 37.90625 25.035156 38.074219 C 25.035156 38.488281 25.171875 38.976562 25.398438 39.378906 C 25.804688 40.078125 26.359375 40.328125 26.917969 40.054688 C 27.289062 39.875 27.496094 39.597656 27.5 39.289062 C 27.5 38.953125 27.308594 38.570312 26.75 37.796875 C 26.375 37.273438 26.113281 36.824219 26.019531 36.550781 C 25.851562 36.054688 25.871094 35.386719 26.082031 34.523438 C 26.207031 34.027344 26.261719 33.941406 26.445312 33.960938 C 26.535156 33.972656 26.578125 34.019531 26.785156 34.328125 C 27.125 34.828125 27.34375 35.085938 27.917969 35.664062 C 28.371094 36.125 28.984375 36.667969 29.421875 36.996094 C 29.972656 37.414062 30.109375 37.535156 30.300781 37.757812 C 30.519531 38.027344 30.785156 38.503906 30.898438 38.84375 C 31.035156 39.25 31.136719 39.859375 31.25 40.921875 C 31.28125 41.175781 31.308594 41.386719 31.308594 41.394531 C 31.316406 41.402344 31.386719 41.328125 31.464844 41.238281 C 31.871094 40.761719 32.761719 40.273438 33.003906 40.394531 C 33.148438 40.46875 33.152344 40.574219 33.027344 40.914062 C 32.652344 41.894531 32.5 42.804688 32.574219 43.621094 C 32.695312 45.039062 32.28125 46.285156 31.320312 47.382812 C 30.992188 47.757812 30.324219 48.246094 29.828125 48.476562 C 29.523438 48.613281 29.601562 48.621094 30.109375 48.492188 C 30.78125 48.324219 31.394531 48.101562 31.984375 47.816406 C 32.644531 47.496094 33.125 47.1875 33.683594 46.722656 C 35.136719 45.507812 36.148438 44.003906 36.679688 42.265625 C 37.027344 41.125 37.128906 40.085938 37.019531 38.832031 C 36.996094 38.570312 36.980469 38.09375 36.988281 37.777344 C 37.011719 36.347656 37.269531 35.167969 37.988281 33.257812 C 38.074219 33.03125 38.078125 33 38.039062 32.875 C 37.988281 32.707031 37.808594 32.570312 37.632812 32.570312 C 37.441406 32.570312 36.914062 32.753906 36.511719 32.964844 C 35.90625 33.277344 35.367188 33.699219 34.863281 34.253906 L 34.605469 34.542969 L 34.585938 34.351562 C 34.578125 34.25 34.535156 33.871094 34.5 33.507812 C 34.398438 32.5625 34.238281 31.320312 34.160156 30.9375 C 34.066406 30.476562 33.816406 29.605469 33.679688 29.28125 C 33.171875 28.066406 32.648438 27.394531 31.554688 26.570312 C 30.582031 25.839844 29.5625 25.003906 29.078125 24.539062 L 28.933594 24.40625 L 28.933594 21.59375 L 27.644531 21.585938 L 26.351562 21.574219 L 26.128906 21.246094 C 26.003906 21.066406 25.902344 20.898438 25.898438 20.875 C 25.898438 20.84375 26.226562 20.835938 27.433594 20.835938 L 28.964844 20.835938 L 28.964844 14.902344 L 12.867188 14.902344 Z M 28.082031 17.867188 L 28.082031 19.960938 L 13.75 19.960938 L 13.738281 17.898438 C 13.738281 16.765625 13.738281 15.820312 13.75 15.796875 C 13.761719 15.765625 15.214844 15.757812 20.921875 15.765625 L 28.082031 15.773438 Z M 24.480469 22.476562 C 24.488281 22.492188 24.472656 22.644531 24.445312 22.816406 C 24.363281 23.308594 24.347656 24.3125 24.414062 24.691406 C 24.511719 25.265625 24.738281 25.8125 25.140625 26.464844 C 25.226562 26.605469 25.253906 26.675781 25.226562 26.6875 C 25.203125 26.695312 23.929688 26.699219 22.398438 26.695312 L 19.617188 26.6875 L 19.605469 24.609375 C 19.601562 23.464844 19.605469 22.511719 19.617188 22.488281 C 19.625 22.460938 20.148438 22.449219 22.046875 22.449219 C 23.375 22.449219 24.46875 22.460938 24.480469 22.476562 Z M 28.058594 23 C 28.0625 23.296875 28.058594 23.539062 28.050781 23.539062 C 27.992188 23.539062 27.058594 22.5 27.089844 22.46875 C 27.101562 22.457031 27.324219 22.453125 27.578125 22.457031 L 28.050781 22.464844 Z M 25.917969 27.617188 C 26.109375 27.847656 26.328125 28.1875 26.289062 28.203125 C 26.269531 28.210938 25.457031 28.214844 24.484375 28.210938 L 22.714844 28.203125 L 22.695312 27.996094 C 22.679688 27.832031 22.65625 27.765625 22.585938 27.699219 C 22.539062 27.644531 22.5 27.59375 22.5 27.582031 C 22.5 27.570312 23.257812 27.558594 24.183594 27.558594 C 25.746094 27.558594 25.871094 27.5625 25.917969 27.617188 Z M 19.832031 29.09375 C 19.832031 29.097656 19.765625 29.199219 19.683594 29.320312 C 19.492188 29.585938 19.191406 30.1875 19.121094 30.425781 C 19.03125 30.742188 18.964844 31.183594 18.964844 31.484375 C 18.964844 31.945312 19.136719 32.695312 19.335938 33.113281 C 19.371094 33.183594 19.386719 33.253906 19.375 33.269531 C 19.355469 33.285156 18.085938 33.292969 16.546875 33.289062 L 13.75 33.277344 L 13.738281 31.21875 C 13.738281 30.085938 13.738281 29.136719 13.75 29.113281 C 13.761719 29.085938 14.402344 29.074219 16.800781 29.074219 C 18.464844 29.074219 19.832031 29.082031 19.832031 29.09375 Z M 26.960938 29.164062 C 27.058594 29.300781 27.179688 29.554688 27.285156 29.832031 C 27.367188 30.050781 27.378906 30.128906 27.378906 30.476562 C 27.382812 30.851562 27.378906 30.882812 27.28125 31.089844 C 27.09375 31.476562 26.582031 31.898438 26.078125 32.085938 C 25.800781 32.1875 25.171875 32.1875 24.894531 32.085938 C 24.027344 31.765625 23.238281 30.71875 22.886719 29.414062 C 22.84375 29.25 22.8125 29.105469 22.828125 29.09375 C 22.835938 29.085938 23.757812 29.074219 24.871094 29.074219 L 26.898438 29.074219 Z M 17.050781 37.761719 L 17.050781 39.871094 L 7.882812 39.871094 L 7.875 37.796875 C 7.871094 36.652344 7.875 35.699219 7.882812 35.675781 C 7.894531 35.640625 8.828125 35.636719 12.472656 35.640625 L 17.050781 35.652344 Z M 20.863281 35.765625 C 20.898438 35.816406 21.03125 36.046875 21.148438 36.28125 C 21.90625 37.777344 21.828125 39.011719 20.949219 39.414062 C 20.703125 39.527344 20.308594 39.570312 19.929688 39.527344 C 19.757812 39.507812 19.589844 39.484375 19.558594 39.472656 C 19.503906 39.457031 19.5 39.335938 19.5 37.585938 C 19.5 36.554688 19.511719 35.703125 19.523438 35.691406 C 19.535156 35.679688 19.828125 35.667969 20.171875 35.667969 L 20.796875 35.667969 Z M 17.941406 42.917969 C 18.441406 44.152344 19.128906 45.167969 20.078125 46.101562 C 20.761719 46.773438 21.34375 47.214844 22.058594 47.601562 C 22.210938 47.683594 22.332031 47.761719 22.332031 47.777344 C 22.332031 47.789062 20.386719 47.796875 18.011719 47.792969 L 13.683594 47.785156 L 13.671875 45.230469 C 13.671875 43.824219 13.671875 42.652344 13.683594 42.632812 C 13.691406 42.597656 14.125 42.589844 15.757812 42.597656 L 17.8125 42.609375 Z M 17.941406 42.917969 "/>
<path style=" stroke:none;fill-rule:nonzero;fill:rgb(0%,0%,0%);fill-opacity:1;" d="M 0.0664062 24.574219 L 0.0664062 27.558594 L 6.234375 27.558594 L 6.234375 21.59375 L 0.0664062 21.59375 Z M 5.351562 24.574219 L 5.351562 26.6875 L 0.949219 26.6875 L 0.941406 24.609375 C 0.9375 23.464844 0.941406 22.511719 0.949219 22.488281 C 0.960938 22.457031 1.421875 22.449219 3.15625 22.457031 L 5.351562 22.464844 Z M 5.351562 24.574219 "/>
<path style=" stroke:none;fill-rule:nonzero;fill:rgb(0%,0%,0%);fill-opacity:1;" d="M 7 24.574219 L 7 27.558594 L 17.933594 27.558594 L 17.933594 21.59375 L 7 21.59375 Z M 17.050781 24.574219 L 17.050781 26.6875 L 7.882812 26.6875 L 7.875 24.609375 C 7.871094 23.464844 7.875 22.511719 7.882812 22.488281 C 7.894531 22.457031 8.828125 22.449219 12.472656 22.457031 L 17.050781 22.464844 Z M 17.050781 24.574219 "/>
<path style=" stroke:none;fill-rule:nonzero;fill:rgb(0%,0%,0%);fill-opacity:1;" d="M 0.0664062 31.183594 L 0.0664062 34.152344 L 12.101562 34.152344 L 12.101562 28.21875 L 0.0664062 28.21875 Z M 11.214844 31.183594 L 11.214844 33.277344 L 0.949219 33.277344 L 0.941406 31.21875 C 0.9375 30.085938 0.941406 29.136719 0.949219 29.113281 C 0.960938 29.082031 2.007812 29.074219 6.089844 29.082031 L 11.214844 29.09375 Z M 11.214844 31.183594 "/>
<path style=" stroke:none;fill-rule:nonzero;fill:rgb(0%,0%,0%);fill-opacity:1;" d="M 0.0351562 37.695312 L 0.0351562 40.679688 L 6.234375 40.679688 L 6.234375 34.710938 L 0.0351562 34.710938 Z M 5.351562 37.695312 L 5.351562 39.804688 L 0.917969 39.804688 L 0.90625 37.730469 C 0.902344 36.585938 0.90625 35.632812 0.917969 35.609375 C 0.925781 35.578125 1.390625 35.570312 3.140625 35.578125 L 5.351562 35.585938 Z M 5.351562 37.695312 "/>
<path style=" stroke:none;fill-rule:nonzero;fill:rgb(0%,0%,0%);fill-opacity:1;" d="M 0.0351562 45.230469 L 0.0351562 48.691406 L 12.035156 48.691406 L 12.035156 41.765625 L 0.0351562 41.765625 Z M 11.148438 45.230469 L 11.148438 47.816406 L 0.917969 47.816406 L 0.90625 45.261719 C 0.902344 43.855469 0.90625 42.6875 0.917969 42.664062 C 0.925781 42.632812 1.96875 42.625 6.039062 42.632812 L 11.148438 42.640625 Z M 11.148438 45.230469 "/>
</g>
</svg>
