<?xml version="1.0" encoding="UTF-8"?>
<svg xmlns="http://www.w3.org/2000/svg" xmlns:xlink="http://www.w3.org/1999/xlink" width="50px" height="50px" viewBox="0 0 50 50" version="1.1">
<g id="surface1">
<path style=" stroke:none;fill-rule:nonzero;fill:rgb(0%,0%,0%);fill-opacity:1;" d="M 7.488281 0.105469 C 7.214844 0.226562 6.984375 0.492188 6.941406 0.730469 C 6.925781 0.828125 6.917969 11.816406 6.925781 25.148438 L 6.941406 49.386719 L 7.113281 49.601562 C 7.203125 49.714844 7.363281 49.851562 7.46875 49.902344 C 7.644531 49.996094 8.59375 50 24.96875 50 C 41.679688 50 42.285156 49.996094 42.5 49.894531 C 42.75 49.78125 42.933594 49.601562 43.015625 49.378906 C 43.058594 49.269531 43.074219 43.523438 43.074219 30.140625 C 43.074219 12.625 43.070312 11.046875 42.988281 10.878906 C 42.867188 10.625 32.445312 0.285156 32.144531 0.121094 L 31.917969 0 L 19.816406 0 C 8.1875 0 7.699219 0.00390625 7.488281 0.105469 Z M 30.675781 6.644531 C 30.675781 9.859375 30.695312 11.390625 30.734375 11.539062 C 30.816406 11.835938 31.03125 12.109375 31.253906 12.203125 C 31.410156 12.269531 32.265625 12.28125 36.269531 12.28125 L 41.101562 12.28125 L 41.101562 48.027344 L 8.890625 48.027344 L 8.890625 1.972656 L 30.675781 1.972656 Z M 38.082031 8.738281 L 39.644531 10.308594 L 32.703125 10.308594 L 32.703125 3.441406 L 34.613281 5.308594 C 35.660156 6.332031 37.21875 7.878906 38.082031 8.738281 Z M 38.082031 8.738281 "/>
<path style=" stroke:none;fill-rule:nonzero;fill:rgb(0%,0%,0%);fill-opacity:1;" d="M 11.46875 3.515625 C 11.039062 3.597656 10.734375 3.921875 10.667969 4.363281 C 10.625 4.683594 10.828125 5.121094 11.117188 5.316406 L 11.324219 5.453125 L 21.554688 5.453125 L 21.769531 5.285156 C 22.070312 5.039062 22.191406 4.800781 22.191406 4.46875 C 22.179688 3.957031 21.878906 3.609375 21.34375 3.507812 C 20.984375 3.441406 11.820312 3.441406 11.46875 3.515625 Z M 11.46875 3.515625 "/>
<path style=" stroke:none;fill-rule:nonzero;fill:rgb(0%,0%,0%);fill-opacity:1;" d="M 25.058594 3.53125 C 24.445312 3.699219 24.148438 4.332031 24.414062 4.90625 C 24.535156 5.171875 24.65625 5.285156 24.929688 5.398438 C 25.09375 5.464844 25.410156 5.484375 26.707031 5.484375 C 28.199219 5.484375 28.292969 5.476562 28.523438 5.367188 C 29.257812 5.011719 29.234375 3.910156 28.480469 3.570312 C 28.214844 3.453125 25.460938 3.414062 25.058594 3.53125 Z M 25.058594 3.53125 "/>
<path style=" stroke:none;fill-rule:nonzero;fill:rgb(0%,0%,0%);fill-opacity:1;" d="M 22.738281 15.542969 C 22.597656 15.636719 22.535156 15.789062 22.394531 16.363281 C 21.972656 18.101562 21.921875 19.304688 22.246094 20.230469 C 22.441406 20.785156 22.78125 21.371094 23.558594 22.460938 C 24.636719 23.992188 24.914062 24.539062 24.914062 25.179688 C 24.90625 25.800781 24.570312 26.265625 23.875 26.601562 C 23.566406 26.753906 23.453125 26.78125 23.101562 26.78125 C 22.535156 26.78125 22.167969 26.605469 21.679688 26.109375 C 21.003906 25.421875 20.550781 24.316406 20.472656 23.175781 C 20.421875 22.496094 20.339844 22.339844 20.011719 22.351562 C 19.371094 22.367188 18.109375 23.238281 17.574219 24.023438 C 17.066406 24.78125 16.878906 25.421875 16.910156 26.289062 C 16.957031 27.226562 17.195312 27.8125 18.21875 29.46875 C 18.550781 30.011719 18.898438 30.601562 18.984375 30.785156 C 19.585938 32.035156 19.605469 33.066406 19.039062 33.574219 C 18.507812 34.050781 17.488281 33.976562 16.269531 33.359375 C 15.523438 32.988281 15.386719 32.976562 15.226562 33.277344 C 15.09375 33.53125 15.234375 34.859375 15.5 35.925781 C 16.273438 39.003906 18.585938 41.464844 21.582031 42.414062 C 22.121094 42.582031 22.914062 42.761719 23.128906 42.757812 L 23.292969 42.757812 L 23.097656 42.679688 C 22.414062 42.433594 21.6875 41.957031 21.242188 41.46875 C 20.472656 40.628906 20.066406 39.71875 19.917969 38.523438 C 19.824219 37.742188 19.898438 37.675781 20.511719 37.976562 C 20.851562 38.148438 21 38.183594 21.328125 38.203125 C 21.722656 38.222656 21.730469 38.222656 21.921875 38.03125 C 22.097656 37.855469 22.113281 37.8125 22.113281 37.503906 C 22.113281 37.074219 21.980469 36.734375 21.5 35.933594 C 20.933594 34.984375 20.839844 34.753906 20.8125 34.238281 C 20.773438 33.636719 20.910156 33.285156 21.355469 32.808594 C 21.769531 32.367188 22.3125 32.074219 22.523438 32.171875 C 22.640625 32.226562 22.664062 32.273438 22.664062 32.472656 C 22.664062 33.304688 23.289062 34.359375 23.847656 34.460938 C 24.429688 34.574219 25.023438 34.144531 25.023438 33.625 C 25.023438 33.34375 24.792969 32.894531 24.285156 32.183594 C 23.5625 31.164062 23.402344 30.640625 23.535156 29.769531 C 23.617188 29.238281 23.761719 28.664062 23.824219 28.574219 C 23.933594 28.441406 24.089844 28.507812 24.269531 28.765625 C 25.027344 29.859375 25.824219 30.65625 27.207031 31.710938 C 27.859375 32.210938 28.25 32.945312 28.445312 34.046875 C 28.507812 34.386719 28.644531 35.5 28.644531 35.65625 C 28.644531 35.664062 28.785156 35.527344 28.960938 35.363281 C 29.300781 35.042969 29.90625 34.703125 30.140625 34.703125 C 30.414062 34.703125 30.425781 34.8125 30.214844 35.445312 C 29.917969 36.308594 29.835938 36.890625 29.867188 37.757812 C 29.882812 38.152344 29.871094 38.65625 29.84375 38.871094 C 29.660156 40.382812 28.691406 41.753906 27.332031 42.441406 C 26.925781 42.648438 27.070312 42.636719 27.871094 42.40625 C 29.28125 42 30.414062 41.328125 31.503906 40.242188 C 32.796875 38.953125 33.539062 37.609375 33.976562 35.746094 C 34.097656 35.253906 34.101562 35.125 34.085938 33.414062 C 34.070312 30.964844 34.175781 30.21875 34.792969 28.507812 C 35.089844 27.679688 35.128906 27.472656 35.003906 27.324219 C 34.8125 27.09375 34.453125 27.136719 33.734375 27.496094 C 33.179688 27.769531 32.894531 27.984375 32.316406 28.546875 L 31.78125 29.0625 L 31.75 28.636719 C 31.363281 24.222656 30.789062 22.824219 28.699219 21.25 C 27.65625 20.460938 26.875 19.78125 25.839844 18.75 C 24.765625 17.679688 24.175781 16.984375 23.605469 16.109375 C 23.183594 15.449219 23.019531 15.34375 22.738281 15.542969 Z M 22.738281 15.542969 "/>
</g>
</svg>
