<?xml version="1.0" encoding="UTF-8"?>
<svg xmlns="http://www.w3.org/2000/svg" xmlns:xlink="http://www.w3.org/1999/xlink" width="26px" height="50px" viewBox="0 0 26 50" version="1.1">
<g id="surface1">
<path style=" stroke:none;fill-rule:nonzero;fill:rgb(0%,0%,0%);fill-opacity:1;" d="M 0 24.996094 L 0 49.988281 L 26 49.988281 L 26 0 L 0 0 Z M 25.144531 24.996094 L 25.144531 49.144531 L 0.855469 49.144531 L 0.855469 0.84375 L 25.144531 0.84375 Z M 25.773438 2.984375 L 25.765625 3.449219 L 25.378906 3.449219 L 25.371094 2.984375 L 25.367188 2.519531 L 25.78125 2.519531 Z M 25.773438 4.605469 L 25.765625 5.628906 L 25.378906 5.628906 L 25.371094 4.605469 L 25.367188 3.585938 L 25.78125 3.585938 Z M 25.773438 6.214844 L 25.765625 6.664062 L 25.632812 6.671875 C 25.351562 6.6875 25.367188 6.714844 25.367188 6.207031 L 25.367188 5.765625 L 25.78125 5.765625 Z M 25.773438 44.195312 L 25.765625 44.660156 L 25.378906 44.660156 L 25.371094 44.195312 L 25.367188 43.734375 L 25.78125 43.734375 Z M 25.773438 45.820312 L 25.765625 46.839844 L 25.378906 46.839844 L 25.371094 45.820312 L 25.367188 44.796875 L 25.78125 44.796875 Z M 25.773438 47.425781 L 25.765625 47.875 L 25.378906 47.875 L 25.371094 47.425781 L 25.367188 46.976562 L 25.78125 46.976562 Z M 25.773438 47.425781 "/>
<path style=" stroke:none;fill-rule:nonzero;fill:rgb(0%,0%,0%);fill-opacity:1;" d="M 2.945312 22.652344 C 2.792969 22.722656 2.683594 22.820312 2.609375 22.964844 C 2.546875 23.074219 2.546875 23.082031 2.546875 24.761719 C 2.546875 26.441406 2.546875 26.453125 2.609375 26.5625 C 2.734375 26.796875 2.933594 26.914062 3.195312 26.914062 C 3.457031 26.914062 3.65625 26.796875 3.78125 26.5625 C 3.84375 26.457031 3.84375 26.425781 3.851562 25.148438 L 3.859375 23.851562 L 4.785156 23.851562 C 5.335938 23.851562 5.78125 23.839844 5.886719 23.820312 C 6.304688 23.746094 6.40625 23.472656 6.074219 23.304688 L 5.933594 23.238281 L 4.898438 23.226562 C 3.945312 23.21875 3.855469 23.214844 3.855469 23.171875 C 3.851562 23.097656 3.75 22.886719 3.667969 22.804688 C 3.488281 22.613281 3.171875 22.546875 2.945312 22.652344 Z M 2.945312 22.652344 "/>
<path style=" stroke:none;fill-rule:nonzero;fill:rgb(0%,0%,0%);fill-opacity:1;" d="M 19.519531 39.363281 C 19.460938 39.410156 19.34375 39.886719 19.308594 40.210938 C 19.253906 40.746094 19.347656 41.023438 19.800781 41.664062 C 20.238281 42.277344 20.339844 42.554688 20.21875 42.789062 C 20.074219 43.0625 19.691406 43.199219 19.402344 43.070312 C 19.261719 43.007812 19.039062 42.761719 18.941406 42.5625 C 18.847656 42.375 18.757812 42.035156 18.757812 41.878906 C 18.757812 41.640625 18.691406 41.597656 18.460938 41.679688 C 18.101562 41.8125 17.757812 42.148438 17.621094 42.507812 C 17.570312 42.636719 17.558594 42.722656 17.5625 42.914062 C 17.5625 43.230469 17.636719 43.421875 17.976562 43.980469 C 18.351562 44.589844 18.449219 44.847656 18.417969 45.113281 C 18.367188 45.53125 17.925781 45.613281 17.332031 45.316406 C 17.105469 45.207031 17.074219 45.199219 17.011719 45.269531 C 16.957031 45.332031 16.957031 45.453125 17.007812 45.792969 C 17.117188 46.519531 17.382812 47.070312 17.871094 47.570312 C 18.21875 47.929688 18.625 48.183594 19.101562 48.34375 C 19.289062 48.402344 19.691406 48.496094 19.691406 48.476562 C 19.691406 48.472656 19.597656 48.425781 19.484375 48.371094 C 19.242188 48.25 18.980469 48.019531 18.835938 47.800781 C 18.707031 47.601562 18.59375 47.273438 18.570312 47.027344 C 18.550781 46.792969 18.582031 46.769531 18.777344 46.867188 C 19.039062 46.996094 19.222656 46.976562 19.304688 46.816406 C 19.363281 46.695312 19.304688 46.5 19.113281 46.191406 C 18.839844 45.738281 18.804688 45.515625 18.964844 45.253906 C 19.0625 45.097656 19.273438 44.941406 19.394531 44.9375 C 19.484375 44.933594 19.484375 44.9375 19.503906 45.082031 C 19.53125 45.273438 19.671875 45.554688 19.777344 45.628906 C 19.886719 45.707031 20 45.722656 20.101562 45.671875 C 20.234375 45.601562 20.296875 45.519531 20.296875 45.417969 C 20.296875 45.304688 20.257812 45.222656 20.03125 44.890625 C 19.820312 44.582031 19.765625 44.414062 19.789062 44.175781 C 19.816406 43.945312 19.890625 43.710938 19.945312 43.699219 C 19.972656 43.691406 20.027344 43.75 20.089844 43.84375 C 20.230469 44.054688 20.566406 44.394531 20.867188 44.636719 C 21.179688 44.882812 21.300781 45.023438 21.371094 45.210938 C 21.4375 45.386719 21.511719 45.773438 21.511719 45.957031 C 21.511719 46.03125 21.515625 46.089844 21.523438 46.089844 C 21.527344 46.089844 21.578125 46.046875 21.632812 45.996094 C 21.742188 45.890625 21.972656 45.765625 22.046875 45.765625 C 22.121094 45.765625 22.121094 45.835938 22.054688 46.042969 C 21.960938 46.300781 21.921875 46.59375 21.941406 46.882812 C 21.96875 47.320312 21.820312 47.710938 21.503906 48.042969 C 21.398438 48.152344 21.25 48.273438 21.160156 48.320312 C 20.96875 48.425781 20.992188 48.425781 21.300781 48.339844 C 22.042969 48.128906 22.703125 47.570312 23.0625 46.855469 C 23.332031 46.324219 23.398438 46 23.371094 45.316406 C 23.355469 44.925781 23.363281 44.757812 23.398438 44.53125 C 23.441406 44.230469 23.550781 43.816406 23.65625 43.5625 C 23.726562 43.386719 23.726562 43.355469 23.667969 43.296875 C 23.554688 43.183594 23.136719 43.371094 22.800781 43.683594 C 22.644531 43.835938 22.585938 43.878906 22.585938 43.839844 C 22.582031 43.667969 22.492188 42.953125 22.445312 42.710938 C 22.296875 41.996094 22.117188 41.714844 21.460938 41.203125 C 20.730469 40.632812 20.117188 40.011719 19.816406 39.535156 C 19.679688 39.320312 19.625 39.289062 19.519531 39.363281 Z M 19.519531 39.363281 "/>
</g>
</svg>
