<?xml version="1.0" encoding="UTF-8"?>
<svg xmlns="http://www.w3.org/2000/svg" xmlns:xlink="http://www.w3.org/1999/xlink" width="50px" height="50px" viewBox="0 0 50 50" version="1.1">
<g id="surface1">
<path style=" stroke:none;fill-rule:nonzero;fill:rgb(0%,0%,0%);fill-opacity:1;" d="M 0 8.34375 L 0 18.035156 L 1.886719 18.035156 L 1.886719 43.851562 L 48.113281 43.851562 L 48.113281 18.035156 L 50 18.035156 L 50 8.34375 Z M 5.867188 42.320312 L 3.417969 42.320312 L 3.417969 18.035156 L 5.867188 18.035156 Z M 42.601562 42.320312 L 7.398438 42.320312 L 7.398438 38.179688 L 11.484375 34.171875 L 38.515625 34.171875 L 42.601562 38.179688 Z M 7.398438 36.035156 L 7.398438 34.171875 L 9.300781 34.171875 Z M 42.601562 36.035156 L 40.699219 34.171875 L 42.601562 34.171875 Z M 42.601562 29.414062 L 16.53125 29.414062 L 16.53125 30.945312 L 42.601562 30.945312 L 42.601562 32.640625 L 7.398438 32.640625 L 7.398438 30.945312 L 10.917969 30.945312 L 10.917969 29.414062 L 7.398438 29.414062 L 7.398438 27.71875 L 42.601562 27.71875 Z M 42.601562 26.1875 L 7.398438 26.1875 L 7.398438 24.488281 L 36.734375 24.488281 L 36.734375 22.960938 L 7.398438 22.960938 L 7.398438 21.261719 L 42.601562 21.261719 Z M 42.601562 19.730469 L 7.398438 19.730469 L 7.398438 18.035156 L 42.601562 18.035156 Z M 46.582031 42.320312 L 44.132812 42.320312 L 44.132812 18.035156 L 46.582031 18.035156 Z M 48.46875 16.503906 L 1.53125 16.503906 L 1.53125 9.871094 L 48.46875 9.871094 Z M 48.46875 16.503906 "/>
<path style=" stroke:none;fill-rule:nonzero;fill:rgb(0%,0%,0%);fill-opacity:1;" d="M 4.59375 6.148438 L 45.40625 6.148438 L 45.40625 7.679688 L 4.59375 7.679688 Z M 4.59375 6.148438 "/>
<path style=" stroke:none;fill-rule:nonzero;fill:rgb(0%,0%,0%);fill-opacity:1;" d="M 12.960938 29.414062 L 14.488281 29.414062 L 14.488281 30.945312 L 12.960938 30.945312 Z M 12.960938 29.414062 "/>
<path style=" stroke:none;fill-rule:nonzero;fill:rgb(0%,0%,0%);fill-opacity:1;" d="M 38.777344 22.960938 L 40.304688 22.960938 L 40.304688 24.488281 L 38.777344 24.488281 Z M 38.777344 22.960938 "/>
<path style=" stroke:none;fill-rule:nonzero;fill:rgb(0%,0%,0%);fill-opacity:1;" d="M 20.664062 12.421875 L 22.195312 12.421875 L 22.195312 13.953125 L 20.664062 13.953125 Z M 20.664062 12.421875 "/>
<path style=" stroke:none;fill-rule:nonzero;fill:rgb(0%,0%,0%);fill-opacity:1;" d="M 27.804688 12.421875 L 29.335938 12.421875 L 29.335938 13.953125 L 27.804688 13.953125 Z M 27.804688 12.421875 "/>
<path style=" stroke:none;fill-rule:nonzero;fill:rgb(0%,0%,0%);fill-opacity:1;" d="M 24.234375 12.421875 L 25.765625 12.421875 L 25.765625 13.953125 L 24.234375 13.953125 Z M 24.234375 12.421875 "/>
</g>
</svg>
