<?xml version="1.0" encoding="UTF-8"?>
<svg xmlns="http://www.w3.org/2000/svg" xmlns:xlink="http://www.w3.org/1999/xlink" width="26px" height="50px" viewBox="0 0 26 50" version="1.1">
<g id="surface1">
<path style=" stroke:none;fill-rule:nonzero;fill:rgb(0%,0%,0%);fill-opacity:1;" d="M 0 24.996094 L 0 49.988281 L 26 49.988281 L 26 0 L 0 0 Z M 25.144531 24.996094 L 25.144531 49.144531 L 0.855469 49.144531 L 0.855469 0.84375 L 25.144531 0.84375 Z M 25.773438 2.984375 L 25.765625 3.449219 L 25.378906 3.449219 L 25.371094 2.984375 L 25.367188 2.519531 L 25.78125 2.519531 Z M 25.773438 4.605469 L 25.765625 5.628906 L 25.378906 5.628906 L 25.371094 4.605469 L 25.367188 3.585938 L 25.78125 3.585938 Z M 25.773438 6.214844 L 25.765625 6.664062 L 25.632812 6.671875 C 25.351562 6.6875 25.367188 6.714844 25.367188 6.207031 L 25.367188 5.765625 L 25.78125 5.765625 Z M 25.773438 44.195312 L 25.765625 44.660156 L 25.378906 44.660156 L 25.371094 44.195312 L 25.367188 43.734375 L 25.78125 43.734375 Z M 25.773438 45.820312 L 25.765625 46.839844 L 25.378906 46.839844 L 25.371094 45.820312 L 25.367188 44.796875 L 25.78125 44.796875 Z M 25.773438 47.425781 L 25.765625 47.875 L 25.378906 47.875 L 25.371094 47.425781 L 25.367188 46.976562 L 25.78125 46.976562 Z M 25.773438 47.425781 "/>
<path style=" stroke:none;fill-rule:nonzero;fill:rgb(0%,0%,0%);fill-opacity:1;" d="M 2.945312 22.652344 C 2.792969 22.722656 2.683594 22.820312 2.609375 22.964844 C 2.546875 23.074219 2.546875 23.082031 2.546875 24.761719 C 2.546875 26.441406 2.546875 26.453125 2.609375 26.5625 C 2.734375 26.796875 2.933594 26.914062 3.195312 26.914062 C 3.457031 26.914062 3.65625 26.796875 3.78125 26.5625 C 3.84375 26.457031 3.84375 26.425781 3.851562 25.148438 L 3.859375 23.851562 L 4.785156 23.851562 C 5.335938 23.851562 5.78125 23.839844 5.886719 23.820312 C 6.304688 23.746094 6.40625 23.472656 6.074219 23.304688 L 5.933594 23.238281 L 4.898438 23.226562 C 3.945312 23.21875 3.855469 23.214844 3.855469 23.171875 C 3.851562 23.097656 3.75 22.886719 3.667969 22.804688 C 3.488281 22.613281 3.171875 22.546875 2.945312 22.652344 Z M 2.945312 22.652344 "/>
<path style=" stroke:none;fill-rule:nonzero;fill:rgb(0%,0%,0%);fill-opacity:1;" d="M 19.457031 39.542969 C 19.4375 39.605469 19.457031 39.632812 19.613281 39.765625 C 19.878906 39.992188 20.070312 40.199219 20.207031 40.402344 C 20.691406 41.128906 20.726562 41.84375 20.324219 42.644531 C 20.128906 43.019531 19.929688 43.285156 19.5 43.734375 C 19.152344 44.097656 19.089844 44.171875 18.886719 44.449219 C 18.582031 44.875 18.382812 45.316406 18.304688 45.777344 C 18.25 46.082031 18.25 46.234375 18.300781 46.527344 C 18.375 46.941406 18.523438 47.308594 18.757812 47.652344 C 18.917969 47.878906 18.960938 47.929688 19.234375 48.199219 C 19.476562 48.433594 19.558594 48.476562 19.632812 48.402344 C 19.6875 48.347656 19.671875 48.304688 19.519531 48.140625 C 19.132812 47.722656 18.957031 47.308594 19.027344 46.96875 C 19.085938 46.703125 19.21875 46.464844 19.457031 46.199219 C 19.648438 45.992188 19.71875 45.921875 20.222656 45.46875 C 20.90625 44.847656 21.207031 44.460938 21.34375 44.042969 C 21.476562 43.621094 21.523438 42.808594 21.441406 42.308594 C 21.289062 41.386719 20.90625 40.664062 20.207031 39.972656 C 19.722656 39.496094 19.5 39.367188 19.457031 39.542969 Z M 19.457031 39.542969 "/>
<path style=" stroke:none;fill-rule:nonzero;fill:rgb(0%,0%,0%);fill-opacity:1;" d="M 18.195312 39.789062 C 18.167969 39.816406 18.152344 39.855469 18.152344 39.871094 C 18.152344 39.886719 18.246094 39.996094 18.367188 40.113281 C 18.507812 40.253906 18.609375 40.382812 18.660156 40.488281 C 18.730469 40.636719 18.738281 40.679688 18.742188 40.941406 C 18.742188 41.222656 18.738281 41.230469 18.625 41.457031 C 18.511719 41.6875 18.441406 41.78125 18.101562 42.148438 C 17.777344 42.5 17.617188 42.789062 17.558594 43.136719 C 17.476562 43.59375 17.652344 44.070312 18.035156 44.449219 C 18.191406 44.601562 18.273438 44.640625 18.328125 44.59375 C 18.394531 44.539062 18.375 44.457031 18.273438 44.339844 C 18.222656 44.277344 18.148438 44.167969 18.109375 44.089844 C 17.957031 43.789062 18.035156 43.636719 18.628906 43.054688 C 18.886719 42.808594 19.113281 42.558594 19.15625 42.484375 C 19.375 42.109375 19.394531 41.429688 19.207031 40.886719 C 19.082031 40.515625 18.71875 40.054688 18.378906 39.820312 C 18.242188 39.726562 18.253906 39.726562 18.195312 39.789062 Z M 18.195312 39.789062 "/>
<path style=" stroke:none;fill-rule:nonzero;fill:rgb(0%,0%,0%);fill-opacity:1;" d="M 22.039062 42.636719 C 21.980469 42.695312 22.003906 42.742188 22.207031 42.9375 C 22.484375 43.203125 22.597656 43.425781 22.605469 43.738281 C 22.625 44.132812 22.503906 44.386719 22.054688 44.863281 C 21.597656 45.351562 21.402344 45.75 21.402344 46.179688 C 21.402344 46.574219 21.539062 46.902344 21.847656 47.226562 C 22.046875 47.4375 22.097656 47.46875 22.171875 47.425781 C 22.253906 47.382812 22.238281 47.300781 22.121094 47.164062 C 21.917969 46.9375 21.847656 46.695312 21.929688 46.507812 C 21.96875 46.414062 22.125 46.214844 22.253906 46.09375 C 23.101562 45.304688 23.175781 45.171875 23.175781 44.484375 C 23.171875 44.070312 23.136719 43.890625 22.980469 43.5625 C 22.851562 43.285156 22.683594 43.058594 22.417969 42.8125 C 22.195312 42.601562 22.109375 42.5625 22.039062 42.636719 Z M 22.039062 42.636719 "/>
</g>
</svg>
