<?xml version="1.0" encoding="utf-8"?>
<!-- Generator: Adobe Illustrator 27.6.0, SVG Export Plug-In . SVG Version: 6.00 Build 0)  -->
<svg version="1.1" id="Ebene_1" xmlns="http://www.w3.org/2000/svg" xmlns:xlink="http://www.w3.org/1999/xlink" x="0px" y="0px"
	 viewBox="0 0 200 203.3" style="enable-background:new 0 0 200 203.3;" xml:space="preserve">
<style type="text/css">
	.st0{fill:#E20613;}
	.st1{fill:#FFFFFF;}
	.st2{fill:none;}
</style>
<g>
	<g>
		<path class="st0" d="M14,15.7c0,57.4,0,114.6,0,171.9c57.3,0,114.7,0,171.9,0c0-57.4,0-114.6,0-171.9
			C128.7,15.7,71.4,15.7,14,15.7z M178.2,179.9H21.8v-0.7c0-51.9,0-103.7,0-155.7c0.6,0,1.3,0,1.9,0c50.8,0,101.5,0,152.3,0h2.2
			V179.9z"/>
		<path class="st1" d="M23.7,23.5c-0.6,0-1.3,0-1.9,0c0,52,0,103.8,0,155.7v0.7h156.4V23.5H176C125.2,23.5,74.5,23.5,23.7,23.5z"/>
	</g>
	<g>
		<path class="st2" d="M52.4,124.4c5.9,0,9.2-2.8,9.9-8.6C61.6,121.6,58.4,124.4,52.4,124.4z"/>
		<path class="st2" d="M68.8,115.2c-0.3,5.1-1.7,9.7-5.7,13.1c-2.9,2.4-6.4,3.1-10,3.2c-6.7,0.2-13.4,0-20.2,0c0-19.9,0-39.8,0-59.7
			c7.1,0,14.2-0.3,21.1,0.1C62.4,72.3,65.8,79,66.4,85c0.6,5.7-1.1,10.7-5.9,14.2c-0.1,0.1-0.2,0.2-0.2,0.2c1.6,1.2,3.3,2.2,4.7,3.6
			C68.1,106.4,69.1,110.7,68.8,115.2z M117.1,131.6c0-16.4,0-32.7,0-49.1c-0.1,0-0.2,0-0.4-0.1c-4.5,16.3-9.1,32.6-13.6,49.1
			c-1.9,0-3.8,0-5.8,0c-4.5-16.5-9-33-13.5-49.6c-0.1,0-0.2,0-0.3,0c0,16.5,0,33,0,49.6c-2.1,0-4,0-6,0c0-19.9,0-39.8,0-59.8
			c3.1,0,6.1,0,9.4,0c4.5,16.8,9,33.7,13.6,51c4.7-17.3,9.4-34.1,14-51c2.8,0,5.5,0,8.4,0c0.1,19.9,0.1,39.8,0.1,59.9
			C120.9,131.6,119.1,131.6,117.1,131.6z M167.1,131.5c-12.5,0-25,0-37.8,0c0.3-3.4-0.7-6.8,1.6-10.2c8.6-13,17-26.1,25.4-39.2
			c0.7-1,1.4-2,2.3-3.2c-8.9,0-17.6,0-26.5,0c0-2.5,0-4.8,0-7.2c11.4,0,22.7,0,34.2,0c0,2.3,0,4.6,0,6.9c0,0.5-0.4,1-0.8,1.5
			c-9.5,14.5-18.9,29-28.4,43.5c-0.1,0.2-0.2,0.4-0.4,0.7c10.2,0,20.2,0,30.4,0C167.1,126.8,167.1,129.1,167.1,131.5z"/>
		<path class="st2" d="M52.6,96.7c3.3-0.1,6-1.5,7.2-4.8c0.5-1.5,0.7-3,0.7-4.4c0.1,1.5-0.2,2.9-0.7,4.3
			C58.6,95.2,55.9,96.5,52.6,96.7c-4.5,0.1-8.7,0-13.3,0C43.8,96.7,48.1,96.8,52.6,96.7z"/>
		<path d="M114.4,71.7c-4.6,16.9-9.3,33.7-14,51c-4.6-17.3-9.1-34.2-13.6-51c-3.3,0-6.3,0-9.4,0c0,20,0,39.9,0,59.8c2,0,3.9,0,6,0
			c0-16.6,0-33.1,0-49.6c0.1,0,0.2,0,0.3,0c4.5,16.6,9,33.1,13.5,49.6c2,0,3.9,0,5.8,0c4.5-16.5,9.1-32.8,13.6-49.1
			c0.2,0.1,0.3,0.1,0.4,0.1c0,16.4,0,32.7,0,49.1c2,0,3.9,0,5.9,0c0-20.1,0-40-0.1-59.9C119.9,71.7,117.3,71.7,114.4,71.7z"/>
		<path d="M60.3,99.4c0,0,0.1-0.1,0.2-0.2c4.8-3.5,6.5-8.5,5.9-14.2c-0.6-6-4-12.7-12.4-13.1c-6.9-0.4-14-0.1-21.1-0.1
			c0,19.9,0,39.8,0,59.7c6.8,0,13.5,0.2,20.2,0c3.6-0.1,7.1-0.8,10-3.2c4-3.4,5.4-8,5.7-13.1c0.3-4.5-0.6-8.8-3.8-12.2
			C63.6,101.6,61.9,100.6,60.3,99.4z M39.3,78.8c0,0,0-0.1,0-0.1c5.2,0.2,10.4,0.3,15.5,0.7c2.1,0.2,3.7,1.6,4.6,3.6
			c0.7,1.5,1,3,1.1,4.5c0.1,1.5-0.2,2.9-0.7,4.4c-1.2,3.3-3.9,4.7-7.2,4.8c-4.4,0.1-8.8,0-13.3,0C39.3,90.7,39.3,84.9,39.3,78.8z
			 M62.4,115.8c-0.7,5.8-4,8.6-9.9,8.6c-4.3,0-8.7,0-13.1,0c0-6.8,0-13.5,0-20.2c4.9,0,9.7-0.4,14.5,0.1
			C60.1,104.9,63.3,109.5,62.4,115.8z"/>
		<path d="M137.1,123.6c9.5-14.5,18.9-29,28.4-43.5c0.4-0.5,0.8-1,0.8-1.5c0-2.3,0-4.6,0-6.9c-11.5,0-22.8,0-34.2,0
			c0,2.4,0,4.7,0,7.2c8.9,0,17.6,0,26.5,0c-0.9,1.2-1.6,2.2-2.3,3.2c-8.4,13.1-16.8,26.2-25.4,39.2c-2.3,3.4-1.3,6.8-1.6,10.2
			c12.8,0,25.3,0,37.8,0c0-2.4,0-4.7,0-7.2c-10.2,0-20.2,0-30.4,0C137,124,137.1,123.8,137.1,123.6z"/>
		<path class="st1" d="M53.9,104.3c-4.8-0.5-9.6-0.1-14.5-0.1c0,6.7,0,13.4,0,20.2c4.4,0,8.8,0,13.1,0c5.9,0,9.1-2.8,9.9-8.6
			C63.3,109.5,60.1,104.9,53.9,104.3z"/>
		<path class="st1" d="M52.6,96.6c3.3-0.1,6-1.4,7.2-4.8c0.5-1.4,0.7-2.9,0.7-4.3c-0.1-1.5-0.4-3-1.1-4.5c-0.9-2-2.5-3.4-4.6-3.6
			c-5.1-0.4-10.3-0.5-15.5-0.7c0,0,0,0.1,0,0.1c0,6.1,0,11.9,0,17.9C43.9,96.7,48.1,96.8,52.6,96.6z"/>
	</g>
</g>
</svg>
