<?xml version="1.0" encoding="utf-8"?>
<!-- Generator: Adobe Illustrator 27.6.1, SVG Export Plug-In . SVG Version: 6.00 Build 0)  -->
<svg version="1.1" id="Ebene_1" xmlns="http://www.w3.org/2000/svg" xmlns:xlink="http://www.w3.org/1999/xlink" x="0px" y="0px"
	 viewBox="0 0 841.9 207.6" style="enable-background:new 0 0 841.9 207.6;" xml:space="preserve">
<style type="text/css">
	.st0{fill:url(#SVGID_1_);}
	.st1{fill:url(#SVGID_00000062882336235215400600000017204154812966886811_);}
	.st2{fill:url(#SVGID_00000054234153582791669720000010161007211210273705_);}
	.st3{fill:url(#SVGID_00000054259107089495572410000014897696608702547635_);}
	.st4{fill:url(#SVGID_00000109023736772039127090000006742015417890037138_);}
	.st5{fill:#575756;}
	.st6{fill:#3C3C3B;}
	.st7{fill:url(#SVGID_00000126318748758868316370000011958931598463870118_);}
	.st8{fill:#FFFFFF;}
</style>
<g>
	<g>
		<g>
			<linearGradient id="SVGID_1_" gradientUnits="userSpaceOnUse" x1="319.6074" y1="139.768" x2="286.0321" y2="81.6139">
				<stop  offset="0.2421" style="stop-color:#EA4F3D"/>
				<stop  offset="0.4788" style="stop-color:#E94B3D"/>
				<stop  offset="0.7453" style="stop-color:#E83C3D"/>
				<stop  offset="1" style="stop-color:#E6223D"/>
			</linearGradient>
			<path class="st0" d="M313.2,104.5c8.3,0,13.3,4.7,11.8,13.3l-2.4,13.8c-1.6,8.6-8.1,12.8-16.4,12.8h-32.1l2-11.3h28.3
				c4,0,6.4-1.9,7.2-6.6l0.7-4c0.9-4.7-0.9-6.6-4.9-6.6h-14.8c-8.3,0-13.4-4.6-11.8-13.3l2.2-12.7c1.6-8.6,8.1-12.8,16.4-12.8h32.1
				l-2,11.3h-28.3c-4,0-6.5,2-7.3,6.6l-0.4,2.8c-0.9,4.7,0.9,6.6,4.9,6.6H313.2z"/>
			
				<linearGradient id="SVGID_00000065049357476417388640000007824813212114173059_" gradientUnits="userSpaceOnUse" x1="369.3608" y1="128.8804" x2="340.2114" y2="78.3921">
				<stop  offset="0.2421" style="stop-color:#EA4F3D"/>
				<stop  offset="0.4788" style="stop-color:#E94B3D"/>
				<stop  offset="0.7453" style="stop-color:#E83C3D"/>
				<stop  offset="1" style="stop-color:#E6223D"/>
			</linearGradient>
			<path style="fill:url(#SVGID_00000065049357476417388640000007824813212114173059_);" d="M388.3,104.9c-0.2,1.2-0.9,4.4-1.1,5.4
				c-1.8,7.9-8.2,11.5-16,11.5h-24.7l-4,22.5h-11.8L342.6,77h36.5c8.3,0,13.4,4.7,11.8,13.3L388.3,104.9z M352.4,88.3l-3.9,22.2
				h20.8c4,0,6.6-2,7.3-6.6l1.6-9c0.8-4.6-1.1-6.6-5.1-6.6H352.4z"/>
			
				<linearGradient id="SVGID_00000086656991071897195180000000058063458928754048_" gradientUnits="userSpaceOnUse" x1="439.5052" y1="141.8496" x2="404.2816" y2="80.8406">
				<stop  offset="0.2421" style="stop-color:#EA4F3D"/>
				<stop  offset="0.4788" style="stop-color:#E94B3D"/>
				<stop  offset="0.7453" style="stop-color:#E83C3D"/>
				<stop  offset="1" style="stop-color:#E6223D"/>
			</linearGradient>
			<path style="fill:url(#SVGID_00000086656991071897195180000000058063458928754048_);" d="M406.8,116.3l-1.8,10.1
				c-0.9,4.7,1,6.6,5,6.6h27.2l-2,11.3h-31c-8.3,0-13.5-4.1-11.9-12.8l7.2-41.3c1.6-8.6,8.2-13.3,16.5-13.3h31l-2,11.3h-27.2
				c-4,0-6.5,2-7.3,6.6l-1.8,10.1h32.5l-2,11.3H406.8z"/>
			
				<linearGradient id="SVGID_00000158011030731162880910000001691764664029349800_" gradientUnits="userSpaceOnUse" x1="485.8848" y1="151.3498" x2="451.2963" y2="91.4407">
				<stop  offset="0.2421" style="stop-color:#EA4F3D"/>
				<stop  offset="0.4788" style="stop-color:#E94B3D"/>
				<stop  offset="0.7453" style="stop-color:#E83C3D"/>
				<stop  offset="1" style="stop-color:#E6223D"/>
			</linearGradient>
			<path style="fill:url(#SVGID_00000158011030731162880910000001691764664029349800_);" d="M439.1,144.3l31.5-61
				c2.8-5.5,6.5-7.3,10.1-7.3c3.7,0,6.9,1.8,7.8,7.3l9.6,61h-12.3l-2.5-13.5h-24.8l-7.2,13.5H439.1z M477.5,93.8l-13.6,25.8h18
				L477.5,93.8z"/>
			
				<linearGradient id="SVGID_00000098198083510792362940000003261920096177729684_" gradientUnits="userSpaceOnUse" x1="566.5038" y1="149.5025" x2="523.4796" y2="74.9823">
				<stop  offset="0.2421" style="stop-color:#EA4F3D"/>
				<stop  offset="0.4788" style="stop-color:#E94B3D"/>
				<stop  offset="0.7453" style="stop-color:#E83C3D"/>
				<stop  offset="1" style="stop-color:#E6223D"/>
			</linearGradient>
			<path style="fill:url(#SVGID_00000098198083510792362940000003261920096177729684_);" d="M567.7,82.8c2.9-5,7-6.8,10.8-6.8
				c4.6,0,8.5,2.7,7.5,7.7l-10.6,60.7h-11.8l8.1-46.3l-23.8,41.1c-3,5.3-5.4,6.4-8.5,6.4c-3,0-5-1-6.2-6.4L524,98l-8.1,46.3h-11.8
				l10.6-60.5c0.9-5.3,5.6-7.9,10.3-7.9c3.7,0,7.3,1.6,8.5,6.6l9.6,43L567.7,82.8z"/>
		</g>
	</g>
	<g>
		<path class="st5" d="M588.8,144.7"/>
	</g>
</g>
<g>
	<g>
		<g>
			<path class="st6" d="M38,132.6l87.7,50.6c7.5,4.4,16.8,4.4,24.4,0l87.7-50.6c6.8-3.9,6.8-13.8,0-17.7l-87.7-50.6
				c-7.5-4.4-16.8-4.4-24.4,0L38,114.9C31.2,118.8,31.2,128.6,38,132.6z"/>
			
				<linearGradient id="SVGID_00000119804688165213381190000012527258817212361139_" gradientUnits="userSpaceOnUse" x1="137.9349" y1="39.1172" x2="137.9349" y2="149.383">
				<stop  offset="0.2421" style="stop-color:#EA4F3D"/>
				<stop  offset="0.4788" style="stop-color:#E94B3D"/>
				<stop  offset="0.7453" style="stop-color:#E83C3D"/>
				<stop  offset="1" style="stop-color:#E6223D"/>
			</linearGradient>
			<path style="fill:url(#SVGID_00000119804688165213381190000012527258817212361139_);" d="M38,107.9l87.7,50.6
				c7.5,4.4,16.8,4.4,24.4,0l87.7-50.6c6.8-3.9,6.8-13.8,0-17.7l-87.7-50.6c-7.5-4.4-16.8-4.4-24.4,0L38,90.2
				C31.2,94.1,31.2,103.9,38,107.9z"/>
			<g>
				<defs>
					<path id="SVGID_00000157278466131486385360000008030016270999975309_" d="M38,107.9l87.7,50.6c7.5,4.4,16.8,4.4,24.4,0
						l87.7-50.6c6.8-3.9,6.8-13.8,0-17.7l-87.7-50.6c-7.5-4.4-16.8-4.4-24.4,0L38,90.2C31.2,94.1,31.2,103.9,38,107.9z"/>
				</defs>
				<clipPath id="SVGID_00000047770466349868909190000007222317766322094209_">
					<use xlink:href="#SVGID_00000157278466131486385360000008030016270999975309_"  style="overflow:visible;"/>
				</clipPath>
			</g>
		</g>
	</g>
	<g>
		<path class="st8" d="M159.9,90.9c0-2-3.1-3.7-6.8-3.6c-0.9,0-1.8,0.1-2.7,0.3l-8-4.7l-10.7-0.1l-21.8-11.3c-1-0.5-2.6-0.5-3.6,0
			c-0.5,0.3-0.7,0.6-0.7,0.9c0,0.4,0.3,0.7,0.8,1l23.3,12l10.6,0l6.7,3.9c-0.4,0.5-0.6,1-0.6,1.6c0,2.1,3.1,3.7,6.8,3.6
			C157,94.6,159.9,92.9,159.9,90.9z"/>
		<path class="st8" d="M133.4,106c0-2.1-3.2-3.7-7-3.6c-1.1,0-2.1,0.2-3,0.4l-6.9-3.2l-0.4-5.8L92.7,81.5c-1-0.5-2.7-0.5-3.7,0
			c-0.5,0.3-0.8,0.6-0.8,1c0,0.3,0.3,0.7,0.8,1l22,11.5l0.4,5.9l8.5,3.9c-0.4,0.5-0.5,1-0.5,1.5c0,2.1,3.2,3.7,7.1,3.6
			C130.4,109.8,133.4,108,133.4,106z"/>
		<path class="st8" d="M160.4,105.3c0-2-3.1-3.6-6.8-3.5c-1,0-1.9,0.2-2.8,0.4L92.3,71.7c-1-0.5-2.7-0.5-3.7,0
			c-0.5,0.3-0.8,0.6-0.7,1c0,0.4,0.3,0.7,0.8,1l58.8,30.4c-0.4,0.5-0.6,1-0.6,1.5c0,2.1,3.1,3.6,6.8,3.5
			C157.4,109.1,160.4,107.3,160.4,105.3z"/>
		<path class="st8" d="M85.9,87.9c-1,1.5-1.9,3-2.5,4.6l-12.9,2.9l0.1,7.6l12.8,2.2c1.6,4.2,4.8,8,9.2,11.3l-5.4,6.5l10.2,4.9
			l11.9-3.2c6.3,2,13.4,3.3,21,3.9l4.7,6l13.3-0.6l3.9-6.2c7.4-1.1,14.2-3,20-5.4l10.4,2.1l8.6-5.3l-4.7-5.5c3.7-3.3,6.3-7,7.6-11
			l10.1-2.4l-0.1-6.9l-10.3-2.2c-1.4-3.9-4.2-7.4-8.1-10.6l4.7-5.9l-8.8-4.9l-10.9,2.6c-5.7-2.1-12.3-3.6-19.4-4.4l-4.4-6.5
			l-13.3-0.1l-4.8,6.5c-2.8,0.3-5.5,0.7-8.1,1.2l13.9,7.4c2-0.2,4-0.3,6-0.3c21.6,0,38.7,9.3,38.9,20.9s-16.5,21.6-38.1,22.4
			c-22.3,0.8-41.1-8.6-41.3-20.9c0-1.2,0.1-2.4,0.4-3.5L85.9,87.9z"/>
	</g>
</g>
<g>
	<path class="st6" d="M641.7,104.8c-0.2,1.2-0.9,4.4-1.1,5.4c-1.8,7.9-8.2,11.5-16,11.5h-24.7l-4,22.6H584l11.8-67.4h36.6
		c8.3,0,13.4,4.7,11.8,13.3L641.7,104.8z M605.7,88.2l-3.9,22.2h20.8c4,0,6.6-2,7.3-6.7l1.6-9c0.8-4.6-1.1-6.6-5.1-6.6H605.7z"/>
	<path class="st6" d="M646.1,131.5l9.6-54.6h11.8l-8.7,49.4c-0.9,4.8,1,6.7,5,6.7h27.7l-2,11.3H658
		C649.7,144.3,644.5,140.1,646.1,131.5z"/>
	<path class="st6" d="M691.2,144.3l31.6-61.1c2.9-5.5,6.5-7.3,10.1-7.3c3.7,0,6.9,1.8,7.8,7.3l9.6,61.1H738l-2.5-13.5h-24.8
		l-7.2,13.5H691.2z M729.7,93.6L716,119.5h18.1L729.7,93.6z"/>
	<path class="st6" d="M819.2,76.8l-10.5,60c-1,5.7-3.8,8.6-8.5,8.6c-2.4,0-5.2-0.8-8.6-8.2l-16.1-35.4l-7.4,42.5h-11.8l10.6-60.7
		c1-5,4-7.8,7.7-7.8c2.3,0,4.6,1,6.3,4.9l18.4,41.7l8-45.6H819.2z"/>
</g>
</svg>
