<?xml version="1.0" encoding="utf-8"?>
<!-- Generator: Adobe Illustrator 27.6.0, SVG Export Plug-In . SVG Version: 6.00 Build 0)  -->
<svg version="1.1" id="Ebene_1" xmlns="http://www.w3.org/2000/svg" xmlns:xlink="http://www.w3.org/1999/xlink" x="0px" y="0px"
	 viewBox="0 0 754 199" style="enable-background:new 0 0 754 199;" xml:space="preserve">
<style type="text/css">
	.st0{fill:#FFFFFF;}
	.st1{fill:url(#SVGID_1_);}
	.st2{fill:url(#SVGID_00000151530747750578791350000000748645208344263346_);}
	.st3{fill:url(#SVGID_00000074407329795744751550000013006116951585420429_);}
	.st4{fill:url(#SVGID_00000005957192691459045200000016128125522335207040_);}
	.st5{fill:url(#SVGID_00000131325762001074036190000012279723243745962124_);}
	.st6{fill:url(#SVGID_00000016780778248945381780000011945117924801610669_);}
</style>
<g>
	<g>
		<g>
			<path class="st0" d="M24.6,119.4l81.2,46.9c7,4,15.6,4,22.6,0l81.2-46.9c6.3-3.6,6.3-12.7,0-16.4l-81.2-46.9c-7-4-15.6-4-22.6,0
				L24.6,103C18.3,106.6,18.3,115.8,24.6,119.4z"/>
			
				<linearGradient id="SVGID_1_" gradientUnits="userSpaceOnUse" x1="117.1" y1="167.0687" x2="117.1" y2="65.0498" gradientTransform="matrix(1 0 0 -1 0 200)">
				<stop  offset="0.2421" style="stop-color:#E94F3D"/>
				<stop  offset="0.4559" style="stop-color:#E94A3D"/>
				<stop  offset="0.697" style="stop-color:#E73D3D"/>
				<stop  offset="0.9505" style="stop-color:#E5263C"/>
				<stop  offset="1" style="stop-color:#E5213C"/>
			</linearGradient>
			<path class="st1" d="M24.6,96.5l81.2,46.9c7,4,15.6,4,22.6,0l81.2-46.9c6.3-3.6,6.3-12.7,0-16.4l-81.2-46.9c-7-4-15.6-4-22.6,0
				l-81.2,47C18.3,83.8,18.3,92.9,24.6,96.5z"/>
		</g>
	</g>
	<g>
		<path class="st0" d="M137.3,80.8c0-1.9-2.8-3.4-6.3-3.3c-0.9,0-1.7,0.1-2.5,0.3l-7.4-4.4l-9.9-0.1L91.1,62.9
			c-0.9-0.5-2.4-0.5-3.3,0c-0.4,0.2-0.7,0.6-0.7,0.9s0.2,0.7,0.7,0.9l21.6,11.1h9.8l6.2,3.6c-0.4,0.5-0.6,1-0.6,1.5
			c0,1.9,2.9,3.4,6.3,3.3C134.6,84.3,137.4,82.7,137.3,80.8z"/>
		<path class="st0" d="M112.9,94.8c0-1.9-2.9-3.4-6.5-3.3c-1,0-2,0.2-2.8,0.4l-6.4-3l-0.3-5.4L75.2,72.1c-0.9-0.5-2.5-0.5-3.4,0
			c-0.5,0.3-0.7,0.6-0.7,0.9s0.2,0.6,0.7,0.9l20.4,10.7l0.3,5.5l7.9,3.6c-0.3,0.4-0.5,0.9-0.5,1.4c0,1.9,3,3.4,6.6,3.3
			C110,98.3,112.9,96.7,112.9,94.8z"/>
		<path class="st0" d="M137.8,94.1c0-1.9-2.8-3.4-6.3-3.3c-0.9,0-1.8,0.2-2.6,0.4l-54-28.1c-1-0.5-2.5-0.5-3.4,0
			c-0.5,0.2-0.7,0.6-0.7,0.9s0.2,0.7,0.7,0.9L125.9,93c-0.3,0.4-0.5,0.9-0.5,1.4c0,1.9,2.9,3.4,6.3,3.3
			C135.1,97.6,137.8,96,137.8,94.1z"/>
		<path class="st0" d="M68.9,78c-1,1.4-1.7,2.8-2.3,4.3L54.7,85l0.1,7.1l11.8,2c1.5,3.9,4.5,7.4,8.5,10.5l-5,6l9.4,4.6l11-2.9
			c5.9,1.9,12.4,3.1,19.4,3.6l4.4,5.5l12.3-0.6l3.6-5.8c6.8-1,13.1-2.8,18.5-5l9.6,1.9l8-4.9l-4.4-5.1c3.4-3.1,5.8-6.5,7-10.1
			l9.4-2.2l-0.1-6.4l-9.5-2c-1.3-3.6-3.9-6.9-7.5-9.8l4.3-5.4l-8.2-4.6l-10.1,2.4c-5.3-1.9-11.4-3.4-17.9-4.1l-4.1-6l-12.3-0.1
			l-4.4,6.1c-2.6,0.3-5.1,0.7-7.5,1.1l12.8,6.8c1.8-0.2,3.7-0.2,5.5-0.2c19.9,0,35.8,8.6,36,19.4s-15.3,20-35.2,20.7
			c-20.6,0.7-38-7.9-38.2-19.3c0-1.1,0.1-2.2,0.4-3.2L68.9,78z"/>
	</g>
</g>
<g>
	<g>
		<g>
			<g>
				
					<linearGradient id="SVGID_00000049208833939028727520000003340101405141432219_" gradientUnits="userSpaceOnUse" x1="283.3358" y1="76.1705" x2="253.1642" y2="128.4295" gradientTransform="matrix(1 0 0 -1 0 200)">
					<stop  offset="0.2421" style="stop-color:#E94F3D"/>
					<stop  offset="0.4559" style="stop-color:#E94A3D"/>
					<stop  offset="0.697" style="stop-color:#E73D3D"/>
					<stop  offset="0.9505" style="stop-color:#E5263C"/>
					<stop  offset="1" style="stop-color:#E5213C"/>
				</linearGradient>
				<path style="fill:url(#SVGID_00000049208833939028727520000003340101405141432219_);" d="M277.6,92.2c7.4,0,11.9,4.2,10.6,11.9
					l-2.2,12.4c-1.4,7.7-7.3,11.5-14.7,11.5h-28.8l1.8-10.2h25.4c3.6,0,5.7-1.7,6.5-6l0.6-3.6c0.8-4.2-0.9-6-4.4-6h-13.3
					c-7.4,0-12-4.1-10.6-11.9l2-11.4c1.4-7.7,7.3-11.5,14.7-11.5H294l-1.8,10.2h-25.4c-3.6,0-5.8,1.8-6.6,6l-0.4,2.6
					c-0.8,4.2,0.9,6,4.4,6H277.6z"/>
				
					<linearGradient id="SVGID_00000096060576221233479320000015324030964850879388_" gradientUnits="userSpaceOnUse" x1="327.9876" y1="85.9319" x2="301.8336" y2="131.2318" gradientTransform="matrix(1 0 0 -1 0 200)">
					<stop  offset="0.2421" style="stop-color:#E94F3D"/>
					<stop  offset="0.4559" style="stop-color:#E94A3D"/>
					<stop  offset="0.697" style="stop-color:#E73D3D"/>
					<stop  offset="0.9505" style="stop-color:#E5263C"/>
					<stop  offset="1" style="stop-color:#E5213C"/>
				</linearGradient>
				<path style="fill:url(#SVGID_00000096060576221233479320000015324030964850879388_);" d="M345,92.5c-0.2,1.1-0.8,4-1,4.9
					c-1.6,7.1-7.4,10.3-14.3,10.3h-22.2l-3.6,20.2h-10.6l10.6-60.4h32.8c7.4,0,12,4.2,10.6,11.9L345,92.5z M312.8,77.7l-3.5,19.9
					H328c3.6,0,5.9-1.8,6.6-6l1.5-8.1c0.7-4.1-1-5.9-4.6-5.9L312.8,77.7L312.8,77.7z"/>
				
					<linearGradient id="SVGID_00000076565775199159747100000012692155472117218434_" gradientUnits="userSpaceOnUse" x1="390.9144" y1="74.257" x2="359.3128" y2="128.9926" gradientTransform="matrix(1 0 0 -1 0 200)">
					<stop  offset="0.2421" style="stop-color:#E94F3D"/>
					<stop  offset="0.4559" style="stop-color:#E94A3D"/>
					<stop  offset="0.697" style="stop-color:#E73D3D"/>
					<stop  offset="0.9505" style="stop-color:#E5263C"/>
					<stop  offset="1" style="stop-color:#E5213C"/>
				</linearGradient>
				<path style="fill:url(#SVGID_00000076565775199159747100000012692155472117218434_);" d="M361.6,102.8l-1.6,9.1
					c-0.8,4.3,0.9,6,4.5,6h24.4l-1.8,10.2h-27.8c-7.4,0-12.1-3.7-10.7-11.5l6.5-37c1.4-7.7,7.4-11.9,14.8-11.9h27.8l-1.8,10.2h-24.4
					c-3.6,0-5.8,1.8-6.5,5.9l-1.6,9.1h29.2l-1.8,10.2h-29.2V102.8z"/>
				
					<linearGradient id="SVGID_00000078019961935237442240000002897803428239488133_" gradientUnits="userSpaceOnUse" x1="432.6415" y1="65.7761" x2="401.5593" y2="119.6122" gradientTransform="matrix(1 0 0 -1 0 200)">
					<stop  offset="0.2421" style="stop-color:#E94F3D"/>
					<stop  offset="0.4559" style="stop-color:#E94A3D"/>
					<stop  offset="0.697" style="stop-color:#E73D3D"/>
					<stop  offset="0.9505" style="stop-color:#E5263C"/>
					<stop  offset="1" style="stop-color:#E5213C"/>
				</linearGradient>
				<path style="fill:url(#SVGID_00000078019961935237442240000002897803428239488133_);" d="M390.6,128l28.3-54.8
					c2.6-5,5.8-6.6,9.1-6.6c3.3,0,6.2,1.6,7,6.6l8.6,54.8h-11l-2.2-12.1H408l-6.4,12.1H390.6z M425.1,82.5l-12.2,23.2H429
					L425.1,82.5z"/>
				
					<linearGradient id="SVGID_00000072259380117812417560000009311904393379687555_" gradientUnits="userSpaceOnUse" x1="504.9868" y1="67.3736" x2="466.3438" y2="134.3052" gradientTransform="matrix(1 0 0 -1 0 200)">
					<stop  offset="0.2421" style="stop-color:#E94F3D"/>
					<stop  offset="0.4559" style="stop-color:#E94A3D"/>
					<stop  offset="0.697" style="stop-color:#E73D3D"/>
					<stop  offset="0.9505" style="stop-color:#E5263C"/>
					<stop  offset="1" style="stop-color:#E5213C"/>
				</linearGradient>
				<path style="fill:url(#SVGID_00000072259380117812417560000009311904393379687555_);" d="M506.1,72.7c2.6-4.5,6.3-6.1,9.7-6.1
					c4.1,0,7.6,2.4,6.7,6.9L513,128h-10.6l7.3-41.6l-21.4,36.9c-2.7,4.7-4.8,5.7-7.6,5.7c-2.7,0-4.5-0.9-5.6-5.7l-8.3-36.9
					l-7.3,41.6h-10.6l9.5-54.3c0.9-4.7,5-7.1,9.2-7.1c3.3,0,6.6,1.5,7.6,6l8.6,38.6L506.1,72.7z"/>
			</g>
		</g>
	</g>
	<g>
		<path class="st0" d="M574.5,92.3c-0.2,1.1-0.8,4-1,4.9c-1.6,7.1-7.4,10.4-14.5,10.4h-22.4L533,128h-10.7L533,67h33.1
			c7.5,0,12.1,4.2,10.7,12L574.5,92.3z M541.9,77.3l-3.5,20.1h18.9c3.6,0,5.9-1.8,6.7-6l1.5-8.1c0.7-4.1-1-5.9-4.6-5.9L541.9,77.3
			L541.9,77.3z"/>
		<path class="st0" d="M578.5,116.4l8.7-49.4h10.7l-7.9,44.7c-0.8,4.3,0.9,6,4.5,6h25l-1.8,10.2h-28.5
			C581.8,128,577.1,124.3,578.5,116.4z"/>
		<path class="st0" d="M619.3,128l28.6-55.3c2.6-5,5.9-6.6,9.2-6.6c3.4,0,6.3,1.6,7,6.6l8.7,55.3h-11.1l-2.3-12.2H637l-6.5,12.2
			H619.3z M654.2,82.2l-12.4,23.4h16.4L654.2,82.2z"/>
		<path class="st0" d="M735.2,67l-9.5,54.3c-0.9,5.2-3.4,7.7-7.7,7.7c-2.2,0-4.7-0.7-7.7-7.4l-14.5-32.1L689,128h-10.7l9.6-54.9
			c0.9-4.5,3.6-7,7-7c2.1,0,4.1,0.9,5.7,4.5l16.7,37.7l7.3-41.2h10.6V67z"/>
	</g>
</g>
</svg>
