<?xml version="1.0" encoding="utf-8"?>
<!-- Generator: Adobe Illustrator 27.6.0, SVG Export Plug-In . SVG Version: 6.00 Build 0)  -->
<svg version="1.1" id="Layer_1" xmlns="http://www.w3.org/2000/svg" xmlns:xlink="http://www.w3.org/1999/xlink" x="0px" y="0px"
	 viewBox="0 0 20.7 21" style="enable-background:new 0 0 20.7 21;" xml:space="preserve">
<g>
	<path d="M20.4,1.9L19,0.5l-2.8,2.8C14.3,2,11.6,2.2,9.9,3.9L8.3,5.6L9.7,7l1.6-1.6c0.9-0.9,2.3-1.1,3.4-0.6l-2.3,2.3l1.4,1.4
		l2.3-2.3c0.2,0.4,0.3,0.9,0.3,1.3c0,0.8-0.3,1.6-0.9,2.1l-6,6c-0.9,0.9-2.3,1.1-3.4,0.6l2.3-2.3L7,12.5l-2.3,2.3
		c-0.5-1.1-0.3-2.5,0.6-3.4l1.6-1.6L5.5,8.4L3.9,10c-1.7,1.7-1.9,4.3-0.6,6.3l-2.9,2.8l1.4,1.4l2.8-2.8c0.9,0.5,1.8,0.8,2.8,0.8
		c1.3,0,2.6-0.5,3.5-1.5l6-6c1-0.9,1.5-2.2,1.5-3.5c0-1-0.3-1.9-0.8-2.8L20.4,1.9z"/>
	<rect x="0.4" y="7.5" width="3" height="2"/>
	<rect x="2.8" y="2.4" transform="matrix(0.7071 -0.7071 0.7071 0.7071 -1.6502 3.7921)" width="2" height="3"/>
	<rect x="7.4" y="0.5" width="2" height="3"/>
</g>
</svg>
