<?xml version="1.0" encoding="utf-8"?>
<!-- Generator: Adobe Illustrator 28.0.0, SVG Export Plug-In . SVG Version: 6.00 Build 0)  -->
<svg version="1.1" id="Ebene_1" xmlns="http://www.w3.org/2000/svg" xmlns:xlink="http://www.w3.org/1999/xlink" x="0px" y="0px"
	 viewBox="0 0 270.97 273.3" style="enable-background:new 0 0 270.97 273.3;" xml:space="preserve">
<style type="text/css">
	.st0{fill:#FFFFFF;}
	.st1{fill:#FFCD00;}
</style>
<g>
	<path class="st0" d="M258.11,136.5c0-39.5,0-79,0-118.5c0-3.18,0-3.19-3.04-3.19c-78.91,0-157.83,0-236.74,0
		c-3.22,0-3.23,0-3.23,3.26c0,78.93,0,157.85,0,236.78c0,3.2,0.01,3.2,3.3,3.2c78.84,0,157.68,0,236.51,0c3.2,0,3.2,0,3.2-3.27
		C258.11,215.35,258.11,175.92,258.11,136.5z"/>
	<path class="st1" d="M258.11,136.5c0,39.43,0,78.85,0,118.28c0,3.27,0,3.27-3.2,3.27c-78.84,0-157.68,0-236.51,0
		c-3.29,0-3.3,0-3.3-3.2c0-78.93,0-157.85,0-236.78c0-3.25,0-3.26,3.23-3.26c78.91,0,157.83,0,236.74,0c3.04,0,3.04,0,3.04,3.19
		C258.11,57.49,258.11,96.99,258.11,136.5z M122.04,144.27c-0.98-5.94-0.53-11.97-7.22-13.84c-5.41-1.52-10.17-0.56-13.24,5.43
		c-0.36-2.45-0.53-4.33-0.92-6.18c-1.02-4.86-3.6-7.17-8.41-7.7c-5.34-0.59-8.54,1.11-10.77,5.5c-0.35,0.69-1.36,1.05-2.07,1.56
		c-0.29-0.77-0.82-1.53-0.83-2.3c-0.07-5.82-0.04-11.63-0.04-17.45c0-6.97,0.02-13.93-0.01-20.89c-0.03-5.79-2.54-8.61-8.28-9.24
		c-1.43-0.16-2.92-0.12-4.33,0.1c-5.12,0.82-7.93,4.16-7.94,9.32c-0.04,18.29-0.08,36.58-0.1,54.87
		c-0.02,11.71-0.02,23.42,0.01,35.13c0,1.46-0.16,2.61-1.98,2.66c-1.85,0.05-2.03-1.08-2.03-2.56c0.04-7.65,0.06-15.31,0-22.96
		c-0.04-4.95-0.62-9.87-3.22-14.16c-1.26-2.08-3.05-4.16-5.1-5.39c-6.09-3.64-11.96-0.81-13.3,6.13c-0.3,1.57-0.41,3.19-0.41,4.79
		c-0.03,13.55,0.03,27.09-0.06,40.64c-0.02,2.48,0.55,4.62,1.81,6.72c3.59,5.96,7.12,11.97,10.63,17.98
		c4.96,8.48,9.39,17.21,11.81,26.8c0.5,1.98,1.33,2.49,3.26,2.48c16.76-0.07,33.52-0.04,50.28-0.04c6.12,0,12.25-0.07,18.37,0.04
		c2.03,0.04,2.99-0.44,2.76-2.66c-0.16-1.51,0.22-3.08,0.03-4.58c-0.56-4.27,1-7.51,3.87-10.65c2.77-3.03,4.94-6.56,4.92-11.06
		c-0.07-19.13,0.03-38.27-0.09-57.4c-0.02-3.57-0.56-7.17-1.25-10.68c-0.61-3.08-2.9-4.74-6-5.23
		C127.99,138.8,124.42,139.64,122.04,144.27z M179.98,117.17c-0.22,1.06-0.38,1.54-0.4,2.03c-0.56,12.66,2.5,24.26,10.01,34.6
		c12.48,17.19,29.56,27.37,49.78,32.8c0.42,0.11,0.87,0.09,1.39,0.13c0.12-0.48,0.28-0.84,0.28-1.19
		c0.02-8.73,0.01-17.46,0.04-26.18c0-1.28-0.57-1.73-1.77-1.85c-13.18-1.32-24.67-6.93-35.35-14.34
		c-8.93-6.19-15.64-14.57-21.93-23.3C181.46,119.09,180.87,118.34,179.98,117.17z M173,73.9c5.85,4.47,8.61,10.71,10.6,17.38
		c0.74,2.49,1.24,5.05,1.76,7.6c1.41,6.91,3,13.79,6.37,20.05c4.53,8.41,10.23,15.93,19.07,20.15c8.11,3.88,16.88,4.67,25.79,3.88
		c0.77-0.07,1.52-0.34,2.43-0.55c-2.99-2.01-5.88-3.59-8.35-5.66c-7.92-6.64-13.79-14.93-18.36-24.11
		c-3.61-7.25-6.82-14.7-10.28-22.03c-2.75-5.84-6.85-10.5-12.6-13.53C184.34,74.39,178.9,73.19,173,73.9z M240.91,214
		c-23.42,5.55-45.23,5.05-63.16-14.59c0.6,2.64,0.99,4.73,1.55,6.78c4.56,16.52,14.08,28.44,31.05,33.51
		c9.5,2.84,19.2,3.56,29.04,3.41c1.79-0.03,1.67-1.15,1.67-2.32c0-8.26,0-16.52-0.01-24.78C241.06,215.4,240.97,214.8,240.91,214z
		 M68.46,31.26c-9.03,0-18.06,0-27.09-0.01c-1.29,0-2.4-0.04-2.4,1.84c0.04,17.99,0.04,35.98,0,53.97c0,1.53,0.61,2,2.06,1.97
		c3.44-0.06,6.89,0.04,10.33-0.03c5.98-0.12,5.09,1.22,5.18-5.43c0-0.15,0.06-0.37-0.02-0.45c-0.53-0.56-1.05-1.48-1.66-1.55
		c-1.89-0.2-3.82-0.17-5.73-0.06c-1.7,0.1-2.24-0.51-2.24-2.23c0.06-12.78,0.07-25.57,0-38.35c-0.01-1.87,0.65-2.3,2.4-2.3
		c12.63,0.06,25.26,0.07,37.89-0.01c1.97-0.01,2.42,0.66,2.41,2.51c-0.07,12.09-0.02,24.19-0.05,36.28
		c-0.01,4.55,0.67,3.98-3.98,4.08c-6.12,0.12-5.17-1.18-5.3,5.58c-0.03,1.56,0.65,1.96,2.07,1.94c4.21-0.05,8.42-0.12,12.63,0.03
		c2.08,0.07,2.74-0.54,2.73-2.69c-0.08-17.53-0.08-35.06,0-52.59c0.01-2.05-0.61-2.59-2.6-2.57C86.21,31.31,77.34,31.26,68.46,31.26
		z M157.81,171.19c0.82,0.33,1.15,0.51,1.5,0.6c8.99,2.56,16.48,7.59,22.97,14.18c3.43,3.48,6.64,7.19,9.99,10.76
		c9.32,9.93,20.87,13.37,34.16,11.72c4.75-0.59,9.11-2.05,12.32-5.87c0.49-0.59,0.85-1.29,1.37-2.08c-0.75-0.19-1.11-0.31-1.48-0.37
		c-11.59-1.85-21.27-7.29-29.61-15.43c-4.37-4.27-8.84-8.45-13.52-12.38c-4.96-4.16-10.74-6.7-17.26-7.36
		C170.73,164.2,164.1,166.32,157.81,171.19z M213.4,60.42c-5.43,14.3-3.91,28.19,2.54,41.59c5.5,11.44,13.74,20.51,24.91,27.23
		c0.18-0.79,0.3-1.08,0.3-1.37c-0.02-8.49-0.02-16.98-0.16-25.47c-0.01-0.73-0.85-1.76-1.56-2.12c-4.98-2.49-8.95-6.09-12.23-10.53
		c-4.45-6.03-7.43-12.82-10.14-19.74C215.81,66.82,214.62,63.62,213.4,60.42z M68.31,76.81c9.29,0.02,16.59-7.27,16.63-16.61
		c0.03-9.23-7.39-16.73-16.55-16.74c-9.11-0.01-16.73,7.58-16.74,16.68C51.63,69.33,59.08,76.79,68.31,76.81z"/>
	<path class="st0" d="M122.04,144.27c2.38-4.63,5.95-5.47,10.14-4.81c3.09,0.49,5.39,2.15,6,5.23c0.69,3.51,1.23,7.11,1.25,10.68
		c0.12,19.13,0.02,38.27,0.09,57.4c0.02,4.5-2.15,8.03-4.92,11.06c-2.87,3.14-4.43,6.38-3.87,10.65c0.2,1.5-0.18,3.07-0.03,4.58
		c0.23,2.22-0.73,2.7-2.76,2.66c-6.12-0.11-12.24-0.04-18.37-0.04c-16.76,0-33.52-0.03-50.28,0.04c-1.93,0.01-2.76-0.5-3.26-2.48
		c-2.42-9.58-6.85-18.32-11.81-26.8c-3.51-6.01-7.04-12.02-10.63-17.98c-1.26-2.1-1.83-4.24-1.81-6.72
		c0.09-13.55,0.03-27.09,0.06-40.64c0-1.6,0.11-3.22,0.41-4.79c1.33-6.94,7.21-9.77,13.3-6.13c2.06,1.23,3.84,3.3,5.1,5.39
		c2.6,4.29,3.18,9.22,3.22,14.16c0.06,7.65,0.04,15.31,0,22.96c-0.01,1.48,0.17,2.61,2.03,2.56c1.82-0.05,1.99-1.19,1.98-2.66
		c-0.03-11.71-0.03-23.42-0.01-35.13c0.02-18.29,0.06-36.58,0.1-54.87c0.01-5.16,2.82-8.5,7.94-9.32c1.42-0.23,2.91-0.26,4.33-0.1
		c5.74,0.63,8.26,3.45,8.28,9.24c0.03,6.96,0.01,13.93,0.01,20.89c0,5.82-0.03,11.63,0.04,17.45c0.01,0.77,0.54,1.53,0.83,2.3
		c0.71-0.51,1.72-0.87,2.07-1.56c2.23-4.39,5.44-6.09,10.77-5.5c4.81,0.53,7.39,2.84,8.41,7.7c0.39,1.84,0.56,3.73,0.92,6.18
		c3.07-5.99,7.83-6.95,13.24-5.43C121.51,132.3,121.06,138.33,122.04,144.27z"/>
	<path class="st0" d="M179.98,117.17c0.89,1.17,1.48,1.92,2.04,2.69c6.29,8.73,13,17.11,21.93,23.3
		c10.68,7.41,22.17,13.02,35.35,14.34c1.2,0.12,1.77,0.57,1.77,1.85c-0.03,8.73-0.02,17.46-0.04,26.18c0,0.36-0.16,0.71-0.28,1.19
		c-0.53-0.05-0.98-0.02-1.39-0.13c-20.22-5.43-37.3-15.61-49.78-32.8c-7.51-10.34-10.57-21.94-10.01-34.6
		C179.6,118.71,179.77,118.23,179.98,117.17z"/>
	<path class="st0" d="M173,73.9c5.9-0.71,11.33,0.49,16.43,3.17c5.75,3.03,9.85,7.69,12.6,13.53c3.46,7.33,6.67,14.78,10.28,22.03
		c4.57,9.18,10.44,17.48,18.36,24.11c2.47,2.07,5.36,3.66,8.35,5.66c-0.91,0.21-1.66,0.48-2.43,0.55c-8.91,0.79-17.68,0-25.79-3.88
		c-8.84-4.22-14.54-11.74-19.07-20.15c-3.37-6.26-4.96-13.13-6.37-20.05c-0.52-2.55-1.02-5.11-1.76-7.6
		C181.62,84.61,178.85,78.37,173,73.9z"/>
	<path class="st0" d="M240.91,214c0.06,0.8,0.15,1.4,0.15,2.01c0.01,8.26,0.01,16.52,0.01,24.78c0,1.17,0.12,2.29-1.67,2.32
		c-9.83,0.16-19.54-0.57-29.04-3.41c-16.98-5.07-26.49-16.99-31.05-33.51c-0.57-2.05-0.95-4.14-1.55-6.78
		C195.68,219.05,217.49,219.55,240.91,214z"/>
	<path class="st0" d="M68.46,31.26c8.88,0,17.76,0.05,26.64-0.04c1.99-0.02,2.61,0.52,2.6,2.57c-0.08,17.53-0.08,35.06,0,52.59
		c0.01,2.15-0.65,2.76-2.73,2.69c-4.2-0.14-8.42-0.08-12.63-0.03c-1.42,0.02-2.1-0.39-2.07-1.94c0.13-6.77-0.82-5.46,5.3-5.58
		c4.65-0.09,3.97,0.47,3.98-4.08c0.03-12.09-0.02-24.19,0.05-36.28c0.01-1.85-0.44-2.52-2.41-2.51
		c-12.63,0.08-25.26,0.07-37.89,0.01c-1.75-0.01-2.41,0.42-2.4,2.3c0.07,12.78,0.07,25.57,0,38.35c-0.01,1.72,0.54,2.33,2.24,2.23
		c1.91-0.11,3.84-0.15,5.73,0.06c0.6,0.07,1.12,0.99,1.66,1.55c0.08,0.08,0.02,0.3,0.02,0.45c-0.09,6.65,0.8,5.31-5.18,5.43
		c-3.44,0.07-6.89-0.03-10.33,0.03c-1.44,0.02-2.06-0.45-2.06-1.97c0.03-17.99,0.04-35.98,0-53.97c0-1.88,1.1-1.84,2.4-1.84
		C50.39,31.26,59.43,31.26,68.46,31.26z"/>
	<path class="st0" d="M157.81,171.19c6.29-4.86,12.92-6.99,20.44-6.23c6.52,0.66,12.31,3.2,17.26,7.36
		c4.68,3.93,9.15,8.11,13.52,12.38c8.34,8.14,18.02,13.58,29.61,15.43c0.37,0.06,0.73,0.18,1.48,0.37c-0.52,0.8-0.88,1.5-1.37,2.08
		c-3.21,3.82-7.57,5.28-12.32,5.87c-13.29,1.65-24.85-1.79-34.16-11.72c-3.35-3.57-6.55-7.28-9.99-10.76
		c-6.49-6.58-13.98-11.61-22.97-14.18C158.96,171.69,158.63,171.52,157.81,171.19z"/>
	<path class="st0" d="M213.4,60.42c1.22,3.2,2.41,6.4,3.66,9.59c2.71,6.93,5.69,13.71,10.14,19.74c3.28,4.44,7.25,8.05,12.23,10.53
		c0.72,0.36,1.55,1.39,1.56,2.12c0.14,8.49,0.14,16.98,0.16,25.47c0,0.29-0.12,0.57-0.3,1.37c-11.18-6.72-19.41-15.79-24.91-27.23
		C209.49,88.61,207.97,74.72,213.4,60.42z"/>
	<path class="st0" d="M68.31,76.81c-9.23-0.02-16.68-7.48-16.66-16.67c0.01-9.1,7.63-16.68,16.74-16.68
		c9.17,0.01,16.59,7.51,16.55,16.74C84.9,69.54,77.6,76.83,68.31,76.81z"/>
</g>
</svg>
