<?xml version="1.0" encoding="utf-8"?>
<!-- Generator: Adobe Illustrator 28.0.0, SVG Export Plug-In . SVG Version: 6.00 Build 0)  -->
<svg version="1.1" id="Ebene_1" xmlns="http://www.w3.org/2000/svg" xmlns:xlink="http://www.w3.org/1999/xlink" x="0px" y="0px"
	 viewBox="0 0 270.97 273.3" style="enable-background:new 0 0 270.97 273.3;" xml:space="preserve">
<style type="text/css">
	.st0{fill:#E30613;}
	.st1{fill:none;stroke:#000000;stroke-width:10;stroke-linecap:round;stroke-linejoin:round;stroke-miterlimit:10;}
</style>
<g>
	<path class="st0" d="M253.18,15.07c-78.92,0-157.86,0-236.78,0c-3.23,0-3.23,0.01-3.23,3.26c0,78.94,0,157.88,0,236.82
		c0,3.2,0.01,3.2,3.3,3.2c78.84,0,157.7,0,236.55,0c3.2,0,3.2,0,3.2-3.27c0-39.44,0-78.86,0-118.3c0-39.52,0-79.02,0-118.52
		C256.22,15.07,256.22,15.07,253.18,15.07z M237.22,239.23H32.18V34.19h205.04V239.23z"/>
</g>
<g id="Pil_18">
	<path d="M61.75,110.91c-1.09,13.43,11.25,32.68,36.32,34.14c32.03,1.86,43.6,27.95,44.66,31.58l-10.02,13.26l51.66,12.51
		l-19.47-50.08l-11.3,11.4c-1.84-3.56-15.79-34.14-45-35.01c-19.65-0.59-31.6-20.2-35.35-31.64L61.75,110.91z"/>
	<path class="st1" d="M50.3,191.48c-0.78,9.14,0.17,18.42,2.78,27.21c0.65,2.2,1.53,4.53,3.45,5.79c4.09,2.69,9.33-1.19,12.19-5.16
		c7.12-9.89,10.65-21.85,13.72-33.64c0.95-3.66,1.88-7.43,1.43-11.19c-0.45-3.76-2.56-7.55-6.08-8.92c-3.34-1.3-7.34-0.09-9.83,2.48
		s-3.57,6.3-3.45,9.88c0.32,9.61,8.96,17.55,18.41,19.33s19.23-1.54,27.37-6.66"/>
</g>
<g id="Pil_25">
	<g>
		<polygon points="119.83,61.92 164.36,106.44 144.99,125.81 214.78,144.56 196.03,74.77 176.67,94.13 132.14,49.61 		"/>
	</g>
</g>
</svg>
