<?xml version="1.0" encoding="utf-8"?>
<!-- Generator: Adobe Illustrator 28.0.0, SVG Export Plug-In . SVG Version: 6.00 Build 0)  -->
<svg version="1.1" id="Ebene_1" xmlns="http://www.w3.org/2000/svg" xmlns:xlink="http://www.w3.org/1999/xlink" x="0px" y="0px"
	 viewBox="0 0 270.97 273.3" style="enable-background:new 0 0 270.97 273.3;" xml:space="preserve">
<style type="text/css">
	.st0{fill:none;}
	.st1{fill:#1D1D1B;}
	.st2{fill:#E30613;}
</style>
<symbol  id="Pil_25" viewBox="-22.86 -13.14 45.72 26.28">
	<rect x="-22.86" y="-13.14" class="st0" width="45.72" height="26.28"/>
	<g>
		<polygon class="st1" points="-22.86,-3.17 0.07,-3.17 0.07,-13.14 22.86,0 0.07,13.14 0.07,3.17 -22.86,3.17 		"/>
	</g>
</symbol>
<g>
	<path class="st2" d="M254.16,15.6c-78.92,0-157.86,0-236.78,0c-3.23,0-3.23,0.01-3.23,3.26c0,78.94,0,157.88,0,236.82
		c0,3.2,0.01,3.2,3.3,3.2c78.84,0,157.7,0,236.55,0c3.2,0,3.2,0,3.2-3.27c0-39.44,0-78.86,0-118.3c0-39.52,0-79.02,0-118.52
		C257.2,15.6,257.2,15.6,254.16,15.6z M238.2,239.76H33.16V34.73H238.2V239.76z"/>
</g>
<use xlink:href="#Pil_25"  width="45.72" height="26.28" x="-22.86" y="-13.14" transform="matrix(1.7 1.7 1.7 -1.7 89.2871 134.5793)" style="overflow:visible;"/>
<use xlink:href="#Pil_25"  width="45.72" height="26.28" x="-22.86" y="-13.14" transform="matrix(1.7 1.7 1.7 -1.7 181.9974 135.321)" style="overflow:visible;"/>
</svg>
