<?xml version="1.0" encoding="utf-8"?>
<!-- Generator: Adobe Illustrator 28.0.0, SVG Export Plug-In . SVG Version: 6.00 Build 0)  -->
<svg version="1.1" id="Ebene_1" xmlns="http://www.w3.org/2000/svg" xmlns:xlink="http://www.w3.org/1999/xlink" x="0px" y="0px"
	 viewBox="0 0 270.97 273.3" style="enable-background:new 0 0 270.97 273.3;" xml:space="preserve">
<style type="text/css">
	.st0{fill:#394CFF;}
	.st1{fill:#FFFFFF;}
</style>
<g>
	<path class="st0" d="M256.5,137.46c0,39.43,0,78.85,0,118.28c0,3.27,0,3.27-3.2,3.27c-78.84,0-157.68,0-236.51,0
		c-3.29,0-3.3,0-3.3-3.2c0-78.93,0-157.85,0-236.78c0-3.25,0-3.26,3.23-3.26c78.91,0,157.83,0,236.74,0c3.04,0,3.04,0,3.04,3.19
		C256.5,58.45,256.5,97.95,256.5,137.46z"/>
	<path class="st1" d="M179.43,145.23c2.38-4.63,5.95-5.47,10.14-4.81c3.09,0.49,5.39,2.15,6,5.23c0.69,3.51,1.23,7.11,1.25,10.68
		c0.12,19.13,0.02,38.27,0.09,57.4c0.02,4.5-2.15,8.03-4.92,11.06c-2.87,3.14-4.43,6.38-3.87,10.65c0.2,1.5-0.18,3.07-0.03,4.58
		c0.23,2.22-0.73,2.7-2.76,2.66c-6.12-0.11-12.24-0.04-18.37-0.04c-16.76,0-33.52-0.03-50.28,0.04c-1.93,0.01-2.76-0.5-3.26-2.48
		c-2.42-9.58-6.85-18.32-11.81-26.8c-3.51-6.01-7.04-12.02-10.63-17.98c-1.26-2.1-1.83-4.24-1.81-6.72
		c0.09-13.55,0.03-27.09,0.06-40.64c0-1.6,0.11-3.22,0.41-4.79c1.33-6.94,7.21-9.77,13.3-6.13c2.06,1.23,3.84,3.3,5.1,5.39
		c2.6,4.29,3.18,9.22,3.22,14.16c0.06,7.65,0.04,15.31,0,22.96c-0.01,1.48,0.17,2.61,2.03,2.56c1.82-0.05,1.99-1.19,1.98-2.66
		c-0.03-11.71-0.03-23.42-0.01-35.13c0.02-18.29,0.06-36.58,0.1-54.87c0.01-5.16,2.82-8.5,7.94-9.32c1.42-0.23,2.91-0.26,4.33-0.1
		c5.74,0.63,8.26,3.45,8.28,9.24c0.03,6.96,0.01,13.93,0.01,20.89c0,5.82-0.03,11.63,0.04,17.45c0.01,0.77,0.54,1.53,0.83,2.3
		c0.71-0.51,1.72-0.87,2.07-1.56c2.23-4.39,5.44-6.09,10.77-5.5c4.81,0.53,7.39,2.84,8.41,7.7c0.39,1.84,0.56,3.73,0.92,6.18
		c3.07-5.99,7.83-6.95,13.24-5.43C178.9,133.26,178.45,139.29,179.43,145.23z"/>
	<path class="st1" d="M125.85,32.22c8.88,0,17.76,0.05,26.64-0.04c1.99-0.02,2.61,0.52,2.6,2.57c-0.08,17.53-0.08,35.06,0,52.59
		c0.01,2.15-0.65,2.76-2.73,2.69c-4.2-0.14-8.42-0.08-12.63-0.03c-1.42,0.02-2.1-0.39-2.07-1.94c0.13-6.77-0.82-5.46,5.3-5.58
		c4.65-0.09,3.97,0.47,3.98-4.08c0.03-12.09-0.02-24.19,0.05-36.28c0.01-1.85-0.44-2.52-2.41-2.51
		c-12.63,0.08-25.26,0.07-37.89,0.01c-1.75-0.01-2.41,0.42-2.4,2.3c0.07,12.78,0.07,25.57,0,38.35c-0.01,1.72,0.54,2.33,2.24,2.23
		c1.91-0.11,3.84-0.15,5.73,0.06c0.6,0.07,1.12,0.99,1.66,1.55c0.08,0.08,0.02,0.3,0.02,0.45c-0.09,6.65,0.8,5.31-5.18,5.43
		c-3.44,0.07-6.89-0.03-10.33,0.03c-1.44,0.02-2.06-0.45-2.06-1.97c0.03-17.99,0.04-35.98,0-53.97c0-1.88,1.1-1.84,2.4-1.84
		C107.78,32.22,116.82,32.22,125.85,32.22z"/>
	<path class="st1" d="M125.7,77.77c-9.23-0.02-16.68-7.48-16.66-16.67c0.01-9.1,7.63-16.68,16.74-16.68
		c9.17,0.01,16.59,7.51,16.55,16.74C142.29,70.5,134.99,77.79,125.7,77.77z"/>
</g>
</svg>
