<?xml version="1.0" encoding="utf-8"?>
<!-- Generator: Adobe Illustrator 28.0.0, SVG Export Plug-In . SVG Version: 6.00 Build 0)  -->
<svg version="1.1" id="Ebene_1" xmlns="http://www.w3.org/2000/svg" xmlns:xlink="http://www.w3.org/1999/xlink" x="0px" y="0px"
	 viewBox="0 0 270.97 273.3" style="enable-background:new 0 0 270.97 273.3;" xml:space="preserve">
<style type="text/css">
	.st0{fill:#FFED00;}
</style>
<g>
	<path d="M259.06,56.87c0,1.06,0,1.91,0,2.87c0.86,0,1.62,0,2.58,0c0,0.61,0,1.12,0,1.63c0,52.34,0,104.68,0,157.01
		c0,2.38-1.09,3.47-3.47,3.5c-0.19,0-0.39,0-0.58,0c-81.1,0-162.19,0-243.29-0.02c-0.8,0-1.63-0.13-2.38-0.37
		c-1.04-0.34-1.63-1.13-1.58-2.29c0.01-0.29,0-0.58,0-0.87c0-52.63,0-105.26,0-157.88c0-2.57,0.77-3.4,3.36-3.57
		c0.39-0.03,0.77,0,1.16,0c80.71,0,161.42,0,242.13,0C257.61,56.87,258.23,56.87,259.06,56.87z M16.01,62.81
		c0,51.14,0,102.1,0,153.11c79.94,0,159.79,0,239.66,0c0-51.09,0-102.09,0-153.11C175.73,62.81,95.91,62.81,16.01,62.81z"/>
	<path class="st0" d="M16.01,62.81c79.9,0,159.73,0,239.66,0c0,51.02,0,102.01,0,153.11c-79.86,0-159.72,0-239.66,0
		C16.01,164.92,16.01,113.95,16.01,62.81z M95.82,98.49c-5.43,0-10.8,0-16.21,0c0,1.66,0,3.23,0,4.94c3.72,0,7.33,0,11.11,0
		c0,1.14,0,2.15,0,3.15c0,5.4-0.21,5.7-5.31,7.76c-0.13,0.05-0.27,0.12-0.4,0.17c-6.81,2.57-16.16,0.23-18.46-9.29
		c-1.07-4.45-1.08-8.93,0.19-13.35c1.95-6.78,6.45-10.06,13.5-9.91c4.51,0.1,7.96,2.53,9.55,6.74c0.29,0.75,0.54,1.52,0.85,2.36
		c1.58-0.49,3.05-0.95,4.6-1.43c-0.86-3.66-2.09-6.98-5.03-9.36c-3.46-2.81-7.54-3.64-11.86-3.39c-6.23,0.36-11.35,2.8-14.52,8.41
		c-3.35,5.94-4.08,12.36-2.91,18.98c0.98,5.52,3.37,10.3,8.36,13.36c7.97,4.89,18.21,3.71,26.03-3.23c0.28-0.25,0.48-0.74,0.48-1.12
		C95.83,108.4,95.82,103.51,95.82,98.49z M236.85,103.4c0,1.2,0,2.21,0,3.21c0,5.35-0.19,5.63-5.2,7.69
		c-0.13,0.06-0.27,0.11-0.41,0.16c-6.73,2.63-16.18,0.36-18.53-9.14c-1.12-4.54-1.12-9.12,0.21-13.63
		c1.61-5.46,5.02-8.99,10.88-9.64c5-0.56,10.6,0.86,12.51,7.77c0.11,0.4,0.31,0.77,0.5,1.22c1.58-0.49,3.04-0.95,4.53-1.41
		c-1.22-6.05-4.2-10.47-10.29-12.04c-2.12-0.55-4.41-0.79-6.6-0.68c-7.04,0.34-12.4,3.5-15.37,10.08
		c-2.82,6.27-3.26,12.8-1.53,19.43c1.58,6.02,5.05,10.51,11,12.78c8.1,3.08,16.42,0.9,22.91-4.84c0.35-0.31,0.46-1.03,0.47-1.55
		c0.04-4.36,0.02-8.71,0.02-13.07c0-0.42-0.06-0.84-0.09-1.25c-5.44,0-10.77,0-16.11,0c0,1.7,0,3.26,0,4.92
		C229.46,103.4,233.04,103.4,236.85,103.4z M200.74,98.54c0.03-3.78-0.6-7.68-2.33-11.33c-2.98-6.31-7.92-9.94-14.94-10.32
		c-7.51-0.41-13.3,2.79-16.53,9.54c-3.96,8.26-3.99,16.81,0.28,25.02c2.96,5.69,7.9,8.85,14.38,9.08
		c6.96,0.25,12.41-2.57,15.96-8.65C199.93,107.85,200.76,103.41,200.74,98.54z M32.28,114.9c0-4.9,0-9.58,0-14.42
		c6.97,0,13.86,0,20.78,0c0-1.74,0-3.31,0-5.05c-6.98,0-13.87,0-20.75,0c0-4.4,0-8.63,0-12.97c7.45,0,14.79,0,22.17,0
		c0-1.72,0-3.33,0-4.94c-9.2,0-18.28,0-27.44,0c0,14.17,0,28.26,0,42.34c9.54,0,18.95,0,28.32,0c0-1.7,0-3.27,0-4.95
		C47.62,114.9,39.99,114.9,32.28,114.9z M73.12,174.55c5.77-4.24,6.75-10.74,2.5-15.82c-3.88-4.64-11.85-5.08-16.16-0.94
		c-2.34,2.25-3.37,5.02-3.37,8.21c0,3.85,1.68,6.73,5.27,8.51c-6.75,2.81-7.49,9.13-6.43,13.99c1.23,5.68,5.81,9.49,11.37,9.63
		c6.47,0.17,11.22-3.01,12.9-8.64C81.08,183.19,79.03,178.1,73.12,174.55z M183,174.48c-5.84,3.36-7.81,7.89-6.3,14.25
		c1.28,5.37,5.63,9.09,10.99,9.39c6.32,0.36,11.09-2.57,13.03-8.04c1.03-2.92,1.09-5.89,0.19-8.84c-0.95-3.13-3.06-5.29-6.09-6.61
		c5.03-4.06,6.28-7.75,4.39-12.75c-1.76-4.66-5.91-7.15-11.44-6.86c-4.58,0.24-8.49,3.35-9.55,7.78
		C177.23,166.91,177.66,171.66,183,174.48z M144.55,119.91c0-1.84,0-3.51,0-5.34c-6.12,0-12.13,0-18.54,0
		c1.12-1.37,1.94-2.5,2.9-3.5c1.44-1.49,3.06-2.82,4.48-4.34c3-3.21,6.14-6.32,8.8-9.8c2.49-3.25,3.06-7.17,2-11.19
		c-1.72-6.5-8.39-9.84-15.52-7.8c-5.12,1.46-8.76,6.65-8.21,11.85c1.52,0.18,3.08,0.36,4.63,0.55c0.14-0.96,0.23-1.73,0.38-2.49
		c0.78-4.02,4.14-6.42,8.18-5.85c3.74,0.52,6.22,3.7,5.95,7.67c-0.18,2.63-1.32,4.89-3.03,6.77c-2.66,2.93-5.46,5.76-8.32,8.49
		c-3.2,3.06-6.37,6.12-7.99,10.36c-0.55,1.43-0.74,3-1.12,4.63C127.86,119.91,136.17,119.91,144.55,119.91z M230.81,172.84
		c-0.16,1.53-0.31,3-0.48,4.6c0.75-0.14,1.31-0.23,1.87-0.34c3.56-0.68,6.8,0.94,8.12,4.3c1.31,3.33,0.99,6.59-1.26,9.46
		c-3.47,4.42-10.01,3.47-12.11-1.72c-0.47-1.15-0.77-2.37-1.18-3.66c-1.54,0.21-3.04,0.42-4.52,0.62
		c-0.25,5.19,3.87,10.54,8.87,11.7c6.4,1.49,12.53-1.56,14.99-7.5c1.29-3.11,1.37-6.32,0.45-9.53c-0.89-3.13-3-5.19-6.12-6.29
		c4.94-3.83,6.16-8.7,3.57-13.75c-2.32-4.52-7.95-6.79-13.2-5.33c-4.51,1.26-8.37,6.41-8.01,10.79c1.45,0.18,2.92,0.37,4.36,0.55
		c2.46-6.25,4.53-7.97,8.42-7.09c3.14,0.71,4.91,3.37,4.67,7.04C239.03,170.4,236.51,172.27,230.81,172.84z M37.89,197.46
		c1.7,0,3.18,0,4.68,0c0-14.18,0-28.27,0-42.77c-1.24,0.35-2.81,0.32-3.22,0.99c-2.5,4.09-5.9,7.12-9.98,9.5
		c-0.33,0.19-0.75,0.59-0.77,0.91c-0.08,1.48-0.04,2.96-0.04,4.66c3.57-1.42,6.42-3.51,9.32-5.95
		C37.89,175.82,37.89,186.58,37.89,197.46z M116.12,154.67c-1.29,0.37-2.86,0.34-3.27,1.01c-2.5,4.08-5.9,7.12-9.98,9.5
		c-0.33,0.19-0.75,0.59-0.77,0.91c-0.08,1.48-0.04,2.96-0.04,4.66c3.57-1.43,6.42-3.51,9.38-6c0,11.1,0,21.9,0,32.7
		c1.65,0,3.13,0,4.68,0C116.12,183.31,116.12,169.25,116.12,154.67z M158.81,164.72c0,11.16,0,21.93,0,32.71c1.63,0,3.15,0,4.63,0
		c0-14.18,0-28.24,0-42.7c-1.23,0.32-2.81,0.25-3.21,0.91c-2.52,4.13-5.95,7.21-10.09,9.59c-0.32,0.18-0.68,0.62-0.7,0.96
		c-0.08,1.44-0.03,2.88-0.03,4.59C152.95,169.33,155.83,167.29,158.81,164.72z M82.01,198.13c0.86,0,1.58-0.08,2.28,0.02
		c1.32,0.17,1.79-0.37,2.1-1.66c2.71-11.08,5.51-22.14,8.28-33.21c0.75-2.99,1.5-5.97,2.3-9.14c-0.82,0-1.46,0.07-2.06-0.01
		c-1.41-0.2-1.98,0.34-2.33,1.75c-2.18,8.98-4.47,17.92-6.72,26.88C84.59,187.81,83.32,192.87,82.01,198.13z M203.44,198.13
		c0.88,0,1.52-0.08,2.13,0.02c1.45,0.23,1.96-0.41,2.3-1.78c2.61-10.66,5.3-21.3,7.96-31.95c0.84-3.36,1.69-6.73,2.58-10.28
		c-0.82,0-1.45,0.07-2.06-0.01c-1.39-0.19-1.99,0.32-2.34,1.74c-2.08,8.6-4.28,17.17-6.44,25.76
		C206.22,187.05,204.86,192.49,203.44,198.13z M115.82,102.22c-4.86,0-9.53,0-14.23,0c0,1.69,0,3.3,0,4.89c4.8,0,9.48,0,14.23,0
		C115.82,105.45,115.82,103.88,115.82,102.22z M141.97,179.79c-4.85,0-9.53,0-14.23,0c0,1.69,0,3.29,0,4.89c4.8,0,9.48,0,14.23,0
		C141.97,183.02,141.97,181.45,141.97,179.79z M157.36,114.42c-1.84,0-3.55,0-5.3,0c0,1.88,0,3.67,0,5.44c1.84,0,3.55,0,5.3,0
		C157.36,118.02,157.36,116.3,157.36,114.42z"/>
	<path d="M95.82,98.49c0,5.02,0.01,9.91-0.02,14.8c0,0.38-0.21,0.87-0.48,1.12c-7.82,6.94-18.06,8.12-26.03,3.23
		c-4.98-3.06-7.38-7.84-8.36-13.36c-1.17-6.62-0.44-13.04,2.91-18.98c3.17-5.61,8.29-8.06,14.52-8.41c4.32-0.25,8.4,0.58,11.86,3.39
		c2.94,2.38,4.17,5.7,5.03,9.36c-1.55,0.48-3.02,0.94-4.6,1.43c-0.3-0.84-0.56-1.61-0.85-2.36c-1.59-4.21-5.04-6.64-9.55-6.74
		c-7.05-0.15-11.55,3.13-13.5,9.91c-1.27,4.42-1.26,8.9-0.19,13.35c2.3,9.52,11.65,11.86,18.46,9.29c0.14-0.05,0.27-0.11,0.4-0.17
		c5.1-2.06,5.31-2.37,5.31-7.76c0-1,0-2.01,0-3.15c-3.78,0-7.39,0-11.11,0c0-1.71,0-3.27,0-4.94
		C85.02,98.49,90.39,98.49,95.82,98.49z"/>
	<path d="M236.85,103.4c-3.82,0-7.39,0-11.1,0c0-1.65,0-3.22,0-4.92c5.34,0,10.67,0,16.11,0c0.03,0.42,0.08,0.84,0.09,1.25
		c0.01,4.36,0.02,8.71-0.02,13.07c0,0.53-0.12,1.25-0.47,1.55c-6.49,5.74-14.8,7.92-22.91,4.84c-5.95-2.26-9.42-6.76-11-12.78
		c-1.74-6.63-1.3-13.16,1.53-19.43c2.96-6.59,8.33-9.74,15.37-10.08c2.19-0.11,4.48,0.13,6.6,0.68c6.09,1.57,9.08,5.99,10.29,12.04
		c-1.49,0.46-2.94,0.92-4.53,1.41c-0.19-0.45-0.39-0.82-0.5-1.22c-1.91-6.91-7.52-8.33-12.51-7.77c-5.86,0.66-9.27,4.18-10.88,9.64
		c-1.33,4.51-1.33,9.09-0.21,13.63c2.35,9.5,11.81,11.77,18.53,9.14c0.14-0.05,0.27-0.1,0.41-0.16c5.02-2.06,5.2-2.34,5.2-7.69
		C236.85,105.61,236.85,104.6,236.85,103.4z"/>
	<path d="M200.74,98.54c0.02,4.86-0.81,9.31-3.17,13.34c-3.56,6.08-9.01,8.9-15.96,8.65c-6.49-0.23-11.42-3.39-14.38-9.08
		c-4.28-8.21-4.25-16.76-0.28-25.02c3.23-6.75,9.02-9.95,16.53-9.54c7.01,0.38,11.96,4.01,14.94,10.32
		C200.14,90.87,200.77,94.76,200.74,98.54z M169.17,99.31c0.61,2.66,0.89,5.66,1.99,8.33c2.04,4.98,5.87,7.86,11.46,7.8
		c5.39-0.06,9.14-2.86,11.1-7.69c2.48-6.12,2.38-12.42-0.21-18.52c-2.08-4.88-6.57-7.51-11.82-7.27c-4.85,0.22-9.4,3.62-10.84,8.5
		C170.03,93.21,169.75,96.12,169.17,99.31z"/>
	<path d="M32.28,114.9c7.71,0,15.34,0,23.08,0c0,1.69,0,3.26,0,4.95c-9.37,0-18.78,0-28.32,0c0-14.07,0-28.16,0-42.34
		c9.16,0,18.24,0,27.44,0c0,1.61,0,3.21,0,4.94c-7.38,0-14.72,0-22.17,0c0,4.34,0,8.57,0,12.97c6.88,0,13.77,0,20.75,0
		c0,1.74,0,3.31,0,5.05c-6.92,0-13.81,0-20.78,0C32.28,105.33,32.28,110,32.28,114.9z"/>
	<path d="M73.12,174.55c5.92,3.55,7.96,8.65,6.09,14.94c-1.68,5.63-6.43,8.81-12.9,8.64c-5.57-0.14-10.14-3.95-11.37-9.63
		c-1.05-4.86-0.32-11.18,6.43-13.99c-3.59-1.78-5.28-4.66-5.27-8.51c0-3.19,1.03-5.96,3.37-8.21c4.32-4.15,12.28-3.7,16.16,0.94
		C79.87,163.81,78.88,170.31,73.12,174.55z M74.82,185.32c0.01-2.54-0.74-4.8-2.67-6.5c-2.32-2.05-5.05-2.42-7.87-1.35
		c-3.05,1.16-4.46,3.68-4.68,6.77c-0.24,3.27,0.44,6.33,3.53,8.2c2.55,1.54,5.27,1.7,7.87,0.22
		C73.79,191.08,74.82,188.43,74.82,185.32z M67.12,172.4c3.55,0.01,6.11-2.6,6.16-6.29c0.05-3.72-2.58-6.57-6.07-6.59
		c-3.56-0.02-6.16,2.6-6.21,6.25C60.94,169.66,63.46,172.39,67.12,172.4z"/>
	<path d="M183,174.48c-5.34-2.81-5.77-7.56-4.78-11.69c1.06-4.42,4.97-7.54,9.55-7.78c5.52-0.29,9.68,2.21,11.44,6.86
		c1.89,5,0.65,8.69-4.39,12.75c3.03,1.32,5.14,3.48,6.09,6.61c0.89,2.95,0.84,5.93-0.19,8.84c-1.94,5.47-6.7,8.4-13.03,8.04
		c-5.36-0.3-9.71-4.02-10.99-9.39C175.18,182.37,177.16,177.83,183,174.48z M196.55,185.4c0.01-2.59-0.74-4.87-2.72-6.63
		c-3.23-2.87-8.43-2.34-10.93,1.09c-2.84,3.89-1.9,10.28,1.89,12.55c2.55,1.53,5.26,1.74,7.88,0.29
		C195.48,191.15,196.52,188.51,196.55,185.4z M188.89,172.4c3.54,0,6.11-2.66,6.11-6.33c0.01-3.74-2.61-6.54-6.12-6.55
		c-3.54-0.01-6.14,2.64-6.17,6.29C182.7,169.7,185.22,172.4,188.89,172.4z"/>
	<path d="M144.55,119.91c-8.39,0-16.69,0-25.4,0c0.38-1.63,0.57-3.2,1.12-4.63c1.62-4.23,4.79-7.3,7.99-10.36
		c2.87-2.73,5.66-5.56,8.32-8.49c1.71-1.88,2.85-4.14,3.03-6.77c0.27-3.96-2.21-7.15-5.95-7.67c-4.05-0.56-7.4,1.83-8.18,5.85
		c-0.15,0.76-0.23,1.53-0.38,2.49c-1.56-0.18-3.11-0.37-4.63-0.55c-0.55-5.2,3.08-10.39,8.21-11.85c7.13-2.04,13.8,1.3,15.52,7.8
		c1.06,4.02,0.49,7.94-2,11.19c-2.66,3.48-5.8,6.59-8.8,9.8c-1.42,1.52-3.04,2.85-4.48,4.34c-0.96,0.99-1.77,2.13-2.9,3.5
		c6.41,0,12.42,0,18.54,0C144.55,116.4,144.55,118.07,144.55,119.91z"/>
	<path d="M230.81,172.84c5.7-0.58,8.22-2.45,8.46-6.15c0.24-3.66-1.53-6.32-4.67-7.04c-3.89-0.88-5.96,0.84-8.42,7.09
		c-1.44-0.18-2.91-0.36-4.36-0.55c-0.36-4.39,3.5-9.53,8.01-10.79c5.25-1.47,10.88,0.81,13.2,5.33c2.59,5.05,1.37,9.92-3.57,13.75
		c3.12,1.1,5.23,3.16,6.12,6.29c0.91,3.21,0.84,6.42-0.45,9.53c-2.47,5.94-8.6,8.99-14.99,7.5c-5-1.16-9.12-6.51-8.87-11.7
		c1.47-0.2,2.98-0.41,4.52-0.62c0.41,1.29,0.71,2.51,1.18,3.66c2.1,5.19,8.64,6.14,12.11,1.72c2.25-2.87,2.57-6.13,1.26-9.46
		c-1.33-3.36-4.57-4.98-8.12-4.3c-0.56,0.11-1.12,0.2-1.87,0.34C230.5,175.84,230.65,174.37,230.81,172.84z"/>
	<path d="M37.89,197.46c0-10.87,0-21.64,0-32.66c-2.91,2.44-5.75,4.54-9.32,5.95c0-1.7-0.05-3.19,0.04-4.66
		c0.02-0.32,0.44-0.71,0.77-0.91c4.08-2.38,7.48-5.42,9.98-9.5c0.41-0.67,1.98-0.64,3.22-0.99c0,14.5,0,28.59,0,42.77
		C41.06,197.46,39.59,197.46,37.89,197.46z"/>
	<path d="M116.12,154.67c0,14.58,0,28.63,0,42.78c-1.55,0-3.03,0-4.68,0c0-10.8,0-21.6,0-32.7c-2.96,2.49-5.81,4.58-9.38,6
		c0-1.7-0.05-3.18,0.04-4.66c0.02-0.32,0.44-0.72,0.77-0.91c4.08-2.38,7.48-5.42,9.98-9.5
		C113.26,155.01,114.83,155.04,116.12,154.67z"/>
	<path d="M158.81,164.72c-2.98,2.57-5.86,4.61-9.4,6.06c0-1.7-0.04-3.15,0.03-4.59c0.02-0.34,0.38-0.77,0.7-0.96
		c4.14-2.38,7.57-5.46,10.09-9.59c0.4-0.66,1.98-0.59,3.21-0.91c0,14.46,0,28.52,0,42.7c-1.49,0-3,0-4.63,0
		C158.81,186.65,158.81,175.87,158.81,164.72z"/>
	<path d="M82.01,198.13c1.32-5.26,2.58-10.31,3.85-15.37c2.25-8.96,4.54-17.91,6.72-26.88c0.34-1.41,0.92-1.96,2.33-1.75
		c0.61,0.09,1.24,0.01,2.06,0.01c-0.8,3.17-1.55,6.16-2.3,9.14c-2.77,11.07-5.57,22.13-8.28,33.21c-0.31,1.28-0.78,1.83-2.1,1.66
		C83.59,198.05,82.87,198.13,82.01,198.13z"/>
	<path d="M203.44,198.13c1.41-5.64,2.77-11.08,4.14-16.51c2.16-8.58,4.36-17.16,6.44-25.76c0.35-1.43,0.95-1.94,2.34-1.74
		c0.61,0.08,1.24,0.01,2.06,0.01c-0.89,3.55-1.74,6.91-2.58,10.28c-2.67,10.65-5.36,21.29-7.96,31.95c-0.33,1.37-0.85,2.02-2.3,1.78
		C204.96,198.05,204.32,198.13,203.44,198.13z"/>
	<path d="M115.82,102.22c0,1.66,0,3.23,0,4.89c-4.75,0-9.42,0-14.23,0c0-1.59,0-3.19,0-4.89
		C106.3,102.22,110.97,102.22,115.82,102.22z"/>
	<path d="M141.97,179.79c0,1.66,0,3.23,0,4.89c-4.75,0-9.42,0-14.23,0c0-1.59,0-3.2,0-4.89
		C132.44,179.79,137.12,179.79,141.97,179.79z"/>
	<path d="M157.36,114.42c0,1.88,0,3.6,0,5.44c-1.75,0-3.45,0-5.3,0c0-1.77,0-3.56,0-5.44C153.81,114.42,155.52,114.42,157.36,114.42
		z"/>
	<path class="st0" d="M169.17,99.31c0.58-3.19,0.85-6.1,1.67-8.85c1.44-4.88,6-8.28,10.84-8.5c5.25-0.24,9.74,2.39,11.82,7.27
		c2.59,6.1,2.7,12.4,0.21,18.52c-1.96,4.83-5.71,7.63-11.1,7.69c-5.59,0.06-9.42-2.82-11.46-7.8
		C170.07,104.97,169.78,101.97,169.17,99.31z"/>
	<path class="st0" d="M74.82,185.32c0,3.11-1.02,5.76-3.82,7.35c-2.6,1.47-5.32,1.32-7.87-0.22c-3.09-1.87-3.77-4.93-3.53-8.2
		c0.22-3.09,1.64-5.62,4.68-6.77c2.83-1.07,5.55-0.7,7.87,1.35C74.08,180.53,74.82,182.79,74.82,185.32z"/>
	<path class="st0" d="M67.12,172.4c-3.66-0.02-6.18-2.74-6.13-6.63c0.05-3.65,2.65-6.27,6.21-6.25c3.49,0.02,6.12,2.87,6.07,6.59
		C73.23,169.8,70.67,172.42,67.12,172.4z"/>
	<path class="st0" d="M196.55,185.4c-0.02,3.11-1.07,5.75-3.89,7.3c-2.62,1.45-5.32,1.24-7.88-0.29c-3.78-2.27-4.72-8.65-1.89-12.55
		c2.5-3.43,7.7-3.97,10.93-1.09C195.8,180.53,196.56,182.81,196.55,185.4z"/>
	<path class="st0" d="M188.89,172.4c-3.67,0-6.2-2.7-6.17-6.58c0.03-3.65,2.62-6.3,6.17-6.29c3.51,0.01,6.12,2.81,6.12,6.55
		C195,169.75,192.43,172.41,188.89,172.4z"/>
</g>
</svg>
