<?xml version="1.0" encoding="utf-8"?>
<!-- Generator: Adobe Illustrator 28.0.0, SVG Export Plug-In . SVG Version: 6.00 Build 0)  -->
<svg version="1.1" id="Ebene_1" xmlns="http://www.w3.org/2000/svg" xmlns:xlink="http://www.w3.org/1999/xlink" x="0px" y="0px"
	 viewBox="0 0 270.97 273.3" style="enable-background:new 0 0 270.97 273.3;" xml:space="preserve">
<style type="text/css">
	.st0{fill:#394CFF;}
	.st1{fill:#FFFFFF;}
</style>
<g>
	<path class="st0" d="M256.5,137.46c0,39.43,0,78.85,0,118.28c0,3.27,0,3.27-3.2,3.27c-78.84,0-157.68,0-236.51,0
		c-3.29,0-3.3,0-3.3-3.2c0-78.93,0-157.85,0-236.78c0-3.25,0-3.26,3.23-3.26c78.91,0,157.83,0,236.74,0c3.04,0,3.04,0,3.04,3.19
		C256.5,58.45,256.5,97.95,256.5,137.46z"/>
</g>
<rect x="37" y="39.39" class="st1" width="196" height="196"/>
<circle class="st0" cx="135" cy="137.39" r="89.24"/>
<circle class="st1" cx="135" cy="137.39" r="26.57"/>
</svg>
