<?xml version="1.0" encoding="utf-8"?>
<!-- Generator: Adobe Illustrator 28.0.0, SVG Export Plug-In . SVG Version: 6.00 Build 0)  -->
<svg version="1.1" id="Ebene_1" xmlns="http://www.w3.org/2000/svg" xmlns:xlink="http://www.w3.org/1999/xlink" x="0px" y="0px"
	 viewBox="0 0 270.97 273.3" style="enable-background:new 0 0 270.97 273.3;" xml:space="preserve">
<style type="text/css">
	.st0{fill:#E30613;}
	.st1{fill:#FFFFFF;}
</style>
<g>
	<path class="st0" d="M256.84,137.29c0,39.43,0,78.85,0,118.28c0,3.27,0,3.27-3.2,3.27c-78.84,0-157.68,0-236.51,0
		c-3.29,0-3.3,0-3.3-3.2c0-78.93,0-157.85,0-236.78c0-3.25,0-3.26,3.23-3.26c78.91,0,157.83,0,236.74,0c3.04,0,3.04,0,3.04,3.19
		C256.84,58.28,256.84,97.78,256.84,137.29z"/>
</g>
<rect x="31.84" y="33.72" class="st1" width="207" height="207"/>
<circle cx="135.33" cy="137.22" r="69.67"/>
</svg>
