<?xml version="1.0" encoding="utf-8"?>
<!-- Generator: Adobe Illustrator 28.0.0, SVG Export Plug-In . SVG Version: 6.00 Build 0)  -->
<svg version="1.1" id="Ebene_1" xmlns="http://www.w3.org/2000/svg" xmlns:xlink="http://www.w3.org/1999/xlink" x="0px" y="0px"
	 viewBox="0 0 270.97 273.3" style="enable-background:new 0 0 270.97 273.3;" xml:space="preserve">
<style type="text/css">
	.st0{fill:#E30613;}
	.st1{fill:none;}
	.st2{font-family:'Arial-BoldMT';}
	.st3{font-size:36px;}
</style>
<g>
	<path class="st0" d="M185.32,50.49c-56.29,0-112.58,0-168.86,0c-2.3,0-2.3,0.01-2.3,2.33c0,56.3,0,112.59,0,168.89
		c0,2.28,0.01,2.28,2.35,2.28c56.23,0,112.46,0,168.7,0c2.28,0,2.28,0,2.28-2.33c0-28.12,0-56.24,0-84.37c0-28.18,0-56.36,0-84.52
		C187.48,50.49,187.48,50.49,185.32,50.49z M173.93,210.36H27.71V64.13h146.22V210.36z"/>
</g>
<circle cx="100.82" cy="137.24" r="49.73"/>
<rect x="210.54" y="123.75" class="st1" width="47.4" height="28.93"/>
<text transform="matrix(1 0 0 1 210.5442 149.5242)" class="st2 st3">Nr</text>
</svg>
