<?xml version="1.0" encoding="utf-8"?>
<!-- Generator: Adobe Illustrator 28.0.0, SVG Export Plug-In . SVG Version: 6.00 Build 0)  -->
<svg version="1.1" id="Ebene_1" xmlns="http://www.w3.org/2000/svg" xmlns:xlink="http://www.w3.org/1999/xlink" x="0px" y="0px"
	 viewBox="0 0 270.97 273.3" style="enable-background:new 0 0 270.97 273.3;" xml:space="preserve">
<style type="text/css">
	.st0{fill:#E30613;}
</style>
<g>
	<path class="st0" d="M253.47,15.77c-78.91,0-157.83,0-236.74,0c-3.23,0-3.23,0.01-3.23,3.26c0,78.93,0,157.85,0,236.78
		c0,3.2,0.01,3.2,3.3,3.2c78.83,0,157.67,0,236.51,0c3.2,0,3.2,0,3.2-3.27c0-39.43,0-78.85,0-118.28c0-39.51,0-79.01,0-118.5
		C256.51,15.77,256.51,15.77,253.47,15.77z M237.5,239.89h-205v-205h205V239.89z"/>
	<path d="M204.32,56.4h-52.22L173,79.62v76.15c0,39.15-18.44,50.61-39.35,50.61c-18.82,0-36.54-8.6-36.54-47.69V78.87l17.73-22.16
		H62.62l19.81,22.01v79.54c0,43.7,21.75,60.21,50.59,60.21c30.52,0,53.31-17.77,53.31-61.04V78.88L204.32,56.4z"/>
</g>
</svg>
