<?xml version="1.0" encoding="utf-8"?>
<!-- Generator: Adobe Illustrator 28.0.0, SVG Export Plug-In . SVG Version: 6.00 Build 0)  -->
<svg version="1.1" id="Ebene_1" xmlns="http://www.w3.org/2000/svg" xmlns:xlink="http://www.w3.org/1999/xlink" x="0px" y="0px"
	 viewBox="0 0 270.97 273.3" style="enable-background:new 0 0 270.97 273.3;" xml:space="preserve">
<style type="text/css">
	.st0{fill:#FFCD00;}
</style>
<g>
	<path class="st0" d="M206.24,194.63c13.26-15.66,21.25-35.92,21.25-58.04c0-22.13-8-42.38-21.25-58.04l-58.04,58.04L206.24,194.63z
		"/>
	<path class="st0" d="M137.59,125.98l58.04-58.04c-15.66-13.26-35.92-21.25-58.04-21.25c-22.13,0-42.38,8-58.04,21.25L137.59,125.98
		z"/>
	<path class="st0" d="M137.59,147.2l-58.04,58.04c15.66,13.26,35.92,21.25,58.04,21.25c22.13,0,42.38-8,58.04-21.25L137.59,147.2z"
		/>
	<path class="st0" d="M68.94,78.55c-13.26,15.66-21.25,35.92-21.25,58.04c0,22.13,8,42.38,21.25,58.04l58.04-58.04L68.94,78.55z"/>
</g>
</svg>
