<?xml version="1.0" encoding="utf-8"?>
<!-- Generator: Adobe Illustrator 28.0.0, SVG Export Plug-In . SVG Version: 6.00 Build 0)  -->
<svg version="1.1" id="Ebene_1" xmlns="http://www.w3.org/2000/svg" xmlns:xlink="http://www.w3.org/1999/xlink" x="0px" y="0px"
	 viewBox="0 0 270.97 273.3" style="enable-background:new 0 0 270.97 273.3;" xml:space="preserve">
<style type="text/css">
	.st0{fill:#FFED00;}
</style>
<g id="Pil_18">
</g>
<g id="Pil_25">
	<rect x="14.47" y="70.39" class="st0" width="242.85" height="119.48"/>
	<g>
		<path d="M58.77,102.5H71.1v43.27h-8.18v-35.53h-8.91L58.77,102.5z"/>
		<path d="M91.04,137.38c1.27,0,2.36,0.45,3.26,1.34c0.9,0.89,1.35,1.98,1.35,3.25s-0.45,2.36-1.35,3.26
			c-0.9,0.9-1.99,1.35-3.26,1.35s-2.36-0.45-3.26-1.35c-0.9-0.9-1.35-1.99-1.35-3.26s0.45-2.36,1.35-3.25S89.76,137.38,91.04,137.38
			z"/>
		<path d="M134.46,101.41c6.12,0,11.38,2.22,15.79,6.65c4.41,4.43,6.61,9.83,6.61,16.21c0,6.31-2.17,11.66-6.52,16.03
			c-4.35,4.37-9.62,6.56-15.82,6.56c-6.49,0-11.89-2.25-16.19-6.74c-4.3-4.49-6.45-9.82-6.45-16c0-4.14,1-7.94,3-11.41
			c2-3.47,4.75-6.22,8.26-8.25C126.65,102.42,130.42,101.41,134.46,101.41z M134.38,109.47c-4,0-7.37,1.39-10.1,4.18
			c-2.73,2.78-4.09,6.32-4.09,10.62c0,4.78,1.72,8.57,5.15,11.35c2.67,2.18,5.73,3.26,9.19,3.26c3.91,0,7.23-1.41,9.98-4.24
			c2.75-2.82,4.12-6.3,4.12-10.44c0-4.12-1.38-7.6-4.15-10.46C141.71,110.9,138.34,109.47,134.38,109.47z"/>
		<path d="M204.57,109.56l-5.8,5.74c-3.67-3.88-7.95-5.82-12.84-5.82c-4.26,0-7.83,1.41-10.7,4.24c-2.87,2.82-4.31,6.25-4.31,10.29
			c0,4.18,1.49,7.72,4.48,10.62c2.98,2.9,6.66,4.35,11.04,4.35c2.85,0,5.25-0.6,7.2-1.79c1.95-1.2,3.53-3.07,4.73-5.62h-12.53v-7.74
			h21.76l0.06,1.82c0,3.78-0.98,7.37-2.94,10.76s-4.5,5.98-7.62,7.76c-3.12,1.78-6.77,2.68-10.97,2.68c-4.49,0-8.5-0.98-12.01-2.93
			c-3.52-1.95-6.3-4.73-8.35-8.34c-2.05-3.61-3.07-7.5-3.07-11.68c0-5.73,1.89-10.71,5.68-14.94c4.49-5.04,10.33-7.56,17.53-7.56
			c3.76,0,7.28,0.7,10.56,2.09C199.22,104.67,201.92,106.69,204.57,109.56z"/>
	</g>
</g>
</svg>
