<?xml version="1.0" encoding="UTF-8"?>
<svg xmlns="http://www.w3.org/2000/svg" xmlns:xlink="http://www.w3.org/1999/xlink" width="69px" height="50px" viewBox="0 0 69 50" version="1.1">
<g id="surface1">
<path style=" stroke:none;fill-rule:nonzero;fill:rgb(0%,0%,0%);fill-opacity:1;" d="M 34.003906 0.605469 C 32.824219 0.796875 31.847656 1.488281 31.457031 2.421875 C 31.207031 3.027344 31.203125 3.574219 31.449219 4.316406 C 31.460938 4.359375 31.371094 4.398438 30.984375 4.527344 C 30.445312 4.703125 29.636719 5.058594 29.207031 5.304688 C 28.574219 5.671875 28.117188 6.015625 27.617188 6.5 C 26.742188 7.351562 26.222656 8.246094 25.976562 9.324219 L 25.902344 9.652344 L 25.863281 19.121094 L 25.695312 19.574219 C 25.09375 21.160156 24.386719 22.546875 23.535156 23.785156 C 22.617188 25.121094 21.410156 26.417969 20.273438 27.289062 C 19.714844 27.714844 18.683594 28.335938 18.53125 28.335938 L 18.453125 28.335938 L 18.453125 32.007812 L 50.6875 32.007812 L 50.6875 30.242188 C 50.6875 29.273438 50.699219 28.4375 50.707031 28.382812 C 50.726562 28.289062 50.714844 28.277344 50.335938 28.089844 C 49.039062 27.433594 47.546875 26.113281 46.347656 24.5625 C 45.09375 22.9375 44.066406 21.003906 43.449219 19.121094 C 43.367188 18.859375 43.261719 18.542969 43.21875 18.414062 L 43.144531 18.175781 L 43.125 13.914062 C 43.105469 9.667969 43.105469 9.652344 43.03125 9.324219 C 42.785156 8.246094 42.265625 7.351562 41.390625 6.5 C 40.890625 6.015625 40.433594 5.671875 39.800781 5.304688 C 39.375 5.0625 38.558594 4.699219 38.054688 4.542969 C 37.660156 4.414062 37.613281 4.390625 37.625 4.328125 C 37.636719 4.292969 37.671875 4.15625 37.714844 4.027344 C 38.027344 2.980469 37.546875 1.820312 36.53125 1.15625 C 35.980469 0.796875 35.359375 0.609375 34.65625 0.589844 C 34.40625 0.582031 34.109375 0.589844 34.003906 0.605469 Z M 34.003906 0.605469 "/>
<path style=" stroke:none;fill-rule:nonzero;fill:rgb(0%,0%,0%);fill-opacity:1;" d="M 7.574219 10.082031 C 6.734375 11 6.179688 11.667969 5.488281 12.605469 C 2.589844 16.507812 0.777344 20.972656 0.203125 25.605469 C 0.0546875 26.832031 0.0195312 27.386719 0.0195312 28.859375 C 0.0195312 30.332031 0.0546875 30.882812 0.203125 32.109375 C 0.871094 37.511719 3.238281 42.6875 7.003906 47 C 7.53125 47.605469 8.207031 48.320312 8.238281 48.308594 C 8.253906 48.300781 8.566406 48.019531 8.925781 47.683594 L 9.582031 47.0625 L 9.253906 46.71875 C 7.964844 45.378906 6.671875 43.710938 5.691406 42.125 C 3.722656 38.945312 2.476562 35.449219 2.035156 31.875 C 1.898438 30.769531 1.867188 30.21875 1.867188 28.859375 C 1.867188 27.496094 1.898438 26.949219 2.035156 25.84375 C 2.566406 21.527344 4.253906 17.378906 6.96875 13.714844 C 7.609375 12.84375 8.078125 12.28125 8.835938 11.441406 C 9.070312 11.1875 9.261719 10.964844 9.269531 10.949219 C 9.28125 10.921875 8.085938 9.628906 8.035156 9.609375 C 8.023438 9.605469 7.816406 9.816406 7.574219 10.082031 Z M 7.574219 10.082031 "/>
<path style=" stroke:none;fill-rule:nonzero;fill:rgb(0%,0%,0%);fill-opacity:1;" d="M 60.609375 10.367188 C 60.300781 10.65625 60.003906 10.933594 59.953125 10.988281 L 59.855469 11.078125 L 59.953125 11.191406 C 60.003906 11.257812 60.21875 11.5 60.425781 11.726562 C 61.453125 12.878906 62.5 14.273438 63.316406 15.589844 C 64.351562 17.265625 65.226562 19.105469 65.832031 20.902344 C 66.503906 22.871094 66.875 24.667969 67.082031 26.886719 C 67.160156 27.761719 67.160156 29.953125 67.082031 30.828125 C 66.875 33.046875 66.503906 34.84375 65.832031 36.8125 C 64.613281 40.414062 62.472656 43.890625 59.722656 46.753906 C 59.484375 46.996094 59.292969 47.203125 59.292969 47.21875 C 59.292969 47.242188 60.496094 48.53125 60.53125 48.542969 C 60.570312 48.558594 61.339844 47.753906 61.898438 47.121094 C 62.519531 46.410156 62.925781 45.90625 63.476562 45.164062 C 66.410156 41.222656 68.226562 36.769531 68.800781 32.109375 C 68.953125 30.882812 68.988281 30.332031 68.988281 28.859375 C 68.988281 27.386719 68.953125 26.832031 68.800781 25.605469 C 68.136719 20.195312 65.777344 15.035156 61.988281 10.699219 C 61.589844 10.242188 61.214844 9.839844 61.1875 9.839844 C 61.179688 9.839844 60.917969 10.074219 60.609375 10.367188 Z M 60.609375 10.367188 "/>
<path style=" stroke:none;fill-rule:nonzero;fill:rgb(0%,0%,0%);fill-opacity:1;" d="M 56.398438 14.316406 C 56.039062 14.652344 55.742188 14.9375 55.738281 14.953125 C 55.734375 14.964844 55.855469 15.109375 56.003906 15.28125 C 59.007812 18.632812 60.796875 22.332031 61.40625 26.449219 C 61.550781 27.425781 61.589844 28.03125 61.589844 29.261719 C 61.589844 30.527344 61.550781 31.105469 61.394531 32.160156 C 60.789062 36.175781 59.015625 39.863281 56.113281 43.121094 L 55.796875 43.472656 L 55.871094 43.5625 C 55.914062 43.609375 56.171875 43.890625 56.449219 44.1875 C 56.726562 44.484375 56.96875 44.746094 56.992188 44.773438 C 57.050781 44.839844 57.085938 44.804688 57.574219 44.253906 C 60.523438 40.945312 62.460938 36.980469 63.15625 32.839844 C 64.148438 26.933594 62.648438 20.910156 58.9375 15.9375 C 58.40625 15.226562 57.492188 14.128906 57.164062 13.820312 L 57.046875 13.707031 Z M 56.398438 14.316406 "/>
<path style=" stroke:none;fill-rule:nonzero;fill:rgb(0%,0%,0%);fill-opacity:1;" d="M 11.746094 13.921875 C 11.457031 14.21875 11.023438 14.730469 10.613281 15.234375 C 5.148438 22.054688 4.03125 30.785156 7.625 38.503906 C 8.394531 40.164062 9.5 41.925781 10.671875 43.363281 C 11.011719 43.78125 11.691406 44.5625 11.84375 44.707031 L 11.964844 44.824219 L 12.058594 44.742188 C 12.382812 44.445312 13.292969 43.582031 13.289062 43.570312 C 13.285156 43.566406 13.136719 43.390625 12.949219 43.179688 C 9.972656 39.839844 8.207031 36.171875 7.601562 32.074219 C 7.457031 31.097656 7.414062 30.492188 7.414062 29.261719 C 7.414062 27.757812 7.507812 26.765625 7.78125 25.386719 C 8.488281 21.828125 10.285156 18.308594 12.863281 15.441406 C 13.019531 15.273438 13.140625 15.117188 13.140625 15.097656 C 13.140625 15.070312 12.558594 14.425781 11.96875 13.804688 C 11.914062 13.75 11.90625 13.757812 11.746094 13.921875 Z M 11.746094 13.921875 "/>
<path style=" stroke:none;fill-rule:nonzero;fill:rgb(0%,0%,0%);fill-opacity:1;" d="M 52.722656 17.757812 C 52.371094 18.089844 52.078125 18.375 52.074219 18.394531 C 52.066406 18.414062 52.179688 18.566406 52.324219 18.738281 C 53.859375 20.554688 55.03125 22.738281 55.644531 24.933594 C 56.058594 26.410156 56.21875 27.558594 56.21875 29.128906 C 56.21875 30.699219 56.058594 31.84375 55.644531 33.320312 C 55.042969 35.464844 53.882812 37.660156 52.410156 39.417969 C 52.3125 39.535156 52.234375 39.644531 52.242188 39.65625 C 52.269531 39.734375 53.492188 41.003906 53.511719 40.980469 C 53.847656 40.609375 54.503906 39.757812 54.894531 39.183594 C 56.570312 36.734375 57.59375 34.0625 57.949219 31.234375 C 58.519531 26.660156 57.222656 22.058594 54.269531 18.210938 C 53.894531 17.71875 53.417969 17.148438 53.382812 17.152344 C 53.371094 17.152344 53.074219 17.425781 52.722656 17.757812 Z M 52.722656 17.757812 "/>
<path style=" stroke:none;fill-rule:nonzero;fill:rgb(0%,0%,0%);fill-opacity:1;" d="M 15.085938 17.5625 C 14.816406 17.871094 14.273438 18.589844 13.941406 19.070312 C 12.269531 21.519531 11.242188 24.191406 10.890625 27.023438 C 10.320312 31.59375 11.617188 36.195312 14.566406 40.042969 C 14.960938 40.558594 15.625 41.339844 15.664062 41.339844 C 15.683594 41.339844 16.34375 40.738281 16.96875 40.144531 C 17.007812 40.109375 16.953125 40.035156 16.671875 39.703125 C 14.359375 37.007812 13.011719 33.925781 12.664062 30.527344 C 12.613281 29.980469 12.613281 28.273438 12.664062 27.730469 C 12.917969 25.253906 13.664062 23.042969 14.96875 20.890625 C 15.367188 20.234375 15.960938 19.398438 16.394531 18.882812 L 16.539062 18.707031 L 15.980469 18.105469 C 15.671875 17.773438 15.386719 17.46875 15.347656 17.425781 L 15.269531 17.347656 Z M 15.085938 17.5625 "/>
<path style=" stroke:none;fill-rule:nonzero;fill:rgb(0%,0%,0%);fill-opacity:1;" d="M 30.152344 33.953125 C 30.152344 34.210938 30.230469 34.703125 30.320312 34.972656 C 30.488281 35.484375 30.800781 35.988281 31.207031 36.402344 C 31.542969 36.746094 31.855469 36.96875 32.320312 37.199219 C 33.65625 37.863281 35.183594 37.863281 36.519531 37.199219 C 37.332031 36.792969 37.9375 36.210938 38.3125 35.457031 C 38.542969 34.996094 38.6875 34.425781 38.6875 33.953125 L 38.6875 33.761719 L 30.152344 33.761719 Z M 30.152344 33.953125 "/>
</g>
</svg>
