<?xml version="1.0" encoding="UTF-8"?>
<svg xmlns="http://www.w3.org/2000/svg" xmlns:xlink="http://www.w3.org/1999/xlink" width="36px" height="50px" viewBox="0 0 36 49" version="1.1">
<g id="surface1">
<path style=" stroke:none;fill-rule:nonzero;fill:rgb(0%,0%,0%);fill-opacity:1;" d="M 20.105469 1.484375 C 19.71875 1.527344 19.40625 1.652344 19.214844 1.835938 C 19.078125 1.964844 19.011719 2.097656 19.011719 2.226562 C 19.011719 2.308594 19.003906 2.320312 18.953125 2.332031 C 17.929688 2.566406 17.285156 2.875 17.089844 3.222656 C 17.058594 3.285156 17.023438 3.371094 17.015625 3.414062 C 17.007812 3.476562 16.980469 3.503906 16.859375 3.585938 C 16.265625 3.988281 15.621094 4.617188 15.210938 5.195312 C 14.53125 6.160156 14.070312 7.347656 13.851562 8.714844 L 13.824219 8.878906 L 13.644531 9.0625 C 13.542969 9.164062 13.460938 9.253906 13.460938 9.265625 C 13.460938 9.277344 13.476562 9.433594 13.496094 9.617188 C 13.542969 10.082031 13.5625 10.292969 13.589844 10.628906 C 13.625 10.988281 13.625 11.007812 13.675781 11.050781 C 13.714844 11.082031 13.707031 11.09375 13.535156 11.332031 C 13.433594 11.46875 13.351562 11.589844 13.351562 11.605469 C 13.351562 11.640625 13.421875 11.722656 13.652344 11.960938 C 13.765625 12.078125 13.871094 12.191406 13.886719 12.214844 C 13.910156 12.246094 13.910156 12.304688 13.890625 12.507812 C 13.863281 12.800781 13.878906 13.738281 13.917969 13.964844 C 13.964844 14.289062 13.988281 14.402344 14.039062 14.621094 C 14.585938 17.042969 16.523438 19.023438 18.945312 19.640625 C 19.625 19.816406 19.90625 19.847656 20.691406 19.847656 C 21.476562 19.847656 21.757812 19.816406 22.433594 19.640625 C 24.964844 18.996094 26.945312 16.875 27.40625 14.320312 C 27.464844 13.992188 27.488281 13.769531 27.503906 13.433594 C 27.519531 13.125 27.5 12.496094 27.476562 12.355469 C 27.464844 12.296875 27.492188 12.261719 27.777344 11.957031 C 27.949219 11.777344 28.09375 11.609375 28.09375 11.585938 C 28.09375 11.566406 28.015625 11.441406 27.921875 11.316406 C 27.753906 11.089844 27.75 11.078125 27.789062 11.046875 C 27.835938 11.003906 27.835938 10.988281 27.886719 10.457031 C 27.90625 10.25 27.929688 10.003906 27.941406 9.90625 C 27.953125 9.8125 27.964844 9.664062 27.972656 9.574219 C 27.980469 9.488281 27.992188 9.378906 27.996094 9.332031 C 28.011719 9.25 28.003906 9.246094 27.742188 8.984375 C 27.597656 8.835938 27.464844 8.714844 27.453125 8.714844 C 27.441406 8.714844 27.410156 8.617188 27.390625 8.496094 C 27.34375 8.242188 27.242188 7.792969 27.191406 7.621094 C 27.171875 7.558594 27.148438 7.472656 27.140625 7.4375 C 26.921875 6.664062 26.457031 5.71875 25.984375 5.082031 C 25.566406 4.519531 24.925781 3.914062 24.371094 3.554688 C 24.292969 3.503906 24.273438 3.476562 24.246094 3.382812 C 24.117188 2.941406 23.5 2.605469 22.320312 2.332031 C 22.269531 2.320312 22.261719 2.308594 22.261719 2.222656 C 22.261719 1.941406 21.929688 1.648438 21.480469 1.539062 C 21.171875 1.460938 20.53125 1.4375 20.105469 1.484375 Z M 21.425781 1.714844 C 21.746094 1.804688 21.933594 1.917969 22.035156 2.09375 C 22.089844 2.183594 22.089844 2.191406 22.070312 2.429688 C 22.054688 2.5625 22.035156 2.855469 22.023438 3.082031 C 21.996094 3.523438 21.941406 4.394531 21.929688 4.617188 C 21.921875 4.691406 21.90625 4.929688 21.894531 5.140625 C 21.882812 5.355469 21.863281 5.660156 21.851562 5.816406 C 21.839844 5.976562 21.824219 6.21875 21.816406 6.355469 C 21.808594 6.488281 21.800781 6.628906 21.796875 6.664062 C 21.792969 6.699219 21.78125 6.851562 21.773438 7.003906 L 21.757812 7.277344 L 21.8125 7.300781 C 21.859375 7.320312 21.878906 7.320312 21.902344 7.300781 C 21.945312 7.265625 21.953125 7.214844 21.980469 6.75 C 21.992188 6.527344 22.003906 6.289062 22.011719 6.226562 C 22.015625 6.160156 22.027344 6.007812 22.035156 5.882812 C 22.050781 5.632812 22.097656 4.882812 22.132812 4.347656 C 22.144531 4.160156 22.164062 3.859375 22.175781 3.683594 C 22.1875 3.503906 22.207031 3.175781 22.21875 2.953125 C 22.230469 2.730469 22.25 2.539062 22.257812 2.527344 C 22.269531 2.515625 22.316406 2.519531 22.359375 2.53125 C 22.410156 2.542969 22.507812 2.566406 22.585938 2.585938 C 22.664062 2.605469 22.757812 2.632812 22.792969 2.644531 C 23.082031 2.730469 23.242188 2.789062 23.472656 2.902344 C 23.695312 3.007812 23.765625 3.054688 23.886719 3.171875 C 24.066406 3.347656 24.09375 3.421875 24.0625 3.640625 C 23.96875 4.25 23.957031 4.332031 23.898438 4.703125 C 23.851562 4.988281 23.804688 5.296875 23.78125 5.464844 C 23.769531 5.535156 23.746094 5.695312 23.726562 5.816406 C 23.675781 6.132812 23.628906 6.425781 23.605469 6.589844 C 23.582031 6.738281 23.535156 7.035156 23.492188 7.300781 C 23.453125 7.539062 23.457031 7.664062 23.503906 7.695312 C 23.53125 7.710938 23.550781 7.710938 23.578125 7.695312 C 23.621094 7.667969 23.640625 7.605469 23.671875 7.394531 C 23.679688 7.3125 23.707031 7.152344 23.726562 7.042969 C 23.742188 6.929688 23.769531 6.777344 23.777344 6.699219 C 23.808594 6.5 23.855469 6.1875 23.898438 5.925781 C 23.964844 5.5 23.972656 5.441406 24.007812 5.226562 C 24.042969 4.988281 24.0625 4.863281 24.113281 4.53125 C 24.132812 4.40625 24.160156 4.25 24.167969 4.1875 C 24.222656 3.820312 24.242188 3.714844 24.261719 3.714844 C 24.269531 3.714844 24.367188 3.777344 24.480469 3.859375 C 25.679688 4.710938 26.535156 6 26.996094 7.632812 C 27.113281 8.046875 27.175781 8.335938 27.269531 8.921875 C 27.335938 9.324219 27.355469 9.625 27.355469 10.183594 L 27.355469 10.773438 L 27.285156 10.785156 C 27.246094 10.792969 27.117188 10.808594 26.996094 10.820312 C 26.738281 10.84375 26.296875 10.890625 25.847656 10.9375 C 25.546875 10.96875 25.335938 10.992188 24.933594 11.03125 C 24.84375 11.039062 24.769531 11.042969 24.761719 11.035156 C 24.757812 11.03125 24.753906 10.773438 24.753906 10.460938 C 24.753906 10.113281 24.746094 9.878906 24.734375 9.851562 C 24.710938 9.8125 24.679688 9.8125 24.109375 9.8125 C 23.777344 9.8125 23.496094 9.820312 23.480469 9.828125 C 23.460938 9.839844 23.453125 10.011719 23.449219 10.507812 L 23.441406 11.171875 L 23.367188 11.1875 C 23.324219 11.195312 23.128906 11.21875 22.933594 11.238281 C 22.734375 11.257812 22.492188 11.28125 22.390625 11.292969 C 22.289062 11.304688 22.0625 11.328125 21.882812 11.347656 C 21.703125 11.363281 21.464844 11.390625 21.351562 11.398438 C 20.777344 11.460938 20.75 11.460938 20.421875 11.429688 C 20.246094 11.414062 20.007812 11.390625 19.886719 11.378906 C 19.769531 11.367188 19.578125 11.347656 19.464844 11.335938 C 18.980469 11.28125 18.339844 11.214844 18.109375 11.195312 C 18.039062 11.1875 17.953125 11.179688 17.921875 11.171875 L 17.859375 11.160156 L 17.859375 10.527344 C 17.859375 10.132812 17.851562 9.878906 17.839844 9.851562 C 17.816406 9.8125 17.789062 9.8125 17.199219 9.8125 C 16.613281 9.8125 16.582031 9.8125 16.5625 9.851562 C 16.546875 9.878906 16.539062 10.113281 16.539062 10.46875 L 16.539062 11.042969 L 16.449219 11.027344 C 16.394531 11.019531 16.261719 11.003906 16.148438 10.992188 C 16.035156 10.980469 15.796875 10.957031 15.617188 10.9375 C 15.167969 10.890625 14.726562 10.84375 14.46875 10.820312 C 14.351562 10.808594 14.222656 10.792969 14.183594 10.785156 L 14.109375 10.773438 L 14.109375 9.773438 C 14.109375 8.875 14.105469 8.769531 14.078125 8.734375 C 14.042969 8.695312 14.042969 8.683594 14.078125 8.496094 C 14.167969 8.027344 14.265625 7.644531 14.4375 7.128906 C 14.457031 7.058594 14.558594 6.785156 14.585938 6.730469 C 14.597656 6.707031 14.640625 6.605469 14.6875 6.503906 C 15.167969 5.40625 15.902344 4.496094 16.859375 3.8125 C 16.972656 3.734375 17.074219 3.671875 17.085938 3.675781 C 17.101562 3.683594 17.140625 3.832031 17.175781 4.007812 C 17.207031 4.183594 17.273438 4.515625 17.320312 4.746094 C 17.363281 4.972656 17.441406 5.371094 17.492188 5.625 C 17.542969 5.878906 17.628906 6.328125 17.691406 6.625 C 17.75 6.917969 17.8125 7.246094 17.832031 7.351562 C 17.875 7.570312 17.890625 7.601562 17.960938 7.601562 C 18.0625 7.601562 18.066406 7.542969 17.976562 7.117188 C 17.972656 7.082031 17.925781 6.859375 17.878906 6.625 C 17.769531 6.046875 17.644531 5.425781 17.515625 4.777344 C 17.457031 4.480469 17.382812 4.101562 17.351562 3.929688 C 17.300781 3.671875 17.28125 3.609375 17.238281 3.574219 C 17.179688 3.519531 17.175781 3.457031 17.230469 3.351562 C 17.386719 3.050781 17.898438 2.785156 18.726562 2.578125 C 18.863281 2.539062 18.988281 2.511719 19 2.511719 C 19.03125 2.511719 19.066406 2.933594 19.171875 4.53125 C 19.191406 4.808594 19.214844 5.15625 19.226562 5.304688 C 19.238281 5.449219 19.265625 5.796875 19.28125 6.074219 C 19.300781 6.351562 19.324219 6.679688 19.335938 6.804688 C 19.347656 6.929688 19.355469 7.078125 19.355469 7.136719 C 19.355469 7.296875 19.4375 7.367188 19.515625 7.28125 C 19.546875 7.246094 19.550781 7.214844 19.542969 7.09375 C 19.519531 6.828125 19.441406 5.726562 19.421875 5.398438 C 19.410156 5.222656 19.390625 4.9375 19.378906 4.765625 C 19.367188 4.59375 19.347656 4.320312 19.335938 4.152344 C 19.320312 3.988281 19.304688 3.714844 19.289062 3.542969 C 19.257812 3.101562 19.226562 2.648438 19.210938 2.382812 L 19.199219 2.152344 L 19.265625 2.054688 C 19.394531 1.867188 19.660156 1.746094 20.09375 1.664062 C 20.125 1.660156 20.398438 1.660156 20.699219 1.660156 C 21.195312 1.664062 21.269531 1.671875 21.425781 1.714844 Z M 13.917969 9.859375 C 13.914062 10.699219 13.90625 10.839844 13.859375 10.855469 C 13.839844 10.863281 13.824219 10.863281 13.816406 10.855469 C 13.804688 10.847656 13.773438 10.550781 13.722656 9.984375 C 13.710938 9.859375 13.691406 9.683594 13.679688 9.597656 C 13.644531 9.328125 13.644531 9.328125 13.78125 9.1875 C 13.847656 9.117188 13.90625 9.0625 13.910156 9.070312 C 13.917969 9.078125 13.921875 9.429688 13.917969 9.859375 Z M 27.75 9.265625 L 27.8125 9.332031 L 27.789062 9.546875 C 27.777344 9.664062 27.757812 9.851562 27.746094 9.960938 C 27.734375 10.074219 27.710938 10.316406 27.691406 10.5 C 27.675781 10.679688 27.660156 10.835938 27.660156 10.847656 C 27.660156 10.878906 27.597656 10.863281 27.578125 10.824219 C 27.554688 10.78125 27.523438 9.09375 27.546875 9.074219 C 27.554688 9.0625 27.585938 9.089844 27.625 9.128906 C 27.660156 9.167969 27.714844 9.230469 27.75 9.265625 Z M 17.660156 10.558594 C 17.667969 11.050781 17.660156 11.121094 17.632812 11.132812 C 17.613281 11.140625 17.511719 11.136719 17.398438 11.121094 C 17.289062 11.109375 17.097656 11.089844 16.96875 11.074219 L 16.734375 11.050781 L 16.734375 10.53125 C 16.734375 10.246094 16.742188 10.003906 16.75 9.996094 C 16.757812 9.988281 16.964844 9.984375 17.207031 9.988281 L 17.65625 9.992188 Z M 24.546875 10.53125 L 24.546875 11.066406 L 24.441406 11.082031 C 24.269531 11.105469 23.84375 11.148438 23.734375 11.148438 L 23.636719 11.152344 L 23.632812 10.617188 C 23.628906 10.320312 23.632812 10.058594 23.636719 10.03125 L 23.648438 9.984375 L 24.101562 9.988281 L 24.546875 9.992188 Z M 14.328125 10.992188 C 14.558594 11.011719 14.796875 11.039062 15.261719 11.085938 C 15.433594 11.105469 15.769531 11.140625 16.007812 11.164062 C 16.515625 11.214844 16.992188 11.265625 17.265625 11.292969 C 17.375 11.304688 17.601562 11.328125 17.773438 11.347656 C 17.949219 11.363281 18.183594 11.390625 18.292969 11.398438 C 18.488281 11.421875 18.636719 11.4375 19.433594 11.515625 C 19.613281 11.535156 19.851562 11.558594 19.964844 11.570312 C 20.65625 11.644531 20.761719 11.652344 20.886719 11.636719 C 20.957031 11.625 21.125 11.605469 21.253906 11.59375 C 21.464844 11.574219 21.703125 11.550781 22.335938 11.484375 C 22.660156 11.453125 23.167969 11.398438 23.390625 11.378906 C 23.5 11.367188 23.730469 11.34375 23.898438 11.324219 C 24.066406 11.308594 24.300781 11.28125 24.417969 11.269531 C 24.539062 11.261719 24.722656 11.242188 24.832031 11.226562 C 24.9375 11.21875 25.21875 11.1875 25.457031 11.164062 C 25.695312 11.140625 26.035156 11.105469 26.207031 11.085938 C 27.050781 11 27.328125 10.972656 27.398438 10.972656 C 27.441406 10.972656 27.46875 11 27.527344 11.085938 C 27.570312 11.144531 27.664062 11.28125 27.738281 11.382812 C 27.816406 11.484375 27.875 11.578125 27.875 11.589844 C 27.875 11.597656 27.746094 11.707031 27.589844 11.828125 C 27.101562 12.210938 26.921875 12.347656 26.671875 12.546875 C 26.53125 12.660156 26.359375 12.773438 26.242188 12.828125 C 25.832031 13.03125 25.042969 13.253906 24.328125 13.378906 C 23.613281 13.496094 23.375 13.53125 22.574219 13.609375 C 21.511719 13.714844 20.835938 13.75 20.324219 13.71875 C 19.707031 13.6875 18.910156 13.621094 18.511719 13.566406 C 17.921875 13.496094 17.773438 13.472656 17.480469 13.425781 C 17 13.347656 16.542969 13.25 16.203125 13.15625 C 16.121094 13.132812 16.023438 13.105469 15.984375 13.097656 C 15.703125 13.015625 15.304688 12.859375 15.109375 12.746094 C 15.019531 12.695312 14.871094 12.59375 14.777344 12.519531 C 14.683594 12.441406 14.5625 12.347656 14.503906 12.304688 C 13.949219 11.886719 13.589844 11.605469 13.589844 11.589844 C 13.589844 11.582031 13.652344 11.484375 13.726562 11.382812 C 13.800781 11.28125 13.898438 11.144531 13.9375 11.085938 C 14.023438 10.957031 14.007812 10.960938 14.328125 10.992188 Z M 14.730469 12.71875 C 15 12.945312 15.554688 13.179688 16.214844 13.351562 C 16.515625 13.429688 16.910156 13.515625 17.078125 13.542969 C 17.144531 13.558594 17.3125 13.585938 17.449219 13.605469 C 18.023438 13.703125 18.742188 13.789062 19.453125 13.84375 C 19.609375 13.859375 19.882812 13.878906 20.0625 13.894531 C 20.484375 13.929688 20.972656 13.929688 21.40625 13.894531 C 22.527344 13.804688 22.621094 13.796875 23.214844 13.726562 C 23.621094 13.679688 23.839844 13.648438 24.484375 13.535156 C 25.046875 13.4375 25.71875 13.253906 26.121094 13.089844 C 26.335938 13 26.5625 12.871094 26.695312 12.761719 C 27.054688 12.464844 27.0625 12.488281 26.710938 12.84375 C 26.488281 13.070312 26.453125 13.101562 26.246094 13.199219 C 25.503906 13.5625 24.121094 13.847656 22.328125 14.007812 C 21.460938 14.082031 21.285156 14.09375 20.734375 14.09375 C 20.179688 14.09375 20.007812 14.082031 19.140625 14.007812 C 18.640625 13.964844 18.023438 13.890625 17.742188 13.847656 C 17.671875 13.835938 17.515625 13.8125 17.394531 13.792969 C 16.535156 13.660156 15.679688 13.425781 15.222656 13.199219 C 15.011719 13.097656 14.980469 13.074219 14.722656 12.8125 C 14.570312 12.660156 14.441406 12.523438 14.4375 12.511719 C 14.429688 12.480469 14.539062 12.5625 14.730469 12.71875 Z M 14.828125 13.128906 C 14.972656 13.265625 15.050781 13.320312 15.195312 13.390625 C 15.546875 13.554688 15.785156 13.628906 16.375 13.757812 C 16.425781 13.769531 16.535156 13.796875 16.625 13.816406 C 16.925781 13.882812 16.960938 13.890625 17.125 13.925781 C 17.484375 13.996094 17.714844 14.03125 18.292969 14.09375 C 18.796875 14.148438 18.945312 14.164062 19.226562 14.1875 C 19.375 14.203125 19.5625 14.222656 19.644531 14.234375 C 19.832031 14.261719 21.503906 14.261719 21.777344 14.234375 C 21.894531 14.222656 22.128906 14.203125 22.292969 14.1875 C 22.460938 14.175781 22.675781 14.160156 22.769531 14.148438 C 23.226562 14.101562 23.410156 14.082031 23.53125 14.0625 C 23.601562 14.050781 23.761719 14.027344 23.886719 14.007812 C 24.011719 13.988281 24.164062 13.964844 24.222656 13.953125 C 24.285156 13.945312 24.414062 13.921875 24.515625 13.902344 C 24.617188 13.882812 24.734375 13.859375 24.777344 13.847656 C 24.894531 13.816406 25.300781 13.695312 25.359375 13.675781 C 25.390625 13.664062 25.515625 13.625 25.644531 13.589844 C 25.9375 13.5 26.109375 13.445312 26.21875 13.394531 C 26.574219 13.242188 26.574219 13.242188 26.75 13.058594 L 26.921875 12.875 L 26.921875 13.207031 C 26.921875 13.753906 26.832031 14.339844 26.671875 14.871094 C 25.941406 17.253906 23.890625 18.957031 21.402344 19.246094 C 21.042969 19.289062 20.339844 19.289062 19.976562 19.246094 C 17.097656 18.910156 14.828125 16.671875 14.492188 13.824219 C 14.460938 13.578125 14.453125 13.34375 14.457031 12.949219 L 14.457031 12.789062 L 14.550781 12.871094 C 14.601562 12.914062 14.726562 13.03125 14.828125 13.128906 Z M 14.828125 13.128906 "/>
<path style=" stroke:none;fill-rule:nonzero;fill:rgb(0%,0%,0%);fill-opacity:1;" d="M 12.570312 19.195312 C 10.839844 19.371094 9.125 19.539062 8.769531 19.574219 C 8.148438 19.632812 8.117188 19.636719 8.109375 19.679688 C 8.105469 19.707031 8.066406 19.742188 7.992188 19.773438 C 7.449219 20.023438 7.003906 20.5625 6.902344 21.113281 C 6.894531 21.160156 6.875 21.207031 6.859375 21.222656 C 6.835938 21.242188 0.0429688 41.214844 0.0351562 41.28125 C 0.0351562 41.300781 0.0703125 41.324219 0.121094 41.34375 C 0.195312 41.371094 0.601562 41.820312 3.328125 44.925781 C 5.042969 46.878906 6.480469 48.511719 6.515625 48.554688 L 6.582031 48.636719 L 6.804688 48.445312 C 7.019531 48.257812 7.023438 48.257812 6.984375 48.210938 C 6.964844 48.183594 5.546875 46.570312 3.835938 44.625 C 2.125 42.675781 0.726562 41.074219 0.734375 41.0625 C 0.765625 40.953125 7.050781 22.460938 7.066406 22.433594 C 7.078125 22.414062 7.132812 22.1875 7.1875 21.929688 C 7.339844 21.203125 7.484375 20.898438 7.8125 20.59375 C 7.996094 20.425781 8.15625 20.324219 8.355469 20.253906 C 8.496094 20.203125 8.835938 20.148438 8.890625 20.167969 C 8.9375 20.1875 10.082031 20.082031 10.097656 20.058594 C 10.109375 20.039062 10.597656 19.988281 10.746094 19.988281 L 10.792969 19.988281 L 10.792969 32.242188 L 10.1875 32.851562 L 9.582031 33.457031 L 9.652344 33.277344 C 9.691406 33.175781 9.773438 32.976562 9.832031 32.832031 C 9.890625 32.6875 9.933594 32.566406 9.925781 32.5625 C 9.890625 32.53125 9.394531 32.359375 9.382812 32.371094 C 9.363281 32.390625 6.65625 39.179688 6.65625 39.210938 C 6.65625 39.226562 6.6875 39.25 6.726562 39.269531 C 6.777344 39.296875 7.851562 40.589844 10.714844 44.070312 C 12.871094 46.695312 14.640625 48.84375 14.652344 48.851562 C 14.675781 48.867188 15.101562 48.523438 15.089844 48.492188 C 15.089844 48.484375 14.902344 48.25 14.679688 47.976562 C 14.457031 47.707031 14.273438 47.472656 14.273438 47.460938 C 14.273438 47.445312 16.628906 45.121094 19.507812 42.296875 C 22.386719 39.46875 24.742188 37.148438 24.742188 37.136719 C 24.742188 37.121094 16.546875 28.84375 15.738281 28.042969 C 15.53125 27.839844 15.355469 27.671875 15.347656 27.671875 C 15.339844 27.671875 14.449219 28.5625 13.371094 29.648438 L 11.414062 31.621094 L 11.40625 25.78125 C 11.402344 22.566406 11.402344 19.933594 11.410156 19.929688 C 11.414062 19.925781 12.488281 19.828125 13.800781 19.707031 C 15.109375 19.59375 16.230469 19.488281 16.292969 19.484375 L 16.40625 19.46875 L 16.476562 19.574219 C 16.773438 20.003906 17.472656 20.414062 18.300781 20.652344 C 19.027344 20.859375 19.753906 20.953125 20.648438 20.953125 C 21.539062 20.953125 22.265625 20.859375 22.996094 20.652344 C 23.859375 20.402344 24.570312 19.96875 24.855469 19.515625 L 24.9375 19.382812 L 25.023438 19.394531 C 25.074219 19.402344 26.207031 19.503906 27.550781 19.625 C 28.890625 19.746094 29.992188 19.84375 29.992188 19.84375 C 29.996094 19.847656 30.128906 26.332031 30.289062 34.257812 C 30.449219 42.1875 30.585938 48.675781 30.589844 48.683594 C 30.597656 48.6875 30.726562 48.6875 30.882812 48.679688 L 31.167969 48.664062 L 31.15625 48.285156 C 31.132812 47.40625 30.585938 19.914062 30.59375 19.90625 C 30.605469 19.898438 31.59375 19.976562 31.730469 20 C 31.769531 20.007812 31.792969 20.019531 31.789062 20.027344 C 31.785156 20.035156 32.042969 20.066406 32.371094 20.09375 C 32.695312 20.117188 33.050781 20.148438 33.167969 20.160156 C 33.539062 20.195312 33.804688 20.324219 34.054688 20.582031 C 34.398438 20.941406 34.488281 21.324219 34.488281 22.46875 C 34.488281 22.863281 34.652344 27.710938 34.941406 35.753906 C 35.195312 42.71875 35.398438 48.480469 35.398438 48.558594 L 35.398438 48.699219 L 35.683594 48.683594 C 35.839844 48.675781 35.972656 48.664062 35.980469 48.660156 C 35.988281 48.648438 35.046875 22.171875 35.015625 21.5 C 35 21.191406 34.957031 20.984375 34.863281 20.761719 C 34.648438 20.261719 34.261719 19.894531 33.726562 19.6875 C 33.464844 19.582031 33.226562 19.558594 29.457031 19.214844 L 25.71875 18.875 L 25.097656 18.871094 L 24.472656 18.871094 L 24.472656 18.929688 C 24.472656 19.105469 24.21875 19.421875 23.925781 19.613281 C 23.550781 19.863281 22.917969 20.101562 22.316406 20.222656 C 21.753906 20.332031 21.3125 20.375 20.648438 20.375 C 19.980469 20.375 19.539062 20.332031 18.976562 20.222656 C 18.375 20.101562 17.746094 19.863281 17.367188 19.613281 C 17.074219 19.421875 16.820312 19.105469 16.820312 18.929688 L 16.820312 18.871094 L 16.273438 18.875 C 15.734375 18.875 15.691406 18.878906 12.570312 19.195312 Z M 20.039062 33.203125 L 23.929688 37.128906 L 22.410156 38.621094 C 21.570312 39.441406 19.3125 41.660156 17.386719 43.554688 L 13.882812 46.992188 L 13.828125 46.933594 C 13.792969 46.902344 12.363281 45.160156 10.644531 43.066406 C 8.921875 40.972656 7.476562 39.210938 7.429688 39.15625 L 7.347656 39.054688 L 7.804688 37.910156 C 8.058594 37.28125 8.28125 36.714844 8.304688 36.652344 L 8.347656 36.542969 L 8.714844 36.957031 C 8.914062 37.183594 9.101562 37.375 9.121094 37.382812 C 9.144531 37.386719 9.191406 37.382812 9.226562 37.367188 C 9.261719 37.351562 9.648438 36.976562 10.09375 36.539062 C 10.996094 35.636719 10.980469 35.65625 10.964844 35.386719 C 10.957031 35.308594 10.945312 35.222656 10.9375 35.203125 C 10.925781 35.175781 10.988281 35.113281 11.210938 34.917969 C 11.804688 34.40625 12.234375 34.179688 12.804688 34.082031 C 13.328125 33.992188 13.90625 34.117188 14.351562 34.417969 C 14.429688 34.464844 14.574219 34.589844 14.679688 34.6875 C 14.78125 34.785156 14.878906 34.863281 14.898438 34.863281 C 14.957031 34.863281 15.042969 34.816406 15.054688 34.773438 C 15.082031 34.699219 15.042969 34.632812 14.886719 34.472656 C 14.238281 33.828125 13.28125 33.613281 12.355469 33.902344 C 11.859375 34.058594 11.492188 34.285156 10.925781 34.777344 L 10.730469 34.945312 L 10.648438 34.902344 C 10.582031 34.871094 10.535156 34.863281 10.390625 34.871094 C 10.238281 34.878906 10.195312 34.886719 10.109375 34.941406 C 10.050781 34.980469 9.675781 35.253906 9.269531 35.5625 C 8.867188 35.867188 8.535156 36.109375 8.53125 36.105469 C 8.527344 36.105469 8.644531 35.800781 8.792969 35.433594 C 8.960938 35.007812 9.066406 34.769531 9.085938 34.769531 C 9.105469 34.769531 10.523438 33.355469 12.234375 31.628906 L 15.355469 28.488281 L 15.75 28.878906 C 15.964844 29.097656 17.898438 31.039062 20.039062 33.203125 Z M 10.558594 35.195312 C 10.6875 35.28125 10.71875 35.402344 10.644531 35.546875 C 10.621094 35.589844 10.28125 35.945312 9.890625 36.332031 L 9.175781 37.039062 L 8.902344 36.730469 C 8.753906 36.5625 8.636719 36.414062 8.640625 36.40625 C 8.652344 36.386719 10.230469 35.199219 10.285156 35.167969 C 10.355469 35.128906 10.476562 35.140625 10.558594 35.195312 Z M 10.558594 35.195312 "/>
<path style=" stroke:none;fill-rule:nonzero;fill:rgb(0%,0%,0%);fill-opacity:1;" d="M 15.960938 30.230469 C 15.777344 30.398438 15.628906 30.546875 15.628906 30.566406 C 15.628906 30.609375 15.855469 30.851562 15.949219 30.910156 C 16.15625 31.03125 16.417969 30.886719 16.378906 30.667969 C 16.367188 30.597656 16.367188 30.597656 16.4375 30.597656 C 16.535156 30.597656 16.59375 30.5625 16.636719 30.484375 C 16.683594 30.394531 16.675781 30.308594 16.613281 30.214844 C 16.53125 30.097656 16.363281 29.925781 16.320312 29.925781 C 16.304688 29.925781 16.140625 30.066406 15.960938 30.230469 Z M 16.472656 30.320312 C 16.472656 30.386719 16.378906 30.472656 16.328125 30.457031 C 16.304688 30.445312 16.257812 30.414062 16.222656 30.375 L 16.160156 30.308594 L 16.355469 30.136719 L 16.414062 30.203125 C 16.449219 30.242188 16.472656 30.292969 16.472656 30.320312 Z M 16.199219 30.605469 C 16.21875 30.667969 16.1875 30.730469 16.125 30.765625 C 16.0625 30.800781 15.980469 30.761719 15.902344 30.667969 L 15.84375 30.59375 L 15.945312 30.507812 L 16.046875 30.417969 L 16.117188 30.488281 C 16.15625 30.523438 16.195312 30.578125 16.199219 30.605469 Z M 16.199219 30.605469 "/>
<path style=" stroke:none;fill-rule:nonzero;fill:rgb(0%,0%,0%);fill-opacity:1;" d="M 16.613281 30.824219 C 16.214844 31.191406 16.210938 31.199219 16.234375 31.25 C 16.285156 31.363281 16.324219 31.351562 16.5 31.191406 C 16.648438 31.058594 16.675781 31.042969 16.753906 31.042969 C 16.820312 31.042969 16.847656 31.054688 16.863281 31.085938 C 16.890625 31.140625 16.933594 31.140625 16.980469 31.089844 C 17.058594 31.007812 16.988281 30.914062 16.851562 30.914062 C 16.773438 30.914062 16.773438 30.914062 16.808594 30.875 C 16.839844 30.835938 16.839844 30.832031 16.796875 30.78125 C 16.773438 30.746094 16.746094 30.722656 16.738281 30.722656 C 16.730469 30.722656 16.675781 30.765625 16.613281 30.824219 Z M 16.613281 30.824219 "/>
<path style=" stroke:none;fill-rule:nonzero;fill:rgb(0%,0%,0%);fill-opacity:1;" d="M 14.582031 31.480469 C 14.386719 31.667969 14.21875 31.824219 14.210938 31.835938 C 14.203125 31.847656 14.21875 31.878906 14.238281 31.90625 C 14.277344 31.949219 14.289062 31.953125 14.324219 31.929688 C 14.363281 31.90625 14.367188 31.914062 14.378906 31.996094 C 14.394531 32.121094 14.511719 32.222656 14.632812 32.222656 C 14.847656 32.222656 15.085938 32 15.085938 31.800781 C 15.085938 31.71875 15.074219 31.695312 15.011719 31.632812 C 14.972656 31.589844 14.917969 31.558594 14.894531 31.558594 C 14.8125 31.558594 14.828125 31.519531 14.960938 31.398438 C 15.09375 31.277344 15.09375 31.273438 15.0625 31.21875 C 15.003906 31.109375 14.964844 31.132812 14.582031 31.480469 Z M 14.796875 31.667969 C 14.929688 31.71875 14.925781 31.820312 14.792969 31.941406 C 14.644531 32.078125 14.5 32.054688 14.5 31.894531 C 14.5 31.835938 14.519531 31.804688 14.597656 31.734375 C 14.707031 31.636719 14.710938 31.632812 14.796875 31.667969 Z M 14.796875 31.667969 "/>
<path style=" stroke:none;fill-rule:nonzero;fill:rgb(0%,0%,0%);fill-opacity:1;" d="M 16.984375 31.191406 C 16.945312 31.234375 16.964844 31.261719 17.054688 31.289062 C 17.101562 31.304688 17.234375 31.4375 17.234375 31.472656 C 17.234375 31.480469 17.214844 31.511719 17.191406 31.539062 L 17.152344 31.589844 L 17.046875 31.5 C 16.917969 31.386719 16.820312 31.351562 16.730469 31.386719 C 16.601562 31.441406 16.566406 31.585938 16.648438 31.71875 C 16.6875 31.785156 16.722656 31.804688 16.851562 31.847656 C 16.886719 31.859375 16.886719 31.867188 16.867188 31.878906 C 16.84375 31.894531 16.84375 31.90625 16.867188 31.941406 C 16.921875 32.023438 16.949219 32.015625 17.140625 31.84375 C 17.335938 31.671875 17.40625 31.578125 17.40625 31.503906 C 17.40625 31.429688 17.285156 31.265625 17.183594 31.207031 C 17.070312 31.140625 17.035156 31.136719 16.984375 31.191406 Z M 16.984375 31.601562 C 17.042969 31.664062 17.042969 31.667969 17.003906 31.710938 C 16.957031 31.761719 16.890625 31.765625 16.824219 31.71875 C 16.773438 31.679688 16.761719 31.605469 16.804688 31.5625 C 16.847656 31.519531 16.917969 31.535156 16.984375 31.601562 Z M 16.984375 31.601562 "/>
<path style=" stroke:none;fill-rule:nonzero;fill:rgb(0%,0%,0%);fill-opacity:1;" d="M 17.355469 31.917969 C 17.214844 32.042969 17.101562 32.15625 17.101562 32.171875 C 17.101562 32.199219 17.195312 32.289062 17.222656 32.289062 C 17.238281 32.289062 17.28125 32.253906 17.320312 32.210938 C 17.359375 32.167969 17.441406 32.09375 17.5 32.050781 C 17.582031 31.984375 17.617188 31.96875 17.660156 31.980469 C 17.746094 32 17.773438 32.027344 17.773438 32.09375 C 17.773438 32.144531 17.734375 32.191406 17.589844 32.328125 L 17.402344 32.5 L 17.464844 32.570312 L 17.53125 32.640625 L 17.738281 32.453125 C 17.984375 32.230469 18.023438 32.15625 17.957031 32.019531 C 17.917969 31.9375 17.792969 31.863281 17.699219 31.859375 C 17.660156 31.859375 17.660156 31.855469 17.695312 31.820312 C 17.726562 31.785156 17.726562 31.777344 17.695312 31.734375 C 17.679688 31.710938 17.652344 31.6875 17.632812 31.6875 C 17.617188 31.6875 17.492188 31.789062 17.355469 31.917969 Z M 17.355469 31.917969 "/>
<path style=" stroke:none;fill-rule:nonzero;fill:rgb(0%,0%,0%);fill-opacity:1;" d="M 15.113281 32.121094 C 15.003906 32.175781 14.898438 32.292969 14.871094 32.398438 C 14.832031 32.539062 14.910156 32.695312 15.085938 32.8125 C 15.164062 32.867188 15.179688 32.871094 15.226562 32.847656 C 15.300781 32.808594 15.296875 32.769531 15.222656 32.730469 C 15.140625 32.6875 15.050781 32.589844 15.03125 32.523438 C 15.023438 32.488281 15.03125 32.453125 15.0625 32.414062 L 15.105469 32.363281 L 15.265625 32.535156 L 15.425781 32.703125 L 15.503906 32.632812 C 15.644531 32.511719 15.660156 32.351562 15.550781 32.210938 C 15.445312 32.070312 15.28125 32.039062 15.113281 32.121094 Z M 15.429688 32.28125 C 15.488281 32.351562 15.488281 32.375 15.4375 32.441406 L 15.390625 32.492188 L 15.292969 32.386719 C 15.207031 32.289062 15.203125 32.277344 15.234375 32.25 C 15.292969 32.207031 15.382812 32.21875 15.429688 32.28125 Z M 15.429688 32.28125 "/>
<path style=" stroke:none;fill-rule:nonzero;fill:rgb(0%,0%,0%);fill-opacity:1;" d="M 18.035156 32.433594 C 17.914062 32.496094 17.785156 32.632812 17.761719 32.730469 C 17.726562 32.878906 17.824219 33.03125 17.972656 33.054688 C 18.0625 33.066406 18.070312 33.082031 18.03125 33.121094 C 18.007812 33.144531 18.015625 33.160156 18.0625 33.203125 L 18.117188 33.261719 L 18.5 32.910156 C 18.707031 32.714844 18.878906 32.550781 18.878906 32.542969 C 18.878906 32.519531 18.777344 32.417969 18.757812 32.417969 C 18.746094 32.417969 18.679688 32.476562 18.609375 32.546875 L 18.480469 32.671875 L 18.449219 32.574219 C 18.382812 32.386719 18.226562 32.332031 18.035156 32.433594 Z M 18.300781 32.605469 C 18.367188 32.664062 18.351562 32.777344 18.257812 32.871094 C 18.167969 32.964844 18.082031 32.980469 17.996094 32.921875 C 17.90625 32.859375 17.960938 32.699219 18.109375 32.609375 C 18.191406 32.558594 18.246094 32.558594 18.300781 32.605469 Z M 18.300781 32.605469 "/>
<path style=" stroke:none;fill-rule:nonzero;fill:rgb(0%,0%,0%);fill-opacity:1;" d="M 15.742188 32.636719 C 15.703125 32.675781 15.707031 32.691406 15.785156 32.730469 C 15.878906 32.777344 15.976562 32.867188 15.976562 32.910156 C 15.976562 32.929688 15.960938 32.96875 15.941406 32.992188 L 15.90625 33.042969 L 15.8125 32.953125 C 15.625 32.78125 15.457031 32.78125 15.367188 32.953125 C 15.308594 33.070312 15.425781 33.261719 15.578125 33.289062 C 15.636719 33.300781 15.644531 33.308594 15.628906 33.332031 C 15.601562 33.363281 15.628906 33.433594 15.679688 33.453125 C 15.695312 33.460938 15.796875 33.382812 15.929688 33.257812 C 16.136719 33.0625 16.148438 33.042969 16.148438 32.96875 C 16.148438 32.859375 16.078125 32.75 15.957031 32.671875 C 15.851562 32.605469 15.78125 32.597656 15.742188 32.636719 Z M 15.726562 33.042969 L 15.804688 33.109375 L 15.757812 33.160156 C 15.703125 33.214844 15.628906 33.210938 15.558594 33.152344 C 15.511719 33.109375 15.507812 33.066406 15.558594 33.015625 C 15.605469 32.960938 15.636719 32.964844 15.726562 33.042969 Z M 15.726562 33.042969 "/>
<path style=" stroke:none;fill-rule:nonzero;fill:rgb(0%,0%,0%);fill-opacity:1;" d="M 18.617188 33.039062 C 18.546875 33.109375 18.539062 33.164062 18.589844 33.304688 C 18.632812 33.429688 18.625 33.5 18.5625 33.507812 C 18.511719 33.515625 18.410156 33.410156 18.390625 33.328125 C 18.382812 33.300781 18.367188 33.277344 18.359375 33.277344 C 18.328125 33.277344 18.273438 33.339844 18.273438 33.375 C 18.273438 33.46875 18.417969 33.628906 18.535156 33.664062 C 18.628906 33.691406 18.746094 33.636719 18.792969 33.542969 C 18.820312 33.488281 18.816406 33.46875 18.773438 33.335938 C 18.730469 33.21875 18.726562 33.1875 18.75 33.160156 C 18.765625 33.140625 18.789062 33.125 18.800781 33.125 C 18.839844 33.125 18.917969 33.210938 18.941406 33.28125 C 18.960938 33.335938 18.972656 33.339844 19.011719 33.320312 C 19.144531 33.25 18.941406 32.976562 18.753906 32.976562 C 18.703125 32.976562 18.664062 32.996094 18.617188 33.039062 Z M 18.617188 33.039062 "/>
<path style=" stroke:none;fill-rule:nonzero;fill:rgb(0%,0%,0%);fill-opacity:1;" d="M 16.167969 33.304688 C 15.957031 33.5 15.898438 33.601562 15.933594 33.699219 C 15.96875 33.792969 16.039062 33.855469 16.140625 33.878906 C 16.222656 33.902344 16.230469 33.90625 16.207031 33.941406 C 16.1875 33.972656 16.191406 33.992188 16.222656 34.027344 C 16.246094 34.050781 16.273438 34.070312 16.285156 34.070312 C 16.316406 34.070312 16.800781 33.617188 16.800781 33.585938 C 16.800781 33.558594 16.71875 33.46875 16.691406 33.46875 C 16.679688 33.46875 16.59375 33.539062 16.507812 33.625 C 16.359375 33.757812 16.332031 33.777344 16.265625 33.773438 C 16.167969 33.769531 16.128906 33.738281 16.128906 33.664062 C 16.128906 33.621094 16.171875 33.566406 16.3125 33.433594 C 16.484375 33.277344 16.496094 33.257812 16.476562 33.214844 C 16.453125 33.175781 16.386719 33.125 16.359375 33.125 C 16.355469 33.128906 16.269531 33.207031 16.167969 33.304688 Z M 16.167969 33.304688 "/>
<path style=" stroke:none;fill-rule:nonzero;fill:rgb(0%,0%,0%);fill-opacity:1;" d="M 19.035156 33.527344 C 18.917969 33.582031 18.804688 33.707031 18.78125 33.808594 C 18.757812 33.902344 18.792969 34.011719 18.878906 34.09375 C 18.984375 34.203125 19.0625 34.222656 19.128906 34.15625 C 19.1875 34.101562 19.183594 34.070312 19.121094 34.070312 C 19.097656 34.070312 19.054688 34.050781 19.023438 34.027344 C 18.933594 33.957031 18.945312 33.855469 19.050781 33.75 C 19.097656 33.707031 19.160156 33.664062 19.195312 33.652344 C 19.277344 33.632812 19.359375 33.695312 19.386719 33.796875 C 19.398438 33.84375 19.414062 33.878906 19.421875 33.878906 C 19.429688 33.878906 19.457031 33.855469 19.484375 33.824219 C 19.53125 33.777344 19.53125 33.765625 19.511719 33.699219 C 19.46875 33.574219 19.324219 33.46875 19.195312 33.46875 C 19.171875 33.46875 19.097656 33.496094 19.035156 33.527344 Z M 19.035156 33.527344 "/>
<path style=" stroke:none;fill-rule:nonzero;fill:rgb(0%,0%,0%);fill-opacity:1;" d="M 17.132812 33.660156 C 17.085938 33.683594 17.035156 33.714844 17.019531 33.734375 C 16.988281 33.769531 16.984375 33.769531 16.949219 33.734375 C 16.878906 33.671875 16.785156 33.753906 16.839844 33.835938 C 16.859375 33.867188 16.835938 33.902344 16.65625 34.066406 C 16.449219 34.257812 16.449219 34.257812 16.484375 34.3125 C 16.546875 34.40625 16.582031 34.402344 16.699219 34.292969 C 16.761719 34.234375 16.851562 34.148438 16.902344 34.105469 L 16.996094 34.019531 L 17.046875 34.070312 C 17.089844 34.113281 17.105469 34.113281 17.144531 34.085938 C 17.207031 34.050781 17.214844 34.015625 17.167969 33.957031 C 17.125 33.90625 17.125 33.90625 17.175781 33.859375 C 17.242188 33.796875 17.285156 33.800781 17.332031 33.867188 C 17.363281 33.921875 17.367188 33.921875 17.410156 33.886719 C 17.460938 33.835938 17.460938 33.785156 17.402344 33.714844 C 17.328125 33.636719 17.234375 33.617188 17.132812 33.660156 Z M 17.132812 33.660156 "/>
<path style=" stroke:none;fill-rule:nonzero;fill:rgb(0%,0%,0%);fill-opacity:1;" d="M 19.53125 33.996094 C 19.332031 34.179688 19.171875 34.335938 19.167969 34.351562 C 19.15625 34.378906 19.246094 34.480469 19.28125 34.480469 C 19.292969 34.480469 19.351562 34.429688 19.410156 34.367188 C 19.566406 34.214844 19.636719 34.167969 19.710938 34.171875 C 19.796875 34.179688 19.832031 34.214844 19.832031 34.285156 C 19.832031 34.332031 19.792969 34.382812 19.648438 34.523438 L 19.457031 34.699219 L 19.527344 34.765625 L 19.589844 34.828125 L 19.785156 34.652344 C 20.019531 34.445312 20.066406 34.359375 20.03125 34.242188 C 20.003906 34.152344 19.925781 34.085938 19.824219 34.0625 L 19.761719 34.046875 L 19.910156 33.914062 L 20.054688 33.78125 L 20.007812 33.722656 C 19.980469 33.6875 19.945312 33.664062 19.925781 33.664062 C 19.90625 33.664062 19.726562 33.816406 19.53125 33.996094 Z M 19.53125 33.996094 "/>
<path style=" stroke:none;fill-rule:nonzero;fill:rgb(0%,0%,0%);fill-opacity:1;" d="M 17.394531 34.074219 C 17.355469 34.113281 17.339844 34.113281 17.304688 34.089844 C 17.222656 34.039062 17.132812 34.121094 17.183594 34.199219 C 17.203125 34.226562 17.175781 34.265625 17.035156 34.40625 C 16.832031 34.613281 16.820312 34.664062 16.929688 34.789062 C 17.007812 34.875 17.089844 34.886719 17.128906 34.816406 C 17.148438 34.789062 17.144531 34.773438 17.105469 34.742188 C 17.035156 34.683594 17.054688 34.640625 17.21875 34.496094 L 17.359375 34.371094 L 17.402344 34.425781 C 17.453125 34.488281 17.496094 34.492188 17.542969 34.4375 C 17.578125 34.402344 17.578125 34.394531 17.527344 34.335938 L 17.472656 34.269531 L 17.523438 34.222656 C 17.59375 34.160156 17.59375 34.132812 17.53125 34.074219 C 17.464844 34.015625 17.449219 34.015625 17.394531 34.074219 Z M 17.394531 34.074219 "/>
<path style=" stroke:none;fill-rule:nonzero;fill:rgb(0%,0%,0%);fill-opacity:1;" d="M 20.035156 34.683594 C 19.824219 34.878906 19.78125 34.949219 19.8125 35.070312 C 19.839844 35.15625 19.925781 35.226562 20.03125 35.242188 C 20.113281 35.253906 20.117188 35.261719 20.082031 35.296875 C 20.046875 35.332031 20.050781 35.339844 20.101562 35.390625 L 20.160156 35.449219 L 20.261719 35.355469 C 20.585938 35.066406 20.679688 34.972656 20.679688 34.945312 C 20.679688 34.925781 20.652344 34.890625 20.621094 34.867188 L 20.566406 34.820312 L 20.390625 34.984375 C 20.199219 35.15625 20.117188 35.183594 20.042969 35.105469 C 19.976562 35.03125 20 34.984375 20.195312 34.800781 L 20.378906 34.621094 L 20.335938 34.566406 C 20.316406 34.535156 20.28125 34.507812 20.265625 34.503906 C 20.246094 34.503906 20.144531 34.582031 20.035156 34.683594 Z M 20.035156 34.683594 "/>
<path style=" stroke:none;fill-rule:nonzero;fill:rgb(0%,0%,0%);fill-opacity:1;" d="M 17.40625 34.75 C 17.269531 34.878906 17.15625 34.988281 17.148438 34.992188 C 17.140625 35.015625 17.234375 35.121094 17.261719 35.121094 C 17.277344 35.121094 17.359375 35.054688 17.453125 34.972656 C 17.640625 34.800781 17.714844 34.78125 17.804688 34.875 L 17.851562 34.929688 L 17.910156 34.886719 C 17.945312 34.859375 17.96875 34.828125 17.96875 34.8125 C 17.96875 34.765625 17.859375 34.691406 17.792969 34.691406 C 17.738281 34.691406 17.734375 34.6875 17.757812 34.652344 C 17.777344 34.617188 17.777344 34.601562 17.746094 34.566406 C 17.71875 34.539062 17.691406 34.523438 17.679688 34.523438 C 17.667969 34.523438 17.542969 34.625 17.40625 34.75 Z M 17.40625 34.75 "/>
<path style=" stroke:none;fill-rule:nonzero;fill:rgb(0%,0%,0%);fill-opacity:1;" d="M 15.507812 34.882812 C 15.207031 34.96875 14.996094 35.207031 14.964844 35.507812 C 14.933594 35.785156 15.105469 36.085938 15.363281 36.210938 C 15.46875 36.261719 15.515625 36.269531 15.671875 36.269531 C 15.824219 36.269531 15.875 36.261719 15.980469 36.214844 C 16.121094 36.148438 16.257812 36.019531 16.328125 35.878906 C 16.394531 35.742188 16.398438 35.414062 16.335938 35.292969 C 16.253906 35.144531 16.101562 34.988281 15.976562 34.933594 C 15.851562 34.875 15.625 34.851562 15.507812 34.882812 Z M 15.832031 35.1875 C 15.964844 35.238281 16.101562 35.421875 16.105469 35.550781 C 16.105469 35.804688 15.851562 36.035156 15.621094 35.992188 C 15.472656 35.964844 15.476562 35.949219 15.65625 35.785156 C 15.824219 35.632812 15.84375 35.589844 15.800781 35.507812 C 15.738281 35.390625 15.640625 35.414062 15.429688 35.59375 C 15.351562 35.664062 15.28125 35.714844 15.273438 35.707031 C 15.265625 35.699219 15.261719 35.648438 15.261719 35.585938 C 15.261719 35.273438 15.542969 35.078125 15.832031 35.1875 Z M 15.832031 35.1875 "/>
<path style=" stroke:none;fill-rule:nonzero;fill:rgb(0%,0%,0%);fill-opacity:1;" d="M 17.9375 34.992188 C 17.898438 35.035156 17.917969 35.0625 18.007812 35.089844 C 18.054688 35.101562 18.1875 35.238281 18.1875 35.269531 C 18.1875 35.28125 18.167969 35.3125 18.144531 35.339844 L 18.105469 35.390625 L 18.003906 35.296875 C 17.871094 35.1875 17.773438 35.152344 17.6875 35.1875 C 17.554688 35.242188 17.519531 35.386719 17.601562 35.519531 C 17.640625 35.585938 17.675781 35.605469 17.808594 35.648438 C 17.839844 35.660156 17.839844 35.664062 17.820312 35.679688 C 17.796875 35.695312 17.796875 35.703125 17.820312 35.742188 C 17.875 35.824219 17.90625 35.8125 18.09375 35.644531 C 18.289062 35.46875 18.359375 35.378906 18.359375 35.304688 C 18.359375 35.226562 18.238281 35.066406 18.136719 35.007812 C 18.023438 34.941406 17.988281 34.9375 17.9375 34.992188 Z M 17.9375 35.402344 C 17.996094 35.464844 17.996094 35.464844 17.957031 35.507812 C 17.910156 35.5625 17.847656 35.566406 17.777344 35.519531 C 17.726562 35.480469 17.714844 35.402344 17.757812 35.363281 C 17.800781 35.320312 17.871094 35.335938 17.9375 35.402344 Z M 17.9375 35.402344 "/>
<path style=" stroke:none;fill-rule:nonzero;fill:rgb(0%,0%,0%);fill-opacity:1;" d="M 20.929688 35.070312 C 20.871094 35.121094 20.867188 35.121094 20.828125 35.089844 C 20.789062 35.050781 20.785156 35.050781 20.738281 35.097656 C 20.695312 35.136719 20.695312 35.152344 20.71875 35.1875 C 20.746094 35.230469 20.734375 35.246094 20.574219 35.398438 C 20.433594 35.53125 20.398438 35.578125 20.398438 35.628906 C 20.398438 35.710938 20.46875 35.824219 20.539062 35.855469 C 20.585938 35.878906 20.601562 35.875 20.640625 35.835938 L 20.6875 35.789062 L 20.640625 35.738281 C 20.613281 35.710938 20.59375 35.679688 20.59375 35.664062 C 20.59375 35.65625 20.65625 35.585938 20.734375 35.507812 L 20.875 35.375 L 20.9375 35.433594 C 20.988281 35.480469 21.007812 35.488281 21.042969 35.46875 C 21.109375 35.433594 21.113281 35.398438 21.050781 35.332031 L 20.996094 35.273438 L 21.054688 35.210938 C 21.105469 35.160156 21.113281 35.140625 21.09375 35.101562 C 21.050781 35.023438 21 35.011719 20.929688 35.070312 Z M 20.929688 35.070312 "/>
<path style=" stroke:none;fill-rule:nonzero;fill:rgb(0%,0%,0%);fill-opacity:1;" d="M 13.707031 35.378906 C 13.441406 35.417969 13.109375 35.558594 12.898438 35.722656 C 12.757812 35.832031 9.121094 38.972656 8.96875 39.113281 C 8.765625 39.304688 8.726562 39.503906 8.863281 39.6875 C 8.9375 39.789062 10.609375 41.6875 10.671875 41.742188 C 10.777344 41.832031 10.980469 41.839844 11.125 41.75 C 11.28125 41.65625 15.199219 38.253906 15.300781 38.125 C 15.5625 37.785156 15.695312 37.367188 15.664062 36.957031 C 15.640625 36.628906 15.578125 36.527344 15.441406 36.5625 C 15.34375 36.589844 15.320312 36.640625 15.347656 36.777344 C 15.378906 36.945312 15.371094 37.257812 15.332031 37.40625 C 15.289062 37.582031 15.195312 37.769531 15.082031 37.925781 C 15.015625 38.007812 14.367188 38.585938 13 39.769531 C 11.90625 40.714844 10.988281 41.496094 10.96875 41.507812 C 10.878906 41.546875 10.820312 41.5 10.398438 41.023438 C 10.171875 40.757812 9.777344 40.3125 9.53125 40.03125 C 9.023438 39.453125 9.023438 39.460938 9.175781 39.316406 C 9.324219 39.175781 12.984375 36.019531 13.101562 35.933594 C 13.238281 35.828125 13.433594 35.738281 13.613281 35.691406 C 13.808594 35.640625 14.195312 35.65625 14.390625 35.722656 C 14.503906 35.765625 14.535156 35.765625 14.589844 35.746094 C 14.695312 35.699219 14.699219 35.5625 14.597656 35.496094 C 14.453125 35.402344 13.984375 35.339844 13.707031 35.378906 Z M 13.707031 35.378906 "/>
<path style=" stroke:none;fill-rule:nonzero;fill:rgb(0%,0%,0%);fill-opacity:1;" d="M 21.140625 35.519531 C 21.070312 35.566406 21.078125 35.59375 21.179688 35.691406 C 21.226562 35.738281 21.261719 35.777344 21.257812 35.78125 C 21.253906 35.785156 21.132812 35.808594 20.992188 35.832031 C 20.753906 35.875 20.65625 35.914062 20.65625 35.964844 C 20.65625 36 20.964844 36.324219 20.992188 36.324219 C 21.007812 36.324219 21.035156 36.304688 21.058594 36.28125 C 21.09375 36.242188 21.09375 36.238281 21.007812 36.140625 C 20.957031 36.085938 20.917969 36.03125 20.917969 36.027344 C 20.917969 36.019531 21.023438 35.996094 21.152344 35.976562 C 21.367188 35.941406 21.476562 35.898438 21.496094 35.835938 C 21.5 35.824219 21.433594 35.742188 21.347656 35.652344 C 21.191406 35.488281 21.1875 35.484375 21.140625 35.519531 Z M 21.140625 35.519531 "/>
<path style=" stroke:none;fill-rule:nonzero;fill:rgb(0%,0%,0%);fill-opacity:1;" d="M 18.484375 35.550781 C 18.398438 35.578125 18.359375 35.613281 18.324219 35.695312 C 18.300781 35.75 18.28125 35.765625 18.242188 35.765625 C 18.175781 35.765625 18.101562 35.835938 18.101562 35.894531 C 18.101562 35.929688 18.085938 35.9375 18.027344 35.9375 C 17.894531 35.9375 17.828125 36.058594 17.890625 36.183594 C 18.0625 36.546875 18.488281 36.59375 18.46875 36.25 C 18.46875 36.226562 18.425781 36.152344 18.371094 36.089844 C 18.316406 36.023438 18.273438 35.957031 18.273438 35.933594 C 18.273438 35.886719 18.320312 35.855469 18.335938 35.898438 C 18.351562 35.953125 18.480469 36.066406 18.539062 36.078125 C 18.621094 36.097656 18.699219 36.074219 18.765625 36.011719 C 18.804688 35.96875 18.824219 35.964844 18.847656 35.980469 C 18.871094 36 18.890625 36 18.917969 35.984375 C 18.992188 35.945312 18.988281 35.902344 18.910156 35.828125 C 18.867188 35.789062 18.816406 35.722656 18.789062 35.683594 C 18.722656 35.578125 18.589844 35.523438 18.484375 35.550781 Z M 18.652344 35.734375 C 18.71875 35.800781 18.71875 35.824219 18.660156 35.890625 C 18.601562 35.953125 18.5625 35.953125 18.496094 35.890625 C 18.429688 35.832031 18.433594 35.78125 18.503906 35.726562 C 18.578125 35.667969 18.589844 35.671875 18.652344 35.734375 Z M 18.234375 36.140625 C 18.359375 36.292969 18.25 36.394531 18.109375 36.257812 C 18.03125 36.183594 18.015625 36.136719 18.0625 36.09375 C 18.109375 36.046875 18.171875 36.066406 18.234375 36.140625 Z M 18.234375 36.140625 "/>
<path style=" stroke:none;fill-rule:nonzero;fill:rgb(0%,0%,0%);fill-opacity:1;" d="M 19.160156 35.96875 C 19.113281 36.019531 19.109375 36.023438 19.074219 35.988281 C 19.003906 35.929688 18.90625 36.011719 18.949219 36.097656 C 18.964844 36.128906 18.945312 36.164062 18.808594 36.300781 C 18.71875 36.390625 18.640625 36.480469 18.632812 36.503906 C 18.617188 36.558594 18.667969 36.675781 18.738281 36.730469 C 18.8125 36.785156 18.824219 36.785156 18.878906 36.734375 C 18.921875 36.691406 18.921875 36.691406 18.871094 36.636719 C 18.839844 36.609375 18.820312 36.570312 18.828125 36.554688 C 18.835938 36.539062 18.902344 36.464844 18.980469 36.398438 L 19.125 36.273438 L 19.175781 36.335938 C 19.234375 36.398438 19.273438 36.394531 19.320312 36.320312 C 19.339844 36.292969 19.332031 36.269531 19.292969 36.226562 L 19.238281 36.175781 L 19.300781 36.113281 L 19.359375 36.050781 L 19.304688 35.984375 C 19.269531 35.945312 19.238281 35.917969 19.230469 35.917969 C 19.21875 35.917969 19.191406 35.941406 19.160156 35.96875 Z M 19.160156 35.96875 "/>
<path style=" stroke:none;fill-rule:nonzero;fill:rgb(0%,0%,0%);fill-opacity:1;" d="M 21.34375 36.179688 C 21.3125 36.222656 21.316406 36.234375 21.417969 36.351562 C 21.480469 36.417969 21.542969 36.476562 21.558594 36.476562 C 21.589844 36.476562 21.65625 36.417969 21.65625 36.386719 C 21.65625 36.355469 21.4375 36.132812 21.402344 36.132812 C 21.386719 36.132812 21.359375 36.152344 21.34375 36.179688 Z M 21.34375 36.179688 "/>
<path style=" stroke:none;fill-rule:nonzero;fill:rgb(0%,0%,0%);fill-opacity:1;" d="M 16.375 36.304688 C 16.285156 36.335938 16.285156 36.320312 16.3125 37.011719 C 16.328125 37.367188 16.332031 37.386719 16.378906 37.4375 C 16.417969 37.476562 16.445312 37.484375 16.492188 37.472656 C 16.523438 37.46875 16.5625 37.449219 16.570312 37.4375 C 16.585938 37.425781 16.597656 37.289062 16.605469 37.136719 L 16.613281 36.855469 L 17.097656 37.40625 C 17.523438 37.890625 17.589844 37.957031 17.648438 37.957031 C 17.726562 37.957031 17.796875 37.890625 17.796875 37.816406 C 17.796875 37.777344 17.632812 37.578125 17.1875 37.070312 C 16.851562 36.691406 16.5625 36.363281 16.542969 36.34375 C 16.496094 36.296875 16.429688 36.28125 16.375 36.304688 Z M 16.375 36.304688 "/>
<path style=" stroke:none;fill-rule:nonzero;fill:rgb(0%,0%,0%);fill-opacity:1;" d="M 19.253906 36.542969 C 19.140625 36.597656 19.039062 36.714844 19.011719 36.820312 C 18.972656 36.960938 19.050781 37.117188 19.226562 37.234375 C 19.304688 37.289062 19.320312 37.296875 19.367188 37.269531 C 19.4375 37.234375 19.4375 37.191406 19.363281 37.152344 C 19.277344 37.109375 19.191406 37.011719 19.171875 36.945312 C 19.164062 36.910156 19.171875 36.875 19.203125 36.839844 L 19.246094 36.785156 L 19.40625 36.957031 L 19.566406 37.125 L 19.644531 37.058594 C 19.785156 36.933594 19.800781 36.777344 19.691406 36.632812 C 19.585938 36.492188 19.421875 36.460938 19.253906 36.542969 Z M 19.570312 36.703125 C 19.628906 36.773438 19.628906 36.800781 19.574219 36.863281 L 19.53125 36.914062 L 19.433594 36.808594 C 19.347656 36.710938 19.339844 36.699219 19.375 36.671875 C 19.433594 36.628906 19.523438 36.644531 19.570312 36.703125 Z M 19.570312 36.703125 "/>
<path style=" stroke:none;fill-rule:nonzero;fill:rgb(0%,0%,0%);fill-opacity:1;" d="M 12.734375 36.996094 C 12.621094 37.082031 10.632812 38.796875 10.585938 38.851562 C 10.484375 38.960938 10.492188 38.972656 11.121094 39.683594 C 11.441406 40.050781 11.726562 40.359375 11.746094 40.371094 C 11.851562 40.417969 11.972656 40.308594 11.929688 40.199219 C 11.917969 40.171875 11.679688 39.882812 11.394531 39.566406 L 10.878906 38.976562 L 10.949219 38.910156 C 11.160156 38.707031 12.820312 37.292969 12.832031 37.304688 C 13.917969 38.539062 13.894531 38.515625 13.964844 38.511719 C 14.058594 38.5 14.121094 38.414062 14.089844 38.339844 C 14.070312 38.285156 13.070312 37.128906 12.9375 37.003906 C 12.859375 36.933594 12.816406 36.933594 12.734375 36.996094 Z M 12.734375 36.996094 "/>
<path style=" stroke:none;fill-rule:nonzero;fill:rgb(0%,0%,0%);fill-opacity:1;" d="M 19.703125 37.21875 C 19.566406 37.347656 19.453125 37.457031 19.449219 37.460938 C 19.4375 37.484375 19.53125 37.589844 19.558594 37.589844 C 19.574219 37.589844 19.660156 37.523438 19.75 37.441406 C 19.941406 37.269531 20.011719 37.25 20.101562 37.34375 L 20.148438 37.402344 L 20.207031 37.355469 C 20.242188 37.328125 20.265625 37.296875 20.265625 37.28125 C 20.265625 37.234375 20.160156 37.164062 20.089844 37.164062 C 20.035156 37.164062 20.03125 37.15625 20.054688 37.121094 C 20.078125 37.085938 20.074219 37.070312 20.042969 37.035156 C 20.019531 37.011719 19.988281 36.992188 19.976562 36.992188 C 19.964844 36.992188 19.839844 37.09375 19.703125 37.21875 Z M 19.703125 37.21875 "/>
<path style=" stroke:none;fill-rule:nonzero;fill:rgb(0%,0%,0%);fill-opacity:1;" d="M 12.4375 38.382812 C 12.351562 38.46875 12.382812 38.53125 12.683594 38.867188 C 12.996094 39.230469 13.035156 39.265625 13.097656 39.265625 C 13.152344 39.265625 13.246094 39.171875 13.246094 39.117188 C 13.246094 39.078125 12.710938 38.445312 12.617188 38.371094 C 12.566406 38.332031 12.476562 38.335938 12.4375 38.382812 Z M 12.4375 38.382812 "/>
<path style=" stroke:none;fill-rule:nonzero;fill:rgb(0%,0%,0%);fill-opacity:1;" d="M 12.007812 38.75 C 11.917969 38.839844 11.945312 38.890625 12.28125 39.273438 C 12.554688 39.582031 12.605469 39.632812 12.660156 39.632812 C 12.730469 39.632812 12.8125 39.566406 12.8125 39.507812 C 12.8125 39.453125 12.773438 39.402344 12.460938 39.050781 C 12.136719 38.683594 12.101562 38.660156 12.007812 38.75 Z M 12.007812 38.75 "/>
<path style=" stroke:none;fill-rule:nonzero;fill:rgb(0%,0%,0%);fill-opacity:1;" d="M 16.890625 39.890625 C 16.371094 40.167969 16.210938 40.371094 16.09375 40.875 C 15.96875 41.421875 15.890625 41.605469 15.746094 41.660156 C 15.5625 41.738281 15.3125 41.648438 15.222656 41.476562 C 15.175781 41.394531 15.171875 41.359375 15.179688 41.214844 C 15.1875 41.074219 15.203125 41.023438 15.277344 40.871094 C 15.332031 40.761719 15.410156 40.644531 15.476562 40.578125 C 15.597656 40.457031 15.605469 40.425781 15.546875 40.375 C 15.421875 40.261719 15.101562 40.195312 14.875 40.230469 C 14.460938 40.300781 14.261719 40.53125 14.082031 41.15625 C 13.984375 41.484375 13.894531 41.671875 13.773438 41.789062 C 13.667969 41.894531 13.5625 41.925781 13.464844 41.886719 C 13.328125 41.832031 13.191406 41.625 13.132812 41.402344 C 13.074219 41.167969 13.023438 41.15625 12.832031 41.363281 C 12.585938 41.632812 12.398438 41.957031 12.308594 42.28125 C 12.265625 42.429688 12.261719 42.507812 12.261719 42.820312 C 12.261719 43.15625 12.265625 43.199219 12.320312 43.378906 C 12.371094 43.542969 12.539062 43.894531 12.59375 43.953125 C 12.601562 43.964844 12.589844 43.90625 12.570312 43.824219 C 12.46875 43.46875 12.5625 43.082031 12.816406 42.796875 C 12.917969 42.683594 12.976562 42.671875 12.996094 42.769531 C 13.019531 42.871094 13.085938 42.996094 13.132812 43.023438 C 13.28125 43.101562 13.394531 42.988281 13.496094 42.664062 C 13.539062 42.53125 13.601562 42.386719 13.632812 42.339844 C 13.746094 42.1875 13.976562 42.125 14.175781 42.195312 C 14.296875 42.238281 14.304688 42.273438 14.214844 42.378906 C 14.117188 42.492188 14.058594 42.652344 14.078125 42.753906 C 14.101562 42.882812 14.257812 42.972656 14.378906 42.925781 C 14.4375 42.902344 14.496094 42.78125 14.542969 42.574219 C 14.601562 42.332031 14.644531 42.242188 14.746094 42.148438 C 14.882812 42.019531 15.128906 41.90625 15.128906 41.96875 C 15.128906 41.980469 15.113281 42.054688 15.09375 42.136719 C 15.066406 42.25 15.058594 42.378906 15.0625 42.710938 C 15.0625 42.949219 15.054688 43.175781 15.042969 43.21875 C 15.015625 43.320312 14.882812 43.519531 14.746094 43.667969 C 14.679688 43.734375 14.632812 43.796875 14.632812 43.800781 C 14.632812 43.808594 14.6875 43.816406 14.757812 43.824219 C 15.015625 43.84375 15.105469 43.953125 14.921875 44.019531 C 14.75 44.085938 14.640625 44.160156 14.445312 44.332031 C 14.339844 44.425781 14.203125 44.527344 14.140625 44.554688 C 14.007812 44.621094 13.789062 44.675781 13.667969 44.675781 C 13.582031 44.675781 13.367188 44.636719 13.277344 44.601562 C 13.253906 44.59375 13.300781 44.632812 13.382812 44.683594 C 13.5625 44.804688 13.8125 44.902344 14.039062 44.941406 C 14.265625 44.984375 14.65625 44.96875 14.875 44.914062 C 15.246094 44.820312 15.609375 44.609375 15.824219 44.371094 C 16.023438 44.144531 16.378906 43.902344 16.730469 43.753906 C 16.96875 43.65625 16.972656 43.65625 16.972656 43.59375 C 16.972656 43.484375 16.707031 43.371094 16.402344 43.347656 L 16.210938 43.335938 L 16.441406 43.078125 C 16.808594 42.664062 16.976562 42.390625 17.039062 42.089844 C 17.058594 41.988281 17.058594 41.863281 17.039062 41.488281 C 17.003906 40.953125 17.027344 40.542969 17.105469 40.1875 C 17.175781 39.878906 17.175781 39.871094 17.144531 39.835938 C 17.105469 39.785156 17.0625 39.796875 16.890625 39.890625 Z M 16.890625 39.890625 "/>
</g>
</svg>
