<?xml version="1.0" encoding="UTF-8"?>
<svg xmlns="http://www.w3.org/2000/svg" xmlns:xlink="http://www.w3.org/1999/xlink" width="50px" height="50px" viewBox="0 0 50 50" version="1.1">
<g id="surface1">
<path style=" stroke:none;fill-rule:nonzero;fill:rgb(0%,0%,0%);fill-opacity:1;" d="M 2.164062 0.792969 C 2.152344 0.800781 2.140625 1.636719 2.140625 2.648438 L 2.140625 4.480469 L 3.714844 4.480469 L 3.714844 35.546875 L 34.5625 35.546875 L 34.5625 20.097656 L 33.886719 20.105469 L 33.207031 20.113281 L 33.199219 27.042969 L 33.191406 33.976562 L 5.085938 33.976562 L 5.085938 4.480469 L 33.191406 4.480469 L 33.191406 16.226562 L 33.570312 16.203125 L 33.945312 16.179688 L 34.25 15.875 L 34.5625 15.566406 L 34.5625 4.480469 L 36.335938 4.480469 L 36.320312 0.785156 L 19.25 0.777344 C 9.867188 0.773438 2.175781 0.777344 2.164062 0.792969 Z M 2.164062 0.792969 "/>
<path style=" stroke:none;fill-rule:nonzero;fill:rgb(0%,0%,0%);fill-opacity:1;" d="M 40.890625 7.992188 C 40.050781 8.21875 39.378906 8.84375 39.125 9.644531 C 38.835938 10.566406 39.070312 11.539062 39.746094 12.207031 C 40.285156 12.730469 40.894531 12.964844 41.640625 12.929688 C 43.03125 12.867188 44.105469 11.679688 44.019531 10.300781 C 43.996094 9.90625 43.929688 9.65625 43.761719 9.308594 C 43.460938 8.703125 42.945312 8.257812 42.257812 8.027344 C 41.9375 7.914062 41.234375 7.898438 40.890625 7.992188 Z M 40.890625 7.992188 "/>
<path style=" stroke:none;fill-rule:nonzero;fill:rgb(0%,0%,0%);fill-opacity:1;" d="M 17.816406 9.59375 C 17.65625 9.660156 17.621094 9.742188 17.445312 10.484375 C 17.253906 11.277344 17.175781 12.03125 17.230469 12.558594 C 17.304688 13.308594 17.527344 13.789062 18.34375 14.9375 C 19.039062 15.917969 19.277344 16.320312 19.402344 16.734375 C 19.578125 17.300781 19.398438 17.761719 18.867188 18.117188 C 17.972656 18.71875 17.011719 18.308594 16.394531 17.0625 C 16.160156 16.582031 16.03125 16.078125 15.996094 15.507812 C 15.976562 15.160156 15.964844 15.109375 15.894531 15.03125 C 15.773438 14.90625 15.644531 14.898438 15.359375 14.996094 C 14.890625 15.167969 14.527344 15.402344 14.152344 15.78125 C 13.808594 16.125 13.578125 16.460938 13.417969 16.871094 C 13.160156 17.507812 13.148438 18.085938 13.375 18.777344 C 13.539062 19.257812 13.71875 19.609375 14.226562 20.433594 C 14.722656 21.230469 14.863281 21.488281 15.007812 21.859375 C 15.316406 22.667969 15.273438 23.359375 14.886719 23.6875 C 14.417969 24.085938 13.4375 23.949219 12.429688 23.335938 C 12.210938 23.203125 11.949219 23.292969 11.890625 23.527344 C 11.839844 23.730469 11.980469 24.882812 12.128906 25.449219 C 12.703125 27.691406 14.167969 29.433594 16.226562 30.320312 C 16.773438 30.558594 17.578125 30.773438 18.152344 30.84375 L 18.320312 30.867188 L 18.097656 30.785156 C 17.5625 30.589844 17.160156 30.347656 16.757812 29.972656 C 16.40625 29.636719 16.195312 29.351562 15.976562 28.910156 C 15.699219 28.347656 15.5625 27.800781 15.558594 27.261719 C 15.558594 27.035156 15.566406 27.015625 15.636719 26.980469 C 15.707031 26.949219 15.765625 26.964844 16.046875 27.105469 C 16.34375 27.253906 16.394531 27.265625 16.660156 27.28125 C 16.917969 27.289062 16.957031 27.289062 17.058594 27.214844 C 17.289062 27.054688 17.347656 26.796875 17.246094 26.40625 C 17.1875 26.171875 17.09375 25.984375 16.769531 25.453125 C 16.449219 24.917969 16.335938 24.679688 16.273438 24.378906 C 16.175781 23.902344 16.324219 23.457031 16.714844 23.042969 C 16.894531 22.851562 17 22.777344 17.222656 22.664062 C 17.492188 22.535156 17.515625 22.53125 17.59375 22.574219 C 17.671875 22.617188 17.6875 22.652344 17.707031 22.867188 C 17.777344 23.546875 18.082031 24.113281 18.480469 24.3125 C 18.808594 24.464844 19.21875 24.339844 19.4375 24.027344 C 19.535156 23.875 19.546875 23.84375 19.53125 23.664062 C 19.507812 23.421875 19.386719 23.183594 18.992188 22.621094 C 18.414062 21.800781 18.300781 21.476562 18.363281 20.847656 C 18.402344 20.488281 18.550781 19.847656 18.609375 19.773438 C 18.628906 19.75 18.6875 19.730469 18.738281 19.730469 C 18.820312 19.730469 18.855469 19.765625 18.992188 19.96875 C 19.234375 20.351562 19.601562 20.785156 20.015625 21.1875 C 20.34375 21.503906 20.554688 21.683594 21.371094 22.328125 C 21.445312 22.386719 21.578125 22.527344 21.660156 22.640625 C 22.039062 23.144531 22.191406 23.699219 22.332031 25.085938 L 22.351562 25.3125 L 22.542969 25.117188 C 22.945312 24.710938 23.503906 24.441406 23.648438 24.585938 C 23.710938 24.648438 23.699219 24.746094 23.558594 25.167969 C 23.324219 25.867188 23.308594 25.996094 23.300781 26.988281 C 23.296875 27.894531 23.285156 27.972656 23.136719 28.472656 C 23.046875 28.777344 22.757812 29.304688 22.539062 29.582031 C 22.175781 30.03125 21.792969 30.347656 21.3125 30.585938 C 21.046875 30.71875 21.101562 30.726562 21.535156 30.613281 C 22.277344 30.421875 22.925781 30.136719 23.519531 29.746094 C 25.066406 28.726562 26.15625 27.09375 26.519531 25.246094 C 26.613281 24.753906 26.648438 24.082031 26.605469 23.585938 C 26.476562 22.113281 26.667969 20.851562 27.257812 19.347656 C 27.390625 19.007812 27.390625 18.875 27.246094 18.761719 C 27.132812 18.667969 26.953125 18.671875 26.691406 18.773438 C 26.070312 19.003906 25.699219 19.25 25.1875 19.769531 C 24.96875 19.988281 24.792969 20.15625 24.792969 20.136719 C 24.792969 20.0625 24.648438 18.679688 24.609375 18.34375 C 24.339844 16.210938 23.761719 15.070312 22.46875 14.128906 C 21.777344 13.628906 20.863281 12.835938 20.125 12.09375 C 19.386719 11.351562 18.929688 10.808594 18.46875 10.109375 C 18.109375 9.570312 18.03125 9.507812 17.816406 9.59375 Z M 17.816406 9.59375 "/>
<path style=" stroke:none;fill-rule:nonzero;fill:rgb(0%,0%,0%);fill-opacity:1;" d="M 25.78125 13.3125 C 25.675781 13.394531 25.664062 13.546875 25.757812 13.695312 C 25.792969 13.746094 26.441406 14.660156 27.203125 15.71875 L 28.59375 17.644531 L 28.53125 17.824219 C 28.351562 18.335938 28.617188 18.984375 29.097656 19.226562 L 29.257812 19.3125 L 31.992188 19.320312 C 34.714844 19.328125 34.726562 19.328125 34.921875 19.257812 C 35.101562 19.191406 35.203125 19.101562 36.371094 17.9375 C 37.558594 16.757812 37.632812 16.6875 37.746094 16.6875 C 37.835938 16.6875 37.898438 16.714844 37.972656 16.785156 L 38.074219 16.878906 L 38.074219 26.691406 C 38.074219 37.410156 38.0625 36.660156 38.261719 37.0625 C 38.378906 37.289062 38.722656 37.625 38.949219 37.730469 C 39.738281 38.101562 40.65625 37.777344 41.046875 36.988281 L 41.171875 36.738281 L 41.203125 25.316406 L 41.273438 25.222656 C 41.40625 25.050781 41.6875 25.089844 41.757812 25.289062 C 41.78125 25.359375 41.789062 27.167969 41.789062 30.960938 C 41.789062 37.0625 41.78125 36.722656 41.984375 37.09375 C 42.113281 37.339844 42.425781 37.632812 42.671875 37.753906 C 43.476562 38.136719 44.46875 37.742188 44.8125 36.910156 L 44.882812 36.734375 L 44.902344 26.964844 L 44.917969 17.191406 L 44.988281 17.097656 C 45.085938 16.96875 45.257812 16.953125 45.390625 17.066406 L 45.488281 17.148438 L 45.503906 20.875 L 45.519531 24.59375 L 45.597656 24.75 C 45.882812 25.308594 46.523438 25.546875 47.082031 25.308594 C 47.292969 25.21875 47.574219 24.917969 47.714844 24.628906 L 47.828125 24.394531 L 47.828125 20.332031 C 47.828125 16.496094 47.824219 16.253906 47.769531 16.003906 C 47.492188 14.847656 46.652344 13.953125 45.484375 13.585938 L 45.183594 13.492188 L 38.460938 13.492188 L 38.183594 13.566406 C 37.8125 13.667969 37.421875 13.835938 37.128906 14.035156 C 36.96875 14.140625 36.421875 14.648438 35.46875 15.582031 L 34.050781 16.972656 L 29.324219 17.003906 L 29.148438 17.097656 C 29.046875 17.152344 28.964844 17.1875 28.960938 17.183594 C 27.6875 15.421875 26.140625 13.328125 26.085938 13.292969 C 25.988281 13.222656 25.890625 13.230469 25.78125 13.3125 Z M 25.78125 13.3125 "/>
<path style=" stroke:none;fill-rule:nonzero;fill:rgb(0%,0%,0%);fill-opacity:1;" d="M 10.816406 39.808594 C 9.738281 40.015625 8.859375 40.742188 8.484375 41.738281 C 8.246094 42.367188 8.230469 43.175781 8.4375 43.785156 C 8.757812 44.738281 9.523438 45.46875 10.488281 45.765625 C 10.765625 45.851562 10.832031 45.859375 11.34375 45.859375 C 11.851562 45.859375 11.917969 45.851562 12.195312 45.765625 C 13.410156 45.394531 14.25 44.390625 14.386719 43.152344 C 14.488281 42.203125 14.15625 41.292969 13.460938 40.625 C 13.066406 40.246094 12.625 39.996094 12.082031 39.855469 C 11.75 39.769531 11.140625 39.746094 10.816406 39.808594 Z M 10.816406 39.808594 "/>
<path style=" stroke:none;fill-rule:nonzero;fill:rgb(0%,0%,0%);fill-opacity:1;" d="M 25.121094 39.824219 C 24.582031 39.941406 24.210938 40.117188 23.789062 40.453125 C 23.042969 41.046875 22.609375 42.015625 22.660156 42.972656 C 22.734375 44.320312 23.636719 45.433594 24.957031 45.800781 C 25.261719 45.882812 25.964844 45.898438 26.296875 45.832031 C 26.875 45.714844 27.378906 45.457031 27.777344 45.085938 C 28.488281 44.414062 28.808594 43.640625 28.765625 42.6875 C 28.703125 41.332031 27.800781 40.214844 26.480469 39.859375 C 26.09375 39.757812 25.5 39.742188 25.121094 39.824219 Z M 25.121094 39.824219 "/>
<path style=" stroke:none;fill-rule:nonzero;fill:rgb(0%,0%,0%);fill-opacity:1;" d="M 39.707031 39.824219 C 39.171875 39.941406 38.808594 40.113281 38.375 40.449219 C 37.90625 40.816406 37.496094 41.457031 37.332031 42.066406 C 37.230469 42.464844 37.230469 43.199219 37.335938 43.589844 C 37.488281 44.15625 37.796875 44.667969 38.21875 45.0625 C 38.664062 45.480469 39.238281 45.757812 39.816406 45.851562 C 40.164062 45.902344 40.800781 45.871094 41.113281 45.78125 C 42.1875 45.476562 43.003906 44.632812 43.28125 43.539062 C 43.332031 43.34375 43.34375 43.179688 43.34375 42.785156 C 43.339844 42.34375 43.328125 42.25 43.25 41.984375 C 42.992188 41.144531 42.433594 40.472656 41.671875 40.09375 C 41.234375 39.882812 40.871094 39.789062 40.382812 39.773438 C 40.09375 39.765625 39.929688 39.777344 39.707031 39.824219 Z M 39.707031 39.824219 "/>
<path style=" stroke:none;fill-rule:nonzero;fill:rgb(0%,0%,0%);fill-opacity:1;" d="M 7.304688 46.332031 C 6.648438 46.449219 6.148438 46.714844 5.671875 47.199219 C 5.375 47.5 5.132812 47.84375 4.957031 48.222656 C 4.835938 48.484375 4.683594 48.902344 4.683594 48.980469 C 4.683594 49.015625 5.835938 49.023438 11.324219 49.023438 L 17.96875 49.023438 L 17.945312 48.929688 C 17.898438 48.730469 17.71875 48.257812 17.605469 48.035156 C 17.125 47.078125 16.382812 46.503906 15.394531 46.332031 C 15.007812 46.261719 7.683594 46.261719 7.304688 46.332031 Z M 7.304688 46.332031 "/>
<path style=" stroke:none;fill-rule:nonzero;fill:rgb(0%,0%,0%);fill-opacity:1;" d="M 21.691406 46.332031 C 20.671875 46.519531 19.886719 47.15625 19.40625 48.199219 C 19.28125 48.46875 19.136719 48.886719 19.136719 48.976562 C 19.136719 49.015625 20.136719 49.023438 25.867188 49.023438 L 32.589844 49.023438 L 32.570312 48.945312 C 32.558594 48.90625 32.496094 48.75 32.4375 48.597656 C 31.984375 47.472656 31.140625 46.679688 30.082031 46.386719 L 29.761719 46.296875 L 25.847656 46.292969 C 22.738281 46.289062 21.882812 46.292969 21.691406 46.332031 Z M 21.691406 46.332031 "/>
<path style=" stroke:none;fill-rule:nonzero;fill:rgb(0%,0%,0%);fill-opacity:1;" d="M 36.277344 46.332031 C 35.179688 46.53125 34.339844 47.292969 33.925781 48.476562 C 33.859375 48.675781 33.792969 48.878906 33.78125 48.933594 L 33.757812 49.023438 L 40.484375 49.023438 C 46.386719 49.023438 47.210938 49.015625 47.210938 48.972656 C 47.210938 48.808594 46.863281 48.117188 46.585938 47.726562 C 46.171875 47.152344 45.488281 46.640625 44.851562 46.433594 C 44.367188 46.285156 44.308594 46.28125 40.304688 46.285156 C 37.355469 46.289062 36.464844 46.296875 36.277344 46.332031 Z M 36.277344 46.332031 "/>
</g>
</svg>
