<?xml version="1.0" encoding="UTF-8"?>
<svg xmlns="http://www.w3.org/2000/svg" xmlns:xlink="http://www.w3.org/1999/xlink" width="35px" height="50px" viewBox="0 0 35 50" version="1.1">
<g id="surface1">
<path style=" stroke:none;fill-rule:nonzero;fill:rgb(0%,0%,0%);fill-opacity:1;" d="M 17.660156 0.0351562 C 17.28125 0.0703125 16.898438 0.238281 16.601562 0.488281 C 16.300781 0.75 16.054688 1.179688 15.988281 1.554688 L 15.953125 1.761719 L 13.746094 1.769531 C 11.617188 1.785156 11.527344 1.789062 11.289062 1.851562 C 10.636719 2.03125 10.136719 2.429688 9.828125 3.011719 C 9.699219 3.25 9.578125 3.664062 9.578125 3.863281 L 9.578125 3.984375 L 5.160156 3.992188 L 0.742188 4.003906 L 0.742188 49.96875 L 34.976562 49.96875 L 34.976562 4.003906 L 30.558594 3.992188 L 26.136719 3.984375 L 26.136719 3.863281 C 26.136719 3.664062 26.019531 3.25 25.890625 3.011719 C 25.582031 2.429688 25.082031 2.03125 24.429688 1.851562 C 24.1875 1.789062 24.101562 1.785156 21.96875 1.769531 L 19.765625 1.761719 L 19.730469 1.554688 C 19.683594 1.28125 19.539062 0.972656 19.359375 0.75 C 18.925781 0.222656 18.328125 -0.03125 17.660156 0.0351562 Z M 18.214844 0.96875 C 18.417969 1.035156 18.6875 1.28125 18.785156 1.488281 C 18.84375 1.609375 18.863281 1.707031 18.863281 1.894531 C 18.863281 2.207031 18.773438 2.410156 18.535156 2.621094 C 18.335938 2.800781 18.136719 2.875 17.859375 2.875 C 17.582031 2.875 17.382812 2.800781 17.179688 2.621094 C 16.945312 2.410156 16.855469 2.207031 16.855469 1.894531 C 16.855469 1.707031 16.875 1.609375 16.933594 1.488281 C 17.027344 1.289062 17.296875 1.035156 17.488281 0.96875 C 17.675781 0.90625 18.023438 0.902344 18.214844 0.96875 Z M 9.574219 5.59375 L 9.578125 6.304688 L 26.136719 6.304688 L 26.144531 5.59375 L 26.15625 4.882812 L 34.089844 4.882812 L 34.089844 49.089844 L 1.628906 49.089844 L 1.621094 27.019531 C 1.617188 14.882812 1.621094 4.929688 1.628906 4.90625 C 1.640625 4.875 2.453125 4.867188 5.601562 4.875 L 9.5625 4.882812 Z M 9.574219 5.59375 "/>
<path style=" stroke:none;fill-rule:nonzero;fill:rgb(0%,0%,0%);fill-opacity:1;" d="M 7.5625 11.597656 C 7.429688 11.636719 7.402344 11.667969 7.148438 12.019531 C 6.511719 12.898438 5.925781 14.007812 5.515625 15.121094 L 5.390625 15.453125 L 5.25 15.210938 C 5.097656 14.9375 4.75 14.488281 4.550781 14.296875 C 4.421875 14.175781 4.40625 14.167969 4.25 14.1875 C 4.054688 14.210938 3.953125 14.265625 3.929688 14.367188 C 3.90625 14.457031 3.921875 14.476562 4.292969 14.886719 C 4.453125 15.066406 4.714844 15.390625 4.871094 15.617188 C 5.035156 15.84375 5.183594 16.050781 5.214844 16.082031 C 5.273438 16.144531 5.421875 16.15625 5.597656 16.105469 C 5.710938 16.074219 5.722656 16.0625 5.828125 15.753906 C 6.058594 15.082031 6.464844 14.183594 6.84375 13.507812 C 7.054688 13.132812 7.546875 12.375 7.882812 11.910156 C 7.945312 11.828125 8 11.734375 8 11.710938 C 8 11.585938 7.789062 11.53125 7.5625 11.597656 Z M 7.5625 11.597656 "/>
<path style=" stroke:none;fill-rule:nonzero;fill:rgb(0%,0%,0%);fill-opacity:1;" d="M 9.972656 14.113281 L 9.972656 14.539062 L 28.835938 14.539062 L 28.835938 13.6875 L 9.972656 13.6875 Z M 9.972656 14.113281 "/>
<path style=" stroke:none;fill-rule:nonzero;fill:rgb(0%,0%,0%);fill-opacity:1;" d="M 7.5625 20.582031 C 7.429688 20.621094 7.402344 20.652344 7.148438 21.003906 C 6.511719 21.882812 5.925781 22.992188 5.515625 24.105469 L 5.390625 24.4375 L 5.25 24.195312 C 5.097656 23.921875 4.75 23.472656 4.550781 23.28125 C 4.421875 23.160156 4.40625 23.152344 4.25 23.171875 C 4.054688 23.195312 3.953125 23.253906 3.929688 23.351562 C 3.90625 23.441406 3.921875 23.460938 4.292969 23.871094 C 4.453125 24.050781 4.714844 24.375 4.871094 24.601562 C 5.035156 24.828125 5.183594 25.035156 5.214844 25.066406 C 5.273438 25.128906 5.421875 25.140625 5.597656 25.089844 C 5.710938 25.058594 5.722656 25.046875 5.828125 24.738281 C 6.058594 24.066406 6.464844 23.167969 6.84375 22.492188 C 7.054688 22.117188 7.546875 21.359375 7.882812 20.898438 C 7.945312 20.8125 8 20.71875 8 20.695312 C 8 20.570312 7.789062 20.515625 7.5625 20.582031 Z M 7.5625 20.582031 "/>
<path style=" stroke:none;fill-rule:nonzero;fill:rgb(0%,0%,0%);fill-opacity:1;" d="M 9.972656 22.871094 L 9.972656 23.292969 L 28.835938 23.292969 L 28.835938 22.445312 L 9.972656 22.445312 Z M 9.972656 22.871094 "/>
<path style=" stroke:none;fill-rule:nonzero;fill:rgb(0%,0%,0%);fill-opacity:1;" d="M 7.5625 29.566406 C 7.429688 29.605469 7.402344 29.636719 7.148438 29.988281 C 6.511719 30.867188 5.925781 31.976562 5.515625 33.089844 L 5.390625 33.421875 L 5.25 33.179688 C 5.097656 32.90625 4.75 32.457031 4.550781 32.265625 C 4.421875 32.144531 4.40625 32.136719 4.25 32.160156 C 4.054688 32.179688 3.953125 32.238281 3.929688 32.339844 C 3.90625 32.425781 3.921875 32.445312 4.292969 32.855469 C 4.453125 33.035156 4.714844 33.359375 4.871094 33.585938 C 5.035156 33.8125 5.183594 34.019531 5.214844 34.050781 C 5.273438 34.117188 5.421875 34.125 5.597656 34.074219 C 5.710938 34.046875 5.722656 34.027344 5.808594 33.777344 C 5.929688 33.421875 6.238281 32.679688 6.441406 32.246094 C 6.765625 31.566406 7.296875 30.691406 7.882812 29.882812 C 7.945312 29.796875 8 29.703125 8 29.683594 C 8 29.554688 7.789062 29.5 7.5625 29.566406 Z M 7.5625 29.566406 "/>
<path style=" stroke:none;fill-rule:nonzero;fill:rgb(0%,0%,0%);fill-opacity:1;" d="M 9.972656 31.558594 L 9.972656 31.984375 L 28.835938 31.984375 L 28.835938 31.136719 L 9.972656 31.136719 Z M 9.972656 31.558594 "/>
<path style=" stroke:none;fill-rule:nonzero;fill:rgb(0%,0%,0%);fill-opacity:1;" d="M 7.5625 38.550781 C 7.429688 38.589844 7.402344 38.621094 7.148438 38.972656 C 6.511719 39.851562 5.925781 40.960938 5.515625 42.074219 L 5.390625 42.40625 L 5.25 42.164062 C 5.097656 41.890625 4.75 41.445312 4.550781 41.25 C 4.421875 41.128906 4.40625 41.125 4.25 41.144531 C 4.054688 41.164062 3.953125 41.222656 3.929688 41.324219 C 3.90625 41.410156 3.921875 41.429688 4.292969 41.839844 C 4.453125 42.019531 4.714844 42.34375 4.871094 42.570312 C 5.035156 42.796875 5.183594 43.003906 5.214844 43.035156 C 5.273438 43.101562 5.421875 43.109375 5.597656 43.0625 C 5.710938 43.03125 5.722656 43.011719 5.808594 42.761719 C 5.929688 42.40625 6.238281 41.664062 6.441406 41.230469 C 6.765625 40.550781 7.296875 39.675781 7.882812 38.867188 C 7.945312 38.78125 8 38.6875 8 38.667969 C 8 38.539062 7.789062 38.484375 7.5625 38.550781 Z M 7.5625 38.550781 "/>
<path style=" stroke:none;fill-rule:nonzero;fill:rgb(0%,0%,0%);fill-opacity:1;" d="M 9.972656 40.445312 L 9.972656 40.871094 L 28.835938 40.871094 L 28.835938 40.023438 L 9.972656 40.023438 Z M 9.972656 40.445312 "/>
</g>
</svg>
