<?xml version="1.0" encoding="UTF-8"?>
<svg xmlns="http://www.w3.org/2000/svg" xmlns:xlink="http://www.w3.org/1999/xlink" width="88px" height="50px" viewBox="0 0 87 50" version="1.1">
<g id="surface1">
<path style=" stroke:none;fill-rule:nonzero;fill:rgb(0%,0%,0%);fill-opacity:1;" d="M 43.894531 0.808594 C 43.777344 0.832031 43.515625 0.886719 43.308594 0.925781 C 42.417969 1.097656 41.316406 1.558594 40.5 2.09375 C 39.910156 2.484375 39.796875 2.605469 39.265625 3.417969 C 38.71875 4.242188 38.410156 4.5625 37.949219 4.785156 C 37.792969 4.855469 37.628906 4.929688 37.585938 4.941406 C 37.421875 5 37.046875 5.96875 36.914062 6.703125 C 36.8125 7.273438 36.773438 8.558594 36.839844 9.316406 C 36.867188 9.652344 36.925781 10.277344 36.960938 10.707031 C 37.050781 11.738281 37.050781 13.234375 36.960938 13.660156 C 36.925781 13.855469 36.78125 14.214844 36.613281 14.550781 C 36.460938 14.863281 36.300781 15.230469 36.257812 15.363281 C 36.09375 15.925781 36.226562 16.613281 36.582031 17.054688 C 36.796875 17.320312 37.003906 17.5 37.757812 18.097656 C 38.4375 18.636719 38.683594 18.925781 38.957031 19.5 C 39.246094 20.105469 39.410156 20.648438 39.734375 22.082031 C 40.167969 24.007812 40.472656 24.777344 41.019531 25.359375 C 41.183594 25.535156 41.183594 25.539062 41.125 25.738281 C 41.03125 26.058594 40.699219 26.675781 40.570312 26.757812 C 40.515625 26.796875 40.464844 26.847656 40.464844 26.867188 C 40.464844 26.890625 40.628906 26.972656 40.832031 27.054688 C 41.488281 27.332031 42.78125 27.988281 43.414062 28.378906 C 44.058594 28.773438 44.988281 29.402344 45.070312 29.496094 C 45.097656 29.53125 45.054688 29.625 44.933594 29.785156 C 44.15625 30.820312 43.484375 31.980469 43.367188 32.496094 C 43.335938 32.628906 43.292969 32.742188 43.269531 32.742188 C 43.226562 32.742188 39.480469 30.25 39.386719 30.160156 C 39.332031 30.101562 39.339844 29.988281 39.476562 29.34375 C 39.632812 28.578125 39.871094 27.691406 40.046875 27.21875 C 40.101562 27.074219 40.128906 26.941406 40.117188 26.929688 C 40.066406 26.875 39.40625 27.152344 39.011719 27.386719 C 38.511719 27.6875 38.128906 28.007812 37.257812 28.84375 C 35.722656 30.320312 34.730469 30.945312 33.289062 31.363281 C 32.785156 31.507812 31.53125 31.769531 30.78125 31.890625 C 29.105469 32.148438 27.625 32.503906 26.902344 32.808594 C 25.460938 33.40625 24.832031 34.210938 24.441406 35.921875 C 24.195312 37.019531 24.117188 37.902344 23.96875 41.414062 C 23.917969 42.628906 23.839844 43.90625 23.804688 44.257812 C 23.730469 44.964844 23.53125 46.023438 23.433594 46.269531 L 23.363281 46.433594 L 23.730469 46.644531 C 25.183594 47.507812 27.011719 48.101562 29.324219 48.457031 C 31.261719 48.75 33.164062 48.863281 38.183594 48.972656 C 39.992188 49.015625 41.59375 49.050781 41.734375 49.066406 C 43.660156 49.207031 50.621094 49.261719 52.824219 49.148438 C 55.453125 49.015625 56.125 48.960938 57.921875 48.777344 C 61.917969 48.371094 65.417969 47.65625 67.894531 46.738281 C 68.148438 46.644531 68.425781 46.546875 68.515625 46.515625 C 68.601562 46.488281 68.679688 46.441406 68.695312 46.410156 C 68.703125 46.378906 68.648438 46.066406 68.574219 45.722656 C 68.34375 44.691406 68.117188 43.5 67.8125 41.652344 C 66.945312 36.433594 66.929688 36.339844 66.5625 34.613281 C 66.46875 34.167969 66.367188 33.78125 66.335938 33.746094 C 66.246094 33.648438 65.34375 33.273438 64.769531 33.101562 C 64.074219 32.894531 62.988281 32.679688 61.964844 32.554688 C 58.976562 32.183594 58.039062 31.964844 56.875 31.375 C 56.199219 31.027344 55.71875 30.632812 54.421875 29.355469 C 53.734375 28.675781 53.039062 28.019531 52.875 27.894531 C 52.347656 27.496094 51.5 27.152344 51.050781 27.152344 L 50.90625 27.152344 L 51.09375 27.609375 C 51.527344 28.699219 52.042969 30.757812 51.917969 30.875 C 51.851562 30.941406 48.3125 32.882812 48.265625 32.882812 C 48.226562 32.882812 47.160156 31.453125 46.902344 31.058594 C 46.484375 30.421875 45.960938 29.449219 45.960938 29.308594 C 45.960938 29.277344 46.09375 29.1875 46.253906 29.113281 C 46.414062 29.039062 46.78125 28.851562 47.066406 28.699219 C 48.210938 28.085938 49.351562 27.53125 49.84375 27.339844 L 50.367188 27.140625 L 50.394531 26.164062 C 50.449219 23.914062 51.039062 21.992188 52.769531 18.335938 C 53.777344 16.199219 54.308594 14.90625 54.265625 14.6875 C 54.226562 14.5 53.953125 14.082031 53.492188 13.503906 C 53.269531 13.230469 53.070312 12.984375 53.050781 12.949219 C 53.023438 12.917969 53.058594 12.703125 53.152344 12.382812 C 53.425781 11.425781 53.542969 10.566406 53.546875 9.523438 C 53.546875 8.324219 53.433594 7.597656 53.082031 6.542969 C 52.476562 4.730469 51.273438 3.183594 49.613281 2.09375 C 48.820312 1.574219 47.695312 1.113281 46.667969 0.894531 C 46.257812 0.808594 45.992188 0.785156 45.140625 0.777344 C 44.570312 0.769531 44.011719 0.78125 43.894531 0.808594 Z M 41.296875 31.730469 C 43.125 32.945312 43.261719 33.03125 43.320312 32.949219 C 44.117188 31.832031 44.382812 31.636719 44.828125 31.894531 C 45.128906 32.066406 45.136719 32.089844 44.972656 32.875 C 44.578125 34.800781 44.238281 37.027344 44.011719 39.234375 C 43.945312 39.875 43.886719 40.457031 43.871094 40.539062 C 43.847656 40.707031 43.5625 44.265625 43.496094 45.226562 C 43.445312 45.921875 43.375 47.050781 43.34375 47.605469 C 43.332031 47.929688 43.296875 48.191406 43.273438 48.191406 C 43.222656 48.191406 42.867188 47.6875 42.472656 47.0625 C 42.132812 46.515625 41.378906 45.023438 41.09375 44.328125 C 40.816406 43.636719 40.378906 42.34375 40.160156 41.554688 C 39.421875 38.886719 39.078125 36.371094 39.082031 33.667969 C 39.082031 32.226562 39.214844 30.421875 39.316406 30.421875 C 39.328125 30.421875 40.21875 31.007812 41.296875 31.730469 Z M 52.023438 31.199219 C 52.023438 31.230469 52.0625 31.578125 52.105469 31.964844 C 52.222656 32.96875 52.21875 35.625 52.105469 36.746094 C 51.792969 39.765625 51.234375 42.0625 50.210938 44.480469 C 49.648438 45.824219 48.6875 47.347656 47.984375 48.023438 L 47.785156 48.214844 L 47.8125 48.046875 C 47.957031 47.234375 47.988281 45.632812 47.894531 44.328125 C 47.832031 43.554688 47.601562 41.746094 47.394531 40.417969 C 46.746094 36.304688 46.640625 35.445312 46.585938 33.878906 C 46.558594 33.003906 46.628906 31.769531 46.714844 31.679688 C 46.78125 31.613281 47.117188 31.867188 47.300781 32.117188 C 47.390625 32.242188 47.519531 32.46875 47.585938 32.625 C 47.695312 32.894531 47.726562 32.921875 47.984375 33.042969 L 48.261719 33.167969 L 50.109375 32.148438 C 51.121094 31.589844 51.96875 31.132812 51.992188 31.132812 C 52.011719 31.132812 52.023438 31.160156 52.023438 31.199219 Z M 52.023438 31.199219 "/>
<path style=" stroke:none;fill-rule:nonzero;fill:rgb(0%,0%,0%);fill-opacity:1;" d="M 75.242188 6.332031 C 74.421875 6.507812 73.617188 7.136719 73.234375 7.890625 C 72.96875 8.425781 72.914062 8.65625 72.914062 9.289062 C 72.917969 9.761719 72.933594 9.878906 73.046875 10.1875 C 73.117188 10.382812 73.183594 10.566406 73.1875 10.589844 C 73.191406 10.617188 72.65625 11.171875 72 11.824219 C 71.339844 12.472656 70.378906 13.417969 69.859375 13.925781 C 69.34375 14.4375 68.503906 15.265625 67.996094 15.765625 C 67.488281 16.265625 67.050781 16.679688 67.023438 16.679688 C 67 16.679688 66.84375 16.644531 66.679688 16.597656 C 66.320312 16.507812 65.636719 16.5 65.277344 16.585938 C 65.136719 16.617188 64.875 16.710938 64.691406 16.796875 C 63.648438 17.28125 63.011719 18.214844 62.941406 19.375 C 62.921875 19.699219 62.933594 19.847656 62.964844 19.871094 C 63 19.890625 63.449219 19.664062 63.972656 19.367188 L 64.925781 18.824219 L 66.175781 19.261719 L 66.160156 19.878906 L 66.148438 20.492188 L 65.089844 21.09375 C 64.507812 21.425781 64.015625 21.707031 63.984375 21.714844 C 63.910156 21.753906 64.199219 21.96875 64.597656 22.175781 C 65.457031 22.617188 66.382812 22.617188 67.292969 22.175781 C 68.042969 21.8125 68.660156 21.042969 68.875 20.210938 C 69.007812 19.664062 68.945312 18.867188 68.714844 18.328125 L 68.625 18.109375 L 70.039062 16.726562 C 70.820312 15.964844 72.207031 14.605469 73.117188 13.703125 L 74.777344 12.070312 L 75.136719 12.152344 C 75.59375 12.269531 76.238281 12.269531 76.648438 12.160156 C 77.976562 11.796875 78.902344 10.589844 78.90625 9.207031 C 78.90625 8.785156 78.925781 8.785156 78.164062 9.222656 C 77.785156 9.4375 77.34375 9.691406 77.183594 9.777344 L 76.886719 9.925781 L 76.429688 9.769531 C 76.175781 9.683594 75.898438 9.582031 75.820312 9.546875 L 75.664062 9.480469 L 75.664062 8.296875 L 75.796875 8.207031 C 75.867188 8.160156 76.355469 7.875 76.886719 7.582031 C 77.417969 7.289062 77.859375 7.035156 77.875 7.027344 C 77.914062 6.988281 77.601562 6.769531 77.238281 6.585938 C 76.617188 6.269531 75.921875 6.179688 75.242188 6.332031 Z M 76.566406 6.582031 C 76.914062 6.671875 77.371094 6.871094 77.421875 6.960938 C 77.4375 6.984375 77.074219 7.210938 76.613281 7.46875 C 76.15625 7.722656 75.703125 7.980469 75.609375 8.042969 L 75.429688 8.148438 L 75.429688 8.875 C 75.429688 9.269531 75.449219 9.617188 75.46875 9.648438 C 75.507812 9.710938 76.835938 10.167969 76.9375 10.15625 C 76.976562 10.148438 77.347656 9.949219 77.761719 9.71875 C 78.769531 9.144531 78.691406 9.164062 78.652344 9.519531 C 78.546875 10.476562 77.984375 11.285156 77.144531 11.707031 C 74.765625 12.902344 72.242188 10.390625 73.425781 8.011719 C 73.792969 7.277344 74.550781 6.703125 75.359375 6.539062 C 75.703125 6.472656 76.203125 6.488281 76.566406 6.582031 Z M 73.839844 11.425781 C 73.992188 11.570312 74.210938 11.742188 74.324219 11.804688 C 74.441406 11.863281 74.535156 11.929688 74.535156 11.945312 C 74.535156 11.972656 72.074219 14.398438 68.96875 17.445312 L 68.496094 17.90625 L 68.285156 17.636719 C 68.097656 17.398438 67.753906 17.101562 67.398438 16.867188 C 67.289062 16.792969 67.289062 16.792969 68.148438 15.945312 C 68.625 15.476562 69.480469 14.632812 70.046875 14.070312 C 70.617188 13.507812 71.589844 12.550781 72.207031 11.945312 L 73.332031 10.847656 L 73.449219 11.003906 C 73.511719 11.089844 73.691406 11.277344 73.839844 11.425781 Z M 66.332031 16.773438 C 67.445312 16.941406 68.355469 17.75 68.636719 18.835938 C 68.726562 19.1875 68.726562 19.84375 68.636719 20.1875 C 68.398438 21.089844 67.652344 21.867188 66.738281 22.15625 C 66.621094 22.195312 66.332031 22.238281 66.101562 22.257812 C 65.757812 22.28125 65.601562 22.265625 65.28125 22.179688 C 64.898438 22.085938 64.421875 21.859375 64.421875 21.773438 C 64.421875 21.75 64.863281 21.484375 65.398438 21.179688 L 66.382812 20.632812 L 66.382812 19.085938 L 65.644531 18.824219 L 64.902344 18.570312 L 64.0625 19.042969 C 63.601562 19.308594 63.207031 19.523438 63.191406 19.523438 C 63.097656 19.523438 63.246094 18.726562 63.414062 18.371094 C 63.777344 17.574219 64.574219 16.953125 65.433594 16.796875 C 65.855469 16.71875 65.929688 16.71875 66.332031 16.773438 Z M 66.332031 16.773438 "/>
<path style=" stroke:none;fill-rule:nonzero;fill:rgb(0%,0%,0%);fill-opacity:1;" d="M 6.996094 7.300781 C 5.628906 7.414062 4.308594 7.988281 3.199219 8.945312 L 2.960938 9.15625 L 2.960938 7.722656 L 2.066406 7.722656 L 2.066406 10.851562 L 5.167969 10.851562 L 5.167969 9.949219 L 3.464844 9.949219 L 3.578125 9.828125 C 3.953125 9.414062 4.863281 8.808594 5.445312 8.582031 C 8.113281 7.542969 11.007812 8.558594 12.488281 11.050781 C 12.871094 11.695312 13.121094 12.507812 13.203125 13.363281 C 13.460938 16.140625 11.644531 18.730469 8.953125 19.421875 C 5.953125 20.191406 2.832031 18.3125 2.074219 15.28125 C 2.019531 15.074219 1.96875 14.765625 1.949219 14.59375 C 1.9375 14.421875 1.914062 14.195312 1.898438 14.082031 L 1.875 13.882812 L 0.980469 13.882812 L 1.003906 14.144531 C 1.019531 14.285156 1.046875 14.527344 1.0625 14.675781 C 1.203125 16.117188 1.984375 17.667969 3.082031 18.710938 C 6.046875 21.507812 10.789062 20.9375 13.042969 17.527344 C 14.183594 15.796875 14.4375 13.589844 13.71875 11.605469 C 12.703125 8.800781 9.957031 7.046875 6.996094 7.300781 Z M 6.996094 7.300781 "/>
<path style=" stroke:none;fill-rule:nonzero;fill:rgb(0%,0%,0%);fill-opacity:1;" d="M 7.410156 10.410156 C 7.390625 10.425781 7.378906 11.378906 7.378906 12.519531 L 7.378906 14.59375 L 11.050781 14.59375 L 11.035156 14.152344 L 11.019531 13.71875 L 9.648438 13.703125 L 8.269531 13.695312 L 8.269531 10.378906 L 7.859375 10.378906 C 7.628906 10.378906 7.425781 10.390625 7.410156 10.410156 Z M 7.410156 10.410156 "/>
<path style=" stroke:none;fill-rule:nonzero;fill:rgb(0%,0%,0%);fill-opacity:1;" d="M 17.285156 17.535156 C 17.207031 17.578125 17.199219 17.902344 17.199219 23.242188 L 17.199219 28.898438 L 17.304688 28.972656 C 17.378906 29.023438 17.519531 29.046875 17.773438 29.046875 L 18.140625 29.046875 L 18.140625 29.441406 C 18.140625 29.679688 18.164062 29.855469 18.195312 29.890625 C 18.230469 29.921875 18.402344 29.945312 18.644531 29.945312 L 19.035156 29.945312 L 19.035156 30.316406 C 19.035156 30.574219 19.058594 30.714844 19.109375 30.789062 L 19.179688 30.894531 L 23.199219 30.894531 C 25.882812 30.894531 27.25 30.878906 27.308594 30.847656 C 27.398438 30.800781 27.398438 30.6875 27.398438 25.136719 L 27.398438 19.480469 L 27.296875 19.410156 C 27.21875 19.355469 27.078125 19.332031 26.824219 19.332031 L 26.460938 19.332031 L 26.460938 18.941406 C 26.460938 18.699219 26.4375 18.523438 26.402344 18.488281 C 26.371094 18.457031 26.195312 18.433594 25.957031 18.433594 L 25.566406 18.433594 L 25.566406 18.0625 C 25.566406 17.808594 25.542969 17.664062 25.492188 17.589844 L 25.421875 17.484375 L 21.394531 17.484375 C 18.746094 17.488281 17.335938 17.503906 17.285156 17.535156 Z M 25.050781 23.242188 L 25.050781 28.527344 L 17.671875 28.527344 L 17.671875 23.273438 C 17.671875 20.382812 17.683594 18.007812 17.703125 17.992188 C 17.71875 17.972656 19.382812 17.957031 21.394531 17.957031 L 25.050781 17.957031 Z M 25.988281 24.191406 L 25.988281 29.472656 L 18.609375 29.472656 L 18.609375 29.046875 L 22.023438 29.039062 C 25.335938 29.023438 25.433594 29.019531 25.5 28.933594 C 25.558594 28.851562 25.566406 28.085938 25.566406 23.871094 L 25.566406 18.90625 L 25.988281 18.90625 Z M 26.917969 25.125 L 26.90625 30.398438 L 23.230469 30.410156 L 19.550781 30.421875 L 19.550781 29.945312 L 22.949219 29.945312 C 25.527344 29.945312 26.359375 29.933594 26.402344 29.890625 C 26.445312 29.847656 26.460938 28.664062 26.460938 24.84375 L 26.460938 19.855469 L 26.929688 19.855469 Z M 26.917969 25.125 "/>
<path style=" stroke:none;fill-rule:nonzero;fill:rgb(0%,0%,0%);fill-opacity:1;" d="M 19.890625 20.054688 C 19.855469 20.085938 19.832031 20.167969 19.832031 20.234375 C 19.832031 20.464844 19.847656 20.46875 21.363281 20.46875 C 22.597656 20.46875 22.796875 20.460938 22.859375 20.394531 C 22.902344 20.355469 22.933594 20.28125 22.933594 20.234375 C 22.933594 20.1875 22.902344 20.109375 22.859375 20.070312 C 22.796875 20.003906 22.597656 19.996094 21.363281 19.996094 C 20.324219 19.996094 19.929688 20.011719 19.890625 20.054688 Z M 19.890625 20.054688 "/>
<path style=" stroke:none;fill-rule:nonzero;fill:rgb(0%,0%,0%);fill-opacity:1;" d="M 18.894531 21.214844 C 18.804688 21.246094 18.703125 21.371094 18.703125 21.449219 C 18.703125 21.484375 18.746094 21.554688 18.796875 21.605469 C 18.886719 21.699219 18.953125 21.703125 21.351562 21.703125 C 24.019531 21.703125 24.015625 21.703125 24.015625 21.441406 C 24.015625 21.179688 24.019531 21.179688 21.382812 21.1875 C 20.054688 21.1875 18.929688 21.199219 18.894531 21.214844 Z M 18.894531 21.214844 "/>
<path style=" stroke:none;fill-rule:nonzero;fill:rgb(0%,0%,0%);fill-opacity:1;" d="M 18.769531 22.53125 C 18.699219 22.640625 18.699219 22.660156 18.769531 22.769531 L 18.84375 22.886719 L 21.375 22.886719 C 23.277344 22.886719 23.917969 22.871094 23.957031 22.828125 C 23.992188 22.796875 24.015625 22.714844 24.015625 22.648438 C 24.015625 22.582031 23.992188 22.503906 23.957031 22.46875 C 23.917969 22.425781 23.277344 22.414062 21.375 22.414062 L 18.84375 22.414062 Z M 18.769531 22.53125 "/>
<path style=" stroke:none;fill-rule:nonzero;fill:rgb(0%,0%,0%);fill-opacity:1;" d="M 18.894531 23.628906 C 18.804688 23.664062 18.703125 23.785156 18.703125 23.867188 C 18.703125 23.902344 18.746094 23.972656 18.796875 24.023438 C 18.886719 24.113281 18.953125 24.117188 21.378906 24.117188 C 24.085938 24.117188 24.015625 24.128906 24.015625 23.859375 C 24.015625 23.597656 24.019531 23.597656 21.382812 23.601562 C 20.054688 23.601562 18.929688 23.617188 18.894531 23.628906 Z M 18.894531 23.628906 "/>
<path style=" stroke:none;fill-rule:nonzero;fill:rgb(0%,0%,0%);fill-opacity:1;" d="M 18.769531 24.949219 C 18.699219 25.058594 18.699219 25.074219 18.769531 25.183594 L 18.84375 25.304688 L 21.375 25.304688 C 23.277344 25.304688 23.917969 25.289062 23.957031 25.246094 C 24.046875 25.15625 24.03125 24.933594 23.925781 24.875 C 23.863281 24.847656 22.96875 24.828125 21.339844 24.828125 L 18.84375 24.828125 Z M 18.769531 24.949219 "/>
<path style=" stroke:none;fill-rule:nonzero;fill:rgb(0%,0%,0%);fill-opacity:1;" d="M 18.894531 26.046875 C 18.804688 26.082031 18.703125 26.203125 18.703125 26.285156 C 18.703125 26.316406 18.746094 26.386719 18.796875 26.441406 C 18.886719 26.53125 18.953125 26.535156 21.378906 26.535156 C 23.617188 26.535156 23.875 26.527344 23.945312 26.460938 C 24.054688 26.351562 24.015625 26.148438 23.875 26.074219 C 23.785156 26.027344 23.199219 26.015625 21.359375 26.019531 C 20.042969 26.019531 18.929688 26.03125 18.894531 26.046875 Z M 18.894531 26.046875 "/>
<path style=" stroke:none;fill-rule:nonzero;fill:rgb(0%,0%,0%);fill-opacity:1;" d="M 81.210938 20.722656 C 81.074219 20.769531 80.882812 20.972656 80.824219 21.132812 C 80.816406 21.152344 80.566406 21.144531 80.269531 21.109375 C 79.527344 21.019531 79.289062 21.019531 79.09375 21.128906 C 78.957031 21.199219 78.769531 21.441406 78.707031 21.625 C 78.695312 21.648438 78.089844 21.601562 77.3125 21.515625 C 76.558594 21.433594 75.933594 21.371094 75.921875 21.378906 C 75.898438 21.402344 74.289062 36.207031 74.3125 36.226562 C 74.335938 36.253906 85.164062 37.449219 85.179688 37.425781 C 85.210938 37.394531 86.820312 22.601562 86.796875 22.582031 C 86.777344 22.5625 84.207031 22.269531 84.089844 22.269531 C 84.0625 22.269531 84.023438 22.183594 84.007812 22.082031 C 83.96875 21.863281 83.804688 21.640625 83.605469 21.535156 C 83.5 21.480469 82.398438 21.324219 82.121094 21.324219 C 82.085938 21.324219 82.054688 21.289062 82.054688 21.246094 C 82.054688 21.121094 81.910156 20.859375 81.800781 20.78125 C 81.640625 20.679688 81.398438 20.65625 81.210938 20.722656 Z M 81.65625 21.0625 C 81.722656 21.125 81.773438 21.21875 81.773438 21.277344 C 81.773438 21.414062 81.566406 21.605469 81.425781 21.605469 C 81.289062 21.605469 81.117188 21.410156 81.117188 21.246094 C 81.117188 21.125 81.316406 20.945312 81.453125 20.945312 C 81.5 20.945312 81.59375 20.996094 81.65625 21.0625 Z M 77.496094 21.820312 C 78.050781 21.886719 78.546875 21.9375 78.59375 21.9375 C 78.65625 21.9375 78.671875 21.980469 78.671875 22.175781 C 78.671875 22.402344 78.675781 22.40625 78.828125 22.4375 C 79.042969 22.46875 83.710938 22.980469 83.832031 22.980469 C 83.914062 22.980469 83.9375 22.945312 83.964844 22.769531 C 84 22.511719 83.871094 22.515625 85.371094 22.6875 L 86.496094 22.820312 L 86.488281 22.980469 C 86.449219 23.515625 84.957031 37.082031 84.933594 37.105469 C 84.902344 37.128906 74.78125 36.03125 74.652344 35.992188 C 74.621094 35.980469 74.875 33.460938 75.382812 28.839844 L 76.15625 21.703125 L 76.324219 21.703125 C 76.410156 21.703125 76.941406 21.753906 77.496094 21.820312 Z M 77.496094 21.820312 "/>
<path style=" stroke:none;fill-rule:nonzero;fill:rgb(0%,0%,0%);fill-opacity:1;" d="M 77.519531 24.363281 C 77.398438 24.53125 77.234375 24.777344 77.160156 24.910156 C 77.078125 25.046875 77.003906 25.160156 76.988281 25.160156 C 76.972656 25.160156 76.910156 25.074219 76.847656 24.972656 C 76.777344 24.847656 76.707031 24.78125 76.648438 24.78125 C 76.535156 24.78125 76.535156 24.78125 76.746094 25.15625 C 76.84375 25.328125 76.941406 25.445312 76.988281 25.445312 C 77.042969 25.445312 77.128906 25.332031 77.234375 25.125 C 77.328125 24.949219 77.488281 24.695312 77.589844 24.570312 C 77.691406 24.4375 77.820312 24.273438 77.875 24.199219 L 77.972656 24.070312 L 77.859375 24.070312 C 77.769531 24.070312 77.683594 24.140625 77.519531 24.363281 Z M 77.519531 24.363281 "/>
<path style=" stroke:none;fill-rule:nonzero;fill:rgb(0%,0%,0%);fill-opacity:1;" d="M 78.515625 24.863281 C 78.457031 24.917969 78.484375 25.113281 78.550781 25.113281 C 78.644531 25.113281 84.171875 25.726562 84.347656 25.753906 C 84.492188 25.78125 84.5 25.773438 84.5 25.640625 C 84.5 25.527344 84.476562 25.488281 84.394531 25.46875 C 84.292969 25.449219 78.699219 24.828125 78.597656 24.828125 C 78.570312 24.828125 78.53125 24.84375 78.515625 24.863281 Z M 78.515625 24.863281 "/>
<path style=" stroke:none;fill-rule:nonzero;fill:rgb(0%,0%,0%);fill-opacity:1;" d="M 77.21875 27.253906 C 77.089844 27.417969 76.917969 27.671875 76.839844 27.824219 C 76.757812 27.976562 76.683594 28.097656 76.675781 28.097656 C 76.664062 28.097656 76.605469 28.003906 76.539062 27.886719 C 76.40625 27.664062 76.382812 27.648438 76.285156 27.714844 C 76.238281 27.742188 76.265625 27.816406 76.394531 28.007812 C 76.480469 28.152344 76.582031 28.289062 76.605469 28.320312 C 76.675781 28.40625 76.773438 28.351562 76.84375 28.183594 C 76.925781 27.988281 77.238281 27.5 77.453125 27.242188 C 77.554688 27.121094 77.625 27.007812 77.605469 26.988281 C 77.53125 26.917969 77.441406 26.980469 77.21875 27.253906 Z M 77.21875 27.253906 "/>
<path style=" stroke:none;fill-rule:nonzero;fill:rgb(0%,0%,0%);fill-opacity:1;" d="M 78.1875 27.796875 C 78.179688 27.863281 78.1875 27.921875 78.222656 27.933594 C 78.328125 27.972656 83.988281 28.578125 84.085938 28.5625 C 84.167969 28.554688 84.195312 28.515625 84.195312 28.429688 L 84.195312 28.3125 L 81.351562 27.996094 C 79.785156 27.820312 78.441406 27.675781 78.363281 27.671875 C 78.238281 27.671875 78.207031 27.691406 78.1875 27.796875 Z M 78.1875 27.796875 "/>
<path style=" stroke:none;fill-rule:nonzero;fill:rgb(0%,0%,0%);fill-opacity:1;" d="M 77.128906 29.921875 C 76.988281 30.027344 76.628906 30.507812 76.503906 30.765625 C 76.445312 30.890625 76.382812 30.988281 76.363281 30.988281 C 76.347656 30.988281 76.28125 30.902344 76.222656 30.800781 C 76.15625 30.6875 76.082031 30.609375 76.03125 30.609375 C 75.914062 30.609375 75.921875 30.652344 76.109375 30.96875 C 76.300781 31.28125 76.40625 31.320312 76.503906 31.109375 C 76.625 30.863281 76.972656 30.335938 77.148438 30.136719 C 77.335938 29.929688 77.324219 29.789062 77.128906 29.921875 Z M 77.128906 29.921875 "/>
<path style=" stroke:none;fill-rule:nonzero;fill:rgb(0%,0%,0%);fill-opacity:1;" d="M 77.90625 30.496094 C 77.886719 30.515625 77.875 30.578125 77.875 30.640625 C 77.875 30.765625 77.597656 30.722656 80.882812 31.085938 C 82.3125 31.242188 83.578125 31.382812 83.691406 31.398438 C 83.890625 31.425781 83.890625 31.425781 83.890625 31.28125 C 83.890625 31.109375 84.238281 31.164062 80.90625 30.800781 C 79.484375 30.644531 78.234375 30.507812 78.128906 30.492188 C 78.023438 30.476562 77.925781 30.480469 77.90625 30.496094 Z M 77.90625 30.496094 "/>
<path style=" stroke:none;fill-rule:nonzero;fill:rgb(0%,0%,0%);fill-opacity:1;" d="M 76.542969 33.132812 C 76.402344 33.320312 76.242188 33.566406 76.1875 33.675781 C 76.082031 33.882812 75.992188 33.972656 75.992188 33.871094 C 75.992188 33.832031 75.933594 33.734375 75.855469 33.644531 C 75.753906 33.519531 75.707031 33.492188 75.664062 33.527344 C 75.625 33.566406 75.660156 33.65625 75.792969 33.871094 C 75.988281 34.1875 76.105469 34.238281 76.179688 34.039062 C 76.25 33.859375 76.636719 33.269531 76.820312 33.058594 C 77.003906 32.859375 77.019531 32.789062 76.890625 32.789062 C 76.835938 32.789062 76.703125 32.917969 76.542969 33.132812 Z M 76.542969 33.132812 "/>
<path style=" stroke:none;fill-rule:nonzero;fill:rgb(0%,0%,0%);fill-opacity:1;" d="M 77.574219 33.480469 C 77.554688 33.554688 77.542969 33.609375 77.554688 33.621094 C 77.5625 33.625 78.871094 33.769531 80.457031 33.945312 C 82.046875 34.121094 83.394531 34.273438 83.445312 34.28125 C 83.527344 34.300781 83.554688 34.277344 83.578125 34.183594 C 83.597656 34.113281 83.597656 34.046875 83.582031 34.03125 C 83.558594 34.007812 77.886719 33.363281 77.679688 33.359375 C 77.632812 33.359375 77.585938 33.410156 77.574219 33.480469 Z M 77.574219 33.480469 "/>
<path style=" stroke:none;fill-rule:nonzero;fill:rgb(0%,0%,0%);fill-opacity:1;" d="M 4.066406 30.984375 C 3.84375 31.089844 3.648438 31.289062 3.578125 31.476562 C 3.539062 31.566406 3.523438 33.238281 3.523438 36.765625 L 3.523438 41.917969 L 3.632812 42.125 C 3.6875 42.238281 3.816406 42.398438 3.914062 42.476562 L 4.097656 42.621094 L 8.472656 42.636719 C 11.546875 42.644531 12.90625 42.636719 13.03125 42.597656 C 13.253906 42.53125 13.53125 42.289062 13.609375 42.089844 C 13.667969 41.964844 13.675781 41.007812 13.675781 36.78125 L 13.675781 31.625 L 13.574219 31.414062 C 13.511719 31.300781 13.382812 31.140625 13.285156 31.066406 L 13.101562 30.917969 L 8.679688 30.910156 C 4.445312 30.894531 4.242188 30.898438 4.066406 30.984375 Z M 12.988281 31.34375 C 13.324219 31.507812 13.300781 31.125 13.300781 36.746094 C 13.300781 42.296875 13.3125 42.011719 13.023438 42.1875 C 12.894531 42.261719 12.558594 42.265625 8.625 42.265625 C 3.949219 42.265625 4.15625 42.28125 3.980469 41.988281 C 3.90625 41.859375 3.902344 41.476562 3.902344 36.792969 C 3.902344 31.265625 3.886719 31.535156 4.171875 31.359375 C 4.289062 31.28125 4.632812 31.277344 8.566406 31.273438 C 12.289062 31.273438 12.859375 31.28125 12.988281 31.34375 Z M 12.988281 31.34375 "/>
<path style=" stroke:none;fill-rule:nonzero;fill:rgb(0%,0%,0%);fill-opacity:1;" d="M 4.332031 31.945312 C 4.289062 31.988281 4.277344 32.425781 4.277344 33.628906 C 4.277344 35.183594 4.28125 35.253906 4.367188 35.300781 C 4.417969 35.328125 4.789062 35.347656 5.234375 35.347656 C 5.875 35.347656 6.019531 35.335938 6.082031 35.273438 C 6.125 35.234375 6.15625 35.171875 6.15625 35.140625 C 6.15625 34.992188 6.039062 34.96875 5.347656 34.96875 L 4.652344 34.96875 L 4.652344 32.269531 L 12.546875 32.269531 L 12.546875 34.96875 L 9.597656 34.96875 C 7.363281 34.96875 6.632812 34.984375 6.589844 35.027344 C 6.503906 35.113281 6.523438 35.246094 6.621094 35.300781 C 6.75 35.367188 12.707031 35.367188 12.835938 35.300781 C 12.917969 35.253906 12.925781 35.183594 12.925781 33.628906 C 12.925781 32.425781 12.910156 31.988281 12.867188 31.945312 C 12.789062 31.867188 4.414062 31.867188 4.332031 31.945312 Z M 4.332031 31.945312 "/>
<path style=" stroke:none;fill-rule:nonzero;fill:rgb(0%,0%,0%);fill-opacity:1;" d="M 11.148438 32.703125 C 11.113281 32.738281 11.089844 32.792969 11.089844 32.835938 C 11.089844 32.988281 11.199219 33.027344 11.613281 33.027344 C 12.117188 33.027344 12.171875 33.007812 12.171875 32.835938 C 12.171875 32.761719 12.140625 32.695312 12.097656 32.675781 C 11.960938 32.625 11.207031 32.644531 11.148438 32.703125 Z M 11.148438 32.703125 "/>
<path style=" stroke:none;fill-rule:nonzero;fill:rgb(0%,0%,0%);fill-opacity:1;" d="M 11.125 33.203125 C 11.066406 33.257812 11.085938 33.902344 11.148438 33.964844 C 11.230469 34.050781 11.363281 34.03125 11.421875 33.933594 C 11.445312 33.878906 11.46875 33.726562 11.46875 33.59375 C 11.46875 33.460938 11.445312 33.3125 11.421875 33.257812 C 11.375 33.171875 11.183594 33.136719 11.125 33.203125 Z M 11.125 33.203125 "/>
<path style=" stroke:none;fill-rule:nonzero;fill:rgb(0%,0%,0%);fill-opacity:1;" d="M 11.125 34.199219 C 11.105469 34.210938 11.089844 34.277344 11.089844 34.339844 C 11.089844 34.492188 11.246094 34.542969 11.683594 34.542969 C 11.96875 34.542969 12.050781 34.523438 12.125 34.449219 C 12.199219 34.371094 12.210938 34.328125 12.171875 34.257812 C 12.125 34.171875 12.074219 34.164062 11.636719 34.164062 C 11.375 34.164062 11.136719 34.179688 11.125 34.199219 Z M 11.125 34.199219 "/>
<path style=" stroke:none;fill-rule:nonzero;fill:rgb(0%,0%,0%);fill-opacity:1;" d="M 8.84375 36.023438 C 8.808594 36.058594 8.789062 36.246094 8.789062 36.535156 C 8.789062 36.824219 8.808594 37.007812 8.84375 37.046875 C 8.914062 37.117188 10.441406 37.125 10.578125 37.054688 C 10.660156 37.011719 10.667969 36.949219 10.667969 36.558594 C 10.667969 36.316406 10.652344 36.082031 10.640625 36.039062 C 10.617188 35.972656 10.496094 35.964844 9.757812 35.964844 C 9.15625 35.964844 8.882812 35.984375 8.84375 36.023438 Z M 10.292969 36.535156 L 10.292969 36.722656 L 9.164062 36.722656 L 9.164062 36.34375 L 10.292969 36.34375 Z M 10.292969 36.535156 "/>
<path style=" stroke:none;fill-rule:nonzero;fill:rgb(0%,0%,0%);fill-opacity:1;" d="M 11.101562 36.023438 C 11.011719 36.113281 11.023438 36.929688 11.121094 37.027344 C 11.179688 37.085938 11.324219 37.101562 11.980469 37.101562 C 12.539062 37.101562 12.789062 37.082031 12.84375 37.039062 C 12.914062 36.992188 12.925781 36.914062 12.914062 36.484375 L 12.902344 35.988281 L 12.03125 35.972656 C 11.390625 35.964844 11.144531 35.980469 11.101562 36.023438 Z M 12.546875 36.535156 L 12.546875 36.722656 L 11.421875 36.722656 L 11.421875 36.34375 L 12.546875 36.34375 Z M 12.546875 36.535156 "/>
<path style=" stroke:none;fill-rule:nonzero;fill:rgb(0%,0%,0%);fill-opacity:1;" d="M 4.359375 37.484375 C 4.285156 37.527344 4.277344 37.625 4.277344 38.394531 C 4.277344 39.007812 4.296875 39.28125 4.332031 39.320312 C 4.402344 39.390625 5.929688 39.398438 6.066406 39.328125 C 6.152344 39.28125 6.15625 39.21875 6.15625 38.429688 C 6.15625 37.722656 6.140625 37.570312 6.082031 37.507812 C 6.019531 37.449219 5.875 37.433594 5.226562 37.433594 C 4.78125 37.433594 4.402344 37.457031 4.359375 37.484375 Z M 5.78125 38.429688 L 5.78125 38.996094 L 4.652344 38.996094 L 4.652344 37.859375 L 5.78125 37.859375 Z M 5.78125 38.429688 "/>
<path style=" stroke:none;fill-rule:nonzero;fill:rgb(0%,0%,0%);fill-opacity:1;" d="M 6.640625 37.480469 C 6.53125 37.523438 6.53125 37.539062 6.53125 38.394531 C 6.53125 39.007812 6.550781 39.28125 6.589844 39.320312 C 6.660156 39.390625 8.1875 39.398438 8.324219 39.328125 C 8.40625 39.28125 8.414062 39.21875 8.414062 38.40625 C 8.414062 37.589844 8.40625 37.527344 8.324219 37.480469 C 8.210938 37.425781 6.785156 37.425781 6.640625 37.480469 Z M 8.035156 38.429688 L 8.035156 38.996094 L 6.910156 38.996094 L 6.910156 37.859375 L 8.035156 37.859375 Z M 8.035156 38.429688 "/>
<path style=" stroke:none;fill-rule:nonzero;fill:rgb(0%,0%,0%);fill-opacity:1;" d="M 8.894531 37.480469 C 8.789062 37.523438 8.789062 37.539062 8.789062 38.394531 C 8.789062 39.007812 8.808594 39.28125 8.84375 39.320312 C 8.914062 39.390625 10.441406 39.398438 10.578125 39.328125 C 10.664062 39.28125 10.667969 39.21875 10.667969 38.40625 C 10.667969 37.589844 10.664062 37.527344 10.578125 37.480469 C 10.464844 37.425781 9.042969 37.425781 8.894531 37.480469 Z M 10.292969 38.429688 L 10.292969 38.996094 L 9.164062 38.996094 L 9.164062 37.859375 L 10.292969 37.859375 Z M 10.292969 38.429688 "/>
<path style=" stroke:none;fill-rule:nonzero;fill:rgb(0%,0%,0%);fill-opacity:1;" d="M 11.183594 37.496094 L 11.066406 37.558594 L 11.054688 39.539062 C 11.050781 40.964844 11.058594 41.542969 11.097656 41.585938 C 11.175781 41.679688 12.792969 41.679688 12.871094 41.585938 C 12.910156 41.542969 12.925781 41.152344 12.914062 40.277344 C 12.902344 39.132812 12.894531 39.027344 12.816406 38.976562 C 12.746094 38.9375 12.710938 38.945312 12.636719 39.039062 C 12.554688 39.140625 12.546875 39.230469 12.546875 40.210938 L 12.546875 41.273438 L 11.421875 41.273438 L 11.421875 37.8125 L 12.546875 37.8125 L 12.546875 38.109375 C 12.546875 38.457031 12.617188 38.589844 12.789062 38.5625 C 12.902344 38.546875 12.902344 38.539062 12.914062 38.035156 L 12.929688 37.527344 L 12.804688 37.480469 C 12.625 37.410156 11.324219 37.425781 11.183594 37.496094 Z M 11.183594 37.496094 "/>
<path style=" stroke:none;fill-rule:nonzero;fill:rgb(0%,0%,0%);fill-opacity:1;" d="M 4.308594 39.789062 C 4.25 39.84375 4.273438 41.53125 4.332031 41.59375 C 4.414062 41.675781 6.019531 41.675781 6.101562 41.59375 C 6.160156 41.53125 6.183594 39.976562 6.128906 39.832031 C 6.105469 39.765625 5.976562 39.753906 5.222656 39.753906 C 4.738281 39.753906 4.324219 39.769531 4.308594 39.789062 Z M 5.78125 40.703125 L 5.78125 41.273438 L 4.652344 41.273438 L 4.652344 40.132812 L 5.78125 40.132812 Z M 5.78125 40.703125 "/>
<path style=" stroke:none;fill-rule:nonzero;fill:rgb(0%,0%,0%);fill-opacity:1;" d="M 6.566406 39.789062 C 6.503906 39.84375 6.527344 41.53125 6.589844 41.59375 C 6.667969 41.675781 8.277344 41.675781 8.355469 41.59375 C 8.417969 41.53125 8.441406 39.976562 8.382812 39.832031 C 8.359375 39.765625 8.234375 39.753906 7.476562 39.753906 C 6.992188 39.753906 6.578125 39.769531 6.566406 39.789062 Z M 8.035156 40.703125 L 8.035156 41.273438 L 6.910156 41.273438 L 6.910156 40.132812 L 8.035156 40.132812 Z M 8.035156 40.703125 "/>
<path style=" stroke:none;fill-rule:nonzero;fill:rgb(0%,0%,0%);fill-opacity:1;" d="M 8.820312 39.785156 C 8.761719 39.84375 8.785156 41.53125 8.84375 41.59375 C 8.929688 41.679688 10.546875 41.675781 10.617188 41.585938 C 10.652344 41.542969 10.667969 41.253906 10.660156 40.652344 L 10.644531 39.777344 L 9.746094 39.765625 C 9.257812 39.761719 8.839844 39.769531 8.820312 39.785156 Z M 10.292969 40.703125 L 10.292969 41.273438 L 9.164062 41.273438 L 9.164062 40.132812 L 10.292969 40.132812 Z M 10.292969 40.703125 "/>
</g>
</svg>
