<?xml version="1.0" encoding="UTF-8"?>
<svg xmlns="http://www.w3.org/2000/svg" xmlns:xlink="http://www.w3.org/1999/xlink" width="68px" height="50px" viewBox="0 0 67 50" version="1.1">
<g id="surface1">
<path style=" stroke:none;fill-rule:nonzero;fill:rgb(0%,0%,0%);fill-opacity:1;" d="M 0.0117188 0.96875 C 0.00390625 0.984375 0.00390625 11.761719 0.00390625 24.921875 L 0.0117188 48.839844 L 66.996094 48.839844 L 66.996094 0.953125 L 33.507812 0.945312 C 6.730469 0.941406 0.0195312 0.945312 0.0117188 0.96875 Z M 66.359375 3.601562 L 66.359375 5.601562 L 0.648438 5.601562 L 0.648438 1.601562 L 66.359375 1.601562 Z M 5.355469 15.960938 L 5.355469 25.992188 L 3.089844 28.484375 C 1.847656 29.855469 0.789062 31.027344 0.738281 31.082031 L 0.648438 31.1875 L 0.648438 14.636719 L 3.410156 14.636719 L 3.410156 7.390625 L 0.648438 7.390625 L 0.648438 5.929688 L 5.355469 5.929688 Z M 7.488281 15.859375 L 7.488281 25.789062 L 21.402344 25.789062 L 21.402344 28.191406 L 7.523438 28.191406 L 7.464844 28.269531 C 7.414062 28.328125 0.734375 36.273438 0.667969 36.34375 C 0.660156 36.355469 0.648438 35.21875 0.648438 33.8125 L 0.652344 31.261719 L 3.027344 28.636719 L 5.402344 26.015625 L 5.402344 5.929688 L 7.488281 5.929688 Z M 40.992188 9.800781 L 40.992188 13.671875 L 47.113281 13.671875 L 47.113281 5.929688 L 53.933594 5.929688 L 53.933594 48.191406 L 11.335938 48.191406 L 11.351562 48.066406 C 11.375 47.824219 11.710938 43.800781 11.710938 43.71875 C 11.710938 43.632812 11.703125 43.628906 11.648438 43.628906 C 11.609375 43.628906 9.824219 43.476562 7.675781 43.289062 C 5.523438 43.101562 3.765625 42.953125 3.761719 42.957031 C 3.757812 42.960938 3.316406 48.109375 3.316406 48.175781 C 3.316406 48.1875 2.714844 48.191406 1.984375 48.191406 L 0.648438 48.191406 L 0.648438 36.449219 L 4.066406 32.394531 C 5.949219 30.164062 7.5 28.316406 7.515625 28.289062 L 7.546875 28.238281 L 21.402344 28.238281 L 21.402344 34.898438 L 47.53125 34.898438 L 47.53125 23.414062 L 21.402344 23.414062 L 21.402344 25.742188 L 7.535156 25.742188 L 7.535156 5.929688 L 40.992188 5.929688 Z M 66.359375 25.0625 L 66.359375 44.167969 L 54.164062 44.167969 L 54.164062 5.953125 L 66.359375 5.953125 Z M 47 9.777344 L 47 13.554688 L 41.109375 13.554688 L 41.109375 6 L 47 6 Z M 3.292969 11.011719 L 3.292969 14.519531 L 0.648438 14.519531 L 0.648438 7.507812 L 3.292969 7.507812 Z M 25.710938 25.773438 L 25.714844 27.980469 L 24.945312 27.984375 C 24.519531 27.988281 26.1875 27.992188 28.648438 27.992188 C 32.628906 27.992188 32.714844 27.992188 29.429688 27.984375 L 25.738281 27.980469 L 25.738281 23.554688 L 37.46875 23.554688 L 37.46875 25.203125 L 36.554688 25.203125 C 35.773438 25.203125 35.640625 25.199219 35.613281 25.167969 C 35.597656 25.148438 35.574219 25.132812 35.558594 25.132812 C 35.539062 25.132812 35.515625 25.148438 35.5 25.167969 C 35.476562 25.195312 35.40625 25.203125 35.148438 25.203125 L 34.828125 25.203125 L 34.828125 24.402344 C 34.828125 23.882812 34.816406 23.601562 34.804688 23.601562 C 34.785156 23.601562 34.78125 24.347656 34.78125 25.789062 L 34.78125 27.980469 L 34.347656 27.984375 C 34.105469 27.988281 34.710938 27.992188 35.691406 27.996094 L 37.46875 28.003906 L 37.46875 28.496094 C 37.46875 28.808594 37.480469 28.992188 37.492188 28.992188 C 37.507812 28.992188 37.515625 28.808594 37.515625 28.496094 C 37.515625 28.042969 37.519531 28.003906 37.558594 28 C 37.59375 27.996094 37.59375 27.996094 37.558594 27.984375 C 37.519531 27.976562 37.515625 27.851562 37.515625 25.765625 L 37.515625 23.554688 L 39.464844 23.554688 L 39.464844 25.203125 L 38.511719 25.203125 L 38.511719 24.636719 L 38.972656 24.632812 L 39.429688 24.625 L 38.972656 24.621094 L 38.519531 24.613281 L 38.507812 24.464844 C 38.496094 24.347656 38.503906 24.308594 38.539062 24.269531 C 38.59375 24.210938 38.574219 24.140625 38.503906 24.148438 C 38.457031 24.15625 38.453125 24.164062 38.464844 24.382812 L 38.472656 24.613281 L 38.011719 24.617188 L 37.550781 24.625 L 38.007812 24.628906 L 38.464844 24.636719 L 38.472656 24.921875 L 38.476562 25.203125 L 38.015625 25.207031 L 37.550781 25.210938 L 38.015625 25.226562 C 38.40625 25.234375 38.476562 25.242188 38.476562 25.273438 C 38.476562 25.292969 38.453125 25.3125 38.425781 25.316406 C 38.375 25.324219 38.375 25.328125 38.410156 25.390625 C 38.425781 25.429688 38.445312 25.46875 38.445312 25.484375 C 38.445312 25.5 38.289062 25.507812 37.988281 25.507812 C 37.734375 25.507812 37.535156 25.511719 37.542969 25.519531 C 37.550781 25.527344 37.984375 25.53125 38.507812 25.53125 L 39.464844 25.53125 L 39.46875 27.234375 C 39.472656 28.167969 39.476562 28.734375 39.480469 28.488281 L 39.488281 28.050781 L 40.179688 28.046875 L 40.867188 28.039062 L 39.5 28.015625 L 39.5 23.566406 L 42.90625 23.566406 L 42.90625 27.96875 L 42.304688 27.980469 L 41.699219 27.992188 L 42.304688 27.996094 L 42.90625 28.003906 L 43.003906 28.101562 C 43.058594 28.15625 43.105469 28.191406 43.105469 28.175781 C 43.105469 28.164062 43.066406 28.117188 43.023438 28.074219 L 42.941406 27.992188 L 42.941406 23.554688 L 45.164062 23.558594 L 47.382812 23.566406 L 47.390625 26.3125 L 47.394531 29.0625 L 46.558594 29.0625 C 46.019531 29.0625 45.722656 29.070312 45.722656 29.085938 C 45.722656 29.097656 46.019531 29.109375 46.558594 29.109375 L 47.394531 29.109375 L 47.390625 31.925781 L 47.382812 34.746094 L 45.164062 34.75 L 42.941406 34.757812 L 42.941406 30.445312 L 43.117188 30.230469 C 43.210938 30.113281 43.28125 30.011719 43.277344 30.007812 C 43.269531 30 43.191406 30.082031 43.023438 30.289062 L 42.917969 30.425781 L 42.320312 30.429688 L 41.722656 30.4375 L 42.324219 30.441406 L 42.917969 30.449219 L 42.914062 32.597656 L 42.90625 34.746094 L 40.234375 34.75 L 37.5625 34.757812 L 37.5625 30.449219 L 39.15625 30.445312 C 40.210938 30.441406 40.539062 30.4375 40.125 30.425781 L 39.5 30.414062 L 39.488281 29.933594 L 39.472656 29.449219 L 39.464844 30.425781 L 38.519531 30.421875 L 37.574219 30.414062 L 37.5625 30.003906 L 37.550781 29.589844 L 37.539062 30.003906 L 37.527344 30.414062 L 37.15625 30.425781 L 36.785156 30.441406 L 37.164062 30.445312 L 37.539062 30.449219 L 37.535156 32.597656 L 37.527344 34.746094 L 29.738281 34.746094 L 29.730469 32.597656 L 29.726562 30.449219 L 32.8125 30.441406 C 34.511719 30.441406 33.890625 30.4375 31.429688 30.4375 C 28.96875 30.4375 27.574219 30.441406 28.328125 30.441406 L 29.703125 30.449219 L 29.703125 34.757812 L 25.019531 34.757812 L 25.019531 30.449219 L 25.582031 30.441406 C 25.980469 30.4375 25.921875 30.4375 25.367188 30.4375 C 24.941406 30.4375 24.675781 30.441406 24.78125 30.441406 L 24.972656 30.453125 L 24.972656 34.757812 L 23.234375 34.757812 L 23.226562 34.632812 L 23.222656 34.507812 L 23.207031 34.757812 L 22.378906 34.75 L 21.550781 34.746094 L 21.550781 33.636719 L 22.371094 33.632812 L 23.1875 33.625 L 23.195312 33.898438 L 23.203125 33.769531 C 23.210938 33.699219 23.226562 33.632812 23.238281 33.621094 C 23.261719 33.609375 23.261719 33.601562 23.238281 33.601562 C 23.222656 33.601562 23.207031 33.570312 23.207031 33.527344 L 23.203125 33.449219 L 23.195312 33.527344 L 23.183594 33.601562 L 21.539062 33.601562 L 21.539062 32.613281 L 23.207031 32.613281 L 23.214844 32.703125 C 23.222656 32.75 23.226562 32.710938 23.226562 32.613281 C 23.226562 32.519531 23.222656 32.472656 23.214844 32.515625 L 23.207031 32.589844 L 22.378906 32.585938 L 21.550781 32.578125 L 21.550781 31.613281 L 22.382812 31.609375 L 23.210938 31.601562 L 23.21875 31.945312 L 23.234375 31.601562 L 23.417969 31.601562 C 23.550781 31.601562 23.605469 31.59375 23.605469 31.574219 C 23.605469 31.558594 23.605469 31.300781 23.605469 31 L 23.601562 30.453125 L 23.714844 30.441406 C 23.773438 30.4375 23.558594 30.4375 23.234375 30.4375 C 22.707031 30.4375 22.691406 30.4375 23.113281 30.441406 L 23.582031 30.449219 L 23.582031 31.578125 L 21.539062 31.578125 L 21.539062 30.449219 L 21.769531 30.445312 L 21.992188 30.441406 L 21.773438 30.429688 L 21.550781 30.414062 L 21.546875 27.015625 C 21.542969 25.144531 21.546875 23.601562 21.550781 23.582031 C 21.558594 23.558594 21.988281 23.554688 23.632812 23.558594 L 25.703125 23.566406 Z M 35.515625 25.359375 L 35.523438 25.484375 L 35.179688 25.488281 L 34.835938 25.496094 L 35.179688 25.5 L 35.523438 25.511719 L 35.523438 25.71875 L 34.828125 25.71875 L 34.828125 25.222656 L 35.167969 25.230469 L 35.511719 25.238281 Z M 36.703125 25.320312 C 36.644531 25.433594 36.644531 25.4375 36.703125 25.4375 C 36.742188 25.4375 36.742188 25.460938 36.75 25.695312 L 36.75 25.957031 L 36.453125 25.960938 L 36.160156 25.964844 L 36.746094 25.980469 L 36.75 26.308594 C 36.75 26.558594 36.742188 26.636719 36.722656 26.640625 C 36.699219 26.640625 36.699219 26.644531 36.722656 26.652344 C 36.742188 26.660156 36.75 26.730469 36.75 26.875 C 36.75 27.039062 36.742188 27.085938 36.722656 27.070312 C 36.699219 27.058594 36.699219 27.0625 36.722656 27.085938 C 36.738281 27.105469 36.75 27.167969 36.75 27.226562 L 36.75 27.339844 L 36.59375 27.339844 C 36.503906 27.339844 36.429688 27.332031 36.40625 27.3125 C 36.386719 27.296875 36.378906 27.296875 36.386719 27.3125 C 36.394531 27.328125 36.34375 27.339844 36.210938 27.351562 C 35.933594 27.371094 35.917969 27.351562 35.910156 27.0625 L 35.90625 26.835938 L 35.890625 27.097656 C 35.882812 27.238281 35.875 27.363281 35.875 27.378906 C 35.875 27.390625 35.878906 27.53125 35.886719 27.691406 L 35.894531 27.980469 L 34.828125 27.980469 L 34.828125 25.742188 L 35.523438 25.742188 L 35.523438 25.921875 C 35.523438 26.082031 35.515625 26.097656 35.476562 26.097656 C 35.429688 26.097656 35.429688 26.101562 35.464844 26.167969 C 35.484375 26.203125 35.5 26.238281 35.5 26.246094 C 35.5 26.253906 35.351562 26.261719 35.167969 26.269531 L 34.835938 26.277344 L 35.175781 26.28125 C 35.402344 26.28125 35.523438 26.292969 35.539062 26.3125 C 35.5625 26.335938 35.566406 26.335938 35.566406 26.3125 C 35.566406 26.292969 35.671875 26.28125 35.945312 26.28125 L 36.320312 26.277344 L 35.957031 26.269531 L 35.589844 26.257812 L 35.625 26.191406 C 35.671875 26.101562 35.671875 26.078125 35.621094 26.082031 C 35.585938 26.085938 35.578125 26.058594 35.574219 25.914062 L 35.566406 25.742188 L 36.253906 25.734375 L 35.566406 25.71875 L 35.566406 25.507812 L 35.714844 25.503906 L 35.859375 25.5 L 35.714844 25.492188 L 35.566406 25.480469 L 35.566406 25.382812 C 35.566406 25.328125 35.578125 25.269531 35.597656 25.253906 C 35.617188 25.234375 35.777344 25.226562 36.1875 25.226562 L 36.75 25.226562 Z M 37.46875 25.34375 L 37.46875 25.460938 L 37.117188 25.457031 C 36.921875 25.457031 36.789062 25.449219 36.828125 25.445312 C 36.902344 25.433594 36.902344 25.433594 36.84375 25.320312 L 36.796875 25.226562 L 37.46875 25.226562 Z M 39.464844 25.367188 L 39.464844 25.507812 L 39 25.507812 C 38.746094 25.507812 38.535156 25.5 38.535156 25.488281 C 38.539062 25.480469 38.550781 25.445312 38.570312 25.414062 C 38.613281 25.335938 38.613281 25.320312 38.558594 25.320312 C 38.527344 25.320312 38.511719 25.304688 38.511719 25.273438 C 38.511719 25.226562 38.527344 25.226562 38.988281 25.226562 L 39.464844 25.226562 Z M 37.46875 25.71875 L 37.46875 25.957031 L 36.777344 25.957031 L 36.777344 25.484375 L 37.46875 25.484375 Z M 37.46875 26.050781 C 37.46875 26.121094 37.46875 26.121094 37.335938 26.125 L 37.203125 26.128906 L 37.46875 26.144531 L 37.46875 26.636719 L 36.773438 26.636719 L 36.777344 26.308594 L 36.777344 25.980469 L 37.46875 25.980469 Z M 37.46875 27.320312 L 37.46875 27.980469 L 37.371094 27.980469 C 37.285156 27.980469 37.257812 27.964844 37.132812 27.84375 C 37.007812 27.722656 37.003906 27.71875 37.105469 27.824219 C 37.164062 27.890625 37.214844 27.953125 37.214844 27.960938 C 37.214844 27.972656 37.128906 27.980469 37.023438 27.980469 C 36.878906 27.980469 36.824219 27.96875 36.792969 27.9375 C 36.75 27.902344 36.75 27.902344 36.765625 27.9375 C 36.777344 27.976562 36.742188 27.980469 36.347656 27.980469 L 35.917969 27.980469 L 35.917969 27.726562 C 35.917969 27.394531 35.910156 27.402344 36.34375 27.382812 L 36.667969 27.371094 L 36.972656 27.660156 L 36.832031 27.511719 C 36.753906 27.429688 36.710938 27.367188 36.734375 27.375 C 36.777344 27.390625 36.78125 27.371094 36.773438 26.890625 L 36.773438 26.660156 L 37.46875 26.660156 Z M 4.207031 43.097656 C 4.285156 43.105469 4.59375 43.132812 4.890625 43.15625 C 5.421875 43.203125 6.800781 43.320312 7.894531 43.414062 C 8.992188 43.511719 10.347656 43.628906 10.898438 43.675781 C 11.210938 43.699219 11.5 43.726562 11.535156 43.734375 L 11.605469 43.746094 L 11.589844 43.953125 C 11.578125 44.066406 11.554688 44.347656 11.535156 44.582031 C 11.484375 45.207031 11.394531 46.273438 11.328125 47.074219 C 11.292969 47.464844 11.257812 47.875 11.25 47.992188 L 11.234375 48.203125 L 7.332031 48.207031 L 3.429688 48.207031 L 3.429688 48.113281 C 3.429688 48.0625 3.449219 47.851562 3.464844 47.640625 C 3.511719 47.113281 3.558594 46.605469 3.675781 45.167969 C 3.734375 44.480469 3.796875 43.742188 3.8125 43.523438 C 3.832031 43.304688 3.847656 43.109375 3.847656 43.09375 C 3.847656 43.070312 3.875 43.066406 3.960938 43.074219 C 4.019531 43.078125 4.132812 43.089844 4.207031 43.097656 Z M 66.359375 46.296875 L 66.359375 48.191406 L 54.164062 48.191406 L 54.164062 44.402344 L 66.359375 44.402344 Z M 66.359375 46.296875 "/>
<path style=" stroke:none;fill-rule:nonzero;fill:rgb(0%,0%,0%);fill-opacity:1;" d="M 33.324219 1.929688 L 33.273438 1.949219 L 33.277344 3.097656 L 33.285156 4.246094 L 33.453125 4.253906 C 33.558594 4.257812 33.636719 4.25 33.65625 4.234375 C 33.683594 4.210938 33.691406 4.105469 33.691406 3.695312 L 33.691406 3.183594 L 33.792969 3.085938 C 33.90625 2.980469 34.011719 2.949219 34.109375 2.988281 C 34.242188 3.046875 34.257812 3.109375 34.269531 3.707031 L 34.28125 4.246094 L 34.433594 4.253906 C 34.511719 4.257812 34.605469 4.253906 34.636719 4.246094 L 34.691406 4.234375 L 34.683594 3.628906 C 34.675781 3.035156 34.675781 3.019531 34.617188 2.890625 C 34.523438 2.695312 34.386719 2.609375 34.152344 2.609375 C 34.007812 2.605469 33.832031 2.671875 33.742188 2.757812 L 33.691406 2.808594 L 33.691406 1.953125 L 33.628906 1.929688 C 33.558594 1.902344 33.394531 1.902344 33.324219 1.929688 Z M 33.324219 1.929688 "/>
<path style=" stroke:none;fill-rule:nonzero;fill:rgb(0%,0%,0%);fill-opacity:1;" d="M 38.519531 1.929688 L 38.464844 1.949219 L 38.464844 3.09375 C 38.464844 4.382812 38.445312 4.257812 38.675781 4.257812 C 38.90625 4.257812 38.882812 4.382812 38.882812 3.09375 L 38.882812 1.953125 L 38.824219 1.929688 C 38.75 1.902344 38.589844 1.902344 38.519531 1.929688 Z M 38.519531 1.929688 "/>
<path style=" stroke:none;fill-rule:nonzero;fill:rgb(0%,0%,0%);fill-opacity:1;" d="M 20.296875 2.105469 C 20.253906 2.136719 20.253906 2.179688 20.246094 3.152344 C 20.242188 3.855469 20.25 4.179688 20.265625 4.210938 C 20.289062 4.257812 20.308594 4.261719 20.480469 4.253906 L 20.671875 4.246094 L 20.683594 3.941406 C 20.695312 3.773438 20.699219 3.578125 20.703125 3.511719 L 20.707031 3.390625 L 21.046875 3.382812 L 21.390625 3.375 L 21.410156 3.292969 C 21.421875 3.246094 21.425781 3.167969 21.414062 3.121094 L 21.398438 3.035156 L 21.140625 3.035156 C 20.996094 3.035156 20.839844 3.027344 20.792969 3.019531 L 20.707031 3.003906 L 20.707031 2.449219 L 21.050781 2.449219 C 21.339844 2.449219 21.402344 2.441406 21.425781 2.410156 C 21.460938 2.371094 21.464844 2.144531 21.4375 2.097656 C 21.414062 2.054688 20.359375 2.0625 20.296875 2.105469 Z M 20.296875 2.105469 "/>
<path style=" stroke:none;fill-rule:nonzero;fill:rgb(0%,0%,0%);fill-opacity:1;" d="M 22.40625 2.613281 C 22.167969 2.648438 21.960938 2.800781 21.863281 3.023438 C 21.789062 3.1875 21.761719 3.460938 21.792969 3.65625 C 21.859375 4.050781 22.035156 4.234375 22.402344 4.277344 C 22.675781 4.3125 23.089844 4.246094 23.144531 4.15625 C 23.152344 4.140625 23.164062 4.078125 23.164062 4.015625 C 23.164062 3.875 23.136719 3.863281 22.960938 3.921875 C 22.792969 3.972656 22.488281 3.980469 22.390625 3.929688 C 22.292969 3.878906 22.234375 3.785156 22.21875 3.660156 L 22.207031 3.554688 L 22.683594 3.554688 C 23.238281 3.554688 23.234375 3.554688 23.234375 3.351562 C 23.234375 2.984375 23.0625 2.707031 22.792969 2.636719 C 22.664062 2.605469 22.535156 2.59375 22.40625 2.613281 Z M 22.730469 2.984375 C 22.777344 3.035156 22.800781 3.085938 22.808594 3.164062 L 22.824219 3.269531 L 22.210938 3.269531 L 22.210938 3.210938 C 22.210938 3.097656 22.328125 2.9375 22.433594 2.910156 C 22.53125 2.886719 22.664062 2.917969 22.730469 2.984375 Z M 22.730469 2.984375 "/>
<path style=" stroke:none;fill-rule:nonzero;fill:rgb(0%,0%,0%);fill-opacity:1;" d="M 26.171875 2.617188 C 25.75 2.671875 25.53125 3.003906 25.554688 3.554688 C 25.566406 3.742188 25.578125 3.808594 25.628906 3.914062 C 25.757812 4.179688 25.972656 4.289062 26.359375 4.289062 C 26.574219 4.285156 26.828125 4.234375 26.886719 4.1875 C 26.921875 4.15625 26.941406 4.03125 26.925781 3.945312 C 26.914062 3.867188 26.894531 3.867188 26.640625 3.941406 C 26.464844 3.992188 26.28125 3.984375 26.167969 3.929688 C 26.058594 3.878906 26 3.789062 25.976562 3.652344 L 25.960938 3.554688 L 26.449219 3.554688 C 27.023438 3.554688 27 3.5625 26.992188 3.308594 C 26.980469 2.90625 26.789062 2.664062 26.441406 2.617188 C 26.367188 2.605469 26.246094 2.605469 26.171875 2.617188 Z M 26.417969 2.925781 C 26.507812 2.964844 26.566406 3.046875 26.585938 3.175781 L 26.601562 3.269531 L 25.964844 3.269531 L 25.980469 3.191406 C 26.007812 3.074219 26.070312 2.980469 26.15625 2.9375 C 26.25 2.886719 26.316406 2.886719 26.417969 2.925781 Z M 26.417969 2.925781 "/>
<path style=" stroke:none;fill-rule:nonzero;fill:rgb(0%,0%,0%);fill-opacity:1;" d="M 28.128906 2.613281 C 28.082031 2.625 28.003906 2.679688 27.9375 2.742188 L 27.824219 2.855469 L 27.824219 2.773438 C 27.824219 2.730469 27.8125 2.679688 27.796875 2.664062 C 27.757812 2.625 27.519531 2.625 27.480469 2.664062 C 27.4375 2.707031 27.441406 4.195312 27.484375 4.234375 C 27.507812 4.25 27.582031 4.257812 27.6875 4.253906 L 27.859375 4.246094 L 27.882812 3.253906 L 27.953125 3.160156 C 28.054688 3.03125 28.160156 2.984375 28.273438 3.015625 C 28.324219 3.027344 28.371094 3.03125 28.378906 3.019531 C 28.398438 3 28.414062 2.851562 28.40625 2.714844 C 28.402344 2.636719 28.398438 2.632812 28.242188 2.601562 C 28.222656 2.597656 28.171875 2.601562 28.128906 2.613281 Z M 28.128906 2.613281 "/>
<path style=" stroke:none;fill-rule:nonzero;fill:rgb(0%,0%,0%);fill-opacity:1;" d="M 31.984375 2.613281 C 31.585938 2.667969 31.347656 2.992188 31.347656 3.488281 C 31.347656 3.914062 31.570312 4.222656 31.910156 4.273438 C 32.214844 4.316406 32.617188 4.257812 32.699219 4.164062 C 32.75 4.097656 32.753906 3.910156 32.703125 3.890625 C 32.683594 3.882812 32.601562 3.898438 32.523438 3.921875 C 32.316406 3.984375 32.023438 3.980469 31.933594 3.914062 C 31.851562 3.851562 31.792969 3.75 31.785156 3.648438 L 31.777344 3.566406 L 32.257812 3.558594 L 32.738281 3.554688 L 32.777344 3.492188 C 32.824219 3.421875 32.8125 3.183594 32.75 3.007812 C 32.652344 2.71875 32.359375 2.566406 31.984375 2.613281 Z M 32.21875 2.925781 C 32.3125 2.96875 32.390625 3.089844 32.390625 3.191406 L 32.390625 3.269531 L 31.789062 3.269531 L 31.789062 3.203125 C 31.789062 3.109375 31.863281 2.984375 31.953125 2.9375 C 32.046875 2.886719 32.109375 2.882812 32.21875 2.925781 Z M 32.21875 2.925781 "/>
<path style=" stroke:none;fill-rule:nonzero;fill:rgb(0%,0%,0%);fill-opacity:1;" d="M 35.925781 2.601562 C 35.917969 2.605469 35.875 2.613281 35.839844 2.621094 C 35.804688 2.628906 35.726562 2.6875 35.671875 2.746094 L 35.566406 2.855469 L 35.566406 2.773438 C 35.566406 2.664062 35.535156 2.636719 35.390625 2.636719 C 35.179688 2.636719 35.195312 2.566406 35.195312 3.4375 C 35.195312 4.070312 35.203125 4.210938 35.230469 4.234375 C 35.25 4.25 35.328125 4.257812 35.433594 4.253906 L 35.601562 4.246094 L 35.609375 3.75 L 35.613281 3.253906 L 35.699219 3.152344 C 35.808594 3.023438 35.90625 2.980469 36.019531 3.015625 C 36.0625 3.027344 36.113281 3.03125 36.125 3.023438 C 36.160156 3.003906 36.15625 2.667969 36.121094 2.644531 C 36.085938 2.617188 35.964844 2.589844 35.925781 2.601562 Z M 35.925781 2.601562 "/>
<path style=" stroke:none;fill-rule:nonzero;fill:rgb(0%,0%,0%);fill-opacity:1;" d="M 37.320312 2.613281 C 37.1875 2.636719 37.125 2.667969 37.003906 2.765625 L 36.902344 2.855469 L 36.894531 2.773438 C 36.890625 2.730469 36.875 2.679688 36.863281 2.667969 C 36.832031 2.625 36.582031 2.625 36.546875 2.664062 C 36.527344 2.683594 36.519531 2.957031 36.519531 3.742188 C 36.519531 4.972656 36.5 4.878906 36.753906 4.867188 C 36.863281 4.863281 36.921875 4.84375 36.9375 4.824219 C 36.949219 4.804688 36.960938 4.636719 36.960938 4.453125 L 36.960938 4.117188 L 37.0625 4.1875 C 37.3125 4.363281 37.667969 4.304688 37.851562 4.0625 C 38.054688 3.789062 38.070312 3.132812 37.882812 2.847656 C 37.765625 2.671875 37.539062 2.578125 37.320312 2.613281 Z M 37.433594 3.015625 C 37.542969 3.101562 37.570312 3.191406 37.574219 3.4375 C 37.574219 3.625 37.566406 3.675781 37.523438 3.757812 C 37.457031 3.878906 37.390625 3.929688 37.289062 3.929688 C 37.191406 3.929688 37.097656 3.878906 37.019531 3.789062 C 36.960938 3.71875 36.960938 3.703125 36.960938 3.453125 C 36.960938 3.15625 36.972656 3.132812 37.132812 3.027344 C 37.238281 2.953125 37.347656 2.949219 37.433594 3.015625 Z M 37.433594 3.015625 "/>
<path style=" stroke:none;fill-rule:nonzero;fill:rgb(0%,0%,0%);fill-opacity:1;" d="M 39.886719 2.617188 C 39.699219 2.636719 39.53125 2.691406 39.46875 2.753906 C 39.429688 2.789062 39.417969 2.828125 39.417969 2.914062 C 39.417969 3.070312 39.453125 3.097656 39.574219 3.039062 C 39.722656 2.960938 39.925781 2.910156 40.039062 2.925781 C 40.183594 2.941406 40.253906 3.019531 40.269531 3.171875 L 40.28125 3.289062 L 40.039062 3.300781 C 39.761719 3.316406 39.589844 3.363281 39.484375 3.453125 C 39.394531 3.53125 39.324219 3.675781 39.324219 3.789062 C 39.324219 4.097656 39.53125 4.289062 39.859375 4.289062 C 40.023438 4.289062 40.136719 4.25 40.261719 4.152344 L 40.34375 4.089844 L 40.34375 4.257812 L 40.507812 4.257812 C 40.660156 4.257812 40.667969 4.257812 40.683594 4.199219 C 40.691406 4.167969 40.691406 3.886719 40.6875 3.570312 C 40.675781 2.972656 40.664062 2.886719 40.558594 2.769531 C 40.449219 2.644531 40.171875 2.582031 39.886719 2.617188 Z M 40.273438 3.691406 C 40.273438 3.820312 40.269531 3.832031 40.195312 3.890625 C 40.085938 3.976562 40 4.003906 39.910156 3.988281 C 39.808594 3.96875 39.742188 3.890625 39.742188 3.789062 C 39.742188 3.636719 39.875 3.558594 40.15625 3.554688 L 40.273438 3.554688 Z M 40.273438 3.691406 "/>
<path style=" stroke:none;fill-rule:nonzero;fill:rgb(0%,0%,0%);fill-opacity:1;" d="M 42.003906 2.613281 C 41.871094 2.636719 41.808594 2.664062 41.683594 2.761719 L 41.574219 2.847656 L 41.574219 2.769531 C 41.574219 2.660156 41.539062 2.636719 41.386719 2.636719 C 41.316406 2.636719 41.246094 2.648438 41.230469 2.664062 C 41.1875 2.707031 41.191406 4.195312 41.234375 4.234375 C 41.257812 4.25 41.332031 4.257812 41.4375 4.253906 L 41.609375 4.246094 L 41.617188 3.726562 L 41.621094 3.203125 L 41.714844 3.109375 C 41.890625 2.933594 42.054688 2.925781 42.152344 3.085938 C 42.195312 3.15625 42.199219 3.207031 42.199219 3.683594 C 42.199219 4.105469 42.207031 4.210938 42.230469 4.234375 C 42.253906 4.25 42.328125 4.257812 42.4375 4.253906 L 42.605469 4.246094 L 42.613281 3.671875 C 42.617188 3.308594 42.609375 3.058594 42.59375 2.992188 C 42.527344 2.71875 42.289062 2.566406 42.003906 2.613281 Z M 42.003906 2.613281 "/>
<path style=" stroke:none;fill-rule:nonzero;fill:rgb(0%,0%,0%);fill-opacity:1;" d="M 23.695312 2.6875 C 23.652344 2.765625 23.679688 3.816406 23.730469 3.949219 C 23.8125 4.183594 23.960938 4.285156 24.210938 4.289062 C 24.378906 4.289062 24.480469 4.25 24.632812 4.132812 L 24.738281 4.050781 L 24.746094 4.148438 L 24.75 4.246094 L 24.898438 4.253906 C 24.984375 4.257812 25.058594 4.25 25.078125 4.234375 C 25.128906 4.191406 25.128906 2.703125 25.078125 2.660156 C 25.058594 2.644531 24.980469 2.636719 24.875 2.640625 L 24.707031 2.648438 L 24.699219 3.164062 C 24.691406 3.742188 24.695312 3.734375 24.503906 3.863281 C 24.378906 3.949219 24.296875 3.949219 24.203125 3.863281 L 24.125 3.792969 L 24.117188 3.246094 C 24.113281 2.902344 24.101562 2.683594 24.085938 2.667969 C 24.070312 2.648438 24.003906 2.636719 23.890625 2.636719 C 23.742188 2.636719 23.71875 2.640625 23.695312 2.6875 Z M 23.695312 2.6875 "/>
<path style=" stroke:none;fill-rule:nonzero;fill:rgb(0%,0%,0%);fill-opacity:1;" d="M 28.675781 2.652344 C 28.664062 2.660156 28.660156 2.683594 28.660156 2.707031 C 28.660156 2.769531 29.070312 4.191406 29.101562 4.226562 C 29.132812 4.265625 29.527344 4.273438 29.582031 4.238281 C 29.597656 4.230469 29.667969 4.003906 29.734375 3.738281 L 29.855469 3.257812 L 29.894531 3.386719 C 29.914062 3.460938 29.96875 3.660156 30.015625 3.835938 C 30.132812 4.277344 30.121094 4.257812 30.382812 4.257812 C 30.535156 4.257812 30.609375 4.25 30.628906 4.230469 C 30.667969 4.179688 31.074219 2.773438 31.066406 2.707031 C 31.058594 2.648438 31.050781 2.648438 30.878906 2.640625 C 30.726562 2.636719 30.699219 2.640625 30.679688 2.675781 C 30.667969 2.699219 30.597656 2.957031 30.523438 3.253906 C 30.449219 3.546875 30.382812 3.777344 30.371094 3.769531 C 30.363281 3.761719 30.292969 3.511719 30.214844 3.214844 C 30.136719 2.917969 30.0625 2.667969 30.046875 2.65625 C 29.996094 2.625 29.710938 2.628906 29.683594 2.664062 C 29.671875 2.679688 29.597656 2.945312 29.519531 3.246094 C 29.445312 3.550781 29.378906 3.785156 29.371094 3.765625 C 29.359375 3.746094 29.296875 3.507812 29.226562 3.234375 C 29.15625 2.960938 29.085938 2.71875 29.074219 2.6875 C 29.054688 2.640625 29.039062 2.636719 28.871094 2.636719 C 28.773438 2.636719 28.683594 2.644531 28.675781 2.652344 Z M 28.675781 2.652344 "/>
<path style=" stroke:none;fill-rule:nonzero;fill:rgb(0%,0%,0%);fill-opacity:1;" d="M 9.042969 26.46875 L 9.042969 26.683594 L 8.117188 26.683594 L 8.117188 27.507812 L 9.039062 27.507812 L 9.046875 27.71875 L 9.054688 27.933594 L 9.46875 27.515625 L 9.878906 27.097656 L 9.460938 26.671875 L 9.042969 26.25 Z M 9.445312 27.375 L 9.171875 27.648438 L 9.15625 27.390625 L 8.230469 27.390625 L 8.230469 26.800781 L 9.160156 26.800781 L 9.160156 26.53125 L 9.4375 26.8125 L 9.714844 27.097656 Z M 9.445312 27.375 "/>
<path style=" stroke:none;fill-rule:nonzero;fill:rgb(0%,0%,0%);fill-opacity:1;" d="M 16.742188 11.871094 L 16.742188 14.636719 L 22.746094 14.636719 L 22.746094 15.367188 L 28.75 15.367188 L 28.75 16 L 34.871094 16 L 34.871094 10.472656 L 28.867188 10.472656 L 28.867188 9.835938 L 22.863281 9.835938 L 22.863281 9.105469 L 16.742188 9.105469 Z M 22.746094 11.871094 L 22.746094 14.519531 L 16.855469 14.519531 L 16.855469 9.222656 L 22.746094 9.222656 Z M 28.75 12.601562 L 28.75 15.25 L 22.863281 15.25 L 22.863281 9.953125 L 28.75 9.953125 Z M 34.757812 13.238281 L 34.757812 15.882812 L 28.867188 15.882812 L 28.867188 10.589844 L 34.757812 10.589844 Z M 34.757812 13.238281 "/>
<path style=" stroke:none;fill-rule:nonzero;fill:rgb(0%,0%,0%);fill-opacity:1;" d="M 48.160156 19.144531 L 48.160156 20.332031 L 50.753906 20.332031 L 50.753906 17.953125 L 48.160156 17.953125 Z M 50.640625 19.144531 L 50.640625 20.214844 L 48.273438 20.214844 L 48.273438 18.074219 L 50.640625 18.074219 Z M 50.640625 19.144531 "/>
<path style=" stroke:none;fill-rule:nonzero;fill:rgb(0%,0%,0%);fill-opacity:1;" d="M 49.15625 40.109375 C 49.1875 40.148438 49.179688 40.402344 49.144531 40.480469 C 49.128906 40.515625 49.140625 40.519531 49.199219 40.519531 C 49.277344 40.519531 49.285156 40.5 49.246094 40.425781 C 49.234375 40.398438 49.226562 40.332031 49.230469 40.269531 L 49.238281 40.160156 L 49.363281 40.34375 C 49.429688 40.441406 49.492188 40.519531 49.503906 40.519531 C 49.515625 40.519531 49.527344 40.4375 49.53125 40.339844 C 49.539062 40.238281 49.550781 40.136719 49.558594 40.113281 C 49.574219 40.082031 49.566406 40.074219 49.503906 40.074219 C 49.441406 40.074219 49.429688 40.082031 49.449219 40.113281 C 49.476562 40.183594 49.488281 40.363281 49.464844 40.351562 C 49.449219 40.339844 49.402344 40.277344 49.351562 40.203125 C 49.277344 40.09375 49.253906 40.074219 49.195312 40.074219 C 49.136719 40.074219 49.128906 40.078125 49.15625 40.109375 Z M 49.15625 40.109375 "/>
<path style=" stroke:none;fill-rule:nonzero;fill:rgb(0%,0%,0%);fill-opacity:1;" d="M 49.328125 40.761719 C 49.324219 40.777344 49.21875 41.289062 49.09375 41.898438 C 48.972656 42.503906 48.867188 43.007812 48.867188 43.011719 C 48.859375 43.015625 48.671875 42.894531 48.445312 42.746094 C 48.21875 42.597656 48.027344 42.480469 48.023438 42.488281 C 48.011719 42.5 48.054688 42.574219 48.328125 42.996094 C 48.507812 43.28125 48.542969 43.34375 48.511719 43.355469 C 48.488281 43.359375 47.976562 43.46875 47.375 43.59375 C 46.53125 43.769531 46.285156 43.828125 46.308594 43.851562 C 46.324219 43.867188 46.828125 43.980469 47.425781 44.109375 C 48.027344 44.230469 48.519531 44.339844 48.523438 44.34375 C 48.53125 44.351562 48.414062 44.542969 48.265625 44.773438 C 48.121094 45.003906 48.007812 45.195312 48.015625 45.199219 C 48.027344 45.203125 48.222656 45.085938 48.449219 44.933594 C 48.679688 44.78125 48.867188 44.667969 48.871094 44.679688 C 48.871094 44.6875 48.976562 45.195312 49.101562 45.804688 C 49.300781 46.808594 49.34375 46.976562 49.375 46.941406 C 49.378906 46.9375 49.484375 46.4375 49.609375 45.828125 C 49.734375 45.21875 49.84375 44.710938 49.851562 44.699219 C 49.863281 44.6875 50.046875 44.796875 50.265625 44.941406 C 50.484375 45.085938 50.675781 45.203125 50.6875 45.203125 C 50.703125 45.203125 50.691406 45.171875 50.664062 45.125 C 50.640625 45.085938 50.605469 45.054688 50.597656 45.054688 C 50.574219 45.0625 49.929688 44.410156 49.945312 44.394531 C 49.949219 44.390625 49.996094 44.378906 50.042969 44.367188 L 50.128906 44.351562 L 50.351562 44.695312 C 50.476562 44.882812 50.582031 45.035156 50.585938 45.03125 C 50.59375 45.027344 50.5 44.871094 50.382812 44.6875 C 50.265625 44.503906 50.171875 44.351562 50.179688 44.34375 C 50.183594 44.339844 50.679688 44.230469 51.285156 44.109375 C 52.3125 43.890625 52.449219 43.859375 52.425781 43.832031 C 52.417969 43.824219 51.925781 43.71875 51.324219 43.59375 C 50.726562 43.464844 50.222656 43.355469 50.207031 43.347656 C 50.1875 43.339844 50.269531 43.191406 50.441406 42.921875 C 50.589844 42.695312 50.710938 42.5 50.710938 42.488281 C 50.710938 42.460938 50.523438 42.574219 50.523438 42.605469 C 50.523438 42.617188 50.382812 42.765625 50.21875 42.9375 C 49.90625 43.253906 49.875 43.273438 49.875 43.121094 C 49.875 43.058594 49.902344 43.03125 50.1875 42.839844 C 50.359375 42.726562 50.496094 42.628906 50.492188 42.621094 C 50.488281 42.617188 50.34375 42.703125 50.171875 42.816406 C 49.957031 42.960938 49.859375 43.007812 49.847656 42.988281 C 49.839844 42.972656 49.730469 42.457031 49.605469 41.84375 C 49.484375 41.234375 49.371094 40.734375 49.359375 40.734375 C 49.347656 40.734375 49.335938 40.746094 49.328125 40.761719 Z M 49.335938 43.074219 L 49.328125 43.769531 L 48.859375 43.285156 L 49.09375 42.148438 L 49.328125 41.007812 L 49.335938 41.691406 C 49.339844 42.070312 49.339844 42.691406 49.335938 43.074219 Z M 48.699219 43.3125 C 48.648438 43.328125 48.605469 43.332031 48.59375 43.328125 C 48.574219 43.316406 48.359375 43 48.21875 42.769531 C 48.136719 42.632812 48.148438 42.644531 48.457031 42.957031 L 48.785156 43.285156 Z M 50.976562 43.570312 C 51.5625 43.695312 52.054688 43.796875 52.066406 43.800781 C 52.078125 43.808594 51.488281 43.8125 50.753906 43.8125 L 49.421875 43.816406 L 49.652344 43.582031 C 49.78125 43.449219 49.890625 43.34375 49.898438 43.34375 C 49.90625 43.34375 50.390625 43.445312 50.976562 43.570312 Z M 49.066406 44.109375 C 48.933594 44.242188 48.8125 44.351562 48.796875 44.34375 C 48.785156 44.339844 48.289062 44.234375 47.695312 44.109375 C 47.101562 43.984375 46.605469 43.878906 46.59375 43.875 C 46.582031 43.871094 47.183594 43.867188 47.9375 43.867188 L 49.304688 43.863281 Z M 49.621094 45.511719 L 49.390625 46.628906 L 49.390625 45.273438 L 49.386719 43.921875 L 49.621094 44.15625 L 49.851562 44.394531 Z M 48.835938 44.511719 C 48.839844 44.542969 48.839844 44.582031 48.839844 44.601562 C 48.84375 44.628906 48.347656 44.980469 48.183594 45.074219 C 48.164062 45.082031 48.289062 44.949219 48.460938 44.769531 C 48.636719 44.59375 48.792969 44.453125 48.804688 44.453125 C 48.820312 44.453125 48.832031 44.476562 48.835938 44.511719 Z M 48.835938 44.511719 "/>
<path style=" stroke:none;fill-rule:nonzero;fill:rgb(0%,0%,0%);fill-opacity:1;" d="M 45.515625 43.621094 C 45.515625 43.628906 45.53125 43.660156 45.550781 43.683594 C 45.570312 43.707031 45.605469 43.800781 45.632812 43.882812 C 45.660156 43.96875 45.691406 44.050781 45.703125 44.0625 C 45.714844 44.074219 45.746094 44.03125 45.773438 43.960938 C 45.800781 43.894531 45.832031 43.839844 45.839844 43.839844 C 45.847656 43.839844 45.871094 43.886719 45.886719 43.945312 C 45.902344 44.003906 45.925781 44.058594 45.9375 44.066406 C 45.945312 44.074219 45.976562 44.03125 46.003906 43.972656 C 46.042969 43.871094 46.140625 43.664062 46.160156 43.621094 C 46.164062 43.609375 46.132812 43.605469 46.085938 43.605469 C 46.003906 43.605469 45.972656 43.636719 46.03125 43.65625 C 46.054688 43.664062 46.046875 43.699219 46.015625 43.804688 L 45.972656 43.945312 L 45.9375 43.863281 C 45.917969 43.816406 45.898438 43.742188 45.894531 43.691406 C 45.882812 43.613281 45.871094 43.605469 45.8125 43.605469 C 45.738281 43.605469 45.734375 43.609375 45.773438 43.671875 C 45.796875 43.707031 45.792969 43.742188 45.769531 43.824219 C 45.753906 43.886719 45.734375 43.925781 45.722656 43.917969 C 45.707031 43.898438 45.644531 43.683594 45.644531 43.640625 C 45.644531 43.625 45.613281 43.613281 45.582031 43.609375 C 45.542969 43.605469 45.515625 43.609375 45.515625 43.621094 Z M 45.515625 43.621094 "/>
<path style=" stroke:none;fill-rule:nonzero;fill:rgb(0%,0%,0%);fill-opacity:1;" d="M 52.746094 43.621094 C 52.710938 43.625 52.648438 43.667969 52.609375 43.714844 C 52.546875 43.789062 52.539062 43.8125 52.550781 43.882812 C 52.566406 43.984375 52.65625 44.074219 52.746094 44.074219 C 52.832031 44.074219 52.960938 43.984375 52.992188 43.90625 C 53.015625 43.832031 52.996094 43.746094 52.941406 43.679688 C 52.894531 43.625 52.835938 43.605469 52.746094 43.621094 Z M 52.84375 43.707031 C 52.980469 43.8125 52.941406 44.027344 52.785156 44.027344 C 52.761719 44.027344 52.722656 44 52.691406 43.96875 C 52.628906 43.90625 52.609375 43.753906 52.660156 43.703125 C 52.695312 43.667969 52.796875 43.667969 52.84375 43.707031 Z M 52.84375 43.707031 "/>
<path style=" stroke:none;fill-rule:nonzero;fill:rgb(0%,0%,0%);fill-opacity:1;" d="M 49.324219 47.132812 C 49.261719 47.160156 49.214844 47.242188 49.242188 47.285156 C 49.25 47.300781 49.292969 47.34375 49.335938 47.382812 C 49.417969 47.449219 49.429688 47.503906 49.371094 47.527344 C 49.347656 47.535156 49.316406 47.519531 49.277344 47.472656 L 49.222656 47.40625 L 49.230469 47.488281 C 49.238281 47.558594 49.246094 47.570312 49.300781 47.578125 C 49.390625 47.589844 49.480469 47.523438 49.480469 47.449219 C 49.480469 47.40625 49.449219 47.359375 49.386719 47.300781 C 49.320312 47.242188 49.300781 47.207031 49.316406 47.183594 C 49.332031 47.160156 49.347656 47.15625 49.386719 47.179688 C 49.410156 47.195312 49.433594 47.214844 49.433594 47.226562 C 49.433594 47.242188 49.445312 47.25 49.457031 47.25 C 49.5 47.25 49.484375 47.160156 49.4375 47.132812 C 49.386719 47.109375 49.390625 47.109375 49.324219 47.132812 Z M 49.324219 47.132812 "/>
<path style=" stroke:none;fill-rule:nonzero;fill:rgb(0%,0%,0%);fill-opacity:1;" d="M 54.765625 6.941406 L 54.765625 7.058594 L 65.316406 7.058594 L 65.316406 6.824219 L 54.765625 6.824219 Z M 54.765625 6.941406 "/>
<path style=" stroke:none;fill-rule:nonzero;fill:rgb(0%,0%,0%);fill-opacity:1;" d="M 54.535156 8.28125 C 54.535156 8.300781 56.40625 8.308594 60.101562 8.308594 C 63.792969 8.308594 65.664062 8.300781 65.664062 8.28125 C 65.664062 8.265625 63.792969 8.257812 60.101562 8.257812 C 56.40625 8.257812 54.535156 8.265625 54.535156 8.28125 Z M 54.535156 8.28125 "/>
<path style=" stroke:none;fill-rule:nonzero;fill:rgb(0%,0%,0%);fill-opacity:1;" d="M 55.207031 9.367188 L 55.207031 9.484375 L 59.683594 9.484375 L 59.683594 9.246094 L 55.207031 9.246094 Z M 55.207031 9.367188 "/>
<path style=" stroke:none;fill-rule:nonzero;fill:rgb(0%,0%,0%);fill-opacity:1;" d="M 55.207031 10.046875 L 55.207031 10.164062 L 60.726562 10.164062 L 60.726562 9.929688 L 55.207031 9.929688 Z M 55.207031 10.046875 "/>
<path style=" stroke:none;fill-rule:nonzero;fill:rgb(0%,0%,0%);fill-opacity:1;" d="M 55.207031 10.683594 L 55.207031 10.800781 L 61.863281 10.800781 L 61.863281 10.566406 L 55.207031 10.566406 Z M 55.207031 10.683594 "/>
<path style=" stroke:none;fill-rule:nonzero;fill:rgb(0%,0%,0%);fill-opacity:1;" d="M 54.535156 12.332031 C 54.535156 12.347656 56.40625 12.355469 60.101562 12.355469 C 63.792969 12.355469 65.664062 12.347656 65.664062 12.332031 C 65.664062 12.3125 63.792969 12.308594 60.101562 12.308594 C 56.40625 12.308594 54.535156 12.3125 54.535156 12.332031 Z M 54.535156 12.332031 "/>
<path style=" stroke:none;fill-rule:nonzero;fill:rgb(0%,0%,0%);fill-opacity:1;" d="M 55.253906 13.25 L 55.253906 13.367188 L 59.730469 13.367188 L 59.730469 13.128906 L 55.253906 13.128906 Z M 55.253906 13.25 "/>
<path style=" stroke:none;fill-rule:nonzero;fill:rgb(0%,0%,0%);fill-opacity:1;" d="M 55.253906 13.929688 L 55.253906 14.046875 L 60.773438 14.046875 L 60.773438 13.8125 L 55.253906 13.8125 Z M 55.253906 13.929688 "/>
<path style=" stroke:none;fill-rule:nonzero;fill:rgb(0%,0%,0%);fill-opacity:1;" d="M 55.253906 14.566406 L 55.253906 14.683594 L 61.910156 14.683594 L 61.910156 14.449219 L 55.253906 14.449219 Z M 55.253906 14.566406 "/>
<path style=" stroke:none;fill-rule:nonzero;fill:rgb(0%,0%,0%);fill-opacity:1;" d="M 54.535156 15.976562 C 54.535156 15.996094 56.40625 16 60.101562 16 C 63.792969 16 65.664062 15.996094 65.664062 15.976562 C 65.664062 15.960938 63.792969 15.953125 60.101562 15.953125 C 56.40625 15.953125 54.535156 15.960938 54.535156 15.976562 Z M 54.535156 15.976562 "/>
<path style=" stroke:none;fill-rule:nonzero;fill:rgb(0%,0%,0%);fill-opacity:1;" d="M 55.113281 16.707031 L 55.113281 16.824219 L 59.589844 16.824219 L 59.589844 16.589844 L 55.113281 16.589844 Z M 55.113281 16.707031 "/>
<path style=" stroke:none;fill-rule:nonzero;fill:rgb(0%,0%,0%);fill-opacity:1;" d="M 55.113281 17.390625 L 55.113281 17.507812 L 60.632812 17.507812 L 60.632812 17.273438 L 55.113281 17.273438 Z M 55.113281 17.390625 "/>
<path style=" stroke:none;fill-rule:nonzero;fill:rgb(0%,0%,0%);fill-opacity:1;" d="M 55.113281 18 L 55.113281 18.121094 L 61.769531 18.121094 L 61.769531 17.882812 L 55.113281 17.882812 Z M 55.113281 18 "/>
<path style=" stroke:none;fill-rule:nonzero;fill:rgb(0%,0%,0%);fill-opacity:1;" d="M 54.535156 19.085938 C 54.535156 19.101562 56.40625 19.109375 60.101562 19.109375 C 63.792969 19.109375 65.664062 19.101562 65.664062 19.085938 C 65.664062 19.066406 63.792969 19.0625 60.101562 19.0625 C 56.40625 19.0625 54.535156 19.066406 54.535156 19.085938 Z M 54.535156 19.085938 "/>
<path style=" stroke:none;fill-rule:nonzero;fill:rgb(0%,0%,0%);fill-opacity:1;" d="M 55.207031 20.191406 L 55.207031 20.308594 L 59.683594 20.308594 L 59.683594 20.074219 L 55.207031 20.074219 Z M 55.207031 20.191406 "/>
<path style=" stroke:none;fill-rule:nonzero;fill:rgb(0%,0%,0%);fill-opacity:1;" d="M 55.207031 20.847656 L 55.207031 20.964844 L 60.726562 20.964844 L 60.726562 20.730469 L 55.207031 20.730469 Z M 55.207031 20.847656 "/>
<path style=" stroke:none;fill-rule:nonzero;fill:rgb(0%,0%,0%);fill-opacity:1;" d="M 55.207031 21.484375 L 55.207031 21.601562 L 61.863281 21.601562 L 61.863281 21.367188 L 55.207031 21.367188 Z M 55.207031 21.484375 "/>
<path style=" stroke:none;fill-rule:nonzero;fill:rgb(0%,0%,0%);fill-opacity:1;" d="M 54.535156 23.132812 C 54.535156 23.148438 56.40625 23.15625 60.101562 23.15625 C 63.792969 23.15625 65.664062 23.148438 65.664062 23.132812 C 65.664062 23.113281 63.792969 23.109375 60.101562 23.109375 C 56.40625 23.109375 54.535156 23.113281 54.535156 23.132812 Z M 54.535156 23.132812 "/>
<path style=" stroke:none;fill-rule:nonzero;fill:rgb(0%,0%,0%);fill-opacity:1;" d="M 55.253906 24.074219 L 55.253906 24.191406 L 59.730469 24.191406 L 59.730469 23.957031 L 55.253906 23.957031 Z M 55.253906 24.074219 "/>
<path style=" stroke:none;fill-rule:nonzero;fill:rgb(0%,0%,0%);fill-opacity:1;" d="M 55.253906 24.730469 L 55.253906 24.847656 L 60.773438 24.847656 L 60.773438 24.613281 L 55.253906 24.613281 Z M 55.253906 24.730469 "/>
<path style=" stroke:none;fill-rule:nonzero;fill:rgb(0%,0%,0%);fill-opacity:1;" d="M 55.253906 25.367188 L 55.253906 25.484375 L 61.910156 25.484375 L 61.910156 25.25 L 55.253906 25.25 Z M 55.253906 25.367188 "/>
<path style=" stroke:none;fill-rule:nonzero;fill:rgb(0%,0%,0%);fill-opacity:1;" d="M 54.535156 26.777344 C 54.535156 26.796875 56.40625 26.800781 60.101562 26.800781 C 63.792969 26.800781 65.664062 26.796875 65.664062 26.777344 C 65.664062 26.761719 63.792969 26.753906 60.101562 26.753906 C 56.40625 26.753906 54.535156 26.761719 54.535156 26.777344 Z M 54.535156 26.777344 "/>
<path style=" stroke:none;fill-rule:nonzero;fill:rgb(0%,0%,0%);fill-opacity:1;" d="M 55.113281 27.507812 L 55.113281 27.625 L 59.589844 27.625 L 59.589844 27.390625 L 55.113281 27.390625 Z M 55.113281 27.507812 "/>
<path style=" stroke:none;fill-rule:nonzero;fill:rgb(0%,0%,0%);fill-opacity:1;" d="M 55.113281 28.191406 L 55.113281 28.308594 L 60.632812 28.308594 L 60.632812 28.074219 L 55.113281 28.074219 Z M 55.113281 28.191406 "/>
<path style=" stroke:none;fill-rule:nonzero;fill:rgb(0%,0%,0%);fill-opacity:1;" d="M 55.113281 28.800781 L 55.113281 28.921875 L 61.769531 28.921875 L 61.769531 28.683594 L 55.113281 28.683594 Z M 55.113281 28.800781 "/>
<path style=" stroke:none;fill-rule:nonzero;fill:rgb(0%,0%,0%);fill-opacity:1;" d="M 54.488281 29.839844 C 54.488281 29.855469 56.359375 29.863281 60.054688 29.863281 C 63.746094 29.863281 65.617188 29.855469 65.617188 29.839844 C 65.617188 29.820312 63.746094 29.816406 60.054688 29.816406 C 56.359375 29.816406 54.488281 29.820312 54.488281 29.839844 Z M 54.488281 29.839844 "/>
<path style=" stroke:none;fill-rule:nonzero;fill:rgb(0%,0%,0%);fill-opacity:1;" d="M 55.160156 30.921875 L 55.160156 31.039062 L 59.636719 31.039062 L 59.636719 30.804688 L 55.160156 30.804688 Z M 55.160156 30.921875 "/>
<path style=" stroke:none;fill-rule:nonzero;fill:rgb(0%,0%,0%);fill-opacity:1;" d="M 55.160156 31.601562 L 55.160156 31.71875 L 60.679688 31.71875 L 60.679688 31.484375 L 55.160156 31.484375 Z M 55.160156 31.601562 "/>
<path style=" stroke:none;fill-rule:nonzero;fill:rgb(0%,0%,0%);fill-opacity:1;" d="M 55.160156 32.214844 L 55.160156 32.332031 L 61.816406 32.332031 L 61.816406 32.097656 L 55.160156 32.097656 Z M 55.160156 32.214844 "/>
<path style=" stroke:none;fill-rule:nonzero;fill:rgb(0%,0%,0%);fill-opacity:1;" d="M 54.488281 33.886719 C 54.488281 33.902344 56.359375 33.910156 60.054688 33.910156 C 63.746094 33.910156 65.617188 33.902344 65.617188 33.886719 C 65.617188 33.867188 63.746094 33.863281 60.054688 33.863281 C 56.359375 33.863281 54.488281 33.867188 54.488281 33.886719 Z M 54.488281 33.886719 "/>
<path style=" stroke:none;fill-rule:nonzero;fill:rgb(0%,0%,0%);fill-opacity:1;" d="M 55.207031 34.804688 L 55.207031 34.921875 L 59.683594 34.921875 L 59.683594 34.6875 L 55.207031 34.6875 Z M 55.207031 34.804688 "/>
<path style=" stroke:none;fill-rule:nonzero;fill:rgb(0%,0%,0%);fill-opacity:1;" d="M 55.207031 35.484375 L 55.207031 35.601562 L 60.726562 35.601562 L 60.726562 35.367188 L 55.207031 35.367188 Z M 55.207031 35.484375 "/>
<path style=" stroke:none;fill-rule:nonzero;fill:rgb(0%,0%,0%);fill-opacity:1;" d="M 55.207031 36.097656 L 55.207031 36.214844 L 61.863281 36.214844 L 61.863281 35.980469 L 55.207031 35.980469 Z M 55.207031 36.097656 "/>
<path style=" stroke:none;fill-rule:nonzero;fill:rgb(0%,0%,0%);fill-opacity:1;" d="M 54.488281 37.53125 C 54.488281 37.550781 56.359375 37.554688 60.054688 37.554688 C 63.746094 37.554688 65.617188 37.550781 65.617188 37.53125 C 65.617188 37.515625 63.746094 37.507812 60.054688 37.507812 C 56.359375 37.507812 54.488281 37.515625 54.488281 37.53125 Z M 54.488281 37.53125 "/>
<path style=" stroke:none;fill-rule:nonzero;fill:rgb(0%,0%,0%);fill-opacity:1;" d="M 55.066406 38.261719 L 55.066406 38.378906 L 59.542969 38.378906 L 59.542969 38.144531 L 55.066406 38.144531 Z M 55.066406 38.261719 "/>
<path style=" stroke:none;fill-rule:nonzero;fill:rgb(0%,0%,0%);fill-opacity:1;" d="M 55.066406 38.921875 L 55.066406 39.039062 L 60.585938 39.039062 L 60.585938 38.804688 L 55.066406 38.804688 Z M 55.066406 38.921875 "/>
<path style=" stroke:none;fill-rule:nonzero;fill:rgb(0%,0%,0%);fill-opacity:1;" d="M 55.066406 39.558594 L 55.066406 39.675781 L 61.722656 39.675781 L 61.722656 39.4375 L 55.066406 39.4375 Z M 55.066406 39.558594 "/>
<path style=" stroke:none;fill-rule:nonzero;fill:rgb(0%,0%,0%);fill-opacity:1;" d="M 54.417969 40.640625 C 54.417969 40.65625 56.289062 40.664062 59.984375 40.664062 C 63.675781 40.664062 65.546875 40.65625 65.546875 40.640625 C 65.546875 40.621094 63.675781 40.617188 59.984375 40.617188 C 56.289062 40.617188 54.417969 40.621094 54.417969 40.640625 Z M 54.417969 40.640625 "/>
<path style=" stroke:none;fill-rule:nonzero;fill:rgb(0%,0%,0%);fill-opacity:1;" d="M 55 41.367188 L 55 41.484375 L 59.472656 41.484375 L 59.472656 41.25 L 55 41.25 Z M 55 41.367188 "/>
<path style=" stroke:none;fill-rule:nonzero;fill:rgb(0%,0%,0%);fill-opacity:1;" d="M 55 42.027344 L 55 42.144531 L 60.515625 42.144531 L 60.515625 41.910156 L 55 41.910156 Z M 55 42.027344 "/>
<path style=" stroke:none;fill-rule:nonzero;fill:rgb(0%,0%,0%);fill-opacity:1;" d="M 55 42.664062 L 55 42.78125 L 61.652344 42.78125 L 61.652344 42.546875 L 55 42.546875 Z M 55 42.664062 "/>
<path style=" stroke:none;fill-rule:nonzero;fill:rgb(0%,0%,0%);fill-opacity:1;" d="M 43.613281 28.71875 C 43.613281 28.726562 44 29.0625 44.050781 29.097656 C 44.058594 29.105469 44.011719 29.167969 43.949219 29.25 C 43.886719 29.328125 43.84375 29.394531 43.847656 29.402344 C 43.855469 29.40625 43.90625 29.351562 43.960938 29.277344 L 44.066406 29.144531 L 44.074219 29.691406 L 44.078125 30.238281 L 45.71875 30.234375 L 47.359375 30.226562 L 45.730469 30.222656 L 44.101562 30.214844 L 44.101562 29.15625 L 44.484375 29.15625 C 44.722656 29.15625 44.867188 29.144531 44.867188 29.132812 C 44.867188 29.117188 44.726562 29.109375 44.488281 29.109375 L 44.109375 29.109375 L 43.871094 28.910156 C 43.640625 28.714844 43.613281 28.695312 43.613281 28.71875 Z M 43.613281 28.71875 "/>
<path style=" stroke:none;fill-rule:nonzero;fill:rgb(0%,0%,0%);fill-opacity:1;" d="M 36.285156 25.484375 C 36.285156 25.496094 36.296875 25.507812 36.308594 25.507812 C 36.324219 25.507812 36.332031 25.496094 36.332031 25.484375 C 36.332031 25.46875 36.324219 25.460938 36.308594 25.460938 C 36.296875 25.460938 36.285156 25.46875 36.285156 25.484375 Z M 36.285156 25.484375 "/>
<path style=" stroke:none;fill-rule:nonzero;fill:rgb(0%,0%,0%);fill-opacity:1;" d="M 36.285156 25.746094 C 36.285156 25.757812 36.296875 25.761719 36.308594 25.753906 C 36.324219 25.75 36.332031 25.738281 36.332031 25.730469 C 36.332031 25.726562 36.324219 25.71875 36.308594 25.71875 C 36.296875 25.71875 36.285156 25.730469 36.285156 25.746094 Z M 36.285156 25.746094 "/>
<path style=" stroke:none;fill-rule:nonzero;fill:rgb(0%,0%,0%);fill-opacity:1;" d="M 36.011719 26.558594 C 35.972656 26.578125 35.917969 26.695312 35.917969 26.761719 C 35.917969 26.84375 35.996094 26.9375 36.082031 26.957031 C 36.167969 26.972656 36.257812 26.933594 36.277344 26.867188 C 36.285156 26.835938 36.304688 26.828125 36.328125 26.835938 C 36.359375 26.847656 36.363281 26.847656 36.339844 26.824219 C 36.292969 26.773438 36.304688 26.726562 36.363281 26.742188 L 36.414062 26.753906 L 36.359375 26.726562 C 36.332031 26.714844 36.3125 26.691406 36.316406 26.675781 C 36.332031 26.632812 36.191406 26.542969 36.117188 26.546875 C 36.074219 26.546875 36.03125 26.554688 36.011719 26.558594 Z M 36.222656 26.628906 C 36.273438 26.679688 36.277344 26.808594 36.230469 26.859375 C 36.132812 26.957031 35.980469 26.902344 35.96875 26.761719 C 35.953125 26.621094 36.121094 26.535156 36.222656 26.628906 Z M 36.222656 26.628906 "/>
<path style=" stroke:none;fill-rule:nonzero;fill:rgb(0%,0%,0%);fill-opacity:1;" d="M 36.65625 26.875 C 36.675781 26.886719 36.703125 26.898438 36.714844 26.898438 C 36.730469 26.898438 36.722656 26.886719 36.703125 26.875 C 36.6875 26.863281 36.660156 26.847656 36.644531 26.847656 C 36.636719 26.847656 36.640625 26.863281 36.65625 26.875 Z M 36.65625 26.875 "/>
<path style=" stroke:none;fill-rule:nonzero;fill:rgb(0%,0%,0%);fill-opacity:1;" d="M 36.449219 26.90625 C 36.449219 26.914062 36.46875 26.929688 36.496094 26.945312 C 36.519531 26.957031 36.542969 26.960938 36.542969 26.957031 C 36.542969 26.949219 36.519531 26.933594 36.496094 26.921875 C 36.46875 26.90625 36.449219 26.902344 36.449219 26.90625 Z M 36.449219 26.90625 "/>
<path style=" stroke:none;fill-rule:nonzero;fill:rgb(0%,0%,0%);fill-opacity:1;" d="M 36.414062 27.085938 C 36.492188 27.164062 36.558594 27.226562 36.5625 27.226562 C 36.570312 27.226562 36.515625 27.164062 36.4375 27.085938 C 36.359375 27.007812 36.292969 26.945312 36.289062 26.945312 C 36.28125 26.945312 36.339844 27.007812 36.414062 27.085938 Z M 36.414062 27.085938 "/>
<path style=" stroke:none;fill-rule:nonzero;fill:rgb(0%,0%,0%);fill-opacity:1;" d="M 36.21875 27.039062 C 36.230469 27.0625 36.246094 27.085938 36.253906 27.085938 C 36.257812 27.085938 36.253906 27.0625 36.242188 27.039062 C 36.226562 27.011719 36.210938 26.992188 36.203125 26.992188 C 36.199219 26.992188 36.203125 27.011719 36.21875 27.039062 Z M 36.21875 27.039062 "/>
<path style=" stroke:none;fill-rule:nonzero;fill:rgb(0%,0%,0%);fill-opacity:1;" d="M 36.332031 27.226562 C 36.347656 27.253906 36.363281 27.273438 36.371094 27.273438 C 36.375 27.273438 36.371094 27.253906 36.355469 27.226562 C 36.34375 27.199219 36.328125 27.179688 36.320312 27.179688 C 36.316406 27.179688 36.320312 27.199219 36.332031 27.226562 Z M 36.332031 27.226562 "/>
<path style=" stroke:none;fill-rule:nonzero;fill:rgb(0%,0%,0%);fill-opacity:1;" d="M 36.820312 26.945312 C 36.839844 26.957031 36.867188 26.96875 36.878906 26.96875 C 36.890625 26.96875 36.886719 26.957031 36.867188 26.945312 C 36.847656 26.933594 36.824219 26.921875 36.808594 26.921875 C 36.796875 26.921875 36.800781 26.933594 36.820312 26.945312 Z M 36.820312 26.945312 "/>
<path style=" stroke:none;fill-rule:nonzero;fill:rgb(0%,0%,0%);fill-opacity:1;" d="M 37.144531 27.085938 C 37.164062 27.097656 37.191406 27.109375 37.203125 27.109375 C 37.21875 27.109375 37.210938 27.097656 37.191406 27.085938 C 37.171875 27.074219 37.148438 27.0625 37.132812 27.0625 C 37.121094 27.0625 37.125 27.074219 37.144531 27.085938 Z M 37.144531 27.085938 "/>
<path style=" stroke:none;fill-rule:nonzero;fill:rgb(0%,0%,0%);fill-opacity:1;" d="M 37.308594 27.15625 C 37.324219 27.167969 37.355469 27.179688 37.363281 27.179688 C 37.378906 27.179688 37.371094 27.167969 37.355469 27.15625 C 37.335938 27.144531 37.308594 27.132812 37.296875 27.132812 C 37.285156 27.132812 37.289062 27.144531 37.308594 27.15625 Z M 37.308594 27.15625 "/>
<path style=" stroke:none;fill-rule:nonzero;fill:rgb(0%,0%,0%);fill-opacity:1;" d="M 37.027344 27.28125 C 37.027344 27.289062 37.050781 27.304688 37.074219 27.320312 C 37.101562 27.335938 37.121094 27.339844 37.121094 27.335938 C 37.121094 27.328125 37.101562 27.3125 37.074219 27.296875 C 37.050781 27.28125 37.027344 27.277344 37.027344 27.28125 Z M 37.027344 27.28125 "/>
<path style=" stroke:none;fill-rule:nonzero;fill:rgb(0%,0%,0%);fill-opacity:1;" d="M 37.355469 27.496094 C 37.355469 27.5 37.375 27.519531 37.398438 27.53125 C 37.425781 27.546875 37.445312 27.550781 37.445312 27.546875 C 37.445312 27.539062 37.425781 27.523438 37.398438 27.507812 C 37.375 27.496094 37.355469 27.488281 37.355469 27.496094 Z M 37.355469 27.496094 "/>
<path style=" stroke:none;fill-rule:nonzero;fill:rgb(0%,0%,0%);fill-opacity:1;" d="M 36.703125 27.839844 C 36.71875 27.863281 36.734375 27.886719 36.742188 27.886719 C 36.746094 27.886719 36.742188 27.863281 36.726562 27.839844 C 36.714844 27.8125 36.699219 27.789062 36.691406 27.789062 C 36.6875 27.789062 36.691406 27.8125 36.703125 27.839844 Z M 36.703125 27.839844 "/>
<path style=" stroke:none;fill-rule:nonzero;fill:rgb(0%,0%,0%);fill-opacity:1;" d="M 54.492188 44.636719 C 54.488281 44.753906 54.492188 44.757812 54.542969 44.753906 C 54.613281 44.742188 54.628906 44.617188 54.558594 44.597656 C 54.535156 44.59375 54.507812 44.570312 54.503906 44.546875 C 54.496094 44.527344 54.492188 44.566406 54.492188 44.636719 Z M 54.582031 44.675781 C 54.582031 44.710938 54.566406 44.734375 54.546875 44.734375 C 54.527344 44.734375 54.511719 44.710938 54.511719 44.675781 C 54.511719 44.636719 54.527344 44.617188 54.546875 44.617188 C 54.566406 44.617188 54.582031 44.636719 54.582031 44.675781 Z M 54.582031 44.675781 "/>
<path style=" stroke:none;fill-rule:nonzero;fill:rgb(0%,0%,0%);fill-opacity:1;" d="M 54.890625 44.640625 C 54.886719 44.710938 54.890625 44.75 54.898438 44.726562 C 54.910156 44.683594 54.910156 44.683594 54.957031 44.726562 C 55.003906 44.769531 55.003906 44.769531 54.976562 44.714844 C 54.953125 44.671875 54.953125 44.652344 54.976562 44.621094 C 55.003906 44.585938 55.003906 44.585938 54.976562 44.609375 C 54.925781 44.652344 54.910156 44.648438 54.898438 44.574219 C 54.894531 44.539062 54.890625 44.570312 54.890625 44.640625 Z M 54.890625 44.640625 "/>
<path style=" stroke:none;fill-rule:nonzero;fill:rgb(0%,0%,0%);fill-opacity:1;" d="M 54.28125 44.578125 C 54.214844 44.660156 54.304688 44.796875 54.390625 44.742188 C 54.472656 44.691406 54.441406 44.546875 54.347656 44.546875 C 54.328125 44.546875 54.296875 44.5625 54.28125 44.578125 Z M 54.40625 44.652344 C 54.40625 44.707031 54.394531 44.722656 54.359375 44.730469 C 54.304688 44.734375 54.269531 44.683594 54.292969 44.609375 C 54.304688 44.582031 54.324219 44.570312 54.355469 44.574219 C 54.394531 44.578125 54.40625 44.597656 54.40625 44.652344 Z M 54.40625 44.652344 "/>
<path style=" stroke:none;fill-rule:nonzero;fill:rgb(0%,0%,0%);fill-opacity:1;" d="M 55.039062 44.570312 C 55.035156 44.585938 55.035156 44.632812 55.039062 44.675781 C 55.046875 44.734375 55.0625 44.757812 55.089844 44.753906 C 55.113281 44.753906 55.113281 44.75 55.097656 44.742188 C 55.0625 44.730469 55.054688 44.621094 55.089844 44.609375 C 55.101562 44.605469 55.097656 44.59375 55.078125 44.574219 C 55.058594 44.554688 55.046875 44.554688 55.039062 44.570312 Z M 55.039062 44.570312 "/>
<path style=" stroke:none;fill-rule:nonzero;fill:rgb(0%,0%,0%);fill-opacity:1;" d="M 54.644531 44.710938 C 54.644531 44.777344 54.644531 44.828125 54.65625 44.828125 C 54.667969 44.828125 54.675781 44.773438 54.675781 44.710938 C 54.675781 44.558594 54.65625 44.558594 54.644531 44.710938 Z M 54.644531 44.710938 "/>
<path style=" stroke:none;fill-rule:nonzero;fill:rgb(0%,0%,0%);fill-opacity:1;" d="M 54.730469 44.625 C 54.703125 44.691406 54.730469 44.746094 54.789062 44.75 L 54.847656 44.757812 L 54.789062 44.730469 L 54.730469 44.699219 L 54.796875 44.691406 C 54.84375 44.6875 54.859375 44.671875 54.851562 44.648438 C 54.84375 44.628906 54.835938 44.605469 54.835938 44.601562 C 54.835938 44.574219 54.742188 44.597656 54.730469 44.625 Z M 54.824219 44.640625 C 54.832031 44.652344 54.816406 44.664062 54.789062 44.664062 C 54.761719 44.664062 54.75 44.652344 54.753906 44.640625 C 54.761719 44.625 54.777344 44.617188 54.789062 44.617188 C 54.800781 44.617188 54.816406 44.625 54.824219 44.640625 Z M 54.824219 44.640625 "/>
<path style=" stroke:none;fill-rule:nonzero;fill:rgb(0%,0%,0%);fill-opacity:1;" d="M 54.535156 45.441406 L 54.535156 45.558594 L 59.011719 45.558594 L 59.011719 45.320312 L 54.535156 45.320312 Z M 54.535156 45.441406 "/>
<path style=" stroke:none;fill-rule:nonzero;fill:rgb(0%,0%,0%);fill-opacity:1;" d="M 54.535156 46.121094 L 54.535156 46.238281 L 60.054688 46.238281 L 60.054688 46.003906 L 54.535156 46.003906 Z M 54.535156 46.121094 "/>
<path style=" stroke:none;fill-rule:nonzero;fill:rgb(0%,0%,0%);fill-opacity:1;" d="M 54.535156 46.757812 L 54.535156 46.875 L 61.1875 46.875 L 61.1875 46.640625 L 54.535156 46.640625 Z M 54.535156 46.757812 "/>
</g>
</svg>
