<?xml version="1.0" encoding="UTF-8"?>
<svg xmlns="http://www.w3.org/2000/svg" xmlns:xlink="http://www.w3.org/1999/xlink" width="70px" height="50px" viewBox="0 0 70 50" version="1.1">
<g id="surface1">
<path style=" stroke:none;fill-rule:nonzero;fill:rgb(0%,0%,0%);fill-opacity:1;" d="M 0.0117188 0.539062 C 0.00390625 0.558594 0.00390625 11.691406 0.00390625 25.28125 L 0.0117188 49.992188 L 69.996094 49.992188 L 69.996094 0.523438 L 35.007812 0.515625 C 7.03125 0.511719 0.0195312 0.515625 0.0117188 0.539062 Z M 69.332031 3.257812 L 69.332031 5.324219 L 59.648438 5.320312 C 54.054688 5.320312 50.007812 5.308594 50.074219 5.296875 C 50.265625 5.257812 50.433594 5.160156 50.511719 5.035156 C 50.632812 4.839844 50.636719 4.816406 50.648438 3.738281 L 50.65625 2.722656 L 50.195312 2.722656 L 50.195312 2.945312 L 50.09375 2.859375 C 49.914062 2.714844 49.835938 2.6875 49.636719 2.6875 C 49.398438 2.6875 49.242188 2.757812 49.085938 2.929688 C 48.933594 3.097656 48.882812 3.234375 48.867188 3.550781 C 48.851562 3.863281 48.894531 4.054688 49.023438 4.246094 C 49.171875 4.472656 49.402344 4.585938 49.664062 4.5625 C 49.816406 4.546875 49.964844 4.484375 50.0625 4.375 C 50.101562 4.335938 50.144531 4.304688 50.15625 4.304688 C 50.167969 4.304688 50.171875 4.40625 50.164062 4.527344 C 50.144531 4.871094 50.082031 4.933594 49.753906 4.933594 C 49.621094 4.933594 49.578125 4.925781 49.539062 4.886719 C 49.511719 4.859375 49.492188 4.820312 49.492188 4.800781 C 49.492188 4.78125 49.460938 4.761719 49.414062 4.753906 C 49.300781 4.734375 48.960938 4.691406 48.929688 4.691406 C 48.886719 4.691406 48.929688 4.910156 48.996094 5.023438 C 49.070312 5.152344 49.214844 5.242188 49.421875 5.289062 C 49.554688 5.3125 45.933594 5.320312 25.128906 5.320312 L 0.679688 5.324219 L 0.679688 1.191406 L 69.332031 1.191406 Z M 50.003906 3.148438 C 50.113281 3.257812 50.148438 3.34375 50.164062 3.546875 C 50.179688 3.78125 50.144531 3.917969 50.027344 4.039062 C 49.824219 4.261719 49.492188 4.1875 49.390625 3.894531 C 49.351562 3.777344 49.351562 3.441406 49.390625 3.324219 C 49.40625 3.277344 49.464844 3.195312 49.519531 3.148438 C 49.613281 3.0625 49.621094 3.058594 49.773438 3.066406 C 49.902344 3.074219 49.9375 3.085938 50.003906 3.148438 Z M 69.332031 25.332031 L 69.332031 44.996094 L 56.296875 44.996094 L 56.296875 49.324219 L 56.03125 49.324219 L 56.03125 44.996094 L 0.679688 44.996094 L 0.679688 5.664062 L 69.332031 5.664062 Z M 55.789062 47.28125 L 55.789062 49.324219 L 0.679688 49.324219 L 0.679688 45.238281 L 55.789062 45.238281 Z M 64.921875 47.28125 L 64.921875 49.324219 L 56.539062 49.324219 L 56.539062 45.238281 L 64.921875 45.238281 Z M 69.332031 47.28125 L 69.332031 49.324219 L 65.164062 49.324219 L 65.164062 45.238281 L 69.332031 45.238281 Z M 69.332031 47.28125 "/>
<path style=" stroke:none;fill-rule:nonzero;fill:rgb(0%,0%,0%);fill-opacity:1;" d="M 15.261719 3.292969 L 15.261719 4.570312 L 15.769531 4.570312 L 15.773438 4.027344 L 15.78125 3.488281 L 16.3125 3.480469 L 16.835938 3.476562 L 16.835938 3.039062 L 15.769531 3.039062 L 15.769531 2.457031 L 17.003906 2.457031 L 17.003906 2.019531 L 15.261719 2.019531 Z M 15.261719 3.292969 "/>
<path style=" stroke:none;fill-rule:nonzero;fill:rgb(0%,0%,0%);fill-opacity:1;" d="M 17.539062 3.292969 L 17.539062 4.570312 L 18.046875 4.570312 L 18.046875 2.019531 L 17.539062 2.019531 Z M 17.539062 3.292969 "/>
<path style=" stroke:none;fill-rule:nonzero;fill:rgb(0%,0%,0%);fill-opacity:1;" d="M 23.039062 3.292969 L 23.039062 4.570312 L 23.519531 4.570312 L 23.527344 3.957031 C 23.535156 3.390625 23.539062 3.335938 23.585938 3.257812 C 23.660156 3.128906 23.773438 3.0625 23.921875 3.0625 C 24.078125 3.0625 24.164062 3.121094 24.199219 3.253906 C 24.210938 3.304688 24.226562 3.609375 24.226562 3.957031 L 24.226562 4.570312 L 24.710938 4.570312 L 24.710938 3.894531 C 24.710938 3.523438 24.695312 3.171875 24.683594 3.113281 C 24.621094 2.839844 24.402344 2.6875 24.078125 2.6875 C 23.875 2.6875 23.742188 2.742188 23.601562 2.875 L 23.523438 2.953125 L 23.523438 2.019531 L 23.039062 2.019531 Z M 23.039062 3.292969 "/>
<path style=" stroke:none;fill-rule:nonzero;fill:rgb(0%,0%,0%);fill-opacity:1;" d="M 34.8125 2.46875 L 34.8125 2.917969 L 34.703125 2.832031 C 34.589844 2.746094 34.394531 2.675781 34.273438 2.675781 C 34.003906 2.675781 33.734375 2.839844 33.613281 3.085938 C 33.464844 3.382812 33.464844 3.886719 33.613281 4.1875 C 33.835938 4.632812 34.402344 4.742188 34.746094 4.40625 L 34.835938 4.316406 L 34.835938 4.570312 L 35.296875 4.570312 L 35.296875 2.019531 L 34.8125 2.019531 Z M 34.609375 3.113281 C 34.652344 3.140625 34.710938 3.210938 34.742188 3.277344 C 34.789062 3.375 34.800781 3.429688 34.800781 3.632812 C 34.800781 3.847656 34.792969 3.894531 34.738281 4 C 34.621094 4.230469 34.351562 4.292969 34.167969 4.128906 C 34.046875 4.023438 34 3.871094 34 3.609375 C 34 3.421875 34.011719 3.371094 34.0625 3.28125 C 34.09375 3.222656 34.15625 3.148438 34.203125 3.117188 C 34.3125 3.046875 34.492188 3.042969 34.609375 3.113281 Z M 34.609375 3.113281 "/>
<path style=" stroke:none;fill-rule:nonzero;fill:rgb(0%,0%,0%);fill-opacity:1;" d="M 37.015625 3.292969 L 37.015625 4.570312 L 37.523438 4.570312 L 37.523438 3.5 L 37.640625 3.5 C 37.9375 3.5 38.019531 3.570312 38.410156 4.164062 L 38.675781 4.570312 L 39.296875 4.570312 L 39.261719 4.515625 C 39.246094 4.484375 39.136719 4.3125 39.023438 4.132812 C 38.816406 3.800781 38.621094 3.5625 38.507812 3.503906 C 38.4375 3.464844 38.425781 3.425781 38.480469 3.425781 C 38.554688 3.425781 38.792969 3.324219 38.867188 3.253906 C 39.199219 2.964844 39.132812 2.300781 38.753906 2.117188 C 38.578125 2.03125 38.421875 2.019531 37.703125 2.019531 L 37.015625 2.019531 Z M 38.421875 2.511719 C 38.59375 2.625 38.601562 2.90625 38.433594 3.023438 C 38.363281 3.070312 38.328125 3.074219 37.941406 3.082031 L 37.523438 3.09375 L 37.523438 2.457031 L 37.933594 2.457031 C 38.320312 2.457031 38.34375 2.457031 38.421875 2.511719 Z M 38.421875 2.511719 "/>
<path style=" stroke:none;fill-rule:nonzero;fill:rgb(0%,0%,0%);fill-opacity:1;" d="M 55.621094 3.292969 L 55.621094 4.570312 L 56.128906 4.570312 L 56.128906 2.019531 L 55.621094 2.019531 Z M 55.621094 3.292969 "/>
<path style=" stroke:none;fill-rule:nonzero;fill:rgb(0%,0%,0%);fill-opacity:1;" d="M 25.578125 2.207031 L 25.339844 2.347656 L 25.339844 2.722656 L 25.121094 2.722656 L 25.121094 3.113281 L 25.339844 3.113281 L 25.339844 3.621094 C 25.339844 4.332031 25.371094 4.457031 25.570312 4.554688 C 25.679688 4.613281 25.953125 4.617188 26.109375 4.574219 L 26.214844 4.542969 L 26.199219 4.429688 C 26.164062 4.140625 26.171875 4.160156 26.066406 4.1875 C 26 4.207031 25.953125 4.207031 25.914062 4.1875 C 25.839844 4.152344 25.824219 4.050781 25.824219 3.523438 L 25.824219 3.113281 L 26.164062 3.113281 L 26.164062 2.726562 L 25.835938 2.710938 L 25.839844 2.386719 C 25.839844 2.210938 25.835938 2.066406 25.824219 2.066406 C 25.820312 2.070312 25.703125 2.132812 25.578125 2.207031 Z M 25.578125 2.207031 "/>
<path style=" stroke:none;fill-rule:nonzero;fill:rgb(0%,0%,0%);fill-opacity:1;" d="M 42.050781 2.203125 L 41.8125 2.34375 L 41.8125 2.722656 L 41.570312 2.722656 L 41.570312 3.113281 L 41.808594 3.113281 L 41.816406 3.726562 C 41.824219 4.339844 41.824219 4.34375 41.882812 4.433594 C 41.964844 4.546875 42.113281 4.605469 42.320312 4.605469 C 42.40625 4.605469 42.519531 4.589844 42.574219 4.574219 L 42.667969 4.542969 L 42.648438 4.355469 C 42.640625 4.253906 42.628906 4.167969 42.625 4.160156 C 42.621094 4.160156 42.589844 4.167969 42.554688 4.179688 C 42.449219 4.21875 42.375 4.210938 42.335938 4.152344 C 42.304688 4.105469 42.296875 4.011719 42.296875 3.605469 L 42.296875 3.113281 L 42.636719 3.113281 L 42.636719 2.722656 L 42.300781 2.722656 L 42.285156 2.066406 Z M 42.050781 2.203125 "/>
<path style=" stroke:none;fill-rule:nonzero;fill:rgb(0%,0%,0%);fill-opacity:1;" d="M 43.339844 2.210938 L 43.109375 2.347656 L 43.09375 2.722656 L 42.878906 2.722656 L 42.878906 3.113281 L 43.089844 3.113281 L 43.105469 3.699219 C 43.128906 4.394531 43.140625 4.457031 43.320312 4.546875 C 43.441406 4.613281 43.726562 4.625 43.878906 4.574219 L 43.972656 4.542969 L 43.957031 4.355469 C 43.945312 4.25 43.933594 4.167969 43.933594 4.160156 C 43.929688 4.160156 43.894531 4.167969 43.855469 4.179688 C 43.769531 4.214844 43.636719 4.195312 43.621094 4.140625 C 43.613281 4.121094 43.605469 3.878906 43.605469 3.609375 L 43.605469 3.113281 L 43.945312 3.113281 L 43.945312 2.722656 L 43.605469 2.722656 L 43.605469 2.394531 C 43.605469 2.214844 43.597656 2.066406 43.585938 2.070312 C 43.574219 2.070312 43.464844 2.132812 43.339844 2.210938 Z M 43.339844 2.210938 "/>
<path style=" stroke:none;fill-rule:nonzero;fill:rgb(0%,0%,0%);fill-opacity:1;" d="M 21.476562 2.707031 C 21.074219 2.808594 20.832031 3.160156 20.832031 3.644531 C 20.832031 4.046875 21.011719 4.378906 21.300781 4.519531 C 21.539062 4.632812 21.914062 4.632812 22.15625 4.519531 C 22.300781 4.449219 22.464844 4.257812 22.527344 4.089844 C 22.554688 4.015625 22.574219 3.953125 22.570312 3.945312 C 22.5625 3.9375 22.171875 3.863281 22.125 3.863281 C 22.113281 3.863281 22.082031 3.914062 22.058594 3.976562 C 22.035156 4.03125 21.980469 4.109375 21.941406 4.148438 C 21.875 4.203125 21.847656 4.210938 21.726562 4.199219 C 21.558594 4.1875 21.476562 4.136719 21.40625 3.996094 C 21.363281 3.917969 21.355469 3.859375 21.355469 3.621094 C 21.355469 3.386719 21.363281 3.332031 21.402344 3.261719 C 21.484375 3.125 21.566406 3.074219 21.726562 3.074219 C 21.898438 3.074219 21.988281 3.128906 22.039062 3.261719 C 22.066406 3.328125 22.089844 3.351562 22.113281 3.34375 C 22.136719 3.335938 22.238281 3.320312 22.34375 3.304688 C 22.445312 3.289062 22.535156 3.265625 22.542969 3.261719 C 22.554688 3.234375 22.464844 3.046875 22.390625 2.953125 C 22.214844 2.71875 21.832031 2.621094 21.476562 2.707031 Z M 21.476562 2.707031 "/>
<path style=" stroke:none;fill-rule:nonzero;fill:rgb(0%,0%,0%);fill-opacity:1;" d="M 32.183594 2.699219 C 32.066406 2.730469 31.867188 2.855469 31.824219 2.925781 C 31.796875 2.972656 31.796875 2.964844 31.78125 2.855469 L 31.769531 2.734375 L 31.324219 2.71875 L 31.324219 4.570312 L 31.800781 4.570312 L 31.8125 3.957031 C 31.820312 3.394531 31.824219 3.335938 31.867188 3.261719 C 31.96875 3.09375 32.140625 3.019531 32.304688 3.078125 C 32.492188 3.140625 32.507812 3.21875 32.507812 3.96875 L 32.507812 4.570312 L 32.996094 4.570312 L 32.996094 3.890625 C 32.996094 3.511719 32.980469 3.160156 32.96875 3.09375 C 32.9375 2.945312 32.835938 2.816406 32.695312 2.75 C 32.570312 2.6875 32.324219 2.664062 32.183594 2.699219 Z M 32.183594 2.699219 "/>
<path style=" stroke:none;fill-rule:nonzero;fill:rgb(0%,0%,0%);fill-opacity:1;" d="M 40.160156 2.707031 C 40.011719 2.75 39.898438 2.824219 39.792969 2.941406 C 39.613281 3.140625 39.546875 3.363281 39.5625 3.734375 C 39.574219 3.988281 39.617188 4.121094 39.746094 4.308594 C 39.925781 4.574219 40.378906 4.683594 40.773438 4.554688 C 40.917969 4.507812 41.101562 4.34375 41.1875 4.1875 L 41.253906 4.066406 L 41.042969 4.027344 C 40.78125 3.976562 40.746094 3.976562 40.746094 4.023438 C 40.746094 4.089844 40.617188 4.207031 40.519531 4.230469 C 40.324219 4.273438 40.140625 4.160156 40.078125 3.957031 C 40.0625 3.886719 40.042969 3.824219 40.042969 3.8125 C 40.042969 3.800781 40.320312 3.792969 40.660156 3.792969 L 41.277344 3.792969 L 41.277344 3.699219 C 41.277344 3.535156 41.214844 3.246094 41.152344 3.117188 C 41.070312 2.964844 40.875 2.789062 40.726562 2.738281 C 40.566406 2.679688 40.296875 2.667969 40.160156 2.707031 Z M 40.628906 3.121094 C 40.691406 3.160156 40.753906 3.28125 40.78125 3.410156 L 40.792969 3.476562 L 40.066406 3.476562 L 40.066406 3.402344 C 40.066406 3.253906 40.195312 3.09375 40.339844 3.066406 C 40.4375 3.042969 40.546875 3.066406 40.628906 3.121094 Z M 40.628906 3.121094 "/>
<path style=" stroke:none;fill-rule:nonzero;fill:rgb(0%,0%,0%);fill-opacity:1;" d="M 47.523438 2.707031 C 47.402344 2.742188 47.222656 2.851562 47.179688 2.921875 C 47.136719 2.996094 47.117188 2.96875 47.117188 2.84375 L 47.117188 2.722656 L 46.65625 2.722656 L 46.65625 4.570312 L 47.164062 4.570312 L 47.164062 3.992188 C 47.167969 3.390625 47.183594 3.285156 47.28125 3.179688 C 47.386719 3.0625 47.59375 3.023438 47.710938 3.097656 C 47.851562 3.1875 47.855469 3.210938 47.863281 3.917969 L 47.871094 4.570312 L 48.355469 4.570312 L 48.347656 3.832031 C 48.339844 3.105469 48.339844 3.097656 48.28125 2.976562 C 48.15625 2.730469 47.847656 2.621094 47.523438 2.707031 Z M 47.523438 2.707031 "/>
<path style=" stroke:none;fill-rule:nonzero;fill:rgb(0%,0%,0%);fill-opacity:1;" d="M 51.605469 2.710938 C 51.3125 2.792969 51.152344 2.984375 51.152344 3.242188 C 51.15625 3.574219 51.332031 3.710938 51.9375 3.859375 C 52.253906 3.933594 52.304688 3.960938 52.296875 4.066406 C 52.285156 4.183594 52.164062 4.253906 51.976562 4.253906 C 51.761719 4.253906 51.632812 4.167969 51.570312 3.980469 C 51.566406 3.96875 51.167969 4.019531 51.085938 4.042969 C 51.050781 4.050781 51.160156 4.253906 51.257812 4.359375 C 51.4375 4.554688 51.78125 4.644531 52.144531 4.597656 C 52.554688 4.539062 52.789062 4.316406 52.789062 3.984375 C 52.789062 3.671875 52.628906 3.546875 52.035156 3.390625 C 51.6875 3.296875 51.597656 3.257812 51.597656 3.1875 C 51.597656 3.097656 51.6875 3.050781 51.886719 3.042969 C 52.039062 3.039062 52.085938 3.046875 52.152344 3.085938 C 52.195312 3.113281 52.242188 3.164062 52.25 3.195312 L 52.273438 3.25 L 52.476562 3.214844 C 52.757812 3.171875 52.746094 3.175781 52.699219 3.070312 C 52.648438 2.941406 52.507812 2.808594 52.367188 2.746094 C 52.207031 2.675781 51.789062 2.65625 51.605469 2.710938 Z M 51.605469 2.710938 "/>
<path style=" stroke:none;fill-rule:nonzero;fill:rgb(0%,0%,0%);fill-opacity:1;" d="M 54.140625 2.714844 C 54.074219 2.730469 53.976562 2.792969 53.902344 2.859375 L 53.777344 2.96875 L 53.777344 2.722656 L 53.320312 2.722656 L 53.320312 5.273438 L 53.828125 5.273438 L 53.828125 4.367188 L 53.90625 4.433594 C 54.046875 4.546875 54.1875 4.601562 54.359375 4.601562 C 54.871094 4.601562 55.191406 4.105469 55.109375 3.441406 C 55.078125 3.1875 54.996094 3.023438 54.832031 2.871094 C 54.628906 2.6875 54.398438 2.632812 54.140625 2.714844 Z M 54.371094 3.097656 C 54.535156 3.164062 54.625 3.363281 54.625 3.640625 C 54.625 3.871094 54.585938 4.003906 54.480469 4.109375 C 54.269531 4.320312 53.976562 4.226562 53.851562 3.914062 C 53.828125 3.863281 53.816406 3.742188 53.816406 3.621094 C 53.816406 3.445312 53.828125 3.390625 53.878906 3.292969 C 53.980469 3.09375 54.175781 3.015625 54.371094 3.097656 Z M 54.371094 3.097656 "/>
<path style=" stroke:none;fill-rule:nonzero;fill:rgb(0%,0%,0%);fill-opacity:1;" d="M 57.179688 2.699219 C 57.042969 2.726562 56.90625 2.800781 56.828125 2.886719 C 56.765625 2.949219 56.648438 3.175781 56.667969 3.195312 C 56.667969 3.203125 56.765625 3.222656 56.878906 3.246094 C 57.070312 3.28125 57.089844 3.28125 57.109375 3.242188 C 57.207031 3.078125 57.316406 3.035156 57.542969 3.066406 C 57.691406 3.089844 57.726562 3.125 57.746094 3.253906 C 57.761719 3.375 57.757812 3.375 57.324219 3.472656 C 56.960938 3.554688 56.859375 3.59375 56.753906 3.703125 C 56.65625 3.800781 56.613281 3.910156 56.613281 4.058594 C 56.613281 4.433594 56.9375 4.667969 57.351562 4.59375 C 57.507812 4.5625 57.605469 4.523438 57.714844 4.429688 L 57.785156 4.371094 L 57.820312 4.46875 L 57.855469 4.570312 L 58.097656 4.570312 C 58.320312 4.570312 58.335938 4.566406 58.320312 4.527344 C 58.253906 4.367188 58.238281 4.21875 58.238281 3.742188 C 58.238281 3.207031 58.214844 3.015625 58.140625 2.917969 C 58.082031 2.835938 57.960938 2.753906 57.851562 2.722656 C 57.734375 2.6875 57.304688 2.671875 57.179688 2.699219 Z M 57.75 3.832031 C 57.75 4.097656 57.613281 4.253906 57.375 4.253906 C 57.222656 4.253906 57.132812 4.195312 57.109375 4.070312 C 57.074219 3.898438 57.136719 3.839844 57.453125 3.753906 C 57.765625 3.671875 57.75 3.671875 57.75 3.832031 Z M 57.75 3.832031 "/>
<path style=" stroke:none;fill-rule:nonzero;fill:rgb(0%,0%,0%);fill-opacity:1;" d="M 59.679688 2.707031 C 59.542969 2.75 59.480469 2.785156 59.371094 2.886719 L 59.277344 2.96875 L 59.277344 2.722656 L 58.816406 2.722656 L 58.816406 4.570312 L 59.328125 4.570312 L 59.328125 3.976562 C 59.328125 3.3125 59.339844 3.238281 59.480469 3.136719 C 59.578125 3.0625 59.785156 3.042969 59.871094 3.097656 C 60.003906 3.183594 60.015625 3.242188 60.023438 3.929688 L 60.035156 4.570312 L 60.511719 4.570312 L 60.511719 3.929688 C 60.511719 3.234375 60.496094 3.050781 60.402344 2.910156 C 60.285156 2.730469 59.914062 2.628906 59.679688 2.707031 Z M 59.679688 2.707031 "/>
<path style=" stroke:none;fill-rule:nonzero;fill:rgb(0%,0%,0%);fill-opacity:1;" d="M 18.632812 3.078125 C 18.632812 3.28125 18.640625 3.613281 18.652344 3.828125 C 18.664062 4.160156 18.675781 4.230469 18.722656 4.320312 C 18.902344 4.667969 19.445312 4.710938 19.773438 4.398438 L 19.863281 4.308594 L 19.863281 4.570312 L 20.324219 4.570312 L 20.324219 2.722656 L 19.84375 2.722656 L 19.835938 3.324219 C 19.824219 4 19.8125 4.058594 19.648438 4.171875 C 19.542969 4.242188 19.351562 4.25 19.261719 4.191406 C 19.148438 4.109375 19.136719 4.035156 19.136719 3.355469 L 19.136719 2.722656 L 18.628906 2.722656 Z M 18.632812 3.078125 "/>
<path style=" stroke:none;fill-rule:nonzero;fill:rgb(0%,0%,0%);fill-opacity:1;" d="M 29.027344 3.445312 L 29.035156 4.167969 L 29.097656 4.304688 C 29.277344 4.664062 29.792969 4.71875 30.132812 4.414062 L 30.234375 4.320312 L 30.234375 4.570312 L 30.691406 4.570312 L 30.691406 2.722656 L 30.210938 2.722656 L 30.195312 3.980469 L 30.128906 4.066406 C 29.933594 4.320312 29.582031 4.277344 29.527344 3.988281 C 29.519531 3.925781 29.507812 3.617188 29.503906 3.296875 L 29.503906 2.722656 L 29.019531 2.722656 Z M 29.027344 3.445312 "/>
<path style=" stroke:none;fill-rule:nonzero;fill:rgb(0%,0%,0%);fill-opacity:1;" d="M 44.378906 3.394531 C 44.378906 3.769531 44.390625 4.121094 44.40625 4.179688 C 44.46875 4.449219 44.6875 4.609375 44.996094 4.605469 C 45.199219 4.605469 45.339844 4.546875 45.492188 4.414062 L 45.589844 4.320312 L 45.589844 4.570312 L 46.050781 4.570312 L 46.050781 2.722656 L 45.570312 2.722656 L 45.5625 3.335938 C 45.554688 3.898438 45.550781 3.957031 45.507812 4.03125 C 45.4375 4.148438 45.347656 4.207031 45.21875 4.222656 C 45.078125 4.238281 44.984375 4.199219 44.921875 4.101562 C 44.882812 4.03125 44.875 3.964844 44.871094 3.371094 L 44.863281 2.722656 L 44.378906 2.722656 Z M 44.378906 3.394531 "/>
<path style=" stroke:none;fill-rule:nonzero;fill:rgb(0%,0%,0%);fill-opacity:1;" d="M 26.574219 3.644531 L 26.574219 3.890625 L 27.519531 3.890625 L 27.519531 3.402344 L 26.574219 3.402344 Z M 26.574219 3.644531 "/>
<path style=" stroke:none;fill-rule:nonzero;fill:rgb(0%,0%,0%);fill-opacity:1;" d="M 56.347656 12.445312 L 56.347656 19.132812 L 69.210938 19.132812 L 69.210938 5.761719 L 56.347656 5.761719 Z M 68.96875 12.445312 L 68.96875 18.886719 L 56.589844 18.886719 L 56.589844 6.003906 L 68.96875 6.003906 Z M 68.96875 12.445312 "/>
<path style=" stroke:none;fill-rule:nonzero;fill:rgb(0%,0%,0%);fill-opacity:1;" d="M 57.21875 6.710938 L 57.21875 6.832031 L 68.242188 6.832031 L 68.242188 6.589844 L 57.21875 6.589844 Z M 57.21875 6.710938 "/>
<path style=" stroke:none;fill-rule:nonzero;fill:rgb(0%,0%,0%);fill-opacity:1;" d="M 56.976562 8.09375 C 56.976562 8.113281 58.933594 8.121094 62.789062 8.121094 C 66.648438 8.121094 68.605469 8.113281 68.605469 8.09375 C 68.605469 8.078125 66.648438 8.070312 62.789062 8.070312 C 58.933594 8.070312 56.976562 8.078125 56.976562 8.09375 Z M 56.976562 8.09375 "/>
<path style=" stroke:none;fill-rule:nonzero;fill:rgb(0%,0%,0%);fill-opacity:1;" d="M 57.679688 9.214844 L 57.679688 9.335938 L 62.355469 9.335938 L 62.355469 9.089844 L 57.679688 9.089844 Z M 57.679688 9.214844 "/>
<path style=" stroke:none;fill-rule:nonzero;fill:rgb(0%,0%,0%);fill-opacity:1;" d="M 57.679688 9.917969 L 57.679688 10.039062 L 63.445312 10.039062 L 63.445312 9.796875 L 57.679688 9.796875 Z M 57.679688 9.917969 "/>
<path style=" stroke:none;fill-rule:nonzero;fill:rgb(0%,0%,0%);fill-opacity:1;" d="M 57.679688 10.574219 L 57.679688 10.695312 L 64.632812 10.695312 L 64.632812 10.453125 L 57.679688 10.453125 Z M 57.679688 10.574219 "/>
<path style=" stroke:none;fill-rule:nonzero;fill:rgb(0%,0%,0%);fill-opacity:1;" d="M 56.976562 12.277344 C 56.976562 12.292969 58.933594 12.300781 62.789062 12.300781 C 66.648438 12.300781 68.605469 12.292969 68.605469 12.277344 C 68.605469 12.257812 66.648438 12.253906 62.789062 12.253906 C 58.933594 12.253906 56.976562 12.257812 56.976562 12.277344 Z M 56.976562 12.277344 "/>
<path style=" stroke:none;fill-rule:nonzero;fill:rgb(0%,0%,0%);fill-opacity:1;" d="M 57.726562 13.222656 L 57.726562 13.347656 L 62.402344 13.347656 L 62.402344 13.101562 L 57.726562 13.101562 Z M 57.726562 13.222656 "/>
<path style=" stroke:none;fill-rule:nonzero;fill:rgb(0%,0%,0%);fill-opacity:1;" d="M 57.726562 13.929688 L 57.726562 14.050781 L 63.492188 14.050781 L 63.492188 13.808594 L 57.726562 13.808594 Z M 57.726562 13.929688 "/>
<path style=" stroke:none;fill-rule:nonzero;fill:rgb(0%,0%,0%);fill-opacity:1;" d="M 57.726562 14.585938 L 57.726562 14.707031 L 64.679688 14.707031 L 64.679688 14.464844 L 57.726562 14.464844 Z M 57.726562 14.585938 "/>
<path style=" stroke:none;fill-rule:nonzero;fill:rgb(0%,0%,0%);fill-opacity:1;" d="M 56.976562 16.042969 C 56.976562 16.0625 58.933594 16.070312 62.789062 16.070312 C 66.648438 16.070312 68.605469 16.0625 68.605469 16.042969 C 68.605469 16.027344 66.648438 16.019531 62.789062 16.019531 C 58.933594 16.019531 56.976562 16.027344 56.976562 16.042969 Z M 56.976562 16.042969 "/>
<path style=" stroke:none;fill-rule:nonzero;fill:rgb(0%,0%,0%);fill-opacity:1;" d="M 57.582031 16.796875 L 57.582031 16.917969 L 62.257812 16.917969 L 62.257812 16.675781 L 57.582031 16.675781 Z M 57.582031 16.796875 "/>
<path style=" stroke:none;fill-rule:nonzero;fill:rgb(0%,0%,0%);fill-opacity:1;" d="M 57.582031 17.503906 L 57.582031 17.625 L 63.347656 17.625 L 63.347656 17.382812 L 57.582031 17.382812 Z M 57.582031 17.503906 "/>
<path style=" stroke:none;fill-rule:nonzero;fill:rgb(0%,0%,0%);fill-opacity:1;" d="M 57.582031 18.136719 L 57.582031 18.257812 L 64.535156 18.257812 L 64.535156 18.011719 L 57.582031 18.011719 Z M 57.582031 18.136719 "/>
<path style=" stroke:none;fill-rule:nonzero;fill:rgb(0%,0%,0%);fill-opacity:1;" d="M 6.808594 24.6875 L 6.808594 33.9375 L 49.417969 33.9375 L 49.417969 15.4375 L 6.808594 15.4375 Z M 13.832031 19.230469 L 13.832031 22.777344 L 12.597656 22.777344 C 11.789062 22.777344 11.363281 22.785156 11.363281 22.800781 C 11.363281 22.820312 13.804688 22.828125 18.640625 22.828125 C 23.480469 22.828125 25.921875 22.820312 25.921875 22.800781 C 25.921875 22.785156 23.898438 22.777344 19.902344 22.777344 L 13.878906 22.777344 L 13.878906 15.679688 L 33.019531 15.679688 L 33.019531 18.328125 L 32.449219 18.328125 C 32.011719 18.328125 31.878906 18.320312 31.878906 18.296875 C 31.878906 18.273438 31.871094 18.273438 31.863281 18.296875 C 31.855469 18.320312 31.757812 18.328125 31.488281 18.328125 L 31.128906 18.328125 L 31.125 18.101562 L 31.121094 17.878906 L 31.113281 18.101562 L 31.101562 18.328125 L 30.558594 18.328125 C 30.042969 18.328125 30.015625 18.328125 30.003906 18.285156 C 29.996094 18.257812 29.964844 18.226562 29.9375 18.21875 C 29.875 18.199219 29.800781 18.226562 29.785156 18.285156 C 29.769531 18.328125 29.742188 18.328125 29.226562 18.328125 L 28.683594 18.328125 L 28.683594 17.027344 C 28.683594 16.179688 28.675781 15.726562 28.65625 15.726562 C 28.640625 15.726562 28.632812 16.917969 28.632812 19.253906 L 28.632812 22.777344 L 27.929688 22.777344 C 27.476562 22.777344 27.230469 22.789062 27.230469 22.800781 C 27.230469 22.820312 28.210938 22.828125 30.125 22.828125 L 33.019531 22.828125 L 33.019531 23.628906 C 33.019531 24.148438 33.027344 24.429688 33.042969 24.429688 C 33.058594 24.429688 33.066406 24.148438 33.066406 23.628906 L 33.066406 22.828125 L 33.128906 22.828125 C 33.160156 22.828125 33.1875 22.816406 33.1875 22.800781 C 33.1875 22.789062 33.160156 22.777344 33.128906 22.777344 L 33.066406 22.777344 L 33.066406 17.917969 L 34.640625 17.917969 L 34.640625 17.992188 C 34.640625 18.039062 34.648438 18.132812 34.65625 18.199219 L 34.671875 18.328125 L 33.886719 18.335938 L 33.101562 18.339844 L 33.886719 18.347656 L 34.664062 18.355469 L 34.664062 18.425781 C 34.664062 18.496094 34.660156 18.5 34.570312 18.5 L 34.472656 18.5 L 34.542969 18.644531 C 34.582031 18.726562 34.617188 18.796875 34.617188 18.804688 C 34.617188 18.808594 34.277344 18.816406 33.863281 18.824219 L 33.101562 18.828125 L 33.875 18.835938 C 34.554688 18.839844 34.644531 18.84375 34.660156 18.878906 C 34.671875 18.914062 34.675781 18.914062 34.695312 18.878906 C 34.714844 18.84375 34.804688 18.839844 35.488281 18.839844 L 36.265625 18.839844 L 36.265625 21.5625 C 36.265625 23.363281 36.273438 24.285156 36.289062 24.285156 C 36.304688 24.285156 36.3125 24.039062 36.3125 23.59375 L 36.3125 22.898438 L 37.425781 22.898438 C 38.152344 22.898438 38.542969 22.890625 38.542969 22.875 C 38.542969 22.859375 38.152344 22.851562 37.425781 22.851562 L 36.3125 22.851562 L 36.3125 15.679688 L 41.882812 15.679688 L 41.882812 22.777344 L 40.914062 22.777344 C 40.285156 22.777344 39.945312 22.785156 39.945312 22.800781 C 39.945312 22.816406 40.285156 22.828125 40.914062 22.828125 C 41.546875 22.828125 41.882812 22.835938 41.882812 22.851562 C 41.882812 22.863281 41.898438 22.875 41.917969 22.875 C 41.929688 22.875 41.996094 22.929688 42.058594 23 C 42.121094 23.070312 42.179688 23.125 42.1875 23.113281 C 42.195312 23.105469 42.144531 23.027344 42.070312 22.945312 L 41.933594 22.789062 L 41.933594 15.679688 L 49.175781 15.679688 L 49.175781 24.550781 L 47.820312 24.550781 C 46.929688 24.550781 46.464844 24.558594 46.464844 24.578125 C 46.464844 24.59375 46.929688 24.601562 47.820312 24.601562 L 49.175781 24.601562 L 49.175781 33.691406 L 41.933594 33.691406 L 41.933594 26.761719 L 42.179688 26.464844 C 42.316406 26.304688 42.441406 26.148438 42.460938 26.128906 C 42.480469 26.105469 42.488281 26.074219 42.476562 26.058594 C 42.46875 26.046875 42.339844 26.179688 42.179688 26.375 L 41.898438 26.714844 L 40.921875 26.714844 C 40.289062 26.714844 39.945312 26.722656 39.945312 26.742188 C 39.945312 26.753906 40.285156 26.765625 40.914062 26.765625 L 41.882812 26.765625 L 41.882812 33.691406 L 33.164062 33.691406 L 33.164062 26.765625 L 35.769531 26.765625 C 37.488281 26.765625 38.371094 26.757812 38.371094 26.742188 C 38.371094 26.722656 38.011719 26.714844 37.34375 26.714844 L 36.3125 26.714844 L 36.3125 25.949219 C 36.3125 25.457031 36.304688 25.183594 36.289062 25.183594 C 36.273438 25.183594 36.265625 25.457031 36.265625 25.949219 L 36.265625 26.714844 L 33.164062 26.714844 L 33.164062 26.058594 C 33.164062 25.640625 33.152344 25.402344 33.140625 25.402344 C 33.125 25.402344 33.117188 25.640625 33.117188 26.058594 L 33.117188 26.714844 L 32.507812 26.714844 C 32.121094 26.714844 31.902344 26.726562 31.902344 26.742188 C 31.902344 26.753906 32.121094 26.765625 32.507812 26.765625 L 33.117188 26.765625 L 33.117188 33.691406 L 20.398438 33.691406 L 20.398438 26.765625 L 25.425781 26.765625 C 28.757812 26.765625 30.449219 26.757812 30.449219 26.742188 C 30.449219 26.722656 28.007812 26.714844 23.171875 26.714844 C 18.332031 26.714844 15.890625 26.722656 15.890625 26.742188 C 15.890625 26.757812 16.648438 26.765625 18.121094 26.765625 L 20.347656 26.765625 L 20.347656 33.691406 L 12.695312 33.691406 L 12.695312 26.765625 L 13.613281 26.765625 C 14.210938 26.765625 14.535156 26.753906 14.535156 26.742188 C 14.535156 26.722656 14.097656 26.714844 13.273438 26.714844 C 12.453125 26.714844 12.015625 26.722656 12.015625 26.742188 C 12.015625 26.753906 12.136719 26.765625 12.332031 26.765625 L 12.644531 26.765625 L 12.644531 33.691406 L 9.785156 33.691406 L 9.777344 33.292969 L 9.761719 33.691406 L 7.050781 33.691406 L 7.050781 31.894531 L 9.714844 31.894531 L 9.71875 32.105469 L 9.722656 32.320312 L 9.730469 32.105469 C 9.742188 31.894531 9.742188 31.894531 9.804688 31.890625 L 9.871094 31.886719 L 9.804688 31.878906 C 9.742188 31.867188 9.738281 31.859375 9.734375 31.730469 L 9.730469 31.589844 L 9.722656 31.730469 L 9.710938 31.871094 L 7.050781 31.871094 L 7.050781 30.242188 L 9.761719 30.242188 L 9.765625 30.390625 L 9.769531 30.546875 L 9.785156 30.386719 C 9.792969 30.300781 9.792969 30.164062 9.785156 30.082031 L 9.773438 29.9375 L 9.765625 30.074219 L 9.761719 30.21875 L 7.050781 30.21875 L 7.050781 28.636719 L 9.761719 28.636719 L 9.765625 28.910156 L 9.773438 29.183594 L 9.789062 28.636719 L 10.101562 28.636719 C 10.296875 28.636719 10.417969 28.628906 10.417969 28.613281 C 10.417969 28.59375 9.839844 28.589844 8.734375 28.589844 L 7.050781 28.589844 L 7.050781 26.765625 L 7.402344 26.765625 C 7.617188 26.765625 7.75 26.753906 7.75 26.742188 C 7.75 26.726562 7.617188 26.714844 7.402344 26.714844 L 7.050781 26.714844 L 7.050781 15.679688 L 13.832031 15.679688 Z M 36.265625 16.214844 L 36.265625 16.75 L 34.816406 16.75 L 34.800781 16.691406 C 34.773438 16.582031 34.628906 16.582031 34.601562 16.691406 L 34.589844 16.75 L 33.878906 16.757812 L 33.175781 16.761719 L 33.894531 16.769531 C 34.523438 16.773438 34.613281 16.777344 34.625 16.8125 C 34.632812 16.835938 34.640625 16.96875 34.640625 17.117188 L 34.640625 17.382812 L 33.875 17.386719 L 33.101562 17.394531 L 33.875 17.398438 L 34.640625 17.40625 L 34.640625 17.890625 L 33.066406 17.890625 L 33.066406 15.679688 L 36.265625 15.679688 Z M 36.265625 17.332031 L 36.265625 17.890625 L 34.691406 17.890625 L 34.691406 17.40625 L 35.460938 17.402344 L 36.226562 17.394531 L 35.460938 17.386719 L 34.691406 17.382812 L 34.691406 17.117188 C 34.691406 16.871094 34.695312 16.847656 34.738281 16.835938 C 34.765625 16.828125 34.785156 16.808594 34.785156 16.796875 C 34.785156 16.785156 35.085938 16.773438 35.527344 16.773438 L 36.265625 16.773438 Z M 36.265625 18.121094 L 36.265625 18.328125 L 34.722656 18.328125 L 34.703125 18.21875 C 34.695312 18.15625 34.691406 18.0625 34.691406 18.011719 L 34.691406 17.917969 L 36.265625 17.917969 Z M 29.8125 18.386719 C 29.832031 18.410156 29.84375 18.476562 29.84375 18.59375 L 29.84375 18.765625 L 28.683594 18.765625 L 28.683594 18.355469 L 29.230469 18.355469 C 29.671875 18.355469 29.78125 18.359375 29.8125 18.386719 Z M 31.105469 18.558594 L 31.105469 18.765625 L 29.894531 18.765625 L 29.894531 18.597656 C 29.894531 18.449219 29.902344 18.429688 29.941406 18.414062 C 29.96875 18.40625 29.992188 18.386719 29.992188 18.375 C 29.992188 18.363281 30.21875 18.355469 30.546875 18.355469 L 31.105469 18.355469 Z M 31.746094 18.523438 L 31.660156 18.695312 L 31.746094 18.695312 C 31.792969 18.695312 31.832031 18.703125 31.832031 18.714844 C 31.832031 18.730469 31.679688 18.742188 31.480469 18.746094 L 31.128906 18.753906 L 31.128906 18.355469 L 31.832031 18.355469 Z M 33.019531 18.546875 L 33.019531 18.742188 L 32.449219 18.742188 C 32.085938 18.742188 31.878906 18.734375 31.878906 18.71875 C 31.878906 18.703125 31.921875 18.695312 31.976562 18.695312 L 32.074219 18.695312 L 31.988281 18.523438 L 31.902344 18.355469 L 33.019531 18.355469 Z M 36.265625 18.585938 L 36.265625 18.816406 L 35.5 18.816406 C 35.082031 18.816406 34.738281 18.8125 34.738281 18.804688 C 34.738281 18.796875 34.773438 18.726562 34.8125 18.644531 L 34.882812 18.5 L 34.800781 18.5 C 34.722656 18.5 34.714844 18.496094 34.714844 18.425781 L 34.714844 18.355469 L 36.265625 18.355469 Z M 33.019531 18.972656 L 33.019531 19.179688 L 31.878906 19.179688 L 31.878906 18.992188 C 31.878906 18.886719 31.886719 18.792969 31.898438 18.785156 C 31.902344 18.773438 32.160156 18.765625 32.464844 18.765625 L 33.019531 18.765625 Z M 29.84375 18.972656 L 29.84375 19.15625 L 28.683594 19.15625 L 28.683594 18.816406 L 28.761719 18.808594 C 28.804688 18.804688 29.066406 18.796875 29.34375 18.796875 L 29.84375 18.792969 Z M 31.105469 18.972656 L 31.105469 19.15625 L 29.894531 19.15625 L 29.894531 18.792969 L 31.105469 18.792969 Z M 31.832031 18.988281 L 31.832031 19.1875 L 31.742188 19.171875 C 31.691406 19.164062 31.535156 19.15625 31.390625 19.15625 L 31.128906 19.15625 L 31.128906 18.792969 L 31.832031 18.792969 Z M 29.84375 19.363281 L 29.84375 19.546875 L 28.683594 19.546875 L 28.683594 19.179688 L 29.84375 19.179688 Z M 31.105469 19.363281 L 31.105469 19.546875 L 29.894531 19.546875 L 29.894531 19.179688 L 31.105469 19.179688 Z M 31.742188 19.195312 L 31.832031 19.210938 L 31.832031 19.546875 L 31.128906 19.546875 L 31.128906 19.179688 L 31.390625 19.179688 C 31.535156 19.179688 31.691406 19.1875 31.742188 19.195312 Z M 33.019531 19.375 L 33.019531 19.546875 L 31.878906 19.546875 L 31.878906 19.203125 L 33.019531 19.203125 Z M 29.84375 19.65625 C 29.84375 19.734375 29.839844 19.738281 29.761719 19.738281 L 29.675781 19.738281 L 29.75 19.886719 L 29.820312 20.03125 L 29.257812 20.039062 L 28.695312 20.042969 L 29.269531 20.050781 C 29.839844 20.054688 29.84375 20.054688 29.859375 20.109375 L 29.875 20.164062 L 29.902344 20.109375 C 29.925781 20.054688 29.925781 20.054688 30.515625 20.054688 L 31.105469 20.054688 L 31.105469 20.671875 L 31.054688 20.605469 C 30.902344 20.414062 30.652344 20.433594 30.523438 20.644531 C 30.394531 20.855469 30.5625 21.148438 30.8125 21.148438 C 30.894531 21.148438 30.902344 21.160156 31.082031 21.445312 C 31.179688 21.609375 31.265625 21.753906 31.269531 21.761719 C 31.273438 21.773438 31.125 21.78125 30.9375 21.78125 C 30.730469 21.78125 30.597656 21.773438 30.597656 21.757812 C 30.597656 21.746094 30.570312 21.726562 30.535156 21.71875 L 30.476562 21.703125 L 30.46875 21.320312 L 30.464844 20.941406 L 30.457031 21.328125 C 30.449219 21.628906 30.441406 21.71875 30.414062 21.75 C 30.367188 21.796875 30.367188 21.863281 30.414062 21.914062 C 30.441406 21.941406 30.449219 22.027344 30.449219 22.363281 L 30.449219 22.777344 L 28.683594 22.777344 L 28.683594 19.570312 L 29.84375 19.570312 Z M 31.105469 19.800781 L 31.105469 20.03125 L 29.941406 20.03125 L 30.015625 19.886719 L 30.085938 19.738281 L 29.992188 19.738281 C 29.894531 19.738281 29.894531 19.738281 29.894531 19.65625 L 29.894531 19.570312 L 31.105469 19.570312 Z M 31.832031 19.691406 L 31.832031 19.8125 L 31.128906 19.8125 L 31.128906 19.570312 L 31.832031 19.570312 Z M 33.019531 19.691406 L 33.019531 19.8125 L 31.878906 19.8125 L 31.878906 19.570312 L 33.019531 19.570312 Z M 31.832031 20.054688 L 31.832031 20.273438 L 31.128906 20.273438 L 31.128906 19.863281 L 31.4375 19.855469 C 31.609375 19.851562 31.765625 19.84375 31.789062 19.839844 C 31.828125 19.835938 31.832031 19.859375 31.832031 20.054688 Z M 33.019531 20.054688 L 33.019531 20.273438 L 31.878906 20.273438 L 31.878906 19.835938 L 33.019531 19.835938 Z M 31.832031 20.46875 L 31.832031 20.640625 L 31.128906 20.640625 L 31.128906 20.324219 L 31.4375 20.316406 C 31.609375 20.3125 31.765625 20.304688 31.789062 20.304688 C 31.828125 20.296875 31.832031 20.320312 31.832031 20.46875 Z M 33.019531 20.46875 L 33.019531 20.640625 L 31.878906 20.640625 L 31.878906 20.296875 L 33.019531 20.296875 Z M 30.980469 20.625 C 31.03125 20.675781 31.042969 20.710938 31.042969 20.808594 C 31.042969 20.972656 30.960938 21.0625 30.800781 21.0625 C 30.648438 21.0625 30.558594 20.972656 30.558594 20.8125 C 30.558594 20.6875 30.609375 20.605469 30.703125 20.5625 C 30.78125 20.53125 30.914062 20.558594 30.980469 20.625 Z M 31.832031 20.84375 C 31.832031 20.945312 31.820312 21.027344 31.8125 21.027344 C 31.761719 21.027344 31.144531 20.742188 31.136719 20.71875 C 31.128906 20.695312 31.207031 20.6875 31.4375 20.679688 C 31.605469 20.679688 31.765625 20.671875 31.789062 20.667969 C 31.828125 20.664062 31.832031 20.683594 31.832031 20.84375 Z M 33.019531 21.101562 C 33.019531 21.339844 33.011719 21.539062 33 21.539062 C 32.988281 21.539062 32.734375 21.429688 32.433594 21.300781 L 31.878906 21.0625 L 31.878906 20.664062 L 33.019531 20.664062 Z M 31.832031 21.207031 C 31.832031 21.371094 31.871094 21.382812 31.425781 21.097656 C 31.164062 20.921875 31.128906 20.894531 31.128906 20.832031 L 31.128906 20.765625 L 31.832031 21.0625 Z M 31.488281 21.160156 L 31.832031 21.378906 L 31.832031 21.566406 C 31.832031 21.753906 31.828125 21.757812 31.769531 21.757812 C 31.710938 21.757812 31.667969 21.714844 31.1875 21.203125 C 31.058594 21.0625 31.050781 21.046875 31.078125 20.988281 C 31.09375 20.953125 31.113281 20.929688 31.125 20.933594 C 31.136719 20.941406 31.300781 21.039062 31.488281 21.160156 Z M 31.355469 21.417969 L 31.660156 21.746094 L 31.496094 21.757812 C 31.304688 21.777344 31.316406 21.785156 31.074219 21.394531 C 30.929688 21.152344 30.914062 21.125 30.953125 21.101562 C 30.976562 21.089844 31.007812 21.078125 31.023438 21.082031 C 31.039062 21.085938 31.1875 21.238281 31.355469 21.417969 Z M 32.492188 21.351562 L 33.019531 21.574219 L 33.019531 21.835938 C 33.019531 21.980469 33.011719 22.097656 33.003906 22.097656 C 32.996094 22.097656 32.738281 21.9375 32.433594 21.742188 L 31.878906 21.386719 L 31.878906 21.242188 C 31.878906 21.113281 31.882812 21.097656 31.921875 21.109375 C 31.945312 21.121094 32.203125 21.226562 32.492188 21.351562 Z M 32.484375 21.800781 L 33.007812 22.136719 L 33.011719 22.457031 L 33.019531 22.777344 L 32.664062 22.777344 L 32.351562 22.441406 C 32.179688 22.261719 31.972656 22.039062 31.890625 21.953125 C 31.761719 21.816406 31.753906 21.800781 31.8125 21.816406 L 31.878906 21.828125 L 31.878906 21.625 C 31.878906 21.429688 31.882812 21.417969 31.921875 21.4375 C 31.945312 21.453125 32.199219 21.617188 32.484375 21.800781 Z M 32.164062 22.28125 C 32.40625 22.539062 32.605469 22.757812 32.605469 22.765625 C 32.605469 22.773438 32.453125 22.777344 32.265625 22.773438 L 31.921875 22.765625 L 31.351562 21.84375 L 31.449219 21.828125 C 31.726562 21.789062 31.675781 21.757812 32.164062 22.28125 Z M 31.597656 22.289062 C 31.753906 22.542969 31.878906 22.753906 31.878906 22.761719 C 31.878906 22.769531 31.566406 22.777344 31.175781 22.777344 L 30.476562 22.777344 L 30.476562 22.363281 C 30.476562 22.019531 30.480469 21.953125 30.511719 21.953125 C 30.53125 21.953125 30.5625 21.929688 30.589844 21.90625 C 30.640625 21.847656 30.710938 21.839844 31.058594 21.835938 L 31.316406 21.828125 Z M 31.597656 22.289062 "/>
<path style=" stroke:none;fill-rule:nonzero;fill:rgb(0%,0%,0%);fill-opacity:1;" d="M 43.027344 23.992188 C 43.03125 24.003906 43.191406 24.140625 43.382812 24.296875 C 43.570312 24.457031 43.726562 24.59375 43.726562 24.605469 C 43.726562 24.621094 43.652344 24.726562 43.554688 24.847656 C 43.464844 24.964844 43.386719 25.066406 43.386719 25.074219 C 43.386719 25.082031 43.402344 25.085938 43.417969 25.085938 C 43.433594 25.085938 43.519531 24.996094 43.605469 24.882812 L 43.761719 24.671875 L 43.785156 26.414062 L 46.457031 26.417969 C 48.234375 26.421875 49.128906 26.417969 49.128906 26.398438 C 49.128906 26.382812 48.238281 26.375 46.476562 26.375 L 43.824219 26.375 L 43.824219 24.675781 L 44.453125 24.675781 C 44.855469 24.675781 45.082031 24.664062 45.082031 24.648438 C 45.082031 24.636719 44.859375 24.625 44.464844 24.625 C 43.847656 24.625 43.847656 24.625 43.777344 24.566406 C 43.566406 24.378906 43.058594 23.96875 43.039062 23.96875 C 43.027344 23.96875 43.023438 23.980469 43.027344 23.992188 Z M 43.027344 23.992188 "/>
<path style=" stroke:none;fill-rule:nonzero;fill:rgb(0%,0%,0%);fill-opacity:1;" d="M 8.84375 26.742188 C 8.84375 26.753906 9.113281 26.765625 9.605469 26.765625 L 10.367188 26.765625 L 10.367188 27.664062 C 10.367188 28.246094 10.378906 28.5625 10.390625 28.5625 C 10.40625 28.5625 10.417969 28.246094 10.417969 27.664062 L 10.417969 26.765625 L 10.574219 26.765625 C 10.664062 26.765625 10.730469 26.753906 10.730469 26.742188 C 10.730469 26.726562 10.398438 26.714844 9.785156 26.714844 C 9.175781 26.714844 8.84375 26.726562 8.84375 26.742188 Z M 8.84375 26.742188 "/>
<path style=" stroke:none;fill-rule:nonzero;fill:rgb(0%,0%,0%);fill-opacity:1;" d="M 56.296875 25.976562 L 56.296875 32.648438 L 69.1875 32.648438 L 69.1875 19.300781 L 56.296875 19.300781 Z M 68.945312 25.976562 L 68.945312 32.40625 L 56.539062 32.40625 L 56.539062 19.546875 L 68.945312 19.546875 Z M 68.945312 25.976562 "/>
<path style=" stroke:none;fill-rule:nonzero;fill:rgb(0%,0%,0%);fill-opacity:1;" d="M 57.023438 20.25 L 57.023438 20.371094 L 68.046875 20.371094 L 68.046875 20.128906 L 57.023438 20.128906 Z M 57.023438 20.25 "/>
<path style=" stroke:none;fill-rule:nonzero;fill:rgb(0%,0%,0%);fill-opacity:1;" d="M 56.976562 21.683594 C 56.976562 21.703125 58.933594 21.707031 62.789062 21.707031 C 66.648438 21.707031 68.605469 21.703125 68.605469 21.683594 C 68.605469 21.667969 66.648438 21.660156 62.789062 21.660156 C 58.933594 21.660156 56.976562 21.667969 56.976562 21.683594 Z M 56.976562 21.683594 "/>
<path style=" stroke:none;fill-rule:nonzero;fill:rgb(0%,0%,0%);fill-opacity:1;" d="M 57.582031 22.632812 L 57.582031 22.753906 L 62.257812 22.753906 L 62.257812 22.511719 L 57.582031 22.511719 Z M 57.582031 22.632812 "/>
<path style=" stroke:none;fill-rule:nonzero;fill:rgb(0%,0%,0%);fill-opacity:1;" d="M 57.582031 23.335938 L 57.582031 23.457031 L 63.347656 23.457031 L 63.347656 23.214844 L 57.582031 23.214844 Z M 57.582031 23.335938 "/>
<path style=" stroke:none;fill-rule:nonzero;fill:rgb(0%,0%,0%);fill-opacity:1;" d="M 57.582031 23.96875 L 57.582031 24.089844 L 64.535156 24.089844 L 64.535156 23.847656 L 57.582031 23.847656 Z M 57.582031 23.96875 "/>
<path style=" stroke:none;fill-rule:nonzero;fill:rgb(0%,0%,0%);fill-opacity:1;" d="M 56.976562 26.058594 C 56.976562 26.078125 58.933594 26.085938 62.789062 26.085938 C 66.648438 26.085938 68.605469 26.078125 68.605469 26.058594 C 68.605469 26.042969 66.648438 26.035156 62.789062 26.035156 C 58.933594 26.035156 56.976562 26.042969 56.976562 26.058594 Z M 56.976562 26.058594 "/>
<path style=" stroke:none;fill-rule:nonzero;fill:rgb(0%,0%,0%);fill-opacity:1;" d="M 57.582031 26.960938 L 57.582031 27.082031 L 62.257812 27.082031 L 62.257812 26.835938 L 57.582031 26.835938 Z M 57.582031 26.960938 "/>
<path style=" stroke:none;fill-rule:nonzero;fill:rgb(0%,0%,0%);fill-opacity:1;" d="M 57.582031 27.664062 L 57.582031 27.785156 L 63.347656 27.785156 L 63.347656 27.542969 L 57.582031 27.542969 Z M 57.582031 27.664062 "/>
<path style=" stroke:none;fill-rule:nonzero;fill:rgb(0%,0%,0%);fill-opacity:1;" d="M 57.582031 28.320312 L 57.582031 28.441406 L 64.535156 28.441406 L 64.535156 28.199219 L 57.582031 28.199219 Z M 57.582031 28.320312 "/>
<path style=" stroke:none;fill-rule:nonzero;fill:rgb(0%,0%,0%);fill-opacity:1;" d="M 56.976562 29.558594 C 56.976562 29.578125 58.933594 29.585938 62.789062 29.585938 C 66.648438 29.585938 68.605469 29.578125 68.605469 29.558594 C 68.605469 29.542969 66.648438 29.535156 62.789062 29.535156 C 58.933594 29.535156 56.976562 29.542969 56.976562 29.558594 Z M 56.976562 29.558594 "/>
<path style=" stroke:none;fill-rule:nonzero;fill:rgb(0%,0%,0%);fill-opacity:1;" d="M 57.582031 30.070312 L 57.582031 30.191406 L 62.257812 30.191406 L 62.257812 29.949219 L 57.582031 29.949219 Z M 57.582031 30.070312 "/>
<path style=" stroke:none;fill-rule:nonzero;fill:rgb(0%,0%,0%);fill-opacity:1;" d="M 57.582031 30.777344 L 57.582031 30.898438 L 63.347656 30.898438 L 63.347656 30.65625 L 57.582031 30.65625 Z M 57.582031 30.777344 "/>
<path style=" stroke:none;fill-rule:nonzero;fill:rgb(0%,0%,0%);fill-opacity:1;" d="M 57.582031 31.40625 L 57.582031 31.53125 L 64.535156 31.53125 L 64.535156 31.285156 L 57.582031 31.285156 Z M 57.582031 31.40625 "/>
<path style=" stroke:none;fill-rule:nonzero;fill:rgb(0%,0%,0%);fill-opacity:1;" d="M 56.296875 38.90625 L 56.296875 44.851562 L 69.1875 44.851562 L 69.1875 32.964844 L 56.296875 32.964844 Z M 68.945312 38.90625 L 68.945312 44.609375 L 56.539062 44.609375 L 56.539062 33.207031 L 68.945312 33.207031 Z M 68.945312 38.90625 "/>
<path style=" stroke:none;fill-rule:nonzero;fill:rgb(0%,0%,0%);fill-opacity:1;" d="M 57.414062 33.71875 L 57.414062 33.839844 L 68.433594 33.839844 L 68.433594 33.597656 L 57.414062 33.597656 Z M 57.414062 33.71875 "/>
<path style=" stroke:none;fill-rule:nonzero;fill:rgb(0%,0%,0%);fill-opacity:1;" d="M 1.671875 46.1875 L 1.671875 46.308594 L 6.347656 46.308594 L 6.347656 46.066406 L 1.671875 46.066406 Z M 1.671875 46.1875 "/>
<path style=" stroke:none;fill-rule:nonzero;fill:rgb(0%,0%,0%);fill-opacity:1;" d="M 8.9375 46.554688 L 8.9375 46.675781 L 13.613281 46.675781 L 13.613281 46.429688 L 8.9375 46.429688 Z M 8.9375 46.554688 "/>
<path style=" stroke:none;fill-rule:nonzero;fill:rgb(0%,0%,0%);fill-opacity:1;" d="M 18.652344 46.554688 L 18.652344 46.675781 L 23.328125 46.675781 L 23.328125 46.429688 L 18.652344 46.429688 Z M 18.652344 46.554688 "/>
<path style=" stroke:none;fill-rule:nonzero;fill:rgb(0%,0%,0%);fill-opacity:1;" d="M 8.9375 47.257812 L 8.9375 47.378906 L 14.703125 47.378906 L 14.703125 47.136719 L 8.9375 47.136719 Z M 8.9375 47.257812 "/>
<path style=" stroke:none;fill-rule:nonzero;fill:rgb(0%,0%,0%);fill-opacity:1;" d="M 18.652344 47.257812 L 18.652344 47.378906 L 24.417969 47.378906 L 24.417969 47.136719 L 18.652344 47.136719 Z M 18.652344 47.257812 "/>
<path style=" stroke:none;fill-rule:nonzero;fill:rgb(0%,0%,0%);fill-opacity:1;" d="M 8.9375 47.890625 L 8.9375 48.011719 L 15.890625 48.011719 L 15.890625 47.769531 L 8.9375 47.769531 Z M 8.9375 47.890625 "/>
<path style=" stroke:none;fill-rule:nonzero;fill:rgb(0%,0%,0%);fill-opacity:1;" d="M 18.652344 47.890625 L 18.652344 48.011719 L 25.605469 48.011719 L 25.605469 47.769531 L 18.652344 47.769531 Z M 18.652344 47.890625 "/>
<path style=" stroke:none;fill-rule:nonzero;fill:rgb(0%,0%,0%);fill-opacity:1;" d="M 56.726562 45.570312 C 56.648438 45.644531 56.703125 45.773438 56.808594 45.773438 C 56.832031 45.773438 56.871094 45.75 56.894531 45.714844 C 56.929688 45.660156 56.929688 45.648438 56.894531 45.59375 C 56.847656 45.523438 56.78125 45.515625 56.726562 45.570312 Z M 56.867188 45.652344 C 56.867188 45.746094 56.808594 45.78125 56.746094 45.726562 C 56.671875 45.664062 56.726562 45.550781 56.820312 45.5625 C 56.859375 45.566406 56.867188 45.585938 56.867188 45.652344 Z M 56.867188 45.652344 "/>
<path style=" stroke:none;fill-rule:nonzero;fill:rgb(0%,0%,0%);fill-opacity:1;" d="M 56.953125 45.644531 C 56.953125 45.761719 56.953125 45.769531 57.019531 45.765625 C 57.078125 45.761719 57.085938 45.753906 57.085938 45.679688 C 57.085938 45.609375 57.074219 45.59375 57.039062 45.59375 C 57.011719 45.59375 56.980469 45.574219 56.972656 45.554688 C 56.960938 45.535156 56.953125 45.574219 56.953125 45.644531 Z M 57.074219 45.679688 C 57.074219 45.722656 57.0625 45.75 57.039062 45.75 C 56.992188 45.75 56.96875 45.710938 56.988281 45.652344 C 57.011719 45.574219 57.074219 45.59375 57.074219 45.679688 Z M 57.074219 45.679688 "/>
<path style=" stroke:none;fill-rule:nonzero;fill:rgb(0%,0%,0%);fill-opacity:1;" d="M 57.394531 45.652344 C 57.394531 45.726562 57.402344 45.761719 57.40625 45.730469 C 57.417969 45.664062 57.453125 45.660156 57.472656 45.726562 C 57.480469 45.753906 57.5 45.773438 57.511719 45.773438 C 57.523438 45.773438 57.515625 45.75 57.496094 45.714844 C 57.453125 45.652344 57.464844 45.605469 57.523438 45.605469 C 57.546875 45.605469 57.558594 45.632812 57.558594 45.691406 C 57.558594 45.734375 57.566406 45.773438 57.578125 45.773438 C 57.597656 45.773438 57.59375 45.5625 57.574219 45.539062 C 57.566406 45.53125 57.558594 45.535156 57.558594 45.550781 C 57.558594 45.566406 57.542969 45.582031 57.523438 45.582031 C 57.507812 45.582031 57.476562 45.597656 57.457031 45.621094 C 57.425781 45.660156 57.421875 45.652344 57.410156 45.589844 C 57.398438 45.539062 57.394531 45.558594 57.394531 45.652344 Z M 57.394531 45.652344 "/>
<path style=" stroke:none;fill-rule:nonzero;fill:rgb(0%,0%,0%);fill-opacity:1;" d="M 57.152344 45.695312 C 57.148438 45.769531 57.132812 45.824219 57.117188 45.832031 C 57.09375 45.839844 57.09375 45.84375 57.117188 45.84375 C 57.160156 45.847656 57.175781 45.796875 57.164062 45.675781 L 57.152344 45.566406 Z M 57.152344 45.695312 "/>
<path style=" stroke:none;fill-rule:nonzero;fill:rgb(0%,0%,0%);fill-opacity:1;" d="M 57.222656 45.609375 C 57.148438 45.683594 57.230469 45.800781 57.324219 45.753906 C 57.375 45.730469 57.371094 45.730469 57.304688 45.734375 C 57.265625 45.734375 57.230469 45.722656 57.226562 45.707031 C 57.21875 45.6875 57.242188 45.679688 57.289062 45.679688 C 57.332031 45.679688 57.363281 45.667969 57.363281 45.660156 C 57.363281 45.628906 57.3125 45.582031 57.28125 45.582031 C 57.265625 45.582031 57.242188 45.59375 57.222656 45.609375 Z M 57.316406 45.628906 C 57.316406 45.640625 57.292969 45.652344 57.265625 45.652344 C 57.238281 45.652344 57.222656 45.640625 57.230469 45.628906 C 57.238281 45.613281 57.261719 45.605469 57.28125 45.605469 C 57.300781 45.605469 57.316406 45.613281 57.316406 45.628906 Z M 57.316406 45.628906 "/>
<path style=" stroke:none;fill-rule:nonzero;fill:rgb(0%,0%,0%);fill-opacity:1;" d="M 56.976562 46.480469 L 56.976562 46.601562 L 61.652344 46.601562 L 61.652344 46.359375 L 56.976562 46.359375 Z M 56.976562 46.480469 "/>
<path style=" stroke:none;fill-rule:nonzero;fill:rgb(0%,0%,0%);fill-opacity:1;" d="M 56.976562 47.183594 L 56.976562 47.304688 L 62.742188 47.304688 L 62.742188 47.0625 L 56.976562 47.0625 Z M 56.976562 47.183594 "/>
<path style=" stroke:none;fill-rule:nonzero;fill:rgb(0%,0%,0%);fill-opacity:1;" d="M 56.976562 47.839844 L 56.976562 47.960938 L 63.929688 47.960938 L 63.929688 47.71875 L 56.976562 47.71875 Z M 56.976562 47.839844 "/>
<path style=" stroke:none;fill-rule:nonzero;fill:rgb(0%,0%,0%);fill-opacity:1;" d="M 65.3125 45.585938 C 65.316406 45.65625 65.320312 45.691406 65.328125 45.660156 C 65.335938 45.621094 65.355469 45.605469 65.390625 45.605469 C 65.460938 45.605469 65.511719 45.550781 65.488281 45.496094 C 65.480469 45.472656 65.445312 45.457031 65.390625 45.457031 L 65.308594 45.457031 Z M 65.46875 45.53125 C 65.46875 45.554688 65.441406 45.570312 65.402344 45.574219 C 65.347656 45.582031 65.335938 45.574219 65.335938 45.53125 C 65.335938 45.492188 65.347656 45.480469 65.402344 45.488281 C 65.441406 45.492188 65.46875 45.511719 65.46875 45.53125 Z M 65.46875 45.53125 "/>
<path style=" stroke:none;fill-rule:nonzero;fill:rgb(0%,0%,0%);fill-opacity:1;" d="M 65.535156 45.582031 C 65.535156 45.652344 65.539062 45.683594 65.546875 45.644531 C 65.550781 45.609375 65.550781 45.550781 65.546875 45.511719 C 65.539062 45.476562 65.535156 45.507812 65.535156 45.582031 Z M 65.535156 45.582031 "/>
<path style=" stroke:none;fill-rule:nonzero;fill:rgb(0%,0%,0%);fill-opacity:1;" d="M 66.089844 45.582031 C 66.09375 45.691406 66.09375 45.695312 66.101562 45.617188 L 66.113281 45.519531 L 66.160156 45.582031 C 66.183594 45.613281 66.207031 45.628906 66.207031 45.617188 C 66.207031 45.601562 66.179688 45.558594 66.144531 45.519531 L 66.085938 45.445312 Z M 66.089844 45.582031 "/>
<path style=" stroke:none;fill-rule:nonzero;fill:rgb(0%,0%,0%);fill-opacity:1;" d="M 66.226562 45.542969 C 66.226562 45.589844 66.222656 45.640625 66.222656 45.660156 C 66.21875 45.671875 66.234375 45.691406 66.25 45.695312 C 66.269531 45.703125 66.277344 45.671875 66.277344 45.582031 C 66.277344 45.445312 66.234375 45.410156 66.226562 45.542969 Z M 66.226562 45.542969 "/>
<path style=" stroke:none;fill-rule:nonzero;fill:rgb(0%,0%,0%);fill-opacity:1;" d="M 65.617188 45.527344 C 65.609375 45.542969 65.621094 45.546875 65.648438 45.539062 C 65.671875 45.53125 65.699219 45.539062 65.707031 45.550781 C 65.714844 45.5625 65.691406 45.582031 65.660156 45.589844 C 65.574219 45.613281 65.589844 45.691406 65.679688 45.691406 C 65.742188 45.695312 65.75 45.691406 65.742188 45.605469 C 65.738281 45.539062 65.722656 45.515625 65.679688 45.511719 C 65.652344 45.507812 65.621094 45.515625 65.617188 45.527344 Z M 65.722656 45.628906 C 65.722656 45.660156 65.652344 45.691406 65.628906 45.667969 C 65.621094 45.660156 65.628906 45.640625 65.648438 45.628906 C 65.699219 45.597656 65.722656 45.601562 65.722656 45.628906 Z M 65.722656 45.628906 "/>
<path style=" stroke:none;fill-rule:nonzero;fill:rgb(0%,0%,0%);fill-opacity:1;" d="M 65.800781 45.609375 L 65.800781 45.714844 L 65.8125 45.621094 C 65.820312 45.566406 65.832031 45.53125 65.855469 45.53125 C 65.875 45.53125 65.890625 45.566406 65.898438 45.621094 L 65.910156 45.714844 L 65.910156 45.609375 C 65.914062 45.515625 65.910156 45.507812 65.855469 45.507812 C 65.800781 45.507812 65.792969 45.515625 65.800781 45.609375 Z M 65.800781 45.609375 "/>
<path style=" stroke:none;fill-rule:nonzero;fill:rgb(0%,0%,0%);fill-opacity:1;" d="M 66.304688 45.605469 C 66.304688 45.660156 66.316406 45.703125 66.328125 45.703125 C 66.34375 45.703125 66.351562 45.664062 66.351562 45.621094 C 66.351562 45.574219 66.367188 45.53125 66.382812 45.523438 C 66.398438 45.515625 66.386719 45.511719 66.359375 45.511719 C 66.3125 45.507812 66.304688 45.519531 66.304688 45.605469 Z M 66.304688 45.605469 "/>
<path style=" stroke:none;fill-rule:nonzero;fill:rgb(0%,0%,0%);fill-opacity:1;" d="M 65.984375 45.621094 C 66 45.628906 66.023438 45.625 66.03125 45.621094 C 66.039062 45.613281 66.023438 45.605469 66 45.605469 C 65.972656 45.605469 65.964844 45.613281 65.984375 45.621094 Z M 65.984375 45.621094 "/>
<path style=" stroke:none;fill-rule:nonzero;fill:rgb(0%,0%,0%);fill-opacity:1;" d="M 65.3125 46 C 65.316406 46.070312 65.320312 46.101562 65.328125 46.070312 C 65.335938 46.035156 65.355469 46.019531 65.390625 46.019531 C 65.460938 46.019531 65.511719 45.964844 65.488281 45.910156 C 65.480469 45.886719 65.445312 45.871094 65.390625 45.871094 L 65.308594 45.871094 Z M 65.46875 45.945312 C 65.46875 45.96875 65.441406 45.984375 65.402344 45.988281 C 65.347656 45.996094 65.335938 45.988281 65.335938 45.945312 C 65.335938 45.902344 65.347656 45.894531 65.402344 45.902344 C 65.441406 45.90625 65.46875 45.921875 65.46875 45.945312 Z M 65.46875 45.945312 "/>
<path style=" stroke:none;fill-rule:nonzero;fill:rgb(0%,0%,0%);fill-opacity:1;" d="M 66.089844 45.992188 C 66.089844 46.085938 66.09375 46.109375 66.105469 46.066406 L 66.125 46.007812 L 66.152344 46.058594 C 66.171875 46.089844 66.195312 46.117188 66.210938 46.117188 C 66.226562 46.117188 66.21875 46.09375 66.195312 46.066406 C 66.148438 46.015625 66.160156 45.945312 66.21875 45.945312 C 66.246094 45.945312 66.253906 45.96875 66.253906 46.03125 C 66.253906 46.078125 66.261719 46.117188 66.273438 46.117188 C 66.292969 46.117188 66.292969 45.902344 66.269531 45.878906 C 66.261719 45.871094 66.253906 45.878906 66.253906 45.890625 C 66.253906 45.910156 66.242188 45.921875 66.222656 45.921875 C 66.203125 45.921875 66.171875 45.9375 66.15625 45.960938 C 66.125 46 66.121094 45.992188 66.105469 45.929688 C 66.09375 45.878906 66.089844 45.898438 66.089844 45.992188 Z M 66.089844 45.992188 "/>
<path style=" stroke:none;fill-rule:nonzero;fill:rgb(0%,0%,0%);fill-opacity:1;" d="M 66.449219 46 C 66.457031 46.121094 66.457031 46.125 66.46875 46.03125 L 66.484375 45.933594 L 66.640625 46.128906 L 66.636719 45.992188 C 66.636719 45.867188 66.636719 45.863281 66.621094 45.957031 L 66.605469 46.054688 L 66.550781 45.960938 C 66.519531 45.914062 66.484375 45.871094 66.46875 45.871094 C 66.457031 45.871094 66.449219 45.929688 66.449219 46 Z M 66.449219 46 "/>
<path style=" stroke:none;fill-rule:nonzero;fill:rgb(0%,0%,0%);fill-opacity:1;" d="M 65.53125 46.023438 L 65.53125 46.128906 L 65.550781 46.042969 C 65.5625 46 65.585938 45.953125 65.605469 45.941406 C 65.628906 45.929688 65.621094 45.921875 65.582031 45.921875 C 65.535156 45.921875 65.527344 45.933594 65.53125 46.023438 Z M 65.53125 46.023438 "/>
<path style=" stroke:none;fill-rule:nonzero;fill:rgb(0%,0%,0%);fill-opacity:1;" d="M 65.667969 45.9375 C 65.632812 45.96875 65.648438 46.09375 65.6875 46.109375 C 65.746094 46.128906 65.804688 46.058594 65.785156 45.984375 C 65.769531 45.921875 65.703125 45.898438 65.667969 45.9375 Z M 65.757812 46.019531 C 65.757812 46.058594 65.742188 46.082031 65.71875 46.085938 C 65.683594 46.09375 65.671875 46.078125 65.671875 46.019531 C 65.671875 45.957031 65.683594 45.941406 65.71875 45.949219 C 65.742188 45.953125 65.757812 45.980469 65.757812 46.019531 Z M 65.757812 46.019531 "/>
<path style=" stroke:none;fill-rule:nonzero;fill:rgb(0%,0%,0%);fill-opacity:1;" d="M 65.8125 46.054688 C 65.808594 46.1875 65.824219 46.226562 65.851562 46.148438 C 65.875 46.089844 65.871094 45.921875 65.84375 45.921875 C 65.832031 45.921875 65.820312 45.980469 65.8125 46.054688 Z M 65.8125 46.054688 "/>
<path style=" stroke:none;fill-rule:nonzero;fill:rgb(0%,0%,0%);fill-opacity:1;" d="M 65.902344 45.953125 C 65.863281 46.054688 65.949219 46.164062 66.015625 46.097656 C 66.03125 46.082031 66.015625 46.078125 65.984375 46.078125 C 65.957031 46.078125 65.929688 46.0625 65.921875 46.046875 C 65.914062 46.03125 65.933594 46.019531 65.976562 46.019531 C 66.023438 46.019531 66.039062 46.007812 66.03125 45.972656 C 66.023438 45.921875 65.921875 45.902344 65.902344 45.953125 Z M 66.011719 45.96875 C 66.011719 45.980469 65.992188 45.992188 65.960938 45.992188 C 65.933594 45.992188 65.921875 45.980469 65.929688 45.96875 C 65.933594 45.953125 65.960938 45.945312 65.980469 45.945312 C 66 45.945312 66.011719 45.953125 66.011719 45.96875 Z M 66.011719 45.96875 "/>
<path style=" stroke:none;fill-rule:nonzero;fill:rgb(0%,0%,0%);fill-opacity:1;" d="M 66.691406 46.023438 C 66.699219 46.105469 66.699219 46.113281 66.707031 46.054688 C 66.710938 46.011719 66.738281 45.96875 66.757812 45.949219 C 66.792969 45.921875 66.789062 45.921875 66.746094 45.921875 C 66.699219 45.921875 66.691406 45.933594 66.691406 46.023438 Z M 66.691406 46.023438 "/>
<path style=" stroke:none;fill-rule:nonzero;fill:rgb(0%,0%,0%);fill-opacity:1;" d="M 66.347656 46.035156 C 66.363281 46.039062 66.390625 46.039062 66.40625 46.035156 C 66.421875 46.027344 66.410156 46.023438 66.375 46.023438 C 66.34375 46.023438 66.328125 46.027344 66.347656 46.035156 Z M 66.347656 46.035156 "/>
<path style=" stroke:none;fill-rule:nonzero;fill:rgb(0%,0%,0%);fill-opacity:1;" d="M 65.339844 46.277344 C 65.285156 46.300781 65.308594 46.359375 65.398438 46.394531 C 65.441406 46.414062 65.476562 46.441406 65.46875 46.457031 C 65.445312 46.488281 65.375 46.488281 65.335938 46.449219 C 65.308594 46.425781 65.304688 46.425781 65.316406 46.457031 C 65.328125 46.5 65.425781 46.515625 65.46875 46.480469 C 65.523438 46.433594 65.511719 46.40625 65.417969 46.367188 C 65.371094 46.347656 65.339844 46.320312 65.347656 46.308594 C 65.367188 46.277344 65.449219 46.277344 65.460938 46.308594 C 65.46875 46.324219 65.472656 46.320312 65.46875 46.304688 C 65.460938 46.269531 65.390625 46.257812 65.339844 46.277344 Z M 65.339844 46.277344 "/>
<path style=" stroke:none;fill-rule:nonzero;fill:rgb(0%,0%,0%);fill-opacity:1;" d="M 65.523438 46.289062 C 65.507812 46.339844 65.539062 46.488281 65.5625 46.496094 C 65.582031 46.5 65.589844 46.410156 65.578125 46.277344 C 65.578125 46.25 65.53125 46.257812 65.523438 46.289062 Z M 65.523438 46.289062 "/>
<path style=" stroke:none;fill-rule:nonzero;fill:rgb(0%,0%,0%);fill-opacity:1;" d="M 66.109375 46.28125 C 66.109375 46.296875 66.085938 46.308594 66.054688 46.316406 C 66.011719 46.320312 66 46.335938 66 46.40625 C 66 46.480469 66.007812 46.492188 66.066406 46.5 C 66.132812 46.507812 66.132812 46.503906 66.132812 46.386719 C 66.132812 46.316406 66.128906 46.261719 66.121094 46.261719 C 66.113281 46.261719 66.109375 46.269531 66.109375 46.28125 Z M 66.097656 46.40625 C 66.097656 46.472656 66.042969 46.5 66.023438 46.445312 C 66.003906 46.390625 66.03125 46.328125 66.066406 46.339844 C 66.082031 46.347656 66.097656 46.375 66.097656 46.40625 Z M 66.097656 46.40625 "/>
<path style=" stroke:none;fill-rule:nonzero;fill:rgb(0%,0%,0%);fill-opacity:1;" d="M 65.636719 46.335938 C 65.628906 46.351562 65.640625 46.355469 65.683594 46.34375 C 65.71875 46.335938 65.746094 46.339844 65.746094 46.355469 C 65.746094 46.367188 65.71875 46.386719 65.683594 46.390625 C 65.597656 46.414062 65.613281 46.492188 65.703125 46.496094 C 65.765625 46.496094 65.769531 46.488281 65.769531 46.40625 C 65.769531 46.320312 65.761719 46.308594 65.710938 46.308594 C 65.679688 46.308594 65.644531 46.320312 65.636719 46.335938 Z M 65.746094 46.429688 C 65.746094 46.464844 65.679688 46.492188 65.652344 46.46875 C 65.648438 46.460938 65.652344 46.445312 65.671875 46.429688 C 65.722656 46.398438 65.746094 46.402344 65.746094 46.429688 Z M 65.746094 46.429688 "/>
<path style=" stroke:none;fill-rule:nonzero;fill:rgb(0%,0%,0%);fill-opacity:1;" d="M 65.820312 46.417969 L 65.824219 46.515625 L 65.839844 46.433594 C 65.859375 46.316406 65.914062 46.304688 65.914062 46.417969 C 65.914062 46.464844 65.929688 46.503906 65.941406 46.503906 C 65.964844 46.503906 65.972656 46.445312 65.949219 46.367188 C 65.9375 46.328125 65.917969 46.3125 65.875 46.316406 C 65.824219 46.320312 65.820312 46.332031 65.820312 46.417969 Z M 65.820312 46.417969 "/>
<path style=" stroke:none;fill-rule:nonzero;fill:rgb(0%,0%,0%);fill-opacity:1;" d="M 65.3125 46.800781 C 65.316406 46.871094 65.320312 46.90625 65.328125 46.875 C 65.335938 46.835938 65.355469 46.820312 65.390625 46.820312 C 65.460938 46.820312 65.511719 46.765625 65.488281 46.714844 C 65.480469 46.6875 65.445312 46.675781 65.390625 46.675781 L 65.308594 46.675781 Z M 65.46875 46.746094 C 65.46875 46.769531 65.441406 46.785156 65.402344 46.792969 C 65.347656 46.796875 65.335938 46.789062 65.335938 46.746094 C 65.335938 46.707031 65.347656 46.695312 65.402344 46.703125 C 65.441406 46.707031 65.46875 46.726562 65.46875 46.746094 Z M 65.46875 46.746094 "/>
<path style=" stroke:none;fill-rule:nonzero;fill:rgb(0%,0%,0%);fill-opacity:1;" d="M 65.535156 46.796875 C 65.535156 46.867188 65.539062 46.902344 65.546875 46.863281 C 65.550781 46.824219 65.550781 46.765625 65.546875 46.726562 C 65.539062 46.691406 65.535156 46.722656 65.535156 46.796875 Z M 65.535156 46.796875 "/>
<path style=" stroke:none;fill-rule:nonzero;fill:rgb(0%,0%,0%);fill-opacity:1;" d="M 66.417969 46.707031 C 66.402344 46.757812 66.4375 46.902344 66.46875 46.90625 C 66.484375 46.910156 66.488281 46.90625 66.472656 46.902344 C 66.445312 46.886719 66.441406 46.753906 66.46875 46.742188 C 66.484375 46.738281 66.476562 46.722656 66.460938 46.707031 C 66.4375 46.683594 66.425781 46.683594 66.417969 46.707031 Z M 66.417969 46.707031 "/>
<path style=" stroke:none;fill-rule:nonzero;fill:rgb(0%,0%,0%);fill-opacity:1;" d="M 66.691406 46.796875 C 66.691406 46.863281 66.703125 46.917969 66.714844 46.917969 C 66.730469 46.917969 66.738281 46.863281 66.738281 46.796875 C 66.738281 46.726562 66.730469 46.675781 66.714844 46.675781 C 66.703125 46.675781 66.691406 46.726562 66.691406 46.796875 Z M 66.691406 46.796875 "/>
<path style=" stroke:none;fill-rule:nonzero;fill:rgb(0%,0%,0%);fill-opacity:1;" d="M 66.769531 46.796875 C 66.769531 46.867188 66.777344 46.902344 66.78125 46.863281 C 66.785156 46.824219 66.785156 46.765625 66.78125 46.726562 C 66.777344 46.691406 66.769531 46.722656 66.769531 46.796875 Z M 66.769531 46.796875 "/>
<path style=" stroke:none;fill-rule:nonzero;fill:rgb(0%,0%,0%);fill-opacity:1;" d="M 65.617188 46.742188 C 65.609375 46.757812 65.621094 46.761719 65.648438 46.753906 C 65.671875 46.746094 65.699219 46.753906 65.707031 46.765625 C 65.714844 46.777344 65.691406 46.796875 65.660156 46.804688 C 65.574219 46.828125 65.589844 46.90625 65.679688 46.90625 C 65.742188 46.910156 65.75 46.90625 65.742188 46.824219 C 65.738281 46.753906 65.722656 46.734375 65.679688 46.726562 C 65.652344 46.722656 65.621094 46.730469 65.617188 46.742188 Z M 65.722656 46.84375 C 65.722656 46.875 65.652344 46.90625 65.628906 46.882812 C 65.621094 46.875 65.628906 46.855469 65.648438 46.84375 C 65.699219 46.8125 65.722656 46.816406 65.722656 46.84375 Z M 65.722656 46.84375 "/>
<path style=" stroke:none;fill-rule:nonzero;fill:rgb(0%,0%,0%);fill-opacity:1;" d="M 65.800781 46.824219 L 65.800781 46.929688 L 65.8125 46.835938 C 65.820312 46.78125 65.832031 46.746094 65.855469 46.746094 C 65.875 46.746094 65.890625 46.78125 65.898438 46.835938 L 65.910156 46.929688 L 65.910156 46.824219 C 65.914062 46.730469 65.910156 46.722656 65.855469 46.722656 C 65.800781 46.722656 65.792969 46.730469 65.800781 46.824219 Z M 65.800781 46.824219 "/>
<path style=" stroke:none;fill-rule:nonzero;fill:rgb(0%,0%,0%);fill-opacity:1;" d="M 65.972656 46.757812 C 65.933594 46.855469 66.023438 46.964844 66.085938 46.902344 C 66.101562 46.886719 66.089844 46.878906 66.058594 46.878906 C 66.03125 46.882812 66 46.867188 65.996094 46.847656 C 65.988281 46.832031 66.007812 46.820312 66.050781 46.820312 C 66.097656 46.820312 66.113281 46.8125 66.105469 46.777344 C 66.09375 46.722656 65.992188 46.707031 65.972656 46.757812 Z M 66.085938 46.773438 C 66.085938 46.785156 66.0625 46.796875 66.035156 46.796875 C 66.007812 46.796875 65.992188 46.785156 66 46.773438 C 66.007812 46.757812 66.03125 46.746094 66.050781 46.746094 C 66.070312 46.746094 66.085938 46.757812 66.085938 46.773438 Z M 66.085938 46.773438 "/>
<path style=" stroke:none;fill-rule:nonzero;fill:rgb(0%,0%,0%);fill-opacity:1;" d="M 66.164062 46.824219 C 66.164062 46.925781 66.164062 46.925781 66.175781 46.84375 C 66.183594 46.796875 66.199219 46.753906 66.214844 46.742188 C 66.234375 46.730469 66.226562 46.722656 66.203125 46.722656 C 66.164062 46.722656 66.15625 46.742188 66.164062 46.824219 Z M 66.164062 46.824219 "/>
<path style=" stroke:none;fill-rule:nonzero;fill:rgb(0%,0%,0%);fill-opacity:1;" d="M 66.273438 46.738281 C 66.242188 46.773438 66.253906 46.816406 66.304688 46.828125 C 66.328125 46.835938 66.351562 46.855469 66.351562 46.867188 C 66.351562 46.886719 66.332031 46.894531 66.300781 46.886719 C 66.261719 46.875 66.253906 46.878906 66.273438 46.898438 C 66.308594 46.933594 66.375 46.90625 66.375 46.859375 C 66.375 46.839844 66.355469 46.816406 66.328125 46.808594 C 66.265625 46.789062 66.265625 46.738281 66.328125 46.753906 C 66.355469 46.761719 66.371094 46.757812 66.363281 46.746094 C 66.347656 46.71875 66.292969 46.714844 66.273438 46.738281 Z M 66.273438 46.738281 "/>
<path style=" stroke:none;fill-rule:nonzero;fill:rgb(0%,0%,0%);fill-opacity:1;" d="M 66.53125 46.757812 C 66.492188 46.855469 66.578125 46.964844 66.644531 46.902344 C 66.660156 46.886719 66.648438 46.878906 66.617188 46.878906 C 66.585938 46.882812 66.558594 46.867188 66.554688 46.847656 C 66.546875 46.832031 66.566406 46.820312 66.605469 46.820312 C 66.65625 46.820312 66.667969 46.8125 66.660156 46.777344 C 66.652344 46.722656 66.550781 46.707031 66.53125 46.757812 Z M 66.628906 46.773438 C 66.636719 46.785156 66.625 46.796875 66.597656 46.796875 C 66.566406 46.796875 66.546875 46.785156 66.546875 46.773438 C 66.546875 46.757812 66.558594 46.746094 66.578125 46.746094 C 66.597656 46.746094 66.625 46.757812 66.628906 46.773438 Z M 66.628906 46.773438 "/>
<path style=" stroke:none;fill-rule:nonzero;fill:rgb(0%,0%,0%);fill-opacity:1;" d="M 66.847656 46.757812 C 66.808594 46.855469 66.894531 46.964844 66.960938 46.902344 C 66.972656 46.886719 66.960938 46.878906 66.929688 46.878906 C 66.902344 46.882812 66.871094 46.867188 66.867188 46.847656 C 66.859375 46.832031 66.878906 46.820312 66.921875 46.820312 C 66.96875 46.820312 66.984375 46.8125 66.976562 46.777344 C 66.96875 46.722656 66.867188 46.707031 66.847656 46.757812 Z M 66.957031 46.773438 C 66.957031 46.785156 66.9375 46.796875 66.90625 46.796875 C 66.878906 46.796875 66.867188 46.785156 66.871094 46.773438 C 66.878906 46.757812 66.902344 46.746094 66.921875 46.746094 C 66.941406 46.746094 66.957031 46.757812 66.957031 46.773438 Z M 66.957031 46.773438 "/>
<path style=" stroke:none;fill-rule:nonzero;fill:rgb(0%,0%,0%);fill-opacity:1;" d="M 67.035156 46.824219 C 67.039062 46.925781 67.039062 46.925781 67.046875 46.84375 C 67.054688 46.796875 67.070312 46.753906 67.085938 46.742188 C 67.105469 46.730469 67.101562 46.722656 67.074219 46.722656 C 67.039062 46.722656 67.03125 46.742188 67.035156 46.824219 Z M 67.035156 46.824219 "/>
<path style=" stroke:none;fill-rule:nonzero;fill:rgb(0%,0%,0%);fill-opacity:1;" d="M 65.382812 48.328125 L 65.382812 48.449219 L 68.046875 48.449219 L 68.046875 48.207031 L 65.382812 48.207031 Z M 65.382812 48.328125 "/>
<path style=" stroke:none;fill-rule:nonzero;fill:rgb(0%,0%,0%);fill-opacity:1;" d="M 65.382812 48.886719 L 65.382812 49.007812 L 69.066406 49.007812 L 69.066406 48.765625 L 65.382812 48.765625 Z M 65.382812 48.886719 "/>
</g>
</svg>
