<?xml version="1.0" encoding="UTF-8"?>
<svg xmlns="http://www.w3.org/2000/svg" xmlns:xlink="http://www.w3.org/1999/xlink" width="33px" height="50px" viewBox="0 0 33 49" version="1.1">
<g id="surface1">
<path style=" stroke:none;fill-rule:nonzero;fill:rgb(0%,0%,0%);fill-opacity:1;" d="M 2.390625 0.117188 C 1.828125 0.265625 1.386719 0.519531 0.953125 0.945312 C 0.515625 1.382812 0.261719 1.816406 0.117188 2.398438 C 0 2.835938 0 3.082031 0 24.488281 C 0 45.894531 0 46.140625 0.117188 46.578125 C 0.261719 47.160156 0.515625 47.59375 0.953125 48.03125 C 1.390625 48.464844 1.828125 48.71875 2.414062 48.863281 C 2.855469 48.976562 3.085938 48.976562 16.503906 48.976562 C 29.925781 48.976562 30.15625 48.976562 30.597656 48.863281 C 31.183594 48.71875 31.621094 48.464844 32.058594 48.03125 C 32.496094 47.59375 32.75 47.160156 32.894531 46.578125 C 33.011719 46.140625 33.011719 45.894531 33.011719 24.488281 C 33.011719 3.082031 33.011719 2.835938 32.894531 2.398438 C 32.75 1.816406 32.496094 1.382812 32.058594 0.945312 C 31.621094 0.511719 31.183594 0.257812 30.597656 0.117188 C 30.15625 0 29.929688 0 16.484375 0.00390625 C 3.191406 0.00390625 2.800781 0.0117188 2.390625 0.117188 Z M 16.765625 0.761719 C 16.84375 0.90625 16.84375 0.9375 16.765625 1.078125 C 16.644531 1.289062 16.40625 1.320312 16.28125 1.140625 C 16.226562 1.070312 16.1875 0.972656 16.1875 0.921875 C 16.1875 0.871094 16.226562 0.773438 16.28125 0.703125 C 16.40625 0.523438 16.644531 0.554688 16.765625 0.761719 Z M 29.367188 1.90625 C 29.882812 2.015625 30.285156 2.242188 30.695312 2.644531 C 31.101562 3.054688 31.328125 3.453125 31.4375 3.964844 C 31.53125 4.394531 31.53125 42.679688 31.4375 43.109375 C 31.328125 43.625 31.101562 44.023438 30.695312 44.429688 C 30.285156 44.835938 29.882812 45.058594 29.367188 45.167969 C 28.933594 45.261719 4.078125 45.261719 3.644531 45.167969 C 3.128906 45.058594 2.726562 44.835938 2.316406 44.429688 C 1.910156 44.023438 1.683594 43.625 1.570312 43.109375 C 1.480469 42.679688 1.480469 4.394531 1.570312 3.964844 C 1.683594 3.453125 1.910156 3.054688 2.316406 2.644531 C 2.714844 2.253906 3.074219 2.039062 3.566406 1.925781 C 3.96875 1.828125 28.902344 1.808594 29.367188 1.90625 Z M 16.898438 45.757812 C 17.183594 45.832031 17.566406 46.175781 17.699219 46.46875 C 17.925781 46.953125 17.792969 47.507812 17.359375 47.894531 C 16.859375 48.335938 16.152344 48.335938 15.652344 47.894531 C 15.066406 47.371094 15.054688 46.585938 15.625 46.050781 C 15.960938 45.726562 16.425781 45.625 16.898438 45.757812 Z M 16.898438 45.757812 "/>
<path style=" stroke:none;fill-rule:nonzero;fill:rgb(0%,0%,0%);fill-opacity:1;" d="M 2.203125 8.210938 L 2.203125 8.816406 L 3.480469 8.816406 L 3.480469 7.605469 L 2.203125 7.605469 Z M 3.074219 8.210938 C 3.074219 8.40625 3.070312 8.414062 2.84375 8.414062 C 2.617188 8.414062 2.609375 8.40625 2.609375 8.210938 C 2.609375 8.015625 2.617188 8.007812 2.84375 8.007812 C 3.070312 8.007812 3.074219 8.015625 3.074219 8.210938 Z M 3.074219 8.210938 "/>
<path style=" stroke:none;fill-rule:nonzero;fill:rgb(0%,0%,0%);fill-opacity:1;" d="M 3.886719 8.210938 L 3.886719 8.816406 L 5.164062 8.816406 L 5.164062 7.605469 L 3.886719 7.605469 Z M 4.757812 8.210938 C 4.757812 8.40625 4.75 8.414062 4.523438 8.414062 C 4.300781 8.414062 4.292969 8.40625 4.292969 8.210938 C 4.292969 8.015625 4.300781 8.007812 4.523438 8.007812 C 4.75 8.007812 4.757812 8.015625 4.757812 8.210938 Z M 4.757812 8.210938 "/>
<path style=" stroke:none;fill-rule:nonzero;fill:rgb(0%,0%,0%);fill-opacity:1;" d="M 17.707031 7.789062 C 17.539062 7.957031 17.6875 8.207031 17.9375 8.171875 C 18.050781 8.160156 18.070312 8.117188 18.070312 7.953125 C 18.070312 7.777344 18.050781 7.75 17.925781 7.734375 C 17.847656 7.722656 17.746094 7.75 17.707031 7.789062 Z M 17.707031 7.789062 "/>
<path style=" stroke:none;fill-rule:nonzero;fill:rgb(0%,0%,0%);fill-opacity:1;" d="M 19.910156 7.789062 C 19.742188 7.957031 19.894531 8.207031 20.144531 8.171875 C 20.253906 8.160156 20.277344 8.117188 20.277344 7.953125 C 20.277344 7.777344 20.253906 7.75 20.132812 7.734375 C 20.050781 7.722656 19.953125 7.75 19.910156 7.789062 Z M 19.910156 7.789062 "/>
<path style=" stroke:none;fill-rule:nonzero;fill:rgb(0%,0%,0%);fill-opacity:1;" d="M 5.714844 7.90625 C 5.695312 7.953125 5.691406 8.4375 5.695312 8.988281 L 5.714844 9.996094 L 6.121094 9.996094 L 6.121094 7.863281 L 5.929688 7.847656 C 5.8125 7.835938 5.730469 7.859375 5.714844 7.90625 Z M 5.714844 7.90625 "/>
<path style=" stroke:none;fill-rule:nonzero;fill:rgb(0%,0%,0%);fill-opacity:1;" d="M 13.675781 8.050781 C 13.652344 8.066406 13.632812 8.160156 13.632812 8.246094 C 13.632812 8.347656 13.597656 8.40625 13.519531 8.429688 C 13.359375 8.46875 13.355469 8.757812 13.511719 8.757812 C 13.609375 8.757812 13.621094 8.816406 13.644531 9.3125 C 13.667969 9.808594 13.6875 9.882812 13.800781 9.972656 C 14.039062 10.167969 14.445312 10.105469 14.445312 9.875 C 14.445312 9.765625 14.417969 9.738281 14.300781 9.738281 C 14.109375 9.738281 14.039062 9.582031 14.039062 9.136719 L 14.039062 8.757812 L 14.242188 8.757812 C 14.429688 8.757812 14.445312 8.746094 14.445312 8.585938 C 14.445312 8.425781 14.429688 8.414062 14.242188 8.414062 C 14.050781 8.414062 14.039062 8.402344 14.039062 8.210938 C 14.039062 8.027344 14.023438 8.007812 13.878906 8.007812 C 13.785156 8.007812 13.691406 8.027344 13.675781 8.050781 Z M 13.675781 8.050781 "/>
<path style=" stroke:none;fill-rule:nonzero;fill:rgb(0%,0%,0%);fill-opacity:1;" d="M 7.171875 8.5 C 6.96875 8.636719 6.960938 8.636719 6.960938 8.523438 C 6.960938 8.429688 6.933594 8.40625 6.804688 8.425781 L 6.644531 8.441406 L 6.625 9.238281 L 6.609375 10.03125 L 6.800781 10.015625 L 6.992188 9.996094 L 7.007812 9.476562 C 7.019531 9.046875 7.042969 8.941406 7.148438 8.832031 C 7.304688 8.667969 7.457031 8.667969 7.566406 8.828125 C 7.636719 8.917969 7.660156 9.105469 7.660156 9.496094 L 7.660156 10.03125 L 7.851562 10.015625 L 8.035156 9.996094 L 8.035156 9.316406 C 8.035156 8.636719 8.035156 8.632812 7.871094 8.492188 C 7.664062 8.316406 7.4375 8.320312 7.171875 8.5 Z M 7.171875 8.5 "/>
<path style=" stroke:none;fill-rule:nonzero;fill:rgb(0%,0%,0%);fill-opacity:1;" d="M 10.34375 8.4375 C 10.09375 8.546875 9.980469 8.746094 9.9375 9.117188 C 9.863281 9.828125 10.351562 10.222656 11.070312 10.03125 C 11.289062 9.96875 11.3125 9.945312 11.3125 9.789062 C 11.3125 9.640625 11.296875 9.617188 11.214844 9.652344 C 11.15625 9.675781 10.996094 9.703125 10.847656 9.71875 C 10.558594 9.75 10.417969 9.675781 10.355469 9.460938 C 10.320312 9.335938 10.328125 9.335938 10.84375 9.335938 C 11.421875 9.335938 11.441406 9.324219 11.367188 8.90625 C 11.285156 8.464844 10.792969 8.234375 10.34375 8.4375 Z M 10.929688 8.828125 C 10.984375 8.898438 11.023438 8.976562 11.023438 9 C 11.023438 9.027344 10.867188 9.046875 10.675781 9.046875 C 10.375 9.046875 10.332031 9.035156 10.367188 8.941406 C 10.464844 8.667969 10.773438 8.601562 10.929688 8.828125 Z M 10.929688 8.828125 "/>
<path style=" stroke:none;fill-rule:nonzero;fill:rgb(0%,0%,0%);fill-opacity:1;" d="M 12.316406 8.464844 C 12.167969 8.554688 12.132812 8.5625 12.101562 8.492188 C 12.085938 8.445312 12.003906 8.414062 11.921875 8.414062 L 11.777344 8.414062 L 11.777344 10.03125 L 11.96875 10.015625 L 12.15625 9.996094 L 12.183594 9.421875 C 12.210938 8.867188 12.21875 8.84375 12.371094 8.757812 C 12.492188 8.695312 12.554688 8.6875 12.628906 8.734375 C 12.71875 8.785156 12.742188 8.90625 12.765625 9.398438 L 12.792969 9.996094 L 12.984375 10.015625 L 13.167969 10.03125 L 13.167969 9.398438 C 13.167969 8.707031 13.117188 8.515625 12.898438 8.417969 C 12.695312 8.324219 12.527344 8.335938 12.316406 8.464844 Z M 12.316406 8.464844 "/>
<path style=" stroke:none;fill-rule:nonzero;fill:rgb(0%,0%,0%);fill-opacity:1;" d="M 14.96875 8.429688 C 14.8125 8.480469 14.765625 8.527344 14.765625 8.644531 C 14.765625 8.742188 14.792969 8.78125 14.851562 8.765625 C 15.320312 8.648438 15.605469 8.710938 15.605469 8.929688 C 15.605469 9.007812 15.535156 9.039062 15.304688 9.0625 C 14.898438 9.117188 14.714844 9.253906 14.691406 9.53125 C 14.65625 9.960938 15.039062 10.203125 15.4375 10.003906 C 15.566406 9.9375 15.648438 9.929688 15.6875 9.96875 C 15.714844 9.996094 15.804688 10.027344 15.878906 10.027344 C 16.011719 10.027344 16.011719 10.015625 16.011719 9.359375 C 16.011719 8.996094 15.988281 8.644531 15.953125 8.585938 C 15.839844 8.371094 15.355469 8.296875 14.96875 8.429688 Z M 15.605469 9.476562 C 15.605469 9.726562 15.140625 9.839844 15.097656 9.605469 C 15.066406 9.445312 15.195312 9.335938 15.410156 9.335938 C 15.578125 9.335938 15.605469 9.351562 15.605469 9.476562 Z M 15.605469 9.476562 "/>
<path style=" stroke:none;fill-rule:nonzero;fill:rgb(0%,0%,0%);fill-opacity:1;" d="M 17.058594 8.394531 C 17.011719 8.414062 16.921875 8.480469 16.871094 8.550781 L 16.765625 8.671875 L 16.765625 8.539062 C 16.765625 8.429688 16.738281 8.40625 16.609375 8.425781 L 16.449219 8.441406 L 16.429688 9.238281 L 16.414062 10.03125 L 16.605469 10.015625 L 16.796875 9.996094 L 16.8125 9.507812 C 16.824219 9.097656 16.847656 9 16.957031 8.886719 C 17.039062 8.796875 17.132812 8.757812 17.21875 8.777344 C 17.316406 8.792969 17.359375 8.769531 17.382812 8.667969 C 17.453125 8.402344 17.324219 8.296875 17.058594 8.394531 Z M 17.058594 8.394531 "/>
<path style=" stroke:none;fill-rule:nonzero;fill:rgb(0%,0%,0%);fill-opacity:1;" d="M 18.761719 8.414062 C 18.488281 8.523438 18.363281 8.90625 18.523438 9.128906 C 18.570312 9.183594 18.722656 9.289062 18.859375 9.359375 C 19.035156 9.4375 19.117188 9.511719 19.117188 9.59375 C 19.117188 9.691406 19.082031 9.707031 18.882812 9.703125 C 18.757812 9.703125 18.605469 9.679688 18.546875 9.65625 C 18.457031 9.609375 18.445312 9.632812 18.460938 9.800781 C 18.476562 9.972656 18.507812 10.003906 18.6875 10.050781 C 19.15625 10.164062 19.550781 9.949219 19.550781 9.578125 C 19.550781 9.292969 19.46875 9.195312 19.128906 9.046875 C 18.917969 8.964844 18.851562 8.902344 18.867188 8.832031 C 18.882812 8.757812 18.941406 8.730469 19.085938 8.734375 C 19.199219 8.734375 19.335938 8.757812 19.394531 8.78125 C 19.476562 8.820312 19.492188 8.796875 19.492188 8.648438 C 19.492188 8.503906 19.457031 8.453125 19.34375 8.414062 C 19.167969 8.34375 18.929688 8.34375 18.761719 8.414062 Z M 18.761719 8.414062 "/>
<path style=" stroke:none;fill-rule:nonzero;fill:rgb(0%,0%,0%);fill-opacity:1;" d="M 21.078125 8.4375 C 20.828125 8.546875 20.710938 8.746094 20.671875 9.117188 C 20.597656 9.828125 21.082031 10.222656 21.804688 10.03125 C 22.023438 9.96875 22.046875 9.945312 22.046875 9.789062 C 22.046875 9.640625 22.027344 9.617188 21.949219 9.652344 C 21.890625 9.675781 21.726562 9.703125 21.582031 9.71875 C 21.292969 9.75 21.152344 9.675781 21.089844 9.460938 C 21.054688 9.335938 21.058594 9.335938 21.578125 9.335938 C 22.15625 9.335938 22.175781 9.324219 22.097656 8.90625 C 22.015625 8.464844 21.523438 8.234375 21.078125 8.4375 Z M 21.664062 8.828125 C 21.714844 8.898438 21.757812 8.976562 21.757812 9 C 21.757812 9.027344 21.601562 9.046875 21.410156 9.046875 C 21.105469 9.046875 21.066406 9.035156 21.101562 8.941406 C 21.199219 8.667969 21.507812 8.601562 21.664062 8.828125 Z M 21.664062 8.828125 "/>
<path style=" stroke:none;fill-rule:nonzero;fill:rgb(0%,0%,0%);fill-opacity:1;" d="M 23.019531 8.464844 C 22.894531 8.566406 22.863281 8.566406 22.835938 8.5 C 22.816406 8.453125 22.738281 8.414062 22.65625 8.414062 L 22.511719 8.414062 L 22.511719 10.03125 L 22.703125 10.015625 L 22.886719 9.996094 L 22.917969 9.472656 C 22.953125 8.875 23.019531 8.734375 23.277344 8.769531 C 23.4375 8.796875 23.445312 8.785156 23.425781 8.589844 C 23.402344 8.335938 23.246094 8.292969 23.019531 8.464844 Z M 23.019531 8.464844 "/>
<path style=" stroke:none;fill-rule:nonzero;fill:rgb(0%,0%,0%);fill-opacity:1;" d="M 26.125 8.464844 C 25.972656 8.554688 25.9375 8.5625 25.910156 8.492188 C 25.894531 8.445312 25.8125 8.414062 25.730469 8.414062 L 25.585938 8.414062 L 25.585938 10.03125 L 25.777344 10.015625 L 25.960938 9.996094 L 25.992188 9.421875 C 26.019531 8.867188 26.027344 8.84375 26.175781 8.757812 C 26.300781 8.695312 26.363281 8.6875 26.4375 8.734375 C 26.523438 8.785156 26.546875 8.90625 26.570312 9.398438 L 26.601562 9.996094 L 26.792969 10.015625 L 26.976562 10.03125 L 26.976562 9.398438 C 26.976562 8.707031 26.925781 8.515625 26.707031 8.417969 C 26.503906 8.324219 26.332031 8.335938 26.125 8.464844 Z M 26.125 8.464844 "/>
<path style=" stroke:none;fill-rule:nonzero;fill:rgb(0%,0%,0%);fill-opacity:1;" d="M 27.691406 8.4375 C 27.59375 8.480469 27.484375 8.566406 27.449219 8.636719 C 27.371094 8.777344 27.367188 9.046875 27.4375 9.15625 C 27.472656 9.214844 27.460938 9.300781 27.402344 9.410156 C 27.332031 9.542969 27.332031 9.609375 27.378906 9.71875 C 27.429688 9.828125 27.425781 9.898438 27.347656 10.039062 C 27.144531 10.429688 27.472656 10.699219 28.074219 10.640625 C 28.585938 10.589844 28.871094 10.285156 28.742188 9.921875 C 28.679688 9.738281 28.417969 9.628906 28.015625 9.628906 C 27.832031 9.621094 27.730469 9.59375 27.714844 9.535156 C 27.675781 9.433594 27.75 9.378906 27.871094 9.425781 C 28.027344 9.484375 28.363281 9.398438 28.484375 9.265625 C 28.554688 9.191406 28.601562 9.058594 28.601562 8.949219 C 28.601562 8.816406 28.632812 8.757812 28.6875 8.757812 C 28.746094 8.757812 28.777344 8.699219 28.777344 8.585938 C 28.777344 8.429688 28.757812 8.414062 28.578125 8.414062 C 28.476562 8.414062 28.273438 8.402344 28.132812 8.382812 C 27.976562 8.367188 27.808594 8.382812 27.691406 8.4375 Z M 28.183594 8.710938 C 28.226562 8.753906 28.253906 8.832031 28.253906 8.902344 C 28.253906 8.972656 28.226562 9.050781 28.183594 9.09375 C 28.144531 9.132812 28.0625 9.160156 27.992188 9.160156 C 27.921875 9.160156 27.84375 9.132812 27.800781 9.09375 C 27.761719 9.050781 27.730469 8.972656 27.730469 8.902344 C 27.730469 8.832031 27.761719 8.753906 27.800781 8.710938 C 27.84375 8.671875 27.921875 8.644531 27.992188 8.644531 C 28.0625 8.644531 28.144531 8.671875 28.183594 8.710938 Z M 28.316406 10.058594 C 28.445312 10.214844 28.3125 10.34375 28.023438 10.34375 C 27.855469 10.34375 27.753906 10.3125 27.714844 10.246094 C 27.617188 10.101562 27.765625 9.96875 28.023438 9.96875 C 28.148438 9.96875 28.273438 10.007812 28.316406 10.058594 Z M 28.316406 10.058594 "/>
<path style=" stroke:none;fill-rule:nonzero;fill:rgb(0%,0%,0%);fill-opacity:1;" d="M 8.265625 8.480469 C 8.253906 8.523438 8.355469 8.878906 8.492188 9.277344 L 8.742188 9.996094 L 8.976562 10.015625 C 9.113281 10.027344 9.230469 10.003906 9.265625 9.957031 C 9.328125 9.882812 9.804688 8.5625 9.804688 8.457031 C 9.804688 8.429688 9.71875 8.414062 9.621094 8.425781 C 9.433594 8.441406 9.421875 8.457031 9.242188 8.988281 C 9.136719 9.289062 9.050781 9.546875 9.042969 9.566406 C 9.042969 9.582031 8.953125 9.335938 8.847656 9.015625 C 8.660156 8.464844 8.644531 8.441406 8.476562 8.425781 C 8.367188 8.414062 8.285156 8.4375 8.265625 8.480469 Z M 8.265625 8.480469 "/>
<path style=" stroke:none;fill-rule:nonzero;fill:rgb(0%,0%,0%);fill-opacity:1;" d="M 17.707031 9.203125 L 17.722656 9.996094 L 17.914062 10.015625 L 18.105469 10.03125 L 18.089844 9.238281 L 18.070312 8.441406 L 17.878906 8.425781 L 17.6875 8.40625 Z M 17.707031 9.203125 "/>
<path style=" stroke:none;fill-rule:nonzero;fill:rgb(0%,0%,0%);fill-opacity:1;" d="M 19.910156 9.203125 L 19.929688 9.996094 L 20.121094 10.015625 L 20.3125 10.03125 L 20.292969 9.238281 L 20.277344 8.441406 L 20.085938 8.425781 L 19.894531 8.40625 Z M 19.910156 9.203125 "/>
<path style=" stroke:none;fill-rule:nonzero;fill:rgb(0%,0%,0%);fill-opacity:1;" d="M 23.730469 9.039062 C 23.730469 9.730469 23.78125 9.921875 24 10.019531 C 24.203125 10.113281 24.371094 10.101562 24.582031 9.972656 C 24.734375 9.882812 24.765625 9.875 24.796875 9.945312 C 24.8125 9.992188 24.894531 10.027344 24.976562 10.027344 L 25.121094 10.027344 L 25.121094 8.40625 L 24.9375 8.425781 L 24.746094 8.441406 L 24.726562 8.960938 C 24.714844 9.390625 24.691406 9.496094 24.585938 9.605469 C 24.449219 9.753906 24.296875 9.777344 24.203125 9.664062 C 24.167969 9.621094 24.128906 9.328125 24.125 9.011719 L 24.105469 8.441406 L 23.921875 8.425781 L 23.730469 8.40625 Z M 23.730469 9.039062 "/>
<path style=" stroke:none;fill-rule:nonzero;fill:rgb(0%,0%,0%);fill-opacity:1;" d="M 2.203125 9.882812 L 2.203125 10.488281 L 3.480469 10.488281 L 3.480469 9.277344 L 2.203125 9.277344 Z M 3.074219 9.882812 C 3.074219 10.078125 3.070312 10.082031 2.84375 10.082031 C 2.617188 10.082031 2.609375 10.078125 2.609375 9.882812 C 2.609375 9.6875 2.617188 9.679688 2.84375 9.679688 C 3.070312 9.679688 3.074219 9.6875 3.074219 9.882812 Z M 3.074219 9.882812 "/>
<path style=" stroke:none;fill-rule:nonzero;fill:rgb(0%,0%,0%);fill-opacity:1;" d="M 3.886719 9.882812 L 3.886719 10.488281 L 4.289062 10.488281 L 4.304688 10.1875 C 4.316406 9.949219 4.34375 9.875 4.425781 9.863281 C 4.496094 9.851562 4.523438 9.882812 4.523438 9.960938 C 4.523438 10.070312 4.558594 10.082031 4.84375 10.082031 L 5.164062 10.082031 L 5.164062 9.679688 C 5.164062 9.316406 5.152344 9.277344 5.046875 9.277344 C 4.984375 9.277344 4.929688 9.316406 4.929688 9.363281 C 4.929688 9.421875 4.867188 9.449219 4.726562 9.449219 C 4.589844 9.449219 4.523438 9.421875 4.523438 9.363281 C 4.523438 9.292969 4.449219 9.277344 4.207031 9.277344 L 3.886719 9.277344 Z M 3.886719 9.882812 "/>
<path style=" stroke:none;fill-rule:nonzero;fill:rgb(0%,0%,0%);fill-opacity:1;" d="M 4.523438 10.402344 C 4.523438 10.445312 4.578125 10.488281 4.640625 10.488281 C 4.707031 10.488281 4.757812 10.445312 4.757812 10.402344 C 4.757812 10.355469 4.707031 10.3125 4.640625 10.3125 C 4.578125 10.3125 4.523438 10.355469 4.523438 10.402344 Z M 4.523438 10.402344 "/>
<path style=" stroke:none;fill-rule:nonzero;fill:rgb(0%,0%,0%);fill-opacity:1;" d="M 4.929688 10.402344 C 4.929688 10.445312 4.984375 10.488281 5.046875 10.488281 C 5.109375 10.488281 5.164062 10.445312 5.164062 10.402344 C 5.164062 10.355469 5.109375 10.3125 5.046875 10.3125 C 4.984375 10.3125 4.929688 10.355469 4.929688 10.402344 Z M 4.929688 10.402344 "/>
<path style=" stroke:none;fill-rule:nonzero;fill:rgb(0%,0%,0%);fill-opacity:1;" d="M 2.554688 16.304688 L 2.554688 18.207031 L 20.828125 18.207031 L 20.828125 14.40625 L 2.554688 14.40625 Z M 20.246094 16.304688 L 20.246094 17.632812 L 3.132812 17.632812 L 3.132812 14.980469 L 20.246094 14.980469 Z M 20.246094 16.304688 "/>
<path style=" stroke:none;fill-rule:nonzero;fill:rgb(0%,0%,0%);fill-opacity:1;" d="M 28.304688 14.445312 C 28.101562 14.496094 27.121094 16.214844 26.832031 17.027344 C 26.6875 17.429688 26.664062 17.441406 26.507812 17.1875 C 26.289062 16.832031 25.933594 16.480469 25.792969 16.480469 C 25.726562 16.480469 25.613281 16.515625 25.554688 16.558594 C 25.453125 16.636719 25.464844 16.65625 25.769531 16.992188 C 25.949219 17.183594 26.183594 17.480469 26.292969 17.65625 C 26.46875 17.949219 26.503906 17.972656 26.695312 17.976562 C 26.902344 17.976562 26.902344 17.976562 27.066406 17.527344 C 27.296875 16.871094 27.867188 15.78125 28.316406 15.109375 C 28.539062 14.785156 28.71875 14.492188 28.71875 14.460938 C 28.71875 14.40625 28.484375 14.394531 28.304688 14.445312 Z M 28.304688 14.445312 "/>
<path style=" stroke:none;fill-rule:nonzero;fill:rgb(0%,0%,0%);fill-opacity:1;" d="M 2.554688 24.199219 L 2.554688 26.101562 L 20.828125 26.101562 L 20.828125 22.300781 L 2.554688 22.300781 Z M 20.246094 24.199219 L 20.246094 25.527344 L 3.132812 25.527344 L 3.132812 22.875 L 20.246094 22.875 Z M 20.246094 24.199219 "/>
<path style=" stroke:none;fill-rule:nonzero;fill:rgb(0%,0%,0%);fill-opacity:1;" d="M 28.304688 22.339844 C 28.101562 22.390625 27.121094 24.109375 26.832031 24.921875 C 26.6875 25.324219 26.664062 25.335938 26.507812 25.082031 C 26.289062 24.726562 25.933594 24.375 25.792969 24.375 C 25.726562 24.375 25.613281 24.40625 25.554688 24.453125 C 25.453125 24.527344 25.464844 24.550781 25.769531 24.886719 C 25.949219 25.078125 26.183594 25.375 26.292969 25.546875 C 26.46875 25.84375 26.503906 25.867188 26.695312 25.871094 C 26.902344 25.871094 26.902344 25.871094 27.066406 25.421875 C 27.296875 24.765625 27.867188 23.675781 28.316406 23 C 28.539062 22.679688 28.71875 22.386719 28.71875 22.355469 C 28.71875 22.300781 28.484375 22.289062 28.304688 22.339844 Z M 28.304688 22.339844 "/>
<path style=" stroke:none;fill-rule:nonzero;fill:rgb(0%,0%,0%);fill-opacity:1;" d="M 2.554688 32.09375 L 2.554688 33.996094 L 20.828125 33.996094 L 20.828125 30.191406 L 2.554688 30.191406 Z M 20.246094 32.09375 L 20.246094 33.417969 L 3.132812 33.417969 L 3.132812 30.769531 L 20.246094 30.769531 Z M 20.246094 32.09375 "/>
<path style=" stroke:none;fill-rule:nonzero;fill:rgb(0%,0%,0%);fill-opacity:1;" d="M 28.304688 30.289062 C 28.101562 30.34375 27.121094 32.058594 26.832031 32.871094 C 26.6875 33.277344 26.664062 33.285156 26.507812 33.035156 C 26.289062 32.675781 25.933594 32.324219 25.792969 32.324219 C 25.726562 32.324219 25.613281 32.359375 25.554688 32.40625 C 25.453125 32.480469 25.464844 32.503906 25.769531 32.835938 C 25.949219 33.027344 26.183594 33.328125 26.292969 33.5 C 26.46875 33.792969 26.503906 33.816406 26.695312 33.824219 C 26.902344 33.824219 26.902344 33.824219 27.066406 33.375 C 27.296875 32.714844 27.867188 31.628906 28.316406 30.953125 C 28.539062 30.628906 28.71875 30.335938 28.71875 30.308594 C 28.71875 30.25 28.484375 30.238281 28.304688 30.289062 Z M 28.304688 30.289062 "/>
<path style=" stroke:none;fill-rule:nonzero;fill:rgb(0%,0%,0%);fill-opacity:1;" d="M 2.554688 39.988281 L 2.554688 41.890625 L 20.828125 41.890625 L 20.828125 38.085938 L 2.554688 38.085938 Z M 20.246094 39.988281 L 20.246094 41.3125 L 3.132812 41.3125 L 3.132812 38.664062 L 20.246094 38.664062 Z M 20.246094 39.988281 "/>
<path style=" stroke:none;fill-rule:nonzero;fill:rgb(0%,0%,0%);fill-opacity:1;" d="M 28.304688 38.183594 C 28.101562 38.238281 27.121094 39.953125 26.832031 40.765625 C 26.6875 41.167969 26.664062 41.179688 26.507812 40.925781 C 26.289062 40.570312 25.933594 40.21875 25.792969 40.21875 C 25.726562 40.21875 25.613281 40.253906 25.554688 40.300781 C 25.453125 40.375 25.464844 40.398438 25.769531 40.730469 C 25.949219 40.921875 26.183594 41.222656 26.292969 41.394531 C 26.46875 41.6875 26.503906 41.710938 26.695312 41.71875 C 26.902344 41.71875 26.902344 41.71875 27.066406 41.265625 C 27.296875 40.609375 27.867188 39.523438 28.316406 38.847656 C 28.539062 38.523438 28.71875 38.230469 28.71875 38.203125 C 28.71875 38.144531 28.484375 38.132812 28.304688 38.183594 Z M 28.304688 38.183594 "/>
</g>
</svg>
