<?xml version="1.0" encoding="UTF-8"?>
<svg xmlns="http://www.w3.org/2000/svg" xmlns:xlink="http://www.w3.org/1999/xlink" width="69px" height="50px" viewBox="0 0 69 50" version="1.1">
<g id="surface1">
<path style=" stroke:none;fill-rule:nonzero;fill:rgb(0%,0%,0%);fill-opacity:1;" d="M 7.886719 17.734375 L 7.886719 35.460938 L 3.996094 42.253906 C 1.859375 45.980469 0.101562 49.074219 0.0898438 49.109375 C 0.0820312 49.15625 0.273438 49.304688 0.507812 49.429688 L 0.949219 49.671875 L 68.019531 49.671875 L 68.433594 49.429688 C 68.660156 49.304688 68.84375 49.167969 68.851562 49.140625 C 68.851562 49.117188 67.097656 46.027344 64.945312 42.265625 L 61.039062 35.445312 L 61.039062 0 L 7.886719 0 Z M 60.007812 18.128906 L 60.007812 35.214844 L 8.917969 35.214844 L 8.917969 1.039062 L 60.007812 1.039062 Z M 15.257812 36.550781 L 15.257812 36.847656 L 53.222656 36.847656 L 53.222656 36.253906 L 56.777344 36.269531 L 60.332031 36.292969 L 67.378906 48.597656 L 34.523438 48.621094 C 16.453125 48.628906 1.660156 48.621094 1.644531 48.605469 C 1.628906 48.589844 3.199219 45.804688 5.136719 42.414062 L 8.660156 36.253906 L 15.257812 36.253906 Z M 15.257812 36.550781 "/>
<path style=" stroke:none;fill-rule:nonzero;fill:rgb(0%,0%,0%);fill-opacity:1;" d="M 13.34375 13.640625 L 13.34375 23.945312 L 26.167969 23.945312 L 26.167969 30.027344 L 57.351562 30.027344 L 57.351562 8.453125 L 42.460938 8.453125 L 42.460938 3.335938 L 13.34375 3.335938 Z M 42.167969 4.484375 L 42.167969 5.339844 L 35.753906 5.339844 L 35.753906 5.160156 C 35.753906 5.019531 35.78125 4.988281 35.894531 5.019531 C 36.054688 5.0625 36.269531 4.863281 36.269531 4.664062 C 36.269531 4.359375 36.136719 4.234375 35.828125 4.25 L 35.53125 4.253906 L 35.53125 5.339844 L 34.90625 5.339844 C 34.300781 5.339844 34.277344 5.332031 34.351562 5.195312 C 34.390625 5.117188 34.425781 4.871094 34.425781 4.648438 L 34.425781 4.242188 L 34.152344 4.242188 C 33.792969 4.242188 33.6875 4.328125 33.6875 4.640625 C 33.6875 4.90625 33.878906 5.078125 34.085938 4.996094 C 34.152344 4.976562 34.207031 4.988281 34.207031 5.027344 C 34.207031 5.160156 34.078125 5.195312 33.878906 5.117188 C 33.675781 5.042969 33.628906 5.101562 33.777344 5.25 C 33.84375 5.316406 31.617188 5.339844 23.75 5.339844 L 13.636719 5.339844 L 13.636719 3.632812 L 42.167969 3.632812 Z M 34.191406 4.582031 C 34.21875 4.773438 34 4.894531 33.910156 4.738281 C 33.828125 4.617188 33.960938 4.351562 34.078125 4.398438 C 34.132812 4.410156 34.175781 4.492188 34.191406 4.582031 Z M 36.011719 4.640625 C 36.011719 4.78125 35.972656 4.855469 35.902344 4.855469 C 35.78125 4.855469 35.714844 4.648438 35.78125 4.476562 C 35.855469 4.292969 36.011719 4.402344 36.011719 4.640625 Z M 36.785156 6.96875 L 36.785156 8.453125 L 26.167969 8.453125 L 26.167969 9.5625 L 16.144531 9.5625 L 16.160156 13.398438 L 16.179688 17.238281 L 21.179688 17.261719 L 26.167969 17.273438 L 26.167969 21.871094 L 13.636719 21.871094 L 13.636719 5.488281 L 36.785156 5.488281 Z M 42.019531 7.042969 L 42.019531 8.453125 L 36.859375 8.453125 L 36.859375 5.632812 L 42.019531 5.632812 Z M 57.058594 9.636719 L 57.058594 10.527344 L 26.464844 10.527344 L 26.464844 8.75 L 57.058594 8.75 Z M 26.167969 13.382812 L 26.167969 17.125 L 16.292969 17.125 L 16.292969 9.636719 L 26.167969 9.636719 Z M 51.234375 20.210938 L 51.234375 29.730469 L 31.476562 29.730469 L 31.460938 29.449219 L 31.457031 29.175781 L 31.425781 29.449219 L 31.394531 29.730469 L 27.792969 29.730469 L 27.777344 29.484375 L 27.769531 29.25 L 27.738281 29.484375 L 27.710938 29.730469 L 26.464844 29.730469 L 26.464844 14.613281 L 27.113281 14.589844 L 27.753906 14.570312 L 27.753906 11.378906 L 27.113281 11.359375 L 26.464844 11.335938 L 26.464844 10.667969 L 38.847656 10.683594 L 51.234375 10.691406 Z M 57.042969 19.292969 L 57.019531 27.914062 L 51.417969 27.914062 L 51.394531 19.292969 L 51.382812 10.675781 L 57.058594 10.675781 Z M 27.71875 12.972656 L 27.71875 14.53125 L 26.464844 14.53125 L 26.464844 11.417969 L 27.71875 11.417969 Z M 26.167969 22.796875 L 26.167969 23.652344 L 13.636719 23.652344 L 13.636719 21.945312 L 26.167969 21.945312 Z M 57.058594 28.878906 L 57.058594 29.730469 L 51.382812 29.730469 L 51.382812 28.023438 L 57.058594 28.023438 Z M 57.058594 28.878906 "/>
<path style=" stroke:none;fill-rule:nonzero;fill:rgb(0%,0%,0%);fill-opacity:1;" d="M 19.683594 4.484375 C 19.683594 4.929688 19.703125 5.042969 19.792969 5.042969 C 19.867188 5.042969 19.902344 4.96875 19.902344 4.820312 C 19.902344 4.617188 19.925781 4.597656 20.125 4.597656 C 20.273438 4.597656 20.347656 4.558594 20.347656 4.484375 C 20.347656 4.410156 20.273438 4.375 20.125 4.375 C 19.976562 4.375 19.902344 4.335938 19.902344 4.261719 C 19.902344 4.1875 19.984375 4.152344 20.160156 4.152344 C 20.339844 4.152344 20.417969 4.113281 20.417969 4.039062 C 20.417969 3.960938 20.332031 3.929688 20.050781 3.929688 L 19.683594 3.929688 Z M 19.683594 4.484375 "/>
<path style=" stroke:none;fill-rule:nonzero;fill:rgb(0%,0%,0%);fill-opacity:1;" d="M 20.640625 4.484375 C 20.640625 4.90625 20.664062 5.050781 20.738281 5.019531 C 20.796875 5.003906 20.824219 4.828125 20.824219 4.484375 C 20.824219 4.144531 20.796875 3.964844 20.738281 3.945312 C 20.664062 3.921875 20.640625 4.0625 20.640625 4.484375 Z M 20.640625 4.484375 "/>
<path style=" stroke:none;fill-rule:nonzero;fill:rgb(0%,0%,0%);fill-opacity:1;" d="M 22.925781 4.484375 C 22.925781 4.90625 22.949219 5.050781 23.023438 5.027344 C 23.066406 5.003906 23.125 4.863281 23.148438 4.699219 C 23.199219 4.285156 23.398438 4.308594 23.425781 4.722656 C 23.441406 4.902344 23.488281 5.042969 23.523438 5.042969 C 23.566406 5.042969 23.589844 4.878906 23.574219 4.648438 C 23.554688 4.292969 23.539062 4.261719 23.367188 4.261719 C 23.25 4.261719 23.167969 4.210938 23.148438 4.121094 C 23.125 4.039062 23.066406 3.964844 23.015625 3.945312 C 22.949219 3.921875 22.925781 4.070312 22.925781 4.484375 Z M 22.925781 4.484375 "/>
<path style=" stroke:none;fill-rule:nonzero;fill:rgb(0%,0%,0%);fill-opacity:1;" d="M 27.84375 3.980469 C 27.8125 4.003906 27.792969 4.085938 27.792969 4.160156 C 27.792969 4.253906 27.746094 4.277344 27.636719 4.25 C 27.363281 4.175781 27.164062 4.605469 27.34375 4.886719 C 27.378906 4.945312 27.546875 5.003906 27.710938 5.011719 L 28.011719 5.027344 L 28.011719 4.476562 C 28.011719 3.972656 27.96875 3.847656 27.84375 3.980469 Z M 27.753906 4.640625 C 27.753906 4.78125 27.71875 4.855469 27.644531 4.855469 C 27.527344 4.855469 27.460938 4.648438 27.527344 4.476562 C 27.601562 4.292969 27.753906 4.402344 27.753906 4.640625 Z M 27.753906 4.640625 "/>
<path style=" stroke:none;fill-rule:nonzero;fill:rgb(0%,0%,0%);fill-opacity:1;" d="M 28.75 4.484375 C 28.75 4.90625 28.773438 5.050781 28.847656 5.027344 C 28.890625 5.003906 28.941406 4.902344 28.957031 4.796875 C 28.984375 4.53125 29.125 4.542969 29.289062 4.820312 C 29.363281 4.9375 29.472656 5.042969 29.53125 5.042969 C 29.671875 5.042969 29.664062 4.945312 29.5 4.746094 C 29.371094 4.574219 29.371094 4.566406 29.5 4.433594 C 29.628906 4.308594 29.632812 4.269531 29.539062 4.128906 C 29.457031 4.011719 29.347656 3.960938 29.089844 3.945312 L 28.75 3.921875 Z M 29.339844 4.261719 C 29.339844 4.328125 29.273438 4.375 29.15625 4.375 C 29.039062 4.375 28.972656 4.328125 28.972656 4.261719 C 28.972656 4.195312 29.039062 4.152344 29.15625 4.152344 C 29.273438 4.152344 29.339844 4.195312 29.339844 4.261719 Z M 29.339844 4.261719 "/>
<path style=" stroke:none;fill-rule:nonzero;fill:rgb(0%,0%,0%);fill-opacity:1;" d="M 36.492188 4.484375 C 36.492188 4.90625 36.511719 5.050781 36.585938 5.019531 C 36.644531 5.003906 36.675781 4.828125 36.675781 4.484375 C 36.675781 4.144531 36.644531 3.964844 36.585938 3.945312 C 36.511719 3.921875 36.492188 4.0625 36.492188 4.484375 Z M 36.492188 4.484375 "/>
<path style=" stroke:none;fill-rule:nonzero;fill:rgb(0%,0%,0%);fill-opacity:1;" d="M 23.890625 4.136719 C 23.847656 4.21875 23.839844 4.433594 23.871094 4.640625 C 23.914062 4.945312 23.949219 5.011719 24.089844 5.027344 C 24.179688 5.042969 24.253906 5.019531 24.253906 4.976562 C 24.253906 4.929688 24.222656 4.894531 24.179688 4.894531 C 24.144531 4.894531 24.105469 4.773438 24.105469 4.632812 C 24.105469 4.492188 24.136719 4.375 24.171875 4.375 C 24.207031 4.375 24.203125 4.292969 24.15625 4.1875 C 24.054688 3.964844 23.988281 3.960938 23.890625 4.136719 Z M 23.890625 4.136719 "/>
<path style=" stroke:none;fill-rule:nonzero;fill:rgb(0%,0%,0%);fill-opacity:1;" d="M 30.746094 4.136719 C 30.652344 4.316406 30.742188 4.96875 30.867188 5.019531 C 30.925781 5.042969 31.003906 5.027344 31.058594 4.976562 C 31.117188 4.914062 31.117188 4.894531 31.050781 4.894531 C 31 4.894531 30.960938 4.789062 30.960938 4.632812 C 30.960938 4.492188 30.992188 4.375 31.027344 4.375 C 31.066406 4.375 31.058594 4.292969 31.011719 4.1875 C 30.910156 3.972656 30.84375 3.960938 30.746094 4.136719 Z M 30.746094 4.136719 "/>
<path style=" stroke:none;fill-rule:nonzero;fill:rgb(0%,0%,0%);fill-opacity:1;" d="M 31.269531 4.128906 C 31.234375 4.203125 31.226562 4.425781 31.25 4.632812 C 31.285156 4.945312 31.324219 5.011719 31.460938 5.027344 C 31.625 5.050781 31.683594 4.9375 31.550781 4.855469 C 31.449219 4.789062 31.460938 4.5 31.574219 4.382812 C 31.648438 4.300781 31.648438 4.277344 31.574219 4.25 C 31.523438 4.226562 31.476562 4.167969 31.476562 4.105469 C 31.476562 3.960938 31.351562 3.972656 31.269531 4.128906 Z M 31.269531 4.128906 "/>
<path style=" stroke:none;fill-rule:nonzero;fill:rgb(0%,0%,0%);fill-opacity:1;" d="M 21.082031 4.550781 C 21.082031 4.929688 21.179688 5.035156 21.527344 5.011719 C 21.785156 4.996094 21.785156 4.996094 21.804688 4.613281 C 21.820312 4.308594 21.804688 4.226562 21.71875 4.226562 C 21.644531 4.226562 21.597656 4.324219 21.585938 4.539062 C 21.570312 4.761719 21.527344 4.855469 21.453125 4.855469 C 21.378906 4.855469 21.332031 4.761719 21.320312 4.539062 C 21.304688 4.328125 21.261719 4.226562 21.1875 4.226562 C 21.113281 4.226562 21.082031 4.316406 21.082031 4.550781 Z M 21.082031 4.550781 "/>
<path style=" stroke:none;fill-rule:nonzero;fill:rgb(0%,0%,0%);fill-opacity:1;" d="M 22.128906 4.316406 C 22.078125 4.367188 22.042969 4.507812 22.042969 4.632812 C 22.042969 4.761719 22.078125 4.902344 22.128906 4.953125 C 22.253906 5.078125 22.519531 5.0625 22.632812 4.929688 C 22.757812 4.78125 22.660156 4.691406 22.492188 4.796875 C 22.25 4.953125 22.078125 4.632812 22.300781 4.449219 C 22.378906 4.382812 22.433594 4.375 22.507812 4.441406 C 22.640625 4.542969 22.726562 4.457031 22.625 4.324219 C 22.519531 4.203125 22.25 4.195312 22.128906 4.316406 Z M 22.128906 4.316406 "/>
<path style=" stroke:none;fill-rule:nonzero;fill:rgb(0%,0%,0%);fill-opacity:1;" d="M 25.449219 4.605469 L 25.46875 5.003906 L 25.785156 5.011719 L 26.097656 5.019531 L 26.097656 4.617188 C 26.097656 4.144531 25.933594 4.101562 25.875 4.558594 C 25.824219 4.960938 25.667969 4.980469 25.640625 4.589844 C 25.625 4.410156 25.574219 4.261719 25.519531 4.242188 C 25.449219 4.21875 25.433594 4.308594 25.449219 4.605469 Z M 25.449219 4.605469 "/>
<path style=" stroke:none;fill-rule:nonzero;fill:rgb(0%,0%,0%);fill-opacity:1;" d="M 26.390625 4.648438 C 26.390625 4.863281 26.429688 5.042969 26.464844 5.042969 C 26.507812 5.042969 26.539062 4.953125 26.539062 4.847656 C 26.539062 4.632812 26.65625 4.375 26.757812 4.375 C 26.796875 4.375 26.832031 4.515625 26.847656 4.6875 C 26.863281 4.855469 26.914062 5.003906 26.964844 5.027344 C 27.039062 5.050781 27.054688 4.960938 27.039062 4.664062 L 27.019531 4.261719 L 26.707031 4.253906 L 26.390625 4.25 Z M 26.390625 4.648438 "/>
<path style=" stroke:none;fill-rule:nonzero;fill:rgb(0%,0%,0%);fill-opacity:1;" d="M 29.90625 4.359375 C 29.597656 4.699219 29.988281 5.210938 30.363281 4.976562 C 30.417969 4.9375 30.4375 4.871094 30.410156 4.828125 C 30.371094 4.761719 30.335938 4.761719 30.261719 4.820312 C 30.152344 4.90625 30.003906 4.863281 30.003906 4.738281 C 30.003906 4.699219 30.121094 4.671875 30.261719 4.671875 C 30.546875 4.671875 30.601562 4.542969 30.386719 4.351562 C 30.210938 4.1875 30.054688 4.195312 29.90625 4.359375 Z M 30.285156 4.507812 C 30.296875 4.558594 30.238281 4.597656 30.15625 4.597656 C 30.003906 4.597656 29.957031 4.515625 30.054688 4.417969 C 30.121094 4.351562 30.246094 4.402344 30.285156 4.507812 Z M 30.285156 4.507812 "/>
<path style=" stroke:none;fill-rule:nonzero;fill:rgb(0%,0%,0%);fill-opacity:1;" d="M 31.824219 4.277344 C 31.75 4.351562 31.765625 4.738281 31.847656 4.894531 C 31.90625 4.996094 31.992188 5.035156 32.214844 5.019531 L 32.507812 5.011719 L 32.507812 4.617188 C 32.507812 4.324219 32.480469 4.226562 32.40625 4.226562 C 32.332031 4.226562 32.289062 4.328125 32.273438 4.539062 C 32.257812 4.761719 32.214844 4.855469 32.140625 4.855469 C 32.066406 4.855469 32.023438 4.761719 32.007812 4.539062 C 31.984375 4.242188 31.933594 4.167969 31.824219 4.277344 Z M 31.824219 4.277344 "/>
<path style=" stroke:none;fill-rule:nonzero;fill:rgb(0%,0%,0%);fill-opacity:1;" d="M 32.746094 4.617188 C 32.773438 5.09375 32.9375 5.175781 32.964844 4.730469 C 32.980469 4.507812 33.019531 4.410156 33.097656 4.410156 C 33.171875 4.410156 33.21875 4.507812 33.230469 4.722656 C 33.246094 4.9375 33.292969 5.042969 33.363281 5.042969 C 33.496094 5.042969 33.511719 4.425781 33.378906 4.316406 C 33.328125 4.277344 33.160156 4.242188 33.003906 4.242188 L 32.722656 4.242188 Z M 32.746094 4.617188 "/>
<path style=" stroke:none;fill-rule:nonzero;fill:rgb(0%,0%,0%);fill-opacity:1;" d="M 34.699219 4.269531 C 34.574219 4.402344 34.65625 4.613281 34.867188 4.691406 C 34.992188 4.738281 35.089844 4.804688 35.089844 4.832031 C 35.089844 4.921875 34.914062 4.90625 34.816406 4.8125 C 34.773438 4.765625 34.691406 4.753906 34.640625 4.78125 C 34.574219 4.828125 34.589844 4.863281 34.683594 4.945312 C 34.855469 5.0625 35.105469 5.070312 35.222656 4.953125 C 35.378906 4.796875 35.316406 4.664062 35.054688 4.550781 C 34.734375 4.417969 34.722656 4.34375 35.023438 4.410156 C 35.199219 4.449219 35.246094 4.441406 35.222656 4.367188 C 35.1875 4.253906 34.789062 4.179688 34.699219 4.269531 Z M 34.699219 4.269531 "/>
<path style=" stroke:none;fill-rule:nonzero;fill:rgb(0%,0%,0%);fill-opacity:1;" d="M 37.027344 4.277344 C 36.851562 4.34375 36.925781 4.464844 37.109375 4.417969 C 37.210938 4.398438 37.308594 4.402344 37.339844 4.449219 C 37.359375 4.484375 37.300781 4.539062 37.199219 4.566406 C 36.71875 4.6875 36.808594 5.042969 37.308594 5.019531 C 37.582031 5.011719 37.597656 4.996094 37.597656 4.761719 C 37.597656 4.316406 37.382812 4.128906 37.027344 4.277344 Z M 37.375 4.738281 C 37.375 4.839844 37.242188 4.90625 37.152344 4.855469 C 37.109375 4.828125 37.09375 4.773438 37.117188 4.738281 C 37.175781 4.648438 37.375 4.648438 37.375 4.738281 Z M 37.375 4.738281 "/>
<path style=" stroke:none;fill-rule:nonzero;fill:rgb(0%,0%,0%);fill-opacity:1;" d="M 37.816406 4.648438 C 37.816406 5.128906 37.980469 5.167969 38.039062 4.699219 C 38.089844 4.285156 38.289062 4.308594 38.320312 4.722656 C 38.332031 4.902344 38.378906 5.042969 38.414062 5.042969 C 38.457031 5.042969 38.480469 4.878906 38.464844 4.648438 L 38.445312 4.261719 L 38.132812 4.253906 L 37.816406 4.25 Z M 37.816406 4.648438 "/>
<path style=" stroke:none;fill-rule:nonzero;fill:rgb(0%,0%,0%);fill-opacity:1;" d="M 24.402344 4.632812 C 24.402344 4.699219 24.46875 4.746094 24.585938 4.746094 C 24.703125 4.746094 24.769531 4.699219 24.769531 4.632812 C 24.769531 4.566406 24.703125 4.523438 24.585938 4.523438 C 24.46875 4.523438 24.402344 4.566406 24.402344 4.632812 Z M 24.402344 4.632812 "/>
<path style=" stroke:none;fill-rule:nonzero;fill:rgb(0%,0%,0%);fill-opacity:1;" d="M 38.28125 5.910156 C 38.914062 5.921875 39.960938 5.921875 40.605469 5.910156 C 41.238281 5.902344 40.714844 5.886719 39.4375 5.886719 C 38.164062 5.886719 37.640625 5.902344 38.28125 5.910156 Z M 38.28125 5.910156 "/>
<path style=" stroke:none;fill-rule:nonzero;fill:rgb(0%,0%,0%);fill-opacity:1;" d="M 37.839844 6.945312 C 38.113281 6.960938 38.554688 6.960938 38.835938 6.945312 C 39.105469 6.933594 38.878906 6.925781 38.332031 6.925781 C 37.789062 6.925781 37.558594 6.933594 37.839844 6.945312 Z M 37.839844 6.945312 "/>
<path style=" stroke:none;fill-rule:nonzero;fill:rgb(0%,0%,0%);fill-opacity:1;" d="M 37.949219 7.242188 C 38.28125 7.257812 38.828125 7.257812 39.167969 7.242188 C 39.5 7.234375 39.226562 7.222656 38.554688 7.222656 C 37.882812 7.222656 37.609375 7.234375 37.949219 7.242188 Z M 37.949219 7.242188 "/>
<path style=" stroke:none;fill-rule:nonzero;fill:rgb(0%,0%,0%);fill-opacity:1;" d="M 38.023438 7.539062 C 38.4375 7.554688 39.113281 7.554688 39.535156 7.539062 C 39.949219 7.53125 39.609375 7.519531 38.777344 7.519531 C 37.941406 7.519531 37.605469 7.53125 38.023438 7.539062 Z M 38.023438 7.539062 "/>
<path style=" stroke:none;fill-rule:nonzero;fill:rgb(0%,0%,0%);fill-opacity:1;" d="M 41.652344 9.421875 C 41.652344 9.808594 41.671875 9.941406 41.746094 9.921875 C 41.789062 9.898438 41.851562 9.773438 41.871094 9.636719 C 41.929688 9.265625 42.09375 9.261719 42.09375 9.628906 C 42.09375 9.851562 42.121094 9.933594 42.203125 9.933594 C 42.277344 9.933594 42.3125 9.859375 42.3125 9.683594 C 42.3125 9.3125 42.246094 9.191406 42.046875 9.191406 C 41.921875 9.191406 41.871094 9.148438 41.871094 9.046875 C 41.871094 8.964844 41.820312 8.898438 41.761719 8.898438 C 41.671875 8.898438 41.652344 9.007812 41.652344 9.421875 Z M 41.652344 9.421875 "/>
<path style=" stroke:none;fill-rule:nonzero;fill:rgb(0%,0%,0%);fill-opacity:1;" d="M 44.082031 9.414062 C 44.082031 9.710938 44.113281 9.933594 44.15625 9.933594 C 44.203125 9.933594 44.230469 9.710938 44.230469 9.414062 C 44.230469 9.121094 44.203125 8.898438 44.15625 8.898438 C 44.113281 8.898438 44.082031 9.121094 44.082031 9.414062 Z M 44.082031 9.414062 "/>
<path style=" stroke:none;fill-rule:nonzero;fill:rgb(0%,0%,0%);fill-opacity:1;" d="M 35.605469 9.460938 C 35.605469 9.816406 35.628906 9.941406 35.703125 9.921875 C 35.746094 9.898438 35.796875 9.816406 35.8125 9.726562 C 35.828125 9.625 35.894531 9.5625 35.980469 9.5625 C 36.054688 9.5625 36.121094 9.511719 36.121094 9.453125 C 36.121094 9.394531 36.054688 9.339844 35.972656 9.339844 C 35.894531 9.339844 35.828125 9.289062 35.828125 9.230469 C 35.828125 9.171875 35.894531 9.121094 35.972656 9.121094 C 36.054688 9.121094 36.121094 9.082031 36.121094 9.046875 C 36.121094 9 36.003906 8.972656 35.863281 8.972656 L 35.605469 8.972656 Z M 35.605469 9.460938 "/>
<path style=" stroke:none;fill-rule:nonzero;fill:rgb(0%,0%,0%);fill-opacity:1;" d="M 36.378906 9.371094 C 36.261719 9.542969 36.296875 9.773438 36.445312 9.875 C 36.5625 9.957031 36.933594 9.949219 36.933594 9.859375 C 36.933594 9.816406 36.851562 9.785156 36.753906 9.785156 C 36.652344 9.785156 36.550781 9.75 36.527344 9.710938 C 36.496094 9.667969 36.570312 9.636719 36.703125 9.636719 C 36.96875 9.636719 37.042969 9.542969 36.933594 9.339844 C 36.820312 9.132812 36.519531 9.148438 36.378906 9.371094 Z M 36.785156 9.414062 C 36.785156 9.453125 36.71875 9.488281 36.628906 9.488281 C 36.550781 9.488281 36.503906 9.453125 36.527344 9.414062 C 36.550781 9.371094 36.625 9.339844 36.683594 9.339844 C 36.742188 9.339844 36.785156 9.371094 36.785156 9.414062 Z M 36.785156 9.414062 "/>
<path style=" stroke:none;fill-rule:nonzero;fill:rgb(0%,0%,0%);fill-opacity:1;" d="M 37.242188 9.542969 C 37.265625 9.898438 37.265625 9.898438 37.542969 9.914062 L 37.816406 9.921875 L 37.816406 9.558594 C 37.816406 9.132812 37.691406 9.066406 37.65625 9.46875 C 37.640625 9.660156 37.597656 9.75 37.523438 9.75 C 37.449219 9.75 37.40625 9.660156 37.390625 9.46875 C 37.351562 9.058594 37.210938 9.132812 37.242188 9.542969 Z M 37.242188 9.542969 "/>
<path style=" stroke:none;fill-rule:nonzero;fill:rgb(0%,0%,0%);fill-opacity:1;" d="M 38.097656 9.371094 C 37.972656 9.660156 38.121094 9.933594 38.398438 9.933594 C 38.519531 9.933594 38.644531 9.898438 38.664062 9.859375 C 38.6875 9.816406 38.628906 9.785156 38.523438 9.785156 C 38.421875 9.785156 38.320312 9.75 38.296875 9.710938 C 38.265625 9.667969 38.347656 9.636719 38.480469 9.636719 C 38.6875 9.636719 38.710938 9.617188 38.6875 9.429688 C 38.671875 9.265625 38.628906 9.222656 38.429688 9.207031 C 38.230469 9.1875 38.171875 9.214844 38.097656 9.371094 Z M 38.554688 9.414062 C 38.554688 9.453125 38.488281 9.488281 38.40625 9.488281 C 38.324219 9.488281 38.257812 9.453125 38.257812 9.414062 C 38.257812 9.371094 38.324219 9.339844 38.40625 9.339844 C 38.488281 9.339844 38.554688 9.371094 38.554688 9.414062 Z M 38.554688 9.414062 "/>
<path style=" stroke:none;fill-rule:nonzero;fill:rgb(0%,0%,0%);fill-opacity:1;" d="M 38.921875 9.570312 C 38.921875 9.847656 38.953125 9.933594 39.035156 9.933594 C 39.113281 9.933594 39.144531 9.851562 39.144531 9.675781 C 39.144531 9.511719 39.1875 9.394531 39.253906 9.371094 C 39.4375 9.296875 39.378906 9.214844 39.144531 9.207031 C 38.929688 9.199219 38.921875 9.207031 38.921875 9.570312 Z M 38.921875 9.570312 "/>
<path style=" stroke:none;fill-rule:nonzero;fill:rgb(0%,0%,0%);fill-opacity:1;" d="M 39.542969 9.378906 C 39.691406 9.964844 39.867188 10.097656 40.007812 9.726562 L 40.082031 9.527344 L 40.140625 9.726562 C 40.242188 10.113281 40.441406 9.957031 40.589844 9.378906 C 40.632812 9.1875 40.492188 9.105469 40.441406 9.28125 C 40.324219 9.667969 40.300781 9.683594 40.226562 9.429688 C 40.191406 9.304688 40.117188 9.191406 40.066406 9.191406 C 40.015625 9.191406 39.941406 9.304688 39.902344 9.429688 L 39.824219 9.675781 L 39.769531 9.429688 C 39.742188 9.296875 39.667969 9.191406 39.609375 9.191406 C 39.527344 9.191406 39.511719 9.246094 39.542969 9.378906 Z M 39.542969 9.378906 "/>
<path style=" stroke:none;fill-rule:nonzero;fill:rgb(0%,0%,0%);fill-opacity:1;" d="M 40.855469 9.28125 C 40.804688 9.335938 40.765625 9.460938 40.765625 9.5625 C 40.765625 9.667969 40.804688 9.792969 40.855469 9.847656 C 40.964844 9.957031 41.328125 9.964844 41.394531 9.859375 C 41.421875 9.816406 41.339844 9.785156 41.214844 9.785156 C 41.089844 9.785156 40.988281 9.75 40.988281 9.710938 C 40.988281 9.667969 41.089844 9.636719 41.207031 9.636719 C 41.371094 9.636719 41.429688 9.601562 41.429688 9.503906 C 41.429688 9.328125 41.289062 9.191406 41.097656 9.191406 C 41.007812 9.191406 40.90625 9.230469 40.855469 9.28125 Z M 41.207031 9.414062 C 41.207031 9.453125 41.15625 9.488281 41.097656 9.488281 C 41.039062 9.488281 40.988281 9.453125 40.988281 9.414062 C 40.988281 9.371094 41.039062 9.339844 41.097656 9.339844 C 41.15625 9.339844 41.207031 9.371094 41.207031 9.414062 Z M 41.207031 9.414062 "/>
<path style=" stroke:none;fill-rule:nonzero;fill:rgb(0%,0%,0%);fill-opacity:1;" d="M 42.535156 9.578125 C 42.535156 9.847656 42.566406 9.933594 42.644531 9.933594 C 42.726562 9.933594 42.757812 9.851562 42.757812 9.675781 C 42.757812 9.511719 42.800781 9.394531 42.867188 9.371094 C 43.050781 9.296875 42.992188 9.199219 42.757812 9.207031 C 42.542969 9.214844 42.535156 9.230469 42.535156 9.578125 Z M 42.535156 9.578125 "/>
<path style=" stroke:none;fill-rule:nonzero;fill:rgb(0%,0%,0%);fill-opacity:1;" d="M 43.199219 9.726562 C 43.199219 10.015625 43.226562 10.230469 43.273438 10.230469 C 43.316406 10.230469 43.347656 10.148438 43.347656 10.054688 C 43.347656 9.914062 43.375 9.882812 43.492188 9.914062 C 43.699219 9.964844 43.863281 9.808594 43.863281 9.5625 C 43.863281 9.304688 43.738281 9.199219 43.433594 9.207031 L 43.199219 9.214844 Z M 43.605469 9.5625 C 43.605469 9.765625 43.441406 9.851562 43.375 9.683594 C 43.316406 9.519531 43.398438 9.320312 43.515625 9.363281 C 43.558594 9.378906 43.605469 9.46875 43.605469 9.5625 Z M 43.605469 9.5625 "/>
<path style=" stroke:none;fill-rule:nonzero;fill:rgb(0%,0%,0%);fill-opacity:1;" d="M 44.578125 9.246094 C 44.472656 9.339844 44.53125 9.394531 44.710938 9.355469 C 44.820312 9.339844 44.894531 9.355469 44.894531 9.410156 C 44.894531 9.453125 44.835938 9.488281 44.753906 9.488281 C 44.578125 9.488281 44.4375 9.660156 44.496094 9.816406 C 44.527344 9.898438 44.621094 9.925781 44.828125 9.921875 C 45.101562 9.914062 45.117188 9.898438 45.117188 9.667969 C 45.117188 9.304688 45.050781 9.191406 44.828125 9.191406 C 44.71875 9.191406 44.597656 9.214844 44.578125 9.246094 Z M 44.894531 9.710938 C 44.894531 9.75 44.84375 9.785156 44.785156 9.785156 C 44.726562 9.785156 44.671875 9.75 44.671875 9.710938 C 44.671875 9.667969 44.726562 9.636719 44.785156 9.636719 C 44.84375 9.636719 44.894531 9.667969 44.894531 9.710938 Z M 44.894531 9.710938 "/>
<path style=" stroke:none;fill-rule:nonzero;fill:rgb(0%,0%,0%);fill-opacity:1;" d="M 45.335938 9.578125 C 45.335938 9.839844 45.367188 9.933594 45.441406 9.933594 C 45.511719 9.933594 45.558594 9.839844 45.574219 9.660156 C 45.601562 9.289062 45.765625 9.253906 45.792969 9.609375 C 45.808594 9.765625 45.859375 9.898438 45.910156 9.921875 C 45.984375 9.941406 46 9.859375 45.984375 9.59375 L 45.964844 9.230469 L 45.652344 9.222656 L 45.335938 9.214844 Z M 45.335938 9.578125 "/>
<path style=" stroke:none;fill-rule:nonzero;fill:rgb(0%,0%,0%);fill-opacity:1;" d="M 45.269531 11.535156 C 45.269531 11.617188 45.292969 11.640625 45.3125 11.582031 C 45.335938 11.527344 45.328125 11.460938 45.308594 11.441406 C 45.285156 11.410156 45.261719 11.453125 45.269531 11.535156 Z M 45.269531 11.535156 "/>
<path style=" stroke:none;fill-rule:nonzero;fill:rgb(0%,0%,0%);fill-opacity:1;" d="M 45.269531 11.832031 C 45.269531 11.914062 45.292969 11.9375 45.3125 11.878906 C 45.335938 11.824219 45.328125 11.757812 45.308594 11.738281 C 45.285156 11.707031 45.261719 11.75 45.269531 11.832031 Z M 45.269531 11.832031 "/>
<path style=" stroke:none;fill-rule:nonzero;fill:rgb(0%,0%,0%);fill-opacity:1;" d="M 45.269531 12.128906 C 45.269531 12.210938 45.292969 12.234375 45.3125 12.171875 C 45.335938 12.121094 45.328125 12.054688 45.308594 12.03125 C 45.285156 12.003906 45.261719 12.046875 45.269531 12.128906 Z M 45.269531 12.128906 "/>
<path style=" stroke:none;fill-rule:nonzero;fill:rgb(0%,0%,0%);fill-opacity:1;" d="M 34.667969 12.136719 C 35.058594 12.152344 35.707031 12.152344 36.105469 12.136719 C 36.496094 12.128906 36.171875 12.113281 35.382812 12.113281 C 34.597656 12.113281 34.269531 12.128906 34.667969 12.136719 Z M 34.667969 12.136719 "/>
<path style=" stroke:none;fill-rule:nonzero;fill:rgb(0%,0%,0%);fill-opacity:1;" d="M 36.75 12.457031 C 36.769531 12.492188 36.851562 12.53125 36.917969 12.53125 C 37.027344 12.53125 37.027344 12.515625 36.933594 12.457031 C 36.785156 12.359375 36.6875 12.359375 36.75 12.457031 Z M 36.75 12.457031 "/>
<path style=" stroke:none;fill-rule:nonzero;fill:rgb(0%,0%,0%);fill-opacity:1;" d="M 37.140625 12.507812 C 37.191406 12.53125 37.257812 12.523438 37.277344 12.5 C 37.308594 12.476562 37.265625 12.457031 37.183594 12.464844 C 37.101562 12.464844 37.082031 12.484375 37.140625 12.507812 Z M 37.140625 12.507812 "/>
<path style=" stroke:none;fill-rule:nonzero;fill:rgb(0%,0%,0%);fill-opacity:1;" d="M 37.433594 12.507812 C 37.484375 12.53125 37.550781 12.523438 37.574219 12.5 C 37.605469 12.476562 37.558594 12.457031 37.476562 12.464844 C 37.398438 12.464844 37.375 12.484375 37.433594 12.507812 Z M 37.433594 12.507812 "/>
<path style=" stroke:none;fill-rule:nonzero;fill:rgb(0%,0%,0%);fill-opacity:1;" d="M 37.730469 12.507812 C 37.78125 12.53125 37.847656 12.523438 37.867188 12.5 C 37.898438 12.476562 37.855469 12.457031 37.773438 12.464844 C 37.691406 12.464844 37.667969 12.484375 37.730469 12.507812 Z M 37.730469 12.507812 "/>
<path style=" stroke:none;fill-rule:nonzero;fill:rgb(0%,0%,0%);fill-opacity:1;" d="M 38.023438 12.507812 C 38.074219 12.53125 38.140625 12.523438 38.164062 12.5 C 38.191406 12.476562 38.148438 12.457031 38.066406 12.464844 C 37.988281 12.464844 37.964844 12.484375 38.023438 12.507812 Z M 38.023438 12.507812 "/>
<path style=" stroke:none;fill-rule:nonzero;fill:rgb(0%,0%,0%);fill-opacity:1;" d="M 38.320312 12.507812 C 38.371094 12.53125 38.4375 12.523438 38.457031 12.5 C 38.488281 12.476562 38.445312 12.457031 38.363281 12.464844 C 38.28125 12.464844 38.257812 12.484375 38.320312 12.507812 Z M 38.320312 12.507812 "/>
<path style=" stroke:none;fill-rule:nonzero;fill:rgb(0%,0%,0%);fill-opacity:1;" d="M 38.613281 12.507812 C 38.664062 12.53125 38.730469 12.523438 38.753906 12.5 C 38.78125 12.476562 38.738281 12.457031 38.65625 12.464844 C 38.578125 12.464844 38.554688 12.484375 38.613281 12.507812 Z M 38.613281 12.507812 "/>
<path style=" stroke:none;fill-rule:nonzero;fill:rgb(0%,0%,0%);fill-opacity:1;" d="M 38.910156 12.507812 C 38.960938 12.53125 39.027344 12.523438 39.046875 12.5 C 39.078125 12.476562 39.035156 12.457031 38.953125 12.464844 C 38.871094 12.464844 38.847656 12.484375 38.910156 12.507812 Z M 38.910156 12.507812 "/>
<path style=" stroke:none;fill-rule:nonzero;fill:rgb(0%,0%,0%);fill-opacity:1;" d="M 39.203125 12.507812 C 39.253906 12.53125 39.320312 12.523438 39.34375 12.5 C 39.371094 12.476562 39.328125 12.457031 39.246094 12.464844 C 39.167969 12.464844 39.144531 12.484375 39.203125 12.507812 Z M 39.203125 12.507812 "/>
<path style=" stroke:none;fill-rule:nonzero;fill:rgb(0%,0%,0%);fill-opacity:1;" d="M 39.511719 13.8125 C 39.511719 14.574219 39.535156 15.199219 39.570312 15.199219 C 39.628906 15.199219 39.617188 12.535156 39.558594 12.46875 C 39.535156 12.449219 39.511719 13.054688 39.511719 13.8125 Z M 39.511719 13.8125 "/>
<path style=" stroke:none;fill-rule:nonzero;fill:rgb(0%,0%,0%);fill-opacity:1;" d="M 42.34375 13.976562 C 42.34375 14.664062 42.359375 14.960938 42.367188 14.628906 C 42.378906 14.292969 42.378906 13.722656 42.367188 13.367188 C 42.359375 13.011719 42.34375 13.277344 42.34375 13.976562 Z M 42.34375 13.976562 "/>
<path style=" stroke:none;fill-rule:nonzero;fill:rgb(0%,0%,0%);fill-opacity:1;" d="M 45.949219 14.136719 C 46.339844 14.152344 46.988281 14.152344 47.386719 14.136719 C 47.777344 14.132812 47.453125 14.117188 46.664062 14.117188 C 45.875 14.117188 45.550781 14.132812 45.949219 14.136719 Z M 45.949219 14.136719 "/>
<path style=" stroke:none;fill-rule:nonzero;fill:rgb(0%,0%,0%);fill-opacity:1;" d="M 34.667969 14.582031 C 35.058594 14.597656 35.707031 14.597656 36.105469 14.582031 C 36.496094 14.574219 36.171875 14.5625 35.382812 14.5625 C 34.597656 14.5625 34.269531 14.574219 34.667969 14.582031 Z M 34.667969 14.582031 "/>
<path style=" stroke:none;fill-rule:nonzero;fill:rgb(0%,0%,0%);fill-opacity:1;" d="M 48.582031 16.644531 L 48.582031 17.199219 L 49.167969 17.199219 C 49.496094 17.199219 49.757812 17.179688 49.757812 17.140625 C 49.757812 17.113281 49.507812 17.097656 49.207031 17.113281 L 48.652344 17.140625 L 48.652344 16.171875 L 49.230469 16.140625 L 49.796875 16.117188 L 49.191406 16.101562 L 48.582031 16.089844 Z M 48.582031 16.644531 "/>
<path style=" stroke:none;fill-rule:nonzero;fill:rgb(0%,0%,0%);fill-opacity:1;" d="M 36.121094 21.128906 L 36.121094 23.726562 L 48.285156 23.726562 L 48.285156 18.535156 L 36.121094 18.535156 Z M 48.210938 21.128906 L 48.210938 23.652344 L 36.195312 23.652344 L 36.195312 18.609375 L 48.210938 18.609375 Z M 48.210938 21.128906 "/>
<path style=" stroke:none;fill-rule:nonzero;fill:rgb(0%,0%,0%);fill-opacity:1;" d="M 30.371094 19.929688 C 30.371094 19.980469 30.277344 20.019531 30.152344 20.019531 C 29.964844 20.019531 29.929688 20.046875 29.929688 20.203125 C 29.929688 20.308594 29.957031 20.386719 29.996094 20.386719 C 30.03125 20.386719 30.046875 20.328125 30.023438 20.246094 C 29.996094 20.136719 30.039062 20.105469 30.261719 20.078125 C 30.542969 20.046875 30.71875 20.167969 30.621094 20.328125 C 30.578125 20.410156 30.59375 20.410156 30.675781 20.328125 C 30.753906 20.253906 30.742188 20.203125 30.570312 20.039062 C 30.460938 19.929688 30.371094 19.875 30.371094 19.929688 Z M 30.371094 19.929688 "/>
<path style=" stroke:none;fill-rule:nonzero;fill:rgb(0%,0%,0%);fill-opacity:1;" d="M 30.371094 20.460938 C 30.371094 20.5 30.410156 20.535156 30.445312 20.535156 C 30.488281 20.535156 30.519531 20.5 30.519531 20.460938 C 30.519531 20.417969 30.488281 20.386719 30.445312 20.386719 C 30.410156 20.386719 30.371094 20.417969 30.371094 20.460938 Z M 30.371094 20.460938 "/>
<path style=" stroke:none;fill-rule:nonzero;fill:rgb(0%,0%,0%);fill-opacity:1;" d="M 49.082031 27.023438 C 49.058594 27.460938 49.03125 27.640625 48.992188 27.535156 C 48.964844 27.445312 48.84375 27.335938 48.742188 27.285156 C 48.550781 27.203125 48.550781 27.203125 48.675781 27.34375 C 48.839844 27.519531 48.816406 27.542969 48.210938 27.667969 L 47.730469 27.765625 L 48.394531 27.808594 C 48.832031 27.832031 49.007812 27.871094 48.90625 27.90625 C 48.816406 27.9375 48.707031 28.054688 48.652344 28.160156 C 48.566406 28.351562 48.566406 28.351562 48.71875 28.21875 C 48.898438 28.054688 48.890625 28.046875 49.050781 28.730469 L 49.15625 29.175781 L 49.164062 28.507812 L 49.167969 27.847656 L 49.382812 28.085938 C 49.507812 28.210938 49.625 28.320312 49.65625 28.320312 C 49.6875 28.320312 49.648438 28.253906 49.574219 28.171875 C 49.429688 28.003906 49.414062 28.011719 50.089844 27.863281 L 50.535156 27.765625 L 49.871094 27.726562 C 49.382812 27.699219 49.242188 27.667969 49.355469 27.617188 C 49.515625 27.542969 49.679688 27.359375 49.679688 27.246094 C 49.679688 27.203125 49.632812 27.230469 49.574219 27.3125 C 49.433594 27.507812 49.339844 27.417969 49.28125 27.015625 C 49.175781 26.328125 49.109375 26.328125 49.082031 27.023438 Z M 49.082031 27.023438 "/>
<path style=" stroke:none;fill-rule:nonzero;fill:rgb(0%,0%,0%);fill-opacity:1;" d="M 28 27.410156 C 28.050781 27.433594 28.117188 27.425781 28.136719 27.402344 C 28.167969 27.378906 28.125 27.359375 28.042969 27.363281 C 27.960938 27.363281 27.9375 27.386719 28 27.410156 Z M 28 27.410156 "/>
<path style=" stroke:none;fill-rule:nonzero;fill:rgb(0%,0%,0%);fill-opacity:1;" d="M 28.773438 27.484375 C 28.839844 27.5 28.957031 27.5 29.03125 27.484375 C 29.097656 27.460938 29.039062 27.445312 28.898438 27.445312 C 28.757812 27.445312 28.699219 27.460938 28.773438 27.484375 Z M 28.773438 27.484375 "/>
<path style=" stroke:none;fill-rule:nonzero;fill:rgb(0%,0%,0%);fill-opacity:1;" d="M 29.621094 27.558594 C 29.707031 27.574219 29.855469 27.574219 29.953125 27.558594 C 30.039062 27.542969 29.964844 27.527344 29.78125 27.527344 C 29.597656 27.527344 29.523438 27.542969 29.621094 27.558594 Z M 29.621094 27.558594 "/>
<path style=" stroke:none;fill-rule:nonzero;fill:rgb(0%,0%,0%);fill-opacity:1;" d="M 27.886719 27.839844 C 27.886719 28.003906 27.902344 28.0625 27.917969 27.964844 C 27.933594 27.875 27.933594 27.742188 27.917969 27.667969 C 27.894531 27.601562 27.878906 27.675781 27.886719 27.839844 Z M 27.886719 27.839844 "/>
<path style=" stroke:none;fill-rule:nonzero;fill:rgb(0%,0%,0%);fill-opacity:1;" d="M 30.503906 27.632812 C 30.59375 27.648438 30.726562 27.648438 30.800781 27.632812 C 30.867188 27.609375 30.792969 27.59375 30.628906 27.601562 C 30.46875 27.601562 30.410156 27.617188 30.503906 27.632812 Z M 30.503906 27.632812 "/>
<path style=" stroke:none;fill-rule:nonzero;fill:rgb(0%,0%,0%);fill-opacity:1;" d="M 31.34375 27.707031 C 31.476562 27.726562 31.550781 27.796875 31.574219 27.898438 C 31.601562 28.03125 31.609375 28.023438 31.617188 27.855469 C 31.625 27.675781 31.601562 27.652344 31.390625 27.660156 C 31.167969 27.675781 31.167969 27.675781 31.34375 27.707031 Z M 31.34375 27.707031 "/>
<path style=" stroke:none;fill-rule:nonzero;fill:rgb(0%,0%,0%);fill-opacity:1;" d="M 31.5 28.617188 C 31.5 28.804688 31.515625 28.878906 31.527344 28.78125 C 31.542969 28.691406 31.542969 28.542969 31.527344 28.449219 C 31.515625 28.359375 31.5 28.433594 31.5 28.617188 Z M 31.5 28.617188 "/>
<path style=" stroke:none;fill-rule:nonzero;fill:rgb(0%,0%,0%);fill-opacity:1;" d="M 27.8125 28.691406 C 27.8125 28.878906 27.828125 28.953125 27.84375 28.855469 C 27.859375 28.765625 27.859375 28.617188 27.84375 28.523438 C 27.828125 28.433594 27.8125 28.507812 27.8125 28.691406 Z M 27.8125 28.691406 "/>
<path style=" stroke:none;fill-rule:nonzero;fill:rgb(0%,0%,0%);fill-opacity:1;" d="M 51.675781 11.121094 C 51.675781 11.164062 52.539062 11.195312 54.109375 11.195312 C 55.679688 11.195312 56.542969 11.164062 56.542969 11.121094 C 56.542969 11.078125 55.679688 11.046875 54.109375 11.046875 C 52.539062 11.046875 51.675781 11.078125 51.675781 11.121094 Z M 51.675781 11.121094 "/>
<path style=" stroke:none;fill-rule:nonzero;fill:rgb(0%,0%,0%);fill-opacity:1;" d="M 51.898438 12.234375 C 51.898438 12.277344 52.289062 12.308594 52.929688 12.308594 C 53.570312 12.308594 53.960938 12.277344 53.960938 12.234375 C 53.960938 12.1875 53.570312 12.160156 52.929688 12.160156 C 52.289062 12.160156 51.898438 12.1875 51.898438 12.234375 Z M 51.898438 12.234375 "/>
<path style=" stroke:none;fill-rule:nonzero;fill:rgb(0%,0%,0%);fill-opacity:1;" d="M 51.898438 12.53125 C 51.898438 12.574219 52.363281 12.605469 53.152344 12.605469 C 53.9375 12.605469 54.402344 12.574219 54.402344 12.53125 C 54.402344 12.484375 53.9375 12.457031 53.152344 12.457031 C 52.363281 12.457031 51.898438 12.484375 51.898438 12.53125 Z M 51.898438 12.53125 "/>
<path style=" stroke:none;fill-rule:nonzero;fill:rgb(0%,0%,0%);fill-opacity:1;" d="M 51.898438 12.828125 C 51.898438 12.871094 52.449219 12.898438 53.410156 12.898438 C 54.367188 12.898438 54.917969 12.871094 54.917969 12.828125 C 54.917969 12.78125 54.367188 12.753906 53.410156 12.753906 C 52.449219 12.753906 51.898438 12.78125 51.898438 12.828125 Z M 51.898438 12.828125 "/>
<path style=" stroke:none;fill-rule:nonzero;fill:rgb(0%,0%,0%);fill-opacity:1;" d="M 52.398438 13.988281 C 52.6875 14.003906 53.171875 14.003906 53.46875 13.988281 C 53.753906 13.984375 53.519531 13.96875 52.929688 13.96875 C 52.339844 13.96875 52.105469 13.984375 52.398438 13.988281 Z M 52.398438 13.988281 "/>
<path style=" stroke:none;fill-rule:nonzero;fill:rgb(0%,0%,0%);fill-opacity:1;" d="M 52.5 14.285156 C 52.855469 14.300781 53.453125 14.300781 53.828125 14.285156 C 54.203125 14.28125 53.917969 14.265625 53.1875 14.265625 C 52.457031 14.265625 52.148438 14.28125 52.5 14.285156 Z M 52.5 14.285156 "/>
<path style=" stroke:none;fill-rule:nonzero;fill:rgb(0%,0%,0%);fill-opacity:1;" d="M 52.65625 14.582031 C 53.089844 14.597656 53.800781 14.597656 54.242188 14.582031 C 54.675781 14.574219 54.316406 14.5625 53.445312 14.5625 C 52.574219 14.5625 52.214844 14.574219 52.65625 14.582031 Z M 52.65625 14.582031 "/>
<path style=" stroke:none;fill-rule:nonzero;fill:rgb(0%,0%,0%);fill-opacity:1;" d="M 52.324219 15.546875 C 52.613281 15.5625 53.097656 15.5625 53.394531 15.546875 C 53.679688 15.539062 53.445312 15.523438 52.855469 15.523438 C 52.265625 15.523438 52.03125 15.539062 52.324219 15.546875 Z M 52.324219 15.546875 "/>
<path style=" stroke:none;fill-rule:nonzero;fill:rgb(0%,0%,0%);fill-opacity:1;" d="M 52.429688 15.84375 C 52.78125 15.859375 53.378906 15.859375 53.753906 15.84375 C 54.132812 15.835938 53.84375 15.820312 53.113281 15.820312 C 52.382812 15.820312 52.074219 15.835938 52.429688 15.84375 Z M 52.429688 15.84375 "/>
<path style=" stroke:none;fill-rule:nonzero;fill:rgb(0%,0%,0%);fill-opacity:1;" d="M 52.582031 16.140625 C 53.019531 16.15625 53.726562 16.15625 54.167969 16.140625 C 54.601562 16.132812 54.242188 16.117188 53.371094 16.117188 C 52.5 16.117188 52.140625 16.132812 52.582031 16.140625 Z M 52.582031 16.140625 "/>
<path style=" stroke:none;fill-rule:nonzero;fill:rgb(0%,0%,0%);fill-opacity:1;" d="M 52.398438 17.105469 C 52.6875 17.117188 53.171875 17.117188 53.46875 17.105469 C 53.753906 17.097656 53.519531 17.082031 52.929688 17.082031 C 52.339844 17.082031 52.105469 17.097656 52.398438 17.105469 Z M 52.398438 17.105469 "/>
<path style=" stroke:none;fill-rule:nonzero;fill:rgb(0%,0%,0%);fill-opacity:1;" d="M 52.507812 17.402344 C 52.863281 17.414062 53.4375 17.414062 53.800781 17.402344 C 54.152344 17.394531 53.859375 17.378906 53.152344 17.378906 C 52.441406 17.378906 52.148438 17.394531 52.507812 17.402344 Z M 52.507812 17.402344 "/>
<path style=" stroke:none;fill-rule:nonzero;fill:rgb(0%,0%,0%);fill-opacity:1;" d="M 52.65625 17.695312 C 53.089844 17.710938 53.800781 17.710938 54.242188 17.695312 C 54.675781 17.691406 54.316406 17.675781 53.445312 17.675781 C 52.574219 17.675781 52.214844 17.691406 52.65625 17.695312 Z M 52.65625 17.695312 "/>
<path style=" stroke:none;fill-rule:nonzero;fill:rgb(0%,0%,0%);fill-opacity:1;" d="M 52.398438 18.882812 C 52.6875 18.898438 53.171875 18.898438 53.46875 18.882812 C 53.753906 18.875 53.519531 18.859375 52.929688 18.859375 C 52.339844 18.859375 52.105469 18.875 52.398438 18.882812 Z M 52.398438 18.882812 "/>
<path style=" stroke:none;fill-rule:nonzero;fill:rgb(0%,0%,0%);fill-opacity:1;" d="M 52.5 19.179688 C 52.855469 19.195312 53.453125 19.195312 53.828125 19.179688 C 54.203125 19.171875 53.917969 19.15625 53.1875 19.15625 C 52.457031 19.15625 52.148438 19.171875 52.5 19.179688 Z M 52.5 19.179688 "/>
<path style=" stroke:none;fill-rule:nonzero;fill:rgb(0%,0%,0%);fill-opacity:1;" d="M 51.898438 19.425781 C 51.898438 19.46875 52.464844 19.5 53.453125 19.5 C 54.460938 19.5 54.984375 19.476562 54.957031 19.425781 C 54.925781 19.378906 54.332031 19.351562 53.402344 19.351562 C 52.449219 19.351562 51.898438 19.378906 51.898438 19.425781 Z M 51.898438 19.425781 "/>
<path style=" stroke:none;fill-rule:nonzero;fill:rgb(0%,0%,0%);fill-opacity:1;" d="M 51.859375 20.386719 C 51.832031 20.433594 52.175781 20.460938 52.847656 20.460938 C 53.488281 20.460938 53.886719 20.433594 53.886719 20.386719 C 53.886719 20.34375 53.511719 20.3125 52.898438 20.3125 C 52.316406 20.3125 51.890625 20.34375 51.859375 20.386719 Z M 51.859375 20.386719 "/>
<path style=" stroke:none;fill-rule:nonzero;fill:rgb(0%,0%,0%);fill-opacity:1;" d="M 52.429688 20.738281 C 52.78125 20.75 53.378906 20.75 53.753906 20.738281 C 54.132812 20.730469 53.84375 20.714844 53.113281 20.714844 C 52.382812 20.714844 52.074219 20.730469 52.429688 20.738281 Z M 52.429688 20.738281 "/>
<path style=" stroke:none;fill-rule:nonzero;fill:rgb(0%,0%,0%);fill-opacity:1;" d="M 51.824219 20.980469 C 51.824219 21.027344 52.390625 21.054688 53.371094 21.054688 C 54.351562 21.054688 54.917969 21.027344 54.917969 20.980469 C 54.917969 20.9375 54.351562 20.90625 53.371094 20.90625 C 52.390625 20.90625 51.824219 20.9375 51.824219 20.980469 Z M 51.824219 20.980469 "/>
<path style=" stroke:none;fill-rule:nonzero;fill:rgb(0%,0%,0%);fill-opacity:1;" d="M 51.824219 21.945312 C 51.824219 21.988281 52.214844 22.019531 52.855469 22.019531 C 53.496094 22.019531 53.886719 21.988281 53.886719 21.945312 C 53.886719 21.902344 53.496094 21.871094 52.855469 21.871094 C 52.214844 21.871094 51.824219 21.902344 51.824219 21.945312 Z M 51.824219 21.945312 "/>
<path style=" stroke:none;fill-rule:nonzero;fill:rgb(0%,0%,0%);fill-opacity:1;" d="M 51.859375 22.242188 C 51.832031 22.292969 52.265625 22.316406 53.105469 22.316406 C 53.925781 22.316406 54.402344 22.285156 54.402344 22.242188 C 54.402344 22.199219 53.9375 22.167969 53.15625 22.167969 C 52.398438 22.167969 51.890625 22.199219 51.859375 22.242188 Z M 51.859375 22.242188 "/>
<path style=" stroke:none;fill-rule:nonzero;fill:rgb(0%,0%,0%);fill-opacity:1;" d="M 51.859375 22.539062 C 51.890625 22.582031 52.488281 22.613281 53.417969 22.613281 C 54.367188 22.613281 54.917969 22.582031 54.917969 22.539062 C 54.917969 22.492188 54.351562 22.464844 53.363281 22.464844 C 52.355469 22.464844 51.832031 22.488281 51.859375 22.539062 Z M 51.859375 22.539062 "/>
<path style=" stroke:none;fill-rule:nonzero;fill:rgb(0%,0%,0%);fill-opacity:1;" d="M 52.398438 23.703125 C 52.6875 23.71875 53.171875 23.71875 53.46875 23.703125 C 53.753906 23.695312 53.519531 23.679688 52.929688 23.679688 C 52.339844 23.679688 52.105469 23.695312 52.398438 23.703125 Z M 52.398438 23.703125 "/>
<path style=" stroke:none;fill-rule:nonzero;fill:rgb(0%,0%,0%);fill-opacity:1;" d="M 52.507812 24 C 52.863281 24.015625 53.4375 24.015625 53.800781 24 C 54.152344 23.992188 53.859375 23.976562 53.152344 23.976562 C 52.441406 23.976562 52.148438 23.992188 52.507812 24 Z M 52.507812 24 "/>
<path style=" stroke:none;fill-rule:nonzero;fill:rgb(0%,0%,0%);fill-opacity:1;" d="M 52.65625 24.296875 C 53.089844 24.308594 53.800781 24.308594 54.242188 24.296875 C 54.675781 24.289062 54.316406 24.273438 53.445312 24.273438 C 52.574219 24.273438 52.214844 24.289062 52.65625 24.296875 Z M 52.65625 24.296875 "/>
<path style=" stroke:none;fill-rule:nonzero;fill:rgb(0%,0%,0%);fill-opacity:1;" d="M 52.324219 25.257812 C 52.613281 25.273438 53.097656 25.273438 53.394531 25.257812 C 53.679688 25.253906 53.445312 25.238281 52.855469 25.238281 C 52.265625 25.238281 52.03125 25.253906 52.324219 25.257812 Z M 52.324219 25.257812 "/>
<path style=" stroke:none;fill-rule:nonzero;fill:rgb(0%,0%,0%);fill-opacity:1;" d="M 52.4375 25.554688 C 52.789062 25.570312 53.363281 25.570312 53.726562 25.554688 C 54.078125 25.546875 53.785156 25.535156 53.078125 25.535156 C 52.371094 25.535156 52.074219 25.546875 52.4375 25.554688 Z M 52.4375 25.554688 "/>
<path style=" stroke:none;fill-rule:nonzero;fill:rgb(0%,0%,0%);fill-opacity:1;" d="M 52.582031 25.851562 C 53.019531 25.867188 53.726562 25.867188 54.167969 25.851562 C 54.601562 25.84375 54.242188 25.832031 53.371094 25.832031 C 52.5 25.832031 52.140625 25.84375 52.582031 25.851562 Z M 52.582031 25.851562 "/>
<path style=" stroke:none;fill-rule:nonzero;fill:rgb(0%,0%,0%);fill-opacity:1;" d="M 52.25 26.667969 C 52.539062 26.683594 53.023438 26.683594 53.320312 26.667969 C 53.609375 26.660156 53.371094 26.644531 52.78125 26.644531 C 52.191406 26.644531 51.957031 26.660156 52.25 26.667969 Z M 52.25 26.667969 "/>
<path style=" stroke:none;fill-rule:nonzero;fill:rgb(0%,0%,0%);fill-opacity:1;" d="M 52.355469 26.964844 C 52.707031 26.980469 53.304688 26.980469 53.679688 26.964844 C 54.058594 26.957031 53.769531 26.941406 53.039062 26.941406 C 52.308594 26.941406 52 26.957031 52.355469 26.964844 Z M 52.355469 26.964844 "/>
<path style=" stroke:none;fill-rule:nonzero;fill:rgb(0%,0%,0%);fill-opacity:1;" d="M 52.507812 27.261719 C 52.945312 27.277344 53.652344 27.277344 54.09375 27.261719 C 54.527344 27.253906 54.167969 27.238281 53.296875 27.238281 C 52.429688 27.238281 52.066406 27.253906 52.507812 27.261719 Z M 52.507812 27.261719 "/>
<path style=" stroke:none;fill-rule:nonzero;fill:rgb(0%,0%,0%);fill-opacity:1;" d="M 14.464844 22.367188 C 14.734375 22.382812 15.199219 22.382812 15.496094 22.367188 C 15.789062 22.359375 15.570312 22.347656 15 22.347656 C 14.433594 22.347656 14.191406 22.351562 14.464844 22.367188 Z M 14.464844 22.367188 "/>
<path style=" stroke:none;fill-rule:nonzero;fill:rgb(0%,0%,0%);fill-opacity:1;" d="M 17.484375 22.515625 C 17.757812 22.53125 18.222656 22.53125 18.519531 22.515625 C 18.8125 22.507812 18.589844 22.492188 18.023438 22.492188 C 17.457031 22.492188 17.214844 22.5 17.484375 22.515625 Z M 17.484375 22.515625 "/>
<path style=" stroke:none;fill-rule:nonzero;fill:rgb(0%,0%,0%);fill-opacity:1;" d="M 21.539062 22.515625 C 21.8125 22.53125 22.277344 22.53125 22.574219 22.515625 C 22.867188 22.507812 22.644531 22.492188 22.078125 22.492188 C 21.511719 22.492188 21.269531 22.5 21.539062 22.515625 Z M 21.539062 22.515625 "/>
<path style=" stroke:none;fill-rule:nonzero;fill:rgb(0%,0%,0%);fill-opacity:1;" d="M 17.640625 22.8125 C 17.996094 22.828125 18.5625 22.828125 18.894531 22.8125 C 19.226562 22.804688 18.9375 22.789062 18.246094 22.789062 C 17.558594 22.789062 17.285156 22.804688 17.640625 22.8125 Z M 17.640625 22.8125 "/>
<path style=" stroke:none;fill-rule:nonzero;fill:rgb(0%,0%,0%);fill-opacity:1;" d="M 21.695312 22.8125 C 22.050781 22.828125 22.617188 22.828125 22.949219 22.8125 C 23.28125 22.804688 22.992188 22.789062 22.300781 22.789062 C 21.613281 22.789062 21.339844 22.804688 21.695312 22.8125 Z M 21.695312 22.8125 "/>
<path style=" stroke:none;fill-rule:nonzero;fill:rgb(0%,0%,0%);fill-opacity:1;" d="M 17.101562 23.058594 C 17.101562 23.101562 17.632812 23.132812 18.546875 23.132812 C 19.484375 23.132812 19.96875 23.109375 19.941406 23.058594 C 19.910156 23.011719 19.351562 22.984375 18.496094 22.984375 C 17.617188 22.984375 17.101562 23.011719 17.101562 23.058594 Z M 17.101562 23.058594 "/>
<path style=" stroke:none;fill-rule:nonzero;fill:rgb(0%,0%,0%);fill-opacity:1;" d="M 21.121094 23.058594 C 21.089844 23.109375 21.578125 23.132812 22.511719 23.132812 C 23.425781 23.132812 23.957031 23.101562 23.957031 23.058594 C 23.957031 23.011719 23.441406 22.984375 22.566406 22.984375 C 21.710938 22.984375 21.148438 23.011719 21.121094 23.058594 Z M 21.121094 23.058594 "/>
<path style=" stroke:none;fill-rule:nonzero;fill:rgb(0%,0%,0%);fill-opacity:1;" d="M 51.566406 28.46875 C 51.535156 28.515625 51.882812 28.542969 52.554688 28.542969 C 53.195312 28.542969 53.59375 28.515625 53.59375 28.46875 C 53.59375 28.425781 53.21875 28.394531 52.605469 28.394531 C 52.023438 28.394531 51.59375 28.425781 51.566406 28.46875 Z M 51.566406 28.46875 "/>
<path style=" stroke:none;fill-rule:nonzero;fill:rgb(0%,0%,0%);fill-opacity:1;" d="M 52.132812 28.816406 C 52.488281 28.832031 53.085938 28.832031 53.460938 28.816406 C 53.835938 28.8125 53.546875 28.796875 52.820312 28.796875 C 52.089844 28.796875 51.78125 28.8125 52.132812 28.816406 Z M 52.132812 28.816406 "/>
<path style=" stroke:none;fill-rule:nonzero;fill:rgb(0%,0%,0%);fill-opacity:1;" d="M 51.566406 29.0625 C 51.535156 29.113281 52.058594 29.136719 53.070312 29.136719 C 54.058594 29.136719 54.625 29.105469 54.625 29.0625 C 54.625 29.019531 54.070312 28.988281 53.121094 28.988281 C 52.191406 28.988281 51.59375 29.019531 51.566406 29.0625 Z M 51.566406 29.0625 "/>
<path style=" stroke:none;fill-rule:nonzero;fill:rgb(0%,0%,0%);fill-opacity:1;" d="M 12.796875 27.328125 C 12.738281 27.476562 12.738281 29.761719 12.796875 29.90625 C 12.863281 30.085938 14.929688 30.085938 14.996094 29.90625 C 15.015625 29.839844 15.039062 29.335938 15.039062 28.773438 L 15.039062 27.757812 L 14.476562 27.210938 L 13.660156 27.210938 C 12.980469 27.210938 12.835938 27.230469 12.796875 27.328125 Z M 14.375 27.578125 C 14.375 27.78125 14.398438 27.800781 14.597656 27.800781 L 14.816406 27.800781 L 14.816406 29.878906 L 12.972656 29.878906 L 12.972656 27.359375 L 14.375 27.359375 Z M 14.632812 27.578125 C 14.65625 27.617188 14.640625 27.652344 14.605469 27.652344 C 14.558594 27.652344 14.523438 27.617188 14.523438 27.578125 C 14.523438 27.535156 14.539062 27.507812 14.550781 27.507812 C 14.574219 27.507812 14.609375 27.535156 14.632812 27.578125 Z M 14.632812 27.578125 "/>
<path style=" stroke:none;fill-rule:nonzero;fill:rgb(0%,0%,0%);fill-opacity:1;" d="M 13.75 27.660156 C 13.71875 27.699219 13.71875 27.816406 13.742188 27.921875 C 13.777344 28.0625 13.742188 28.160156 13.5625 28.328125 C 13.445312 28.453125 13.34375 28.601562 13.34375 28.664062 C 13.34375 28.832031 13.535156 28.78125 13.667969 28.582031 C 13.792969 28.394531 14.035156 28.335938 14.117188 28.46875 C 14.140625 28.507812 14.226562 28.542969 14.308594 28.542969 C 14.484375 28.542969 14.492188 28.328125 14.324219 28.277344 C 14.058594 28.195312 13.96875 28.113281 13.953125 27.941406 C 13.953125 27.847656 13.949219 27.722656 13.941406 27.667969 C 13.933594 27.558594 13.816406 27.550781 13.75 27.660156 Z M 13.75 27.660156 "/>
<path style=" stroke:none;fill-rule:nonzero;fill:rgb(0%,0%,0%);fill-opacity:1;" d="M 13.269531 29.324219 C 13.269531 29.464844 13.304688 29.582031 13.34375 29.582031 C 13.386719 29.582031 13.417969 29.53125 13.417969 29.46875 C 13.417969 29.410156 13.46875 29.359375 13.527344 29.359375 C 13.585938 29.359375 13.636719 29.292969 13.636719 29.210938 C 13.636719 29.101562 13.585938 29.0625 13.453125 29.0625 C 13.292969 29.0625 13.269531 29.09375 13.269531 29.324219 Z M 13.5625 29.210938 C 13.5625 29.25 13.535156 29.285156 13.492188 29.285156 C 13.453125 29.285156 13.417969 29.25 13.417969 29.210938 C 13.417969 29.167969 13.453125 29.136719 13.492188 29.136719 C 13.535156 29.136719 13.5625 29.167969 13.5625 29.210938 Z M 13.5625 29.210938 "/>
<path style=" stroke:none;fill-rule:nonzero;fill:rgb(0%,0%,0%);fill-opacity:1;" d="M 13.710938 29.324219 C 13.710938 29.542969 13.734375 29.582031 13.886719 29.582031 C 14.007812 29.582031 14.085938 29.53125 14.117188 29.433594 C 14.175781 29.25 14.042969 29.0625 13.851562 29.0625 C 13.742188 29.0625 13.710938 29.113281 13.710938 29.324219 Z M 14.007812 29.324219 C 14.007812 29.382812 13.976562 29.449219 13.933594 29.46875 C 13.886719 29.5 13.859375 29.433594 13.859375 29.324219 C 13.859375 29.210938 13.886719 29.144531 13.933594 29.175781 C 13.976562 29.195312 14.007812 29.261719 14.007812 29.324219 Z M 14.007812 29.324219 "/>
<path style=" stroke:none;fill-rule:nonzero;fill:rgb(0%,0%,0%);fill-opacity:1;" d="M 14.234375 29.335938 C 14.234375 29.492188 14.257812 29.566406 14.277344 29.507812 C 14.300781 29.449219 14.359375 29.375 14.40625 29.34375 C 14.464844 29.308594 14.457031 29.285156 14.398438 29.285156 C 14.257812 29.285156 14.277344 29.152344 14.433594 29.113281 C 14.53125 29.085938 14.515625 29.078125 14.398438 29.070312 C 14.25 29.0625 14.226562 29.101562 14.234375 29.335938 Z M 14.234375 29.335938 "/>
<path style=" stroke:none;fill-rule:nonzero;fill:rgb(0%,0%,0%);fill-opacity:1;" d="M 15.523438 28.441406 C 15.464844 28.589844 15.464844 30.796875 15.523438 30.945312 C 15.589844 31.125 17.65625 31.125 17.722656 30.945312 C 17.742188 30.878906 17.765625 30.382812 17.765625 29.839844 L 17.765625 28.847656 L 17.492188 28.589844 L 17.214844 28.320312 L 16.394531 28.320312 C 15.710938 28.320312 15.5625 28.34375 15.523438 28.441406 Z M 17.101562 28.691406 C 17.101562 28.890625 17.125 28.914062 17.324219 28.914062 L 17.542969 28.914062 L 17.542969 30.917969 L 15.703125 30.917969 L 15.703125 28.46875 L 17.101562 28.46875 Z M 17.359375 28.691406 C 17.382812 28.730469 17.367188 28.765625 17.332031 28.765625 C 17.285156 28.765625 17.25 28.730469 17.25 28.691406 C 17.25 28.648438 17.265625 28.617188 17.28125 28.617188 C 17.300781 28.617188 17.339844 28.648438 17.359375 28.691406 Z M 17.359375 28.691406 "/>
<path style=" stroke:none;fill-rule:nonzero;fill:rgb(0%,0%,0%);fill-opacity:1;" d="M 16.460938 28.960938 C 16.5 29.195312 16.476562 29.253906 16.292969 29.417969 C 16.167969 29.53125 16.070312 29.65625 16.070312 29.707031 C 16.070312 29.847656 16.269531 29.828125 16.378906 29.671875 C 16.519531 29.46875 16.695312 29.433594 16.875 29.550781 C 17.042969 29.671875 17.175781 29.632812 17.175781 29.464844 C 17.175781 29.402344 17.101562 29.359375 17 29.359375 C 16.792969 29.359375 16.644531 29.203125 16.660156 29.011719 C 16.691406 28.765625 16.660156 28.691406 16.542969 28.691406 C 16.445312 28.691406 16.433594 28.742188 16.460938 28.960938 Z M 16.460938 28.960938 "/>
<path style=" stroke:none;fill-rule:nonzero;fill:rgb(0%,0%,0%);fill-opacity:1;" d="M 16.046875 30.152344 C 15.988281 30.203125 15.980469 30.621094 16.035156 30.621094 C 16.136719 30.621094 16.371094 30.300781 16.335938 30.203125 C 16.292969 30.09375 16.128906 30.0625 16.046875 30.152344 Z M 16.046875 30.152344 "/>
<path style=" stroke:none;fill-rule:nonzero;fill:rgb(0%,0%,0%);fill-opacity:1;" d="M 16.4375 30.359375 C 16.4375 30.582031 16.460938 30.621094 16.617188 30.621094 C 16.734375 30.621094 16.816406 30.566406 16.84375 30.472656 C 16.902344 30.285156 16.769531 30.101562 16.578125 30.101562 C 16.46875 30.101562 16.4375 30.152344 16.4375 30.359375 Z M 16.734375 30.398438 C 16.734375 30.480469 16.703125 30.546875 16.660156 30.546875 C 16.625 30.546875 16.585938 30.480469 16.585938 30.398438 C 16.585938 30.316406 16.625 30.25 16.660156 30.25 C 16.703125 30.25 16.734375 30.316406 16.734375 30.398438 Z M 16.734375 30.398438 "/>
<path style=" stroke:none;fill-rule:nonzero;fill:rgb(0%,0%,0%);fill-opacity:1;" d="M 16.960938 30.375 C 16.96875 30.53125 16.984375 30.597656 17.007812 30.523438 C 17.019531 30.457031 17.082031 30.398438 17.125 30.398438 C 17.175781 30.398438 17.167969 30.367188 17.101562 30.324219 C 17.007812 30.265625 17.015625 30.25 17.125 30.25 C 17.191406 30.25 17.25 30.210938 17.25 30.175781 C 17.25 30.128906 17.183594 30.101562 17.101562 30.101562 C 16.976562 30.101562 16.957031 30.144531 16.960938 30.375 Z M 16.960938 30.375 "/>
<path style=" stroke:none;fill-rule:nonzero;fill:rgb(0%,0%,0%);fill-opacity:1;" d="M 12.796875 30.664062 C 12.738281 30.8125 12.738281 33.023438 12.796875 33.171875 C 12.863281 33.347656 14.929688 33.347656 14.996094 33.171875 C 15.015625 33.101562 15.039062 32.605469 15.039062 32.066406 L 15.039062 31.070312 L 14.765625 30.8125 L 14.484375 30.546875 L 13.667969 30.546875 C 12.980469 30.546875 12.835938 30.566406 12.796875 30.664062 Z M 14.375 30.917969 C 14.375 31.117188 14.398438 31.140625 14.597656 31.140625 L 14.816406 31.140625 L 14.816406 33.140625 L 12.972656 33.140625 L 12.972656 30.695312 L 14.375 30.695312 Z M 14.632812 30.917969 C 14.65625 30.953125 14.640625 30.992188 14.605469 30.992188 C 14.558594 30.992188 14.523438 30.953125 14.523438 30.917969 C 14.523438 30.871094 14.539062 30.84375 14.550781 30.84375 C 14.574219 30.84375 14.609375 30.871094 14.632812 30.917969 Z M 14.632812 30.917969 "/>
<path style=" stroke:none;fill-rule:nonzero;fill:rgb(0%,0%,0%);fill-opacity:1;" d="M 13.734375 31.183594 C 13.769531 31.421875 13.75 31.480469 13.5625 31.644531 C 13.4375 31.753906 13.34375 31.878906 13.34375 31.933594 C 13.34375 32.074219 13.542969 32.050781 13.652344 31.894531 C 13.792969 31.695312 13.96875 31.65625 14.144531 31.777344 C 14.316406 31.894531 14.449219 31.859375 14.449219 31.6875 C 14.449219 31.628906 14.375 31.582031 14.273438 31.582031 C 14.066406 31.582031 13.917969 31.429688 13.933594 31.234375 C 13.960938 30.992188 13.933594 30.917969 13.816406 30.917969 C 13.71875 30.917969 13.703125 30.96875 13.734375 31.183594 Z M 13.734375 31.183594 "/>
<path style=" stroke:none;fill-rule:nonzero;fill:rgb(0%,0%,0%);fill-opacity:1;" d="M 13.320312 32.375 C 13.261719 32.429688 13.253906 32.84375 13.304688 32.84375 C 13.410156 32.84375 13.644531 32.523438 13.609375 32.429688 C 13.5625 32.316406 13.402344 32.289062 13.320312 32.375 Z M 13.320312 32.375 "/>
<path style=" stroke:none;fill-rule:nonzero;fill:rgb(0%,0%,0%);fill-opacity:1;" d="M 13.710938 32.585938 C 13.710938 32.808594 13.734375 32.84375 13.886719 32.84375 C 14.007812 32.84375 14.085938 32.792969 14.117188 32.695312 C 14.175781 32.511719 14.042969 32.324219 13.851562 32.324219 C 13.742188 32.324219 13.710938 32.375 13.710938 32.585938 Z M 14.007812 32.621094 C 14.007812 32.703125 13.976562 32.769531 13.933594 32.769531 C 13.894531 32.769531 13.859375 32.703125 13.859375 32.621094 C 13.859375 32.539062 13.894531 32.472656 13.933594 32.472656 C 13.976562 32.472656 14.007812 32.539062 14.007812 32.621094 Z M 14.007812 32.621094 "/>
<path style=" stroke:none;fill-rule:nonzero;fill:rgb(0%,0%,0%);fill-opacity:1;" d="M 14.234375 32.597656 C 14.242188 32.753906 14.257812 32.820312 14.277344 32.746094 C 14.292969 32.679688 14.351562 32.621094 14.398438 32.621094 C 14.449219 32.621094 14.441406 32.59375 14.375 32.546875 C 14.277344 32.488281 14.285156 32.472656 14.398438 32.472656 C 14.464844 32.472656 14.523438 32.4375 14.523438 32.398438 C 14.523438 32.355469 14.457031 32.324219 14.375 32.324219 C 14.25 32.324219 14.226562 32.371094 14.234375 32.597656 Z M 14.234375 32.597656 "/>
<path style=" stroke:none;fill-rule:nonzero;fill:rgb(0%,0%,0%);fill-opacity:1;" d="M 10.03125 38.046875 C 9.265625 39.265625 6.9375 43.320312 6.964844 43.371094 C 7.03125 43.476562 61.480469 43.476562 61.480469 43.371094 C 61.480469 43.320312 52.339844 43.289062 34.324219 43.28125 L 7.164062 43.261719 L 8.667969 40.710938 C 9.496094 39.308594 10.171875 38.128906 10.171875 38.101562 C 10.171875 38.0625 20.746094 38.042969 34.46875 38.046875 L 58.769531 38.070312 L 60.175781 40.71875 C 61.453125 43.105469 61.703125 43.527344 61.703125 43.304688 C 61.703125 43.230469 59.429688 38.960938 59.027344 38.269531 L 58.796875 37.886719 L 10.136719 37.886719 Z M 10.03125 38.046875 "/>
<path style=" stroke:none;fill-rule:nonzero;fill:rgb(0%,0%,0%);fill-opacity:1;" d="M 27.222656 44.054688 C 27.097656 44.21875 25.941406 47.605469 25.992188 47.679688 C 26.050781 47.777344 43.175781 47.769531 43.234375 47.671875 C 43.28125 47.597656 42.652344 44.433594 42.535156 44.128906 L 42.460938 43.964844 L 34.875 43.964844 C 28.898438 43.964844 27.277344 43.988281 27.222656 44.054688 Z M 42.765625 45.820312 C 42.957031 46.738281 43.117188 47.507812 43.125 47.539062 C 43.125 47.574219 39.3125 47.597656 34.648438 47.597656 C 29.988281 47.597656 26.167969 47.582031 26.167969 47.566406 C 26.167969 47.546875 26.589844 46.335938 27.253906 44.425781 L 27.363281 44.113281 L 34.890625 44.128906 L 42.410156 44.148438 Z M 42.765625 45.820312 "/>
</g>
</svg>
