<?xml version="1.0" encoding="UTF-8"?>
<svg xmlns="http://www.w3.org/2000/svg" xmlns:xlink="http://www.w3.org/1999/xlink" width="74px" height="50px" viewBox="0 0 74 50" version="1.1">
<g id="surface1">
<path style=" stroke:none;fill-rule:nonzero;fill:rgb(0%,0%,0%);fill-opacity:1;" d="M 36.363281 1.363281 C 27.996094 1.808594 21.140625 2.179688 21.132812 2.1875 C 21.101562 2.214844 22.226562 23.351562 22.261719 23.386719 C 22.308594 23.425781 33.050781 22.421875 33.105469 22.367188 C 33.140625 22.332031 33.019531 19.566406 32.910156 17.820312 C 32.871094 17.246094 32.824219 16.488281 32.804688 16.144531 C 32.769531 15.5625 32.757812 15.523438 32.621094 15.523438 L 32.476562 15.523438 L 32.5625 17.089844 C 32.644531 18.59375 32.644531 18.664062 32.523438 18.832031 C 32.347656 19.058594 31.917969 19.101562 31.738281 18.898438 C 31.625 18.769531 31.597656 18.554688 31.515625 16.996094 C 31.402344 14.949219 31.421875 14.835938 31.871094 14.398438 C 32.246094 14.039062 32.460938 14 34.304688 13.902344 C 35.519531 13.851562 35.765625 13.851562 35.96875 13.9375 C 36.363281 14.101562 36.578125 14.296875 36.738281 14.621094 C 36.867188 14.894531 36.894531 15.125 36.972656 16.597656 C 37.027344 17.507812 37.046875 18.339844 37.027344 18.441406 C 36.960938 18.777344 36.515625 18.945312 36.25 18.738281 C 36.0625 18.59375 36.015625 18.371094 35.96875 17.3125 C 35.949219 16.753906 35.90625 16.078125 35.886719 15.808594 C 35.847656 15.363281 35.832031 15.316406 35.707031 15.335938 C 35.578125 15.355469 35.574219 15.394531 35.585938 15.894531 C 35.621094 17 35.902344 22.0625 35.933594 22.097656 C 35.96875 22.132812 38.890625 21.867188 38.9375 21.828125 C 38.964844 21.800781 38.703125 16.40625 38.636719 15.636719 C 38.601562 15.253906 38.574219 15.1875 38.46875 15.1875 C 38.3125 15.1875 38.308594 15.4375 38.40625 17.164062 C 38.46875 18.121094 38.460938 18.316406 38.378906 18.488281 C 38.140625 18.945312 37.523438 18.8125 37.441406 18.277344 C 37.421875 18.15625 37.375 17.320312 37.328125 16.414062 L 37.253906 14.773438 L 37.414062 14.457031 C 37.507812 14.273438 37.695312 14.058594 37.851562 13.945312 C 38.191406 13.707031 38.757812 13.640625 40.59375 13.613281 L 41.878906 13.601562 L 42.132812 13.808594 C 42.65625 14.226562 42.691406 14.355469 42.804688 16.347656 C 42.898438 18.054688 42.898438 18.128906 42.777344 18.292969 C 42.605469 18.519531 42.175781 18.5625 41.992188 18.359375 C 41.878906 18.230469 41.851562 18.027344 41.777344 16.65625 C 41.738281 15.808594 41.683594 15.089844 41.664062 15.070312 C 41.652344 15.058594 41.578125 15.050781 41.511719 15.066406 C 41.398438 15.085938 41.398438 15.191406 41.558594 18.324219 L 41.726562 21.566406 L 41.992188 21.542969 C 42.140625 21.539062 42.898438 21.46875 43.667969 21.394531 C 45.507812 21.21875 45.378906 21.214844 45.386719 21.476562 C 45.398438 21.949219 45.492188 21.363281 45.578125 20.28125 C 45.625 19.6875 45.671875 19.1875 45.679688 19.167969 C 45.695312 19.148438 47.269531 19.269531 49.179688 19.445312 C 51.089844 19.613281 52.664062 19.742188 52.679688 19.734375 C 52.699219 19.714844 51.886719 3.617188 51.734375 0.882812 C 51.71875 0.714844 51.6875 0.582031 51.644531 0.574219 C 51.613281 0.558594 44.734375 0.917969 36.363281 1.363281 Z M 48.785156 3.828125 C 49.140625 4.152344 49.441406 4.433594 49.453125 4.453125 C 49.460938 4.476562 48.730469 5.320312 47.824219 6.324219 C 46.921875 7.335938 46.183594 8.167969 46.183594 8.179688 C 46.183594 8.195312 46.925781 8.160156 47.832031 8.113281 C 48.738281 8.066406 49.496094 8.039062 49.515625 8.058594 C 49.535156 8.078125 49.164062 8.519531 48.695312 9.039062 C 47.90625 9.914062 47.824219 9.984375 47.570312 10.015625 C 47.183594 10.0625 43.085938 10.265625 43.058594 10.238281 C 43.046875 10.226562 42.984375 9.355469 42.933594 8.296875 C 42.878906 7.242188 42.816406 6.164062 42.796875 5.90625 L 42.765625 5.433594 L 43.601562 4.488281 C 44.066406 3.96875 44.472656 3.53125 44.507812 3.523438 C 44.546875 3.507812 44.574219 3.644531 44.582031 3.828125 C 44.582031 4.003906 44.621094 4.785156 44.660156 5.5625 L 44.742188 6.972656 L 46.410156 5.109375 C 47.324219 4.078125 48.085938 3.238281 48.105469 3.238281 C 48.121094 3.238281 48.429688 3.503906 48.785156 3.828125 Z M 29.460938 5.128906 C 29.679688 5.332031 30.007812 5.628906 30.183594 5.792969 L 30.5 6.074219 L 30.625 8.457031 C 30.691406 9.757812 30.734375 10.851562 30.710938 10.878906 C 30.6875 10.898438 29.605469 10.976562 28.304688 11.042969 L 25.953125 11.15625 L 25.121094 10.414062 C 24.667969 10.003906 24.246094 9.605469 24.175781 9.53125 C 24.058594 9.402344 24.0625 9.394531 24.410156 9.363281 C 24.605469 9.335938 25.25 9.300781 25.839844 9.273438 C 26.429688 9.253906 27.03125 9.214844 27.171875 9.1875 L 27.433594 9.144531 L 25.617188 7.492188 C 24.613281 6.585938 23.796875 5.816406 23.796875 5.785156 C 23.796875 5.710938 24.941406 4.453125 25.007812 4.453125 C 25.035156 4.453125 25.859375 5.183594 26.84375 6.082031 C 27.832031 6.972656 28.648438 7.6875 28.667969 7.667969 C 28.6875 7.648438 28.667969 7.019531 28.628906 6.261719 C 28.585938 5.507812 28.554688 4.757812 28.554688 4.589844 L 28.554688 4.292969 L 28.808594 4.527344 C 28.941406 4.65625 29.238281 4.925781 29.460938 5.128906 Z M 37.457031 9.449219 C 37.796875 9.699219 37.9375 9.960938 37.9375 10.359375 C 37.9375 10.777344 37.796875 11.082031 37.496094 11.3125 C 37.273438 11.480469 37.1875 11.507812 36.800781 11.507812 C 36.410156 11.507812 36.324219 11.480469 36.101562 11.3125 C 35.484375 10.847656 35.503906 9.910156 36.136719 9.457031 C 36.371094 9.28125 36.476562 9.246094 36.800781 9.246094 C 37.113281 9.246094 37.226562 9.28125 37.457031 9.449219 Z M 40.464844 11.109375 C 40.773438 11.347656 40.90625 11.582031 40.941406 11.964844 C 40.996094 12.65625 40.585938 13.160156 39.921875 13.214844 C 39.207031 13.277344 38.734375 12.859375 38.6875 12.121094 C 38.667969 11.777344 38.6875 11.675781 38.824219 11.472656 C 38.910156 11.347656 39.085938 11.171875 39.210938 11.082031 C 39.414062 10.949219 39.507812 10.925781 39.863281 10.949219 C 40.148438 10.96875 40.339844 11.015625 40.464844 11.109375 Z M 34.5 11.347656 C 35.03125 11.601562 35.289062 12.363281 35.023438 12.882812 C 34.800781 13.324219 34.210938 13.628906 33.753906 13.539062 C 33.480469 13.484375 33.085938 13.167969 32.9375 12.882812 C 32.675781 12.371094 32.9375 11.609375 33.460938 11.347656 C 33.824219 11.164062 34.132812 11.164062 34.5 11.347656 Z M 34.5 11.347656 "/>
<path style=" stroke:none;fill-rule:nonzero;fill:rgb(0%,0%,0%);fill-opacity:1;" d="M 40.035156 19.382812 C 40.0625 19.730469 40.097656 20.402344 40.125 20.875 L 40.171875 21.738281 L 40.34375 21.71875 C 40.4375 21.707031 40.519531 21.6875 40.511719 21.664062 C 40.503906 21.644531 40.484375 21.085938 40.457031 20.417969 C 40.398438 18.84375 40.386719 18.761719 40.171875 18.761719 L 39.996094 18.761719 Z M 40.035156 19.382812 "/>
<path style=" stroke:none;fill-rule:nonzero;fill:rgb(0%,0%,0%);fill-opacity:1;" d="M 34.203125 19.585938 C 34.230469 19.855469 34.273438 20.574219 34.292969 21.171875 C 34.339844 22.257812 34.339844 22.273438 34.492188 22.273438 C 34.574219 22.273438 34.660156 22.253906 34.675781 22.21875 C 34.695312 22.183594 34.554688 19.203125 34.527344 19.113281 C 34.519531 19.109375 34.441406 19.101562 34.34375 19.101562 L 34.164062 19.101562 Z M 34.203125 19.585938 "/>
<path style=" stroke:none;fill-rule:nonzero;fill:rgb(0%,0%,0%);fill-opacity:1;" d="M 46.023438 19.722656 C 45.996094 19.882812 43.742188 45.371094 43.617188 46.941406 C 43.601562 47.136719 43.617188 47.144531 43.902344 47.164062 C 44.070312 47.179688 50.238281 47.726562 57.613281 48.386719 C 64.984375 49.046875 71.03125 49.582031 71.042969 49.566406 C 71.0625 49.546875 73.515625 21.988281 73.503906 21.957031 C 73.492188 21.941406 46.332031 19.507812 46.167969 19.507812 C 46.089844 19.507812 46.042969 19.582031 46.023438 19.722656 Z M 53.984375 23.082031 C 54.386719 23.117188 54.761719 23.152344 54.816406 23.152344 C 54.890625 23.152344 54.902344 23.246094 54.890625 23.601562 L 54.863281 24.0625 L 55.582031 24.128906 C 56.269531 24.195312 56.3125 24.210938 56.558594 24.433594 C 56.8125 24.664062 56.820312 24.683594 56.792969 25.027344 C 56.761719 25.371094 56.746094 25.398438 56.453125 25.585938 C 56.277344 25.695312 56.089844 25.769531 56.007812 25.75 C 55.929688 25.734375 55.667969 25.707031 55.425781 25.683594 L 54.984375 25.648438 L 54.9375 26.234375 C 54.910156 26.566406 54.875 26.964844 54.855469 27.132812 C 54.816406 27.4375 54.816406 27.4375 55.078125 27.53125 C 55.460938 27.671875 56.007812 28.058594 56.269531 28.375 C 56.605469 28.785156 56.894531 29.449219 56.941406 29.925781 C 56.988281 30.378906 55.726562 45.140625 55.628906 45.25 C 55.574219 45.300781 48.246094 44.6875 48.132812 44.613281 C 48.066406 44.574219 49.359375 29.800781 49.46875 29.367188 C 49.714844 28.382812 50.539062 27.550781 51.539062 27.292969 C 52.074219 27.152344 52.042969 27.21875 52.121094 26.101562 L 52.167969 25.445312 L 51.925781 25.445312 C 51.800781 25.445312 51.644531 25.433594 51.59375 25.40625 C 51.53125 25.382812 51.074219 25.714844 50.398438 26.269531 L 49.304688 27.167969 L 49.132812 27.890625 C 49.03125 28.292969 48.9375 28.636719 48.910156 28.660156 C 48.890625 28.683594 48.695312 28.671875 48.480469 28.644531 C 48.207031 28.597656 48.09375 28.550781 48.101562 28.484375 C 48.105469 28.429688 48.242188 27.808594 48.402344 27.105469 L 48.691406 25.832031 L 50.152344 24.730469 L 51.605469 23.625 L 52.109375 23.664062 L 52.605469 23.710938 L 52.652344 23.378906 C 52.71875 22.949219 52.71875 22.941406 53.007812 22.980469 C 53.140625 23.003906 53.582031 23.042969 53.984375 23.082031 Z M 67.820312 29.421875 C 68.308594 30.59375 68.972656 31.480469 69.636719 31.859375 C 69.71875 31.898438 69.710938 32.121094 69.617188 33.316406 C 69.550781 34.089844 69.488281 34.765625 69.46875 34.8125 C 69.429688 34.957031 68.476562 34.117188 67.996094 33.519531 C 67.492188 32.882812 67.097656 32.105469 66.886719 31.351562 C 66.59375 30.296875 66.699219 28.765625 67.136719 27.746094 L 67.242188 27.503906 L 67.4375 28.226562 C 67.539062 28.625 67.710938 29.164062 67.820312 29.421875 Z M 64.226562 28.570312 C 65.140625 28.96875 65.777344 29.933594 66.425781 31.925781 C 66.980469 33.625 67.4375 34.367188 68.617188 35.503906 L 69.382812 36.222656 L 69.128906 36.273438 C 68.984375 36.292969 68.636719 36.3125 68.355469 36.3125 C 67.164062 36.3125 66.164062 35.65625 65.265625 34.289062 C 64.628906 33.308594 64.355469 32.574219 64.121094 31.230469 C 63.90625 30.023438 63.617188 29.265625 63.121094 28.617188 L 62.992188 28.449219 L 63.222656 28.414062 C 63.484375 28.367188 63.917969 28.441406 64.226562 28.570312 Z M 63.777344 33.734375 C 64.246094 34.410156 65.265625 35.503906 65.894531 36.015625 C 66.808594 36.742188 67.632812 37.214844 68.605469 37.5625 C 69.152344 37.757812 69.207031 37.789062 69.195312 37.9375 C 69.1875 38.027344 69.128906 38.675781 69.066406 39.382812 C 69.007812 40.085938 68.945312 40.679688 68.933594 40.691406 C 68.859375 40.773438 67.261719 40.050781 66.660156 39.667969 C 65.164062 38.722656 64.046875 37.480469 63.542969 36.222656 C 63.222656 35.40625 63.121094 34.886719 63.121094 33.941406 C 63.128906 33.050781 63.175781 32.808594 63.300781 33.03125 C 63.34375 33.097656 63.558594 33.417969 63.777344 33.734375 Z M 63.226562 38.101562 C 64.058594 38.445312 64.898438 39.140625 65.628906 40.097656 C 66.296875 40.988281 66.875 41.402344 68.167969 41.933594 C 68.515625 42.082031 68.820312 42.210938 68.824219 42.21875 C 68.878906 42.265625 68.300781 42.515625 67.898438 42.621094 C 66.820312 42.90625 65.734375 42.804688 64.816406 42.347656 C 64.011719 41.941406 63.671875 41.5625 62.644531 39.929688 C 62.277344 39.355469 61.867188 38.984375 61.246094 38.675781 C 60.941406 38.519531 60.6875 38.382812 60.675781 38.371094 C 60.628906 38.324219 61.34375 37.992188 61.625 37.933594 C 62.054688 37.835938 62.765625 37.910156 63.226562 38.101562 Z M 62.78125 41.921875 C 63.074219 42.238281 63.863281 42.8125 64.3125 43.042969 C 64.777344 43.277344 65.414062 43.492188 65.988281 43.609375 C 66.472656 43.703125 67.640625 43.703125 68.234375 43.609375 C 68.46875 43.566406 68.671875 43.546875 68.683594 43.5625 C 68.71875 43.59375 68.449219 46.375 68.410156 46.421875 C 68.335938 46.492188 66.671875 46.308594 66.125 46.167969 C 65.828125 46.09375 65.28125 45.882812 64.898438 45.695312 C 64.359375 45.425781 64.113281 45.253906 63.757812 44.898438 C 63.109375 44.234375 62.664062 43.34375 62.570312 42.472656 C 62.550781 42.257812 62.511719 42 62.496094 41.894531 C 62.449219 41.65625 62.53125 41.664062 62.78125 41.921875 Z M 62.78125 41.921875 "/>
<path style=" stroke:none;fill-rule:nonzero;fill:rgb(0%,0%,0%);fill-opacity:1;" d="M 50.25 31.363281 C 50.164062 32.074219 49.984375 34.355469 50.011719 34.382812 C 50.058594 34.429688 55.507812 34.910156 55.546875 34.867188 C 55.601562 34.820312 55.867188 31.601562 55.828125 31.558594 C 55.800781 31.535156 50.648438 31.046875 50.378906 31.046875 C 50.320312 31.046875 50.273438 31.164062 50.25 31.363281 Z M 50.25 31.363281 "/>
<path style=" stroke:none;fill-rule:nonzero;fill:rgb(0%,0%,0%);fill-opacity:1;" d="M 22.722656 23.972656 C 10.652344 25.121094 0.75 26.078125 0.730469 26.105469 C 0.710938 26.132812 1.152344 31 1.710938 36.917969 L 2.714844 47.683594 L 2.949219 47.664062 C 3.199219 47.652344 12.824219 46.746094 17.425781 46.308594 C 18.921875 46.167969 25.378906 45.550781 31.773438 44.953125 C 38.167969 44.34375 43.421875 43.832031 43.453125 43.804688 C 43.515625 43.75 45.109375 25.816406 45.109375 25.175781 C 45.109375 24.933594 45.050781 24.117188 44.976562 23.351562 C 44.902344 22.589844 44.84375 21.949219 44.84375 21.914062 C 44.84375 21.855469 48.433594 21.523438 22.722656 23.972656 Z M 18.796875 26.132812 C 18.914062 26.871094 19.511719 33.902344 19.464844 33.949219 C 19.433594 33.984375 18.929688 34.042969 18.351562 34.089844 L 17.308594 34.179688 L 17.011719 33.917969 C 16.851562 33.773438 16.515625 33.457031 16.253906 33.214844 C 14.679688 31.714844 14.691406 31.722656 13.648438 31.722656 C 12.660156 31.722656 9.496094 32.046875 9.015625 32.203125 C 8.886719 32.242188 8.746094 32.371094 8.621094 32.574219 C 8.511719 32.742188 8.390625 32.910156 8.351562 32.957031 C 8.3125 33.003906 8.199219 33.207031 8.097656 33.410156 C 7.515625 34.625 7.320312 35.097656 7.285156 35.359375 C 7.253906 35.636719 7.265625 35.675781 7.480469 35.886719 C 7.722656 36.109375 7.824219 36.144531 8.089844 36.070312 C 8.285156 36.015625 8.546875 35.617188 9.148438 34.457031 C 9.699219 33.402344 9.660156 33.449219 10.054688 33.394531 C 10.25 33.375 10.609375 33.34375 10.851562 33.328125 C 11.265625 33.308594 11.292969 33.316406 11.316406 33.457031 C 11.335938 33.585938 11.132812 34.273438 10.925781 34.792969 C 10.898438 34.867188 10.824219 35.0625 10.757812 35.230469 C 10.5625 35.730469 10.511719 35.867188 10.449219 35.996094 C 10.34375 36.199219 10.269531 37.695312 10.289062 39.066406 L 10.308594 40.367188 L 10.148438 40.429688 C 10.0625 40.464844 9.269531 40.570312 8.398438 40.664062 C 5.671875 40.960938 5.675781 40.957031 5.316406 41.476562 C 5.160156 41.703125 4.925781 42.441406 4.988281 42.507812 C 5.054688 42.574219 10.410156 42.101562 11.394531 41.949219 C 11.722656 41.894531 11.929688 41.710938 12.003906 41.40625 C 12.078125 41.125 12.09375 39.371094 12.023438 38.40625 C 12 37.964844 12.011719 37.804688 12.085938 37.703125 C 12.171875 37.582031 12.234375 37.660156 12.96875 38.78125 C 13.398438 39.445312 13.839844 40.117188 13.949219 40.28125 C 14.054688 40.4375 14.144531 40.597656 14.144531 40.632812 C 14.144531 40.671875 14.171875 40.699219 14.203125 40.699219 C 14.238281 40.699219 14.277344 40.753906 14.304688 40.8125 C 14.335938 40.929688 14.4375 41.105469 14.566406 41.265625 C 14.734375 41.496094 15.484375 42.691406 15.484375 42.738281 C 15.484375 42.765625 15.515625 42.792969 15.550781 42.792969 C 15.589844 42.792969 15.617188 42.832031 15.617188 42.871094 C 15.617188 42.917969 15.773438 43.136719 15.960938 43.351562 C 16.292969 43.730469 16.53125 43.886719 16.917969 43.972656 C 17.140625 44.019531 18.246094 43.945312 18.359375 43.878906 C 18.417969 43.835938 17.871094 42.886719 17.515625 42.414062 C 17.386719 42.25 17.285156 42.074219 17.253906 41.960938 C 17.226562 41.902344 17.1875 41.847656 17.152344 41.847656 C 17.121094 41.847656 17.09375 41.8125 17.09375 41.773438 C 17.09375 41.730469 17.023438 41.605469 16.9375 41.488281 C 16.859375 41.367188 16.75 41.210938 16.710938 41.136719 C 16.664062 41.0625 16.414062 40.664062 16.152344 40.261719 C 15.890625 39.847656 15.644531 39.457031 15.597656 39.382812 C 15.550781 39.308594 15.449219 39.152344 15.371094 39.03125 C 15.28125 38.917969 15.214844 38.789062 15.214844 38.75 C 15.214844 38.707031 15.1875 38.675781 15.148438 38.675781 C 15.113281 38.675781 15.082031 38.648438 15.082031 38.613281 C 15.082031 38.578125 14.960938 38.371094 14.8125 38.148438 C 14.664062 37.925781 14.546875 37.710938 14.546875 37.667969 C 14.546875 37.628906 14.523438 37.59375 14.492188 37.59375 C 14.464844 37.59375 14.382812 37.480469 14.3125 37.339844 C 14.238281 37.203125 14.136719 37.046875 14.097656 37 C 13.980469 36.878906 13.988281 36.582031 14.117188 36.125 C 14.21875 35.730469 14.242188 35.671875 14.4375 35.21875 C 14.5 35.082031 14.546875 34.941406 14.546875 34.902344 C 14.546875 34.859375 14.570312 34.773438 14.605469 34.707031 C 14.640625 34.644531 14.71875 34.46875 14.792969 34.320312 C 14.859375 34.171875 14.953125 34.050781 15 34.050781 C 15.042969 34.050781 15.46875 34.410156 15.953125 34.847656 C 16.636719 35.460938 16.859375 35.628906 16.976562 35.609375 C 17.359375 35.527344 19.578125 35.414062 19.632812 35.476562 C 19.660156 35.507812 19.875 37.5625 20.101562 40.039062 L 20.523438 44.539062 L 20.136719 45.03125 C 19.921875 45.300781 19.707031 45.566406 19.660156 45.613281 C 19.613281 45.660156 19.546875 45.746094 19.511719 45.808594 C 19.4375 45.945312 19.035156 46.003906 17.816406 46.070312 C 16.703125 46.132812 16.683594 46.105469 17.285156 45.457031 C 17.722656 44.984375 18.0625 44.554688 18.023438 44.519531 C 18.011719 44.507812 17.589844 44.539062 17.09375 44.59375 C 16.410156 44.667969 16.167969 44.714844 16.085938 44.804688 C 15.542969 45.425781 14.761719 46.28125 14.691406 46.339844 C 14.640625 46.375 14.023438 46.464844 13.320312 46.523438 C 12.609375 46.589844 11.234375 46.714844 10.253906 46.800781 C 7.976562 47.015625 6.039062 47.144531 5.984375 47.089844 C 5.964844 47.0625 6.125 46.828125 6.339844 46.566406 C 6.5625 46.300781 6.789062 46.019531 6.851562 45.929688 C 6.957031 45.796875 6.957031 45.707031 6.832031 44.335938 C 6.757812 43.539062 6.691406 42.886719 6.683594 42.886719 C 6.675781 42.878906 6.179688 42.917969 5.582031 42.972656 C 4.980469 43.035156 4.445312 43.0625 4.382812 43.035156 C 4.296875 43 4.28125 42.941406 4.324219 42.738281 C 4.539062 41.523438 5.28125 40.578125 6.132812 40.414062 C 6.246094 40.394531 6.273438 40.320312 6.3125 39.957031 C 6.367188 39.457031 6.335938 39.078125 5.691406 32.234375 C 5.4375 29.488281 5.242188 27.226562 5.269531 27.207031 C 5.308594 27.167969 17.921875 25.9375 18.445312 25.925781 C 18.753906 25.917969 18.761719 25.925781 18.796875 26.132812 Z M 35.511719 27.144531 C 35.765625 27.34375 36.066406 27.578125 36.195312 27.671875 C 36.316406 27.765625 36.449219 27.875 36.492188 27.910156 C 36.53125 27.949219 37.035156 28.335938 37.601562 28.773438 C 38.171875 29.203125 39.097656 29.90625 39.648438 30.339844 C 40.203125 30.765625 41.1875 31.519531 41.839844 32.007812 C 42.578125 32.566406 43.027344 32.949219 43.027344 33.023438 C 43.03125 33.09375 42.964844 33.214844 42.886719 33.300781 C 42.796875 33.382812 42.460938 33.753906 42.128906 34.117188 C 41.800781 34.488281 41.355469 34.96875 41.148438 35.199219 C 40.949219 35.421875 40.371094 36.054688 39.882812 36.617188 C 39.386719 37.167969 38.949219 37.660156 38.910156 37.703125 C 38.875 37.742188 38.648438 38 38.40625 38.277344 C 38.167969 38.546875 37.832031 38.925781 37.664062 39.113281 C 37.496094 39.296875 37.246094 39.570312 37.113281 39.71875 C 36.988281 39.867188 36.757812 40.117188 36.617188 40.28125 L 36.363281 40.5625 L 33.917969 40.800781 C 32.570312 40.929688 31.390625 41.035156 31.289062 41.035156 C 30.960938 41.035156 31.007812 40.957031 31.933594 39.957031 C 32.121094 39.746094 32.441406 39.390625 32.644531 39.152344 C 33.078125 38.648438 33.816406 37.816406 34.472656 37.089844 C 34.539062 37.015625 34.792969 36.71875 35.035156 36.425781 C 35.285156 36.144531 35.511719 35.90625 35.550781 35.90625 C 35.59375 35.90625 35.59375 35.886719 35.550781 35.847656 C 35.519531 35.8125 33.769531 35.953125 31.335938 36.183594 C 29.050781 36.398438 27.160156 36.554688 27.132812 36.527344 C 27.074219 36.46875 26.703125 32.484375 26.757812 32.429688 C 26.792969 32.390625 34.386719 31.65625 34.753906 31.65625 C 34.984375 31.65625 35.210938 31.535156 35.078125 31.480469 C 35.03125 31.460938 34.816406 31.304688 34.601562 31.128906 C 34.378906 30.953125 33.882812 30.574219 33.496094 30.285156 C 33.105469 30 32.742188 29.726562 32.695312 29.675781 C 32.648438 29.628906 32.382812 29.425781 32.105469 29.226562 C 31.832031 29.023438 31.230469 28.558594 30.765625 28.191406 C 30.304688 27.828125 29.894531 27.503906 29.847656 27.484375 C 29.808594 27.457031 29.761719 27.394531 29.746094 27.34375 C 29.734375 27.273438 29.820312 27.242188 30.0625 27.21875 C 30.25 27.199219 31.289062 27.105469 32.375 26.996094 C 35.15625 26.734375 34.960938 26.722656 35.511719 27.144531 Z M 35.511719 27.144531 "/>
<path style=" stroke:none;fill-rule:nonzero;fill:rgb(0%,0%,0%);fill-opacity:1;" d="M 13.546875 28.402344 C 12.6875 28.765625 12.453125 29.941406 13.078125 30.703125 C 13.304688 30.980469 13.652344 31.113281 14.136719 31.113281 C 15.25 31.113281 15.988281 29.96875 15.484375 29.023438 C 15.375 28.820312 15.242188 28.683594 14.972656 28.496094 C 14.664062 28.28125 13.941406 28.238281 13.546875 28.402344 Z M 13.546875 28.402344 "/>
</g>
</svg>
