<?xml version="1.0" encoding="utf-8"?>
<!-- Generator: Adobe Illustrator 27.6.0, SVG Export Plug-In . SVG Version: 6.00 Build 0)  -->
<svg version="1.1" id="Layer_1" xmlns="http://www.w3.org/2000/svg" xmlns:xlink="http://www.w3.org/1999/xlink" x="0px" y="0px"
	 viewBox="0 0 60 60" style="enable-background:new 0 0 60 60;" xml:space="preserve">
<g>
	<path d="M30,2C14.5,2,2,14.5,2,30s12.5,28,28,28s28-12.5,28-28S45.5,2,30,2z M51.8,20h-9.5c-1.4-4.9-3.8-9.5-7.1-13.4
		C42.5,8.2,48.7,13.2,51.8,20z M29.9,53.1L29.9,53.1c-3.7-3.7-6.4-8.1-8-13.1h16.2c-1.6,4.9-4.3,9.4-8,13.1
		C30,53.1,30,53.1,29.9,53.1z M20.9,36c-0.7-4-0.7-8,0-12h18.2c0.7,4,0.7,8,0,12H20.9z M6,30c0-2,0.3-4,0.8-6h10.1
		c-0.7,4-0.7,8,0,12H6.8C6.3,34,6,32,6,30z M30,6.9c0,0,0.1,0,0.1,0c3.7,3.7,6.4,8.2,8,13.1H21.9c1.6-4.9,4.3-9.4,8-13.1
		C29.9,6.9,30,6.9,30,6.9z M43.2,24h10.1c1,3.9,1,8.1,0,12H43.2C43.8,32,43.8,28,43.2,24z M24.8,6.6c-3.3,3.9-5.7,8.5-7.1,13.4H8.2
		C11.3,13.2,17.5,8.2,24.8,6.6z M8.2,40h9.5c1.4,4.9,3.8,9.5,7.1,13.4C17.5,51.8,11.3,46.8,8.2,40z M35.2,53.4
		c3.3-3.9,5.7-8.5,7.1-13.4h9.5C48.7,46.8,42.5,51.8,35.2,53.4L35.2,53.4z"/>
</g>
</svg>
