<?xml version="1.0" encoding="utf-8"?>
<!-- Generator: Adobe Illustrator 27.6.0, SVG Export Plug-In . SVG Version: 6.00 Build 0)  -->
<svg version="1.1" id="Layer_1" xmlns="http://www.w3.org/2000/svg" xmlns:xlink="http://www.w3.org/1999/xlink" x="0px" y="0px"
	 viewBox="0 0 100 101.3" style="enable-background:new 0 0 100 101.3;" xml:space="preserve">
<path d="M50,2.5C23.8,2.5,2.5,23.8,2.5,50S23.8,97.5,50,97.5S97.5,76.2,97.5,50S76.2,2.5,50,2.5z M50,89.1
	c-21.6,0-39.1-17.5-39.1-39.1c0-21.6,17.5-39.1,39.1-39.1c21.6,0,39.1,17.5,39.1,39.1C89.1,71.6,71.6,89.1,50,89.1z"/>
<rect x="45.8" y="21.9" width="8.4" height="35.8"/>
<path d="M50,63.3c-3.1,0-5.7,2.5-5.7,5.7v0.9c0,3.1,2.5,5.7,5.7,5.7c3.1,0,5.7-2.5,5.7-5.7V69C55.7,65.8,53.1,63.3,50,63.3z"/>
</svg>
