<?xml version="1.0" encoding="utf-8"?>
<!-- Generator: Adobe Illustrator 27.6.0, SVG Export Plug-In . SVG Version: 6.00 Build 0)  -->
<svg version="1.1" id="Layer_1" xmlns="http://www.w3.org/2000/svg" xmlns:xlink="http://www.w3.org/1999/xlink" x="0px" y="0px"
	 viewBox="0 0 93 93.2" style="enable-background:new 0 0 93 93.2;" xml:space="preserve">
<path d="M36.4,22.5l-12.4,0.2c6.4-5.9,14.7-9.3,23.4-9.4c20.5,0,34.3,17.8,34.3,34.4h8c0-20.4-17-42.3-42.3-42.3
	C37.1,5.5,27.1,9.3,19.4,16.2l0.2-10.5l-8-0.2l-0.5,25.6l25.6-0.5L36.4,22.5z"/>
<path d="M46.9,90.1c10.4-0.1,20.4-3.9,28.1-10.8l-0.2,10.5l8,0.2l0.5-25.6L57.8,65l0.2,8l12.4-0.2C64,78.7,55.7,82,47,82.1
	c-20.5,0-34.4-17.8-34.4-34.4h-8C4.6,68.2,21.6,90.1,46.9,90.1z"/>
</svg>
