<?xml version="1.0" encoding="utf-8"?>
<!-- Generator: Adobe Illustrator 27.6.0, SVG Export Plug-In . SVG Version: 6.00 Build 0)  -->
<svg version="1.1" id="Ebene_1" xmlns="http://www.w3.org/2000/svg" xmlns:xlink="http://www.w3.org/1999/xlink" x="0px" y="0px"
	 viewBox="0 0 200 203.3" style="enable-background:new 0 0 200 203.3;" xml:space="preserve">
<g>
	<g>
		<path d="M185.9,14.7H14c-0.6,0-1,0.4-1,1v171.9c0,0.6,0.4,1,1,1h171.9c0.6,0,1-0.4,1-1V15.7C186.9,15.1,186.5,14.7,185.9,14.7z
			 M22.8,178.9V24.5h154.4v154.4H22.8z"/>
	</g>
	<g>
		<path d="M122.9,70.2L122.9,70.2h-8.4h-0.1c-0.7,0-1.3,0.5-1.4,1.1c-2.2,8.1-4.4,16.1-6.7,24.2c-1.9,7-3.9,14.1-5.8,21.2
			c-4.1-15.4-8.1-30.4-12.1-45.4c-0.2-0.7-0.8-1.1-1.4-1.1h-0.1h-9.3h-0.1c-0.8,0-1.5,0.7-1.5,1.5v59.8c0,0.8,0.7,1.5,1.5,1.5h0.1
			h5.9h0.1c0.8,0,1.5-0.7,1.5-1.5V92.4c3.6,13.2,7.2,26.3,10.8,39.5c0.2,0.7,0.8,1.1,1.4,1.1h0.1h5.7h0.1c0.7,0,1.3-0.5,1.4-1.1
			c2.7-10,5.6-20.1,8.3-29.9c0.9-3.2,1.8-6.4,2.7-9.6v39.3c0,0.8,0.7,1.5,1.5,1.5h0.1h5.8h0.1c0.8,0,1.5-0.7,1.5-1.5
			c0-19.7,0-40-0.1-59.9C124.4,70.9,123.7,70.2,122.9,70.2z"/>
		<path d="M66.1,101.9c-1-1-2.2-1.8-3.3-2.6c4-3.6,5.8-8.5,5.1-14.5c-0.7-6.7-4.7-14-13.8-14.4c-1.5-0.1-3-0.1-4.6-0.2
			c-3.4-0.1-6.9,0-10.3,0c-2.1,0-4.3,0.1-6.4,0.1c-0.8,0-1.5,0.7-1.5,1.5v59.7c0,0.8,0.7,1.5,1.5,1.5c2.3,0,4.5,0,6.8,0
			c2.2,0,4.5,0,6.7,0l0,0l0,0c2.3,0,4.5,0,6.8-0.1c2.9-0.1,7.3-0.5,10.9-3.6c3.8-3.2,5.8-7.7,6.2-13.9c0-0.1,0-0.2,0-0.3
			c0-0.2,0-0.3,0-0.4C70.6,109.6,69.2,105.2,66.1,101.9z M60.9,115.6c-0.7,5.1-3.3,7.3-8.4,7.3H40.9v-17.2c1,0,2,0,3.1-0.1
			c3.4-0.1,6.6-0.2,9.8,0.2l0,0c2.5,0.2,4.4,1.2,5.7,2.8c0.2,0.2,0.3,0.4,0.5,0.7C60.9,110.9,61.3,113.1,60.9,115.6z M58.6,91.4
			c-0.9,2.5-2.9,3.6-6,3.7l0,0c-3.3,0.1-6.5,0.1-9.8,0.1c-0.6,0-1.3,0-1.9,0V80.3c0.8,0,1.8,0,2.6,0c3.8,0.1,7.7-0.1,11.4,0.5
			c2.1,0.5,2.9,2,3.3,2.9c0.6,1.2,1,2.1,1,3.9C59.2,89.6,59,90.3,58.6,91.4z"/>
		<path d="M167.1,122.8h-27.7c4.4-6.7,8.8-13.4,13.1-20.1c4.7-7.2,9.4-14.5,14.2-21.7c0.5-0.6,1.1-1.4,1.1-2.4v-6.9
			c0-0.8-0.7-1.5-1.5-1.5h-34.2c-0.8,0-1.5,0.7-1.5,1.5v7.2c0,0.8,0.7,1.5,1.5,1.5h23.6c-0.2,0.3-0.4,0.6-0.6,0.9
			c-8.2,12.8-16.8,26.1-25.4,39.2c-1.9,2.8-1.9,5.7-1.8,8.2c0,0.9,0,1.8,0,2.7c0,0.4,0.1,0.8,0.4,1.1c0.3,0.3,0.7,0.5,1.1,0.5h37.8
			c0.8,0,1.5-0.7,1.5-1.5v-7.2C168.6,123.5,167.9,122.8,167.1,122.8z"/>
	</g>
</g>
</svg>
