<?xml version="1.0" encoding="utf-8"?>
<!-- Generator: Adobe Illustrator 27.6.0, SVG Export Plug-In . SVG Version: 6.00 Build 0)  -->
<svg version="1.1" id="Layer_1" xmlns:serif="http://www.serif.com/"
	 xmlns="http://www.w3.org/2000/svg" xmlns:xlink="http://www.w3.org/1999/xlink" x="0px" y="0px" viewBox="0 0 55 55"
	 style="enable-background:new 0 0 55 55;" xml:space="preserve">
<g>
	<path d="M17.2,28l-9.6,9.6c-0.1,0.1-0.3,0.3-0.3,0.5l-4,12c-0.1,0.5,0,1,0.3,1.2c0.2,0.2,0.5,0.4,0.8,0.4c0.2,0,0.3,0,0.5-0.1
		l11.9-4c0.2,0,0.4-0.2,0.5-0.3l9.6-9.6l13.6,13.6c0.2,0.2,0.6,0.4,0.9,0.4s0.6-0.1,0.9-0.4l9-9c0.5-0.5,0.5-1.3,0-1.8L37.8,27
		l11.8-11.8c1-1,1.6-2.4,1.6-3.7s-0.6-2.7-1.6-3.7l-2.4-2.4c-1-1-2.4-1.6-3.7-1.6s-2.7,0.6-3.7,1.6L28,17.2L14.4,3.6
		c-0.5-0.5-1.3-0.5-1.8,0l-9,9c-0.5,0.5-0.5,1.3,0,1.8L17.2,28z M43.5,6.4c0.8,0,1.5,0.3,1.9,0.8l2.3,2.3c0.6,0.6,0.8,1.2,0.8,1.9
		c0,0.8-0.3,1.5-0.8,1.9l-1.8,1.8L39.8,9l1.8-1.8C42.1,6.6,42.8,6.4,43.5,6.4z M44.1,16.9l-8.2,8.2L29.8,19l8.2-8.2L44.1,16.9z
		 M27.1,19.9l8,8c0,0,0,0,0,0l13.6,13.6l-7.2,7.2l-3.2-3.2l1.1-1.1c0.5-0.5,0.5-1.3,0-1.8c-0.5-0.5-1.3-0.5-1.8,0l-1.1,1.1l-2.2-2.2
		l2.1-2.1c0.5-0.5,0.5-1.3,0-1.8c-0.5-0.5-1.3-0.5-1.8,0l-2.1,2.1l-2.2-2.2l1.1-1.1c0.5-0.5,0.5-1.3,0-1.8c-0.5-0.5-1.3-0.5-1.8,0
		l-1.1,1.1l-0.6-0.6c0,0,0,0,0,0l-1.6-1.6l2.1-2.1c0.5-0.5,0.5-1.3,0-1.8c-0.5-0.5-1.3-0.5-1.8,0l-2.1,2.1l-2.2-2.2l1.1-1.1
		c0.5-0.5,0.5-1.3,0-1.8c-0.5-0.5-1.3-0.5-1.8,0l-1.1,1.1l-0.6-0.6c0,0,0,0,0,0l-1.6-1.6l2.1-2.1c0.5-0.5,0.5-1.3,0-1.8
		c-0.5-0.5-1.3-0.5-1.8,0l-2.1,2.1l-2.2-2.2l1.1-1.1c0.5-0.5,0.5-1.3,0-1.8c-0.5-0.5-1.3-0.5-1.8,0l-1.1,1.1l-2.2-2.2l2.1-2.1
		c0.5-0.5,0.5-1.3,0-1.8c-0.5-0.5-1.3-0.5-1.8,0l-2.1,2.1l-2.2-2.2l7.2-7.2L27.1,19.9C27.1,19.9,27.1,19.9,27.1,19.9z M17.2,44
		l-1.4,1.4l-9.4,3.1l3.1-9.4l1.4-1.4L17.2,44z M12.8,36l6.2-6.2l6.2,6.2L19,42.2L12.8,36z"/>
</g>
</svg>
