<?xml version="1.0" encoding="utf-8"?>
<!-- Generator: Adobe Illustrator 27.6.0, SVG Export Plug-In . SVG Version: 6.00 Build 0)  -->
<svg version="1.1" id="Layer_1" xmlns:serif="http://www.serif.com/"
	 xmlns="http://www.w3.org/2000/svg" xmlns:xlink="http://www.w3.org/1999/xlink" x="0px" y="0px" viewBox="0 0 50 50"
	 style="enable-background:new 0 0 50 50;" xml:space="preserve">
<path d="M46.4,12.6l-9-9c-0.2-0.2-0.5-0.4-0.9-0.4s-0.7,0.1-0.9,0.4l-32,32c-0.2,0.2-0.4,0.5-0.4,0.9s0.1,0.6,0.4,0.9l9,9
	c0.2,0.2,0.5,0.4,0.9,0.4c0.3,0,0.6-0.1,0.9-0.4l32-32c0.2-0.2,0.4-0.5,0.4-0.9C46.8,13.2,46.6,12.8,46.4,12.6z M11.8,34.5
	c0-0.3-0.1-0.6-0.4-0.9l-1.1-1.1l2.2-2.2l2.1,2.1c0.5,0.5,1.3,0.5,1.8,0c0.2-0.2,0.4-0.6,0.4-0.9s-0.1-0.6-0.4-0.9l-2.1-2.1l2.2-2.2
	l1.1,1.1c0.5,0.5,1.3,0.5,1.8,0c0.2-0.2,0.4-0.6,0.4-0.9s-0.1-0.6-0.4-0.9l-1.1-1.1l2.2-2.2l2.1,2.1c0.5,0.5,1.3,0.5,1.8,0
	c0.2-0.2,0.4-0.6,0.4-0.9s-0.1-0.6-0.4-0.9l-2.1-2.1l2.2-2.2l1.1,1.1c0.2,0.2,0.5,0.4,0.9,0.4c0.3,0,0.6-0.1,0.9-0.4
	c0.5-0.5,0.5-1.3,0-1.8l-1.1-1.1l2.2-2.2l2.1,2.1c0.5,0.5,1.3,0.5,1.8,0c0.5-0.5,0.5-1.3,0-1.8l-2.1-2.1l2.2-2.2l1.1,1.1
	c0.5,0.5,1.3,0.5,1.8,0c0.5-0.5,0.5-1.3,0-1.8l-1.1-1.1l2.2-2.2l7.2,7.2L13.5,43.7l-7.2-7.2l2.2-2.2l1.1,1.1c0.5,0.5,1.3,0.5,1.8,0
	C11.6,35.1,11.8,34.8,11.8,34.5z"/>
</svg>
