<?xml version="1.0" encoding="utf-8"?>
<!-- Generator: Adobe Illustrator 27.6.0, SVG Export Plug-In . SVG Version: 6.00 Build 0)  -->
<svg version="1.1" id="Layer_1" xmlns="http://www.w3.org/2000/svg" xmlns:xlink="http://www.w3.org/1999/xlink" x="0px" y="0px"
	 viewBox="0 0 50 50" style="enable-background:new 0 0 50 50;" xml:space="preserve">
<g>
	<path d="M18.7,41.5h-8.3c-1.1,0-2-0.9-2-2v-29c0-1.1,0.9-2,2-2h8.3c0.8,0,1.4-0.6,1.4-1.4V5.7c0-0.8-0.6-1.4-1.4-1.4h-8.3
		c-3.5,0-6.3,2.8-6.3,6.3v29c0,3.5,2.8,6.3,6.3,6.3h8.3c0.8,0,1.4-0.6,1.4-1.4V43C20.1,42.2,19.4,41.5,18.7,41.5z"/>
	<path d="M45.5,24L34.6,13.1c-0.6-0.6-1.5-0.6-2,0l-0.5,0.5l0,0l0,0l-0.5,0.5c-0.3,0.3-0.4,0.6-0.4,1c0,0.4,0.2,0.7,0.4,1l6.7,6.7
		H18.7c-0.8,0-1.4,0.6-1.4,1.4v1.4c0,0.8,0.6,1.4,1.4,1.4h19.7l-6.7,6.7c-0.3,0.3-0.4,0.6-0.4,1c0,0.4,0.2,0.7,0.4,1l0.5,0.5l0,0
		l0,0l0.5,0.5c0.3,0.3,0.6,0.4,1,0.4s0.7-0.1,1-0.4L45.5,26c0.3-0.3,0.4-0.6,0.4-1C45.9,24.6,45.8,24.3,45.5,24z"/>
</g>
</svg>
