<?xml version="1.0" encoding="utf-8"?>
<!-- Generator: Adobe Illustrator 27.6.0, SVG Export Plug-In . SVG Version: 6.00 Build 0)  -->
<svg version="1.1" id="Layer_1" xmlns="http://www.w3.org/2000/svg" xmlns:xlink="http://www.w3.org/1999/xlink" x="0px" y="0px"
	 viewBox="0 0 27.4 17" style="enable-background:new 0 0 27.4 17;" xml:space="preserve">
<g>
	<path d="M26.8,12.3v-2l-4,0c-0.4-2.3-2.5-4-4.9-4l-2.3,0.1v2h2.3c1.3,0,2.4,0.8,2.8,2h-3.3v2h3.3c-0.1,0.4-0.4,0.8-0.7,1.1
		c-0.6,0.6-1.3,0.9-2.1,0.8H9.4c-1.3,0-2.4-0.8-2.8-2h3.3v-2H6.6c0.4-1.1,1.6-2,2.8-2h2.3v-2l-2.3,0c-2.4,0-4.4,1.7-4.9,4l-4-0.1
		l0,2h4c0.3,1,0.7,1.8,1.4,2.5c0.9,0.9,2.2,1.5,3.5,1.4h8.5c1.3,0.1,2.6-0.5,3.5-1.4c0.7-0.7,1.1-1.6,1.4-2.5L26.8,12.3z"/>
	<rect x="8.1" y="2.4" transform="matrix(0.7071 -0.7071 0.7071 0.7071 -0.1063 7.5685)" width="2" height="3"/>
	<rect x="12.7" y="0.5" width="2" height="3"/>
	<rect x="16.8" y="2.9" transform="matrix(0.7071 -0.7071 0.7071 0.7071 2.5861 14.0685)" width="3" height="2"/>
</g>
</svg>
