<?xml version="1.0" encoding="utf-8"?>
<!-- Generator: Adobe Illustrator 27.6.0, SVG Export Plug-In . SVG Version: 6.00 Build 0)  -->
<svg version="1.1" id="Layer_1" xmlns="http://www.w3.org/2000/svg" xmlns:xlink="http://www.w3.org/1999/xlink" x="0px" y="0px"
	 viewBox="0 0 33.6 30.2" style="enable-background:new 0 0 33.6 30.2;" xml:space="preserve">
<style type="text/css">
	.st0{fill-rule:evenodd;clip-rule:evenodd;}
</style>
<path d="M16.7,18.9c0.4,0,0.8-0.3,0.8-0.7c0.4-3.4,0.4-6.9,0.5-10.3c0-0.7-0.6-1.3-1.3-1.3c-0.7,0-1.3,0.6-1.3,1.3
	c0,3.5,0,6.9,0.4,10.3C15.9,18.6,16.2,18.9,16.7,18.9z"/>
<path d="M17.9,24.3c0.3-0.3,0.5-0.8,0.5-1.2s-0.2-0.9-0.5-1.2c-0.3-0.3-0.7-0.5-1.3-0.5s-1,0.2-1.3,0.5c-0.3,0.3-0.5,0.8-0.5,1.2
	s0.2,0.9,0.5,1.2c0.3,0.3,0.7,0.5,1.3,0.5S17.6,24.6,17.9,24.3z"/>
<path class="st0" d="M21.2,3c-1.9-3.3-6.7-3.3-8.6,0l-11,19.1c-1.9,3.3,0.5,7.5,4.3,7.5h22c3.8,0,6.2-4.1,4.3-7.5L21.2,3z M14.3,4
	c1.1-2,4-2,5.2,0l11,19.1c1.1,2-0.3,4.5-2.6,4.5h-22c-2.3,0-3.7-2.5-2.6-4.5L14.3,4z"/>
</svg>
