<?xml version="1.0" encoding="utf-8"?>
<!-- Generator: Adobe Illustrator 28.0.0, SVG Export Plug-In . SVG Version: 6.00 Build 0)  -->
<svg version="1.1" id="Ebene_1" xmlns="http://www.w3.org/2000/svg" xmlns:xlink="http://www.w3.org/1999/xlink" x="0px" y="0px"
	 viewBox="0 0 270.97 273.3" style="enable-background:new 0 0 270.97 273.3;" xml:space="preserve">
<style type="text/css">
	.st0{fill:#FF0000;}
	.st1{fill:#FFFFFF;}
</style>
<g>
	<path class="st0" d="M11.1,261.36c0-0.99,0-167.4,0-246.34c0-2.41,0-2.42,2.38-2.42c24.76,0,49.51,0,74.27,0
		c56.64,0,113.29,0,169.93,0c2.83,0,2.53-0.23,2.53,2.43c0.01,81.34,0,162.67,0,244.01c0,0.72-0.06,1.43-0.1,2.3
		c-1.03,0-1.87,0-2.72,0C178.55,261.34,11.1,261.36,11.1,261.36z"/>
</g>
<g>
	<path class="st1" d="M32.69,170.23c31.04,0,61.59,0,92.36,0c-25.9-25.87-51.59-51.54-77.14-77.06
		c14.07-14.06,27.83-27.81,41.73-41.69c25.58,25.63,51.41,51.5,77.24,77.37c0.16-0.08,0.32-0.17,0.48-0.25c0-30.59,0-61.18,0-92.32
		c1.61,1.58,2.85,2.77,4.06,3.98c15.44,15.43,30.89,30.86,46.28,46.34c0.65,0.65,1.11,1.81,1.11,2.74
		c0.05,43.44,0.04,86.88,0.08,130.32c0,1.68-0.58,2.02-2.11,2.02c-12.26-0.05-24.52-0.02-36.78-0.03c-31.39,0-62.78,0.01-94.17-0.05
		c-0.99,0-2.24-0.4-2.92-1.07c-16.31-16.21-32.56-32.48-48.82-48.75C33.72,171.41,33.39,171.01,32.69,170.23z"/>
</g>
</svg>
