<?xml version="1.0" encoding="utf-8"?>
<!-- Generator: Adobe Illustrator 28.0.0, SVG Export Plug-In . SVG Version: 6.00 Build 0)  -->
<svg version="1.1" id="Ebene_1" xmlns="http://www.w3.org/2000/svg" xmlns:xlink="http://www.w3.org/1999/xlink" x="0px" y="0px"
	 viewBox="0 0 270.97 273.3" style="enable-background:new 0 0 270.97 273.3;" xml:space="preserve">
<style type="text/css">
	.st0{fill:#27A737;}
</style>
<path class="st0" d="M89.32,209.97c20.09-18.53,39.89-36.79,60.1-55.43c-1.07,0-1.7,0-2.33,0c-31.43,0-62.85,0-94.28,0
	c-2.64,0-2.65,0-2.65-2.72c0-13.8,0.03-27.6-0.04-41.4c-0.01-1.76,0.51-2.18,2.23-2.18c31.54,0.05,63.08,0.04,94.62,0.04
	c0.66,0,1.31,0,2.46,0c-20.16-18.6-39.96-36.86-60.08-55.41c0.81-0.1,1.26-0.21,1.71-0.21c18.76-0.01,37.53-0.02,56.29,0.04
	c0.86,0,1.91,0.44,2.55,1.03c26.44,24.4,52.84,48.85,79.24,73.29c1.54,1.42,3.08,2.84,4.75,4.38c-3.15,2.93-6.14,5.73-9.15,8.51
	c-22.9,21.18-45.8,42.36-68.69,63.53c-2.05,1.9-4.04,3.86-6.17,5.66c-0.66,0.56-1.69,0.97-2.56,0.98
	c-18.71,0.05-37.42,0.04-56.12,0.04C90.72,210.11,90.24,210.04,89.32,209.97z"/>
</svg>
