<?xml version="1.0" encoding="utf-8"?>
<!-- Generator: Adobe Illustrator 28.0.0, SVG Export Plug-In . SVG Version: 6.00 Build 0)  -->
<svg version="1.1" id="Ebene_1" xmlns="http://www.w3.org/2000/svg" xmlns:xlink="http://www.w3.org/1999/xlink" x="0px" y="0px"
	 viewBox="0 0 270.97 273.3" style="enable-background:new 0 0 270.97 273.3;" xml:space="preserve">
<style type="text/css">
	.st0{fill:#27A737;}
</style>
<path class="st0" d="M28.5,94.13c0-0.45,0.11-0.9,0.21-1.71c18.55,20.12,36.81,39.92,55.41,60.08c0-1.15,0-1.8,0-2.46
	c0-31.54,0.01-63.08-0.04-94.62c0-0.51,0.04-0.9,0.14-1.22V32.57h157v44H130.38c0,24.53,0,49.05,0,73.58c0,0.63,0,1.26,0,2.33
	c18.64-20.21,36.9-40.01,55.43-60.1c0.07,0.92,0.14,1.4,0.15,1.88c0,18.7,0.01,37.41-0.04,56.12c-0.01,0.87-0.42,1.9-0.98,2.56
	c-1.8,2.13-3.76,4.12-5.66,6.17c-21.17,22.89-42.35,45.79-63.53,68.69c-2.78,3.01-5.58,6-8.51,9.15c-1.54-1.67-2.96-3.21-4.38-4.75
	c-24.44-26.4-48.89-52.8-73.29-79.24c-0.59-0.64-1.03-1.69-1.03-2.55C28.48,131.66,28.49,112.89,28.5,94.13z"/>
</svg>
