<?xml version="1.0" encoding="utf-8"?>
<!-- Generator: Adobe Illustrator 28.0.0, SVG Export Plug-In . SVG Version: 6.00 Build 0)  -->
<svg version="1.1" id="Ebene_1" xmlns="http://www.w3.org/2000/svg" xmlns:xlink="http://www.w3.org/1999/xlink" x="0px" y="0px"
	 viewBox="0 0 270.97 273.3" style="enable-background:new 0 0 270.97 273.3;" xml:space="preserve">
<style type="text/css">
	.st0{fill:#27A737;}
	.st1{fill:#FFFFFF;}
</style>
<g>
	<path class="st0" d="M11.1,261.36c0-0.99,0-167.4,0-246.34c0-2.41,0-2.42,2.38-2.42c24.76,0,49.51,0,74.27,0
		c56.64,0,113.29,0,169.93,0c2.83,0,2.53-0.23,2.53,2.43c0.01,81.34,0,162.67,0,244.01c0,0.72-0.06,1.43-0.1,2.3
		c-1.03,0-1.87,0-2.72,0C178.55,261.34,11.1,261.36,11.1,261.36z M82.77,215.54c0.92,0.07,1.4,0.14,1.89,0.14
		c18.71,0.01,37.42,0.02,56.12-0.04c0.86,0,1.89-0.41,2.56-0.98c2.13-1.8,4.12-3.77,6.17-5.66c22.9-21.18,45.8-42.35,68.69-63.53
		c3-2.78,6-5.57,9.15-8.51c-1.67-1.54-3.21-2.96-4.75-4.38c-26.4-24.44-52.8-48.88-79.24-73.29c-0.64-0.59-1.69-1.02-2.55-1.03
		c-18.76-0.06-37.53-0.05-56.29-0.04c-0.45,0-0.9,0.11-1.71,0.21c20.11,18.55,39.91,36.81,60.08,55.41c-1.15,0-1.81,0-2.46,0
		c-31.54,0-63.08,0.01-94.62-0.04c-1.71,0-2.23,0.42-2.23,2.18c0.07,13.8,0.04,27.6,0.04,41.4c0,2.72,0,2.72,2.65,2.72
		c31.43,0,62.85,0,94.28,0c0.63,0,1.26,0,2.33,0C122.66,178.75,102.86,197.01,82.77,215.54z"/>
	<path class="st1" d="M82.77,215.54c20.09-18.53,39.89-36.79,60.1-55.43c-1.07,0-1.7,0-2.33,0c-31.43,0-62.85,0-94.28,0
		c-2.64,0-2.65,0-2.65-2.72c0-13.8,0.03-27.6-0.04-41.4c-0.01-1.76,0.51-2.18,2.23-2.18c31.54,0.05,63.08,0.04,94.62,0.04
		c0.66,0,1.31,0,2.46,0c-20.16-18.6-39.96-36.86-60.08-55.41c0.81-0.1,1.26-0.21,1.71-0.21c18.76-0.01,37.53-0.02,56.29,0.04
		c0.86,0,1.91,0.44,2.55,1.03c26.44,24.4,52.84,48.85,79.24,73.29c1.54,1.42,3.08,2.84,4.75,4.38c-3.15,2.93-6.14,5.73-9.15,8.51
		c-22.9,21.18-45.8,42.36-68.69,63.53c-2.05,1.9-4.04,3.86-6.17,5.66c-0.66,0.56-1.69,0.97-2.56,0.98
		c-18.71,0.05-37.42,0.04-56.12,0.04C84.17,215.68,83.69,215.61,82.77,215.54z"/>
</g>
</svg>
