<?xml version="1.0" encoding="utf-8"?>
<!-- Generator: Adobe Illustrator 28.0.0, SVG Export Plug-In . SVG Version: 6.00 Build 0)  -->
<svg version="1.1" id="Ebene_1" xmlns="http://www.w3.org/2000/svg" xmlns:xlink="http://www.w3.org/1999/xlink" x="0px" y="0px"
	 viewBox="0 0 270.97 273.3" style="enable-background:new 0 0 270.97 273.3;" xml:space="preserve">
<style type="text/css">
	.st0{fill:#27A737;}
</style>
<path class="st0" d="M182.59,169.08c-18.53-20.09-36.79-39.89-55.43-60.1c0,1.07,0,1.7,0,2.33c0,31.43,0,62.85,0,94.28
	c0,2.64,0,2.65-2.72,2.65c-13.8,0-27.6-0.03-41.4,0.04c-1.76,0.01-2.18-0.51-2.18-2.23c0.05-31.54,0.04-63.08,0.04-94.62
	c0-0.66,0-1.31,0-2.46c-18.6,20.16-36.86,39.96-55.41,60.08c-0.1-0.81-0.21-1.26-0.21-1.71c-0.01-18.76-0.02-37.53,0.04-56.29
	c0-0.86,0.44-1.91,1.03-2.55c24.4-26.44,48.85-52.84,73.29-79.24c1.42-1.54,2.84-3.08,4.38-4.75c2.93,3.15,5.73,6.14,8.51,9.15
	c21.18,22.9,42.36,45.8,63.53,68.69c1.9,2.05,3.86,4.04,5.66,6.17c0.56,0.66,0.97,1.69,0.98,2.56c0.05,18.71,0.04,37.42,0.04,56.12
	C182.73,167.68,182.66,168.16,182.59,169.08z"/>
<rect x="81" y="184.89" class="st0" width="157" height="44"/>
</svg>
