<?xml version="1.0" encoding="utf-8"?>
<!-- Generator: Adobe Illustrator 28.0.0, SVG Export Plug-In . SVG Version: 6.00 Build 0)  -->
<svg version="1.1" id="Ebene_1" xmlns="http://www.w3.org/2000/svg" xmlns:xlink="http://www.w3.org/1999/xlink" x="0px" y="0px"
	 viewBox="0 0 270.97 273.3" style="enable-background:new 0 0 270.97 273.3;" xml:space="preserve">
<style type="text/css">
	.st0{fill:#FF0000;}
	.st1{fill:#FFFFFF;}
</style>
<g>
	<path class="st0" d="M174.66,136.37c15.17,0,29.15,0,43.13,0c6.75,0,13.5,0.16,20.23-0.07c3.28-0.11,4.24,0.86,4.23,4.2
		c-0.13,29.86-0.07,59.71-0.07,89.57c0,7.58,0,15.17,0,22.96c-76.81,0-153.21,0-229.86,0c0-75.65,0-151.28,0-227.45
		c1.48,0,2.93,0,4.39,0c36.48,0,72.95,0,109.43,0c4.89,0,4.89,0.01,4.89,4.84c0,19.11,0,38.23,0,57.34c0,1.21,0,2.43,0,4.39
		c-1.32-0.99-2.12-1.46-2.76-2.09c-2.67-2.63-5.27-5.32-7.93-7.96c-4.55-4.51-6.89-4.53-11.33-0.11
		c-6.72,6.69-13.43,13.4-20.15,20.11c-4.42,4.41-8.75,8.91-13.26,13.22c-3.39,3.24-4.91,7.08-4.77,11.73
		c0.16,5.24,0.18,10.49,0.3,15.73c0.06,2.45-0.74,3.19-3.39,2.74c-11.46-1.92-11.64-2.84-12.55,8.63c-0.27,3.35-0.97,6.67-1.49,10
		c-0.43,2.69,0.52,4.35,3.36,4.75c1.73,0.24,3.42,0.83,5.15,0.92c3.05,0.15,5.02,0.53,6.03,4.41c0.75,2.87,4.14,5.11,6.5,7.48
		c19.55,19.64,39.15,39.23,58.71,58.86c4.23,4.24,6.93,4.4,11.06,0.28c20.59-20.55,41.17-41.11,61.74-61.69
		c3.76-3.77,3.76-6.81,0.01-10.6c-9.47-9.59-18.99-19.15-28.47-28.73C176.96,138.96,176.19,138.05,174.66,136.37z M84.11,39.2
		c4.02,8.45,2.96,11.94-4.84,16.28c-2.93,1.63-6.33,2.5-9.07,4.37c-3.21,2.18-6.83,4.55-8.71,7.75
		c-4.64,7.92,1.46,21.82,11.12,26.13c-0.86-1.53-1.6-2.78-2.27-4.06c-6.19-11.77-4.6-17.89,6.53-25.12
		c3.65-2.38,7.54-4.45,10.95-7.14C94.9,51.83,95.14,44.64,84.11,39.2z M32.59,90.2c2.79-6.92,2.92-7.06,10.76-11.71
		c6.99-4.15,10.56-11.64,9.36-19.65c-0.72-4.79-5.05-9.72-8.64-9.98c0.57,2.62,1.28,5.25,1.71,7.93c1.32,8.21-1.9,14.54-8.22,19.6
		C33.1,79.96,31.37,84.6,32.59,90.2z M51.01,103.25c0.43,1.18,0.58,1.75,0.84,2.27c3.71,7.41,3.01,13.96-2.34,20.03
		c-2.05,2.34-4.38,4.43-6.49,6.72c-3.15,3.43-3.94,7.23-2.83,9.59c2.75-2.83,5.77-5.96,8.8-9.07c2.84-2.92,6.27-5.46,8.41-8.83
		C62.28,116.26,59.38,106.77,51.01,103.25z M36.2,182.21c14.43,9.79,20.82,10.87,27.04,4.47C52.81,190.78,44.52,186.36,36.2,182.21z
		"/>
	<path class="st0" d="M257.66,132.68c-30.15,0-59.95,0-90.67,0c1.12,1.42,1.67,2.28,2.38,3c11.33,11.43,22.68,22.85,34.02,34.27
		c3.6,3.63,3.65,4.04,0.18,7.52c-20.45,20.49-40.94,40.95-61.36,61.47c-2.29,2.3-4.01,2.13-6.26-0.14
		c-17.91-18.1-35.9-36.11-53.87-54.15c-2.91-2.92-5.98-5.69-8.67-8.79c-1.27-1.47-1.64-3.67-2.72-5.35
		c-0.77-1.19-1.89-2.58-3.12-2.94c-2.61-0.76-5.4-0.93-8.12-1.3c-1.98-0.27-2.82-1.29-2.51-3.32c0.68-4.44,1.16-8.91,2.04-13.31
		c0.17-0.84,1.78-1.98,2.73-1.97c2.47,0.01,4.92,0.7,7.4,0.91c4.45,0.38,5.19-0.42,5.12-5.02c-0.09-5.49-0.04-10.99-0.27-16.48
		c-0.17-4.05,1.29-7.16,4.15-9.97c11.03-10.86,21.94-21.84,32.9-32.76c3.28-3.27,4.02-3.26,7.31-0.01
		c5.22,5.17,10.43,10.34,16.39,16.25c0-30.88,0-61.02,0-91.4c41.38,0,82.03,0,122.97,0C257.66,50.1,257.66,91.1,257.66,132.68z
		 M138.79,71.14c0,17.98,0.07,35.96-0.07,53.93c-0.03,3.24,0.83,4.28,4.18,4.27c35.96-0.11,71.91-0.11,107.87-0.01
		c3.13,0.01,4.03-0.97,4.02-4.05c-0.09-36.08-0.09-72.16,0-108.24c0.01-3.06-0.84-4.08-3.99-4.07c-35.96,0.1-71.91,0.1-107.87-0.01
		c-3.31-0.01-4.24,0.96-4.21,4.24C138.87,35.18,138.8,53.16,138.79,71.14z M142.55,132.7c-0.08,1.27-0.23,2.12-0.16,2.96
		c0.65,7.84,1.27,15.68,2.06,23.51c0.54,5.4,3.6,8.34,9,8.74c10.71,0.8,21.43,1.46,32.14,2.25c2.86,0.21,5.74,0.5,8.53,1.11
		c0.94,0.21,1.63,1.54,2.43,2.36c-0.76,0.69-1.42,1.74-2.31,2.01c-1.77,0.53-3.66,0.77-5.52,0.89c-11.71,0.76-23.44,1.4-35.15,2.18
		c-5.63,0.37-8.68,3.4-9.08,8.99c-0.91,12.71-1.63,25.43-2.69,38.12c-0.15,1.82-1.78,3.52-2.72,5.27c-0.88-1.73-2.39-3.4-2.55-5.2
		c-1.12-12.44-1.98-24.9-2.86-37.35c-0.46-6.47-3.32-9.53-9.78-9.99c-10.09-0.73-20.18-1.33-30.27-2.07
		c-3.24-0.24-6.48-0.55-9.66-1.16c-0.99-0.19-1.78-1.46-2.66-2.24c0.84-0.77,1.57-1.89,2.55-2.22c1.62-0.54,3.41-0.69,5.14-0.8
		c11.84-0.77,23.68-1.43,35.52-2.25c5.72-0.39,8.46-3.66,9.14-9.43c2-16.79,1.33-33.63,1.24-50.45c-0.01-1.67-0.78-3.73-1.91-4.94
		c-5.21-5.55-10.74-10.79-16.02-16.28c-1.76-1.83-2.93-1.6-4.59,0.07c-11.08,11.16-22.28,22.19-33.26,33.44
		c-1.41,1.44-2.55,3.93-2.49,5.9c0.46,14.4-0.48,28.68-2.74,42.91c-0.27,1.71,0.7,4.21,1.96,5.49
		c20.24,20.54,40.65,40.9,60.92,61.41c1.97,2,3.09,1.65,4.83-0.1c19.83-19.9,39.68-39.78,59.61-59.58c1.88-1.87,1.86-3.05,0.03-4.88
		c-12.29-12.25-24.5-24.58-36.77-36.85c-0.76-0.76-1.81-1.71-2.75-1.74C155.37,132.62,149.03,132.7,142.55,132.7z M73.14,152.33
		c-10.56-3.49-11.28-3.08-13.04,7.19c-0.08,0.49-0.41,1.11-0.22,1.44c0.63,1.1,1.39,2.93,2.2,2.99c10.36,0.71,9.4,4.05,10.6-7.35
		C72.84,155.24,72.98,153.9,73.14,152.33z"/>
	<path class="st1" d="M84.11,39.2c11.02,5.44,10.78,12.63,3.69,18.21c-3.41,2.68-7.29,4.76-10.95,7.14
		c-11.12,7.23-12.71,13.35-6.53,25.12c0.67,1.28,1.41,2.53,2.27,4.06c-9.66-4.3-15.77-18.21-11.12-26.13
		c1.88-3.2,5.5-5.57,8.71-7.75c2.75-1.86,6.14-2.74,9.07-4.37C87.07,51.14,88.13,47.65,84.11,39.2z"/>
	<path class="st1" d="M32.59,90.2c-1.21-5.59,0.51-10.24,4.96-13.81c6.32-5.06,9.54-11.39,8.22-19.6c-0.43-2.68-1.14-5.32-1.71-7.93
		c3.59,0.26,7.92,5.19,8.64,9.98c1.2,8.01-2.37,15.5-9.36,19.65C35.5,83.13,35.38,83.28,32.59,90.2z"/>
	<path class="st1" d="M51.01,103.25c8.37,3.52,11.28,13,6.39,20.71c-2.13,3.37-5.57,5.91-8.41,8.83c-3.03,3.12-6.06,6.24-8.8,9.07
		c-1.11-2.36-0.32-6.16,2.83-9.59c2.1-2.29,4.43-4.39,6.49-6.72c5.34-6.08,6.05-12.62,2.34-20.03
		C51.58,105.01,51.44,104.44,51.01,103.25z"/>
	<path class="st1" d="M36.2,182.21c8.32,4.16,16.6,8.57,27.04,4.47C57.02,193.08,50.63,191.99,36.2,182.21z"/>
	<path class="st1" d="M138.8,71.14c0-17.98,0.08-35.96-0.07-53.93c-0.03-3.28,0.9-4.25,4.21-4.24c35.96,0.11,71.91,0.1,107.87,0.01
		c3.16-0.01,4,1.02,3.99,4.07c-0.09,36.08-0.09,72.16,0,108.24c0.01,3.08-0.89,4.06-4.02,4.05c-35.96-0.1-71.91-0.1-107.87,0.01
		c-3.35,0.01-4.21-1.03-4.18-4.27C138.87,107.09,138.79,89.11,138.8,71.14z M217.19,66.98c0.34-0.28,0.6-0.53,0.9-0.74
		c7.43-5.21,10.1-13.8,7.33-23.59c-2.05-7.23-8.57-12.17-17.29-12.39c-11.72-0.29-23.45-0.11-35.18-0.21
		c-2.28-0.02-3.02,0.88-3.02,3.11c0.05,24.95,0.05,49.9-0.01,74.85c-0.01,2.46,0.93,3.28,3.31,3.25c6.74-0.09,13.48,0.12,20.21-0.08
		c6.33-0.18,12.77-0.09,18.95-1.24c20.12-3.73,20.76-26.9,12.5-36.87C222.91,70.69,219.94,69.12,217.19,66.98z"/>
	<path class="st1" d="M142.55,132.7c6.49,0,12.82-0.07,19.15,0.08c0.94,0.02,1.99,0.98,2.75,1.74
		c12.27,12.27,24.48,24.6,36.77,36.85c1.83,1.82,1.85,3.01-0.03,4.88c-19.93,19.81-39.78,39.68-59.61,59.58
		c-1.74,1.75-2.86,2.1-4.83,0.1c-20.27-20.5-40.68-40.87-60.92-61.41c-1.26-1.28-2.23-3.78-1.96-5.49
		c2.26-14.23,3.2-28.5,2.74-42.91c-0.06-1.96,1.08-4.46,2.49-5.9c10.98-11.25,22.19-22.28,33.26-33.44c1.66-1.67,2.83-1.9,4.59-0.07
		c5.28,5.49,10.81,10.73,16.02,16.28c1.13,1.2,1.9,3.26,1.91,4.94c0.09,16.83,0.76,33.67-1.24,50.45c-0.69,5.78-3.43,9.04-9.14,9.43
		c-11.84,0.81-23.68,1.48-35.52,2.25c-1.73,0.11-3.52,0.26-5.14,0.8c-0.99,0.33-1.71,1.45-2.55,2.22c0.88,0.78,1.67,2.05,2.66,2.24
		c3.18,0.61,6.43,0.92,9.66,1.16c10.09,0.73,20.18,1.34,30.27,2.07c6.46,0.46,9.32,3.52,9.78,9.99c0.88,12.46,1.75,24.92,2.86,37.35
		c0.16,1.79,1.67,3.47,2.55,5.2c0.94-1.75,2.57-3.45,2.72-5.27c1.06-12.69,1.78-25.41,2.69-38.12c0.4-5.58,3.45-8.61,9.08-8.99
		c11.71-0.78,23.43-1.42,35.15-2.18c1.86-0.12,3.75-0.36,5.52-0.89c0.89-0.27,1.55-1.31,2.31-2.01c-0.8-0.82-1.49-2.15-2.43-2.36
		c-2.79-0.61-5.67-0.9-8.53-1.11c-10.71-0.79-21.43-1.45-32.14-2.25c-5.39-0.4-8.45-3.34-9-8.74c-0.79-7.83-1.4-15.67-2.06-23.51
		C142.32,134.82,142.47,133.97,142.55,132.7z M80.13,145.51c1.65-1.08,2.42-1.43,2.99-1.99c8.5-8.45,17.05-16.85,25.35-25.49
		c1.39-1.44,2.16-3.94,2.3-6.02c0.34-4.72,0.14-9.48,0.09-14.22c-0.01-0.99-0.29-1.99-0.54-3.57c-1.27,1-1.99,1.45-2.57,2.03
		c-6.55,6.5-12.73,13.44-19.73,19.41c-6.27,5.36-9.14,11.36-7.96,19.52C80.5,138.28,80.13,141.49,80.13,145.51z"/>
	<path class="st1" d="M73.14,152.33c-0.17,1.57-0.31,2.92-0.45,4.26c-1.2,11.4-0.24,8.07-10.6,7.35c-0.81-0.06-1.57-1.89-2.2-2.99
		c-0.19-0.33,0.14-0.95,0.22-1.44C61.86,149.25,62.58,148.83,73.14,152.33z"/>
	<path class="st0" d="M217.19,66.98c2.76,2.14,5.72,3.71,7.71,6.11c8.26,9.97,7.62,33.14-12.5,36.87
		c-6.18,1.15-12.62,1.06-18.95,1.24c-6.73,0.19-13.47-0.02-20.21,0.08c-2.38,0.03-3.32-0.79-3.31-3.25
		c0.06-24.95,0.06-49.9,0.01-74.85c0-2.23,0.74-3.13,3.02-3.11c11.73,0.1,23.46-0.08,35.18,0.21c8.73,0.21,15.25,5.16,17.29,12.39
		c2.77,9.79,0.1,18.38-7.33,23.59C217.79,66.45,217.52,66.7,217.19,66.98z M195.67,74.26c0-0.03,0-0.05,0-0.08
		c-3.5,0-7,0.07-10.49-0.03c-1.93-0.05-2.71,0.72-2.7,2.62c0.03,6.74-0.06,13.49,0.1,20.23c0.02,0.86,1.24,2.43,1.91,2.44
		c7.61,0.06,15.26,0.32,22.82-0.37c6.52-0.59,10.04-5.85,9.78-12.88c-0.26-7.07-4.14-11.43-10.92-11.89
		C202.68,74.06,199.17,74.26,195.67,74.26z M195.09,41.6c-3.37,0-6.75-0.17-10.09,0.11c-0.89,0.07-2.36,1.47-2.39,2.31
		c-0.21,5.73-0.22,11.47-0.01,17.2c0.03,0.88,1.46,2.42,2.28,2.44c6.6,0.18,13.23,0.34,19.82-0.03c5.94-0.33,9.13-4.98,8.92-12.03
		c-0.2-6.58-3.2-9.76-9.54-9.99C201.08,41.51,198.09,41.6,195.09,41.6z"/>
	<path class="st0" d="M80.13,145.51c0-4.02,0.37-7.23-0.07-10.31c-1.18-8.17,1.69-14.17,7.96-19.52c7-5.98,13.18-12.91,19.73-19.41
		c0.59-0.58,1.3-1.03,2.57-2.03c0.25,1.58,0.53,2.57,0.54,3.57c0.05,4.74,0.25,9.5-0.09,14.22c-0.15,2.08-0.92,4.58-2.3,6.02
		c-8.3,8.64-16.85,17.03-25.35,25.49C82.55,144.08,81.78,144.43,80.13,145.51z"/>
	<path class="st1" d="M195.67,74.26c3.5,0,7.01-0.2,10.49,0.04c6.78,0.46,10.67,4.82,10.92,11.89c0.26,7.03-3.27,12.29-9.78,12.88
		c-7.56,0.69-15.21,0.43-22.82,0.37c-0.67-0.01-1.89-1.57-1.91-2.44c-0.16-6.74-0.06-13.49-0.1-20.23c-0.01-1.9,0.77-2.67,2.7-2.62
		c3.49,0.09,6.99,0.03,10.49,0.03C195.67,74.2,195.67,74.23,195.67,74.26z"/>
	<path class="st1" d="M195.09,41.6c2.99,0,5.99-0.09,8.98,0.02c6.34,0.23,9.34,3.41,9.54,9.99c0.22,7.04-2.98,11.7-8.92,12.03
		c-6.59,0.36-13.22,0.21-19.82,0.03c-0.82-0.02-2.25-1.56-2.28-2.44c-0.2-5.73-0.2-11.47,0.01-17.2c0.03-0.83,1.5-2.23,2.39-2.31
		C188.35,41.43,191.73,41.6,195.09,41.6z"/>
</g>
</svg>
