<?xml version="1.0" encoding="utf-8"?>
<!-- Generator: Adobe Illustrator 28.0.0, SVG Export Plug-In . SVG Version: 6.00 Build 0)  -->
<svg version="1.1" id="Ebene_1" xmlns="http://www.w3.org/2000/svg" xmlns:xlink="http://www.w3.org/1999/xlink" x="0px" y="0px"
	 viewBox="0 0 270.97 273.3" style="enable-background:new 0 0 270.97 273.3;" xml:space="preserve">
<style type="text/css">
	.st0{fill:#FF0000;}
	.st1{fill:#FFFFFF;}
</style>
<g>
	<path class="st0" d="M135.66,16.14c66.35,0.01,119.47,53.58,119.44,120.45c-0.03,65.97-53.79,119.03-120.53,119
		C69.3,255.55,15.15,201.58,15.57,134.97C15.99,69.35,69.45,16.13,135.66,16.14z M135.21,179.47c24.06,0.04,43.72-19.43,43.77-43.36
		c0.06-24.1-19.36-43.78-43.27-43.86c-24.27-0.08-43.92,19.39-43.94,43.53C91.75,159.82,111.25,179.43,135.21,179.47z"/>
	<path class="st1" d="M135.21,179.47c-23.96-0.04-43.46-19.64-43.44-43.68c0.02-24.14,19.68-43.61,43.94-43.53
		c23.91,0.08,43.33,19.76,43.27,43.86C178.93,160.03,159.27,179.5,135.21,179.47z"/>
</g>
</svg>
