<?xml version="1.0" encoding="utf-8"?>
<!-- Generator: Adobe Illustrator 28.0.0, SVG Export Plug-In . SVG Version: 6.00 Build 0)  -->
<svg version="1.1" id="Ebene_1" xmlns="http://www.w3.org/2000/svg" xmlns:xlink="http://www.w3.org/1999/xlink" x="0px" y="0px"
	 viewBox="0 0 270.97 273.3" style="enable-background:new 0 0 270.97 273.3;" xml:space="preserve">
<style type="text/css">
	.st0{fill:#FF0000;}
	.st1{fill:#FFFFFF;}
</style>
<g>
	<path class="st0" d="M257.58,158.07c0,34.56,0,69.12,0,103.68c-80.94,0-161.88,0-242.81,0c0-82.71,0-165.42,0-248.13
		c32.59,0,65.18,0,97.78,0c-0.03,0.64-0.08,1.28-0.08,1.91c0,21.36,0,42.72,0,64.09c0,25.5,0.01,50.99-0.03,76.49
		c0,1.36,0.28,1.88,1.77,1.88c14.91,0.04,29.83,0.22,44.74,0.23c31.5,0.01,63-0.06,94.5-0.1
		C254.82,158.12,256.2,158.09,257.58,158.07z M164.27,202.61c-0.41,0.49-0.66,0.78-0.91,1.08c-1.94,2.41-3.75,4.95-5.85,7.21
		c-11.6,12.48-26,18.75-43,18.98c-9.63,0.13-18.83-1.99-27.66-5.78c-6.22-2.67-11.93-6.13-16.41-11.28
		c-9.95-11.44-16.48-24.47-18.34-39.69c-1.42-11.61,0.48-22.54,6.27-32.73c5.5-9.68,13.13-17.39,22.29-23.62
		c1.18-0.8,1.28-1.39,0.56-2.57c-3.81-6.2-7.53-12.46-11.3-18.69c-0.29-0.48-0.66-0.93-1.15-1.6c-4.33,3.26-8.52,6.41-12.81,9.64
		c2.49,3.19,4.86,6.23,7.01,8.99c-4.34,5.05-8.46,9.84-12.57,14.63c-3.07-2.29-6.05-4.5-9.06-6.74c-0.36,0.46-0.52,0.64-0.65,0.85
		c-5.23,8.59-9,17.79-11.63,27.48c-0.24,0.9,0.1,1.2,0.92,1.44c2.5,0.73,4.99,1.51,7.45,2.36c2.37,0.82,2.32,0.87,1.99,3.37
		c-0.91,6.9-1.19,13.82-0.85,20.77c0.05,0.99-0.14,1.39-1.21,1.48c-2.94,0.24-5.86,0.63-8.8,0.91c-1.06,0.1-1.41,0.42-1.19,1.59
		c1.8,9.46,4.79,18.54,8.68,27.34c0.57,1.29,1.22,1.52,2.47,0.99c2.67-1.13,5.39-2.14,8.08-3.22c0.69-0.28,1.18-0.26,1.6,0.46
		c3.55,6.03,8.4,11.02,13.03,16.18c0.79,0.89,0.78,1.51,0.09,2.39c-1.75,2.25-3.41,4.58-5.18,6.81c-0.74,0.94-0.57,1.45,0.35,2.12
		c1.84,1.32,3.57,2.78,5.38,4.14c5.3,3.96,10.92,7.36,17.09,9.83c1.18,0.47,1.76,0.3,2.16-0.95c0.62-1.91,1.36-3.8,2.12-5.66
		c0.49-1.2,1.12-2.34,1.7-3.53c6.48,2.99,13.11,4.3,19.89,4.95c1.04,0.1,1.17,0.63,1.12,1.48c-0.17,3.05-0.29,6.09-0.48,9.14
		c-0.07,1.05,0.22,1.49,1.36,1.52c9.03,0.19,18-0.29,26.85-2.21c3.93-0.86,3.3-0.09,2.6-4.13c-0.47-2.69-1.18-5.34-1.79-8.06
		c5.55-2.58,11.02-5.15,16.53-7.64c0.39-0.17,1.26,0.1,1.55,0.45c1.83,2.25,3.58,4.57,5.31,6.9c1.27,1.71,1.24,1.74,3.04,0.57
		c7.29-4.76,13.37-10.81,18.78-17.58c1.59-1.98,3.11-4.02,4.81-6.22C177.66,211.96,170.99,207.3,164.27,202.61z M128.82,182.63
		c-0.28,0.09-0.44,0.11-0.55,0.19c-0.35,0.27-0.69,0.55-1.02,0.84c-4.11,3.65-8.71,5.8-14.41,5.76
		c-15.19-0.11-24.94-15.36-19.11-29.34c2.59-6.2,7.74-9.62,14.01-11.46c0.98-0.29,1.31-0.68,1.31-1.7
		c-0.03-7.23,0.01-14.47,0.01-21.7c0-3.71-0.04-3.78-3.66-3.17c-9.39,1.59-17.76,5.31-24.62,12.09
		c-11.07,10.96-16.51,24.08-14.76,39.73c1.37,12.29,6.89,22.52,16.31,30.62c16.12,13.86,40.3,15.62,57.32,2.86
		c2.1-1.58,4.15-3.23,6.41-4.99C140.17,195.61,134.48,189.1,128.82,182.63z M81.82,72.9c0,0,0.01,0,0.01,0
		c0-3.25,0.04-6.5-0.01-9.74c-0.07-3.89-0.99-7.59-2.79-11.05c-3.01-5.79-7.73-10.14-12.33-14.58c-0.53-0.51-1.36-0.81-2.1-0.99
		c-1.62-0.41-2.62,0.38-2.56,2.05c0.05,1.37,0.41,2.74,0.41,4.1c-0.04,6.25-0.28,12.5-0.2,18.74c0.04,3.57,0.23,7.19,0.91,10.69
		c1,5.1,3.88,9.42,6.71,13.69c3.5,5.29,7.05,10.54,10.59,15.8c0.19,0.28,0.42,0.56,0.69,0.76c1.03,0.76,2.11,0.42,2.26-0.83
		c0.16-1.3,0.17-2.66,0.01-3.96c-0.47-3.8-1.3-7.58-1.54-11.39C81.61,81.76,81.82,77.32,81.82,72.9z M107.7,112.92
		c1.45-2.68,1.82-5.39,1.96-8.13c0.33-6.46-1.12-12.57-3.62-18.5c-1.66-3.93-3.33-7.88-4.56-11.96c-1.46-4.85-1.48-9.7,1.63-14.13
		c0.46-0.66,0.66-1.53,0.86-2.33c0.25-0.99-0.18-1.69-1.11-2.14c-0.92-0.45-1.66-0.37-2.36,0.43c-1.14,1.29-2.36,2.51-3.51,3.79
		c-3.31,3.69-6.29,7.6-7.4,12.57c-2.17,9.7-0.29,18.59,5.79,26.44c3.34,4.31,7,8.37,10.54,12.51
		C106.37,111.99,107.02,112.37,107.7,112.92z M47.92,110.52c-0.05-0.94-0.04-1.76-0.14-2.56c-0.36-2.89-1.83-5.26-3.6-7.48
		c-2.11-2.65-3.61-5.61-4.68-8.81c-1.78-5.36-1.41-10.87-1.31-16.38c0.07-4.17,0.21-8.38-0.23-12.52c-0.26-2.51-1.46-4.95-2.44-7.34
		c-0.65-1.6-2.15-0.94-3.37-0.8c-1.18,0.13-1,1.05-1.13,1.88c-0.48,3.2-0.82,6.45-1.63,9.57c-1.7,6.51-4.27,12.77-5.23,19.48
		c-0.41,2.83-1.03,5.64,0.56,8.34c3.71,6.29,8.53,11.41,15.2,14.59C42.36,109.66,44.93,110.44,47.92,110.52z M142.72,188.56
		c0.23,0.4,0.31,0.79,0.55,0.94c1.88,1.15,3.66,2.56,5.69,3.33c9.45,3.58,21.43-0.43,26.91-8.94c2.54-3.95,3.75-8.31,2.22-12.92
		c-1.84-5.55-6.22-8.14-11.7-9.06c-2.29-0.39-2.39-0.18-2.4,2.17c0,0.54,0.04,1.08,0.01,1.62c-0.15,2.74,0.04,5.55-0.53,8.2
		c-1.64,7.6-6.99,11.52-14.17,13.35C147.2,187.79,145.03,188.11,142.72,188.56z"/>
	<path class="st0" d="M114.9,13.63c47.53,0,95.07,0,142.68,0c0,47.36,0,94.72,0,142.08c-1.08,0.06-2.15,0.18-3.23,0.18
		c-45.72,0.01-91.44,0-137.16,0.01c-2.32,0-2.33,0.01-2.33-2.31c0-45.43,0-90.85,0-136.28C114.86,16.09,114.89,14.86,114.9,13.63z
		 M254.68,153.18c0-0.91,0-1.63,0-2.36c0-44.11,0-88.22,0-132.32c0-2.54,0.19-2.24-2.19-2.24c-44.16-0.01-88.31-0.01-132.47,0
		c-2.7,0-2.47-0.38-2.47,2.41c0,44.06,0,88.12,0,132.18c0,2.33,0,2.33,2.32,2.33c44.4,0,88.81,0,133.21,0
		C253.5,153.18,253.94,153.18,254.68,153.18z"/>
	<path class="st1" d="M114.9,13.63c-0.02,1.23-0.04,2.46-0.04,3.69c0,45.43,0,90.85,0,136.28c0,2.31,0,2.31,2.33,2.31
		c45.72,0,91.44,0,137.16-0.01c1.08,0,2.15-0.12,3.23-0.18c0,0.79,0,1.58,0,2.36c-1.38,0.02-2.75,0.05-4.13,0.05
		c-31.5,0.04-63,0.11-94.5,0.1c-14.91,0-29.83-0.19-44.74-0.23c-1.49,0-1.77-0.53-1.77-1.88c0.03-25.5,0.03-50.99,0.03-76.49
		c0-21.36,0-42.72,0-64.09c0-0.64,0.05-1.28,0.08-1.91C113.33,13.63,114.11,13.63,114.9,13.63z"/>
	<path class="st1" d="M164.27,202.61c6.72,4.69,13.4,9.35,20.27,14.14c-1.7,2.2-3.22,4.24-4.81,6.22
		c-5.41,6.77-11.49,12.82-18.78,17.58c-1.8,1.17-1.77,1.14-3.04-0.57c-1.73-2.33-3.48-4.65-5.31-6.9c-0.29-0.36-1.16-0.63-1.55-0.45
		c-5.51,2.49-10.98,5.06-16.53,7.64c0.61,2.72,1.32,5.37,1.79,8.06c0.71,4.04,1.34,3.27-2.6,4.13c-8.85,1.93-17.82,2.4-26.85,2.21
		c-1.14-0.02-1.43-0.47-1.36-1.52c0.19-3.04,0.31-6.09,0.48-9.14c0.05-0.85-0.08-1.38-1.12-1.48c-6.78-0.65-13.41-1.97-19.89-4.95
		c-0.58,1.19-1.21,2.33-1.7,3.53c-0.77,1.86-1.5,3.74-2.12,5.66c-0.41,1.25-0.98,1.43-2.16,0.95c-6.17-2.47-11.79-5.87-17.09-9.83
		c-1.81-1.35-3.55-2.81-5.38-4.14c-0.92-0.66-1.09-1.18-0.35-2.12c1.77-2.24,3.43-4.56,5.18-6.81c0.69-0.88,0.7-1.5-0.09-2.39
		c-4.62-5.16-9.47-10.15-13.03-16.18c-0.42-0.72-0.91-0.73-1.6-0.46c-2.69,1.08-5.41,2.09-8.08,3.22c-1.25,0.53-1.9,0.29-2.47-0.99
		c-3.89-8.8-6.87-17.88-8.68-27.34c-0.22-1.17,0.13-1.49,1.19-1.59c2.94-0.28,5.86-0.67,8.8-0.91c1.07-0.09,1.26-0.49,1.21-1.48
		c-0.34-6.95-0.06-13.87,0.85-20.77c0.33-2.5,0.38-2.55-1.99-3.37c-2.46-0.85-4.95-1.63-7.45-2.36c-0.82-0.24-1.17-0.53-0.92-1.44
		c2.62-9.69,6.39-18.9,11.63-27.48c0.13-0.21,0.29-0.39,0.65-0.85c3.01,2.24,5.98,4.45,9.06,6.74c4.11-4.78,8.23-9.58,12.57-14.63
		c-2.15-2.76-4.52-5.79-7.01-8.99c4.3-3.23,8.48-6.38,12.81-9.64c0.49,0.68,0.85,1.12,1.15,1.6c3.76,6.23,7.49,12.48,11.3,18.69
		c0.72,1.17,0.62,1.76-0.56,2.57c-9.16,6.23-16.79,13.93-22.29,23.62c-5.79,10.19-7.68,21.13-6.27,32.73
		c1.86,15.22,8.39,28.25,18.34,39.69c4.48,5.15,10.19,8.61,16.41,11.28c8.83,3.79,18.03,5.91,27.66,5.78c17-0.23,31.4-6.5,43-18.98
		c2.1-2.26,3.91-4.8,5.85-7.21C163.6,203.39,163.85,203.1,164.27,202.61z"/>
	<path class="st1" d="M128.82,182.63c5.66,6.48,11.34,12.98,17.24,19.73c-2.25,1.76-4.3,3.41-6.41,4.99
		c-17.02,12.76-41.21,11-57.32-2.86c-9.42-8.1-14.93-18.33-16.31-30.62c-1.75-15.65,3.69-28.77,14.76-39.73
		c6.85-6.78,15.22-10.5,24.62-12.09c3.62-0.61,3.66-0.54,3.66,3.17c0,7.23-0.04,14.47-0.01,21.7c0,1.02-0.32,1.41-1.31,1.7
		c-6.28,1.83-11.43,5.26-14.01,11.46c-5.83,13.98,3.91,29.22,19.11,29.34c5.69,0.04,10.3-2.11,14.41-5.76
		c0.33-0.29,0.67-0.57,1.02-0.84C128.38,182.73,128.54,182.72,128.82,182.63z"/>
	<path class="st1" d="M81.82,72.9c0,4.42-0.21,8.86,0.06,13.27c0.24,3.81,1.07,7.59,1.54,11.39c0.16,1.3,0.15,2.66-0.01,3.96
		c-0.16,1.25-1.24,1.59-2.26,0.83c-0.27-0.2-0.5-0.48-0.69-0.76c-3.54-5.26-7.09-10.51-10.59-15.8c-2.83-4.27-5.71-8.59-6.71-13.69
		c-0.68-3.49-0.87-7.12-0.91-10.69c-0.07-6.25,0.17-12.5,0.2-18.74c0.01-1.37-0.36-2.73-0.41-4.1c-0.06-1.67,0.94-2.46,2.56-2.05
		c0.74,0.19,1.57,0.48,2.1,0.99c4.6,4.44,9.32,8.79,12.33,14.58c1.8,3.46,2.72,7.16,2.79,11.05c0.06,3.25,0.01,6.5,0.01,9.74
		C81.82,72.9,81.82,72.9,81.82,72.9z"/>
	<path class="st1" d="M107.7,112.92c-0.68-0.55-1.33-0.93-1.78-1.47c-3.54-4.15-7.2-8.2-10.54-12.51
		c-6.08-7.85-7.96-16.74-5.79-26.44c1.11-4.96,4.09-8.88,7.4-12.57c1.15-1.28,2.37-2.5,3.51-3.79c0.71-0.8,1.44-0.88,2.36-0.43
		c0.93,0.46,1.36,1.16,1.11,2.14c-0.2,0.8-0.39,1.67-0.86,2.33c-3.11,4.43-3.09,9.28-1.63,14.13c1.23,4.08,2.91,8.03,4.56,11.96
		c2.5,5.93,3.94,12.04,3.62,18.5C109.52,107.53,109.15,110.24,107.7,112.92z"/>
	<path class="st1" d="M47.92,110.52c-3-0.08-5.56-0.86-8.01-2.03c-6.67-3.18-11.5-8.3-15.2-14.59c-1.59-2.7-0.96-5.51-0.56-8.34
		c0.96-6.71,3.54-12.98,5.23-19.48c0.81-3.12,1.15-6.37,1.63-9.57c0.13-0.84-0.05-1.75,1.13-1.88c1.22-0.14,2.72-0.8,3.37,0.8
		c0.97,2.39,2.17,4.83,2.44,7.34c0.44,4.13,0.3,8.34,0.23,12.52c-0.1,5.51-0.47,11.02,1.31,16.38c1.07,3.2,2.57,6.16,4.68,8.81
		c1.77,2.22,3.24,4.59,3.6,7.48C47.89,108.76,47.88,109.58,47.92,110.52z"/>
	<path class="st1" d="M142.72,188.56c2.3-0.45,4.47-0.77,6.59-1.31c7.17-1.83,12.53-5.75,14.17-13.35c0.57-2.65,0.39-5.46,0.53-8.2
		c0.03-0.54-0.02-1.08-0.01-1.62c0.02-2.35,0.11-2.56,2.4-2.17c5.48,0.93,9.86,3.51,11.7,9.06c1.53,4.62,0.32,8.97-2.22,12.92
		c-5.48,8.51-17.46,12.52-26.91,8.94c-2.03-0.77-3.82-2.18-5.69-3.33C143.04,189.35,142.95,188.96,142.72,188.56z"/>
	<path class="st1" d="M254.68,153.18c-0.74,0-1.18,0-1.62,0c-44.4,0-88.81,0-133.21,0c-2.32,0-2.32,0-2.32-2.33
		c0-44.06,0-88.12,0-132.18c0-2.8-0.23-2.41,2.47-2.41c44.16-0.01,88.31-0.01,132.47,0c2.39,0,2.19-0.3,2.19,2.24
		c0,44.11,0,88.22,0,132.32C254.68,151.55,254.68,152.28,254.68,153.18z M148.45,91.62c0,13.93,0,27.86,0,41.79
		c0,2.57-0.27,2.34,2.41,2.34c9.3,0.01,18.6,0.03,27.91-0.01c3.05-0.02,6.11-0.09,9.14-0.37c5.63-0.53,11.07-1.87,15.94-4.89
		c6.53-4.05,10.79-9.99,13.47-17.07c4.83-12.75,5.04-25.77,1.73-38.88c-1.78-7.05-5.24-13.22-10.63-18.24
		c-6.3-5.86-13.99-8.11-22.31-8.3c-11.91-0.26-23.82-0.2-35.73-0.27c-1.91-0.01-1.92,0.01-1.92,1.96
		C148.45,63.67,148.45,77.65,148.45,91.62z"/>
	<path class="st0" d="M148.45,91.62c0-13.98,0-27.96,0-41.93c0-1.95,0.01-1.97,1.92-1.96c11.91,0.07,23.82,0.01,35.73,0.27
		c8.32,0.18,16.02,2.44,22.31,8.3c5.39,5.01,8.85,11.19,10.63,18.24c3.31,13.1,3.1,26.12-1.73,38.88
		c-2.68,7.08-6.94,13.02-13.47,17.07c-4.87,3.02-10.31,4.36-15.94,4.89c-3.03,0.29-6.09,0.36-9.14,0.37
		c-9.3,0.05-18.6,0.02-27.91,0.01c-2.69,0-2.41,0.23-2.41-2.34C148.45,119.48,148.45,105.55,148.45,91.62z M160.08,91.71
		c0,10.58,0,21.16,0,31.74c0,1.99,0,1.99,2.05,1.99c5.27,0,10.53,0.07,15.8-0.03c3.34-0.07,6.69-0.24,10-0.64
		c8.51-1.03,14.37-5.61,17.71-13.51c2.07-4.92,3.06-10.05,3.36-15.34c0.42-7.31,0.32-14.63-2.32-21.56
		c-2.91-7.63-7.8-13.47-16.24-15.26c-2.72-0.58-5.56-0.81-8.35-0.86c-6.74-0.13-13.48-0.01-20.23-0.09
		c-1.41-0.02-1.83,0.37-1.82,1.8C160.11,70.55,160.08,81.13,160.08,91.71z"/>
	<path class="st1" d="M160.08,91.71c0-10.58,0.03-21.16-0.03-31.74c-0.01-1.43,0.41-1.82,1.82-1.8c6.74,0.08,13.49-0.04,20.23,0.09
		c2.79,0.05,5.62,0.28,8.35,0.86c8.44,1.79,13.33,7.62,16.24,15.26c2.64,6.93,2.73,14.25,2.32,21.56
		c-0.3,5.29-1.29,10.42-3.36,15.34c-3.33,7.91-9.2,12.48-17.71,13.51c-3.31,0.4-6.67,0.57-10,0.64c-5.26,0.1-10.53,0.03-15.8,0.03
		c-2.05,0-2.05,0-2.05-1.99C160.08,112.87,160.08,102.29,160.08,91.71z"/>
</g>
</svg>
