<?xml version="1.0" encoding="utf-8"?>
<!-- Generator: Adobe Illustrator 28.0.0, SVG Export Plug-In . SVG Version: 6.00 Build 0)  -->
<svg version="1.1" id="Ebene_1" xmlns="http://www.w3.org/2000/svg" xmlns:xlink="http://www.w3.org/1999/xlink" x="0px" y="0px"
	 viewBox="0 0 270.97 273.3" style="enable-background:new 0 0 270.97 273.3;" xml:space="preserve">
<style type="text/css">
	.st0{fill:#FF0000;}
	.st1{fill:#FFFFFF;}
</style>
<g>
	<path class="st0" d="M257.85,259.29c-82.3,0-164.48,0-246.79,0c0-82.22,0-164.34,0-246.62c82.22,0,164.44,0,246.79,0
		C257.85,94.82,257.85,176.94,257.85,259.29z M154.09,197.85c0.08-0.21,0.16-0.43,0.24-0.64c-2.67-2.63-5.27-5.34-8.04-7.86
		c-1.41-1.28-1.89-2.64-1.89-4.52c0.05-44.87,0.04-89.73,0.05-134.6c0-1.47,0.06-2.52-2.06-2.51c-31.31,0.07-62.61,0.06-93.92,0.02
		c-1.72,0-2.35,0.44-2.35,2.27c0.05,46.34,0.04,92.69,0.01,139.03c0,1.53,0.44,2.25,1.94,2.78c21.59,7.5,43.15,15.06,64.71,22.63
		c1.33,0.47,1.81,0.16,1.8-1.24c-0.03-4.31-0.01-8.63-0.01-12.94c0-2.4,0-2.41,2.45-2.41c11.65-0.01,23.3,0,34.94,0
		C152.67,197.85,153.38,197.85,154.09,197.85z M171.66,119.65c-0.15,0.07-0.31,0.15-0.46,0.22c-0.05,0.6-0.16,1.19-0.15,1.79
		c0.04,2.46-0.16,4.96,0.23,7.37c2.42,14.94,10.11,26.8,21.84,36.05c8.38,6.62,18.49,9.6,28.54,12.58c0.26,0.08,0.58-0.03,0.82-0.05
		c0.08-0.14,0.13-0.2,0.13-0.25c0.05-7.44,0.11-14.89,0.07-22.33c0-0.38-0.88-0.98-1.44-1.09c-2.04-0.43-4.19-0.45-6.17-1.06
		c-17.78-5.5-31.79-16.08-42.15-31.53C172.53,120.76,172.08,120.22,171.66,119.65z M165.48,84.09c0.73,0.69,1.18,1.06,1.56,1.49
		c1.59,1.78,3.21,3.54,4.74,5.37c2.4,2.87,2.86,6.5,3.7,9.94c1.91,7.88,4.29,15.58,8.47,22.57c3.2,5.35,6.79,10.37,12.18,13.9
		c7.42,4.85,15.31,6.93,24.07,4.86c0.62-0.15,1.22-0.39,2.16-0.7c-0.68-0.44-1.01-0.68-1.37-0.87c-5.86-3.2-10.98-7.33-14.85-12.8
		c-5.46-7.73-9.8-16.12-13.17-24.94c-2.67-6.99-7.28-12.19-13.34-16.3C175.46,83.76,170.84,83.22,165.48,84.09z M153.68,165.56
		c1.45,0.4,2.32,0.66,3.19,0.89c5.9,1.53,10.85,4.62,14.82,9.22c2.45,2.84,4.77,5.8,7.08,8.75c10.66,13.58,27.67,13.96,37.44,9.26
		c2.21-1.06,4.18-2.64,6.26-3.97c-0.07-0.19-0.13-0.38-0.2-0.57c-2.68-0.84-5.36-1.67-8.03-2.52c-8.27-2.65-15.37-7.02-21.16-13.61
		c-2.41-2.75-5.23-5.21-8.17-7.41c-6.66-4.97-14.04-6.88-22.28-4.53C159.53,161.97,156.68,163.22,153.68,165.56z M171.9,189.99
		c-0.2,0.12-0.39,0.24-0.59,0.36c0.8,2.81,1.52,5.66,2.43,8.44c4.19,12.82,12.34,21.36,25.99,23.98c6.95,1.33,13.95,1.4,20.98,1.34
		c1.64-0.01,2.09-0.62,2.07-2.19c-0.07-6.41-0.02-12.82-0.03-19.22c0-0.58-0.1-1.16-0.18-2.06c-9.05,2.47-17.96,3.96-27.02,1.79
		C186.66,200.29,178.24,197.14,171.9,189.99z M222.41,130.88c0.2-0.86,0.32-1.14,0.32-1.43c0.02-7.2,0.05-14.4-0.03-21.6
		c-0.01-0.57-0.71-1.38-1.28-1.65c-4.18-1.94-7.59-4.75-10.19-8.55c-4.67-6.82-7.83-14.34-10.46-22.12
		c-0.22-0.66-0.48-1.32-0.72-1.97c-0.2,0.03-0.4,0.06-0.6,0.08c-2.24,9.85-3.48,19.83-0.11,29.66
		C203.41,115.21,212.27,123.32,222.41,130.88z"/>
	<path class="st1" d="M154.09,197.85c-0.71,0-1.42,0-2.12,0c-11.65,0-23.3,0-34.94,0c-2.45,0-2.45,0.01-2.45,2.41
		c0,4.31-0.02,8.63,0.01,12.94c0.01,1.4-0.47,1.7-1.8,1.24c-21.56-7.57-43.13-15.13-64.71-22.63c-1.5-0.52-1.95-1.24-1.94-2.78
		c0.04-46.34,0.04-92.69-0.01-139.03c0-1.83,0.63-2.27,2.35-2.27c31.31,0.04,62.61,0.05,93.92-0.02c2.13,0,2.06,1.04,2.06,2.51
		c-0.02,44.87-0.01,89.73-0.05,134.6c0,1.87,0.48,3.24,1.89,4.52c2.77,2.52,5.37,5.23,8.04,7.86
		C154.25,197.42,154.17,197.63,154.09,197.85z M109.36,207.72c0-1.18,0-1.91,0-2.63c0-43.08-0.02-86.15,0.04-129.23
		c0-1.92-0.54-2.79-2.38-3.43c-17.87-6.18-35.71-12.45-53.56-18.7c-0.6-0.21-1.22-0.35-2.07-0.59c0,1.11,0,1.9,0,2.7
		c0,42.89,0,85.78,0,128.67c0,3.01,0.01,2.97,2.84,3.96c14.54,5.08,29.07,10.17,43.6,15.26
		C101.55,205.03,105.26,206.3,109.36,207.72z M127.36,155.79c0.16,0.02,0.31,0.03,0.47,0.05c3.62-6.78,7.26-13.55,10.8-20.38
		c0.27-0.52,0.1-1.59-0.28-2.08c-3.17-4.08-6.44-8.09-9.66-12.13c-0.29-0.36-0.43-0.84-0.64-1.27c-0.23,0.15-0.45,0.3-0.68,0.45
		c0,2.69-0.11,5.38,0.04,8.05c0.1,1.75-0.61,2.45-2.22,2.63c-3.05,0.33-6.1,0.76-9.16,1.04c-1.08,0.1-1.51,0.47-1.5,1.57
		c0.04,4,0.06,8-0.01,12c-0.02,1.36,0.53,1.73,1.76,1.6c2.94-0.31,5.88-0.54,8.81-0.88c2.23-0.25,2.26-0.27,2.27,2.04
		C127.37,150.92,127.36,153.36,127.36,155.79z"/>
	<path class="st1" d="M171.66,119.65c0.42,0.57,0.88,1.11,1.27,1.7c10.36,15.44,24.37,26.03,42.15,31.53
		c1.97,0.61,4.12,0.63,6.17,1.06c0.55,0.12,1.43,0.71,1.44,1.09c0.04,7.44-0.02,14.88-0.07,22.33c0,0.05-0.06,0.11-0.13,0.25
		c-0.24,0.02-0.56,0.13-0.82,0.05c-10.05-2.98-20.16-5.96-28.54-12.58c-11.73-9.26-19.42-21.12-21.84-36.05
		c-0.39-2.41-0.19-4.91-0.23-7.37c-0.01-0.59,0.1-1.19,0.15-1.79C171.35,119.8,171.5,119.72,171.66,119.65z"/>
	<path class="st1" d="M165.48,84.09c5.36-0.87,9.98-0.32,14.17,2.52c6.06,4.1,10.66,9.31,13.34,16.3
		c3.37,8.82,7.71,17.21,13.17,24.94c3.86,5.46,8.98,9.59,14.85,12.8c0.35,0.19,0.68,0.43,1.37,0.87c-0.94,0.31-1.54,0.56-2.16,0.7
		c-8.77,2.07-16.65-0.02-24.07-4.86c-5.39-3.52-8.98-8.54-12.18-13.9c-4.18-7-6.56-14.7-8.47-22.57c-0.84-3.45-1.3-7.08-3.7-9.94
		c-1.53-1.83-3.15-3.59-4.74-5.37C166.66,85.15,166.21,84.78,165.48,84.09z"/>
	<path class="st1" d="M153.68,165.56c3-2.33,5.85-3.59,8.96-4.48c8.24-2.35,15.62-0.44,22.28,4.53c2.94,2.19,5.76,4.66,8.17,7.41
		c5.79,6.58,12.89,10.96,21.16,13.61c2.67,0.85,5.35,1.68,8.03,2.52c0.07,0.19,0.13,0.38,0.2,0.57c-2.08,1.34-4.05,2.91-6.26,3.97
		c-9.77,4.69-26.78,4.32-37.44-9.26c-2.32-2.95-4.63-5.91-7.08-8.75c-3.97-4.6-8.92-7.69-14.82-9.22
		C156,166.22,155.13,165.96,153.68,165.56z"/>
	<path class="st1" d="M171.9,189.99c6.34,7.15,14.76,10.3,23.65,12.44c9.06,2.17,17.97,0.68,27.02-1.79
		c0.08,0.89,0.18,1.47,0.18,2.06c0.01,6.41-0.04,12.82,0.03,19.22c0.02,1.57-0.43,2.18-2.07,2.19c-7.03,0.06-14.04-0.01-20.98-1.34
		c-13.65-2.62-21.8-11.16-25.99-23.98c-0.91-2.78-1.62-5.62-2.43-8.44C171.51,190.22,171.71,190.11,171.9,189.99z"/>
	<path class="st1" d="M222.41,130.88c-10.14-7.56-19.01-15.67-23.09-27.58c-3.37-9.83-2.14-19.81,0.11-29.66
		c0.2-0.03,0.4-0.06,0.6-0.08c0.24,0.66,0.5,1.31,0.72,1.97c2.63,7.78,5.8,15.3,10.46,22.12c2.6,3.8,6.02,6.61,10.19,8.55
		c0.58,0.27,1.28,1.08,1.28,1.65c0.08,7.2,0.05,14.4,0.03,21.6C222.73,129.74,222.61,130.02,222.41,130.88z"/>
	<path class="st0" d="M109.36,207.72c-4.1-1.42-7.82-2.69-11.52-3.99c-14.54-5.08-29.07-10.18-43.6-15.26
		c-2.83-0.99-2.84-0.95-2.84-3.96c0-42.89,0-85.78,0-128.67c0-0.79,0-1.58,0-2.7c0.85,0.24,1.48,0.38,2.07,0.59
		c17.85,6.24,35.69,12.52,53.56,18.7c1.84,0.64,2.38,1.51,2.38,3.43c-0.06,43.08-0.04,86.15-0.04,129.23
		C109.36,205.82,109.36,206.55,109.36,207.72z"/>
	<path class="st0" d="M127.36,155.79c0-2.44,0.01-4.87,0-7.31c-0.01-2.31-0.04-2.29-2.27-2.04c-2.93,0.33-5.88,0.57-8.81,0.88
		c-1.23,0.13-1.78-0.24-1.76-1.6c0.07-4,0.05-8,0.01-12c-0.01-1.11,0.41-1.47,1.5-1.57c3.06-0.28,6.1-0.71,9.16-1.04
		c1.61-0.17,2.32-0.88,2.22-2.63c-0.15-2.68-0.04-5.37-0.04-8.05c0.23-0.15,0.45-0.3,0.68-0.45c0.21,0.43,0.35,0.91,0.64,1.27
		c3.22,4.05,6.49,8.05,9.66,12.13c0.38,0.49,0.55,1.56,0.28,2.08c-3.54,6.82-7.18,13.59-10.8,20.38
		C127.67,155.83,127.51,155.81,127.36,155.79z"/>
</g>
</svg>
