<?xml version="1.0" encoding="utf-8"?>
<!-- Generator: Adobe Illustrator 28.0.0, SVG Export Plug-In . SVG Version: 6.00 Build 0)  -->
<svg version="1.1" id="Ebene_1" xmlns="http://www.w3.org/2000/svg" xmlns:xlink="http://www.w3.org/1999/xlink" x="0px" y="0px"
	 viewBox="0 0 270.97 273.3" style="enable-background:new 0 0 270.97 273.3;" xml:space="preserve">
<style type="text/css">
	.st0{fill:#FFFFFF;}
	.st1{fill:#FF0000;}
</style>
<g>
	<path class="st0" d="M4.59,5.3c87.38,0,120.99-3.73,208.37-3.73c0,87.77,0,175.54,0,263.31c-87.38,0-120.99,3.73-208.37,3.73
		C4.59,180.85,4.59,93.08,4.59,5.3z M12.32,261.02c82.83,0,165.35,0,247.95,0c0-82.67,0-165.18,0-247.96c-0.89,0-1.65,0-2.41,0
		c-81.05,0-162.11,0.01-243.16-0.04c-1.93,0-2.53,0.42-2.53,2.45c0.06,81.05,0.05,162.11,0.05,243.16
		C12.22,259.4,12.29,260.17,12.32,261.02z"/>
	<path class="st1" d="M12.32,261.02c-0.04-0.85-0.1-1.62-0.1-2.38c0-81.05,0-162.11-0.05-243.16c0-2.04,0.59-2.46,2.53-2.45
		c81.05,0.05,162.11,0.04,243.16,0.04c0.76,0,1.52,0,2.41,0c0,82.77,0,165.29,0,247.96C177.67,261.02,95.15,261.02,12.32,261.02z
		 M80.16,48.36c-1.13,0-1.91,0-2.68,0c-12.26,0-24.52,0-36.77,0c-2.83,0-2.83,0-2.83,2.86c0,56.92,0,113.84,0.01,170.76
		c0,3.71-0.65,3.55,3.57,3.55c11.93,0,23.86,0,35.8,0c2.91,0,2.91,0,2.91,3c0,1.7,0,3.39,0,5.09c0,2.81,0,2.88,2.87,2.88
		c1.42,0,1.78,0.54,1.73,1.85c-0.08,2.41-0.02,4.82-0.02,7.24c0,3.92,0,3.88,3.96,3.71c1.2-0.05,1.6-0.51,1.58-1.65
		c-0.04-2.8-0.01-5.61-0.01-8.41c0-2.64,0-2.71,2.64-2.69c1.51,0.02,2.13-0.5,2.07-2.04c-0.08-2.15,0.1-4.31-0.05-6.45
		c-0.14-1.95,0.48-2.59,2.5-2.57c12.26,0.09,24.52,0.05,36.77,0.04c2.68,0,2.68-0.01,2.68-2.72c0-24.45,0-48.9,0-73.35
		c0-32.73,0-65.46,0-98.19c0-2.91,0-2.91-2.99-2.91c-6.06,0-12.13,0-18.19,0c-6.26,0-12.52-0.05-18.78,0.03
		c-1.57,0.02-2.08-0.48-1.99-2c0.11-1.75,0.02-3.52,0.03-5.28c0.02-3.52-0.09-3.08-2.92-2.99c-1.36,0.04-1.84-0.41-1.8-1.78
		c0.08-2.54,0.02-5.08,0.02-7.63c0-3.98,0-3.94-3.95-3.79c-1.17,0.04-1.62,0.42-1.6,1.61c0.05,3.13,0.02,6.26,0.01,9.39
		c0,0.69-0.07,1.37-0.11,2.09c-0.75,0.03-1.26,0.07-1.78,0.08c-2.69,0.03-2.69,0.03-2.7,2.62C80.16,43.17,80.16,45.63,80.16,48.36z
		 M144.99,83.81c0.17,0.26,0.34,0.53,0.5,0.79c0.77,0,1.54,0,2.31,0c27.97-0.02,55.93-0.04,83.9-0.07c0.46,0,0.93,0.07,1.36-0.04
		c0.38-0.1,0.71-0.41,1.06-0.63c-0.29-0.38-0.5-0.97-0.87-1.09c-0.98-0.33-2.02-0.47-3.05-0.65c-6.89-1.19-12.02-4.7-14.83-11.26
		c-0.79-1.85-1.63-3.69-2.41-5.54c-2.44-5.77-4.94-11.48-9.41-16.07c-5.38-5.52-11.76-8.85-19.58-8.64
		c-8.09,0.21-14.6,3.8-19.74,9.99c-0.92,1.1-1.5,2.65-3.35,2.69c-0.22,0-0.52,0.67-0.64,1.07c-0.97,3.24-2.12,6.44-2.77,9.74
		c-0.47,2.4-2.79,4.69-0.8,7.38c0.04,0.06-0.07,0.24-0.11,0.36c-1.86,4.64-3.59,9.35-9.53,10.28
		C146.29,82.22,145.67,83.22,144.99,83.81z M230.7,198.1c0.21-7.81,0.34-15.03,0.64-22.25c0.07-1.77-0.6-2.41-2.19-2.72
		c-7.59-1.46-14.74-4.14-21.49-7.88c-11.82-6.55-20.99-15.91-28.46-27.04c-0.29-0.43-0.64-0.83-1.07-1.38
		c-0.24,0.47-0.38,0.63-0.39,0.8c-0.07,0.78-0.15,1.56-0.14,2.34c0.15,11.59,3.48,22.15,10.36,31.52
		c8.36,11.41,19.66,18.78,32.8,23.52C223.91,196.14,227.16,197.01,230.7,198.1z M208.77,91.45c1.02,0,1.73,0,2.43,0
		c7.17,0,14.34,0.02,21.52-0.04c0.66-0.01,1.72-0.32,1.89-0.77c1.03-2.63-0.08-4.09-2.9-4.09c-21.39,0.02-42.77,0.03-64.16,0.06
		c-6.85,0.01-13.69,0.01-20.54,0.08c-0.68,0.01-1.75,0.26-1.96,0.71c-1.09,2.32,0.16,4.05,2.74,4.05c18.97,0,37.95,0,56.92,0
		c0.75,0,1.5,0,2.43,0c-3.33,11.46-3.53,22.52,1.34,33.28c4.78,10.58,12.7,18.31,22.61,24.61c0.11-0.76,0.2-1.07,0.2-1.39
		c0.01-7.11,0.06-14.21-0.06-21.32c-0.01-0.82-0.79-1.88-1.51-2.41c-6.53-4.73-12.01-10.4-15.83-17.56
		C211.41,102,209.62,97.08,208.77,91.45z M172.95,100.79c4.22,3.39,6.6,7.95,8.39,12.78c1.76,4.74,3.38,9.57,4.63,14.47
		c1.99,7.82,5.27,14.91,10.38,21.17c8.71,10.65,22.09,13.77,34.1,11.1c-0.01-0.12,0.02-0.32-0.04-0.36c-1.62-1.07-3.3-2.06-4.88-3.2
		c-10.75-7.77-17.71-18.29-22.23-30.62c-2.77-7.56-6.25-14.76-12.5-20.18C185.7,101.54,179.78,99.84,172.95,100.79z M176.73,208.93
		c-0.15,0.09-0.29,0.17-0.44,0.26c0.55,2.31,1.02,4.65,1.66,6.94c5.14,18.19,17.87,26.31,33.84,28.49
		c5.7,0.78,11.55,0.44,17.32,0.69c1.65,0.07,2.13-0.55,2.09-2.15c-0.16-6.58-0.2-13.15-0.31-19.73c-0.01-0.67-0.16-1.33-0.24-2.02
		c-0.45,0.05-0.64,0.06-0.83,0.09c-8.24,1.63-16.45,3.05-24.96,1.98c-10.56-1.32-19.54-5.52-26.82-13.31
		C177.64,209.74,177.17,209.35,176.73,208.93z M159.92,184.86c2.16,0.28,3.96,0.26,5.59,0.77c6.74,2.11,11.34,6.95,15.23,12.54
		c2.96,4.25,6.22,8.21,10.39,11.32c5.65,4.21,11.97,7.04,19.04,7.11c7.03,0.07,13.52-2.37,19.5-6.04c0.39-0.24,0.71-0.6,1.27-1.08
		c-0.56-0.19-0.78-0.31-1.01-0.34c-6.09-0.72-11.71-2.82-17.04-5.81c-6.1-3.42-11.04-8.18-15.77-13.26
		c-7.16-7.69-15.56-12.63-26.64-10.7C166.49,180.05,163.07,181.85,159.92,184.86z M171.47,41.89c1.19-0.42,1.97-0.64,2.72-0.96
		c11.27-4.78,24.45-1.48,32.12,7.98c4.38,5.4,6.81,11.79,9.46,18.08c0.95,2.26,2.02,4.52,3.38,6.55c1.94,2.88,6.98,5.77,8.59,5.86
		c-0.88-1.08-2.16-2.81-3.6-4.39c-3.37-3.72-4.37-8.5-5.93-13.02c-2.76-7.99-6.55-15.35-13.16-20.88c-9.14-7.66-20.2-9-31.53-9.25
		c-0.39-0.01-1.09,0.44-1.13,0.74C172.03,35.55,171.78,38.52,171.47,41.89z"/>
	<path class="st0" d="M80.16,48.36c0-2.73,0-5.19,0-7.65c0-2.59,0.01-2.59,2.7-2.62c0.52-0.01,1.03-0.04,1.78-0.08
		c0.04-0.72,0.1-1.41,0.11-2.09c0.01-3.13,0.04-6.26-0.01-9.39c-0.02-1.19,0.43-1.57,1.6-1.61c3.95-0.15,3.95-0.19,3.95,3.79
		c0,2.54,0.06,5.09-0.02,7.63c-0.04,1.37,0.43,1.82,1.8,1.78c2.83-0.09,2.94-0.53,2.92,2.99c-0.01,1.76,0.08,3.53-0.03,5.28
		c-0.09,1.52,0.42,2.02,1.99,2c6.26-0.08,12.52-0.03,18.78-0.03c6.06,0,12.13,0,18.19,0c2.99,0,2.99,0,2.99,2.91
		c0,32.73,0,65.46,0,98.19c0,24.45,0,48.9,0,73.35c0,2.71,0,2.72-2.68,2.72c-12.26,0-24.52,0.05-36.77-0.04
		c-2.02-0.01-2.64,0.62-2.5,2.57c0.15,2.14-0.03,4.3,0.05,6.45c0.06,1.54-0.56,2.05-2.07,2.04c-2.63-0.03-2.64,0.04-2.64,2.69
		c0,2.8-0.03,5.61,0.01,8.41c0.01,1.14-0.38,1.6-1.58,1.65c-3.96,0.16-3.96,0.21-3.96-3.71c0-2.41-0.06-4.83,0.02-7.24
		c0.04-1.31-0.32-1.85-1.73-1.85c-2.87,0-2.87-0.07-2.87-2.88c0-1.7,0-3.39,0-5.09c0-2.99,0-3-2.91-3c-11.93,0-23.86,0-35.8,0
		c-4.22,0-3.57,0.16-3.57-3.55c-0.01-56.92-0.01-113.84-0.01-170.76c0-2.86,0-2.86,2.83-2.86c12.26,0,24.52,0,36.77,0
		C78.25,48.36,79.03,48.36,80.16,48.36z M47.29,216.53c0.94,0,1.64,0,2.35,0c25.1,0,50.19,0,75.29,0c2.69,0,2.7,0,2.7-2.61
		c0-51.3,0-102.6,0-153.9c0-2.81-0.01-2.81-2.92-2.81c-25.1,0-50.19,0-75.29,0c-0.69,0-1.38,0-2.13,0
		C47.29,110.41,47.29,163.32,47.29,216.53z"/>
	<path class="st0" d="M144.99,83.81c0.68-0.59,1.3-1.59,2.06-1.7c5.94-0.93,7.67-5.64,9.53-10.28c0.05-0.12,0.16-0.3,0.11-0.36
		c-1.99-2.69,0.32-4.98,0.8-7.38c0.65-3.3,1.8-6.5,2.77-9.74c0.12-0.4,0.41-1.06,0.64-1.07c1.85-0.03,2.43-1.58,3.35-2.69
		c5.14-6.19,11.65-9.78,19.74-9.99c7.82-0.21,14.2,3.12,19.58,8.64c4.47,4.59,6.97,10.3,9.41,16.07c0.79,1.86,1.62,3.69,2.41,5.54
		c2.81,6.56,7.93,10.07,14.83,11.26c1.03,0.18,2.07,0.32,3.05,0.65c0.37,0.12,0.59,0.71,0.87,1.09c-0.35,0.22-0.68,0.53-1.06,0.63
		c-0.43,0.11-0.91,0.04-1.36,0.04c-27.97,0.02-55.93,0.05-83.9,0.07c-0.77,0-1.54,0-2.31,0C145.33,84.33,145.16,84.07,144.99,83.81z
		"/>
	<path class="st0" d="M230.7,198.1c-3.54-1.09-6.79-1.95-9.94-3.09c-13.15-4.74-24.44-12.11-32.8-23.52
		c-6.87-9.37-10.2-19.93-10.36-31.52c-0.01-0.78,0.07-1.56,0.14-2.34c0.02-0.17,0.16-0.33,0.39-0.8c0.43,0.56,0.78,0.95,1.07,1.38
		c7.47,11.13,16.64,20.49,28.46,27.04c6.76,3.74,13.91,6.42,21.49,7.88c1.58,0.3,2.26,0.95,2.19,2.72
		C231.04,183.06,230.91,190.28,230.7,198.1z"/>
	<path class="st0" d="M208.77,91.45c0.85,5.64,2.64,10.55,5.13,15.22c3.82,7.16,9.3,12.82,15.83,17.56c0.73,0.53,1.5,1.59,1.51,2.41
		c0.12,7.11,0.07,14.21,0.06,21.32c0,0.31-0.09,0.63-0.2,1.39c-9.92-6.29-17.83-14.02-22.61-24.61
		c-4.86-10.76-4.67-21.82-1.34-33.28c-0.94,0-1.69,0-2.43,0c-18.97,0-37.95,0-56.92,0c-2.58,0-3.82-1.73-2.74-4.05
		c0.21-0.45,1.28-0.7,1.96-0.71c6.85-0.07,13.69-0.07,20.54-0.08c21.39-0.02,42.77-0.04,64.16-0.06c2.83,0,3.93,1.46,2.9,4.09
		c-0.17,0.45-1.24,0.76-1.89,0.77c-7.17,0.06-14.34,0.04-21.52,0.04C210.5,91.45,209.79,91.45,208.77,91.45z"/>
	<path class="st0" d="M172.95,100.79c6.83-0.96,12.76,0.75,17.84,5.16c6.26,5.42,9.73,12.63,12.5,20.18
		c4.52,12.33,11.48,22.85,22.23,30.62c1.57,1.14,3.25,2.13,4.88,3.2c0.06,0.04,0.03,0.24,0.04,0.36
		c-12.01,2.67-25.39-0.45-34.1-11.1c-5.11-6.25-8.4-13.35-10.38-21.17c-1.25-4.9-2.86-9.73-4.63-14.47
		C179.54,108.74,177.16,104.18,172.95,100.79z"/>
	<path class="st0" d="M176.73,208.93c0.44,0.41,0.9,0.8,1.31,1.24c7.28,7.78,16.27,11.98,26.82,13.31
		c8.5,1.07,16.72-0.35,24.96-1.98c0.19-0.04,0.38-0.04,0.83-0.09c0.09,0.69,0.23,1.35,0.24,2.02c0.11,6.58,0.15,13.15,0.31,19.73
		c0.04,1.6-0.45,2.22-2.09,2.15c-5.78-0.25-11.63,0.09-17.32-0.69c-15.96-2.18-28.69-10.29-33.84-28.49
		c-0.65-2.29-1.11-4.62-1.66-6.94C176.44,209.11,176.59,209.02,176.73,208.93z"/>
	<path class="st0" d="M159.92,184.86c3.15-3.01,6.57-4.81,10.57-5.5c11.08-1.93,19.49,3.01,26.64,10.7
		c4.73,5.08,9.66,9.84,15.77,13.26c5.33,2.99,10.95,5.09,17.04,5.81c0.23,0.03,0.45,0.15,1.01,0.34c-0.56,0.48-0.88,0.84-1.27,1.08
		c-5.99,3.67-12.48,6.11-19.5,6.04c-7.07-0.07-13.39-2.9-19.04-7.11c-4.17-3.11-7.43-7.06-10.39-11.32
		c-3.89-5.59-8.49-10.42-15.23-12.54C163.88,185.12,162.08,185.14,159.92,184.86z"/>
	<path class="st0" d="M171.47,41.89c0.32-3.37,0.56-6.34,0.92-9.29c0.04-0.3,0.74-0.75,1.13-0.74c11.34,0.25,22.39,1.59,31.53,9.25
		c6.6,5.53,10.4,12.89,13.16,20.88c1.56,4.53,2.56,9.3,5.93,13.02c1.44,1.58,2.72,3.31,3.6,4.39c-1.61-0.09-6.65-2.98-8.59-5.86
		c-1.37-2.02-2.43-4.29-3.38-6.55c-2.65-6.3-5.08-12.68-9.46-18.08c-7.68-9.46-20.85-12.77-32.12-7.98
		C173.44,41.25,172.66,41.47,171.47,41.89z"/>
	<path class="st1" d="M47.29,216.53c0-53.21,0-106.12,0-159.32c0.75,0,1.44,0,2.13,0c25.1,0,50.19,0,75.29,0
		c2.91,0,2.92,0,2.92,2.81c0,51.3,0,102.6,0,153.9c0,2.61-0.01,2.61-2.7,2.61c-25.1,0-50.19,0-75.29,0
		C48.93,216.53,48.23,216.53,47.29,216.53z M122.07,153.18c-0.13-0.86-0.2-1.42-0.29-1.98c-0.45-2.63-0.92-5.25-1.36-7.87
		c-1.25-7.5-2.48-15-3.74-22.5c-1.23-7.37-2.53-14.73-3.69-22.11c-0.2-1.25-0.79-1.83-1.85-2.2c-3.25-1.14-6.52-2.22-9.73-3.46
		c-2.14-0.83-4.13-1.42-5.98,0.56c-0.29,0.31-0.79,0.43-1.21,0.59c-5.18,1.97-10.23,1.45-15.09-0.99c-1.28-0.64-2.34-0.77-3.66-0.26
		c-3.46,1.33-6.97,2.5-10.42,3.83c-0.56,0.22-1.24,0.87-1.35,1.42c-1.62,7.89-3.14,15.8-4.72,23.71c-1.42,7.14-2.9,14.26-4.33,21.39
		c-0.65,3.23-1.25,6.47-1.93,10c3.34,0,6.45,0.04,9.55-0.06c0.33-0.01,0.82-0.75,0.93-1.23c1.18-5.19,2.3-10.4,3.43-15.61
		c1.38-6.31,2.76-12.61,4.26-19.45c1.03,7.06,1.99,13.56,2.91,20.06c0.4,2.83,0.5,5.64-0.04,8.5c-1.57,8.37-3,16.76-4.48,25.14
		c-1.27,7.17-2.55,14.33-3.79,21.5c-0.89,5.12-1.71,10.26-2.63,15.37c-0.22,1.23,0.1,1.68,1.34,1.66c3.32-0.04,6.65,0.04,9.97-0.07
		c0.55-0.02,1.43-0.72,1.55-1.24c1.98-8.74,3.86-17.51,5.76-26.27c1.93-8.93,3.86-17.86,5.92-27.38c0.64,2.91,1.17,5.24,1.67,7.58
		c1.82,8.45,3.62,16.89,5.44,25.34c1.5,6.98,3,13.97,4.55,20.94c0.1,0.44,0.66,1.09,1.02,1.1c4.08,0.08,8.17,0.05,12.57,0.05
		c-0.8-4.77-1.53-9.23-2.29-13.7c-1.41-8.26-2.85-16.52-4.27-24.78c-1.28-7.43-2.66-14.84-3.81-22.29
		c-0.48-3.11-0.92-6.34-0.62-9.44c0.47-4.84,1.6-9.61,2.44-14.41c0.34-1.95,0.69-3.89,1.1-6.24c0.37,0.62,0.57,0.82,0.62,1.04
		c0.8,4.41,1.59,8.82,2.38,13.24c1.16,6.46,2.3,12.92,3.51,19.37c0.08,0.43,0.67,1.09,1.03,1.11
		C115.77,153.22,118.82,153.18,122.07,153.18z M98.71,80.25c0.02-6.41-4.77-11.31-11.1-11.34c-6.35-0.03-11.41,5.01-11.41,11.33
		c0,6.06,5.28,11.46,11.31,11.28C93.87,91.32,98.68,86.67,98.71,80.25z"/>
	<path class="st0" d="M122.07,153.18c-3.25,0-6.3,0.04-9.33-0.05c-0.37-0.01-0.95-0.67-1.03-1.11c-1.21-6.45-2.35-12.91-3.51-19.37
		c-0.79-4.41-1.58-8.83-2.38-13.24c-0.04-0.23-0.24-0.43-0.62-1.04c-0.41,2.35-0.76,4.29-1.1,6.24c-0.85,4.8-1.97,9.57-2.44,14.41
		c-0.3,3.1,0.14,6.33,0.62,9.44c1.15,7.45,2.52,14.86,3.81,22.29c1.43,8.26,2.86,16.52,4.27,24.78c0.76,4.46,1.5,8.93,2.29,13.7
		c-4.4,0-8.48,0.03-12.57-0.05c-0.36-0.01-0.93-0.66-1.02-1.1c-1.55-6.97-3.05-13.96-4.55-20.94c-1.82-8.45-3.62-16.89-5.44-25.34
		c-0.5-2.34-1.03-4.67-1.67-7.58c-2.06,9.52-3.99,18.45-5.92,27.38c-1.9,8.76-3.78,17.52-5.76,26.27c-0.12,0.52-1,1.22-1.55,1.24
		c-3.32,0.12-6.65,0.03-9.97,0.07c-1.24,0.01-1.57-0.43-1.34-1.66c0.92-5.12,1.73-10.25,2.63-15.37c1.25-7.17,2.52-14.33,3.79-21.5
		c1.48-8.38,2.91-16.77,4.48-25.14c0.54-2.86,0.44-5.67,0.04-8.5c-0.92-6.5-1.88-12.99-2.91-20.06c-1.5,6.83-2.88,13.14-4.26,19.45
		c-1.14,5.2-2.25,10.41-3.43,15.61c-0.11,0.47-0.6,1.22-0.93,1.23c-3.1,0.09-6.2,0.06-9.55,0.06c0.68-3.53,1.28-6.77,1.93-10
		c1.43-7.13,2.91-14.26,4.33-21.39c1.58-7.9,3.1-15.81,4.72-23.71c0.11-0.55,0.79-1.2,1.35-1.42c3.45-1.33,6.97-2.5,10.42-3.83
		c1.32-0.51,2.38-0.38,3.66,0.26c4.86,2.44,9.91,2.96,15.09,0.99c0.42-0.16,0.93-0.28,1.21-0.59c1.85-1.98,3.84-1.39,5.98-0.56
		c3.21,1.24,6.48,2.32,9.73,3.46c1.06,0.37,1.65,0.95,1.85,2.2c1.17,7.38,2.46,14.74,3.69,22.11c1.26,7.5,2.49,15,3.74,22.5
		c0.44,2.63,0.91,5.25,1.36,7.87C121.87,151.75,121.94,152.32,122.07,153.18z"/>
	<path class="st0" d="M98.71,80.25c-0.02,6.42-4.83,11.08-11.2,11.27c-6.02,0.18-11.31-5.22-11.31-11.28
		c0-6.32,5.07-11.36,11.41-11.33C93.94,68.93,98.73,73.83,98.71,80.25z"/>
</g>
</svg>
