<?xml version="1.0" encoding="utf-8"?>
<!-- Generator: Adobe Illustrator 27.6.0, SVG Export Plug-In . SVG Version: 6.00 Build 0)  -->
<svg version="1.1" id="Ebene_1" xmlns="http://www.w3.org/2000/svg" xmlns:xlink="http://www.w3.org/1999/xlink" x="0px" y="0px"
	 viewBox="0 0 271 273.3" style="enable-background:new 0 0 271 273.3;" xml:space="preserve">
<style type="text/css">
	.st0{fill:#E30613;}
	.st1{fill:#FFFFFF;}
</style>
<g>
	<path class="st0" d="M10.7,261.5c0-83.1,0-166.2,0-249.4c1.1,0,2.1,0.1,3.2,0.1c80.8,0,161.5,0,242.3,0c1,0,1.9,0,3.1,0
		c0,1.2,0,2.1,0,2.9c0,81.1,0,162.1,0,243.2c0,3,0,3-3.1,3c-80.8,0-161.5,0-242.3,0C12.8,261.3,11.7,261.4,10.7,261.5z M43.4,90.5
		c0-3.8,0.1-7.2,0-10.7c-0.1-1.9,0.6-3,2-4.2c5.3-4.7,10.6-9.4,15.5-14.5c2.6-2.7,5.2-2.8,8.6-2.3c0,4.2,0.1,8.4-0.1,12.6
		c0,0.4-0.9,1-1.5,1.2c-2.1,0.8-4.3,1.3-6.3,2.3c-8.2,3.9-13.5,10.2-13.6,19.5c-0.2,47.1-0.1,94.3-0.1,141.4c0,3.4,0.5,3.9,3.9,3.9
		c10.4,0,20.8,0,31.2,0c10.2,0,20.3,0,30.5,0c3.5,0,3.9-0.4,3.9-3.9c0-4.7-0.2-9.5-0.1-14.2c0-42.1,0.1-84.2,0.2-126.2
		c0-7.1-2.5-13.1-8.2-17.2c-3.1-2.2-6.9-3.5-10.4-5.3c-0.6-0.3-1.6-0.8-1.6-1.2C97,67.3,97,63,97,58.5c2.1,0,3.8,0.2,5.5,0
		c2.6-0.3,5.2-0.8,7.8-1.3c1.4-0.3,1.9-1.1,1.8-2.6c-0.1-2.5,0.1-5.1-0.1-7.7c-0.1-1-0.7-2.3-1.5-2.9c-2.3-2-5.3-2.5-8.3-2.5
		c-2.8,0-5.5,0-8.5,0c0-2.3-0.1-4.3,0-6.2c0-1.3-0.5-1.7-1.7-1.7c-6,0-12.1,0-18.1,0c-1.3,0-1.8,0.4-1.7,1.7c0.1,1.8,0,3.7,0,5.6
		c-2.4,0-4.5,0.2-6.5,0c-3.6-0.4-6.6,0.7-9.1,3.1C50,50.2,43.3,56.3,37,62.9c-1.9,2-3.1,5.3-3.4,8.1c-0.5,5.9-0.2,11.9-0.1,17.8
		c0,0.5,0.8,1.5,1.3,1.5C37.6,90.5,40.3,90.5,43.4,90.5z M173.9,116.1c-0.3,0.1-0.6,0.1-0.8,0.2c0.4,4.2,0.4,8.4,1.1,12.5
		c3.4,19.1,14.1,33.6,29.8,44.5c8.4,5.9,17.8,9.7,28.1,10.9c1.9,0.2,2.7-0.1,2.7-2.3c-0.1-8.3-0.1-16.6,0-24.8
		c0-1.7-0.5-2.1-2.2-2.5c-5.3-1.1-10.7-1.9-15.7-3.9c-13.2-5.2-23.8-14.2-33.6-24.3C180,123.1,177,119.6,173.9,116.1z M166.7,76
		c9.1,7.1,11.7,16.8,13.9,26.9c2.4,10.7,7.4,20.2,15,28.1c9.2,9.5,19.8,15.4,33.6,13.1c1.6-0.3,3.3-0.4,5.5-0.7
		c-4.2-3.5-8-6.7-11.7-9.8c-7.9-6.5-14-14.2-17.7-23.8c-1.4-3.7-3.1-7.3-4.8-11c-3.4-7.5-7.9-14.2-14.4-19.4
		C180.5,74.8,174.2,74.3,166.7,76z M234.6,197.4c-3-0.8-5.8-1.6-8.5-2.4c-7.6-2.2-14.9-4.9-20.6-10.7c-2.5-2.5-4.7-5.3-7-7.9
		c-10.5-12.1-25.3-16.2-39.1-10.6c-1.6,0.6-3.1,1.5-4.5,2.5c-1.5,1.1-1.4,2,0.3,2.8c2,0.9,4,1.8,6,2.7c6.5,2.8,11.9,7,16.1,12.8
		c2.1,2.8,4.4,5.4,6.6,8c12.6,14.8,32.8,13.4,44.2,8.7C230.8,202.1,233.1,200.4,234.6,197.4z M173.8,198.4c0.3,1.8,0.6,3.7,1,5.5
		c4.1,17.8,14.4,29.4,32.9,32.8c8.1,1.5,16.2,2.1,24.5,1.9c2-0.1,2.5-0.8,2.5-2.7c-0.1-7.7,0-15.3,0-23c0-0.7-0.1-1.5-0.1-2.5
		C212.1,217.2,192.1,212.8,173.8,198.4z M208,64.1c-0.4,0.8-0.7,1.3-0.9,1.9c-3.9,13-4.1,25.9,2,38.2c5.5,11.1,14.6,19,24.6,25.9
		c0.2,0.1,0.4,0.1,0.7,0.1c0.1-0.3,0.2-0.6,0.2-0.9c0-8.9,0.1-17.9,0-26.9c0-0.6-0.8-1.4-1.5-1.8c-2.2-1.5-4.8-2.6-6.8-4.3
		c-5.6-5.1-9.2-11.7-12.4-18.4C211.9,73.5,210.1,69,208,64.1z"/>
	<path class="st1" d="M43.4,90.5c-3.1,0-5.8,0.1-8.5-0.1c-0.5,0-1.3-1-1.3-1.5C33.5,82.9,33.1,77,33.7,71c0.2-2.8,1.5-6.1,3.4-8.1
		c6.3-6.6,13-12.7,19.6-19c2.5-2.4,5.5-3.5,9.1-3.1c2,0.2,4.1,0,6.5,0c0-2,0.1-3.8,0-5.6c-0.1-1.3,0.4-1.7,1.7-1.7
		c6,0,12.1,0,18.1,0c1.2,0,1.8,0.4,1.7,1.7c-0.1,1.9,0,3.9,0,6.2c3,0,5.8,0,8.5,0c3,0,5.9,0.5,8.3,2.5c0.8,0.7,1.4,1.9,1.5,2.9
		c0.2,2.5,0,5.1,0.1,7.7c0.1,1.5-0.4,2.3-1.8,2.6c-2.6,0.5-5.2,1-7.8,1.3c-1.7,0.2-3.4,0-5.5,0c0,4.5-0.1,8.8,0.1,13.2
		c0,0.4,1,0.9,1.6,1.2c3.5,1.8,7.3,3.1,10.4,5.3c5.8,4.1,8.2,10.2,8.2,17.2c-0.1,42.1-0.1,84.2-0.2,126.2c0,4.7,0.1,9.5,0.1,14.2
		c0,3.4-0.4,3.8-3.9,3.9c-10.2,0-20.3,0-30.5,0c-10.4,0-20.8,0-31.2,0c-3.4,0-3.9-0.5-3.9-3.9c0-47.1-0.1-94.2,0.1-141.4
		c0-9.3,5.4-15.5,13.6-19.5c2-1,4.2-1.5,6.3-2.3c0.6-0.2,1.5-0.8,1.5-1.2c0.1-4.2,0.1-8.4,0.1-12.6c-3.4-0.5-6-0.4-8.6,2.3
		c-4.9,5.1-10.2,9.8-15.5,14.5c-1.3,1.2-2,2.3-2,4.2C43.5,83.2,43.4,86.7,43.4,90.5z M108.6,110.5c-0.6-0.1-1.1-0.2-1.6-0.2
		c-16.2,0-32.4,0-48.6,0c-1.7,0-2,0.7-1.9,2.2c0,9.1,0.1,18.2,0,27.3c0,2,0.7,2.3,2.5,2.3c15.8-0.1,31.6,0,47.4,0
		c0.7,0,1.4-0.1,2.2-0.1C108.6,131.3,108.6,121,108.6,110.5z"/>
	<path class="st1" d="M173.9,116.1c3.1,3.4,6.1,7,9.3,10.3c9.8,10.1,20.4,19,33.6,24.3c5,2,10.4,2.9,15.7,3.9
		c1.7,0.3,2.3,0.8,2.2,2.5c-0.1,8.3-0.1,16.6,0,24.8c0,2.1-0.8,2.5-2.7,2.3c-10.3-1.3-19.7-5-28.1-10.9
		c-15.6-11-26.3-25.4-29.8-44.5c-0.7-4.1-0.8-8.3-1.1-12.4C173.3,116.2,173.6,116.2,173.9,116.1z"/>
	<path class="st1" d="M166.7,76c7.5-1.7,13.8-1.2,19.5,3.4c6.5,5.2,10.9,11.9,14.4,19.4c1.7,3.6,3.4,7.2,4.8,11
		c3.6,9.6,9.8,17.4,17.7,23.9c3.8,3.1,7.5,6.2,11.7,9.8c-2.2,0.3-3.8,0.4-5.5,0.7c-13.8,2.3-24.5-3.6-33.6-13.1
		c-7.6-7.9-12.6-17.5-15-28.2C178.4,92.8,175.8,83,166.7,76z"/>
	<path class="st1" d="M234.6,197.4c-1.5,3-3.8,4.7-6.5,5.8c-11.4,4.7-31.6,6.2-44.2-8.7c-2.2-2.6-4.6-5.2-6.6-8
		c-4.2-5.7-9.6-9.9-16.1-12.8c-2-0.9-4-1.8-6-2.7c-1.7-0.8-1.8-1.7-0.3-2.8c1.4-1,2.9-1.9,4.5-2.5c13.8-5.5,28.6-1.5,39.1,10.6
		c2.3,2.7,4.6,5.4,7,7.9c5.7,5.9,13,8.5,20.6,10.7C228.9,195.8,231.6,196.6,234.6,197.4z"/>
	<path class="st1" d="M173.8,198.4c18.3,14.4,38.3,18.9,60.7,12c0.1,1,0.1,1.8,0.1,2.5c0,7.7-0.1,15.4,0,23c0,1.9-0.5,2.6-2.5,2.7
		c-8.2,0.2-16.4-0.3-24.5-1.9c-18.5-3.5-28.8-15-32.9-32.8C174.4,202.1,174.2,200.2,173.8,198.4z"/>
	<path class="st1" d="M208,64.1c2.1,4.9,3.9,9.4,6,13.8c3.2,6.7,6.8,13.3,12.4,18.4c2,1.8,4.5,2.8,6.8,4.3c0.6,0.4,1.5,1.2,1.5,1.8
		c0.1,8.9,0.1,17.9,0,26.9c0,0.3-0.1,0.5-0.2,0.9c-0.3-0.1-0.6,0-0.7-0.1c-10.1-6.9-19.2-14.8-24.6-25.9c-6.1-12.3-5.9-25.2-2-38.2
		C207.2,65.4,207.6,64.9,208,64.1z"/>
	<path class="st0" d="M108.6,110.5c0,10.5,0,20.8,0,31.4c-0.8,0.1-1.5,0.1-2.2,0.1c-15.8,0-31.6,0-47.4,0c-1.8,0-2.5-0.4-2.5-2.3
		c0.1-9.1,0.1-18.2,0-27.3c0-1.4,0.2-2.2,1.9-2.2c16.2,0.1,32.4,0,48.6,0C107.5,110.3,108,110.4,108.6,110.5z"/>
</g>
</svg>
