<?xml version="1.0" encoding="utf-8"?>
<!-- Generator: Adobe Illustrator 27.6.0, SVG Export Plug-In . SVG Version: 6.00 Build 0)  -->
<svg version="1.1" id="Ebene_1" xmlns="http://www.w3.org/2000/svg" xmlns:xlink="http://www.w3.org/1999/xlink" x="0px" y="0px"
	 viewBox="0 0 271 273.3" style="enable-background:new 0 0 271 273.3;" xml:space="preserve">
<style type="text/css">
	.st0{fill:#FFFFFF;}
	.st1{fill:#E30613;}
</style>
<g>
	<path class="st0" d="M258.1,136.5c0-39.5,0-79,0-118.5c0-3.2,0-3.2-3-3.2c-78.9,0-157.8,0-236.7,0c-3.2,0-3.2,0-3.2,3.3
		c0,78.9,0,157.9,0,236.8c0,3.2,0,3.2,3.3,3.2c78.8,0,157.7,0,236.5,0c3.2,0,3.2,0,3.2-3.3C258.1,215.4,258.1,175.9,258.1,136.5z"/>
	<path class="st1" d="M258.1,136.5c0,39.4,0,78.9,0,118.3c0,3.3,0,3.3-3.2,3.3c-78.8,0-157.7,0-236.5,0c-3.3,0-3.3,0-3.3-3.2
		c0-78.9,0-157.9,0-236.8c0-3.2,0-3.3,3.2-3.3c78.9,0,157.8,0,236.7,0c3,0,3,0,3,3.2C258.1,57.5,258.1,97,258.1,136.5z M122,144.3
		c-1-5.9-0.5-12-7.2-13.8c-5.4-1.5-10.2-0.6-13.2,5.4c-0.4-2.4-0.5-4.3-0.9-6.2c-1-4.9-3.6-7.2-8.4-7.7c-5.3-0.6-8.5,1.1-10.8,5.5
		c-0.3,0.7-1.4,1.1-2.1,1.6c-0.3-0.8-0.8-1.5-0.8-2.3c-0.1-5.8,0-11.6,0-17.4c0-7,0-13.9,0-20.9c0-5.8-2.5-8.6-8.3-9.2
		c-1.4-0.2-2.9-0.1-4.3,0.1c-5.1,0.8-7.9,4.2-7.9,9.3c0,18.3-0.1,36.6-0.1,54.9c0,11.7,0,23.4,0,35.1c0,1.5-0.2,2.6-2,2.7
		c-1.8,0.1-2-1.1-2-2.6c0-7.6,0.1-15.3,0-23c0-4.9-0.6-9.9-3.2-14.2c-1.3-2.1-3-4.2-5.1-5.4c-6.1-3.6-12-0.8-13.3,6.1
		c-0.3,1.6-0.4,3.2-0.4,4.8c0,13.6,0,27.1-0.1,40.6c0,2.5,0.6,4.6,1.8,6.7c3.6,6,7.1,12,10.6,18c5,8.5,9.4,17.2,11.8,26.8
		c0.5,2,1.3,2.5,3.3,2.5c16.8-0.1,33.5,0,50.3,0c6.1,0,12.2-0.1,18.4,0c2,0,3-0.4,2.8-2.7c-0.2-1.5,0.2-3.1,0-4.6
		c-0.6-4.3,1-7.5,3.9-10.6c2.8-3,4.9-6.6,4.9-11.1c-0.1-19.1,0-38.3-0.1-57.4c0-3.6-0.6-7.2-1.2-10.7c-0.6-3.1-2.9-4.7-6-5.2
		C128,138.8,124.4,139.6,122,144.3z M180,117.2c-0.2,1.1-0.4,1.5-0.4,2c-0.6,12.7,2.5,24.3,10,34.6c12.5,17.2,29.6,27.4,49.8,32.8
		c0.4,0.1,0.9,0.1,1.4,0.1c0.1-0.5,0.3-0.8,0.3-1.2c0-8.7,0-17.5,0-26.2c0-1.3-0.6-1.7-1.8-1.9c-13.2-1.3-24.7-6.9-35.3-14.3
		c-8.9-6.2-15.6-14.6-21.9-23.3C181.5,119.1,180.9,118.3,180,117.2z M173,73.9c5.9,4.5,8.6,10.7,10.6,17.4c0.7,2.5,1.2,5.1,1.8,7.6
		c1.4,6.9,3,13.8,6.4,20c4.5,8.4,10.2,15.9,19.1,20.1c8.1,3.9,16.9,4.7,25.8,3.9c0.8-0.1,1.5-0.3,2.4-0.6c-3-2-5.9-3.6-8.4-5.7
		c-7.9-6.6-13.8-14.9-18.4-24.1c-3.6-7.2-6.8-14.7-10.3-22c-2.8-5.8-6.9-10.5-12.6-13.5C184.3,74.4,178.9,73.2,173,73.9z M240.9,214
		c-23.4,5.6-45.2,5.1-63.2-14.6c0.6,2.6,1,4.7,1.6,6.8c4.6,16.5,14.1,28.4,31.1,33.5c9.5,2.8,19.2,3.6,29,3.4c1.8,0,1.7-1.1,1.7-2.3
		c0-8.3,0-16.5,0-24.8C241.1,215.4,241,214.8,240.9,214z M68.5,31.3c-9,0-18.1,0-27.1,0c-1.3,0-2.4,0-2.4,1.8c0,18,0,36,0,54
		c0,1.5,0.6,2,2.1,2c3.4-0.1,6.9,0,10.3,0c6-0.1,5.1,1.2,5.2-5.4c0-0.2,0.1-0.4,0-0.4c-0.5-0.6-1-1.5-1.7-1.6
		c-1.9-0.2-3.8-0.2-5.7-0.1c-1.7,0.1-2.2-0.5-2.2-2.2c0.1-12.8,0.1-25.6,0-38.3c0-1.9,0.7-2.3,2.4-2.3c12.6,0.1,25.3,0.1,37.9,0
		c2,0,2.4,0.7,2.4,2.5c-0.1,12.1,0,24.2-0.1,36.3c0,4.6,0.7,4-4,4.1c-6.1,0.1-5.2-1.2-5.3,5.6c0,1.6,0.7,2,2.1,1.9
		c4.2-0.1,8.4-0.1,12.6,0c2.1,0.1,2.7-0.5,2.7-2.7c-0.1-17.5-0.1-35.1,0-52.6c0-2-0.6-2.6-2.6-2.6C86.2,31.3,77.3,31.3,68.5,31.3z
		 M157.8,171.2c0.8,0.3,1.1,0.5,1.5,0.6c9,2.6,16.5,7.6,23,14.2c3.4,3.5,6.6,7.2,10,10.8c9.3,9.9,20.9,13.4,34.2,11.7
		c4.8-0.6,9.1-2.1,12.3-5.9c0.5-0.6,0.9-1.3,1.4-2.1c-0.8-0.2-1.1-0.3-1.5-0.4c-11.6-1.9-21.3-7.3-29.6-15.4
		c-4.4-4.3-8.8-8.4-13.5-12.4c-5-4.2-10.7-6.7-17.3-7.4C170.7,164.2,164.1,166.3,157.8,171.2z M213.4,60.4
		c-5.4,14.3-3.9,28.2,2.5,41.6c5.5,11.4,13.7,20.5,24.9,27.2c0.2-0.8,0.3-1.1,0.3-1.4c0-8.5,0-17-0.2-25.5c0-0.7-0.9-1.8-1.6-2.1
		c-5-2.5-8.9-6.1-12.2-10.5c-4.4-6-7.4-12.8-10.1-19.7C215.8,66.8,214.6,63.6,213.4,60.4z M68.3,76.8c9.3,0,16.6-7.3,16.6-16.6
		c0-9.2-7.4-16.7-16.5-16.7c-9.1,0-16.7,7.6-16.7,16.7C51.6,69.3,59.1,76.8,68.3,76.8z"/>
	<path class="st0" d="M122,144.3c2.4-4.6,5.9-5.5,10.1-4.8c3.1,0.5,5.4,2.1,6,5.2c0.7,3.5,1.2,7.1,1.2,10.7
		c0.1,19.1,0,38.3,0.1,57.4c0,4.5-2.1,8-4.9,11.1c-2.9,3.1-4.4,6.4-3.9,10.6c0.2,1.5-0.2,3.1,0,4.6c0.2,2.2-0.7,2.7-2.8,2.7
		c-6.1-0.1-12.2,0-18.4,0c-16.8,0-33.5,0-50.3,0c-1.9,0-2.8-0.5-3.3-2.5c-2.4-9.6-6.8-18.3-11.8-26.8c-3.5-6-7-12-10.6-18
		c-1.3-2.1-1.8-4.2-1.8-6.7c0.1-13.6,0-27.1,0.1-40.6c0-1.6,0.1-3.2,0.4-4.8c1.3-6.9,7.2-9.8,13.3-6.1c2.1,1.2,3.8,3.3,5.1,5.4
		c2.6,4.3,3.2,9.2,3.2,14.2c0.1,7.6,0,15.3,0,23c0,1.5,0.2,2.6,2,2.6c1.8-0.1,2-1.2,2-2.7c0-11.7,0-23.4,0-35.1
		c0-18.3,0.1-36.6,0.1-54.9c0-5.2,2.8-8.5,7.9-9.3c1.4-0.2,2.9-0.3,4.3-0.1c5.7,0.6,8.3,3.4,8.3,9.2c0,7,0,13.9,0,20.9
		c0,5.8,0,11.6,0,17.5c0,0.8,0.5,1.5,0.8,2.3c0.7-0.5,1.7-0.9,2.1-1.6c2.2-4.4,5.4-6.1,10.8-5.5c4.8,0.5,7.4,2.8,8.4,7.7
		c0.4,1.8,0.6,3.7,0.9,6.2c3.1-6,7.8-6.9,13.2-5.4C121.5,132.3,121.1,138.3,122,144.3z"/>
	<path class="st0" d="M180,117.2c0.9,1.2,1.5,1.9,2,2.7c6.3,8.7,13,17.1,21.9,23.3c10.7,7.4,22.2,13,35.4,14.3
		c1.2,0.1,1.8,0.6,1.8,1.9c0,8.7,0,17.5,0,26.2c0,0.4-0.2,0.7-0.3,1.2c-0.5-0.1-1,0-1.4-0.1c-20.2-5.4-37.3-15.6-49.8-32.8
		c-7.5-10.3-10.6-21.9-10-34.6C179.6,118.7,179.8,118.2,180,117.2z"/>
	<path class="st0" d="M173,73.9c5.9-0.7,11.3,0.5,16.4,3.2c5.8,3,9.9,7.7,12.6,13.5c3.5,7.3,6.7,14.8,10.3,22
		c4.6,9.2,10.4,17.5,18.4,24.1c2.5,2.1,5.4,3.7,8.4,5.7c-0.9,0.2-1.7,0.5-2.4,0.6c-8.9,0.8-17.7,0-25.8-3.9
		c-8.8-4.2-14.5-11.7-19.1-20.2c-3.4-6.3-5-13.1-6.4-20c-0.5-2.6-1-5.1-1.8-7.6C181.6,84.6,178.9,78.4,173,73.9z"/>
	<path class="st0" d="M240.9,214c0.1,0.8,0.1,1.4,0.1,2c0,8.3,0,16.5,0,24.8c0,1.2,0.1,2.3-1.7,2.3c-9.8,0.2-19.5-0.6-29-3.4
		c-17-5.1-26.5-17-31.1-33.5c-0.6-2.1-0.9-4.1-1.6-6.8C195.7,219.1,217.5,219.6,240.9,214z"/>
	<path class="st0" d="M68.5,31.3c8.9,0,17.8,0,26.6,0c2,0,2.6,0.5,2.6,2.6c-0.1,17.5-0.1,35.1,0,52.6c0,2.2-0.7,2.8-2.7,2.7
		c-4.2-0.1-8.4-0.1-12.6,0c-1.4,0-2.1-0.4-2.1-1.9c0.1-6.8-0.8-5.5,5.3-5.6c4.7-0.1,4,0.5,4-4.1c0-12.1,0-24.2,0.1-36.3
		c0-1.8-0.4-2.5-2.4-2.5c-12.6,0.1-25.3,0.1-37.9,0c-1.8,0-2.4,0.4-2.4,2.3c0.1,12.8,0.1,25.6,0,38.3c0,1.7,0.5,2.3,2.2,2.2
		c1.9-0.1,3.8-0.2,5.7,0.1c0.6,0.1,1.1,1,1.7,1.6c0.1,0.1,0,0.3,0,0.4c-0.1,6.7,0.8,5.3-5.2,5.4c-3.4,0.1-6.9,0-10.3,0
		c-1.4,0-2.1-0.4-2.1-2c0-18,0-36,0-54c0-1.9,1.1-1.8,2.4-1.8C50.4,31.3,59.4,31.3,68.5,31.3z"/>
	<path class="st0" d="M157.8,171.2c6.3-4.9,12.9-7,20.4-6.2c6.5,0.7,12.3,3.2,17.3,7.4c4.7,3.9,9.1,8.1,13.5,12.4
		c8.3,8.1,18,13.6,29.6,15.4c0.4,0.1,0.7,0.2,1.5,0.4c-0.5,0.8-0.9,1.5-1.4,2.1c-3.2,3.8-7.6,5.3-12.3,5.9
		c-13.3,1.6-24.9-1.8-34.2-11.7c-3.4-3.6-6.6-7.3-10-10.8c-6.5-6.6-14-11.6-23-14.2C159,171.7,158.6,171.5,157.8,171.2z"/>
	<path class="st0" d="M213.4,60.4c1.2,3.2,2.4,6.4,3.7,9.6c2.7,6.9,5.7,13.7,10.1,19.7c3.3,4.4,7.2,8.1,12.2,10.5
		c0.7,0.4,1.6,1.4,1.6,2.1c0.1,8.5,0.1,17,0.2,25.5c0,0.3-0.1,0.6-0.3,1.4c-11.2-6.7-19.4-15.8-24.9-27.2
		C209.5,88.6,208,74.7,213.4,60.4z"/>
	<path class="st0" d="M68.3,76.8c-9.2,0-16.7-7.5-16.7-16.7c0-9.1,7.6-16.7,16.7-16.7c9.2,0,16.6,7.5,16.6,16.7
		C84.9,69.5,77.6,76.8,68.3,76.8z"/>
</g>
</svg>
