<?xml version="1.0" encoding="utf-8"?>
<!-- Generator: Adobe Illustrator 28.0.0, SVG Export Plug-In . SVG Version: 6.00 Build 0)  -->
<svg version="1.1" id="Ebene_1" xmlns="http://www.w3.org/2000/svg" xmlns:xlink="http://www.w3.org/1999/xlink" x="0px" y="0px"
	 viewBox="0 0 270.97 273.3" style="enable-background:new 0 0 270.97 273.3;" xml:space="preserve">
<style type="text/css">
	.st0{fill:#FF0000;}
	.st1{fill:#FFFFFF;}
</style>
<g>
	<path class="st0" d="M8.07,266.25c0-86.04,0-171.87,0-257.81c85.99,0,171.93,0,258.07,0c0.03,0.53,0.08,1.07,0.08,1.61
		c0,84.78,0,169.56,0.03,254.34c0,1.53-0.5,1.88-1.95,1.88c-84.83-0.03-169.66-0.03-254.5-0.03C9.26,266.25,8.7,266.25,8.07,266.25z
		 M103.18,117.96c23.59,0,47.18,0,70.77,0c2.81,0,2.23,0.03,2.24-2.35c0-0.05-0.01-0.1,0-0.15c0.17-1.26-0.46-1.51-1.62-1.58
		c-2.41-0.13-4.88-0.16-7.19-0.76c-8.51-2.18-15.17-7.12-19.67-14.64c-2.98-4.98-5.47-10.25-8.07-15.44
		c-3.5-7-6.76-14.11-11.34-20.51c-4.73-6.61-10.6-11.74-18.45-14.34c-6.22-2.07-12.63-2.32-19.08-1.85
		c-6.33,0.46-12.39,1.92-17.86,5.33c-4.94,3.08-8.72,7.35-12.13,11.96c-0.89,1.21-1.77,1.86-3.32,1.56
		c-1.25-0.24-2.01,0.4-2.31,1.69c-0.3,1.3-0.76,2.56-1.14,3.84c-2.17,7.35-4.33,14.7-6.53,22.03c-0.29,0.97-0.21,1.6,0.91,1.79
		c1.16,0.19,1.38,0.91,1.03,1.91c-0.74,2.13-1.31,4.34-2.26,6.38c-2.21,4.73-5.39,8.52-10.69,9.99c-1.78,0.49-3.58,0.94-5.35,1.47
		c-0.37,0.11-0.86,0.43-0.94,0.75c-0.55,2.07,0.13,2.91,2.24,2.91C56,117.96,79.59,117.96,103.18,117.96z M181.04,117.13
		c-0.15,0.05-0.31,0.1-0.46,0.14c0,1.73-0.03,3.46,0,5.19c0.17,8.57,2.18,16.75,5.93,24.39c8.42,17.17,21.51,29.54,39.16,36.98
		c5.33,2.25,10.91,3.65,16.7,4.14c0.95,0.08,1.68,0.06,1.67-1.29c-0.04-9.27-0.03-18.53-0.01-27.8c0-0.99-0.35-1.37-1.32-1.42
		c-9.24-0.55-17.67-3.66-25.6-8.25c-13.54-7.83-24.68-18.42-34.61-30.37C182.04,118.26,181.53,117.7,181.04,117.13z M243.66,145.64
		c0.03-0.15,0.05-0.3,0.08-0.45c-0.42-0.35-0.84-0.71-1.26-1.06c-4.11-3.43-8.26-6.8-12.32-10.29
		c-5.75-4.94-10.79-10.46-13.93-17.48c-2.18-4.88-4.29-9.79-6.45-14.68c-3.28-7.45-7.39-14.3-13.28-20.08
		c-5.92-5.8-12.81-7.68-20.8-6.18c-0.47,0.09-0.94,0.23-1.4,0.35c-0.16,0.23-0.32,0.46-0.48,0.68c0.48,0.22,1.07,0.33,1.41,0.68
		c1.57,1.62,3.16,3.25,4.59,5c4.38,5.36,6.04,11.82,7.44,18.4c2.83,13.3,8.57,25.06,18.57,34.5c4.34,4.1,9.21,7.45,14.71,9.78
		c5.84,2.48,12,1.98,18.12,1.52C240.33,146.2,241.99,145.88,243.66,145.64z M244.35,201.55c-3.46-0.94-6.4-1.67-9.29-2.54
		c-6.41-1.93-12.91-3.88-18.03-8.41c-3.6-3.18-6.88-6.78-10.02-10.44c-9.74-11.32-21.71-16.07-36.49-12.77
		c-3.32,0.74-6.57,1.8-9.19,4.13c-1.39,1.23-1.23,1.94,0.43,2.71c2.52,1.16,5.07,2.27,7.57,3.47c5.16,2.47,9.77,5.68,13.42,10.16
		c3.08,3.79,6.09,7.65,9.38,11.26c5.04,5.52,11.15,9.34,18.62,10.78c6.72,1.3,13.42,1.06,20.08-0.26c3.87-0.76,7.56-2.08,10.58-4.75
		C242.41,204.01,243.2,202.87,244.35,201.55z M181.21,201.96c0,0.61-0.03,0.86,0,1.1c1.1,8.38,3.76,16.19,8.55,23.22
		c5.68,8.33,13.82,12.81,23.37,15.19c9.62,2.4,19.4,2.91,29.26,2.63c1.26-0.04,1.66-0.55,1.66-1.8c-0.04-8.55-0.02-17.09-0.03-25.64
		c0-0.49-0.06-0.99-0.1-1.73C220.66,222.1,199.95,217.49,181.21,201.96z M103.3,128.21c20.6,0,41.2,0,61.81,0
		c3.24,0,6.49-0.04,9.73,0.02c1.07,0.02,1.47-0.34,1.44-1.41c-0.06-1.65-0.01-3.3-0.01-4.94c0-2.24,0-2.24-2.26-2.24
		c-47.13,0-94.26,0-141.38,0c-0.26,0-0.52,0.03-0.77,0c-1.24-0.16-1.77,0.27-1.68,1.61c0.11,1.59,0.02,3.19,0.03,4.79
		c0,2.18,0,2.18,2.18,2.18C56.02,128.21,79.66,128.21,103.3,128.21z M75.13,47.86c0.97-0.33,1.74-0.58,2.49-0.86
		c5.04-1.87,10.22-3.15,15.6-3.46c4.22-0.24,8.27,0.83,12.31,1.85c9.58,2.41,17.86,6.97,24.18,14.76
		c4.67,5.77,7.9,12.37,11.15,18.97c3.02,6.13,6.02,12.29,9.42,18.2c3.6,6.26,9.05,10.44,16.11,12.35c0.88,0.24,1.84,0.54,2.25-0.55
		c0.41-1.1-0.64-1.34-1.35-1.7c-3.15-1.59-6.03-3.52-8.14-6.45c-3.15-4.36-5.67-9.05-7.54-14.1c-2.37-6.41-4.55-12.9-7.2-19.19
		c-3.58-8.48-8.8-15.9-16.48-21.17c-15.4-10.58-32.46-15.13-51.14-13.4c-1.38,0.13-1.87,0.53-1.84,1.93
		c0.08,3.71,0.02,7.41,0.03,11.12C74.99,46.67,75.07,47.15,75.13,47.86z M216.51,63.37c-0.38,0.74-0.63,1.07-0.74,1.45
		c-0.73,2.46-1.6,4.89-2.11,7.4c-1.3,6.37-1.17,12.79-0.38,19.21c0.63,5.1,2.01,9.97,4.55,14.48c6.08,10.79,14.97,18.87,24.98,25.87
		c0.27,0.19,0.62,0.25,0.96,0.38c0.11-0.24,0.22-0.37,0.22-0.5c0.02-9.63,0.04-19.26-0.01-28.89c0-0.4-0.52-1.04-0.92-1.15
		c-4.2-1.19-7.3-3.94-10.07-7.12c-5.78-6.65-9.62-14.44-13.04-22.46C218.8,69.31,217.76,66.53,216.51,63.37z"/>
	<path class="st1" d="M103.18,117.96c-23.59,0-47.18,0-70.77,0c-2.11,0-2.79-0.84-2.24-2.91c0.08-0.32,0.57-0.64,0.94-0.75
		c1.77-0.53,3.57-0.97,5.35-1.47c5.3-1.47,8.48-5.27,10.69-9.99c0.95-2.03,1.53-4.24,2.26-6.38c0.35-1,0.12-1.72-1.03-1.91
		c-1.12-0.19-1.2-0.81-0.91-1.79c2.2-7.34,4.35-14.69,6.53-22.03c0.38-1.28,0.84-2.54,1.14-3.84c0.3-1.29,1.06-1.93,2.31-1.69
		c1.56,0.29,2.43-0.36,3.32-1.56c3.41-4.61,7.2-8.88,12.13-11.96c5.47-3.42,11.53-4.87,17.86-5.33c6.46-0.47,12.86-0.22,19.08,1.85
		c7.85,2.61,13.72,7.74,18.45,14.34c4.58,6.4,7.84,13.51,11.34,20.51c2.6,5.2,5.1,10.46,8.07,15.44
		c4.49,7.52,11.15,12.45,19.67,14.64c2.31,0.59,4.78,0.63,7.19,0.76c1.16,0.06,1.79,0.31,1.62,1.58c-0.01,0.05,0,0.1,0,0.15
		c-0.01,2.37,0.57,2.35-2.24,2.35C150.36,117.96,126.77,117.96,103.18,117.96z"/>
	<path class="st1" d="M181.04,117.13c0.49,0.57,1,1.13,1.48,1.71c9.93,11.95,21.07,22.54,34.61,30.37c7.93,4.59,16.36,7.7,25.6,8.25
		c0.97,0.06,1.32,0.43,1.32,1.42c-0.03,9.27-0.04,18.53,0.01,27.8c0.01,1.35-0.73,1.37-1.67,1.29c-5.79-0.49-11.37-1.89-16.7-4.14
		c-17.65-7.44-30.74-19.8-39.16-36.98c-3.75-7.65-5.76-15.82-5.93-24.39c-0.03-1.73,0-3.46,0-5.19
		C180.74,117.23,180.89,117.18,181.04,117.13z"/>
	<path class="st1" d="M243.66,145.64c-1.67,0.23-3.33,0.55-5.01,0.68c-6.12,0.46-12.28,0.95-18.12-1.52
		c-5.5-2.33-10.37-5.68-14.71-9.78c-10.01-9.44-15.75-21.21-18.57-34.5c-1.4-6.59-3.07-13.05-7.44-18.4c-1.43-1.75-3.02-3.37-4.59-5
		c-0.34-0.35-0.93-0.46-1.41-0.68c0.16-0.23,0.32-0.46,0.48-0.68c0.47-0.12,0.93-0.26,1.4-0.35c7.99-1.5,14.88,0.38,20.8,6.18
		c5.89,5.77,10,12.63,13.28,20.08c2.16,4.89,4.27,9.8,6.45,14.68c3.14,7.02,8.19,12.55,13.93,17.48c4.06,3.49,8.21,6.86,12.32,10.29
		c0.42,0.35,0.84,0.71,1.26,1.06C243.71,145.34,243.69,145.49,243.66,145.64z"/>
	<path class="st1" d="M244.35,201.55c-1.15,1.32-1.94,2.45-2.94,3.34c-3.02,2.67-6.71,3.99-10.58,4.75
		c-6.67,1.31-13.36,1.55-20.08,0.26c-7.47-1.44-13.58-5.26-18.62-10.78c-3.29-3.6-6.29-7.47-9.38-11.26
		c-3.65-4.48-8.26-7.69-13.42-10.16c-2.5-1.2-5.05-2.31-7.57-3.47c-1.66-0.77-1.82-1.48-0.43-2.71c2.62-2.32,5.87-3.39,9.19-4.13
		c14.79-3.29,26.76,1.45,36.49,12.77c3.14,3.65,6.42,7.25,10.02,10.44c5.12,4.53,11.61,6.48,18.03,8.41
		C237.95,199.88,240.89,200.61,244.35,201.55z"/>
	<path class="st1" d="M181.21,201.96c18.74,15.53,39.46,20.13,62.72,12.97c0.05,0.75,0.1,1.24,0.1,1.73
		c0.01,8.55-0.02,17.09,0.03,25.64c0.01,1.25-0.39,1.76-1.66,1.8c-9.86,0.27-19.64-0.23-29.26-2.63
		c-9.55-2.38-17.68-6.86-23.37-15.19c-4.8-7.03-7.45-14.84-8.55-23.22C181.18,202.82,181.21,202.57,181.21,201.96z"/>
	<path class="st1" d="M103.3,128.21c-23.64,0-47.28,0-70.92,0c-2.18,0-2.18,0-2.18-2.18c0-1.6,0.08-3.2-0.03-4.79
		c-0.09-1.34,0.44-1.77,1.68-1.61c0.25,0.03,0.51,0,0.77,0c47.13,0,94.26,0,141.38,0c2.25,0,2.26,0,2.26,2.24
		c0,1.65-0.05,3.3,0.01,4.94c0.04,1.07-0.37,1.43-1.44,1.41c-3.24-0.05-6.49-0.02-9.73-0.02C144.5,128.21,123.9,128.21,103.3,128.21
		z"/>
	<path class="st1" d="M75.13,47.86c-0.06-0.71-0.13-1.2-0.13-1.69c-0.01-3.71,0.05-7.41-0.03-11.12c-0.03-1.4,0.45-1.8,1.84-1.93
		c18.68-1.73,35.74,2.82,51.14,13.4c7.68,5.27,12.9,12.69,16.48,21.17c2.65,6.29,4.83,12.78,7.2,19.19
		c1.87,5.05,4.39,9.74,7.54,14.1c2.11,2.93,4.99,4.85,8.14,6.45c0.71,0.36,1.76,0.6,1.35,1.7c-0.41,1.1-1.37,0.79-2.25,0.55
		c-7.07-1.91-12.51-6.09-16.11-12.35c-3.4-5.92-6.4-12.07-9.42-18.2c-3.25-6.6-6.48-13.2-11.15-18.97
		c-6.32-7.79-14.6-12.36-24.18-14.76c-4.04-1.01-8.08-2.09-12.31-1.85c-5.38,0.31-10.56,1.58-15.6,3.46
		C76.87,47.28,76.1,47.53,75.13,47.86z"/>
	<path class="st1" d="M216.51,63.37c1.25,3.16,2.29,5.94,3.45,8.67c3.42,8.02,7.26,15.82,13.04,22.46
		c2.76,3.18,5.86,5.92,10.07,7.12c0.4,0.11,0.92,0.76,0.92,1.15c0.04,9.63,0.02,19.26,0.01,28.89c0,0.13-0.11,0.27-0.22,0.5
		c-0.34-0.13-0.69-0.2-0.96-0.38c-10.01-7-18.9-15.08-24.98-25.87c-2.54-4.51-3.92-9.38-4.55-14.48
		c-0.79-6.42-0.92-12.85,0.38-19.21c0.51-2.51,1.38-4.94,2.11-7.4C215.88,64.44,216.13,64.11,216.51,63.37z"/>
</g>
</svg>
