<?xml version="1.0" encoding="utf-8"?>
<!-- Generator: Adobe Illustrator 27.6.0, SVG Export Plug-In . SVG Version: 6.00 Build 0)  -->
<svg version="1.1" id="Ebene_1" xmlns="http://www.w3.org/2000/svg" xmlns:xlink="http://www.w3.org/1999/xlink" x="0px" y="0px"
	 viewBox="0 0 271 273.3" style="enable-background:new 0 0 271 273.3;" xml:space="preserve">
<style type="text/css">
	.st0{fill:#FFFFFF;}
	.st1{fill:#E30613;}
</style>
<g>
	<path class="st0" d="M10.4,263.5c84.2,0,168.2,0,252.1,0c0-84.2,0-168.1,0-252c-84.1,0-168.1,0-252.1,0
		C10.4,95.5,10.4,179.4,10.4,263.5z"/>
	<path class="st1" d="M10.4,263.5c0-84.1,0-168,0-252c84,0,167.9,0,252.1,0c0,83.9,0,167.9,0,252C178.6,263.5,94.6,263.5,10.4,263.5
		z M144.8,107.6c0-1.4,0-2.4,0-3.4c0-23.9,0-47.8,0-71.7c0-1,0.1-2.1-0.4-2.9c-2.5-4.5-7.9-6.4-13.2-4.7c0,57.3,0,114.7,0,172.3
		c2.7,0,5.3,0,7.9,0c0.3,0,0.8-0.1,0.9-0.3c1.9-2.8,4.8-4.7,4.8-8.7c-0.1-23.6-0.1-47.3-0.1-70.9c0-1.1,0-2.1,0-3.3
		c1.9,0,3.5,0,5.2,0c0.2,0.8,0.4,1.5,0.6,2.2c2.6,7.8,8,12.6,16.1,13.9c10.6,1.6,20.3-5.8,22.1-16.4c1.7-10.4-5-20.8-14.9-22.9
		c-10.9-2.3-21,4-23.6,14.8c-0.4,1.7-1,2.3-2.7,2.1C146.8,107.5,146,107.6,144.8,107.6z M49.7,223.1c0-5,0-9.7,0-14.4
		c0-56.8,0-113.6-0.1-170.4c0-1.7-0.7-3.7-1.8-4.9c-2.1-2.3-5-2.1-7.7-1c-2.4,1.1-4,3-4,5.9c0,2.1,0.1,4.2,0.1,6.3
		c0.1,48.5,0.2,97.1,0.3,145.6c0,10,0,20,0,30c0,0.9,0.1,1.8,0.1,2.8C41,223.1,45.1,223.1,49.7,223.1z M31,24.5c-2.1,0-3.9,0-5.8,0
		c-3.7,0-8,4.4-8,8.1c0,51.4,0.1,102.8-0.1,154.2c0,4.5,2.4,7.1,4.8,10c0.2,0.3,0.7,0.6,1.1,0.6c2.6,0.1,5.3,0,8,0
		C31,139.6,31,82.3,31,24.5z M107.2,110.5c0-23.7,0-47.5,0-71.2c0-2.7-0.9-4.8-3.3-6.1c-4.7-2.6-10.7,0.9-10.7,6.2
		c0.1,47.6,0.1,95.3,0.2,142.9c0,0.5,0,1,0.1,1.5c0.4,2.6,2.1,4.5,4.5,5.2c5.2,1.3,9.1-1.8,9.1-7.3
		C107.2,158,107.2,134.2,107.2,110.5z M126.2,110.5c0-8.7,0-17.3,0-26c0-15.1,0-30.3,0-45.4c0-2.4-0.6-4.4-2.7-5.6
		c-2.4-1.4-5-1.5-7.5-0.2c-2.4,1.3-3.7,3.3-3.7,6.1c0.1,9.5,0.2,19,0.2,28.5c0,37.4,0,74.9,0,112.3c0,1-0.1,2,0,3
		c0.2,2.9,2,5.1,4.8,5.8c5.1,1.2,8.7-1.7,8.7-7.1C126.2,158.1,126.2,134.3,126.2,110.5z M68.8,110.5c0-23.7,0-47.4,0-71.2
		c0-2.8-0.9-4.9-3.4-6.2c-4.7-2.5-10.3,1-10.3,6.3c0,47.3,0,94.5,0,141.8c0,0.8,0,1.7,0.1,2.5c0.5,2.5,1.8,4.5,4.5,5.2
		c5.3,1.3,9-1.7,9.1-7.3C68.8,158,68.8,134.2,68.8,110.5z M74.3,110.7c0,0,0.1,0,0.1,0c0,15,0,30,0,44.9c0,9,0,18,0,27
		c0,3.4,1.8,5.7,4.6,6.4c5.4,1.3,9-1.6,9-7.4c0-44.8,0-89.5,0-134.3c0-3,0.2-6.1-0.1-9.1c-0.2-1.6-1.1-3.5-2.3-4.5
		c-2.2-1.9-5-1.9-7.6-0.6c-2.5,1.3-3.8,3.3-3.8,6.3C74.3,63.3,74.3,87,74.3,110.7z M192.6,121.9c-0.2,1.1-0.4,1.9-0.4,2.8
		c0,1.8,0,3.5,0.1,5.3c0.7,11.6,5.5,21.5,11.7,30.9c9.1,13.9,22,22.6,37.5,27.8c4.6,1.6,9.2,3,14.1,4.6c0-9.9,0-19.4,0-28.5
		C228.1,159.9,208.3,144.3,192.6,121.9z M255.1,148.5c-13.9-8.1-20.4-15.8-25.8-26.6c-4.2-8.4-8.2-16.9-12.2-25.4
		c-4.2-8.8-11.1-14.9-20-18.6c-3.4-1.4-7.1-1.4-11.2-0.6c1,0.9,1.6,1.5,2.2,2c4.2,3.9,7.2,8.4,8.7,14.1c2.5,10,5,20,9.9,29.3
		c5.9,11.2,13.6,20.3,25.9,25C239.7,150.5,247,150.3,255.1,148.5z M255.2,207.9c-2.9-0.9-5.6-1.8-8.2-2.6c-11-3.3-20.4-8.9-28-17.6
		c-3.2-3.6-7-6.8-10.9-9.6c-8.6-6.2-18-8-28.2-4.4c-2.9,1-5.7,2.6-8.5,3.8c0.1,0.2,0.2,0.5,0.2,0.7c0.7,0.2,1.4,0.5,2.1,0.6
		c7.2,1.9,13.6,5.3,18.5,11.1c3,3.5,6,7.1,8.8,10.7c8.1,10.4,18.7,15.7,31.8,15.6C241.1,216.1,248.7,214.1,255.2,207.9z
		 M255.6,222.4c-23.2,6.9-44.1,3.3-62.8-12.8c0.9,3.3,1.8,6.4,2.7,9.4c3.4,10.6,8.9,19.6,18.8,25.3c5.7,3.3,11.9,5.1,18.4,5.6
		c7.6,0.6,15.2,0.8,22.9,1.1C255.6,241.1,255.6,231.9,255.6,222.4z M227.4,64.5c-2.8,14.2-4.4,28,2,41.2c5.8,12,15.2,20.9,26,28.7
		c0.2-0.6,0.3-0.9,0.3-1.1c0-8.8,0.1-17.7,0-26.5c0-0.8-1-1.7-1.7-2.3c-2.9-2.2-6.6-3.7-8.9-6.4c-3.5-4.2-6.6-8.9-9.1-13.8
		C232.8,78.1,230.4,71.5,227.4,64.5z M36.4,233.8c0.3,2,0.5,3.8,0.8,5.6c0.3,1.9,0.6,3.8,0.9,5.7c1.2,6.8,0,5.3,6.3,5.5
		c0.1,0,0.2,0,0.2,0c1.3,0.2,2-0.4,2.2-1.8c0.6-3.4,1.3-6.8,1.9-10.1c0.3-1.6,0.6-3.2,1-4.9C45,233.8,40.8,233.8,36.4,233.8z"/>
	<path class="st0" d="M144.8,107.6c1.2,0,2.1-0.1,2.9,0c1.6,0.2,2.3-0.4,2.7-2.1c2.6-10.8,12.7-17.2,23.6-14.8
		c9.9,2.1,16.6,12.5,14.9,22.9c-1.8,10.6-11.5,18-22.1,16.4c-8.1-1.2-13.5-6.1-16.1-13.9c-0.2-0.7-0.4-1.4-0.6-2.2
		c-1.7,0-3.2,0-5.2,0c0,1.2,0,2.2,0,3.3c0,23.6-0.1,47.3,0.1,70.9c0,4.1-2.9,6-4.8,8.7c-0.1,0.2-0.6,0.3-0.9,0.3c-2.6,0-5.2,0-7.9,0
		c0-57.6,0-115,0-172.3c5.2-1.6,10.7,0.2,13.2,4.7c0.4,0.8,0.4,1.9,0.4,2.9c0,23.9,0,47.8,0,71.7
		C144.8,105.2,144.8,106.2,144.8,107.6z M184.3,107.5c-0.5-6.2-5.2-11.2-11.6-12.6c0,4.2,0,8.3,0,12.6
		C176.7,107.5,180.5,107.5,184.3,107.5z M184.3,114c-3.9,0-7.7,0-11.5,0c0,3.9,0,7.6,0,11.3C178,124.9,183.7,119.3,184.3,114z
		 M165.2,107.5c0-4.2,0-8.2,0-12.2c-5.3,0.7-11.1,7.2-10.8,12.2C157.9,107.5,161.4,107.5,165.2,107.5z M165.1,125.5
		c0-4.1,0-7.8,0-11.5c-3.7,0-7.2,0-10.9,0C155.9,119.7,159.4,123.4,165.1,125.5z"/>
	<path class="st0" d="M49.7,223.1c-4.6,0-8.7,0-13.1,0c0-1-0.1-1.9-0.1-2.8c0-10,0-20,0-30c-0.1-48.5-0.2-97.1-0.3-145.6
		c0-2.1-0.1-4.2-0.1-6.3c0-2.8,1.6-4.8,4-5.9c2.7-1.2,5.6-1.3,7.7,1c1.1,1.2,1.8,3.3,1.8,4.9c0.1,56.8,0.1,113.6,0.1,170.4
		C49.7,213.4,49.7,218.1,49.7,223.1z"/>
	<path class="st0" d="M31,24.5c0,57.8,0,115.2,0,172.9c-2.7,0-5.4,0-8,0c-0.4,0-0.8-0.3-1.1-0.6c-2.4-3-4.8-5.5-4.8-10
		c0.2-51.4,0.1-102.8,0.1-154.2c0-3.7,4.3-8,8-8.1C27,24.5,28.9,24.5,31,24.5z"/>
	<path class="st0" d="M107.2,110.5c0,23.7,0,47.5,0,71.2c0,5.6-3.9,8.7-9.1,7.3c-2.4-0.6-4.2-2.6-4.5-5.2c-0.1-0.5-0.1-1-0.1-1.5
		c-0.1-47.6-0.1-95.3-0.2-142.9c0-5.3,6-8.8,10.7-6.2c2.4,1.3,3.3,3.3,3.3,6.1C107.2,63,107.2,86.8,107.2,110.5z"/>
	<path class="st0" d="M126.2,110.5c0,23.8,0,47.6,0,71.4c0,5.4-3.7,8.4-8.7,7.1c-2.8-0.7-4.6-2.8-4.8-5.8c-0.1-1,0-2,0-3
		c0-37.4,0-74.9,0-112.3c0-9.5-0.1-19-0.2-28.5c0-2.9,1.3-4.8,3.7-6.1c2.5-1.4,5-1.3,7.5,0.2c2.1,1.2,2.7,3.2,2.7,5.6
		c-0.1,15.1,0,30.3,0,45.4C126.2,93.2,126.2,101.9,126.2,110.5z"/>
	<path class="st0" d="M68.8,110.5c0,23.7,0,47.4,0,71.2c0,5.6-3.8,8.6-9,7.3c-2.7-0.7-4-2.7-4.5-5.2c-0.2-0.8-0.1-1.7-0.1-2.5
		c0-47.3,0-94.5,0-141.8c0-5.3,5.6-8.8,10.3-6.3c2.5,1.3,3.4,3.4,3.4,6.2C68.8,63.1,68.8,86.8,68.8,110.5z"/>
	<path class="st0" d="M74.3,110.7c0-23.7,0-47.5,0-71.2c0-3,1.3-5,3.8-6.3c2.6-1.3,5.4-1.3,7.6,0.6c1.2,1,2.1,2.9,2.3,4.5
		c0.3,3,0.1,6,0.1,9.1c0,44.8,0,89.5,0,134.3c0,5.7-3.6,8.7-9,7.4c-2.8-0.7-4.6-3-4.6-6.4c0-9,0-18,0-27
		C74.4,140.7,74.4,125.7,74.3,110.7C74.3,110.7,74.3,110.7,74.3,110.7z"/>
	<path class="st0" d="M192.6,121.9c15.7,22.4,35.5,38,63,42.9c0,9.1,0,18.6,0,28.5c-4.8-1.6-9.5-3.1-14.1-4.6
		c-15.5-5.2-28.4-14-37.5-27.8c-6.2-9.4-11.1-19.4-11.7-30.9c-0.1-1.8-0.1-3.5-0.1-5.3C192.2,123.8,192.4,123,192.6,121.9z"/>
	<path class="st0" d="M255.1,148.5c-8.1,1.8-15.3,2-22.6-0.7c-12.2-4.6-19.9-13.8-25.9-25c-4.9-9.2-7.4-19.3-9.9-29.3
		c-1.4-5.7-4.4-10.2-8.7-14.1c-0.6-0.6-1.2-1.1-2.2-2c4.1-0.8,7.8-0.8,11.2,0.6c9,3.7,15.8,9.8,20,18.6c4.1,8.5,8,17,12.2,25.4
		C234.7,132.7,241.1,140.4,255.1,148.5z"/>
	<path class="st0" d="M255.2,207.9c-6.5,6.2-14.1,8.2-22.3,8.3c-13.1,0.1-23.7-5.2-31.8-15.6c-2.8-3.6-5.8-7.2-8.8-10.7
		c-4.9-5.7-11.3-9.2-18.5-11.1c-0.7-0.2-1.4-0.4-2.1-0.6c-0.1-0.2-0.2-0.5-0.2-0.7c2.8-1.3,5.6-2.8,8.5-3.8
		c10.1-3.6,19.6-1.8,28.2,4.4c3.9,2.9,7.7,6,10.9,9.6c7.6,8.7,17,14.3,28,17.6C249.7,206.1,252.3,207,255.2,207.9z"/>
	<path class="st0" d="M255.6,222.4c0,9.5,0,18.7,0,28.6c-7.7-0.4-15.3-0.5-22.9-1.1c-6.5-0.5-12.7-2.3-18.4-5.6
		c-9.9-5.7-15.4-14.7-18.8-25.3c-1-3-1.8-6.1-2.7-9.4C211.6,225.7,232.4,229.3,255.6,222.4z"/>
	<path class="st0" d="M227.4,64.5c3,7,5.4,13.6,8.6,19.9c2.5,4.9,5.6,9.6,9.1,13.8c2.3,2.7,5.9,4.3,8.9,6.4c0.8,0.6,1.7,1.5,1.7,2.3
		c0.1,8.8,0.1,17.7,0,26.5c0,0.2-0.1,0.4-0.3,1.1c-10.8-7.8-20.2-16.7-26-28.7C223,92.4,224.6,78.6,227.4,64.5z"/>
	<path class="st0" d="M36.4,233.8c4.4,0,8.6,0,13.2,0c-0.3,1.7-0.7,3.3-1,4.9c-0.6,3.4-1.3,6.7-1.9,10.1c-0.2,1.4-0.8,1.9-2.2,1.8
		c-0.1,0-0.2,0-0.2,0c-6.3-0.2-5.1,1.3-6.3-5.5c-0.3-1.9-0.6-3.8-0.9-5.7C36.9,237.7,36.7,235.9,36.4,233.8z"/>
	<path class="st1" d="M184.3,107.5c-3.9,0-7.6,0-11.6,0c0-4.3,0-8.4,0-12.6C179.1,96.2,183.8,101.3,184.3,107.5z"/>
	<path class="st1" d="M184.3,114c-0.6,5.3-6.2,10.9-11.5,11.3c0-3.7,0-7.5,0-11.3C176.6,114,180.3,114,184.3,114z"/>
	<path class="st1" d="M165.2,107.5c-3.8,0-7.3,0-10.8,0c-0.4-5,5.4-11.6,10.8-12.2C165.2,99.3,165.2,103.3,165.2,107.5z"/>
	<path class="st1" d="M165.1,125.5c-5.7-2-9.1-5.8-10.9-11.5c3.7,0,7.2,0,10.9,0C165.1,117.7,165.1,121.4,165.1,125.5z"/>
</g>
</svg>
