<?xml version="1.0" encoding="utf-8"?>
<!-- Generator: Adobe Illustrator 28.0.0, SVG Export Plug-In . SVG Version: 6.00 Build 0)  -->
<svg version="1.1" id="Ebene_1" xmlns="http://www.w3.org/2000/svg" xmlns:xlink="http://www.w3.org/1999/xlink" x="0px" y="0px"
	 viewBox="0 0 270.97 273.3" style="enable-background:new 0 0 270.97 273.3;" xml:space="preserve">
<style type="text/css">
	.st0{fill:#FF0000;}
	.st1{fill:#FFFFFF;}
</style>
<g>
	<path class="st0" d="M256.08,17.01c0,77.49,0,159.82,0,237.31c-0.11,0.67-0.36,1.35-0.31,2.01c0.16,2.11-0.38,3.91-2.03,5.31
		c-78.56,0-235.68,0-235.68,0l-2.93-0.03l0-239.75l0.01-7.32c0,0,65.77,0,97.19,0c-0.02,0.44-0.05,0.88-0.05,1.31
		c0,46.34,0,92.68,0,139.02c0,1.9,0.09,2.01,1.96,2.03c11.61,0.16,23.21,0.44,34.82,0.45c21.12,0.03,42.24-0.12,63.36-0.14
		c10.49-0.01,20.97,0.1,31.46,0.15c3.46,0.02,6.93-0.01,10.39,0.02c1.11,0.01,1.64-0.43,1.59-1.55c-0.04-0.83-0.04-1.66-0.04-2.49
		c0-43.27,0-91.38,0.01-134.65C255.82,18.14,255.99,17.58,256.08,17.01z M137.7,230.3c0.03-0.17,0.06-0.35,0.08-0.52
		c1.07,0.08,2.14,0.16,3.21,0.26c3.05,0.26,6.1,0.58,9.16,0.76c0.65,0.04,1.47-0.26,1.98-0.68c3.41-2.82,6.75-5.73,10.13-8.59
		c4.39-3.7,8.8-7.37,13.19-11.07c1.93-1.63,3.92-3.21,5.74-4.95c0.53-0.5,0.95-1.61,0.78-2.27c-0.61-2.24-1.62-4.37-2.26-6.6
		c-0.79-2.76-0.97-3.48,1.45-4.68c2.16-1.07,2.19-1.42,1.64-3.87c-0.26-1.18-0.73-2.3-1.08-3.46c-1.34-4.48-3.6-8.48-6.46-12.13
		c-3.2-4.08-7.19-7.15-11.93-9.34c-3.12-1.45-6.32-2.56-9.69-2.88c-4.75-0.45-9.49-0.48-14.22,0.81c-3.25,0.88-6.2,2.1-8.8,4.24
		c-1.65,1.36-3.43,2.55-5.17,3.81c-3.38,2.46-6.86,4.79-10.11,7.4c-2.3,1.84-4.63,2.95-7.62,2.42c-1.87-0.33-3.75-0.58-5.64-0.74
		c-2.87-0.23-5.74-0.32-8.61-0.51c-4.86-0.32-9.72-0.67-14.58-1.01c-0.29-0.02-0.58-0.05-0.87-0.08
		c-6.29-0.69-12.58-1.39-18.88-2.05c-1.99-0.21-3.98-0.39-5.98-0.43c-3.94-0.08-7.86,0.04-10.62,3.56
		c-0.09,0.11-0.24,0.16-0.36,0.25c-4.51,3.33-7.09,8.07-9.22,13.06c-1.38,3.24-2.4,6.65-3.53,10c-1.68,5-2.67,10.14-3.17,15.38
		c-0.32,3.34-0.29,3.47,3.02,3.86c5.85,0.69,11.72,1.22,17.57,1.83c0.47,0.05,0.94,0.21,1.75,0.39c-0.83,0.74-1.33,1.26-1.9,1.69
		c-3.45,2.61-6.95,5.15-10.38,7.79c-6.78,5.24-12.15,11.44-13.78,20.22c-0.39,2.1,0.51,3.52,2.67,3.69
		c7.04,0.53,14.09,1.03,21.14,1.54c0.73,0.05,1.46,0.11,2.19,0.18c6.4,0.6,12.8,1.21,19.2,1.81c3.88,0.36,7.76,0.74,11.64,1.07
		c1.7,0.14,3.41,0.28,5.11,0.23c0.82-0.03,1.73-0.35,2.41-0.81c2.54-1.7,5.02-3.51,7.5-5.29c0.92-0.66,1.76-0.74,2.59,0.15
		c0.63,0.68,1.37,1.26,1.95,1.97c1.34,1.63,2.99,2.21,5.06,1.87c2.68-0.44,5.37-0.85,8.07-1.18c4.2-0.52,8.41-0.97,12.62-1.46
		c4.69-0.54,9.37-1.11,14.06-1.61c2.47-0.26,4.95-0.4,7.43-0.61c1.32-0.11,2.15-0.86,2.02-2.19c-0.24-2.32-0.39-4.7-1.07-6.9
		c-0.98-3.2-2.56-6.18-4.77-8.77C140.82,234,139.27,232.15,137.7,230.3z M78.8,54.67c-0.19,0.06-0.37,0.11-0.56,0.17
		c0.04,0.7,0.01,1.41,0.16,2.08c0.17,0.8,0.72,1.57,0.72,2.35c0.05,5.29,0.92,10.63-0.89,15.8c-1.17,3.33-2.05,6.83-3.75,9.87
		c-2.74,4.9-6,9.51-9.11,14.2c-3.71,5.59-7.16,11.24-8.6,17.97c-0.75,3.53-0.42,6.86,0.73,10.05c1.8,4.98,5.71,8.24,10.22,10.77
		c0.56,0.31,1.6,0.41,2.03,0.09c0.37-0.28,0.37-1.34,0.21-1.98c-1.41-5.61-0.84-11.17,0.81-16.57c0.91-2.98,2.38-5.83,3.93-8.55
		c2.67-4.67,5.7-9.13,8.38-13.79c1.51-2.63,2.73-5.45,3.85-8.28c0.76-1.93,1.17-4,1.61-6.04c1.06-4.79,0.59-9.55-0.97-14.11
		c-0.96-2.81-2.46-5.49-4.03-8.03C82.19,58.53,80.4,56.66,78.8,54.67z M36.52,104.19c0.47,2.08,0.88,3.85,1.29,5.62
		c0.57,2.5,1.48,4.98,1.6,7.49c0.13,2.57-0.4,5.2-0.86,7.77c-0.58,3.24-1.94,6.26-4.01,8.77c-1.94,2.34-4.31,4.33-6.55,6.41
		c-2.06,1.91-3.86,4-3.44,7.02c0.43,3.1,2.21,5.56,4.43,7.69c0.31,0.3,0.83,0.39,1.73,0.78c-0.23-1.24-0.34-2.05-0.53-2.85
		c-1.07-4.55-0.7-6.76,2.31-8.88c2.9-2.05,5.46-4.39,7.63-7.15c3.34-4.24,7.36-8.01,8.73-13.6c0.86-3.52,0.45-6.81-0.98-9.95
		c-1.96-4.29-5.78-6.69-9.8-8.77C37.7,104.36,37.26,104.35,36.52,104.19z M93.64,105.14c0.2,0.83,0.3,1.38,0.46,1.91
		c0.51,1.76,1.28,3.49,1.51,5.29c0.32,2.45,0.35,4.96,0.32,7.44c-0.08,5.18-1.55,10.03-4.59,14.19c-1.72,2.36-4.08,4.27-6.21,6.32
		c-1.96,1.88-3.56,3.92-3.16,6.84c0.31,2.23,1.53,4.07,2.81,5.85c0.17,0.23,0.63,0.5,0.8,0.42c0.29-0.13,0.61-0.51,0.65-0.82
		c0.09-0.77-0.03-1.56,0.03-2.34c0.26-3.27,1.26-5.95,4.24-7.99c3.64-2.48,7.01-5.4,10.27-8.38c3.52-3.21,5.58-7.43,5.54-12.15
		c-0.05-5.41-1.6-10.5-6.03-14.17C98.48,106.06,96.35,105.32,93.64,105.14z"/>
	<path class="st0" d="M115.55,14.54c46.06,0,92.12,0,138.19,0c0.98,0.93,1.57,1.95,1.57,3.42c-0.03,44.94-0.03,89.87-0.03,134.81
		c0,1.81-0.12,1.93-1.9,1.93c-45.33,0-90.65,0-135.98,0c-2,0-2.17-0.18-2.17-2.18c0-45.33,0-90.65,0.01-135.98
		C115.24,15.87,115.44,15.21,115.55,14.54z M252.93,84.81C252.93,84.81,252.93,84.81,252.93,84.81c0-21.81,0-43.61,0.01-65.42
		c0-2.36-0.21-2.58-2.59-2.58c-30.64,0-61.27,0-91.91,0c-12.93,0-25.85,0-38.78,0c-1.77,0-2.04,0.26-2.11,1.99
		c-0.02,0.54-0.01,1.07-0.01,1.61c0,13.27,0,26.54,0,39.81c0,29.95,0,59.9,0,89.86c0,2.27,0.09,2.36,2.1,2.36
		c43.56,0,87.12,0,130.69,0c2.52,0,2.6-0.08,2.6-2.66C252.93,128.13,252.93,106.47,252.93,84.81z"/>
	<path class="st1" d="M253.73,261.64c1.66-1.39,2.19-3.2,2.03-5.31c-0.05-0.66,0.2-1.34,0.31-2.01c0,2.44,0,4.88,0,7.32
		C255.29,261.64,254.51,261.64,253.73,261.64z"/>
	<path class="st1" d="M137.7,230.3c1.56,1.84,3.12,3.69,4.69,5.53c2.22,2.58,3.79,5.57,4.77,8.77c0.68,2.2,0.83,4.59,1.07,6.9
		c0.14,1.33-0.69,2.07-2.02,2.19c-2.48,0.21-4.96,0.35-7.43,0.61c-4.69,0.5-9.37,1.07-14.06,1.61c-4.21,0.48-8.42,0.93-12.62,1.46
		c-2.7,0.34-5.39,0.75-8.07,1.18c-2.06,0.34-3.72-0.24-5.06-1.87c-0.58-0.71-1.32-1.3-1.95-1.97c-0.83-0.89-1.67-0.81-2.59-0.15
		c-2.49,1.78-4.96,3.59-7.5,5.29c-0.69,0.46-1.6,0.79-2.41,0.81c-1.7,0.06-3.41-0.08-5.11-0.23c-3.88-0.33-7.76-0.7-11.64-1.07
		c-6.4-0.6-12.8-1.21-19.2-1.81c-0.73-0.07-1.46-0.13-2.19-0.18c-7.05-0.51-14.09-1.01-21.14-1.54c-2.16-0.16-3.06-1.59-2.67-3.69
		c1.62-8.78,6.99-14.98,13.78-20.22c3.42-2.64,6.92-5.19,10.38-7.79c0.57-0.43,1.07-0.95,1.9-1.69c-0.82-0.19-1.28-0.34-1.75-0.39
		c-5.86-0.61-11.73-1.14-17.57-1.83c-3.31-0.39-3.34-0.52-3.02-3.86c0.5-5.24,1.49-10.39,3.17-15.38c1.13-3.35,2.15-6.75,3.53-10
		c2.13-4.98,4.7-9.72,9.22-13.06c0.12-0.09,0.27-0.14,0.36-0.25c2.76-3.52,6.67-3.64,10.62-3.56c2,0.04,3.99,0.22,5.98,0.43
		c6.3,0.66,12.59,1.37,18.88,2.05c0.29,0.03,0.58,0.06,0.87,0.08c4.86,0.34,9.72,0.69,14.58,1.01c2.87,0.19,5.75,0.28,8.61,0.51
		c1.89,0.15,3.78,0.41,5.64,0.74c2.99,0.53,5.32-0.58,7.62-2.42c3.25-2.61,6.73-4.94,10.11-7.4c1.73-1.26,3.51-2.45,5.17-3.81
		c2.6-2.14,5.55-3.35,8.8-4.24c4.73-1.29,9.47-1.26,14.22-0.81c3.37,0.32,6.57,1.44,9.69,2.88c4.74,2.2,8.73,5.26,11.93,9.34
		c2.86,3.65,5.12,7.65,6.46,12.13c0.35,1.16,0.81,2.29,1.08,3.46c0.55,2.45,0.52,2.79-1.64,3.87c-2.42,1.2-2.24,1.93-1.45,4.68
		c0.64,2.23,1.65,4.36,2.26,6.6c0.18,0.65-0.25,1.76-0.78,2.27c-1.82,1.74-3.8,3.33-5.74,4.95c-4.39,3.69-8.81,7.37-13.19,11.07
		c-3.38,2.85-6.72,5.77-10.13,8.59c-0.51,0.42-1.33,0.72-1.98,0.68c-3.06-0.18-6.11-0.5-9.16-0.76c-1.07-0.09-2.14-0.17-3.21-0.26
		C137.76,229.96,137.73,230.13,137.7,230.3z M60.68,219.08c-0.8,0.84-1.22,1.41-1.75,1.83c-1.31,1-2.67,1.94-4.01,2.89
		c-4.39,3.12-8.71,6.37-13.21,9.32c-4.39,2.87-8.72,5.79-11.46,10.37c-1.22,2.04-1.92,4.42-2.7,6.69c-0.33,0.96,0.16,1.61,1.35,1.71
		c8.69,0.71,17.37,1.45,26.05,2.24c8.29,0.76,16.58,1.6,24.87,2.4c1.55,0.15,2.89-0.18,4.21-1.19c3.32-2.53,6.78-4.87,10.16-7.32
		c0.68-0.49,1.21-0.52,1.79,0.08c1.04,1.09,2.11,2.15,3.13,3.26c1.79,1.95,3.46,3.94,6.61,3.47c4.81-0.71,9.64-1.25,14.46-1.83
		c1.35-0.16,2.72-0.19,4.08-0.35c5.51-0.64,11.02-1.28,16.53-1.98c1-0.13,1.99-0.45,2.92-0.84c0.35-0.15,0.77-0.74,0.74-1.1
		c-0.07-0.96-0.21-1.97-0.58-2.85c-1.59-3.77-3.92-7.03-7.08-9.66c-3.21-2.68-6.48-5.3-9.64-8.04c-0.67-0.58-1-1.55-1.49-2.34
		c0.95-0.27,1.91-0.82,2.83-0.75c6.17,0.44,12.34,0.91,18.48,1.57c2.58,0.28,4.54-0.27,6.45-2.13c4.85-4.72,9.88-9.25,14.86-13.82
		c3.04-2.8,6.13-5.55,9.2-8.31c0.99-0.89,0.99-2.07,0.57-3.11c-0.8-2.02-1.77-3.98-2.75-5.92c-0.6-1.18-0.65-2.12,0.63-2.82
		c0.43-0.23,0.85-0.47,1.28-0.69c1.3-0.67,1.78-1.76,1.38-3.14c-1.16-4.03-3.39-7.49-5.92-10.76c-3.51-4.54-7.47-8.5-13.05-10.55
		c-3.09-1.14-6.2-2.02-9.49-1.84c-2.56,0.14-5.1,0.57-7.65,0.91c-3.4,0.45-6.38,2.05-9.19,3.84c-2.98,1.89-5.71,4.17-8.58,6.24
		c-2.32,1.67-4.9,3.06-6.98,4.98c-3.29,3.05-6.8,4.6-11.35,3.76c-3-0.55-6.08-0.71-9.12-1.02c-1.02-0.1-2.05-0.08-3.06-0.18
		c-6.35-0.65-12.69-1.34-19.04-1.99c-1.65-0.17-3.31-0.18-4.96-0.33c-6.5-0.61-13.01-1.15-19.49-1.91c-2.85-0.33-4.85,0.8-6.68,2.73
		c-2.91,3.06-5.34,6.43-6.88,10.37c-1.44,3.69-2.9,7.4-3.99,11.2c-0.83,2.93-1.08,6.02-1.61,9.04c-0.22,1.24-0.5,2.48-0.68,3.72
		c-0.14,0.94,0.32,1.43,1.3,1.53c2.66,0.29,5.31,0.71,7.97,0.94c5.48,0.48,10.97,0.86,16.46,1.3
		C57.81,218.79,59,218.92,60.68,219.08z"/>
	<path class="st1" d="M78.8,54.67c1.59,2,3.38,3.87,4.72,6.03c1.57,2.54,3.07,5.22,4.03,8.03c1.56,4.56,2.03,9.32,0.97,14.11
		c-0.45,2.03-0.86,4.11-1.61,6.04c-1.11,2.83-2.34,5.65-3.85,8.28c-2.67,4.67-5.71,9.12-8.38,13.79c-1.55,2.72-3.02,5.57-3.93,8.55
		c-1.65,5.4-2.22,10.96-0.81,16.57c0.16,0.64,0.16,1.7-0.21,1.98c-0.43,0.32-1.48,0.22-2.03-0.09c-4.5-2.53-8.42-5.79-10.22-10.77
		c-1.15-3.18-1.48-6.51-0.73-10.05c1.44-6.74,4.89-12.38,8.6-17.97c3.11-4.69,6.37-9.3,9.11-14.2c1.7-3.04,2.59-6.54,3.75-9.87
		c1.81-5.17,0.95-10.52,0.89-15.8c-0.01-0.79-0.55-1.55-0.72-2.35c-0.14-0.67-0.11-1.39-0.16-2.08
		C78.43,54.78,78.62,54.72,78.8,54.67z"/>
	<path class="st1" d="M36.52,104.19c0.74,0.16,1.18,0.17,1.53,0.35c4.02,2.08,7.84,4.49,9.8,8.77c1.44,3.14,1.84,6.43,0.98,9.95
		c-1.36,5.59-5.39,9.36-8.73,13.6c-2.17,2.75-4.73,5.1-7.63,7.15c-3,2.12-3.38,4.33-2.31,8.88c0.19,0.8,0.3,1.62,0.53,2.85
		c-0.9-0.4-1.42-0.49-1.73-0.78c-2.23-2.12-4-4.59-4.43-7.69c-0.42-3.02,1.37-5.1,3.44-7.02c2.24-2.08,4.62-4.06,6.55-6.41
		c2.07-2.51,3.43-5.53,4.01-8.77c0.46-2.57,0.99-5.2,0.86-7.77c-0.12-2.52-1.03-5-1.6-7.49C37.4,108.04,36.99,106.26,36.52,104.19z"
		/>
	<path class="st1" d="M93.64,105.14c2.72,0.18,4.84,0.92,6.64,2.42c4.43,3.67,5.99,8.76,6.03,14.17c0.04,4.72-2.02,8.94-5.54,12.15
		c-3.26,2.98-6.63,5.9-10.27,8.38c-2.99,2.03-3.98,4.72-4.24,7.99c-0.06,0.78,0.06,1.57-0.03,2.34c-0.04,0.31-0.36,0.69-0.65,0.82
		c-0.17,0.08-0.63-0.19-0.8-0.42c-1.28-1.78-2.5-3.62-2.81-5.85c-0.4-2.92,1.2-4.96,3.16-6.84c2.13-2.05,4.49-3.96,6.21-6.32
		c3.03-4.16,4.51-9.01,4.59-14.19c0.04-2.48,0-4.99-0.32-7.44c-0.24-1.8-1-3.53-1.51-5.29C93.94,106.51,93.83,105.97,93.64,105.14z"
		/>
	<path class="st1" d="M252.93,84.81c0,21.66,0,43.32,0,64.98c0,2.57-0.08,2.66-2.6,2.66c-43.56,0-87.12,0-130.69,0
		c-2.01,0-2.1-0.09-2.1-2.36c0-29.95,0-59.9,0-89.86c0-13.27,0-26.54,0-39.81c0-0.54-0.01-1.07,0.01-1.61
		c0.06-1.73,0.34-1.99,2.11-1.99c12.93,0,25.85,0,38.78,0c30.64,0,61.27,0,91.91,0c2.38,0,2.59,0.21,2.59,2.58
		C252.93,41.2,252.93,63,252.93,84.81C252.93,84.81,252.93,84.81,252.93,84.81z M187.21,43.1c0,0.01,0,0.02,0,0.04
		c-1.76,0-3.51-0.04-5.27,0.03c-0.46,0.02-1.14,0.27-1.33,0.62c-0.52,0.98-0.83,2.06-1.22,3.11c-0.97,2.64-1.94,5.28-2.9,7.92
		c-0.91,2.5-1.79,5.01-2.7,7.52c-0.84,2.33-1.7,4.65-2.56,6.97c-0.95,2.54-1.91,5.07-2.86,7.61c-0.98,2.63-1.96,5.26-2.93,7.9
		c-0.86,2.36-1.7,4.73-2.55,7.1c-0.89,2.46-1.75,4.93-2.67,7.38c-1.28,3.45-2.62,6.88-3.89,10.33c-0.92,2.5-1.75,5.03-2.67,7.53
		c-1.28,3.45-2.63,6.88-3.92,10.33c-0.44,1.18-0.84,2.38-1.17,3.59c-0.2,0.75-0.02,1.39,0.96,1.38c3.17-0.02,6.34,0.01,9.51-0.1
		c0.49-0.02,1.15-0.52,1.41-0.97c0.48-0.83,0.75-1.78,1.06-2.7c1.48-4.3,2.95-8.61,4.42-12.91c0.45-1.33,0.97-2.65,1.3-4.01
		c0.47-1.91,0.91-2.35,2.88-2.36c4.78-0.01,9.56,0,14.34,0c6.88,0,13.76,0.02,20.63-0.02c1.05-0.01,1.81,0.25,2.16,1.3
		c0.36,1.05,0.71,2.11,1.08,3.16c0.97,2.74,1.95,5.47,2.92,8.21c1.13,3.2,2.23,6.41,3.41,9.59c0.13,0.35,0.69,0.76,1.06,0.76
		c3.27,0.05,6.54,0.03,9.8,0.01c0.78,0,1.04-0.47,0.81-1.18c-0.36-1.1-0.75-2.2-1.16-3.29c-0.95-2.54-1.93-5.07-2.88-7.61
		c-0.97-2.58-1.92-5.17-2.88-7.76c-0.87-2.37-1.74-4.74-2.59-7.11c-0.9-2.5-1.77-5.02-2.67-7.52c-0.96-2.64-1.94-5.27-2.92-7.9
		c-0.93-2.5-1.89-4.98-2.82-7.48c-0.88-2.36-1.76-4.72-2.61-7.09c-0.9-2.5-1.73-5.03-2.64-7.53c-0.95-2.64-1.96-5.26-2.93-7.89
		c-0.87-2.36-1.72-4.73-2.59-7.1c-0.96-2.64-2.01-5.24-2.85-7.92c-0.4-1.27-1.04-1.94-2.35-1.94
		C190.73,43.09,188.97,43.1,187.21,43.1z"/>
	<path class="st0" d="M60.68,219.08c-1.68-0.16-2.86-0.29-4.05-0.38c-5.49-0.43-10.98-0.82-16.46-1.3
		c-2.66-0.23-5.31-0.65-7.97-0.94c-0.98-0.11-1.44-0.59-1.3-1.53c0.18-1.25,0.47-2.48,0.68-3.72c0.52-3.02,0.77-6.11,1.61-9.04
		c1.08-3.81,2.54-7.51,3.99-11.2c1.54-3.93,3.98-7.31,6.88-10.37c1.83-1.93,3.83-3.06,6.68-2.73c6.48,0.76,12.99,1.3,19.49,1.91
		c1.65,0.15,3.31,0.16,4.96,0.33c6.35,0.64,12.69,1.33,19.04,1.99c1.02,0.1,2.05,0.08,3.06,0.18c3.05,0.31,6.12,0.47,9.12,1.02
		c4.55,0.84,8.07-0.71,11.35-3.76c2.08-1.93,4.66-3.31,6.98-4.98c2.87-2.07,5.6-4.34,8.58-6.24c2.81-1.79,5.78-3.39,9.19-3.84
		c2.55-0.34,5.09-0.76,7.65-0.91c3.29-0.19,6.4,0.7,9.49,1.84c5.58,2.05,9.54,6.01,13.05,10.55c2.53,3.27,4.75,6.73,5.92,10.76
		c0.4,1.38-0.08,2.47-1.38,3.14c-0.43,0.22-0.85,0.46-1.28,0.69c-1.29,0.7-1.23,1.64-0.63,2.82c0.98,1.94,1.95,3.9,2.75,5.92
		c0.41,1.04,0.42,2.21-0.57,3.11c-3.07,2.77-6.16,5.52-9.2,8.31c-4.98,4.58-10.02,9.11-14.86,13.82c-1.91,1.86-3.87,2.41-6.45,2.13
		c-6.15-0.66-12.32-1.14-18.48-1.57c-0.92-0.07-1.89,0.49-2.83,0.75c0.49,0.79,0.82,1.76,1.49,2.34c3.16,2.74,6.42,5.36,9.64,8.04
		c3.16,2.63,5.49,5.89,7.08,9.66c0.37,0.88,0.51,1.89,0.58,2.85c0.02,0.36-0.39,0.95-0.74,1.1c-0.93,0.39-1.92,0.71-2.92,0.84
		c-5.5,0.7-11.02,1.34-16.53,1.98c-1.35,0.16-2.72,0.18-4.08,0.35c-4.83,0.58-9.66,1.12-14.46,1.83c-3.15,0.47-4.82-1.53-6.61-3.47
		c-1.02-1.11-2.09-2.17-3.13-3.26c-0.58-0.6-1.11-0.58-1.79-0.08c-3.38,2.45-6.85,4.79-10.16,7.32c-1.32,1.01-2.66,1.34-4.21,1.19
		c-8.29-0.8-16.57-1.64-24.87-2.4c-8.68-0.79-17.36-1.53-26.05-2.24c-1.2-0.1-1.69-0.74-1.35-1.71c0.78-2.28,1.48-4.65,2.7-6.69
		c2.74-4.58,7.07-7.5,11.46-10.37c4.51-2.95,8.82-6.2,13.21-9.32c1.34-0.95,2.7-1.89,4.01-2.89
		C59.46,220.49,59.88,219.92,60.68,219.08z M51.3,179.43c-1.8-0.64-3.03-0.51-4.3,0.53c-5.51,4.49-8.61,10.51-10.76,17.12
		c-0.57,1.75-1.09,3.53-1.46,5.34c-0.76,3.75-1.42,7.53-2.09,11.3c-0.19,1.06,0.29,1.6,1.43,1.7c6.84,0.58,13.67,1.24,20.5,1.8
		c6.75,0.55,13.5,1.01,20.25,1.52c0.63,0.05,1.26,0.11,1.89,0.17c7.31,0.68,14.63,1.37,21.94,2.04c1.07,0.1,2.15,0.01,3.21,0.13
		c5.76,0.61,11.51,1.31,17.27,1.88c3.97,0.39,7.96,0.61,11.94,0.95c4.32,0.37,8.63,0.79,12.94,1.16c1.41,0.12,2.83,0.26,4.23,0.2
		c0.47-0.02,1.2-0.53,1.32-0.96c1.09-3.86,2.03-7.77,3.11-11.64c1.04-3.72,2.18-7.42,3.33-11.11c1.26-4.05,3.67-7.33,6.92-10.02
		c0.46-0.38,0.7-1.01,1.05-1.53c-0.58-0.26-1.15-0.71-1.75-0.76c-3.3-0.27-6.62-0.37-9.92-0.66c-5.76-0.5-11.51-1.12-17.27-1.65
		c-2.38-0.22-4.77-0.28-7.15-0.46c-3.83-0.3-7.67-0.63-11.5-0.95c-0.39-0.03-0.77-0.09-1.16-0.12c-3.83-0.36-7.66-0.74-11.49-1.04
		c-0.49-0.04-1.22,0.23-1.48,0.61c-0.87,1.23-2,1.67-3.41,1.53c-2.18-0.22-4.35-0.53-6.53-0.72c-5.92-0.54-11.84-1.02-17.75-1.55
		c-7.17-0.64-14.35-1.31-21.52-1.94C51.13,182.08,50.68,181.46,51.3,179.43z M79.38,237.42c-0.09-0.21-0.17-0.41-0.26-0.62
		c6.19-4.66,12.65-8.97,18.85-14.36c-0.92-0.19-1.36-0.32-1.81-0.37c-2.61-0.28-5.22-0.59-7.84-0.8c-2.33-0.18-4.67-0.28-7.01-0.3
		c-0.63-0.01-1.33,0.28-1.89,0.62c-2.89,1.78-5.74,3.63-8.63,5.43c-0.71,0.44-1.51,0.89-2.41-0.09c2.4-1.66,4.72-3.23,6.99-4.88
		c0.4-0.29,0.57-0.89,0.85-1.34c-0.45-0.21-0.89-0.58-1.36-0.62c-1.75-0.16-3.51-0.31-5.26-0.25c-0.86,0.03-1.83,0.33-2.54,0.81
		c-3.62,2.43-7.18,4.96-10.75,7.47c-0.68,0.48-1.32,0.76-2.12-0.04c1.33-0.96,2.57-1.87,3.83-2.75c2.19-1.52,4.41-2.99,6.59-4.52
		c0.21-0.15,0.41-0.63,0.32-0.82c-0.1-0.23-0.57-0.49-0.8-0.43c-0.69,0.17-1.44,0.37-2.01,0.77c-3.67,2.54-7.32,5.11-10.94,7.71
		c-1.95,1.4-3.84,2.89-5.98,4.5c0.66,0.22,0.99,0.44,1.28,0.4c1.14-0.15,2.28-0.35,3.41-0.58c3.8-0.77,7.45,0.43,11.15,0.91
		c1.26,0.16,2.54,0.69,3.68,1.3c2.25,1.21,4.5,2.47,6.59,3.94c4.94,3.48,8.05,8.35,10.04,13.96c0.63,1.78,1.22,2.08,2.8,0.98
		c5.52-3.86,11.05-7.73,16.58-11.58c3.31-2.3,6.66-4.55,9.96-6.87c3.65-2.57,7.27-5.18,10.88-7.8c0.97-0.71,1.84-1.55,3.03-2.56
		c-0.82-0.22-1.13-0.36-1.45-0.39c-4.85-0.4-9.7-0.78-14.55-1.16c-2.14-0.17-4.29-0.2-6.41-0.53c-1.14-0.18-2.01,0.08-2.85,0.7
		c-2.24,1.63-4.46,3.28-6.67,4.94c-3.8,2.86-7.57,5.76-11.39,8.59C80.77,237.17,80.02,237.22,79.38,237.42z M151.38,165
		c-3.57,0.36-6.14,0.36-8.59,0.92c-4.57,1.04-8.79,2.99-12.55,5.85c-2.11,1.61-4.17,3.29-6.31,4.86c-2.61,1.91-5.3,3.71-7.93,5.59
		c-0.83,0.59-0.74,1.23,0.23,1.5c1.07,0.3,2.19,0.52,3.3,0.61c5.43,0.48,10.87,0.85,16.3,1.37c5.66,0.54,11.3,1.29,16.96,1.81
		c2.86,0.26,5.77,0.06,8.62,0.36c2.93,0.31,5.94,0.66,8.71,1.61c2.07,0.71,3.78,1.81,5.56-0.29c0.09-0.1,0.25-0.14,0.38-0.22
		c1.13-0.69,1.43-1.66,0.83-2.83c-0.55-1.08-1.18-2.11-1.71-3.2c-2.37-4.91-5.82-8.97-9.9-12.5c-1.63-1.41-3.39-2.96-5.36-3.63
		C156.87,165.78,153.6,165.44,151.38,165z M109.5,241.86c-0.58-0.99-0.94-1.78-1.47-2.44c-0.2-0.25-0.93-0.42-1.16-0.26
		c-1.88,1.3-3.71,2.65-5.51,4.05c-0.73,0.57-0.79,1.32-0.05,2c0.75,0.69,1.64,1.27,2.26,2.06c0.44,0.56,0.53,1.39,0.78,2.1
		c-0.65-0.26-1.42-0.38-1.91-0.81c-0.98-0.86-1.72-2.02-2.75-2.81c-0.45-0.34-1.53-0.33-2.03-0.01c-0.73,0.46-0.47,1.23,0.16,1.85
		c0.73,0.71,1.46,1.45,2.06,2.27c1.88,2.59,4.2,3.85,7.52,3.11c1.35-0.3,2.14-0.77,2.68-2.05c1.24-3,2.56-5.99,5.09-8.19
		c2.79-2.43,5.79-4.14,9.64-2.37c0.24,0.11,0.59,0.07,0.85,0c0.98-0.27,1.96-0.56,2.92-0.9c2.77-0.97,4.62-0.53,6.27,1.98
		c1.43,2.17,2.52,4.57,3.82,6.83c0.25,0.44,0.79,1,1.19,0.99c0.66-0.02,1.43-0.33,1.9-0.78c0.23-0.22,0.05-1.11-0.2-1.56
		c-0.53-0.98-1.17-1.91-1.85-2.79c-2.49-3.24-4.13-7.11-7.64-9.62c-2.24-1.6-4.11-3.71-6.2-5.52c-0.3-0.26-0.92-0.17-1.39-0.24
		c0.18,0.4,0.3,0.85,0.55,1.2c0.72,0.97,1.55,1.87,2.23,2.87c0.19,0.28,0.04,0.79,0.04,1.2c-0.4-0.06-0.84-0.04-1.19-0.21
		c-0.28-0.13-0.45-0.49-0.67-0.75c-1.04-1.22-2.06-2.46-3.15-3.63c-0.23-0.25-0.82-0.46-1.08-0.34c-0.74,0.34-1.39,0.87-2.08,1.32
		c-1.23,0.79-1.56,1.71-0.73,3.07c0.31,0.5,0.17,1.27,0.24,1.91c-0.2,0.07-0.4,0.14-0.6,0.21c-0.42-0.59-0.77-1.25-1.28-1.75
		c-0.33-0.33-1.09-0.75-1.31-0.6c-2.16,1.44-4.24,2.99-6.31,4.48C109.88,239.2,110.45,240.33,109.5,241.86z M52.45,232.6
		c-0.04,0.07-0.07,0.14-0.11,0.21c-1.04,0.15-2.1,0.25-3.13,0.48c-0.89,0.2-1.73,0.67-2.63,0.79c-3.64,0.49-6.88,1.98-9.85,4.02
		c-3.77,2.59-5.27,6.73-6.91,10.72c-0.41,1-0.02,1.83,1.3,1.83c0.78,0,1.56,0.04,2.34,0.09c0.94,0.05,1.47-0.33,1.87-1.24
		c0.93-2.11,2-4.16,3.07-6.21c1.76-3.36,4.43-5.09,8.37-4.81c1.4,0.1,2.84-0.51,4.27-0.59c2.06-0.12,4.24-0.46,6.18,0.04
		c3.49,0.9,6.17,3.37,8.83,5.72c0.68,0.6,1.46,1.21,2.31,1.46c3.08,0.93,4.79,3,5.35,6.07c0.63,3.49,0.77,3.66,4.25,3.79
		c0.39,0.02,0.78,0.05,1.17,0.08c0.89,0.06,1.35-0.41,1.16-1.23c-0.2-0.88-0.61-1.72-0.92-2.58c-1.14-3.15-3.01-5.85-5.26-8.29
		c-3.41-3.71-7.43-6.5-12.31-7.9C58.71,234.17,55.57,233.42,52.45,232.6z M50.28,242.89c1.84,0.16,3.69,0.23,5.52,0.5
		c1.78,0.26,3.26,1.08,4.35,2.63c0.62,0.87,1.46,1.68,2.38,2.21c1.67,0.97,2.85,2.23,3.55,4.04c0.21,0.54,0.85,1.16,1.39,1.29
		c1.27,0.3,2.6,0.41,3.91,0.38c0.41-0.01,1.08-0.65,1.15-1.08c0.33-1.95-1.22-4.67-2.96-5.59c-2.35-1.25-4.67-2.51-6.63-4.41
		c-2.99-2.89-6.36-4.9-10.82-3.46c-0.86,0.28-1.83,0.23-2.75,0.28c-1.36,0.07-2.73,0.02-4.09,0.15c-1.53,0.15-2.98,0.64-3.89,2
		c-1.52,2.28-2.97,4.62-4.46,6.92c-0.49,0.75-0.85,1.48,0.02,2.18c0.88,0.7,2.89,0.7,3.38-0.1c0.9-1.48,1.63-3.08,2.49-4.58
		c0.44-0.77,0.94-1.55,1.59-2.15C46.11,242.55,48.26,243.09,50.28,242.89z M122.08,240.92c-2.31,0.03-6.21,2.19-7.52,4.36
		c-1.17,1.93-2.09,4.02-3.02,6.09c-0.37,0.81,0.1,1.34,1.01,1.24c0.77-0.08,1.53-0.36,2.3-0.37c1.33-0.02,1.83-0.56,1.97-1.92
		c0.27-2.57,1.64-4.31,3.77-5.07c2.36-0.84,4.78-1.25,7.31-1.12c2.43,0.12,4.5,1.5,5.35,3.76c0.18,0.49,0.42,1.18,0.8,1.32
		c0.72,0.26,1.56,0.24,2.34,0.18c0.1-0.01,0.28-1.02,0.15-1.49c-0.32-1.16-0.76-2.29-1.21-3.41c-1.25-3.18-3.91-4.55-7.14-3.44
		c-1.83,0.63-3.51,1.14-5.3,0.02C122.62,240.89,122.22,240.94,122.08,240.92z M52.5,248.3c2.75-0.5,4.75,0.24,6.04,2.86
		c0.8,1.63,2.57,2.18,4.26,2.47c0.53,0.09,1.24-0.38,1.73-0.77c0.12-0.1-0.18-0.97-0.48-1.31c-0.7-0.78-1.54-1.43-2.29-2.18
		c-0.84-0.84-1.59-1.77-2.48-2.55c-0.71-0.62-1.51-1.27-2.39-1.55c-3.52-1.14-7.11-0.96-10.68-0.22c-0.66,0.14-1.55,0.47-1.82,0.98
		c-0.76,1.4-1.29,2.93-1.8,4.44c-0.1,0.3,0.2,0.96,0.49,1.11c1.29,0.65,3.05,0.36,3.81-0.8C48.25,248.66,50.07,247.76,52.5,248.3z
		 M130.54,249.9c1.39-0.03,1.92-0.69,1.5-1.62c-0.35-0.77-1.05-1.54-1.79-1.96c-3.26-1.82-6.55-0.23-9.83,0.11
		c-0.12,0.01-0.28,0.14-0.34,0.25c-0.6,1.26-1.25,2.49-1.71,3.8c-0.09,0.26,0.51,1.04,0.91,1.14c1.61,0.41,2.93-0.18,3.96-1.48
		c1.64-2.07,3.35-2.31,5.69-0.92C129.49,249.57,130.16,249.75,130.54,249.9z M161.51,195.65c-0.15-0.06-0.3-0.12-0.45-0.17
		c-0.88,1.4-1.94,2.71-2.61,4.2c-0.98,2.15-1.75,4.4-2.5,6.64c-0.7,2.11-1.29,4.25-1.86,6.4c-0.66,2.48-1.23,4.97-1.85,7.46
		c-0.23,0.91-0.71,1.82,0.3,2.95c0.53-0.81,1.2-1.45,1.4-2.21c0.51-1.96,0.73-3.99,1.22-5.96c0.79-3.14,1.57-6.29,2.64-9.34
		c1.06-3.05,2.48-5.97,3.71-8.97C161.61,196.36,161.51,195.98,161.51,195.65z M161.22,201.17c-0.55,1.2-1.17,2.23-1.52,3.34
		c-1.14,3.64-2.2,7.3-3.25,10.97c-0.18,0.64-0.21,1.35-0.2,2.02c0.01,0.33,0.28,0.65,0.44,0.98c0.27-0.28,0.69-0.51,0.79-0.84
		c0.76-2.55,1.44-5.12,2.18-7.67c0.54-1.85,1.14-3.68,1.7-5.52C161.69,203.41,162.05,202.35,161.22,201.17z M55.86,252.87
		c0.25-0.1,0.88-0.35,1.51-0.6c-0.31-0.63-0.48-1.39-0.96-1.84c-0.47-0.45-1.23-0.73-1.89-0.81c-1.1-0.13-2.26-0.17-3.35,0.01
		c-0.79,0.13-1.62,0.54-2.24,1.06c-0.76,0.63-0.49,1.34,0.52,1.47C51.43,252.43,53.41,252.61,55.86,252.87z M175.23,201.75
		c0.24-0.02,0.47-0.04,0.71-0.05c0.07-0.68,0.37-1.44,0.17-2.03c-0.69-2.1-1.48-4.19-2.38-6.21c-0.8-1.8-3.98-3.3-5.7-2.81
		C172.24,193.16,173.46,197.64,175.23,201.75z M163.46,203.73c0.28-0.83,0.43-1.45,0.7-2c0.28-0.55,0.67-1.06,1.05-1.56
		c0.79-1.04,1.63-1.91,3.15-1.6c1.12,0.23,1.12-0.49,0.8-1.22c-0.46-1.07-1.94-1.37-3-0.52c-0.75,0.6-1.51,1.31-1.93,2.14
		C163.54,200.37,162.32,201.75,163.46,203.73z M164.22,195.82c1.63-0.42,3.08-0.79,4.52-1.18c0.2-0.06,0.51-0.23,0.53-0.38
		c0.02-0.24-0.14-0.72-0.24-0.72c-1.11-0.07-2.33-0.36-3.31-0.01C164.86,193.83,163.95,194.72,164.22,195.82z M166.82,203.18
		c1.03-0.62,2.83,0.4,2.55-1.58c-0.08-0.57-0.89-1.03-1.37-1.55c-0.62,0.73-1.28,1.43-1.82,2.21
		C166.11,202.37,166.6,202.87,166.82,203.18z M168.04,204.77c-1.99,0.82-2.49,2.84-1.26,4.56
		C168.27,208.14,168.31,206.59,168.04,204.77z M161.14,210.14c-0.42,1.67-0.79,3.15-1.23,4.92
		C161.9,213.27,162.23,211.94,161.14,210.14z M171.96,201.99c0.3-0.02,0.61-0.04,0.91-0.06c-0.11-0.99-0.23-1.98-0.34-2.97
		c-0.23,0.02-0.47,0.04-0.7,0.05C171.87,200.01,171.91,201,171.96,201.99z"/>
	<path class="st0" d="M187.21,43.1c1.76,0,3.51-0.01,5.27,0c1.31,0.01,1.95,0.68,2.35,1.94c0.85,2.67,1.89,5.28,2.85,7.92
		c0.86,2.37,1.71,4.74,2.59,7.1c0.97,2.63,1.98,5.25,2.93,7.89c0.9,2.5,1.74,5.02,2.64,7.53c0.85,2.37,1.73,4.73,2.61,7.09
		c0.93,2.5,1.89,4.98,2.82,7.48c0.98,2.63,1.96,5.26,2.92,7.9c0.91,2.5,1.77,5.02,2.67,7.52c0.85,2.37,1.72,4.74,2.59,7.11
		c0.95,2.59,1.91,5.18,2.88,7.76c0.95,2.54,1.93,5.07,2.88,7.61c0.41,1.09,0.79,2.19,1.16,3.29c0.23,0.71-0.03,1.17-0.81,1.18
		c-3.27,0.02-6.54,0.04-9.8-0.01c-0.37-0.01-0.93-0.41-1.06-0.76c-1.18-3.18-2.28-6.39-3.41-9.59c-0.97-2.74-1.95-5.47-2.92-8.21
		c-0.37-1.05-0.72-2.1-1.08-3.16c-0.35-1.05-1.11-1.31-2.16-1.3c-6.88,0.03-13.76,0.02-20.63,0.02c-4.78,0-9.56,0-14.34,0
		c-1.97,0-2.41,0.44-2.88,2.36c-0.33,1.36-0.85,2.68-1.3,4.01c-1.47,4.31-2.94,8.61-4.42,12.91c-0.32,0.92-0.58,1.87-1.06,2.7
		c-0.27,0.46-0.92,0.96-1.41,0.97c-3.17,0.11-6.34,0.08-9.51,0.1c-0.98,0.01-1.16-0.63-0.96-1.38c0.33-1.21,0.73-2.41,1.17-3.59
		c1.29-3.45,2.64-6.88,3.92-10.33c0.93-2.5,1.75-5.03,2.67-7.53c1.27-3.45,2.61-6.88,3.89-10.33c0.91-2.45,1.78-4.92,2.67-7.38
		c0.85-2.37,1.69-4.74,2.55-7.1c0.96-2.64,1.95-5.27,2.93-7.9c0.95-2.54,1.92-5.07,2.86-7.61c0.86-2.32,1.72-4.64,2.56-6.97
		c0.91-2.5,1.79-5.01,2.7-7.52c0.96-2.64,1.93-5.28,2.9-7.92c0.38-1.05,0.7-2.13,1.22-3.11c0.19-0.35,0.86-0.6,1.33-0.62
		c1.75-0.07,3.51-0.03,5.27-0.03C187.21,43.12,187.21,43.11,187.21,43.1z M203.21,99.16c-5.19-14.62-10.3-29-15.41-43.37
		c-0.15-0.02-0.3-0.05-0.45-0.07c-0.44,0.88-0.97,1.73-1.3,2.64c-0.96,2.64-1.84,5.3-2.76,7.95c-0.94,2.7-1.89,5.39-2.83,8.09
		c-0.85,2.42-1.69,4.85-2.54,7.27c-0.99,2.78-2,5.55-2.99,8.33c-0.88,2.46-1.68,4.96-2.65,7.38c-0.72,1.79-0.65,2.08,1.24,2.08
		c9.22,0.01,18.44,0.01,27.66,0C201.76,99.46,202.36,99.29,203.21,99.16z"/>
	<path class="st1" d="M51.3,179.43c-0.63,2.03-0.18,2.65,1.8,2.82c7.18,0.63,14.35,1.3,21.52,1.94c5.92,0.53,11.84,1.01,17.75,1.55
		c2.18,0.2,4.35,0.5,6.53,0.72c1.41,0.14,2.54-0.3,3.41-1.53c0.27-0.38,0.99-0.64,1.48-0.61c3.83,0.3,7.66,0.68,11.49,1.04
		c0.39,0.04,0.77,0.09,1.16,0.12c3.83,0.32,7.66,0.66,11.5,0.95c2.38,0.18,4.77,0.25,7.15,0.46c5.76,0.52,11.51,1.14,17.27,1.65
		c3.3,0.29,6.62,0.39,9.92,0.66c0.6,0.05,1.17,0.5,1.75,0.76c-0.34,0.52-0.59,1.15-1.05,1.53c-3.25,2.7-5.66,5.97-6.92,10.02
		c-1.15,3.69-2.29,7.39-3.33,11.11c-1.08,3.87-2.02,7.78-3.11,11.64c-0.12,0.43-0.85,0.94-1.32,0.96c-1.41,0.06-2.82-0.08-4.23-0.2
		c-4.31-0.37-8.63-0.8-12.94-1.16c-3.98-0.34-7.96-0.56-11.94-0.95c-5.76-0.57-11.51-1.27-17.27-1.88
		c-1.06-0.11-2.15-0.03-3.21-0.13c-7.32-0.67-14.63-1.35-21.94-2.04c-0.63-0.06-1.26-0.12-1.89-0.17
		c-6.75-0.5-13.51-0.97-20.25-1.52c-6.84-0.56-13.67-1.22-20.5-1.8c-1.14-0.1-1.62-0.64-1.43-1.7c0.66-3.77,1.33-7.55,2.09-11.3
		c0.37-1.8,0.89-3.58,1.46-5.34c2.14-6.6,5.25-12.62,10.76-17.12C48.27,178.92,49.5,178.79,51.3,179.43z M79.9,205.59
		c0.05,0.2,0.09,0.4,0.14,0.6c0.31,0.12,0.61,0.3,0.93,0.34c5.69,0.73,11.36,1.55,17.07,2.11c6.05,0.59,12.13,0.87,18.19,1.39
		c6.3,0.54,12.59,1.19,18.88,1.83c3.24,0.33,6.47,0.76,9.7,1.11c0.92,0.1,1.88,0.2,2.76,0.03c0.57-0.11,1.12-0.68,1.47-1.19
		c0.09-0.13-0.51-0.95-0.94-1.19c-0.62-0.34-1.36-0.53-2.07-0.6c-3.25-0.29-6.5-0.5-9.75-0.76c-6.94-0.55-13.88-1.11-20.82-1.65
		c-1.46-0.11-2.92-0.12-4.38-0.25c-6.35-0.56-12.69-1.17-19.04-1.71c-3.4-0.29-6.8-0.52-10.2-0.68
		C81.21,204.96,80.55,205.38,79.9,205.59z M101.77,197.33c0.01-0.07,0.01-0.14,0.02-0.22c0.78,0,1.6,0.15,2.32-0.05
		c0.54-0.15,1.26-0.66,1.38-1.14c0.2-0.86-0.51-1.24-1.35-1.32c-3.92-0.39-7.84-0.84-11.77-1.19c-5.43-0.48-10.87-0.85-16.31-1.34
		c-6.64-0.6-13.28-1.28-19.92-1.93c-3.58-0.35-7.17-0.72-10.75-1.02c-0.58-0.05-1.23,0.16-1.78,0.4c-0.28,0.13-0.56,0.64-0.52,0.93
		c0.03,0.26,0.48,0.6,0.79,0.68c1.41,0.33,2.83,0.69,4.27,0.84c2.47,0.26,4.96,0.31,7.43,0.57c4.74,0.51,9.47,1.18,14.21,1.66
		c5.33,0.54,10.67,0.94,16.01,1.4c0.92,0.08,1.84,0.17,2.76,0.27C92.96,196.37,97.36,196.85,101.77,197.33z M151.5,195.82
		c0-0.03,0.01-0.06,0.01-0.09c0.44-0.03,0.96,0.08,1.29-0.13c0.5-0.31,0.85-0.85,1.27-1.28c-0.46-0.38-0.86-0.92-1.39-1.1
		c-0.67-0.23-1.44-0.14-2.17-0.22c-5.9-0.61-11.8-1.32-17.72-1.83c-6.5-0.56-13.02-0.92-19.52-1.44
		c-5.63-0.45-11.24-1.04-16.87-1.51c-0.68-0.06-1.42,0.17-2.08,0.4c-0.28,0.1-0.55,0.55-0.59,0.88c-0.02,0.17,0.43,0.5,0.72,0.59
		c1.12,0.32,2.25,0.72,3.39,0.83c4.16,0.42,8.33,0.75,12.5,1.09c6.7,0.54,13.4,1,20.09,1.62
		C137.47,194.28,144.48,195.08,151.5,195.82z"/>
	<path class="st1" d="M79.38,237.42c0.64-0.2,1.39-0.24,1.9-0.62c3.82-2.83,7.59-5.73,11.39-8.59c2.21-1.67,4.44-3.31,6.67-4.94
		c0.84-0.61,1.71-0.88,2.85-0.7c2.11,0.33,4.27,0.36,6.41,0.53c4.85,0.38,9.7,0.76,14.55,1.16c0.32,0.03,0.63,0.17,1.45,0.39
		c-1.19,1.01-2.06,1.86-3.03,2.56c-3.61,2.63-7.23,5.24-10.88,7.8c-3.3,2.32-6.65,4.57-9.96,6.87c-5.54,3.85-11.06,7.71-16.58,11.58
		c-1.58,1.1-2.16,0.81-2.8-0.98c-1.99-5.61-5.1-10.48-10.04-13.96c-2.09-1.47-4.34-2.73-6.59-3.94c-1.14-0.61-2.41-1.14-3.68-1.3
		c-3.7-0.48-7.34-1.68-11.15-0.91c-1.13,0.23-2.27,0.43-3.41,0.58c-0.29,0.04-0.62-0.18-1.28-0.4c2.14-1.62,4.03-3.1,5.98-4.5
		c3.62-2.6,7.27-5.18,10.94-7.71c0.58-0.4,1.32-0.6,2.01-0.77c0.23-0.06,0.7,0.2,0.8,0.43c0.09,0.19-0.11,0.67-0.32,0.82
		c-2.18,1.53-4.4,3.01-6.59,4.52c-1.26,0.87-2.5,1.79-3.83,2.75c0.8,0.8,1.44,0.52,2.12,0.04c3.57-2.51,7.13-5.04,10.75-7.47
		c0.71-0.48,1.68-0.78,2.54-0.81c1.75-0.05,3.51,0.1,5.26,0.25c0.47,0.04,0.91,0.4,1.36,0.62c-0.28,0.46-0.45,1.06-0.85,1.34
		c-2.27,1.65-4.6,3.22-6.99,4.88c0.9,0.98,1.69,0.53,2.41,0.09c2.88-1.79,5.73-3.65,8.63-5.43c0.55-0.34,1.25-0.63,1.89-0.62
		c2.34,0.02,4.68,0.12,7.01,0.3c2.62,0.2,5.23,0.51,7.84,0.8c0.45,0.05,0.89,0.18,1.81,0.37c-6.2,5.39-12.66,9.7-18.85,14.36
		C79.2,237,79.29,237.21,79.38,237.42z"/>
	<path class="st1" d="M151.38,165c2.22,0.44,5.49,0.78,8.53,1.81c1.98,0.67,3.73,2.22,5.36,3.63c4.08,3.53,7.54,7.59,9.9,12.5
		c0.53,1.09,1.16,2.13,1.71,3.2c0.6,1.17,0.31,2.14-0.83,2.83c-0.12,0.08-0.29,0.12-0.38,0.22c-1.78,2.1-3.49,1-5.56,0.29
		c-2.76-0.95-5.77-1.3-8.71-1.61c-2.85-0.3-5.76-0.1-8.62-0.36c-5.66-0.52-11.3-1.27-16.96-1.81c-5.43-0.52-10.87-0.89-16.3-1.37
		c-1.11-0.1-2.23-0.31-3.3-0.61c-0.97-0.27-1.06-0.91-0.23-1.5c2.63-1.88,5.32-3.68,7.93-5.59c2.14-1.56,4.2-3.25,6.31-4.86
		c3.75-2.87,7.98-4.81,12.55-5.85C145.24,165.36,147.82,165.36,151.38,165z M151.06,169.39c-0.39-0.54-0.59-1.14-0.93-1.23
		c-0.43-0.12-1.07,0.04-1.45,0.31c-3.31,2.38-6.57,4.82-9.86,7.23c-2.47,1.81-4.98,3.56-7.39,5.43c-0.38,0.3-0.33,1.15-0.48,1.74
		c0.58,0.03,1.15,0.09,1.73,0.08c0.16,0,0.31-0.22,0.47-0.33c3.05-2.15,6.11-4.3,9.16-6.46c2.37-1.69,4.74-3.38,7.07-5.11
		C149.98,170.62,150.45,170.01,151.06,169.39z M134.01,174.15c-1.05-1.84-1.56-2.1-2.64-1.37c-3.08,2.08-6.16,4.16-9.19,6.31
		c-0.46,0.33-0.63,1.08-0.93,1.63c0.53,0.15,1.07,0.44,1.58,0.4c0.59-0.05,1.22-0.29,1.73-0.62c1.47-0.94,2.88-1.96,4.33-2.94
		C130.59,176.43,132.31,175.29,134.01,174.15z M154.28,185.61c0.45-0.25,0.85-0.41,1.19-0.66c2.02-1.51,4.02-3.04,6.02-4.58
		c1.07-0.83,2.21-1.6,3.13-2.57c0.3-0.31,0.01-1.17-0.01-1.79c-0.57,0.03-1.3-0.16-1.68,0.12c-1.76,1.28-3.44,2.68-5.13,4.05
		c-1.36,1.1-2.73,2.17-4.02,3.34c-0.31,0.29-0.42,0.94-0.4,1.41C153.4,185.16,153.93,185.36,154.28,185.61z"/>
	<path class="st1" d="M109.5,241.86c0.95-1.53,0.37-2.66-0.36-4.16c2.07-1.5,4.16-3.04,6.31-4.48c0.22-0.15,0.98,0.27,1.31,0.6
		c0.51,0.5,0.86,1.16,1.28,1.75c0.2-0.07,0.4-0.14,0.6-0.21c-0.07-0.65,0.07-1.41-0.24-1.91c-0.83-1.35-0.5-2.28,0.73-3.07
		c0.69-0.44,1.34-0.98,2.08-1.32c0.26-0.12,0.85,0.09,1.08,0.34c1.09,1.17,2.11,2.41,3.15,3.63c0.22,0.26,0.39,0.62,0.67,0.75
		c0.35,0.17,0.79,0.15,1.19,0.21c0-0.41,0.15-0.92-0.04-1.2c-0.69-1-1.51-1.9-2.23-2.87c-0.26-0.35-0.37-0.8-0.55-1.2
		c0.47,0.07,1.09-0.02,1.39,0.24c2.09,1.82,3.96,3.93,6.2,5.52c3.51,2.51,5.15,6.38,7.64,9.62c0.68,0.88,1.32,1.81,1.85,2.79
		c0.24,0.45,0.43,1.34,0.2,1.56c-0.47,0.45-1.24,0.76-1.9,0.78c-0.39,0.01-0.93-0.55-1.19-0.99c-1.3-2.26-2.39-4.66-3.82-6.83
		c-1.65-2.51-3.5-2.95-6.27-1.98c-0.96,0.34-1.94,0.63-2.92,0.9c-0.27,0.07-0.62,0.11-0.85,0c-3.85-1.76-6.85-0.05-9.64,2.37
		c-2.53,2.2-3.84,5.19-5.09,8.19c-0.54,1.29-1.33,1.76-2.68,2.05c-3.32,0.73-5.64-0.52-7.52-3.11c-0.6-0.82-1.32-1.56-2.06-2.27
		c-0.63-0.62-0.89-1.38-0.16-1.85c0.5-0.32,1.58-0.33,2.03,0.01c1.03,0.79,1.77,1.95,2.75,2.81c0.49,0.43,1.26,0.55,1.91,0.81
		c-0.25-0.71-0.34-1.54-0.78-2.1c-0.62-0.79-1.5-1.37-2.26-2.06c-0.74-0.68-0.68-1.43,0.05-2c1.8-1.4,3.64-2.75,5.51-4.05
		c0.23-0.16,0.96,0.01,1.16,0.26C108.56,240.08,108.92,240.87,109.5,241.86z"/>
	<path class="st1" d="M52.45,232.6c3.12,0.81,6.25,1.57,9.35,2.46c4.88,1.4,8.91,4.2,12.31,7.9c2.24,2.44,4.11,5.14,5.26,8.29
		c0.31,0.86,0.72,1.7,0.92,2.58c0.19,0.82-0.27,1.3-1.16,1.23c-0.39-0.03-0.78-0.06-1.17-0.08c-3.48-0.14-3.63-0.31-4.25-3.79
		c-0.55-3.07-2.27-5.14-5.35-6.07c-0.84-0.26-1.63-0.87-2.31-1.46c-2.67-2.35-5.34-4.83-8.83-5.72c-1.94-0.5-4.12-0.15-6.18-0.04
		c-1.43,0.08-2.87,0.68-4.27,0.59c-3.94-0.28-6.61,1.45-8.37,4.81c-1.07,2.05-2.14,4.1-3.07,6.21c-0.4,0.92-0.93,1.29-1.87,1.24
		c-0.78-0.04-1.56-0.09-2.34-0.09c-1.32,0-1.71-0.83-1.3-1.83c1.64-3.99,3.14-8.12,6.91-10.72c2.98-2.05,6.21-3.53,9.85-4.02
		c0.89-0.12,1.74-0.6,2.63-0.79c1.03-0.23,2.08-0.32,3.13-0.48C52.38,232.74,52.42,232.67,52.45,232.6z"/>
	<path class="st1" d="M50.28,242.89c-2.02,0.21-4.18-0.33-5.87,1.23c-0.64,0.59-1.14,1.38-1.59,2.15c-0.87,1.51-1.59,3.1-2.49,4.58
		c-0.49,0.8-2.5,0.8-3.38,0.1c-0.87-0.7-0.5-1.44-0.02-2.18c1.49-2.3,2.94-4.64,4.46-6.92c0.9-1.36,2.35-1.85,3.89-2
		c1.35-0.13,2.73-0.08,4.09-0.15c0.92-0.05,1.89,0,2.75-0.28c4.46-1.45,7.83,0.56,10.82,3.46c1.96,1.9,4.28,3.16,6.63,4.41
		c1.74,0.92,3.3,3.64,2.96,5.59c-0.07,0.43-0.74,1.07-1.15,1.08c-1.3,0.02-2.64-0.09-3.91-0.38c-0.55-0.13-1.19-0.75-1.39-1.29
		c-0.7-1.82-1.88-3.07-3.55-4.04c-0.92-0.54-1.76-1.34-2.38-2.21c-1.1-1.55-2.57-2.37-4.35-2.63
		C53.98,243.12,52.12,243.04,50.28,242.89z"/>
	<path class="st1" d="M122.08,240.92c0.14,0.02,0.54-0.03,0.8,0.13c1.79,1.13,3.47,0.61,5.3-0.02c3.23-1.11,5.89,0.26,7.14,3.44
		c0.44,1.12,0.89,2.25,1.21,3.41c0.13,0.47-0.05,1.48-0.15,1.49c-0.78,0.06-1.62,0.08-2.34-0.18c-0.38-0.14-0.62-0.83-0.8-1.32
		c-0.85-2.26-2.91-3.64-5.35-3.76c-2.53-0.13-4.95,0.28-7.31,1.12c-2.13,0.76-3.5,2.5-3.77,5.07c-0.15,1.36-0.64,1.91-1.97,1.92
		c-0.77,0.01-1.53,0.29-2.3,0.37c-0.91,0.1-1.38-0.43-1.01-1.24c0.93-2.07,1.85-4.16,3.02-6.09
		C115.87,243.12,119.77,240.96,122.08,240.92z"/>
	<path class="st1" d="M52.5,248.3c-2.42-0.54-4.25,0.36-5.64,2.49c-0.76,1.16-2.51,1.45-3.81,0.8c-0.29-0.15-0.59-0.81-0.49-1.11
		c0.51-1.51,1.04-3.04,1.8-4.44c0.28-0.51,1.16-0.85,1.82-0.98c3.57-0.74,7.16-0.91,10.68,0.22c0.88,0.28,1.68,0.93,2.39,1.55
		c0.89,0.78,1.64,1.71,2.48,2.55c0.75,0.74,1.59,1.39,2.29,2.18c0.3,0.34,0.6,1.21,0.48,1.31c-0.49,0.39-1.19,0.86-1.73,0.77
		c-1.69-0.29-3.46-0.85-4.26-2.47C57.25,248.54,55.24,247.8,52.5,248.3z"/>
	<path class="st1" d="M130.54,249.9c-0.38-0.15-1.04-0.33-1.61-0.67c-2.34-1.39-4.05-1.15-5.69,0.92c-1.03,1.3-2.35,1.89-3.96,1.48
		c-0.4-0.1-1-0.88-0.91-1.14c0.46-1.31,1.11-2.55,1.71-3.8c0.05-0.11,0.22-0.24,0.34-0.25c3.28-0.34,6.57-1.93,9.83-0.11
		c0.74,0.41,1.43,1.19,1.79,1.96C132.46,249.21,131.92,249.87,130.54,249.9z"/>
	<path class="st1" d="M161.51,195.65c0,0.34,0.1,0.72-0.02,1.01c-1.23,2.99-2.64,5.92-3.71,8.97c-1.06,3.05-1.84,6.2-2.64,9.34
		c-0.5,1.96-0.71,4-1.22,5.96c-0.2,0.76-0.87,1.4-1.4,2.21c-1.01-1.13-0.52-2.04-0.3-2.95c0.62-2.49,1.19-4.98,1.85-7.46
		c0.57-2.15,1.16-4.29,1.86-6.4c0.75-2.24,1.52-4.49,2.5-6.64c0.68-1.49,1.73-2.81,2.61-4.2
		C161.2,195.53,161.35,195.59,161.51,195.65z"/>
	<path class="st1" d="M161.22,201.17c0.83,1.18,0.47,2.24,0.15,3.28c-0.56,1.84-1.17,3.67-1.7,5.52c-0.74,2.55-1.42,5.12-2.18,7.67
		c-0.1,0.33-0.52,0.56-0.79,0.84c-0.15-0.33-0.43-0.65-0.44-0.98c-0.02-0.67,0.01-1.38,0.2-2.02c1.05-3.67,2.11-7.33,3.25-10.97
		C160.06,203.4,160.67,202.38,161.22,201.17z"/>
	<path class="st1" d="M55.86,252.87c-2.44-0.26-4.43-0.45-6.41-0.71c-1.01-0.13-1.29-0.84-0.52-1.47c0.62-0.52,1.45-0.93,2.24-1.06
		c1.09-0.18,2.24-0.14,3.35-0.01c0.66,0.08,1.42,0.36,1.89,0.81c0.48,0.45,0.65,1.21,0.96,1.84
		C56.74,252.53,56.11,252.77,55.86,252.87z"/>
	<path class="st1" d="M175.23,201.75c-1.76-4.11-2.98-8.59-7.2-11.1c1.71-0.49,4.9,1.01,5.7,2.81c0.9,2.02,1.68,4.11,2.38,6.21
		c0.2,0.59-0.1,1.35-0.17,2.03C175.7,201.72,175.46,201.73,175.23,201.75z"/>
	<path class="st1" d="M163.46,203.73c-1.15-1.97,0.08-3.36,0.78-4.75c0.42-0.83,1.18-1.55,1.93-2.14c1.06-0.84,2.53-0.54,3,0.52
		c0.32,0.73,0.31,1.45-0.8,1.22c-1.51-0.31-2.36,0.56-3.15,1.6c-0.38,0.5-0.77,1-1.05,1.56
		C163.89,202.28,163.75,202.9,163.46,203.73z"/>
	<path class="st1" d="M164.22,195.82c-0.27-1.1,0.64-1.98,1.49-2.29c0.98-0.35,2.2-0.06,3.31,0.01c0.11,0.01,0.27,0.48,0.24,0.72
		c-0.01,0.14-0.32,0.32-0.53,0.38C167.3,195.03,165.85,195.4,164.22,195.82z"/>
	<path class="st1" d="M166.82,203.18c-0.22-0.31-0.71-0.81-0.63-0.92c0.54-0.78,1.2-1.48,1.82-2.21c0.48,0.51,1.29,0.98,1.37,1.55
		C169.65,203.58,167.85,202.56,166.82,203.18z"/>
	<path class="st1" d="M168.04,204.77c0.27,1.83,0.23,3.37-1.26,4.56C165.55,207.61,166.05,205.59,168.04,204.77z"/>
	<path class="st1" d="M161.14,210.14c1.08,1.8,0.75,3.13-1.23,4.92C160.36,213.29,160.73,211.81,161.14,210.14z"/>
	<path class="st1" d="M171.96,201.99c-0.04-0.99-0.09-1.98-0.13-2.97c0.23-0.02,0.47-0.04,0.7-0.05c0.11,0.99,0.23,1.98,0.34,2.97
		C172.57,201.95,172.26,201.97,171.96,201.99z"/>
	<path class="st1" d="M203.21,99.16c-0.85,0.13-1.45,0.3-2.05,0.3c-9.22,0.02-18.44,0.02-27.66,0c-1.89,0-1.96-0.29-1.24-2.08
		c0.98-2.42,1.77-4.92,2.65-7.38c0.99-2.78,2-5.55,2.99-8.33c0.86-2.42,1.7-4.85,2.54-7.27c0.94-2.7,1.9-5.39,2.83-8.09
		c0.92-2.65,1.8-5.32,2.76-7.95c0.34-0.92,0.86-1.76,1.3-2.64c0.15,0.02,0.3,0.05,0.45,0.07C192.91,70.16,198.02,84.54,203.21,99.16
		z"/>
	<path class="st0" d="M79.9,205.59c0.65-0.21,1.31-0.64,1.95-0.61c3.4,0.16,6.81,0.39,10.2,0.68c6.35,0.54,12.69,1.15,19.04,1.71
		c1.45,0.13,2.92,0.14,4.38,0.25c6.94,0.54,13.88,1.1,20.82,1.65c3.25,0.26,6.5,0.47,9.75,0.76c0.71,0.06,1.45,0.26,2.07,0.6
		c0.43,0.23,1.03,1.06,0.94,1.19c-0.35,0.51-0.91,1.07-1.47,1.19c-0.88,0.18-1.84,0.07-2.76-0.03c-3.24-0.35-6.46-0.78-9.7-1.11
		c-6.29-0.64-12.58-1.29-18.88-1.83c-6.06-0.52-12.14-0.8-18.19-1.39c-5.7-0.56-11.38-1.39-17.07-2.11
		c-0.32-0.04-0.62-0.23-0.93-0.34C79.99,205.99,79.94,205.79,79.9,205.59z"/>
	<path class="st0" d="M101.77,197.33c-4.4-0.48-8.8-0.96-13.21-1.44c-0.92-0.1-1.84-0.19-2.76-0.27c-5.34-0.46-10.68-0.86-16.01-1.4
		c-4.74-0.48-9.47-1.15-14.21-1.66c-2.47-0.27-4.96-0.31-7.43-0.57c-1.44-0.15-2.86-0.51-4.27-0.84c-0.32-0.07-0.76-0.41-0.79-0.68
		c-0.04-0.3,0.25-0.81,0.52-0.93c0.55-0.25,1.2-0.45,1.78-0.4c3.59,0.3,7.17,0.67,10.75,1.02c6.64,0.65,13.27,1.33,19.92,1.93
		c5.43,0.49,10.87,0.86,16.31,1.34c3.93,0.35,7.84,0.8,11.77,1.19c0.84,0.08,1.55,0.46,1.35,1.32c-0.11,0.48-0.83,0.99-1.38,1.14
		c-0.73,0.19-1.55,0.05-2.32,0.05C101.78,197.19,101.77,197.26,101.77,197.33z"/>
	<path class="st0" d="M151.5,195.82c-7.02-0.74-14.03-1.54-21.05-2.19c-6.69-0.62-13.4-1.08-20.09-1.62
		c-4.17-0.34-8.34-0.67-12.5-1.09c-1.15-0.12-2.28-0.51-3.39-0.83c-0.29-0.08-0.74-0.42-0.72-0.59c0.04-0.32,0.31-0.78,0.59-0.88
		c0.66-0.24,1.4-0.46,2.08-0.4c5.62,0.47,11.24,1.06,16.87,1.51c6.5,0.52,13.02,0.88,19.52,1.44c5.91,0.51,11.81,1.22,17.72,1.83
		c0.73,0.08,1.5-0.01,2.17,0.22c0.53,0.18,0.93,0.72,1.39,1.1c-0.42,0.44-0.77,0.97-1.27,1.28c-0.33,0.21-0.85,0.1-1.29,0.13
		C151.51,195.76,151.5,195.79,151.5,195.82z"/>
	<path class="st0" d="M151.06,169.39c-0.61,0.61-1.08,1.23-1.67,1.67c-2.34,1.73-4.7,3.42-7.07,5.11c-3.05,2.17-6.11,4.31-9.16,6.46
		c-0.16,0.11-0.31,0.33-0.47,0.33c-0.58,0.01-1.15-0.05-1.73-0.08c0.15-0.59,0.1-1.45,0.48-1.74c2.41-1.88,4.92-3.63,7.39-5.43
		c3.29-2.41,6.55-4.85,9.86-7.23c0.38-0.27,1.02-0.43,1.45-0.31C150.47,168.25,150.67,168.85,151.06,169.39z"/>
	<path class="st0" d="M134.01,174.15c-1.7,1.13-3.42,2.27-5.13,3.43c-1.44,0.98-2.86,2-4.33,2.94c-0.51,0.32-1.14,0.57-1.73,0.62
		c-0.51,0.04-1.05-0.25-1.58-0.4c0.3-0.55,0.47-1.3,0.93-1.63c3.03-2.16,6.11-4.23,9.19-6.31
		C132.45,172.06,132.96,172.31,134.01,174.15z"/>
	<path class="st0" d="M154.28,185.61c-0.35-0.25-0.88-0.45-0.89-0.68c-0.02-0.47,0.08-1.12,0.4-1.41c1.29-1.17,2.66-2.25,4.02-3.34
		c1.7-1.37,3.37-2.77,5.13-4.05c0.39-0.28,1.11-0.09,1.68-0.12c0.02,0.61,0.3,1.47,0.01,1.79c-0.93,0.97-2.06,1.75-3.13,2.57
		c-2,1.54-4.01,3.06-6.02,4.58C155.14,185.2,154.73,185.37,154.28,185.61z"/>
</g>
</svg>
