<?xml version="1.0" encoding="utf-8"?>
<!-- Generator: Adobe Illustrator 28.0.0, SVG Export Plug-In . SVG Version: 6.00 Build 0)  -->
<svg version="1.1" id="Ebene_1" xmlns="http://www.w3.org/2000/svg" xmlns:xlink="http://www.w3.org/1999/xlink" x="0px" y="0px"
	 viewBox="0 0 270.97 273.3" style="enable-background:new 0 0 270.97 273.3;" xml:space="preserve">
<style type="text/css">
	.st0{fill:#FF0000;}
	.st1{fill:#FFFFFF;}
</style>
<path class="st0" d="M23.02,122.86"/>
<g>
	<path class="st0" d="M133.25,13.54c37.76,0,75.51-0.01,113.27,0.01c9.21,0,11.68,2.37,11.69,11.36c0.02,75.3,0.02,150.6,0,225.91
		c0,8.54-2.27,10.99-10.76,10.99c-76.14,0.05-152.28,0.06-228.42,0.01c-8.51-0.01-10.78-2.43-10.79-11.01
		c-0.02-75.3-0.03-150.6,0-225.9c0-8.96,2.56-11.36,11.75-11.36C57.73,13.53,95.49,13.54,133.25,13.54z M114.53,126.65
		c0.72,0.15,1.44,0.29,2.15,0.44c-0.36,2.77-0.22,5.74-1.17,8.29c-3.84,10.32-12.89,16.31-22.09,15.04
		c-10.82-1.5-21.51-12.4-22.51-22.5c-1.48-14.98,10.8-32.53,28.6-33.3c24.71-1.07,39.72,18.25,38.37,37.09
		c-2.18,30.38-29.36,47.18-57.24,37.26c-28.91-10.28-39.83-43.06-24.02-70.45c12.01-20.81,37.46-31.38,63.75-22.48
		c19.14,6.48,31.92,19.9,36.74,38.89c5.38,21.15,0.71,41.03-14.34,57.83c-18.41,20.56-50.5,26.39-77.82,12.73
		c-34.27-17.14-45.7-58.78-30.08-91.46C47.32,68,68.46,53.61,97.4,51.35c5.49-0.43,4.88-3.96,5.02-7.54
		c0.15-3.82-0.52-7.03-5.32-6.37c-7.64,1.06-15.61,1.36-22.77,3.88C44.67,51.76,25.2,72.49,16.61,102.69
		c-6.3,22.14-2.86,43.34,8.61,63.43c19.89,34.82,62.86,50.74,100.32,35.41c40.19-16.45,59.36-63.28,40.06-103.25
		c-16.66-34.49-59.84-49.64-93.87-32.47c-29.11,14.68-43.89,49.74-32.87,79.68c11.47,31.18,48.35,50.61,81.61,34.74
		c27.74-13.24,41.77-50.51,22.63-78.14c-13.8-19.92-38.18-27.2-60.46-17.51c-11.93,5.19-19.54,14.57-23.53,27.08
		c-5.09,15.96-1.9,29.86,10.16,41.3c11.53,10.93,24.86,14.98,40.3,8.52c16.34-6.83,28.68-30.06,14.86-48.6
		c-7.01-9.4-20.34-13.38-31.97-9.15c-8.91,3.24-14.51,13.11-13.52,23.84c0.6,6.59,7.64,13.89,14.3,14.85
		c8.32,1.2,16.04-3.03,18.83-10.25C112.79,130.29,113.7,128.49,114.53,126.65z M182.47,126.34c-0.82,0.31-1.64,0.62-2.46,0.92
		c1.26,6.57,1.52,13.53,3.96,19.63c9.62,24.06,28.8,37.59,52.58,45.47c3.81,1.26,6.7-0.03,6.71-4.73c0.01-6.08-0.01-12.15,0-18.23
		c0-3.79-1.81-5.82-5.65-6.1c-1.45-0.11-2.95-0.29-4.29-0.8c-18.09-6.89-33.69-17.36-46.25-32.21
		C185.77,128.78,184.01,127.65,182.47,126.34z M240.92,150.51c-1.06-1.54-1.54-2.75-2.43-3.44c-14.58-11.43-23.18-27.12-31.3-43.26
		c-2.95-5.86-6.27-11.85-10.73-16.54c-5.75-6.05-13.96-6.9-19.89-3.05c10.63,6.91,9.2,18.92,12.87,28.87
		c5.14,13.93,11.81,26.82,25.42,34.53C222.9,152.2,231.27,154.12,240.92,150.51z M181.29,206.63c0.7,13.13,6.11,25.7,17.58,33.14
		c10.72,6.96,22.83,7.47,34.9,8.08c8.55,0.43,9.62-0.94,9.59-9.69c-0.01-2.09-0.02-4.19-0.02-6.28
		c-0.04-13.36,1.22-12.53-12.72-11.43c-16.05,1.27-31.17-1.3-44.23-11.65C185.19,207.84,183.49,207.53,181.29,206.63z
		 M241.22,206.15c-5.64-2.52-10.86-3.9-14.91-6.87c-9.04-6.65-17.72-13.83-26.11-21.3c-8.55-7.61-17.68-11.01-28.61-6.06
		c-2.76,1.25-5.09,3.46-7.61,5.23c2.47,1.46,4.94,2.93,7.4,4.39c0.36,0.21,0.78,0.37,1.07,0.65c5.57,5.53,11.66,10.64,16.58,16.7
		c9.04,11.16,20.64,16.09,34.57,15.62C230.07,214.3,236.12,212.01,241.22,206.15z M216.24,71.88c-1.14,2.61-2.05,4.11-2.46,5.74
		c-5.96,23.61,4.86,43.6,23.83,57.38c3.03,2.2,5.79,1.18,5.84-3.12c0.07-6.27,0.26-12.59-0.36-18.81c-0.23-2.27-2.45-4.49-4.11-6.45
		c-4.79-5.64-10.34-10.74-14.48-16.82C221.12,84.84,219.33,78.79,216.24,71.88z M112.87,51.3c2.44,0,4.12-0.07,5.79,0.01
		c4.81,0.23,7.22-2.75,7.22-6.84c-0.01-4.01-2.27-7.16-7.08-7.09c-2.3,0.03-4.61-0.04-6.91-0.03c-7.59,0.03-8.08,0.82-8.07,8.21
		C103.82,53.49,109.54,50.83,112.87,51.3z"/>
	<path class="st1" d="M114.53,126.65c-0.83,1.84-1.74,3.65-2.46,5.52c-2.79,7.22-10.5,11.44-18.83,10.25
		c-6.66-0.96-13.69-8.26-14.3-14.85c-0.99-10.73,4.61-20.6,13.52-23.84c11.63-4.23,24.96-0.25,31.97,9.15
		c13.82,18.53,1.48,41.77-14.86,48.6c-15.45,6.46-28.78,2.4-40.3-8.52c-12.06-11.43-15.25-25.33-10.16-41.3
		c3.99-12.51,11.61-21.89,23.53-27.08c22.29-9.69,46.66-2.42,60.46,17.51c19.14,27.63,5.11,64.9-22.63,78.14
		c-33.26,15.87-70.14-3.56-81.61-34.74c-11.01-29.93,3.76-64.99,32.87-79.68c34.03-17.17,77.22-2.01,93.87,32.47
		c19.3,39.96,0.13,86.8-40.06,103.25c-37.47,15.33-80.44-0.59-100.32-35.41c-11.47-20.09-14.91-41.29-8.61-63.43
		c8.58-30.19,28.06-50.93,57.72-61.36c7.16-2.52,15.13-2.82,22.77-3.88c4.8-0.67,5.48,2.55,5.32,6.37
		c-0.14,3.58,0.46,7.11-5.02,7.54C68.46,53.61,47.32,68,34.88,94.03c-15.61,32.67-4.18,74.32,30.08,91.46
		c27.31,13.66,59.41,7.82,77.82-12.73c15.05-16.8,19.71-36.68,14.34-57.83c-4.83-18.99-17.6-32.41-36.74-38.89
		c-26.28-8.9-51.73,1.67-63.75,22.48c-15.82,27.39-4.89,60.17,24.02,70.45c27.88,9.92,55.06-6.89,57.24-37.26
		c1.35-18.84-13.66-38.16-38.37-37.09c-17.81,0.77-30.09,18.32-28.6,33.3c1,10.1,11.7,21,22.51,22.5
		c9.2,1.28,18.25-4.71,22.09-15.04c0.95-2.55,0.81-5.52,1.17-8.29C115.96,126.94,115.25,126.79,114.53,126.65z M113.1,122.52
		c-3.14-5.38-7.91-7.16-13.58-5.93c-3.93,0.85-6.97,3.27-6.52,7.89c0.34,3.53,3.01,5.62,5.34,2.51
		C102.39,121.57,107.25,121.75,113.1,122.52z"/>
	<path class="st1" d="M182.47,126.34c1.54,1.31,3.3,2.44,4.59,3.96c12.57,14.85,28.16,25.32,46.25,32.21
		c1.34,0.51,2.85,0.69,4.29,0.8c3.83,0.28,5.65,2.31,5.65,6.1c-0.01,6.08,0.02,12.15,0,18.23c-0.01,4.71-2.9,6-6.71,4.73
		c-23.78-7.88-42.96-21.41-52.58-45.47c-2.44-6.1-2.7-13.06-3.96-19.63C180.83,126.95,181.65,126.65,182.47,126.34z"/>
	<path class="st1" d="M240.92,150.51c-9.65,3.6-18.02,1.68-26.07-2.88c-13.6-7.71-20.28-20.6-25.42-34.53
		c-3.67-9.95-2.24-21.96-12.87-28.87c5.93-3.86,14.14-3,19.89,3.05c4.46,4.69,7.79,10.68,10.73,16.54
		c8.12,16.14,16.72,31.82,31.3,43.26C239.37,147.77,239.86,148.98,240.92,150.51z"/>
	<path class="st1" d="M181.29,206.63c2.2,0.91,3.9,1.22,5.09,2.16c13.06,10.35,28.18,12.92,44.23,11.65
		c13.94-1.1,12.69-1.93,12.72,11.43c0.01,2.09,0.02,4.19,0.02,6.28c0.03,8.75-1.04,10.12-9.59,9.69c-12.07-0.6-24.18-1.12-34.9-8.08
		C187.4,232.32,181.99,219.76,181.29,206.63z"/>
	<path class="st1" d="M241.22,206.15c-5.1,5.86-11.15,8.15-17.62,8.37c-13.94,0.47-25.54-4.45-34.57-15.62
		c-4.91-6.07-11-11.18-16.58-16.7c-0.29-0.29-0.71-0.44-1.07-0.65c-2.47-1.46-4.94-2.93-7.4-4.39c2.53-1.77,4.85-3.98,7.61-5.23
		c10.92-4.95,20.06-1.55,28.61,6.06c8.39,7.46,17.07,14.65,26.11,21.3C230.36,202.25,235.58,203.62,241.22,206.15z"/>
	<path class="st1" d="M216.24,71.88c3.09,6.9,4.87,12.96,8.26,17.93c4.14,6.07,9.68,11.17,14.48,16.82
		c1.66,1.95,3.88,4.17,4.11,6.45c0.63,6.22,0.43,12.53,0.36,18.81c-0.05,4.3-2.81,5.32-5.84,3.12
		c-18.97-13.78-29.79-33.76-23.83-57.38C214.19,75.99,215.1,74.49,216.24,71.88z"/>
	<path class="st1" d="M112.87,51.3c-3.33-0.46-9.05,2.2-9.06-5.74c-0.01-7.39,0.48-8.18,8.07-8.21c2.3-0.01,4.61,0.06,6.91,0.03
		c4.81-0.06,7.08,3.08,7.08,7.09c0.01,4.09-2.41,7.07-7.22,6.84C116.99,51.23,115.31,51.3,112.87,51.3z"/>
	<path class="st0" d="M113.1,122.52c-5.85-0.77-10.71-0.95-14.77,4.46c-2.33,3.11-5,1.02-5.34-2.51c-0.44-4.62,2.59-7.03,6.52-7.89
		C105.19,115.36,109.96,117.14,113.1,122.52z"/>
</g>
</svg>
