<?xml version="1.0" encoding="utf-8"?>
<!-- Generator: Adobe Illustrator 28.0.0, SVG Export Plug-In . SVG Version: 6.00 Build 0)  -->
<svg version="1.1" id="Ebene_1" xmlns="http://www.w3.org/2000/svg" xmlns:xlink="http://www.w3.org/1999/xlink" x="0px" y="0px"
	 viewBox="0 0 270.97 273.3" style="enable-background:new 0 0 270.97 273.3;" xml:space="preserve">
<style type="text/css">
	.st0{fill:#FF0000;}
	.st1{fill:#FFFFFF;}
</style>
<g>
	<path class="st0" d="M9.53,263.9C9.52,184.93,9.52,90.14,9.52,11.17c0-2.52,0-2.52,2.46-2.52c46.29,0,92.57,0,138.86,0
		c37.24,0,74.47,0,111.71,0c2.16,0,2.16,0.01,2.17,2.14c0,0.16,0,0.33,0,0.49c0,83.41,0,166.81,0.01,250.22
		c0,2.27-0.01,2.28-2.24,2.28c-44.81,0-89.61,0-134.42,0c-34.28,0-68.55-0.01-102.83,0.02L9.53,263.9z M120.65,143.58
		c0-5.15,0-10.31,0-15.46c0-11.46-0.01-22.92-0.01-34.38c0-3.96-1.29-7.28-4.57-9.7c-2.16-1.59-4.6-2.24-7.23-2.25
		c-9.93-0.02-19.85-0.01-29.78,0c-7.56,0-12.43,4.89-12.44,12.46c-0.01,16.83-0.01,33.67-0.01,50.5c0,10.69,0,21.39,0.01,32.08
		c0,2.2,0.25,2.4,2.39,2.71c1.78,0.25,3.58,0.46,5.3,0.92c12.53,3.35,20.61,15.2,19.79,28.1c-0.15,2.36-0.16,2.4,2.19,2.41
		c6.64,0.01,13.27,0.03,19.91-0.03c1.24-0.01,2.07,0.39,2.78,1.35c1.23,1.68,2.52,3.32,3.79,4.96c2.08,2.68,4.15,5.37,6.26,8.03
		c0.82,1.03,1.92,1.34,3.04,0.56c1.22-0.85,1.07-2.05,0.47-3.23c-0.17-0.34-0.44-0.63-0.67-0.93c-3.52-4.54-7.05-9.08-10.56-13.63
		c-0.82-1.07-1.82-1.66-3.22-1.63c-2.74,0.05-5.49,0.06-8.22-0.03c-0.61-0.02-1.2-0.56-1.8-0.86c0.56-0.26,1.11-0.71,1.68-0.74
		c2.73-0.16,5.12-1.11,7.16-2.91c2.9-2.55,3.78-5.85,3.77-9.6C120.62,176.04,120.65,159.81,120.65,143.58z M242.2,172.11
		c0,0,0.01,0,0.01,0c0-4.11-0.03-8.22,0.01-12.33c0.01-1.43-0.48-2.1-2-2.09c-4.39,0.02-8.54-1.33-12.57-2.81
		c-6.84-2.51-13.29-5.89-19.25-10.11c-7.26-5.14-14.11-10.77-19.66-17.78c-2.3-2.91-4.33-6.04-6.51-9.05
		c-0.26-0.36-0.73-0.56-1.1-0.84c-0.23,0.39-0.65,0.76-0.67,1.17c-0.48,7.18,0.27,14.22,2.86,20.97
		c2.74,7.14,6.45,13.75,11.12,19.81c4.89,6.34,10.68,11.7,17.58,15.83c8.68,5.19,18.22,8.2,27.79,11.13
		c2.03,0.62,2.39,0.29,2.39-1.88C242.21,180.12,242.2,176.11,242.2,172.11z M241.78,143.31c-0.79-0.66-1.18-1.1-1.66-1.36
		c-7.49-3.96-13.82-9.32-18.55-16.32c-5.92-8.77-10.58-18.25-14.7-27.99c-1.4-3.31-2.76-6.79-4.92-9.58
		c-2.62-3.37-5.92-6.29-9.21-9.06c-4.7-3.96-10.32-5.37-16.42-4.78c-0.71,0.07-1.39,0.45-2.45,0.82c1.03,0.87,1.65,1.4,2.27,1.91
		c3.62,3,6.29,6.72,7.88,11.12c1,2.76,1.62,5.66,2.27,8.54c1.79,7.94,4.42,15.56,8.22,22.77c3.14,5.95,6.82,11.63,11.95,15.94
		c5.77,4.85,12.36,8.42,20.06,9.46C231.55,145.44,236.42,144.81,241.78,143.31z M160.25,171.3c0.07,0.2,0.14,0.4,0.21,0.59
		c0.97,0.32,1.93,0.7,2.92,0.94c5.14,1.22,9.74,3.51,13.76,6.95c4.74,4.06,8.33,9.12,12.17,13.97c6.91,8.74,15.74,13.86,27,14.47
		c7.51,0.41,14.76-0.38,21.2-4.73c1.49-1.01,2.86-2.18,4.52-3.47c-0.77-0.39-1.03-0.57-1.33-0.66c-3.64-1.17-7.33-2.2-10.92-3.51
		c-7.1-2.58-13.71-5.99-19.06-11.53c-3.6-3.74-7.16-7.58-11.16-10.86c-7.07-5.8-14.97-9.63-24.56-8.07
		c-3.74,0.61-7.41,1.43-10.76,3.27C162.86,169.42,161.58,170.41,160.25,171.3z M181.15,200.52c0,0.98-0.13,1.57,0.02,2.08
		c1.28,4.23,2.4,8.52,3.99,12.63c2.49,6.47,6.31,12.1,11.68,16.61c6.73,5.65,14.8,8,23.27,8.83c6.58,0.64,13.24,0.49,19.87,0.73
		c1.62,0.06,2.26-0.6,2.24-2.21c-0.05-3.73-0.01-7.46-0.01-11.19c0-4.22,0.03-8.45-0.02-12.67c-0.02-1.77-0.38-1.87-2.05-1.55
		c-5.2,1-10.39,2.23-15.65,2.75c-7.5,0.74-14.78-0.73-21.92-3.16c-7.4-2.52-14.31-5.77-19.77-11.56
		C182.41,201.41,181.91,201.12,181.15,200.52z M215.1,61.92c-0.18,0-0.36,0-0.54,0c-0.16,0.43-0.4,0.86-0.47,1.3
		c-0.73,4.64-1.65,9.26-2.09,13.93c-0.68,7.25-0.25,14.47,2.29,21.39c2.07,5.65,5.22,10.69,9.07,15.31
		c4.61,5.54,9.82,10.43,15.58,14.74c0.75,0.56,1.72,0.82,2.58,1.22c0.23-0.9,0.66-1.8,0.66-2.71c0.05-7.73,0-15.46,0.05-23.19
		c0.01-1.6-0.4-2.54-2.06-3.23c-4.22-1.74-7.74-4.51-10.51-8.17c-5.46-7.24-9.06-15.43-12.2-23.85
		C216.63,66.43,215.88,64.16,215.1,61.92z M42.17,206.54c-0.04,13.63,11.02,24.78,24.69,24.88c13.65,0.11,24.97-11.04,25.14-24.49
		c0.18-14.02-10.94-25.43-24.99-25.44C53.14,181.48,41.99,192.9,42.17,206.54z M62.38,121.47c0-18.37-0.02-36.74,0.03-55.11
		c0.01-2.09-0.51-3.75-1.91-5.36c-4.82-5.53-9.51-11.18-14.24-16.79c-3.25-3.85-6.48-7.71-9.75-11.54c-1.02-1.19-2.6-1.4-3.49-0.61
		c-0.85,0.76-0.85,2.23,0.02,3.45c0.13,0.18,0.27,0.35,0.41,0.52c7.61,8.99,15.19,18.01,22.87,26.93c1.24,1.44,1.76,2.85,1.76,4.72
		c-0.04,36.63-0.03,73.26-0.03,109.9c0,0.55,0.01,1.1,0.01,1.65c0,1,0.51,1.34,1.47,1.26c2.19-0.2,2.87-0.9,2.87-3.07
		C62.38,158.76,62.38,140.12,62.38,121.47z M93.57,79.77C93.57,79.77,93.57,79.77,93.57,79.77c3.18-0.01,6.35-0.03,9.53,0
		c1.39,0.01,1.99-0.6,1.97-1.99c-0.04-2.41-0.01-4.82-0.01-7.23c-0.01-2.17-0.16-2.35-2.33-2.36c-5.26-0.02-10.51-0.01-15.77-0.01
		c-4.4,0-4.44,0-4.52,4.39c-0.02,1.17-0.45,1.52-1.55,1.49c-1.97-0.06-3.94-0.01-5.91-0.01c-1.42,0-2.51,0.53-2.75,2.02
		c-0.2,1.21,1,2.23,2.65,2.28c1.97,0.07,3.94,0.03,5.91,0.07c0.48,0.01,1.25-0.03,1.39,0.23c0.86,1.52,2.25,1.09,3.51,1.1
		C88.31,79.79,90.94,79.77,93.57,79.77z"/>
	<path class="st1" d="M120.65,143.58c0,16.23-0.03,32.46,0.02,48.69c0.01,3.75-0.87,7.05-3.77,9.6c-2.05,1.8-4.43,2.75-7.16,2.91
		c-0.57,0.03-1.12,0.49-1.68,0.74c0.6,0.3,1.19,0.84,1.8,0.86c2.74,0.1,5.48,0.08,8.22,0.03c1.4-0.02,2.39,0.56,3.22,1.63
		c3.51,4.55,7.04,9.09,10.56,13.63c0.23,0.3,0.5,0.6,0.67,0.93c0.6,1.18,0.76,2.37-0.47,3.23c-1.12,0.78-2.23,0.47-3.04-0.56
		c-2.11-2.66-4.18-5.35-6.26-8.03c-1.27-1.65-2.56-3.28-3.79-4.96c-0.71-0.97-1.54-1.36-2.78-1.35c-6.63,0.06-13.27,0.04-19.91,0.03
		c-2.35,0-2.34-0.05-2.19-2.41c0.82-12.9-7.26-24.76-19.79-28.1c-1.73-0.46-3.53-0.67-5.3-0.92c-2.14-0.3-2.38-0.51-2.39-2.71
		c-0.01-10.69-0.01-21.39-0.01-32.08c0-16.83,0-33.67,0.01-50.5c0-7.57,4.88-12.46,12.44-12.46c9.93-0.01,19.85-0.01,29.78,0
		c2.63,0,5.07,0.65,7.23,2.25c3.28,2.42,4.57,5.74,4.57,9.7c-0.01,11.46,0.01,22.92,0.01,34.38
		C120.65,133.27,120.65,138.42,120.65,143.58z M93.62,126.82c0,0.01,0,0.01,0,0.02c6.25,0,12.5-0.02,18.75,0.02
		c1.33,0.01,1.96-0.32,1.93-1.85c-0.09-5.86-0.07-11.73-0.03-17.6c0.01-1.36-0.47-1.8-1.82-1.8c-12.5,0.04-25,0.05-37.5,0
		c-1.42,0-1.74,0.53-1.72,1.83c0.05,5.81,0.06,11.62-0.02,17.43c-0.02,1.54,0.51,1.97,1.99,1.96
		C81.34,126.78,87.48,126.82,93.62,126.82z"/>
	<path class="st1" d="M242.2,172.11c0,4,0,8,0,12c0,2.17-0.36,2.5-2.39,1.88c-9.57-2.93-19.11-5.94-27.79-11.13
		c-6.9-4.13-12.69-9.48-17.58-15.83c-4.67-6.06-8.38-12.67-11.12-19.81c-2.59-6.75-3.34-13.79-2.86-20.97
		c0.03-0.4,0.44-0.78,0.67-1.17c0.37,0.27,0.84,0.48,1.1,0.84c2.18,3.01,4.21,6.14,6.51,9.05c5.55,7.02,12.4,12.64,19.66,17.78
		c5.97,4.23,12.41,7.6,19.25,10.11c4.03,1.48,8.17,2.84,12.57,2.81c1.52-0.01,2.02,0.66,2,2.09c-0.04,4.11-0.01,8.22-0.01,12.33
		C242.21,172.11,242.21,172.11,242.2,172.11z"/>
	<path class="st1" d="M241.78,143.31c-5.36,1.5-10.23,2.12-15.27,1.45c-7.7-1.04-14.3-4.61-20.06-9.46
		c-5.13-4.31-8.81-9.99-11.95-15.94c-3.8-7.21-6.42-14.83-8.22-22.77c-0.65-2.87-1.27-5.78-2.27-8.54
		c-1.59-4.39-4.25-8.12-7.88-11.12c-0.62-0.52-1.24-1.05-2.27-1.91c1.06-0.36,1.74-0.75,2.45-0.82c6.1-0.59,11.72,0.82,16.42,4.78
		c3.29,2.77,6.59,5.68,9.21,9.06c2.17,2.79,3.52,6.27,4.92,9.58c4.12,9.75,8.78,19.22,14.7,27.99c4.73,7,11.05,12.37,18.55,16.32
		C240.6,142.21,240.99,142.66,241.78,143.31z"/>
	<path class="st1" d="M160.25,171.3c1.33-0.89,2.61-1.87,4-2.64c3.35-1.85,7.02-2.67,10.76-3.27c9.59-1.56,17.49,2.27,24.56,8.07
		c4,3.28,7.56,7.12,11.16,10.86c5.35,5.55,11.96,8.95,19.06,11.53c3.59,1.31,7.28,2.34,10.92,3.51c0.29,0.09,0.56,0.28,1.33,0.66
		c-1.66,1.28-3.03,2.46-4.52,3.47c-6.44,4.35-13.69,5.13-21.2,4.73c-11.26-0.61-20.08-5.74-27-14.47
		c-3.83-4.85-7.42-9.91-12.17-13.97c-4.02-3.44-8.62-5.73-13.76-6.95c-0.99-0.24-1.95-0.62-2.92-0.94
		C160.4,171.69,160.33,171.49,160.25,171.3z"/>
	<path class="st1" d="M181.15,200.52c0.76,0.6,1.26,0.9,1.64,1.3c5.46,5.79,12.37,9.04,19.77,11.56c7.13,2.43,14.42,3.9,21.92,3.16
		c5.26-0.52,10.45-1.75,15.65-2.75c1.68-0.32,2.04-0.22,2.05,1.55c0.04,4.22,0.02,8.44,0.02,12.67c0,3.73-0.04,7.46,0.01,11.19
		c0.02,1.61-0.61,2.27-2.24,2.21c-6.62-0.24-13.28-0.09-19.87-0.73c-8.47-0.83-16.54-3.17-23.27-8.83
		c-5.37-4.51-9.19-10.14-11.68-16.61c-1.58-4.11-2.7-8.41-3.99-12.63C181.02,202.09,181.15,201.5,181.15,200.52z"/>
	<path class="st1" d="M215.1,61.92c0.79,2.25,1.53,4.51,2.36,6.75c3.14,8.42,6.74,16.61,12.2,23.85c2.77,3.67,6.29,6.43,10.51,8.17
		c1.66,0.68,2.07,1.63,2.06,3.23c-0.04,7.73,0.01,15.46-0.05,23.19c-0.01,0.9-0.43,1.81-0.66,2.71c-0.87-0.4-1.84-0.66-2.58-1.22
		c-5.76-4.31-10.97-9.21-15.58-14.74c-3.84-4.62-6.99-9.66-9.07-15.31c-2.54-6.92-2.97-14.14-2.29-21.39
		c0.44-4.67,1.36-9.29,2.09-13.93c0.07-0.45,0.31-0.87,0.47-1.3C214.74,61.92,214.92,61.92,215.1,61.92z"/>
	<path class="st1" d="M42.17,206.54c-0.18-13.63,10.97-25.06,24.84-25.05c14.05,0.01,25.17,11.43,24.99,25.44
		c-0.17,13.44-11.49,24.59-25.14,24.49C53.19,231.31,42.14,220.17,42.17,206.54z M85.33,206.61c0.47-10.1-8.33-18.66-18.42-18.57
		c-10.05,0.09-18.17,8.32-18.18,18.59c-0.01,10.08,8.3,18.33,18.53,18.25C77.32,224.79,85.63,216.42,85.33,206.61z"/>
	<path class="st1" d="M62.38,121.47c0,18.64,0,37.29,0,55.93c0,2.18-0.68,2.87-2.87,3.07c-0.96,0.09-1.47-0.26-1.47-1.26
		c0-0.55-0.01-1.1-0.01-1.65c0-36.63-0.01-73.26,0.03-109.9c0-1.87-0.51-3.28-1.76-4.72c-7.68-8.93-15.26-17.95-22.87-26.93
		c-0.14-0.17-0.28-0.34-0.41-0.52c-0.87-1.22-0.88-2.69-0.02-3.45c0.89-0.8,2.47-0.58,3.49,0.61c3.27,3.83,6.5,7.69,9.75,11.54
		C50.99,49.81,55.67,55.46,60.5,61c1.4,1.61,1.92,3.28,1.91,5.36C62.36,84.73,62.38,103.1,62.38,121.47z"/>
	<path class="st1" d="M93.57,79.77c-2.63,0-5.26,0.02-7.88-0.01c-1.26-0.02-2.65,0.41-3.51-1.1c-0.15-0.26-0.91-0.22-1.39-0.23
		c-1.97-0.04-3.94,0-5.91-0.07c-1.65-0.06-2.85-1.07-2.65-2.28c0.24-1.49,1.33-2.02,2.75-2.02c1.97,0,3.94-0.05,5.91,0.01
		c1.1,0.03,1.53-0.31,1.55-1.49c0.08-4.39,0.12-4.39,4.52-4.39c5.26,0,10.51-0.01,15.77,0.01c2.16,0.01,2.32,0.19,2.33,2.36
		c0.01,2.41-0.02,4.82,0.01,7.23c0.02,1.38-0.58,2-1.97,1.99C99.92,79.74,96.74,79.76,93.57,79.77
		C93.57,79.77,93.57,79.77,93.57,79.77z"/>
	<path class="st0" d="M93.62,126.82c-6.14,0-12.28-0.04-18.42,0.03c-1.48,0.01-2.01-0.42-1.99-1.96c0.08-5.81,0.07-11.62,0.02-17.43
		c-0.01-1.31,0.31-1.84,1.72-1.83c12.5,0.04,25,0.04,37.5,0c1.34,0,1.83,0.43,1.82,1.8c-0.05,5.86-0.06,11.73,0.03,17.6
		c0.02,1.52-0.6,1.85-1.93,1.85c-6.25-0.04-12.5-0.02-18.75-0.02C93.62,126.84,93.62,126.83,93.62,126.82z"/>
	<path class="st0" d="M85.33,206.61c0.3,9.82-8.01,18.19-18.07,18.27c-10.23,0.08-18.54-8.17-18.53-18.25
		c0.01-10.27,8.14-18.5,18.18-18.59C77,187.95,85.8,196.5,85.33,206.61z M67.14,197.97c-4.78-0.04-8.56,3.68-8.58,8.46
		c-0.02,4.73,3.73,8.58,8.51,8.58c4.28,0,8.54-3.35,8.45-8.58C75.45,201.66,71.91,198.01,67.14,197.97z"/>
	<path class="st1" d="M67.14,197.97c4.77,0.04,8.31,3.69,8.38,8.45c0.08,5.24-4.18,8.58-8.45,8.58c-4.78,0-8.53-3.85-8.51-8.58
		C58.58,201.66,62.36,197.93,67.14,197.97z M71.56,206.51c0.03-2.75-1.8-4.58-4.58-4.6c-2.42-0.02-4.58,2.17-4.55,4.6
		c0.03,2.44,2.17,4.56,4.63,4.59C69.6,211.13,71.54,209.15,71.56,206.51z"/>
	<path class="st0" d="M71.56,206.51c-0.02,2.64-1.96,4.62-4.5,4.59c-2.46-0.03-4.6-2.15-4.63-4.59c-0.03-2.44,2.13-4.62,4.55-4.6
		C69.76,201.93,71.59,203.76,71.56,206.51z"/>
</g>
</svg>
