<?xml version="1.0" encoding="utf-8"?>
<!-- Generator: Adobe Illustrator 28.0.0, SVG Export Plug-In . SVG Version: 6.00 Build 0)  -->
<svg version="1.1" id="Ebene_1" xmlns="http://www.w3.org/2000/svg" xmlns:xlink="http://www.w3.org/1999/xlink" x="0px" y="0px"
	 viewBox="0 0 270.97 273.3" style="enable-background:new 0 0 270.97 273.3;" xml:space="preserve">
<style type="text/css">
	.st0{fill:#FF0000;}
	.st1{fill:#FFFFFF;}
</style>
<g>
	<path class="st0" d="M11.45,260.63c0,0-0.03-168.11-0.02-245.07c0-0.65,0.03-1.29,0-1.94c-0.04-0.88,0.35-1.3,1.24-1.26
		c0.48,0.02,0.97,0,1.45,0c81,0,162,0,243,0c2.65,0,2.65,0,2.65,2.59c0,81.05,0,162.1,0,243.14c0,2.59,0,2.59-2.65,2.59
		c-0.22,0-0.43,0-0.65,0c-76.86,0-230.58-0.07-230.58-0.07L11.45,260.63z M59.96,157.7c0.18,0,0.35-0.01,0.53-0.01
		c0.19,0.17,0.39,0.32,0.56,0.51c2.68,3.01,5.28,6.08,8.03,9.01c3.38,3.6,6.87,7.11,10.36,10.62c1.04,1.05,1.34,2.19,1.18,3.63
		c-0.54,4.81-1.02,9.62-1.48,14.43c-0.6,6.26-1.15,12.52-1.75,18.78c-0.31,3.19,0.86,5.57,3.76,7.01c3.98,1.98,7.91-0.15,8.36-4.51
		c0.23-2.3,0.48-4.6,0.71-6.9c1.1-11.02,2.13-22.04,3.33-33.04c0.22-2-0.16-3.61-1.44-5.05c-2.72-3.04-5.46-6.07-8.23-9.07
		c-3.94-4.26-7.9-8.5-11.87-12.73c-1.17-1.24-1.3-2.45-0.54-4.06c4.4-9.33,8.69-18.71,13.03-28.07c1.67-3.6,1.67-3.57,5.26-1.81
		c6.66,3.27,13.29,6.59,20.02,9.71c3.29,1.53,6.58,1.41,9.38-1.38c0.83-0.83,1.81-1.52,2.72-2.27c6.7-5.47,13.41-10.95,20.12-16.41
		c1.05-0.85,1.92-1.8,1.61-3.27c-0.79-3.83-6.59-7.08-10.37-4.05c-6.17,4.94-12.54,9.62-18.76,14.48c-1.19,0.93-2.12,1.02-3.46,0.35
		c-8.08-4.03-16.2-7.97-24.31-11.94c-5.45-2.67-10.9-5.36-16.36-8.02c-2.79-1.36-3.89-1.06-5.01,1.26
		c-6.45,13.35-12.93,26.69-19.36,40.06c-1.5,3.12-3.49,6.13-3.06,9.85c0.49,4.26,0.87,8.55,1.57,12.78
		c1.09,6.57,2.4,13.1,3.65,19.65c0.27,1.42-0.02,2.36-1.33,3.24c-3.39,2.28-6.62,4.79-9.97,7.12c-1.09,0.76-1.56,1.63-1.55,2.95
		c0.04,4.62,0.01,9.25,0.03,13.87c0,0.49,0.13,0.98,0.23,1.7c0.68-0.38,1.12-0.57,1.5-0.84c2.32-1.65,4.74-3.19,6.92-5.01
		c5.69-4.75,11.28-9.61,16.91-14.44c1.57-1.35,2.02-3.1,1.82-5.09c-0.19-1.82-0.27-3.65-0.56-5.45c-0.78-4.77-1.71-9.52-2.46-14.3
		C59.51,159.94,59.85,158.8,59.96,157.7z M103.94,70.49c-0.22,0.1-0.45,0.2-0.67,0.29c0.51,2.93,0.87,5.89,1.56,8.77
		c0.61,2.54,1.52,2.73,3.34,0.9c1.28-1.28,2.75-1.88,4.51-1.64c3.6,0.49,6.38,2.38,8.59,5.2c0.92,1.18,0.87,2.21,0.07,3.51
		c-4.01,6.49-7.94,13.04-11.87,19.58c-0.28,0.46-0.61,1.42-0.45,1.54c1.1,0.84,2.26,1.67,3.53,2.18c0.44,0.18,1.33-0.46,1.88-0.9
		c5.9-4.58,11.72-9.27,17.71-13.74c1.23-0.91,3.08-1.45,4.62-1.39c4.29,0.17,7.32,2.59,9.19,6.35c1.11,2.22,0.65,3.93-1.11,5.69
		c-0.87,0.87-1.72,1.79-2.66,2.59c-7.26,6.15-14.65,12.15-21.76,18.46c-2.7,2.4-7.7,3.37-11.26,1.42c-0.44-0.24-0.92-0.39-1.65-0.7
		c-0.13,1.13-0.29,1.96-0.3,2.8c-0.05,7.09-0.21,14.18-0.05,21.27c0.22,9.25,1.12,18.44,3.11,27.51c0.62,2.81,1.92,4.46,4.64,5.7
		c13.92,6.38,27.73,13.01,41.58,19.54c0.46,0.22,0.96,0.34,1.82,0.64c-0.16-1.55-0.17-2.78-0.44-3.95
		c-0.99-4.29-2.11-8.56-3.1-12.85c-2.12-9.23-3.66-18.54-3.81-28.06c-0.19-12.03,1.6-23.9,2.5-35.85
		c0.66-8.76,0.79-17.51-1.15-26.16c-0.89-3.97-2.77-7.27-6.55-9.07c-11.35-5.41-22.75-10.73-34.13-16.08
		C109.08,72.87,106.51,71.68,103.94,70.49z M177.09,116.8c-0.18,0.06-0.37,0.12-0.55,0.19c-0.12,2.07-0.36,4.14-0.33,6.21
		c0.17,13.03,4.3,24.71,12.41,34.88c11.59,14.54,27.1,22.47,45.03,26.16c1.34,0.28,1.82-0.12,1.81-1.53
		c-0.05-8.01-0.05-16.02,0-24.03c0.01-1.39-0.53-1.83-1.84-2.02c-12.65-1.77-23.89-6.81-33.85-14.77
		c-8.22-6.57-14.98-14.46-21.07-22.98C178.19,118.18,177.63,117.5,177.09,116.8z M169.03,76.47c-0.05,0.18-0.09,0.35-0.14,0.53
		c6.94,2.52,9.47,8.42,11.41,14.71c1.23,4,2.25,8.07,3.36,12.11c2.63,9.61,6.17,18.81,12.64,26.59
		c8.15,9.79,18.29,15.33,31.38,14.22c2.44-0.21,4.85-0.81,7.27-1.23c-0.01-0.2-0.02-0.39-0.02-0.59c-1.18-0.72-2.4-1.37-3.52-2.17
		c-11.91-8.54-19.9-20.23-26.3-33.12c-2.53-5.09-4.3-10.57-6.95-15.59c-5.64-10.68-14.45-16.35-26.83-15.73
		C170.55,76.24,169.79,76.38,169.03,76.47z M156.6,170.31c0.05,0.2,0.11,0.41,0.16,0.61c0.24,0.09,0.47,0.22,0.71,0.26
		c7.6,1.2,13.52,5.22,18.49,10.9c4.15,4.73,8.13,9.63,12.64,14c12.27,11.91,30.34,14.51,44.9,3.19c0.55-0.43,1.03-0.96,1.78-1.68
		c-1.47-0.35-2.55-0.61-3.63-0.85c-9.44-2.08-17.83-6.1-24.81-12.96c-4.25-4.17-8.68-8.18-13.22-12.05
		c-8.59-7.32-18.27-9.18-28.9-5.13C161.94,167.65,159.3,169.06,156.6,170.31z M176.62,197.81c0.16,1.06,0.18,1.64,0.34,2.18
		c1.31,4.48,2.46,9.02,4.03,13.41c2.11,5.87,5.24,11.19,9.95,15.42c6.21,5.59,13.84,7.69,21.87,8.42c7,0.64,14.04,0.82,21.06,1.26
		c1.28,0.08,1.57-0.47,1.57-1.59c-0.02-8.12-0.03-16.23,0-24.35c0-1.28-0.46-1.57-1.66-1.31c-2.47,0.54-4.95,1.01-7.44,1.42
		c-8.45,1.38-16.87,1.81-25.25-0.53c-8.69-2.42-15.98-7.25-22.76-13.01C177.92,198.78,177.46,198.46,176.62,197.81z M235.19,130.77
		c0.14-0.96,0.24-1.36,0.24-1.77c0.01-8.39-0.01-16.78,0.03-25.17c0-1.02-0.44-1.55-1.29-1.98c-6.12-3.1-10.69-7.86-14.4-13.53
		c-4.52-6.92-7.35-14.55-9.45-22.49c-0.18-0.67-0.41-1.33-0.61-1.99c-0.56,0.56-0.78,1.05-0.89,1.56
		c-0.81,3.83-1.76,7.65-2.35,11.51c-1.48,9.83-0.2,19.29,4.37,28.2c4.12,8.05,10.17,14.48,17.1,20.13
		C230.18,127.07,232.53,128.75,235.19,130.77z M96.24,84.21c-0.01-6.73-5.6-12.35-12.32-12.4c-6.78-0.05-12.35,5.59-12.32,12.49
		c0.03,6.84,5.5,12.28,12.32,12.27C90.66,96.55,96.25,90.95,96.24,84.21z M95.84,101.92c0.23,0.28,0.3,0.45,0.43,0.51
		c3.12,1.57,6.23,3.15,9.39,4.65c0.3,0.14,1.07-0.15,1.27-0.47c3.9-6.25,7.79-12.5,11.56-18.82c0.46-0.76,0.56-2.06,0.24-2.9
		c-0.91-2.42-3.07-3.31-5.46-3.68c-2.09-0.32-3.58,0.58-4.75,2.32c-2.55,3.79-5.2,7.52-7.8,11.27
		C99.07,97.19,97.45,99.57,95.84,101.92z M19.99,258.83"/>
	<path class="st1" d="M59.96,157.7c-0.11,1.1-0.45,2.24-0.29,3.3c0.75,4.78,1.67,9.52,2.46,14.3c0.3,1.8,0.38,3.63,0.56,5.45
		c0.2,1.99-0.25,3.74-1.82,5.09c-5.62,4.83-11.21,9.69-16.91,14.44c-2.18,1.82-4.6,3.36-6.92,5.01c-0.38,0.27-0.81,0.46-1.5,0.84
		c-0.1-0.73-0.23-1.21-0.23-1.7c-0.01-4.62,0.02-9.25-0.03-13.87c-0.01-1.32,0.46-2.19,1.55-2.95c3.35-2.33,6.59-4.84,9.97-7.12
		c1.3-0.88,1.6-1.82,1.33-3.24c-1.25-6.54-2.56-13.08-3.65-19.65c-0.7-4.23-1.08-8.52-1.57-12.78c-0.43-3.73,1.56-6.73,3.06-9.85
		c6.43-13.36,12.91-26.71,19.36-40.06c1.12-2.32,2.22-2.62,5.01-1.26c5.46,2.66,10.91,5.35,16.36,8.02
		c8.11,3.97,16.23,7.91,24.31,11.94c1.34,0.67,2.27,0.58,3.46-0.35c6.22-4.87,12.6-9.55,18.76-14.48c3.78-3.03,9.57,0.22,10.37,4.05
		c0.3,1.47-0.57,2.42-1.61,3.27c-6.71,5.47-13.41,10.94-20.12,16.41c-0.92,0.75-1.89,1.44-2.72,2.27c-2.8,2.8-6.09,2.91-9.38,1.38
		c-6.73-3.12-13.36-6.45-20.02-9.71c-3.59-1.76-3.59-1.79-5.26,1.81c-4.34,9.36-8.63,18.74-13.03,28.07
		c-0.76,1.61-0.63,2.82,0.54,4.06c3.97,4.23,7.93,8.47,11.87,12.73c2.77,3,5.51,6.02,8.23,9.07c1.28,1.43,1.65,3.04,1.44,5.05
		c-1.2,11.01-2.23,22.03-3.33,33.04c-0.23,2.3-0.48,4.6-0.71,6.9c-0.44,4.37-4.37,6.5-8.36,4.51c-2.9-1.44-4.06-3.82-3.76-7.01
		c0.6-6.26,1.15-12.52,1.75-18.78c0.46-4.81,0.94-9.63,1.48-14.43c0.16-1.44-0.14-2.59-1.18-3.63c-3.49-3.51-6.97-7.01-10.36-10.62
		c-2.75-2.93-5.36-6.01-8.03-9.01c-0.17-0.19-0.37-0.34-0.56-0.51C60.31,157.69,60.13,157.7,59.96,157.7z"/>
	<path class="st1" d="M103.94,70.49c2.57,1.2,5.14,2.38,7.71,3.59c11.38,5.35,22.78,10.67,34.13,16.08c3.78,1.8,5.66,5.1,6.55,9.07
		c1.94,8.65,1.81,17.41,1.15,26.16c-0.9,11.94-2.69,23.82-2.5,35.85c0.15,9.52,1.7,18.82,3.81,28.06c0.98,4.29,2.11,8.56,3.1,12.85
		c0.27,1.17,0.28,2.4,0.44,3.95c-0.86-0.3-1.37-0.43-1.82-0.64c-13.85-6.53-27.66-13.17-41.58-19.54c-2.72-1.25-4.03-2.9-4.64-5.7
		c-1.99-9.07-2.9-18.26-3.11-27.51c-0.17-7.08,0-14.18,0.05-21.27c0.01-0.84,0.17-1.67,0.3-2.8c0.72,0.3,1.21,0.46,1.65,0.7
		c3.55,1.96,8.55,0.99,11.26-1.42c7.11-6.32,14.5-12.32,21.76-18.46c0.94-0.8,1.78-1.71,2.66-2.59c1.77-1.77,2.22-3.47,1.11-5.69
		c-1.87-3.76-4.9-6.19-9.19-6.35c-1.54-0.06-3.39,0.48-4.62,1.39c-5.99,4.46-11.8,9.16-17.71,13.74c-0.56,0.43-1.44,1.07-1.88,0.9
		c-1.27-0.51-2.43-1.34-3.53-2.18c-0.16-0.12,0.17-1.08,0.45-1.54c3.93-6.54,7.86-13.09,11.87-19.58c0.8-1.3,0.85-2.34-0.07-3.51
		c-2.21-2.82-4.99-4.71-8.59-5.2c-1.76-0.24-3.24,0.36-4.51,1.64c-1.82,1.83-2.73,1.63-3.34-0.9c-0.69-2.88-1.05-5.84-1.56-8.77
		C103.49,70.68,103.71,70.58,103.94,70.49z"/>
	<path class="st1" d="M177.09,116.8c0.54,0.7,1.1,1.39,1.61,2.1c6.09,8.52,12.85,16.41,21.07,22.98c9.96,7.96,21.2,13,33.85,14.77
		c1.31,0.18,1.85,0.62,1.84,2.02c-0.05,8.01-0.05,16.02,0,24.03c0.01,1.41-0.47,1.81-1.81,1.53c-17.93-3.69-33.44-11.62-45.03-26.16
		c-8.11-10.17-12.24-21.85-12.41-34.88c-0.03-2.07,0.22-4.14,0.33-6.21C176.72,116.92,176.91,116.86,177.09,116.8z"/>
	<path class="st1" d="M169.03,76.47c0.76-0.09,1.52-0.23,2.29-0.27c12.38-0.62,21.19,5.05,26.83,15.73
		c2.65,5.02,4.43,10.5,6.95,15.59c6.4,12.89,14.39,24.58,26.3,33.12c1.12,0.8,2.35,1.45,3.52,2.17c0.01,0.2,0.02,0.39,0.02,0.59
		c-2.42,0.42-4.83,1.02-7.27,1.23c-13.09,1.11-23.23-4.42-31.38-14.22c-6.47-7.77-10-16.97-12.64-26.59
		c-1.11-4.04-2.13-8.11-3.36-12.11c-1.93-6.29-4.46-12.19-11.41-14.71C168.94,76.82,168.99,76.64,169.03,76.47z"/>
	<path class="st1" d="M156.6,170.31c2.7-1.25,5.35-2.66,8.12-3.71c10.63-4.05,20.31-2.19,28.9,5.13c4.54,3.86,8.97,7.87,13.22,12.05
		c6.98,6.86,15.37,10.88,24.81,12.96c1.08,0.24,2.16,0.51,3.63,0.85c-0.76,0.72-1.23,1.25-1.78,1.68
		c-14.56,11.32-32.62,8.72-44.9-3.19c-4.5-4.37-8.49-9.27-12.64-14c-4.98-5.68-10.9-9.69-18.49-10.9c-0.24-0.04-0.47-0.17-0.71-0.26
		C156.7,170.72,156.65,170.51,156.6,170.31z"/>
	<path class="st1" d="M176.62,197.81c0.84,0.65,1.3,0.97,1.72,1.33c6.78,5.76,14.07,10.59,22.76,13.01
		c8.38,2.34,16.8,1.91,25.25,0.53c2.49-0.41,4.97-0.89,7.44-1.42c1.2-0.26,1.67,0.03,1.66,1.31c-0.03,8.12-0.03,16.23,0,24.35
		c0,1.12-0.29,1.67-1.57,1.59c-7.02-0.44-14.06-0.62-21.06-1.26c-8.03-0.74-15.66-2.83-21.87-8.42c-4.71-4.24-7.84-9.55-9.95-15.42
		c-1.57-4.39-2.72-8.93-4.03-13.41C176.8,199.45,176.78,198.87,176.62,197.81z"/>
	<path class="st1" d="M235.19,130.77c-2.66-2.02-5.01-3.71-7.24-5.53c-6.94-5.65-12.98-12.08-17.1-20.13
		c-4.57-8.92-5.85-18.37-4.37-28.2c0.58-3.87,1.54-7.68,2.35-11.51c0.11-0.51,0.32-1,0.89-1.56c0.21,0.66,0.44,1.32,0.61,1.99
		c2.09,7.94,4.92,15.57,9.45,22.49c3.71,5.67,8.28,10.43,14.4,13.53c0.85,0.43,1.3,0.96,1.29,1.98c-0.03,8.39-0.02,16.78-0.03,25.17
		C235.43,129.41,235.32,129.82,235.19,130.77z"/>
	<path class="st1" d="M96.24,84.21c0.01,6.74-5.57,12.34-12.32,12.35c-6.83,0.02-12.3-5.43-12.32-12.27
		c-0.03-6.9,5.54-12.54,12.32-12.49C90.64,71.86,96.23,77.48,96.24,84.21z"/>
	<path class="st1" d="M95.84,101.92c1.61-2.35,3.24-4.74,4.88-7.11c2.6-3.76,5.24-7.48,7.8-11.27c1.17-1.74,2.66-2.64,4.75-2.32
		c2.39,0.37,4.55,1.26,5.46,3.68c0.31,0.83,0.21,2.13-0.24,2.9c-3.77,6.32-7.66,12.58-11.56,18.82c-0.2,0.31-0.97,0.61-1.27,0.47
		c-3.16-1.5-6.27-3.08-9.39-4.65C96.14,102.37,96.06,102.2,95.84,101.92z"/>
	<path class="st1" d="M19.99,258.83"/>
</g>
</svg>
