<?xml version="1.0" encoding="utf-8"?>
<!-- Generator: Adobe Illustrator 28.0.0, SVG Export Plug-In . SVG Version: 6.00 Build 0)  -->
<svg version="1.1" id="Ebene_1" xmlns="http://www.w3.org/2000/svg" xmlns:xlink="http://www.w3.org/1999/xlink" x="0px" y="0px"
	 viewBox="0 0 270.97 273.3" style="enable-background:new 0 0 270.97 273.3;" xml:space="preserve">
<style type="text/css">
	.st0{fill:#FF0000;}
	.st1{fill:#FFFFFF;}
</style>
<g>
	<path class="st0" d="M8.72,10.23c84.03,0,167.9,0,251.92,0c0,84.02,0,167.97,0,252.06c-83.94,0-167.85,0-251.92,0
		C8.72,178.34,8.72,94.38,8.72,10.23z M96.09,189.37c-11.12-32.08-22.16-63.94-33.15-95.64c6.03-2.6,12.13-1.65,18.23-1.61
		c-0.32-2.37-0.47-4.44-0.89-6.45c-3.57-17.23-7.19-34.45-10.77-51.68c-0.2-0.96-0.57-1.3-1.58-1.12c-1.46,0.26-2.94,0.42-4.42,0.54
		c-11.34,0.92-20.9,6.16-30.08,12.34c-0.52,0.35-1.05,1.08-1.11,1.67c-0.47,4.62-1.05,9.24-1.18,13.87
		c-0.2,7.11,0.09,14.23-0.1,21.34c-0.37,13.83,1.21,27.45,4.07,40.94c4.07,19.2,10.36,37.66,18.97,55.3
		c6.41,13.11,13.87,25.57,23.86,36.31c8.21,8.83,17.45,16.52,27.16,23.64c0.48,0.35,1.34,0.52,1.92,0.37
		c8.1-2.13,16.28-4,24.22-6.61c6.14-2.01,11.98-4.96,18.27-7.62c-13.42-16.02-26.58-31.72-39.8-47.5
		C105.09,181.52,100.67,185.37,96.09,189.37z M232.43,185.53c0.12-0.27,0.21-0.39,0.21-0.5c0.02-8.4,0.03-16.81,0.07-25.21
		c0.01-1.19-0.75-1.21-1.61-1.45c-5.15-1.42-10.41-2.57-15.37-4.48c-16.42-6.33-28.84-17.87-39.68-31.34
		c-0.95-1.18-1.88-2.38-2.82-3.57c-0.17,0.06-0.34,0.12-0.51,0.18c0.31,5.28-0.54,10.58,0.95,15.85
		c3.42,12.1,10.06,22.16,19.13,30.68C203.99,176.18,217.07,183.03,232.43,185.53z M166.83,76.32c0.25,0.41,0.42,0.75,0.65,1.04
		c3.9,4.84,6.48,10.4,8.71,16.13c3.02,7.75,5.85,15.58,8.9,23.33c2.45,6.22,5.55,12.1,10.06,17.12
		c6.53,7.28,14.91,10.39,24.47,10.73c4.09,0.15,8.17,0.08,12.58-1.34c-2.17-1.2-3.91-2.28-5.75-3.15
		c-5.56-2.63-9.85-6.7-12.94-11.91c-2.56-4.32-4.76-8.86-6.95-13.39c-3.46-7.14-6.42-14.54-10.25-21.46
		C190.03,82.06,179.93,76.62,166.83,76.32z M152.37,170.12c6.36-0.36,10.53,3.03,14.57,6.43c3.65,3.07,7.02,6.48,10.45,9.8
		c4.17,4.04,8.11,8.35,12.45,12.19c5.83,5.16,12.71,7.74,20.63,7.28c6.89-0.4,13.24-2.67,19.38-5.57c1.03-0.49,1.77-1.59,2.85-2.61
		c-0.79-0.23-1.2-0.39-1.63-0.46c-9.37-1.51-17.53-5.53-24.64-11.76c-3.64-3.19-7.23-6.45-10.85-9.66
		c-4.45-3.95-8.98-7.76-14.37-10.45C171.16,160.27,159.93,163.68,152.37,170.12z M232.62,211c-21.96,5.74-41.63,2.19-58.96-12.95
		c0.17,2.3,0.45,4.51,1.01,6.65c3.71,14.2,11.66,24.71,25.98,29.62c7.3,2.5,14.87,3.15,22.5,3.18c3.14,0.01,6.28-0.37,9.46-0.57
		C232.62,228.12,232.62,219.61,232.62,211z M154.04,221.69c1.17-0.2,1.99-0.09,2.39-0.44c2.2-1.96,4.54-3.84,6.38-6.11
		c1.74-2.15,1.52-4.37,0.14-6.01c-11.22-13.27-22.43-26.55-33.68-39.8c-0.56-0.66-1.38-1.47-2.12-1.51
		c-1.85-0.11-3.8-0.09-5.58,0.38c-2.04,0.54-3.93,1.65-5.91,2.45c-2.46,1.01-3.2,3.92-1.43,5.97c12.5,14.56,25,29.11,37.55,43.63
		C152.41,220.97,153.47,221.34,154.04,221.69z M206.05,64.58c-0.84,5.45-1.51,10.63-2.46,15.76c-0.86,4.6-0.74,9.12,0.45,13.61
		c3.45,13.05,11.28,23.04,21.86,31.08c2.12,1.61,4.31,3.15,6.61,4.84c0.09-0.5,0.18-0.75,0.18-0.99c0.01-7.89,0.04-15.78-0.04-23.66
		c-0.01-0.67-0.61-1.51-1.18-1.97c-2.44-2.01-5.14-3.73-7.42-5.9c-5.15-4.88-8.51-11.01-11.38-17.4
		C210.44,74.95,208.34,69.9,206.05,64.58z M84.51,91.34c2.56-0.37,4.98-0.66,7.38-1.08c3.77-0.66,5.69-3.5,4.99-7.24
		c-0.72-3.87-1.43-7.73-2.15-11.6c-2.19-11.79-4.38-23.59-6.6-35.38c-0.45-2.41-2.13-4.19-4.22-4.12c-3.6,0.13-7.18,0.51-10.96,0.81
		C76.82,52.36,80.65,71.76,84.51,91.34z"/>
	<path class="st1" d="M96.09,189.37c4.58-3.99,9-7.85,13.65-11.91c13.22,15.77,26.38,31.48,39.8,47.5
		c-6.29,2.66-12.13,5.61-18.27,7.62c-7.94,2.6-16.13,4.48-24.22,6.61c-0.58,0.15-1.44-0.02-1.92-0.37
		c-9.71-7.12-18.95-14.81-27.16-23.64c-9.99-10.74-17.46-23.2-23.86-36.31c-8.62-17.64-14.9-36.1-18.97-55.3
		c-2.86-13.49-4.44-27.11-4.07-40.94c0.19-7.11-0.1-14.23,0.1-21.34c0.13-4.63,0.7-9.26,1.18-13.87c0.06-0.6,0.59-1.32,1.11-1.67
		c9.17-6.18,18.74-11.42,30.08-12.34c1.48-0.12,2.96-0.28,4.42-0.54c1.01-0.18,1.38,0.16,1.58,1.12
		c3.58,17.23,7.2,34.45,10.77,51.68c0.42,2.01,0.57,4.08,0.89,6.45c-6.1-0.04-12.2-0.98-18.23,1.61
		C73.93,125.43,84.97,157.29,96.09,189.37z"/>
	<path class="st1" d="M232.43,185.53c-15.36-2.49-28.44-9.34-39.63-19.85c-9.07-8.52-15.71-18.58-19.13-30.68
		c-1.49-5.27-0.64-10.57-0.95-15.85c0.17-0.06,0.34-0.12,0.51-0.18c0.94,1.19,1.87,2.39,2.82,3.57
		c10.84,13.47,23.26,25.01,39.68,31.34c4.96,1.91,10.23,3.06,15.37,4.48c0.86,0.24,1.62,0.26,1.61,1.45
		c-0.04,8.4-0.05,16.81-0.07,25.21C232.64,185.14,232.55,185.26,232.43,185.53z"/>
	<path class="st1" d="M166.83,76.32c13.1,0.3,23.2,5.74,29.48,17.09c3.83,6.92,6.79,14.33,10.25,21.46
		c2.2,4.52,4.39,9.07,6.95,13.39c3.09,5.2,7.37,9.28,12.94,11.91c1.84,0.87,3.58,1.95,5.75,3.15c-4.41,1.43-8.49,1.49-12.58,1.34
		c-9.57-0.34-17.94-3.45-24.47-10.73c-4.51-5.02-7.61-10.9-10.06-17.12c-3.05-7.74-5.88-15.57-8.9-23.33
		c-2.23-5.73-4.81-11.29-8.71-16.13C167.25,77.07,167.08,76.73,166.83,76.32z"/>
	<path class="st1" d="M152.37,170.12c7.56-6.44,18.79-9.84,28.85-4.82c5.39,2.69,9.92,6.5,14.37,10.45
		c3.62,3.22,7.21,6.47,10.85,9.66c7.1,6.23,15.27,10.25,24.64,11.76c0.42,0.07,0.83,0.23,1.63,0.46c-1.09,1.02-1.82,2.13-2.85,2.61
		c-6.15,2.91-12.49,5.17-19.38,5.57c-7.92,0.46-14.8-2.12-20.63-7.28c-4.34-3.84-8.28-8.15-12.45-12.19
		c-3.43-3.32-6.8-6.73-10.45-9.8C162.9,173.15,158.73,169.76,152.37,170.12z"/>
	<path class="st1" d="M232.62,211c0,8.61,0,17.12,0,25.93c-3.19,0.2-6.32,0.59-9.46,0.57c-7.63-0.03-15.2-0.68-22.5-3.18
		c-14.32-4.91-22.27-15.42-25.98-29.62c-0.56-2.14-0.84-4.35-1.01-6.65C190.99,213.2,210.66,216.74,232.62,211z"/>
	<path class="st1" d="M154.04,221.69c-0.57-0.35-1.63-0.71-2.26-1.45c-12.55-14.52-25.05-29.07-37.55-43.63
		c-1.76-2.05-1.03-4.96,1.43-5.97c1.98-0.81,3.86-1.92,5.91-2.45c1.78-0.47,3.73-0.49,5.58-0.38c0.74,0.04,1.56,0.86,2.12,1.51
		c11.25,13.25,22.46,26.52,33.68,39.8c1.39,1.64,1.6,3.86-0.14,6.01c-1.84,2.27-4.17,4.16-6.38,6.11
		C156.03,221.6,155.21,221.49,154.04,221.69z"/>
	<path class="st1" d="M206.05,64.58c2.29,5.32,4.39,10.37,6.63,15.36c2.87,6.39,6.23,12.52,11.38,17.4c2.28,2.16,4.98,3.89,7.42,5.9
		c0.57,0.47,1.17,1.3,1.18,1.97c0.08,7.89,0.05,15.78,0.04,23.66c0,0.24-0.08,0.48-0.18,0.99c-2.31-1.68-4.49-3.22-6.61-4.84
		c-10.58-8.04-18.41-18.03-21.86-31.08c-1.19-4.49-1.3-9.01-0.45-13.61C204.54,75.21,205.21,70.03,206.05,64.58z"/>
	<path class="st1" d="M84.51,91.34c-3.86-19.58-7.68-38.98-11.55-58.6c3.78-0.29,7.36-0.68,10.96-0.81
		c2.08-0.07,3.77,1.71,4.22,4.12c2.21,11.79,4.4,23.58,6.6,35.38c0.72,3.87,1.43,7.73,2.15,11.6c0.7,3.74-1.22,6.58-4.99,7.24
		C89.49,90.68,87.07,90.97,84.51,91.34z"/>
</g>
</svg>
