<?xml version="1.0" encoding="utf-8"?>
<!-- Generator: Adobe Illustrator 28.0.0, SVG Export Plug-In . SVG Version: 6.00 Build 0)  -->
<svg version="1.1" id="Ebene_1" xmlns="http://www.w3.org/2000/svg" xmlns:xlink="http://www.w3.org/1999/xlink" x="0px" y="0px"
	 viewBox="0 0 270.97 273.3" style="enable-background:new 0 0 270.97 273.3;" xml:space="preserve">
<style type="text/css">
	.st0{fill:#FF0000;}
	.st1{fill:#FFFFFF;}
</style>
<g>
	<path class="st0" d="M259.8,11.83c0,82.64,0,165,0,247.58c-0.64,0.03-1.24,0.08-1.83,0.08c-81.35,0-162.7,0-244.04,0.04
		c-1.6,0-1.98-0.48-1.98-2.01c0.03-81.23,0.03-162.47,0-243.7c0-1.5,0.33-2.03,1.96-2.03c81.35,0.04,162.7,0.04,244.04,0.04
		C258.5,11.83,259.06,11.83,259.8,11.83z M34.17,130.72c44.13,0,88.01,0,131.91,0c0-3.78,0-7.44,0-11.26
		c-3.98,0-7.83-0.13-11.68,0.05c-2.15,0.1-3.48-0.6-4.82-2.28c-2.02-2.53-4-4.88-3.35-8.45c0.16-0.87,0.43-1.29,1.17-1.8
		c2.59-1.8,5.43-3.44,7.49-5.75c15.05-16.9,15.04-42.03,0.15-59.35c-4.43-5.16-10.07-7.86-16.88-7.87
		c-25.28-0.03-50.56-0.03-75.84,0c-6.54,0.01-12.03,2.52-16.44,7.34C33.24,55.16,30.59,76.04,39.5,92.57
		c3.3,6.11,7.29,11.67,13.93,14.68c0.37,0.17,0.66,0.85,0.72,1.33c0.37,2.81-0.05,5.38-2.34,7.4c-0.76,0.67-1.2,1.68-1.96,2.34
		c-0.61,0.53-1.48,1.06-2.24,1.09c-3.97,0.11-7.95,0.05-11.93,0.05c-0.74,0-1.52-0.11-1.51,1.05
		C34.18,123.85,34.17,127.2,34.17,130.72z M237.63,184.09c0-9.35,0-18.45,0-27.48c-12.81-0.9-23.6-6.5-33.75-13.58
		c-10.14-7.08-18.72-15.7-25.21-26.38c-0.76,4.74-0.8,9.4,0.23,13.92c3.45,15.2,11.43,27.68,23.36,37.6
		c8.28,6.88,18.19,10.54,28.28,13.75C232.85,182.65,235.17,183.34,237.63,184.09z M237.59,142.13c-0.49-0.36-0.64-0.51-0.82-0.59
		c-7.07-3.34-12.97-8.21-17.57-14.44c-6.16-8.33-10.98-17.5-14.74-27.14c-3.14-8.03-7.5-14.95-14.64-19.97
		c-2.58-1.82-5.26-3.35-8.34-4.07c-3.15-0.73-6.31-0.67-9.39-0.16c2.16,2.32,4.31,4.47,6.28,6.78c3.15,3.67,3.97,8.32,5.07,12.82
		c1.89,7.78,4.14,15.44,7.89,22.57c4.92,9.34,11.05,17.45,20.94,22.26C220.42,144.15,228.63,144.61,237.59,142.13z M158.04,169.48
		c0.71,0.43,0.8,0.51,0.9,0.54c0.33,0.1,0.66,0.18,0.99,0.26c5.82,1.4,11.32,3.57,15.64,7.84c3.18,3.14,6.06,6.6,8.88,10.08
		c3.41,4.2,6.74,8.47,11.38,11.39c8.52,5.34,17.74,6.87,27.61,4.95c5.39-1.05,9.95-3.56,14.25-7.33c-3.22-0.98-6.19-1.85-9.14-2.8
		c-8.77-2.82-16.73-6.99-23.06-13.9c-2.26-2.47-4.48-5.01-6.98-7.21c-4.28-3.77-9.03-6.73-14.57-8.55c-6.2-2.04-12.13-1.08-18,0.84
		C163.3,166.44,160.91,168.03,158.04,169.48z M178.59,198.08c0.04,0.33,0.03,0.61,0.11,0.87c1.56,4.85,2.77,9.85,4.76,14.52
		c4.8,11.27,13.07,18.71,25.17,21.68c9.38,2.3,18.89,2.27,28.44,2c0.2-0.01,0.4-0.14,0.54-0.2c0-8.85,0-17.62,0-26.56
		C215.68,216.87,195.91,213.69,178.59,198.08z M211.53,63.42c-2.56,8.12-3.29,16.38-2.67,24.77c0.37,4.97,1.56,9.73,3.76,14.22
		c4.92,10.03,12.56,17.72,21.17,24.56c1.17,0.93,2.43,1.75,3.69,2.65c0.17-0.36,0.25-0.46,0.25-0.56
		c0.01-8.75,0.04-17.49-0.02-26.24c0-0.47-0.64-1.16-1.14-1.36c-4.81-1.98-8.67-5.15-11.68-9.35c-4.56-6.37-7.79-13.43-10.57-20.71
		C213.31,68.76,212.46,66.08,211.53,63.42z"/>
	<path class="st1" d="M34.17,130.72c0-3.52,0.02-6.87-0.01-10.21c-0.01-1.16,0.77-1.05,1.51-1.05c3.98,0,7.95,0.06,11.93-0.05
		c0.77-0.02,1.63-0.55,2.24-1.09c0.76-0.66,1.21-1.67,1.96-2.34c2.29-2.02,2.7-4.59,2.34-7.4c-0.06-0.48-0.35-1.16-0.72-1.33
		c-6.65-3.01-10.64-8.57-13.93-14.68c-8.91-16.53-6.26-37.41,6.38-51.22c4.41-4.82,9.9-7.33,16.44-7.34
		c25.28-0.02,50.56-0.03,75.84,0c6.81,0.01,12.45,2.71,16.88,7.87c14.89,17.32,14.9,42.45-0.15,59.35
		c-2.06,2.31-4.91,3.95-7.49,5.75c-0.74,0.51-1.01,0.93-1.17,1.8c-0.65,3.57,1.33,5.92,3.35,8.45c1.34,1.68,2.67,2.38,4.82,2.28
		c3.84-0.19,7.7-0.05,11.68-0.05c0,3.82,0,7.48,0,11.26C122.17,130.72,78.3,130.72,34.17,130.72z M131.74,109.05
		c-0.79,0-1.52,0-2.25,0c-19.31,0-38.63,0-57.94,0c-3.23,0-3.37,0.12-2.95,3.33c0.07,0.57,0.42,1.16,0.78,1.64
		c1.06,1.4,2.28,2.69,3.28,4.13c0.74,1.08,1.63,1.33,2.87,1.33c15.17-0.04,30.34-0.19,45.5,0.09c4.16,0.08,6.98-0.9,9.29-4.44
		C131.57,113.22,132.24,111.53,131.74,109.05z M58.4,97.48c0,4.06,0,8.03,0,11.95c2.11,0,4.05,0,5.94,0c0-4.08,0-8.01,0-11.95
		C62.29,97.48,60.39,97.48,58.4,97.48z M142.07,97.38c-1.66,0-3.13,0.06-4.59-0.02c-1.1-0.06-1.52,0.34-1.5,1.45
		c0.05,2.44,0.01,4.88,0.01,7.31c0,1.1,0,2.21,0,3.32c2.23,0,4.12,0,6.08,0C142.07,105.43,142.07,101.54,142.07,97.38z"/>
	<path class="st1" d="M237.63,184.09c-2.45-0.75-4.77-1.44-7.08-2.17c-10.1-3.21-20.01-6.87-28.28-13.75
		c-11.93-9.92-19.91-22.41-23.36-37.6c-1.03-4.52-0.98-9.18-0.23-13.92c6.49,10.68,15.07,19.31,25.21,26.38
		c10.15,7.08,20.93,12.68,33.75,13.58C237.63,165.64,237.63,174.74,237.63,184.09z"/>
	<path class="st1" d="M237.59,142.13c-8.96,2.48-17.17,2.02-25.33-1.95c-9.88-4.81-16.02-12.91-20.94-22.26
		c-3.75-7.12-6-14.78-7.89-22.57c-1.09-4.51-1.92-9.15-5.07-12.82c-1.98-2.3-4.12-4.46-6.28-6.78c3.08-0.51,6.24-0.58,9.39,0.16
		c3.08,0.72,5.76,2.26,8.34,4.07c7.15,5.02,11.51,11.94,14.64,19.97c3.76,9.63,8.57,18.81,14.74,27.14
		c4.61,6.23,10.51,11.1,17.57,14.44C236.95,141.62,237.1,141.78,237.59,142.13z"/>
	<path class="st1" d="M158.04,169.48c2.87-1.45,5.26-3.04,7.9-3.9c5.87-1.92,11.8-2.88,18-0.84c5.53,1.82,10.29,4.78,14.57,8.55
		c2.5,2.2,4.72,4.74,6.98,7.21c6.32,6.91,14.28,11.08,23.06,13.9c2.95,0.95,5.93,1.82,9.14,2.8c-4.29,3.78-8.86,6.29-14.25,7.33
		c-9.86,1.91-19.09,0.39-27.61-4.95c-4.65-2.91-7.98-7.18-11.38-11.39c-2.82-3.48-5.71-6.93-8.88-10.08
		c-4.31-4.26-9.81-6.44-15.64-7.84c-0.33-0.08-0.66-0.17-0.99-0.26C158.84,169.99,158.75,169.91,158.04,169.48z"/>
	<path class="st1" d="M178.59,198.08c17.32,15.61,37.09,18.79,59.03,12.31c0,8.95,0,17.71,0,26.56c-0.14,0.05-0.34,0.19-0.54,0.2
		c-9.54,0.28-19.05,0.31-28.44-2c-12.11-2.97-20.37-10.41-25.17-21.68c-1.99-4.67-3.2-9.67-4.76-14.52
		C178.62,198.69,178.63,198.41,178.59,198.08z"/>
	<path class="st1" d="M211.53,63.42c0.92,2.66,1.78,5.35,2.78,7.98c2.78,7.28,6.02,14.34,10.57,20.71c3.01,4.2,6.86,7.37,11.68,9.35
		c0.5,0.21,1.13,0.89,1.14,1.36c0.06,8.75,0.04,17.49,0.02,26.24c0,0.1-0.09,0.2-0.25,0.56c-1.26-0.9-2.52-1.72-3.69-2.65
		c-8.61-6.85-16.25-14.53-21.17-24.56c-2.2-4.49-3.39-9.25-3.76-14.22C208.24,79.8,208.98,71.54,211.53,63.42z"/>
	<path class="st0" d="M131.74,109.05c0.51,2.47-0.16,4.17-1.42,6.08c-2.31,3.54-5.13,4.51-9.29,4.44
		c-15.16-0.28-30.33-0.12-45.5-0.09c-1.24,0-2.12-0.25-2.87-1.33c-1-1.44-2.22-2.73-3.28-4.13c-0.36-0.47-0.7-1.06-0.78-1.64
		c-0.42-3.21-0.29-3.33,2.95-3.33c19.31,0,38.63,0,57.94,0C130.22,109.05,130.94,109.05,131.74,109.05z"/>
	<path class="st0" d="M58.4,97.48c1.99,0,3.89,0,5.94,0c0,3.94,0,7.87,0,11.95c-1.89,0-3.83,0-5.94,0
		C58.4,105.5,58.4,101.54,58.4,97.48z"/>
	<path class="st0" d="M142.07,97.38c0,4.15,0,8.04,0,12.07c-1.96,0-3.85,0-6.08,0c0-1.11,0-2.21,0-3.32c0-2.44,0.04-4.88-0.01-7.31
		c-0.02-1.11,0.39-1.51,1.5-1.45C138.94,97.44,140.41,97.38,142.07,97.38z"/>
</g>
</svg>
