<?xml version="1.0" encoding="utf-8"?>
<!-- Generator: Adobe Illustrator 28.0.0, SVG Export Plug-In . SVG Version: 6.00 Build 0)  -->
<svg version="1.1" id="Ebene_1" xmlns="http://www.w3.org/2000/svg" xmlns:xlink="http://www.w3.org/1999/xlink" x="0px" y="0px"
	 viewBox="0 0 270.97 273.3" style="enable-background:new 0 0 270.97 273.3;" xml:space="preserve">
<style type="text/css">
	.st0{fill:#FF0000;}
	.st1{fill:#FFFFFF;}
</style>
<g>
	<path class="st0" d="M255.72,158.76c0,34.41,0,68.83,0,103.24c-80.33,0-160.67,0-241,0c0-83.11,0-166.22,0-249.33
		c32.13,0,64.27,0,96.4,0c-0.02,0.44-0.06,0.89-0.06,1.33c-0.01,45.7-0.02,91.4-0.02,137.1c0,1.88,0.03,3.77,0,5.65
		c-0.03,1.94,0.09,2.09,2.09,2.09c46.29,0,92.59,0,138.88-0.01C253.24,158.82,254.48,158.78,255.72,158.76z M150.44,252.8
		c0,0.11,0,0.21,0,0.32c10.61,0,21.22-0.03,31.82,0.01c15.17,0.06,30.34,0.15,45.51,0.27c1.41,0.01,1.95-0.41,1.9-1.85
		c-0.09-2.33-0.02-4.66-0.01-6.99c0.01-2.48,0.02-2.48-2.44-2.48c-28.56,0.02-57.11,0.05-85.67,0.05c-9.02,0-18.05-0.07-27.07-0.14
		c-0.57,0-1.14-0.36-1.71-0.56c0.23-0.58,0.32-1.29,0.72-1.71c1.31-1.42,2.79-2.68,4.1-4.1c2.66-2.87,5.28-5.77,7.85-8.72
		c0.3-0.34,0.45-1.19,0.24-1.52c-1.65-2.53-3.36-5.02-5.17-7.44c-0.37-0.5-1.23-0.88-1.86-0.88c-15.86-0.05-31.73-0.06-47.59-0.01
		c-0.77,0-1.77,0.47-2.27,1.05c-2.3,2.73-4.42,5.6-6.67,8.36c-0.76,0.94-0.65,1.66,0.14,2.45c2.19,2.22,4.36,4.46,6.54,6.7
		c1.14,1.17,2.36,2.28,3.36,3.55c1.07,1.35,0.85,1.83-0.71,2.53c-0.81,0.36-1.64,0.7-2.41,1.14c-2.06,1.16-2.88,3.09-2.44,5.58
		c0.36,2.05,1.58,3.3,4.04,3.45c4.34,0.27,8.7,0.37,13.05,0.41C105.93,252.47,128.18,252.63,150.44,252.8z M231.6,254.85
		c-0.57,0.04-1.1,0.12-1.63,0.12c-6.3,0.02-12.6,0.09-18.89,0.03c-29.5-0.28-59-0.64-88.5-0.89c-15.37-0.13-30.74-0.06-46.11-0.17
		c-2.46-0.02-4.99-0.21-7.34-0.86c-1.48-0.41-3.29-1.56-3.87-2.86c-1.39-3.12,0.25-7.97,3.74-9.47c0.38-0.16,0.72-0.41,1.27-0.73
		c-0.88-1.01-1.59-1.9-2.37-2.71c-2.52-2.6-5.03-5.2-7.62-7.73c-1.13-1.11-1.22-2.19-0.4-3.44c0.32-0.5,0.68-0.97,1.06-1.43
		c2.12-2.62,4.28-5.2,6.34-7.86c0.8-1.03,1.65-1.54,2.99-1.54c16.31,0.02,32.63-0.02,48.94,0.02c0.72,0,1.7,0.45,2.12,1.01
		c2.09,2.76,4.08,5.6,6.03,8.47c1.09,1.6,0.94,2.27-0.41,3.66c-2.28,2.34-4.58,4.67-6.81,7.06c-1.3,1.39-2.47,2.91-3.96,4.68
		c1.12,0.07,1.83,0.15,2.54,0.15c19.89,0.01,39.77-0.02,59.66,0.02c16.86,0.03,33.72,0.14,50.58,0.24c0.88,0.01,1.75,0.23,2.67,0.35
		c0.01-0.04,0.06-0.28,0.09-0.52c0.25-2.66,0.17-2.75-2.5-2.78c-24.89-0.25-49.78-0.5-74.67-0.74c-8.38-0.08-16.76-0.14-25.14-0.22
		c-0.91-0.01-1.81-0.1-3.08-0.17c0.57-0.82,0.87-1.31,1.23-1.75c1.74-2.16,3.45-4.35,5.25-6.45c0.74-0.86,0.65-1.52,0.04-2.36
		c-1.56-2.18-3.09-4.37-4.58-6.59c-0.7-1.04-1.3-2.14-2.01-3.32c0.53-0.18,0.75-0.32,0.98-0.32c3.31-0.05,5.57-1.97,7.77-4.15
		c3.51-3.48,5.91-7.69,8-12.08c1.57-3.29,2.53-6.78,2.52-10.47c0-1.44-0.38-1.68-1.75-1.21c-5.07,1.74-10.04,3.71-14.59,6.59
		c-2.16,1.37-4.28,2.79-6.54,4.26c0.04-0.49,0.06-0.86,0.09-1.24c0.2-2.61-0.45-4.99-1.76-7.25c-0.78-1.34-1.91-1.82-3.26-1.23
		c-1.76,0.76-3.56,1.55-5.1,2.67c-2.92,2.12-5.64,4.53-8.51,6.72c-1.3,0.99-1.51,0.85-2.02-0.68c-0.97-2.95-2.19-5.72-4.67-7.79
		c-2.34-1.94-4.14-1.89-5.89,0.57c-1.64,2.29-3.03,4.76-4.54,7.14c-0.41,0.64-0.85,1.26-1.35,2c-1.73-2.04-3.25-3.92-4.87-5.7
		c-2.66-2.92-5.96-4.71-9.87-5.36c-1.21-0.2-2,0.12-2.2,1.49c-0.38,2.49-0.89,4.97-1.24,7.46c-0.15,1.08-0.5,1.34-1.41,0.74
		c-0.87-0.57-1.75-1.13-2.61-1.72c-5.21-3.59-10.6-6.82-16.9-8.14c-0.68-0.14-1.38-0.16-2.43-0.27c0.58,2.54,0.99,4.72,1.58,6.86
		c2.37,8.72,6.53,16.16,14.96,20.46c0.85,0.43,1.03,0.97,0.4,1.76c-1.74,2.22-3.42,4.49-5.19,6.69c-1.51,1.87-1.76,3.64-0.53,5.12
		c0.54,0.64,1.15,1.23,1.78,1.78c1.89,1.67,3.85,3.28,5.71,4.99c2.1,1.93,2.12,3.25,0.57,5.55c-0.96,1.42-1.99,2.95-2.36,4.58
		c-1.18,5.16-0.61,7.76,3.95,10.27c3.5,1.92,7.37,2.26,11.25,2.31c5.01,0.06,10.02-0.11,15.02-0.11
		c45.92-0.01,91.84-0.01,137.76-0.01c2.87,0,2.95-0.1,2.72-2.92C231.7,255.25,231.64,255.06,231.6,254.85z M67.56,170.99
		c0.05-0.4,0.11-0.55,0.09-0.69c-0.1-0.64-0.2-1.27-0.33-1.9c-1.64-7.74-1.12-15.15,3.26-22.02c2.93-4.59,5.89-9.17,8.63-13.88
		c5.02-8.62,7.26-17.96,6.59-27.93c-0.34-5.07-1.63-9.88-4.82-13.98c-1.25-1.61-2.55-3.23-4.54-4.04c-0.14,0.26-0.23,0.35-0.23,0.43
		c0.01,0.84,0,1.69,0.07,2.52c0.46,5.21,0.41,10.4-0.57,15.54c-1.41,7.46-4.7,14.15-8.54,20.62c-3.99,6.73-8.14,13.38-11.74,20.31
		c-3.55,6.83-3.59,15.65,4.6,21.41C62.3,168.98,64.65,170.47,67.56,170.99z M88.73,47.72c-2.16,2.26-3.8,4.26-4.06,7.1
		c-0.28,3.14,1.31,5.5,3.22,7.72c2.73,3.19,5.56,6.3,8.17,9.59c2.55,3.22,3.92,6.93,3.96,11.12c0.04,4.12-1.15,7.9-2.76,11.61
		c-0.3,0.7-0.54,1.42-0.92,2.46c0.78-0.24,1.24-0.27,1.57-0.5c2.5-1.67,5.21-3.13,7.36-5.17c1.42-1.34,2.44-3.44,2.91-5.37
		c1.07-4.39,0.6-8.8-1.42-12.9c-3.18-6.47-8.33-11.16-14.26-15c-1.84-1.19-2.73-2.61-3.03-4.58c-0.21-1.37-0.26-2.76-0.4-4.14
		C89.02,49.17,88.9,48.67,88.73,47.72z M49.09,106.58c5.11-1.41,10.62-5.89,11.69-12.01c1.07-6.09-0.5-11.61-4.12-16.54
		c-3-4.08-6.92-7.22-11.07-10.03c-2.4-1.62-3.62-3.7-3.75-6.52c-0.04-0.84-0.06-1.68-0.14-2.52c-0.06-0.55-0.22-1.09-0.35-1.7
		c-3.89,2.38-5.65,8.31-2.4,12.48c2.43,3.11,5.08,6.06,7.75,8.97c5.71,6.22,7.22,13.35,4.76,21.35
		C50.81,102.23,49.93,104.32,49.09,106.58z M231.57,242.8c-0.04,0.01-0.07,0.02-0.11,0.03c0,3.39,0,6.77,0,10.16
		c0.04,0,0.07,0,0.11,0C231.57,249.59,231.57,246.2,231.57,242.8z"/>
	<path class="st0" d="M255.72,14.15c0,47.41,0,94.81,0,142.22c-0.49,0.02-0.99,0.05-1.48,0.05c-44.78,0-89.55,0-134.33,0.01
		c-1.74,0-3.47-0.04-5.21,0c-1.03,0.02-1.33-0.35-1.33-1.4c0.03-44.87,0.02-89.75,0.02-134.62c0-1.64,0.05-3.27-0.02-4.91
		c-0.05-1.25,0.37-1.81,1.7-1.77c1.98,0.06,3.97-0.03,5.95-0.03c43.09,0,86.18,0,129.27,0c1.14,0,2.28-0.01,3.42,0.07
		C254.39,13.81,255.05,14.02,255.72,14.15z M253.53,85.08c0-21.72,0-43.43,0-65.15c0-0.74-0.03-1.49,0.01-2.23
		c0.05-0.96-0.39-1.35-1.33-1.33c-1.49,0.04-2.97,0.05-4.46,0.05c-43.14,0-86.27,0-129.41,0c-2.04,0-2.12,0.05-2.12,2.06
		c-0.01,44.52,0,89.05-0.03,133.57c0,1.29,0.39,1.86,1.69,1.72c0.29-0.03,0.59,0.01,0.89,0.01c44.18,0,88.35,0,132.53-0.01
		c2.21,0,2.22-0.01,2.22-2.2C253.53,129.41,253.53,107.24,253.53,85.08z"/>
	<path class="st1" d="M255.72,14.15c-0.67-0.13-1.34-0.34-2.01-0.39c-1.14-0.08-2.28-0.07-3.42-0.07c-43.09,0-86.18,0-129.27,0
		c-1.98,0-3.97,0.09-5.95,0.03c-1.33-0.04-1.75,0.51-1.7,1.77c0.07,1.63,0.02,3.27,0.02,4.91c0,44.87,0,89.75-0.02,134.62
		c0,1.05,0.31,1.43,1.33,1.4c1.73-0.04,3.47,0,5.21,0c44.78,0,89.55,0,134.33-0.01c0.49,0,0.99-0.03,1.48-0.05c0,0.79,0,1.59,0,2.38
		c-1.24,0.02-2.48,0.07-3.72,0.07c-46.29,0.01-92.59,0.01-138.88,0.01c-1.99,0-2.12-0.15-2.09-2.09c0.03-1.88,0-3.77,0-5.65
		c0.01-45.7,0.01-91.4,0.02-137.1c0-0.44,0.04-0.89,0.06-1.33c48.2,0,96.4,0,144.6,0C255.72,13.16,255.72,13.66,255.72,14.15z"/>
	<path class="st1" d="M150.44,252.8c-22.26-0.17-44.51-0.33-66.77-0.53c-4.35-0.04-8.71-0.14-13.05-0.41
		c-2.45-0.15-3.67-1.41-4.04-3.45c-0.44-2.48,0.38-4.41,2.44-5.58c0.77-0.44,1.6-0.78,2.41-1.14c1.56-0.7,1.78-1.17,0.71-2.53
		c-1.01-1.28-2.23-2.38-3.36-3.55c-2.17-2.24-4.35-4.47-6.54-6.7c-0.78-0.8-0.9-1.52-0.14-2.45c2.25-2.77,4.38-5.64,6.67-8.36
		c0.49-0.59,1.5-1.05,2.27-1.05c15.86-0.06,31.73-0.05,47.59,0.01c0.64,0,1.49,0.39,1.86,0.88c1.81,2.42,3.52,4.91,5.17,7.44
		c0.22,0.33,0.06,1.19-0.24,1.52c-2.57,2.95-5.19,5.85-7.85,8.72c-1.31,1.41-2.79,2.68-4.1,4.1c-0.4,0.43-0.49,1.13-0.72,1.71
		c0.57,0.19,1.14,0.55,1.71,0.56c9.02,0.08,18.04,0.14,27.07,0.14c28.56,0,57.11-0.03,85.67-0.05c2.46,0,2.46,0,2.44,2.48
		c-0.01,2.33-0.07,4.66,0.01,6.99c0.05,1.44-0.49,1.86-1.9,1.85c-15.17-0.12-30.34-0.22-45.51-0.27
		c-10.61-0.04-21.22-0.01-31.82-0.01C150.44,253.01,150.44,252.91,150.44,252.8z M94.15,227.75c0,0.01,0,0.02,0,0.03
		c8.42,0,16.84,0,25.27,0c0.25,0,0.53,0.06,0.73-0.04c0.33-0.16,0.6-0.43,0.9-0.66c-0.23-0.29-0.4-0.74-0.69-0.84
		c-0.65-0.21-1.35-0.33-2.03-0.33c-11.54,0.01-23.09,0.03-34.63,0.07c-4.95,0.02-9.91,0.06-14.86,0.16
		c-0.53,0.01-1.06,0.47-1.58,0.72c0.54,0.3,1.09,0.6,1.64,0.88c0.08,0.04,0.2,0,0.29,0C77.5,227.75,85.82,227.75,94.15,227.75z
		 M77.87,239.98c-0.03,0.23-0.05,0.45-0.08,0.68c0.81,0.15,1.61,0.41,2.42,0.42c9.41,0.1,18.82,0.18,28.23,0.22
		c0.49,0,0.99-0.3,1.48-0.47c0-0.23-0.01-0.45-0.01-0.68c-1.1-0.24-2.21-0.7-3.31-0.7c-8.96,0.04-17.93,0.17-26.89,0.28
		C79.09,239.74,78.48,239.89,77.87,239.98z"/>
	<path class="st1" d="M231.6,254.85c0.04,0.21,0.1,0.4,0.11,0.59c0.24,2.82,0.16,2.92-2.72,2.92c-45.92,0-91.84,0-137.76,0.01
		c-5.01,0-10.02,0.17-15.02,0.11c-3.88-0.05-7.75-0.39-11.25-2.31c-4.56-2.5-5.14-5.1-3.95-10.27c0.37-1.63,1.41-3.16,2.36-4.58
		c1.55-2.3,1.53-3.62-0.57-5.55c-1.86-1.71-3.81-3.32-5.71-4.99c-0.63-0.56-1.24-1.14-1.78-1.78c-1.23-1.48-0.98-3.24,0.53-5.12
		c1.77-2.2,3.45-4.47,5.19-6.69c0.62-0.79,0.45-1.33-0.4-1.76c-8.44-4.29-12.59-11.73-14.96-20.46c-0.58-2.14-1-4.32-1.58-6.86
		c1.04,0.11,1.75,0.13,2.43,0.27c6.3,1.32,11.69,4.55,16.9,8.14c0.86,0.59,1.74,1.15,2.61,1.72c0.91,0.6,1.26,0.34,1.41-0.74
		c0.35-2.5,0.86-4.97,1.24-7.46c0.21-1.37,0.99-1.69,2.2-1.49c3.91,0.65,7.21,2.44,9.87,5.36c1.62,1.78,3.14,3.67,4.87,5.7
		c0.5-0.74,0.94-1.36,1.35-2c1.51-2.38,2.9-4.85,4.54-7.14c1.76-2.46,3.56-2.51,5.89-0.57c2.48,2.06,3.7,4.84,4.67,7.79
		c0.5,1.53,0.72,1.67,2.02,0.68c2.87-2.19,5.59-4.6,8.51-6.72c1.54-1.12,3.34-1.91,5.1-2.67c1.35-0.58,2.48-0.1,3.26,1.23
		c1.31,2.25,1.96,4.64,1.76,7.25c-0.03,0.37-0.06,0.75-0.09,1.24c2.26-1.48,4.38-2.9,6.54-4.26c4.55-2.88,9.52-4.85,14.59-6.59
		c1.37-0.47,1.75-0.23,1.75,1.21c0.01,3.69-0.95,7.18-2.52,10.47c-2.09,4.39-4.48,8.6-8,12.08c-2.2,2.18-4.47,4.1-7.77,4.15
		c-0.23,0-0.46,0.14-0.98,0.32c0.71,1.18,1.31,2.28,2.01,3.32c1.5,2.22,3.02,4.42,4.58,6.59c0.6,0.84,0.7,1.49-0.04,2.36
		c-1.81,2.1-3.52,4.29-5.25,6.45c-0.36,0.45-0.66,0.93-1.23,1.75c1.27,0.07,2.17,0.16,3.08,0.17c8.38,0.08,16.76,0.13,25.14,0.22
		c24.89,0.24,49.78,0.49,74.67,0.74c2.67,0.03,2.75,0.12,2.5,2.78c-0.02,0.24-0.08,0.49-0.09,0.52c-0.92-0.13-1.79-0.35-2.67-0.35
		c-16.86-0.1-33.72-0.2-50.58-0.24c-19.89-0.04-39.77-0.01-59.66-0.02c-0.71,0-1.42-0.08-2.54-0.15c1.49-1.78,2.66-3.29,3.96-4.68
		c2.23-2.39,4.53-4.71,6.81-7.06c1.35-1.39,1.49-2.06,0.41-3.66c-1.95-2.87-3.93-5.71-6.03-8.47c-0.43-0.56-1.4-1.01-2.12-1.01
		c-16.31-0.04-32.63,0-48.94-0.02c-1.34,0-2.19,0.51-2.99,1.54c-2.06,2.66-4.23,5.24-6.34,7.86c-0.37,0.46-0.73,0.94-1.06,1.43
		c-0.82,1.25-0.73,2.33,0.4,3.44c2.59,2.53,5.1,5.13,7.62,7.73c0.78,0.81,1.49,1.69,2.37,2.71c-0.55,0.32-0.89,0.57-1.27,0.73
		c-3.49,1.5-5.12,6.35-3.74,9.47c0.58,1.3,2.4,2.45,3.87,2.86c2.35,0.65,4.88,0.84,7.34,0.86c15.37,0.11,30.74,0.04,46.11,0.17
		c29.5,0.25,59,0.61,88.5,0.89c6.3,0.06,12.6-0.01,18.89-0.03C230.5,254.97,231.03,254.89,231.6,254.85z M138.56,196.03
		c0-0.5,0.05-0.71-0.01-0.89c-0.24-0.77-0.52-1.52-0.78-2.28c-0.65,0.25-1.43,0.36-1.94,0.78c-3.77,3.12-7.47,6.31-11.21,9.46
		c-1.7,1.43-2.65,3.32-3.25,5.38c-0.91,3.13,0.27,4.5,3.54,4.21c0.49-0.04,1.04-0.08,1.44-0.32c1.72-1.03,3.59-1.93,5.06-3.26
		C135.32,205.51,138.27,201.31,138.56,196.03z M64.45,213.21c2.59-0.25,3.4-1.17,3.11-3.66c-0.27-2.36-1.23-4.43-2.95-6.01
		c-2.58-2.38-5.26-4.65-7.98-6.87c-1.56-1.27-3.23-2.46-4.97-3.46c-1.36-0.78-1.82-0.41-1.72,1.12c0.24,3.53,1.36,6.76,3.24,9.76
		c2.08,3.31,4.98,5.75,8.23,7.79C62.35,212.46,63.44,212.77,64.45,213.21z M70.54,198.33c0.44,1.99,0.7,4.33,1.48,6.49
		c1.13,3.12,2.91,5.86,6.08,7.37c1.94,0.93,4.65,0.57,5.45-0.72c1.18-1.9,1.01-5.86-0.32-7.67c-0.94-1.28-1.74-2.68-2.83-3.81
		c-2.33-2.41-4.77-4.72-7.24-6.98c-0.87-0.8-1.64-0.54-1.85,0.74C71.08,195.15,70.84,196.56,70.54,198.33z M118.08,197.87
		c-0.2-1.31-0.28-2.66-0.64-3.92c-0.57-2.01-1.63-2.33-3.03-0.78c-2.78,3.07-5.32,6.36-8.08,9.44c-1.64,1.83-2.05,4.01-2.22,6.28
		c-0.17,2.3,1.35,3.76,3.64,3.69c2.38-0.08,4.22-1.27,5.81-2.92C116.71,206.38,118.09,202.42,118.08,197.87z M99.53,203.72
		c-0.15-3.95-1.44-7.34-4.02-10.23c-1.23-1.38-1.71-1.44-2.73,0.04c-1.36,1.98-2.74,4-3.68,6.2c-1.3,3.06-1.74,6.27-0.18,9.49
		c0.98,2.03,2.45,3.31,4.72,3.2c2.27-0.11,3.95-1.4,4.7-3.54C98.92,207.23,99.14,205.45,99.53,203.72z"/>
	<path class="st1" d="M67.56,170.99c-2.91-0.52-5.26-2.01-7.51-3.59c-8.19-5.76-8.15-14.57-4.6-21.41
		c3.6-6.93,7.75-13.58,11.74-20.31c3.84-6.47,7.12-13.17,8.54-20.62c0.98-5.14,1.03-10.34,0.57-15.54
		c-0.07-0.84-0.06-1.68-0.07-2.52c0-0.08,0.09-0.17,0.23-0.43c1.99,0.81,3.29,2.43,4.54,4.04c3.19,4.1,4.48,8.91,4.82,13.98
		c0.67,9.97-1.57,19.31-6.59,27.93c-2.74,4.7-5.7,9.29-8.63,13.88c-4.39,6.87-4.9,14.27-3.26,22.02c0.13,0.63,0.23,1.27,0.33,1.9
		C67.67,170.44,67.62,170.59,67.56,170.99z"/>
	<path class="st1" d="M88.73,47.72c0.17,0.95,0.3,1.45,0.35,1.95c0.14,1.38,0.19,2.77,0.4,4.14c0.3,1.97,1.19,3.39,3.03,4.58
		c5.92,3.83,11.08,8.53,14.26,15c2.01,4.1,2.48,8.51,1.42,12.9c-0.47,1.93-1.49,4.03-2.91,5.37c-2.16,2.04-4.87,3.5-7.36,5.17
		c-0.33,0.22-0.8,0.26-1.57,0.5c0.39-1.04,0.62-1.77,0.92-2.46c1.61-3.71,2.81-7.49,2.76-11.61c-0.04-4.19-1.41-7.9-3.96-11.12
		c-2.61-3.29-5.43-6.4-8.17-9.59c-1.91-2.23-3.5-4.58-3.22-7.72C84.93,51.98,86.57,49.98,88.73,47.72z"/>
	<path class="st1" d="M49.09,106.58c0.83-2.27,1.71-4.35,2.38-6.51c2.45-8,0.95-15.13-4.76-21.35c-2.67-2.91-5.32-5.86-7.75-8.97
		c-3.25-4.17-1.5-10.1,2.4-12.48c0.13,0.61,0.3,1.15,0.35,1.7c0.09,0.84,0.11,1.68,0.14,2.52c0.12,2.82,1.35,4.9,3.75,6.52
		c4.15,2.81,8.06,5.95,11.07,10.03c3.63,4.93,5.19,10.44,4.12,16.54C59.71,100.7,54.2,105.17,49.09,106.58z"/>
	<path class="st1" d="M231.57,242.8c0,3.4,0,6.79,0,10.19c-0.04,0-0.07,0-0.11,0c0-3.39,0-6.77,0-10.16
		C231.49,242.82,231.53,242.81,231.57,242.8z"/>
	<path class="st1" d="M253.53,85.08c0,22.16,0,44.33,0,66.49c0,2.19,0,2.2-2.22,2.2c-44.18,0.01-88.35,0.01-132.53,0.01
		c-0.3,0-0.6-0.04-0.89-0.01c-1.3,0.14-1.69-0.43-1.69-1.72c0.03-44.52,0.02-89.05,0.03-133.57c0-2.01,0.08-2.06,2.12-2.06
		c43.14,0,86.27,0,129.41,0c1.49,0,2.97-0.01,4.46-0.05c0.94-0.02,1.38,0.37,1.33,1.33c-0.04,0.74-0.01,1.49-0.01,2.23
		C253.53,41.65,253.53,63.36,253.53,85.08z M154.96,85.59c-0.06-6.81,0.98-13.43,3.31-19.83c2.68-7.36,7.43-12.95,14.56-16.29
		c6.68-3.13,13.78-3.61,20.95-2.39c6.67,1.14,11.98,4.65,15.5,10.5c1.5,2.49,2.62,5.21,3.79,7.88c0.44,1,0.91,1.38,2.01,1.11
		c3.22-0.78,6.46-1.51,9.7-2.21c1.23-0.27,1.73-0.84,1.19-2.07c-0.99-2.27-1.87-4.59-2.98-6.79c-5.03-9.91-13-16.15-23.78-18.8
		c-6.34-1.55-12.72-1.77-19.18-0.81c-8.17,1.22-15.55,4.28-22.02,9.41c-7.95,6.31-12.53,14.77-14.72,24.48
		c-3.42,15.17-2.07,29.94,4.49,44.13c2.93,6.33,7.16,11.6,12.89,15.65c5.23,3.69,11.1,5.53,17.37,6.48
		c8.46,1.28,16.76,1.07,24.92-1.82c4.22-1.5,8.02-3.7,11.39-6.56c4.56-3.87,7.97-8.69,10.42-14.12c1.16-2.56,1.98-5.28,2.83-7.97
		c0.15-0.49-0.17-1.6-0.49-1.69c-3.61-1.05-7.27-1.97-10.92-2.88c-0.77-0.19-1.26,0.08-1.48,0.98c-0.4,1.63-0.92,3.24-1.48,4.82
		c-2.63,7.44-7.28,13.14-14.58,16.4c-5.69,2.54-11.67,3.04-17.76,1.91c-9.72-1.8-17.12-6.77-21.4-15.9
		C156,101.71,155.07,93.72,154.96,85.59z"/>
	<path class="st0" d="M94.15,227.75c-8.32,0-16.65,0-24.97,0c-0.1,0-0.22,0.04-0.29,0c-0.55-0.28-1.09-0.58-1.64-0.88
		c0.53-0.25,1.05-0.71,1.58-0.72c4.95-0.1,9.91-0.14,14.86-0.16c11.54-0.04,23.09-0.06,34.63-0.07c0.68,0,1.39,0.12,2.03,0.33
		c0.29,0.09,0.46,0.55,0.69,0.84c-0.3,0.23-0.57,0.5-0.9,0.66c-0.2,0.1-0.49,0.04-0.73,0.04c-8.42,0-16.84,0-25.27,0
		C94.15,227.77,94.15,227.76,94.15,227.75z"/>
	<path class="st0" d="M77.87,239.98c0.61-0.08,1.22-0.24,1.83-0.24c8.96-0.12,17.93-0.24,26.89-0.28c1.1-0.01,2.21,0.45,3.31,0.7
		c0,0.23,0.01,0.45,0.01,0.68c-0.49,0.16-0.99,0.47-1.48,0.47c-9.41-0.05-18.82-0.12-28.23-0.22c-0.81-0.01-1.61-0.27-2.42-0.42
		C77.81,240.43,77.84,240.2,77.87,239.98z"/>
	<path class="st0" d="M138.56,196.03c-0.29,5.28-3.23,9.49-7.16,13.07c-1.46,1.33-3.33,2.23-5.06,3.26
		c-0.4,0.24-0.95,0.28-1.44,0.32c-3.27,0.29-4.45-1.08-3.54-4.21c0.6-2.06,1.55-3.95,3.25-5.38c3.74-3.15,7.45-6.34,11.21-9.46
		c0.51-0.42,1.29-0.53,1.94-0.78c0.26,0.76,0.54,1.52,0.78,2.28C138.61,195.31,138.56,195.53,138.56,196.03z M136.54,195.62
		c-0.17-0.13-0.34-0.25-0.52-0.38c-3.14,2.73-6.28,5.46-9.42,8.19c0.12,0.15,0.24,0.29,0.36,0.44c1.22-0.88,2.41-1.8,3.67-2.61
		c0.49-0.31,1.47-0.68,1.67-0.48c0.42,0.43,0.58,1.21,0.63,1.86c0.05,0.61-0.18,1.25-0.28,1.88
		C135.23,202,136.51,199.06,136.54,195.62z"/>
	<path class="st0" d="M64.45,213.21c-1.01-0.44-2.1-0.75-3.03-1.33c-3.25-2.05-6.15-4.49-8.23-7.79c-1.88-2.99-3-6.23-3.24-9.76
		c-0.1-1.53,0.35-1.9,1.72-1.12c1.75,1,3.41,2.19,4.97,3.46c2.72,2.22,5.4,4.49,7.98,6.87c1.72,1.58,2.68,3.65,2.95,6.01
		C67.85,212.04,67.04,212.96,64.45,213.21z M51.99,195.57c-0.17,2.66,2.79,8.69,4.87,9.82c-0.22-1.13-0.55-2.22-0.61-3.32
		c-0.07-1.41,0.45-1.7,1.72-1.12c0.79,0.36,1.54,0.81,2.46,1.3C59.07,200.11,53.69,195.9,51.99,195.57z M59.34,206.12
		c0.82-1.76,0.68-2.12-1.02-2.5C58.68,204.51,58.98,205.23,59.34,206.12z"/>
	<path class="st0" d="M70.54,198.33c0.3-1.77,0.54-3.18,0.78-4.59c0.21-1.28,0.97-1.54,1.85-0.74c2.47,2.27,4.91,4.57,7.24,6.98
		c1.09,1.13,1.89,2.54,2.83,3.81c1.33,1.81,1.5,5.77,0.32,7.67c-0.8,1.29-3.51,1.65-5.45,0.72c-3.17-1.51-4.95-4.26-6.08-7.37
		C71.24,202.66,70.97,200.32,70.54,198.33z M74.35,205.73c0.15-0.02,0.29-0.04,0.44-0.05c0-0.57-0.01-1.14,0-1.71
		c0.01-0.59-0.01-1.19,0.07-1.78c0.3-2.16,0.82-2.4,2.58-1.16c0.81,0.57,1.56,1.21,2.29,1.87c0.47,0.42,0.85,0.92,1.28,1.38
		c-1.8-3.77-4.71-6.47-8.05-8.84C72.43,199.08,72.62,202.52,74.35,205.73z M78.48,204.33c-0.57-0.43-1.06-0.8-1.55-1.18
		c-0.14,0.07-0.28,0.14-0.42,0.22c0.11,0.75,0.21,1.5,0.35,2.43C77.47,205.24,77.89,204.86,78.48,204.33z M79.3,207.97
		c0.15,1.29,0.26,2.34,1.71,2.87C81.22,209.33,80.51,208.64,79.3,207.97z"/>
	<path class="st0" d="M118.08,197.87c0.01,4.55-1.38,8.5-4.52,11.79c-1.58,1.65-3.42,2.84-5.81,2.92c-2.29,0.07-3.81-1.39-3.64-3.69
		c0.16-2.27,0.57-4.44,2.22-6.28c2.76-3.08,5.3-6.37,8.08-9.44c1.4-1.55,2.46-1.23,3.03,0.78
		C117.8,195.22,117.88,196.56,118.08,197.87z M106.61,205.42c0.11,0.11,0.23,0.21,0.34,0.32c0.18-0.21,0.34-0.44,0.53-0.64
		c1.23-1.34,2.34-2.82,3.74-3.96c1.66-1.36,2.54-0.88,2.78,1.25c0.09,0.81,0.2,1.61,0.32,2.6c2.05-2.22,2.5-7.85,0.84-9.85
		C111.68,198.07,108.63,201.32,106.61,205.42z M112.45,205.31c-0.05-0.76-0.1-1.39-0.17-2.42c-1,0.71-1.68,1.19-2.61,1.85
		C110.79,204.97,111.45,205.11,112.45,205.31z M110.21,208.26c-0.15-0.09-0.3-0.18-0.46-0.27c-0.94,0.58-1.66,1.29-1.55,2.49
		c0.17,0.1,0.33,0.2,0.5,0.3C109.21,209.94,109.71,209.1,110.21,208.26z"/>
	<path class="st0" d="M99.53,203.72c-0.38,1.73-0.61,3.51-1.19,5.17c-0.75,2.14-2.43,3.43-4.7,3.54c-2.27,0.11-3.74-1.17-4.72-3.2
		c-1.56-3.22-1.12-6.43,0.18-9.49c0.93-2.19,2.32-4.22,3.68-6.2c1.02-1.48,1.5-1.42,2.73-0.04
		C98.09,196.39,99.38,199.78,99.53,203.72z M97.37,204.44c0.36-3.71-0.91-6.81-3.33-9.9c-2.02,3.5-4.3,6.46-3.74,10.72
		c0.88-1.43,1.57-2.66,2.36-3.84c1.1-1.64,1.82-1.67,2.99-0.02C96.32,202.35,96.8,203.42,97.37,204.44z M93.47,207.56
		c0,0.91,0,1.82,0,2.73c0.3-0.03,0.79,0.03,0.87-0.12C94.84,209.23,94.91,208.29,93.47,207.56z M93.83,202.59
		c-0.53,1.02-0.92,1.75-1.3,2.48c0.09,0.04,0.18,0.07,0.27,0.11c0.61-0.37,1.23-0.74,1.98-1.2
		C94.53,203.61,94.28,203.24,93.83,202.59z"/>
	<path class="st0" d="M154.96,85.59c0.11,8.13,1.03,16.12,4.54,23.6c4.28,9.13,11.69,14.1,21.4,15.9c6.1,1.13,12.07,0.62,17.76-1.91
		c7.3-3.26,11.95-8.96,14.58-16.4c0.56-1.59,1.08-3.19,1.48-4.82c0.22-0.91,0.71-1.18,1.48-0.98c3.65,0.92,7.3,1.84,10.92,2.88
		c0.32,0.09,0.65,1.2,0.49,1.69c-0.85,2.69-1.67,5.41-2.83,7.97c-2.45,5.44-5.86,10.25-10.42,14.12c-3.37,2.86-7.18,5.06-11.39,6.56
		c-8.15,2.9-16.45,3.1-24.92,1.82c-6.27-0.94-12.14-2.78-17.37-6.48c-5.73-4.05-9.97-9.32-12.89-15.65
		c-6.56-14.19-7.91-28.96-4.49-44.13c2.19-9.72,6.77-18.18,14.72-24.48c6.47-5.13,13.84-8.19,22.02-9.41
		c6.46-0.96,12.84-0.75,19.18,0.81c10.79,2.65,18.76,8.88,23.78,18.8c1.12,2.2,1.99,4.53,2.98,6.79c0.54,1.23,0.04,1.81-1.19,2.07
		c-3.24,0.7-6.48,1.43-9.7,2.21c-1.1,0.27-1.57-0.11-2.01-1.11c-1.18-2.67-2.3-5.39-3.79-7.88c-3.52-5.85-8.83-9.36-15.5-10.5
		c-7.16-1.22-14.27-0.74-20.95,2.39c-7.13,3.34-11.87,8.93-14.56,16.29C155.94,72.16,154.91,78.78,154.96,85.59z"/>
	<path class="st1" d="M136.54,195.62c-0.02,3.43-1.31,6.38-3.89,8.89c0.11-0.63,0.33-1.26,0.28-1.88c-0.05-0.65-0.21-1.43-0.63-1.86
		c-0.2-0.2-1.18,0.16-1.67,0.48c-1.26,0.81-2.45,1.73-3.67,2.61c-0.12-0.15-0.24-0.29-0.36-0.44c3.14-2.73,6.28-5.46,9.42-8.19
		C136.19,195.37,136.36,195.5,136.54,195.62z"/>
	<path class="st1" d="M51.99,195.57c1.7,0.33,7.08,4.53,8.44,6.69c-0.93-0.5-1.68-0.94-2.46-1.3c-1.27-0.58-1.79-0.29-1.72,1.12
		c0.05,1.1,0.39,2.19,0.61,3.32C54.78,204.26,51.82,198.24,51.99,195.57z"/>
	<path class="st1" d="M59.34,206.12c-0.36-0.89-0.66-1.62-1.02-2.5C60.02,204,60.16,204.37,59.34,206.12z"/>
	<path class="st1" d="M74.35,205.73c-1.73-3.21-1.92-6.65-1.39-10.28c3.35,2.37,6.25,5.07,8.05,8.84c-0.42-0.46-0.81-0.97-1.28-1.38
		c-0.73-0.66-1.49-1.31-2.29-1.87c-1.76-1.24-2.27-1-2.58,1.16c-0.08,0.58-0.06,1.18-0.07,1.78c-0.01,0.57,0,1.14,0,1.71
		C74.65,205.69,74.5,205.71,74.35,205.73z"/>
	<path class="st1" d="M78.48,204.33c-0.59,0.53-1.01,0.91-1.62,1.47c-0.13-0.92-0.24-1.68-0.35-2.43c0.14-0.07,0.28-0.14,0.42-0.22
		C77.42,203.53,77.91,203.9,78.48,204.33z"/>
	<path class="st1" d="M79.3,207.97c1.21,0.66,1.92,1.35,1.71,2.87C79.56,210.32,79.45,209.27,79.3,207.97z"/>
	<path class="st1" d="M106.61,205.42c2.02-4.1,5.08-7.35,8.55-10.3c1.66,2.01,1.21,7.64-0.84,9.85c-0.12-0.98-0.23-1.79-0.32-2.6
		c-0.24-2.13-1.12-2.61-2.78-1.25c-1.39,1.14-2.5,2.63-3.74,3.96c-0.19,0.2-0.35,0.43-0.53,0.64
		C106.83,205.63,106.72,205.53,106.61,205.42z"/>
	<path class="st1" d="M112.45,205.31c-1-0.2-1.67-0.34-2.78-0.56c0.94-0.66,1.62-1.15,2.61-1.85
		C112.35,203.92,112.4,204.55,112.45,205.31z"/>
	<path class="st1" d="M110.21,208.26c-0.5,0.84-1,1.68-1.5,2.52c-0.17-0.1-0.33-0.2-0.5-0.3c-0.11-1.21,0.61-1.92,1.55-2.49
		C109.91,208.08,110.06,208.17,110.21,208.26z"/>
	<path class="st1" d="M97.37,204.44c-0.57-1.02-1.05-2.1-1.72-3.04c-1.17-1.64-1.89-1.62-2.99,0.02c-0.78,1.17-1.48,2.4-2.36,3.84
		c-0.56-4.26,1.72-7.21,3.74-10.72C96.46,197.63,97.73,200.73,97.37,204.44z"/>
	<path class="st1" d="M93.47,207.56c1.44,0.73,1.37,1.67,0.87,2.61c-0.08,0.15-0.57,0.08-0.87,0.12
		C93.47,209.38,93.47,208.47,93.47,207.56z"/>
	<path class="st1" d="M93.83,202.59c0.45,0.65,0.7,1.02,0.96,1.39c-0.76,0.46-1.37,0.83-1.98,1.2c-0.09-0.04-0.18-0.07-0.27-0.11
		C92.91,204.34,93.29,203.61,93.83,202.59z"/>
</g>
</svg>
