<?xml version="1.0" encoding="utf-8"?>
<!-- Generator: Adobe Illustrator 27.6.0, SVG Export Plug-In . SVG Version: 6.00 Build 0)  -->
<svg version="1.1" id="Ebene_1" xmlns="http://www.w3.org/2000/svg" xmlns:xlink="http://www.w3.org/1999/xlink" x="0px" y="0px"
	 viewBox="0 0 271 273.3" style="enable-background:new 0 0 271 273.3;" xml:space="preserve">
<style type="text/css">
	.st0{fill:#FFFFFF;}
	.st1{fill:#E30613;}
</style>
<g>
	<path class="st0" d="M261,260.6c0-83.7,0-167.2,0-250.7c-83.7,0-167.2,0-250.8,0c0,83.7,0,167.1,0,250.7
		C93.9,260.6,177.3,260.6,261,260.6z"/>
	<path class="st1" d="M261,260.6c-83.7,0-167.1,0-250.8,0c0-83.6,0-167.1,0-250.7c83.6,0,167.1,0,250.8,0
		C261,93.4,261,176.9,261,260.6z M57.6,35.8C52,102.1,46.3,168.4,40.7,234.9c2.5,0,4.6-0.1,6.7,0c2.1,0.2,2.6-0.8,2.7-2.5
		c0.1-2.8,0.4-5.6,0.6-8.4c0.3-4,0.6-8,1-12.1c23.7,0,47,0,70.5,0c0.6,7.7,1.2,15.3,1.8,22.9c3.1,0,5.9,0,9,0
		c-0.1-2-0.2-3.8-0.3-5.6c-1.1-12.4-2.2-24.8-3.2-37.1c-0.8-9.3-1.5-18.7-2.3-28c-1-12.2-2.1-24.4-3.2-36.7
		c-0.8-9.4-1.6-18.8-2.4-28.2c-1-12.6-2.1-25.1-3.1-37.7c-0.7-8.1-1.3-16.2-2.1-24.3c-0.1-0.6-0.9-1.5-1.4-1.5
		c-1.9-0.2-3.9-0.1-6-0.1c0.4,5.5,0.8,10.7,1.1,15.8c-15.6,0-30.9,0-46.3,0c0.4-5.3,0.7-10.5,1.1-15.7C62.2,35.8,60,35.8,57.6,35.8z
		 M229.9,155.9c-24.7-5.2-43.2-19.2-58.2-39.2c-1.1,14.1,2.1,26.4,10.4,37.3c8.4,11,19.5,18.3,32.1,23.5c5,2.1,10.2,3.6,15.7,5.6
		C229.9,173.7,229.9,164.8,229.9,155.9z M230.4,141.5c-1.6-1.1-2.8-2-4-2.8c-10.3-6.9-18.4-15.8-23.7-27.2
		c-2.9-6.2-5.5-12.6-8.7-18.6c-3-5.8-7-10.9-12.8-14.2c-4.6-2.6-9.5-3.4-15.2-2c7.7,7.9,11.1,17.4,13.6,27.5
		c3.1,12.9,10.1,23.5,20.2,32C208.7,143.9,218.9,145.8,230.4,141.5z M152.7,168.3c7.1,1.9,13,4.6,17.5,9.7c2.3,2.7,4.4,5.6,6.5,8.5
		c10.7,14.7,24.9,19.8,42.5,15.1c4-1.1,7.9-2.4,11.3-5.4c-0.8-0.3-1.3-0.5-1.8-0.7c-3.8-1.2-7.6-2.1-11.4-3.5
		c-6.7-2.4-12.7-5.9-17.3-11.6c-2.7-3.3-6-6.2-9.4-8.9c-7.1-5.7-15-9.7-24.6-9C161.2,163,156.9,164.9,152.7,168.3z M172.5,196.2
		c0.4,11.8,6.5,23.3,15.6,29.7c12.2,8.5,26.1,9.8,40.4,8.5c1.6-0.1,1.5-1.1,1.5-2.3c0-6.7,0-13.4,0-20.1c0-1.2,0-2.4,0-3.8
		C208.7,214.2,189.4,211.4,172.5,196.2z M229.8,129.3c0.1-0.3,0.2-0.6,0.2-0.9c0-8.1,0.1-16.2,0-24.4c0-0.7-0.7-1.6-1.4-2
		c-4.5-2.2-8-5.6-11.1-9.4c-5.9-7.4-9.6-15.9-12.6-24.9c-0.2-0.7-0.5-1.4-0.9-2.5C194.6,92.5,207.9,118,229.8,129.3z"/>
	<path class="st0" d="M57.6,35.8c2.4,0,4.7,0,7.2,0c-0.3,5.2-0.7,10.4-1.1,15.7c15.4,0,30.6,0,46.3,0c-0.4-5.2-0.7-10.3-1.1-15.8
		c2.1,0,4.1-0.1,6,0.1c0.5,0,1.3,0.9,1.4,1.5c0.8,8.1,1.4,16.2,2.1,24.3c1,12.6,2.1,25.1,3.1,37.7c0.8,9.4,1.6,18.8,2.4,28.2
		c1,12.2,2.1,24.4,3.2,36.7c0.8,9.3,1.5,18.7,2.3,28c1.1,12.4,2.2,24.8,3.2,37.1c0.2,1.8,0.2,3.6,0.3,5.6c-3.1,0-5.9,0-9,0
		c-0.6-7.6-1.2-15.2-1.8-22.9c-23.5,0-46.8,0-70.5,0c-0.3,4.1-0.7,8.1-1,12.1c-0.2,2.8-0.4,5.6-0.6,8.4c-0.1,1.8-0.6,2.7-2.7,2.5
		c-2.1-0.2-4.3,0-6.7,0C46.3,168.4,52,102.1,57.6,35.8z M52.2,203.3c23.1,0,46.1,0,69.3,0c-0.6-7.4-1.1-14.7-1.7-22
		c-22.2,0-44,0-66,0C53.3,188.7,52.8,196,52.2,203.3z M119.2,172.6c-0.5-6.7-1.1-13.1-1.4-19.6c-0.1-2.1-0.7-2.6-2.8-2.6
		c-18.8,0.1-37.6,0-56.4,0.1c-0.8,0-1.6,0.1-2.4,0.2c-0.5,7.5-1.1,14.7-1.6,22C76.3,172.6,97.6,172.6,119.2,172.6z M116.9,142.1
		c-0.6-7.3-1.1-14.4-1.6-21.5c-19.1,0-37.8,0-56.8,0c-0.5,7.2-1.1,14.3-1.6,21.5C76.9,142.1,96.8,142.1,116.9,142.1z M113,90.2
		c-17.5,0-34.8,0-52.2,0c-0.5,7.2-1.1,14.4-1.7,21.5c18.7,0,37,0,55.5,0C114.1,104.5,113.5,97.4,113,90.2z M110.7,60.3
		c-15.9,0-31.7,0-47.7,0c-0.5,7.2-1,14.3-1.5,21.4c17.2,0,33.9,0,50.9,0C111.8,74.5,111.3,67.5,110.7,60.3z"/>
	<path class="st0" d="M229.9,155.9c0,8.9,0,17.7,0,27.2c-5.5-1.9-10.7-3.5-15.7-5.6c-12.6-5.2-23.7-12.5-32.1-23.5
		c-8.3-10.9-11.5-23.2-10.4-37.3C186.7,136.7,205.3,150.7,229.9,155.9z"/>
	<path class="st0" d="M230.4,141.5c-11.5,4.3-21.7,2.3-30.7-5.3c-10-8.5-17.1-19.2-20.2-32c-2.4-10.1-5.8-19.7-13.6-27.5
		c5.7-1.3,10.6-0.6,15.2,2C187,82,191,87.1,194,92.9c3.1,6.1,5.8,12.4,8.7,18.6c5.3,11.3,13.4,20.2,23.7,27.2
		C227.6,139.6,228.9,140.4,230.4,141.5z"/>
	<path class="st0" d="M152.7,168.3c4.2-3.4,8.5-5.3,13.4-5.7c9.5-0.8,17.4,3.3,24.6,9c3.4,2.7,6.6,5.6,9.4,8.9
		c4.7,5.7,10.6,9.1,17.3,11.6c3.7,1.4,7.6,2.4,11.4,3.5c0.5,0.2,1,0.4,1.8,0.7c-3.5,2.9-7.4,4.3-11.3,5.4
		c-17.6,4.7-31.8-0.4-42.5-15.1c-2.1-2.9-4.1-5.8-6.5-8.5C165.7,172.9,159.7,170.2,152.7,168.3z"/>
	<path class="st0" d="M172.5,196.2c16.9,15.2,36.2,18,57.6,12c0,1.4,0,2.6,0,3.8c0,6.7,0,13.4,0,20.1c0,1.1,0,2.1-1.5,2.3
		c-14.3,1.3-28.2,0-40.4-8.5C179,219.5,172.9,208,172.5,196.2z"/>
	<path class="st0" d="M229.8,129.3C207.9,118,194.6,92.5,204,65.2c0.4,1.1,0.7,1.8,0.9,2.5c2.9,8.9,6.7,17.5,12.6,24.9
		c3.1,3.8,6.6,7.2,11.1,9.4c0.6,0.3,1.4,1.3,1.4,2c0.1,8.1,0,16.2,0,24.4C230,128.6,229.9,128.9,229.8,129.3z"/>
	<path class="st1" d="M52.2,203.3c0.5-7.4,1.1-14.6,1.6-22c21.9,0,43.8,0,66,0c0.6,7.3,1.1,14.6,1.7,22
		C98.3,203.3,75.4,203.3,52.2,203.3z"/>
	<path class="st1" d="M119.2,172.6c-21.6,0-42.9,0-64.6,0c0.5-7.3,1.1-14.5,1.6-22c0.8-0.1,1.6-0.1,2.4-0.2c18.8,0,37.6,0,56.4-0.1
		c2,0,2.7,0.6,2.8,2.6C118.1,159.4,118.7,165.9,119.2,172.6z"/>
	<path class="st1" d="M116.9,142.1c-20.2,0-40,0-60,0c0.5-7.2,1.1-14.3,1.6-21.5c18.9,0,37.7,0,56.8,0
		C115.8,127.7,116.3,134.8,116.9,142.1z"/>
	<path class="st1" d="M113,90.2c0.5,7.2,1.1,14.3,1.6,21.5c-18.4,0-36.8,0-55.5,0c0.5-7.2,1.1-14.3,1.7-21.5
		C78.2,90.2,95.5,90.2,113,90.2z"/>
	<path class="st1" d="M110.7,60.3c0.6,7.2,1.1,14.2,1.7,21.4c-17,0-33.7,0-50.9,0c0.5-7.1,1-14.2,1.5-21.4
		C79,60.3,94.8,60.3,110.7,60.3z"/>
</g>
</svg>
