<?xml version="1.0" encoding="utf-8"?>
<!-- Generator: Adobe Illustrator 28.0.0, SVG Export Plug-In . SVG Version: 6.00 Build 0)  -->
<svg version="1.1" id="Ebene_1" xmlns="http://www.w3.org/2000/svg" xmlns:xlink="http://www.w3.org/1999/xlink" x="0px" y="0px"
	 viewBox="0 0 270.97 273.3" style="enable-background:new 0 0 270.97 273.3;" xml:space="preserve">
<style type="text/css">
	.st0{fill:#FF0000;}
	.st1{fill:#FFFFFF;}
</style>
<g>
	<path class="st0" d="M247.19,260.44c-78.16,0-156.32,0-234.49,0c0-77.32,0-154.63,0-231.95c0.68-0.07,1.36-0.19,2.03-0.19
		c9.99-0.01,19.99-0.01,29.98-0.01c26.39,0,52.77,0.01,79.16-0.02c1.25,0,1.75,0.27,1.75,1.65c-0.04,21.84-0.03,43.68-0.04,65.51
		c0,0.55-0.09,1.19-0.36,1.65c-2.3,3.91-4.68,7.78-6.99,11.69c-1.65,2.79-3.99,4.79-7.04,6.2c0.27-2.4,0.8-4.68,1.28-6.97
		c0.87-4.13,1.92-8.23,2.5-12.4c0.58-4.14-0.91-7.71-4.19-10.41c-1.67-1.38-3.39-2.7-5.13-3.98c-1.48-1.08-2.54-2.45-2.81-4.25
		c-0.38-2.5-0.59-5.03-0.87-7.54c-0.06-0.53-0.1-1.07-0.2-2.1c-1.5,1.4-2.76,2.37-3.78,3.55c-3.51,4.09-5.62,8.62-3.68,14.13
		c0.59,1.69,1.33,3.34,2.1,4.96c2.06,4.31,3.74,8.6,2.18,13.54c-1.83,5.81-1.43,11.8-1.02,17.78c0.18,2.66,0.44,5.43-0.08,8
		c-0.93,4.65-3.32,8.78-5.93,12.72c-1.65,2.49-1.82,2.47-4.3,0.66c-0.38-0.28-0.79-0.53-1.17-0.81c-1.05-0.79-1.67-0.58-2.02,0.72
		c-1.2,4.42-1.01,8.7,1.23,12.76c2.54,4.59,6.31,8.03,10.48,11.09c0.64,0.47,1.22,1.03,2.15,1.81c-1.23,0-1.95,0.02-2.68,0
		c-16.96-0.45-33.7,1.02-50,5.97c-7.32,2.22-14.31,5.18-20.33,10.07c-4.95,4.01-7.34,9.04-6.3,15.47c0.05,0.31,0.05,0.63,0.09,0.95
		c0.95,9.23,3.94,17.72,9.29,25.32c7.26,10.32,17.26,16.93,28.99,21.15c10.04,3.61,20.46,5.14,31.07,5.72
		c11.09,0.61,22.09,0.08,32.92-2.51c8.37-2.01,16.14-5.36,22.87-10.85c9.03-7.37,14.14-17.09,16.61-28.3
		c0.95-4.33,1.59-8.73,2.32-13.1c0.24-1.42,0.89-2.26,2.31-2.86c13.17-5.64,26.24-11.49,39.46-16.98c3.05-1.27,4.32-3.23,4.9-6.11
		c0.05-0.26,0.14-0.51,0.18-0.77c0.68-4.13-0.49-7.63-3.6-10.45c-1.3-1.18-2.75-1.42-4.4-0.74c-4.35,1.8-8.71,3.56-13.07,5.32
		c-12.44,5.03-24.88,10.07-37.35,15.05c-0.67,0.27-1.65,0.19-2.33-0.11c-3.68-1.59-7.31-3.29-10.96-4.95
		c-0.49-0.22-0.99-0.44-1.75-0.77c5.1-5.3,6.05-11.58,5.22-18.39c0.87-0.04,1.44-0.09,2.01-0.09c33.95,0,67.89,0.01,101.84-0.04
		c1.67,0,2,0.54,1.99,2.08c-0.06,9.94-0.03,19.88-0.03,29.82C247.21,212.22,247.2,236.33,247.19,260.44z M76.38,115.04
		c0.56-0.73,0.89-1.19,1.25-1.62c0.41-0.48,0.82-0.97,1.29-1.39c1.31-1.15,1.86-0.96,2.17,0.71c0.08,0.41,0.12,0.84,0.15,1.26
		c0.24,3.95,0.46,7.91,0.71,11.86c0.05,0.78,0.22,1.56,0.34,2.33c0.17,0.02,0.35,0.04,0.52,0.06c0.38-0.66,0.81-1.3,1.12-1.99
		c1.01-2.21,1.95-4.45,2.96-6.66c3.61-7.88,5.48-16.07,4.5-24.77c-0.43-3.83-1.36-7.5-3.94-10.52c-1.72-2.01-3.79-3.43-6.75-3.71
		c0.11,1.01,0.16,1.83,0.29,2.65C81.91,88.81,81.55,94.1,78,98.8c-0.44,0.59-0.72,1.29-1.13,1.91
		C73.86,105.24,74.54,109.91,76.38,115.04z M76.95,79.86c-0.23,0.01-0.47,0.02-0.7,0.03c-2.94,2.26-5.06,4.98-4.8,8.99
		c0.17,2.68,1.52,4.6,4.02,5.93c1.29-3.74,2.64-7.3,2.49-11.16C77.91,82.38,77.3,81.13,76.95,79.86z"/>
	<path class="st1" d="M247.19,260.44c0.01-24.11,0.02-48.22,0.02-72.34c0-9.94-0.03-19.88,0.03-29.82c0.01-1.54-0.31-2.08-1.99-2.08
		c-33.95,0.05-67.89,0.04-101.84,0.04c-0.57,0-1.14,0.05-2.01,0.09c0.83,6.81-0.11,13.1-5.22,18.39c0.76,0.33,1.26,0.55,1.75,0.77
		c3.65,1.66,7.28,3.37,10.96,4.95c0.68,0.29,1.66,0.37,2.33,0.11c12.47-4.98,24.91-10.02,37.35-15.05
		c4.36-1.76,8.72-3.53,13.07-5.32c1.65-0.68,3.1-0.44,4.4,0.74c3.11,2.82,4.28,6.32,3.6,10.45c-0.04,0.26-0.13,0.51-0.18,0.77
		c-0.58,2.88-1.85,4.85-4.9,6.11c-13.22,5.49-26.3,11.35-39.46,16.98c-1.42,0.61-2.07,1.44-2.31,2.86
		c-0.74,4.38-1.37,8.78-2.32,13.1c-2.47,11.21-7.58,20.93-16.61,28.3c-6.72,5.49-14.49,8.84-22.87,10.85
		c-10.83,2.6-21.83,3.13-32.92,2.51c-10.61-0.59-21.03-2.11-31.07-5.72c-11.72-4.22-21.73-10.83-28.99-21.15
		c-5.34-7.6-8.34-16.09-9.29-25.32c-0.03-0.32-0.04-0.64-0.09-0.95c-1.04-6.44,1.35-11.46,6.3-15.47
		c6.02-4.89,13.01-7.85,20.33-10.07c16.31-4.95,33.04-6.43,50-5.97c0.73,0.02,1.45,0,2.68,0c-0.93-0.79-1.51-1.34-2.15-1.81
		c-4.17-3.06-7.94-6.5-10.48-11.09c-2.24-4.06-2.43-8.34-1.23-12.76c0.35-1.3,0.98-1.51,2.02-0.72c0.38,0.29,0.79,0.53,1.17,0.81
		c2.48,1.8,2.65,1.83,4.3-0.66c2.61-3.94,5-8.06,5.93-12.72c0.51-2.57,0.26-5.34,0.08-8c-0.41-5.98-0.81-11.96,1.02-17.78
		c1.56-4.94-0.12-9.24-2.18-13.54c-0.78-1.62-1.51-3.27-2.1-4.96c-1.94-5.51,0.16-10.03,3.68-14.13c1.01-1.18,2.27-2.15,3.78-3.55
		c0.1,1.03,0.14,1.56,0.2,2.1c0.28,2.52,0.49,5.04,0.87,7.54c0.27,1.8,1.33,3.17,2.81,4.25c1.75,1.28,3.46,2.61,5.13,3.98
		c3.28,2.7,4.77,6.27,4.19,10.41c-0.59,4.17-1.63,8.28-2.5,12.4c-0.48,2.29-1.01,4.57-1.28,6.97c3.05-1.4,5.38-3.4,7.04-6.2
		c2.31-3.91,4.69-7.77,6.99-11.69c0.27-0.46,0.36-1.1,0.36-1.65c0.02-21.84,0-43.68,0.04-65.51c0-1.38-0.5-1.65-1.75-1.65
		c-26.39,0.03-52.77,0.02-79.16,0.02c-9.99,0-19.99,0-29.98,0.01c-0.68,0-1.36,0.12-2.03,0.19c0-6.45,0-12.9,0-19.36
		c84.61,0,169.23,0,253.84,0c0,83.77,0,167.54,0,251.3C260.1,260.44,253.64,260.44,247.19,260.44z M98.29,170.86
		c-2.26,0-4.42,0.01-6.58,0c-15.8-0.08-31.36,1.55-46.35,6.86c-6.26,2.22-12.21,5.05-16.93,9.94c-5.08,5.27-5.11,11.62-0.05,16.91
		c4.63,4.84,10.49,7.61,16.62,9.87c10.4,3.84,21.23,5.69,32.22,6.53c11.51,0.88,23.03,0.7,34.5-0.85
		c9.57-1.29,18.95-3.31,27.88-7.08c4.95-2.09,9.58-4.69,13.31-8.69c4.79-5.15,4.74-11.48-0.15-16.57
		c-4.86-5.07-11.03-7.89-17.49-10.21c-0.33-0.12-0.88-0.25-1.03-0.09c-1.12,1.19-2.17,2.45-3.43,3.91c1.16,0.44,1.84,0.69,2.51,0.96
		c1.27,0.5,2.6,0.92,3.8,1.55c1.88,0.99,2.66,2.66,2.44,4.76c-0.2,1.99-1.8,2.6-3.35,2.87c-3.27,0.57-6.57,1.11-9.88,1.27
		c-7.23,0.35-14.48,0.44-21.72,0.69c-1.62,0.06-3.24,0.34-4.85,0.52c0,0.2,0.01,0.39,0.01,0.59c0.85,0.14,1.7,0.38,2.56,0.42
		c3.11,0.14,6.23,0.28,9.35,0.31c3.37,0.03,6.65,0.39,9.69,1.96c3.76,1.94,6.04,7.12,1.13,10.82c-1.04,0.79-2.21,1.46-3.4,2.01
		c-5.12,2.36-10.55,2.53-16.02,1.93c-8.97-0.99-17.87-2.85-26.98-1.74c-0.88,0.11-1.83-0.44-2.75-0.69c0.55-0.82,0.96-1.8,1.67-2.43
		c1.13-1,2.46-1.76,3.88-2.75c-0.57-0.38-0.88-0.66-1.24-0.82c-3.1-1.31-6.32-1.71-9.62-0.95c-3.93,0.9-6.25,3.56-6.51,7.56
		c-0.08,1.25-0.45,1.72-1.74,1.81c-5.93,0.41-11.6-0.75-17.04-2.93c-2.62-1.05-5.14-2.44-7.51-3.98c-1.53-0.99-1.33-2.13,0.41-2.73
		c3.68-1.28,7.37-2.63,11.17-3.45c6.71-1.45,13.55-2.32,20-4.82c0.68-0.26,1.3-0.67,2.29-1.18c-2.06-1.3-3.74-2.29-5.33-3.4
		c-1.72-1.2-3.43-2.58-3.12-4.96c0.31-2.37,2.26-3.47,4.26-4.01c3.51-0.95,7.07-1.89,10.66-2.26c5.14-0.52,10.34-0.56,15.51-0.73
		C95.3,177.46,97.95,175.17,98.29,170.86z M263.98,82.1c0-22.89-0.01-45.79,0.03-68.68c0-1.51-0.37-1.99-1.93-1.97
		c-6.98,0.08-13.96,0.05-20.94,0.05c-36.64,0-73.28,0-109.92-0.04c-1.5,0-1.99,0.36-1.97,1.93c0.09,7.08,0.05,14.17,0.05,21.25
		c0,38.65,0,77.3-0.05,115.95c0,1.5,0.37,1.96,1.92,1.96c43.62-0.04,87.24-0.04,130.86,0c1.5,0,1.97-0.36,1.96-1.91
		C263.96,127.78,263.98,104.94,263.98,82.1z M76.16,227.93c0.22,1,0.26,1.7,0.53,2.3c2.96,6.43,7.11,11.97,12.47,16.58
		c1.27,1.1,2.8,1.58,4.54,1.54c2.9-0.08,5.81-0.02,8.72-0.03c0.53,0,1.07-0.08,2.02-0.16c-4.99-5.8-7.08-12.13-6.02-19.58
		C90.94,228.36,83.73,228.15,76.16,227.93z M108.38,140.7c0.16,0.15,0.32,0.29,0.48,0.44c1.26-1.1,2.44-2.31,3.8-3.27
		c0.75-0.53,1.79-0.65,2.7-0.96c0.19,0.83,0.51,1.66,0.56,2.5c0.2,3.9,0.13,7.82,0.55,11.69c0.33,3.01,2.07,5.41,4.7,7.01
		c0.5,0.3,1.49,0.5,1.83,0.22c1.33-1.07,2.65-2.16,2.63-4.22c-0.07-7.93-0.03-15.86-0.03-23.78c0-4.04,0-8.08,0-12.08
		C119.34,125.4,113.12,132.51,108.38,140.7z M34.23,216.58c0.23,0.82,0.34,1.22,0.46,1.61c2.47,7.64,6.58,14.34,11.74,20.45
		c0.98,1.16,1.95,1.39,3.48,0.98c-0.34-0.58-0.6-1.06-0.9-1.53c-4.08-6.33-8.52-12.48-10.33-19.99c-0.08-0.34-0.45-0.8-0.76-0.87
		C36.82,216.95,35.68,216.82,34.23,216.58z"/>
	<path class="st1" d="M76.38,115.04c-1.83-5.12-2.51-9.8,0.49-14.33c0.41-0.62,0.69-1.32,1.13-1.91c3.55-4.7,3.91-9.99,2.99-15.55
		c-0.13-0.81-0.18-1.64-0.29-2.65c2.96,0.28,5.03,1.7,6.75,3.71c2.58,3.02,3.51,6.69,3.94,10.52c0.98,8.71-0.88,16.9-4.5,24.77
		c-1.01,2.21-1.95,4.45-2.96,6.66c-0.32,0.69-0.74,1.33-1.12,1.99c-0.17-0.02-0.35-0.04-0.52-0.06c-0.12-0.78-0.29-1.55-0.34-2.33
		c-0.25-3.95-0.47-7.91-0.71-11.86c-0.03-0.42-0.07-0.84-0.15-1.26c-0.31-1.67-0.86-1.86-2.17-0.71c-0.47,0.41-0.88,0.91-1.29,1.39
		C77.26,113.84,76.94,114.3,76.38,115.04z"/>
	<path class="st1" d="M76.95,79.86c0.35,1.26,0.96,2.52,1.01,3.79c0.15,3.86-1.2,7.42-2.49,11.16c-2.5-1.34-3.85-3.25-4.02-5.93
		c-0.26-4,1.86-6.73,4.8-8.99C76.49,79.88,76.72,79.87,76.95,79.86z"/>
	<path class="st0" d="M98.29,170.86c-0.34,4.31-2.99,6.6-7.16,6.74c-5.18,0.17-10.37,0.21-15.51,0.73
		c-3.6,0.36-7.16,1.31-10.66,2.26c-2,0.54-3.96,1.64-4.26,4.01c-0.31,2.38,1.4,3.76,3.12,4.96c1.59,1.11,3.27,2.09,5.33,3.4
		c-0.99,0.52-1.61,0.92-2.29,1.18c-6.45,2.5-13.29,3.37-20,4.82c-3.8,0.82-7.49,2.17-11.17,3.45c-1.74,0.6-1.94,1.74-0.41,2.73
		c2.37,1.54,4.89,2.93,7.51,3.98c5.44,2.18,11.11,3.34,17.04,2.93c1.29-0.09,1.65-0.55,1.74-1.81c0.26-4,2.59-6.66,6.51-7.56
		c3.3-0.76,6.51-0.35,9.62,0.95c0.37,0.15,0.68,0.44,1.24,0.82c-1.43,0.99-2.76,1.75-3.88,2.75c-0.72,0.63-1.13,1.61-1.67,2.43
		c0.92,0.24,1.87,0.79,2.75,0.69c9.11-1.11,18.01,0.75,26.98,1.74c5.46,0.6,10.9,0.43,16.02-1.93c1.19-0.55,2.35-1.22,3.4-2.01
		c4.91-3.71,2.63-8.88-1.13-10.82c-3.04-1.57-6.32-1.94-9.69-1.96c-3.12-0.02-6.23-0.16-9.35-0.31c-0.86-0.04-1.71-0.27-2.56-0.42
		c0-0.2-0.01-0.39-0.01-0.59c1.62-0.18,3.23-0.47,4.85-0.52c7.24-0.25,14.49-0.34,21.72-0.69c3.31-0.16,6.61-0.7,9.88-1.27
		c1.54-0.27,3.14-0.89,3.35-2.87c0.22-2.1-0.56-3.77-2.44-4.76c-1.21-0.63-2.53-1.05-3.8-1.55c-0.67-0.27-1.35-0.52-2.51-0.96
		c1.26-1.46,2.31-2.72,3.43-3.91c0.15-0.16,0.71-0.03,1.03,0.09c6.46,2.32,12.63,5.14,17.49,10.21c4.88,5.1,4.93,11.43,0.15,16.57
		c-3.72,4-8.36,6.6-13.31,8.69c-8.93,3.78-18.31,5.79-27.88,7.08c-11.48,1.54-22.99,1.73-34.5,0.85
		c-10.99-0.84-21.83-2.68-32.22-6.53c-6.13-2.27-11.99-5.04-16.62-9.87c-5.07-5.3-5.04-11.65,0.05-16.91
		c4.73-4.9,10.67-7.72,16.93-9.94c14.99-5.32,30.55-6.94,46.35-6.86C93.87,170.87,96.02,170.86,98.29,170.86z"/>
	<path class="st0" d="M263.98,82.1c0,22.84-0.02,45.68,0.03,68.52c0,1.56-0.47,1.91-1.96,1.91c-43.62-0.04-87.24-0.04-130.86,0
		c-1.56,0-1.93-0.46-1.92-1.96c0.04-38.65,0.04-77.3,0.05-115.95c0-7.08,0.03-14.17-0.05-21.25c-0.02-1.56,0.47-1.93,1.97-1.93
		c36.64,0.04,73.28,0.04,109.92,0.04c6.98,0,13.96,0.04,20.94-0.05c1.56-0.02,1.93,0.46,1.93,1.97
		C263.97,36.31,263.98,59.2,263.98,82.1z M132.7,81.96c0,21.68,0.01,43.36-0.03,65.05c0,1.51,0.27,2.08,1.97,2.08
		c41.3-0.05,82.6-0.05,123.91-0.01c1.62,0,2.03-0.43,2.03-2.03c-0.04-43.36-0.03-86.73-0.04-130.09c0-2.04-0.01-2.05-2.1-2.05
		c-41.2,0-82.39,0-123.59,0c-2.15,0-2.15,0-2.15,2.16C132.7,38.7,132.7,60.33,132.7,81.96z"/>
	<path class="st0" d="M76.16,227.93c7.57,0.22,14.78,0.43,22.26,0.65c-1.06,7.45,1.04,13.78,6.02,19.58
		c-0.95,0.08-1.49,0.15-2.02,0.16c-2.91,0.01-5.82-0.05-8.72,0.03c-1.74,0.05-3.27-0.44-4.54-1.54
		c-5.36-4.61-9.52-10.15-12.47-16.58C76.41,229.63,76.38,228.93,76.16,227.93z"/>
	<path class="st0" d="M108.38,140.7c4.75-8.19,10.96-15.3,17.22-22.45c0,4,0,8.04,0,12.08c0,7.93-0.04,15.86,0.03,23.78
		c0.02,2.06-1.29,3.15-2.63,4.22c-0.35,0.28-1.34,0.08-1.83-0.22c-2.62-1.6-4.37-4-4.7-7.01c-0.42-3.87-0.35-7.79-0.55-11.69
		c-0.04-0.84-0.36-1.67-0.56-2.5c-0.91,0.31-1.95,0.43-2.7,0.96c-1.36,0.96-2.54,2.16-3.8,3.27
		C108.7,140.99,108.54,140.85,108.38,140.7z"/>
	<path class="st0" d="M34.23,216.58c1.45,0.24,2.59,0.37,3.69,0.64c0.31,0.08,0.68,0.53,0.76,0.87c1.81,7.51,6.25,13.66,10.33,19.99
		c0.3,0.46,0.56,0.95,0.9,1.53c-1.53,0.4-2.5,0.18-3.48-0.98c-5.16-6.11-9.27-12.81-11.74-20.45
		C34.57,217.8,34.46,217.4,34.23,216.58z"/>
	<path class="st1" d="M132.7,81.96c0-21.63,0-43.26,0-64.89c0-2.16,0.01-2.16,2.15-2.16c41.2,0,82.39,0,123.59,0
		c2.09,0,2.1,0,2.1,2.05c0,43.36-0.01,86.73,0.04,130.09c0,1.6-0.41,2.03-2.03,2.03c-41.3-0.05-82.6-0.05-123.91,0.01
		c-1.7,0-1.98-0.56-1.97-2.08C132.72,125.32,132.7,103.64,132.7,81.96z M180.6,48.95c16.31,0,32.45,0,48.76,0
		c0-4.28-0.08-8.35,0.04-12.4c0.04-1.58-0.48-1.92-1.97-1.92c-20.46,0.04-40.92,0.03-61.38,0.03c-0.62,0-1.24,0-2.08,0
		c0,0.88,0,1.55,0,2.23c0,16.02,0,32.04,0,48.06c0,14.06,0,28.13,0.01,42.19c0,2.2,0,2.19,2.26,2.19c4.18,0,8.35,0.01,12.53,0.01
		c0.56,0,1.12-0.06,1.85-0.1c0-14.04,0-27.92,0-41.98c0.84,0,1.52,0,2.19,0c12.95,0,25.91-0.02,38.86,0.02
		c1.28,0,1.76-0.32,1.73-1.67c-0.09-3.33-0.11-6.66,0.01-9.99c0.05-1.53-0.51-1.82-1.9-1.82c-13.01,0.04-26.01,0.02-39.02,0.02
		c-0.61,0-1.21,0-1.87,0C180.6,65.46,180.6,57.38,180.6,48.95z"/>
	<path class="st0" d="M180.6,48.95c0,8.43,0,16.5,0,24.87c0.65,0,1.26,0,1.87,0c13.01,0,26.01,0.02,39.02-0.02
		c1.39,0,1.96,0.29,1.9,1.82c-0.12,3.33-0.1,6.66-0.01,9.99c0.04,1.36-0.44,1.68-1.73,1.67c-12.95-0.04-25.91-0.02-38.86-0.02
		c-0.67,0-1.35,0-2.19,0c0,14.06,0,27.93,0,41.98c-0.72,0.04-1.28,0.1-1.85,0.1c-4.18,0-8.35-0.01-12.53-0.01
		c-2.26,0-2.26,0.01-2.26-2.19c0-14.06-0.01-28.13-0.01-42.19c0-16.02,0-32.04,0-48.06c0-0.67,0-1.34,0-2.23c0.84,0,1.46,0,2.08,0
		c20.46,0,40.92,0.02,61.38-0.03c1.49,0,2.02,0.34,1.97,1.92c-0.11,4.06-0.04,8.12-0.04,12.4C213.05,48.95,196.91,48.95,180.6,48.95
		z"/>
</g>
</svg>
