<?xml version="1.0" encoding="utf-8"?>
<!-- Generator: Adobe Illustrator 28.0.0, SVG Export Plug-In . SVG Version: 6.00 Build 0)  -->
<svg version="1.1" id="Ebene_1" xmlns="http://www.w3.org/2000/svg" xmlns:xlink="http://www.w3.org/1999/xlink" x="0px" y="0px"
	 viewBox="0 0 270.97 273.3" style="enable-background:new 0 0 270.97 273.3;" xml:space="preserve">
<style type="text/css">
	.st0{fill:#FFFFFF;}
	.st1{fill:#FF0000;}
</style>
<g>
	<path class="st0" d="M262.24,134.69c0-40.91,0-81.82,0-122.74c0-4.34-0.01-4.35-4.41-4.35c-81.92,0-163.85,0-245.77,0
		c-4.21,0-4.21,0-4.21,4.16c0,82.02,0,164.04,0,246.07c0,4.15,0.01,4.16,4.22,4.16c82.02,0,164.04,0,246.07,0
		c4.1,0,4.1-0.01,4.1-4.27C262.24,216.71,262.24,175.7,262.24,134.69z"/>
	<path class="st1" d="M262.24,134.69c0,41.01,0,82.02,0,123.03c0,4.26,0,4.27-4.1,4.27c-82.02,0-164.04,0-246.07,0
		c-4.21,0-4.22-0.01-4.22-4.16c0-82.02,0-164.04,0-246.07c0-4.16,0-4.16,4.21-4.16c81.92,0,163.85,0,245.77,0
		c4.4,0,4.41,0.01,4.41,4.35C262.24,52.86,262.24,93.77,262.24,134.69z M81.38,27.74c0,1.18,0,2.25,0,3.33
		c-0.03,6.83-0.09,13.66-0.06,20.48c0.01,1.57-0.29,2.47-2.13,2.27c-2.14-0.24-2.76,1.05-2.7,2.93c0.04,1.09-0.09,2.19,0.01,3.27
		c0.22,2.26-0.53,3.02-2.99,2.99c-14.06-0.14-28.13-0.03-42.19-0.12c-2.59-0.02-3.66,0.64-3.65,3.47
		c0.07,45.06,0.07,90.13,0.01,135.19c0,2.65,0.76,3.63,3.54,3.6c12.48-0.13,24.96-0.06,37.44-0.06c7.47,0,7.51,0,7.81,7.5
		c0.07,1.85,0.51,3.2,2.67,2.97c1.79-0.18,2.15,0.61,2.14,2.24c-0.04,7.12,0.13,14.25,0.05,21.37c-0.03,2.18,0.58,3,2.83,2.97
		c2.23-0.03,2.89-0.93,2.86-3.05c-0.09-6.93,0-13.87-0.05-20.8c-0.01-1.76,0.32-2.85,2.42-2.74c1.81,0.1,2.32-1.09,2.29-2.73
		c-0.05-2.44-0.01-4.89-0.01-7.54c1.67-0.08,2.94-0.19,4.2-0.19c13.17-0.01,26.34,0,39.52-0.01c4.16,0,4.19-0.02,4.19-4.1
		c0-44.67,0-89.34,0-134c0-4.02-0.04-4.06-4.22-4.06c-12.28-0.01-24.56,0-36.84,0c-6.5,0-6.54,0-6.82-6.38
		c-0.07-1.62-0.48-2.85-2.29-2.73c-2.41,0.16-2.43-1.3-2.42-3.03c0.04-6.34,0.02-12.68,0.01-19.02
		C86.99,27.01,86.65,26.74,81.38,27.74z M187.96,132.63c-0.34,1.16-0.53,1.52-0.53,1.89c-0.2,12.16,2.9,23.32,10.54,32.93
		c10.45,13.14,24.61,20.5,40.34,25.27c3.09,0.94,3.61,0.45,3.63-2.9c0.03-6.14-0.07-12.28,0.05-18.41c0.04-2.21-0.8-3.14-2.9-3.61
		c-20.56-4.6-36.16-16.68-49.11-32.73C189.45,134.4,188.9,133.76,187.96,132.63z M182.85,94.75c0.86,1.15,1.35,1.85,1.89,2.52
		c4.31,5.43,7.59,11.45,8.96,18.22c2.63,13.05,8.72,24.16,18.34,33.2c7.66,7.2,16.68,10.49,27.27,7.47c0.74-0.21,1.41-0.67,2.4-1.16
		c-0.73-0.6-1.01-0.88-1.33-1.09c-13.06-8.36-21.84-20.05-27.33-34.48c-2.96-7.79-6.83-15.19-13.48-20.64
		C194.89,94.97,189.57,93.5,182.85,94.75z M241.35,206.83c0.03-0.31,0.05-0.62,0.08-0.94c-2.98-0.95-5.98-1.85-8.94-2.85
		c-6.13-2.09-11.98-4.73-16.62-9.44c-2.77-2.81-5.28-5.9-8.25-8.46c-7.1-6.11-14.85-11-24.79-10.34c-4.47,0.3-8.45,1.91-11.95,4.96
		c0.52,0.48,0.7,0.79,0.95,0.86c9.41,2.46,15.58,8.89,20.86,16.62c7.47,10.93,17.86,16.2,31.19,15.23
		C230.17,212.01,236.06,210.29,241.35,206.83z M188.32,206.47c0.43,2.43,0.65,4.06,1.01,5.65c2.64,11.47,8.99,20.08,19.77,25.12
		c9.38,4.39,19.32,5.36,29.55,4.65c2.41-0.17,3.36-0.98,3.32-3.38c-0.09-4.95-0.02-9.9-0.02-14.84c0-6.37,0.04-6.16-6.27-4.9
		c-16.16,3.23-31.02,0.47-44.08-10.07C190.79,208.04,189.88,207.52,188.32,206.47z M217.77,84.89c-8.7,19.69,5.61,54.1,23.9,58.42
		c0.09-1.08,0.26-2.12,0.26-3.16c0.03-4.46-0.18-8.92,0.07-13.37c0.26-4.66-0.35-8.07-5.09-10.94c-7.11-4.31-10.97-11.74-14.3-19.23
		C221,92.96,219.55,89.22,217.77,84.89z"/>
	<path class="st0" d="M81.38,27.74c5.27-1,5.61-0.73,5.61,4.04c0,6.34,0.02,12.68-0.01,19.02c-0.01,1.73,0,3.19,2.42,3.03
		c1.81-0.12,2.22,1.11,2.29,2.73c0.28,6.38,0.32,6.38,6.82,6.38c12.28,0,24.56-0.01,36.84,0c4.18,0,4.22,0.05,4.22,4.06
		c0,44.67,0,89.34,0,134c0,4.07-0.03,4.09-4.19,4.1c-13.17,0.01-26.34,0-39.52,0.01c-1.27,0-2.53,0.11-4.2,0.19
		c0,2.65-0.04,5.1,0.01,7.54c0.03,1.63-0.48,2.82-2.29,2.73c-2.1-0.11-2.43,0.98-2.42,2.74c0.06,6.93-0.04,13.87,0.05,20.8
		c0.03,2.12-0.63,3.02-2.86,3.05c-2.25,0.03-2.86-0.79-2.83-2.97c0.08-7.12-0.08-14.25-0.05-21.37c0.01-1.63-0.35-2.42-2.14-2.24
		c-2.16,0.22-2.6-1.12-2.67-2.97c-0.3-7.5-0.34-7.5-7.81-7.5c-12.48,0-24.96-0.07-37.44,0.06c-2.79,0.03-3.55-0.95-3.54-3.6
		c0.06-45.06,0.06-90.13-0.01-135.19c0-2.83,1.07-3.49,3.65-3.47c14.06,0.09,28.13-0.03,42.19,0.12c2.46,0.03,3.2-0.73,2.99-2.99
		c-0.1-1.08,0.02-2.18-0.01-3.27c-0.07-1.89,0.56-3.17,2.7-2.93c1.84,0.21,2.13-0.7,2.13-2.27c-0.03-6.83,0.04-13.66,0.06-20.48
		C81.38,29.99,81.38,28.91,81.38,27.74z M38.16,134.18c0,19.41,0.06,38.82-0.06,58.22c-0.02,2.85,0.77,3.68,3.65,3.67
		c27.92-0.1,55.85-0.1,83.77,0c2.9,0.01,3.65-0.88,3.64-3.7c-0.08-38.82-0.09-77.63,0-116.45c0.01-2.97-0.79-3.9-3.84-3.89
		c-27.73,0.11-55.45,0.06-83.18,0.07c-3.98,0-3.99,0.02-3.99,4.16C38.16,95.56,38.16,114.87,38.16,134.18z"/>
	<path class="st0" d="M187.96,132.63c0.94,1.13,1.49,1.77,2.01,2.42c12.94,16.05,28.55,28.13,49.11,32.73
		c2.1,0.47,2.94,1.41,2.9,3.61c-0.12,6.14-0.02,12.28-0.05,18.41c-0.02,3.35-0.53,3.84-3.63,2.9
		c-15.73-4.76-29.89-12.13-40.34-25.27c-7.64-9.6-10.74-20.76-10.54-32.93C187.44,134.16,187.63,133.8,187.96,132.63z"/>
	<path class="st0" d="M182.85,94.75c6.72-1.25,12.04,0.22,16.72,4.05c6.65,5.45,10.52,12.85,13.48,20.64
		c5.49,14.44,14.27,26.12,27.33,34.48c0.32,0.21,0.6,0.48,1.33,1.09c-0.99,0.49-1.66,0.95-2.4,1.16
		c-10.59,3.02-19.61-0.27-27.27-7.47c-9.63-9.04-15.71-20.15-18.34-33.2c-1.37-6.77-4.65-12.8-8.96-18.22
		C184.21,96.6,183.71,95.9,182.85,94.75z"/>
	<path class="st0" d="M241.35,206.83c-5.29,3.46-11.18,5.18-17.47,5.63c-13.34,0.97-23.73-4.3-31.19-15.23
		c-5.28-7.73-11.44-14.16-20.86-16.62c-0.25-0.06-0.43-0.38-0.95-0.86c3.5-3.05,7.48-4.67,11.95-4.96
		c9.94-0.66,17.69,4.23,24.79,10.34c2.97,2.56,5.49,5.65,8.25,8.46c4.64,4.71,10.49,7.35,16.62,9.44c2.96,1.01,5.96,1.91,8.94,2.85
		C241.4,206.21,241.38,206.52,241.35,206.83z"/>
	<path class="st0" d="M188.32,206.47c1.56,1.05,2.48,1.57,3.28,2.22c13.06,10.54,27.92,13.3,44.08,10.07
		c6.31-1.26,6.27-1.46,6.27,4.9c0,4.95-0.07,9.9,0.02,14.84c0.04,2.4-0.92,3.21-3.32,3.38c-10.23,0.71-20.17-0.26-29.55-4.65
		c-10.77-5.04-17.13-13.64-19.77-25.12C188.96,210.53,188.75,208.9,188.32,206.47z"/>
	<path class="st0" d="M217.77,84.89c1.78,4.33,3.22,8.07,4.85,11.72c3.32,7.48,7.19,14.92,14.3,19.23
		c4.74,2.87,5.35,6.28,5.09,10.94c-0.25,4.44-0.04,8.91-0.07,13.37c-0.01,1.04-0.17,2.08-0.26,3.16
		C223.38,138.99,209.07,104.58,217.77,84.89z"/>
	<path class="st1" d="M38.16,134.18c0-19.31,0-38.62,0-57.93c0-4.14,0.01-4.16,3.99-4.16c27.73,0,55.45,0.04,83.18-0.07
		c3.04-0.01,3.84,0.93,3.84,3.89c-0.09,38.82-0.09,77.63,0,116.45c0.01,2.82-0.74,3.71-3.64,3.7c-27.92-0.1-55.85-0.1-83.77,0
		c-2.88,0.01-3.67-0.81-3.65-3.67C38.22,173,38.16,153.59,38.16,134.18z M120.78,128.91c0.08-0.28,0.16-0.55,0.24-0.83
		c-0.76-0.45-1.49-1.22-2.28-1.29c-7.53-0.64-11.38-5.72-14.38-11.8c-1.7-3.46-3.07-7.09-4.86-10.5
		c-5.62-10.64-15.69-15.17-26.2-11.97c-10.04,3.06-17.28,13.42-17.38,24.85c-0.05,6.1-1.42,7.8-7.19,9.29
		c-0.84,0.22-1.53,1.04-2.3,1.58c0.11,0.22,0.22,0.44,0.33,0.66C71.44,128.91,96.11,128.91,120.78,128.91z M83.37,184.78
		c3.17,0,6.33,0.01,9.5,0c5.68-0.02,7.81-2.18,7.92-7.87c0.17-8.62,1.83-16.76,6.32-24.38c1.86-3.16,2.17-7.28,2.97-11
		c0.14-0.67-0.76-1.56-1.18-2.35c-0.56,0.74-1.4,1.41-1.64,2.24c-0.85,2.92-0.85,6.28-2.33,8.8c-5.02,8.52-7.55,17.55-7.25,27.41
		c0.08,2.68-1.06,4-3.9,3.95c-5.54-0.1-11.08-0.02-16.63-0.03c-7.1-0.02-8.1,1.13-7.77-7.77c0.09-2.53-0.65-3.49-3.32-3.48
		c-4.11,0.02-6.27-2.38-6.41-6.56c-0.06-1.68-0.1-3.37,0-5.05c0.12-2.02-0.65-2.79-2.74-2.79c-3.67,0-4.35-1.03-3.46-4.54
		c0.85-3.36,1.77-6.7,2.48-10.08c0.13-0.64-0.54-1.44-0.84-2.17c-0.68,0.43-1.82,0.74-1.97,1.32c-1.14,4.29-2.23,8.61-3.02,12.97
		c-0.46,2.56,1.05,4.7,3.45,5.19c2.85,0.59,2.91,2.21,2.9,4.45c-0.02,4.83,2.3,8.74,6.54,9.89c2.8,0.76,3.18,2.07,3.14,4.55
		c-0.08,4.62,2.81,7.3,7.43,7.31C76.84,184.79,80.11,184.79,83.37,184.78z M83.74,134.92c11.58,0,23.17,0.01,34.75-0.01
		c2.48,0,3.7-1.57,2.48-3.44c-0.51-0.78-2.14-1.15-3.26-1.15c-22.67-0.06-45.34-0.05-68.01-0.05c-0.59,0-1.36-0.21-1.74,0.08
		c-0.8,0.61-1.8,1.4-2,2.28c-0.49,2.16,1.11,2.29,2.74,2.29C60.38,134.91,72.06,134.91,83.74,134.92z M116.51,125.13
		c0.1-0.23,0.2-0.46,0.31-0.69c-1.63-1.48-3.53-2.76-4.81-4.5c-1.39-1.88-2.33-4.13-3.24-6.31c-1.07-2.55-2.03-5.16-2.82-7.81
		C101.46,90.71,86.4,83.03,73.4,85.1c-4.32,0.69-5.11,2.28-3.67,6.95c1.59-0.38,3.19-0.82,4.82-1.15
		c7.86-1.63,14.85-0.18,20.79,5.57c4.63,4.48,6.86,10.3,9.36,15.98c1.82,4.12,3.99,7.99,7.74,10.66
		C113.67,123.97,115.15,124.47,116.51,125.13z M69.86,142.64c-2.04-1.68-3.32-3.56-4.54-3.52c-1.18,0.04-2.97,1.88-3.3,3.22
		c-0.48,1.96,1.17,3.53,3.18,3.25C66.55,145.39,67.74,144.04,69.86,142.64z"/>
	<path class="st0" d="M120.78,128.91c-24.67,0-49.34,0-74.02,0c-0.11-0.22-0.22-0.44-0.33-0.66c0.76-0.54,1.45-1.36,2.3-1.58
		c5.78-1.5,7.14-3.19,7.19-9.29c0.09-11.43,7.34-21.79,17.38-24.85c10.51-3.2,20.58,1.34,26.2,11.97c1.8,3.41,3.16,7.04,4.86,10.5
		c3,6.08,6.85,11.16,14.38,11.8c0.79,0.07,1.52,0.84,2.28,1.29C120.94,128.36,120.86,128.64,120.78,128.91z"/>
	<path class="st0" d="M83.37,184.79c-3.27,0-6.53,0.01-9.8,0c-4.62-0.01-7.51-2.69-7.43-7.31c0.04-2.48-0.34-3.79-3.14-4.55
		c-4.24-1.15-6.56-5.05-6.54-9.89c0.01-2.24-0.05-3.86-2.9-4.45c-2.4-0.5-3.91-2.64-3.45-5.19c0.78-4.37,1.88-8.68,3.02-12.97
		c0.15-0.57,1.29-0.88,1.97-1.32c0.3,0.73,0.98,1.54,0.84,2.17c-0.72,3.38-1.63,6.73-2.48,10.08c-0.89,3.52-0.2,4.54,3.46,4.54
		c2.09,0,2.86,0.77,2.74,2.79c-0.1,1.68-0.06,3.37,0,5.05c0.14,4.18,2.29,6.58,6.41,6.56c2.67-0.01,3.42,0.95,3.32,3.48
		c-0.33,8.9,0.67,7.75,7.77,7.77c5.54,0.01,11.09-0.07,16.63,0.03c2.84,0.05,3.98-1.27,3.9-3.95c-0.3-9.86,2.23-18.89,7.25-27.41
		c1.48-2.51,1.48-5.87,2.33-8.8c0.24-0.84,1.08-1.5,1.64-2.24c0.42,0.79,1.32,1.68,1.18,2.35c-0.8,3.73-1.11,7.84-2.97,11
		c-4.49,7.63-6.15,15.76-6.32,24.38c-0.11,5.69-2.23,7.85-7.92,7.87C89.71,184.79,86.54,184.78,83.37,184.79z"/>
	<path class="st0" d="M83.74,134.92c-11.68,0-23.36-0.01-35.05,0.01c-1.63,0-3.23-0.12-2.74-2.29c0.2-0.88,1.2-1.67,2-2.28
		c0.38-0.29,1.15-0.08,1.74-0.08c22.67,0,45.34-0.02,68.01,0.05c1.12,0,2.75,0.37,3.26,1.15c1.22,1.87-0.01,3.44-2.48,3.44
		C106.91,134.93,95.33,134.92,83.74,134.92z"/>
	<path class="st0" d="M116.51,125.13c-1.36-0.67-2.85-1.16-4.07-2.03c-3.76-2.67-5.92-6.54-7.74-10.66
		c-2.51-5.68-4.73-11.5-9.36-15.98c-5.94-5.74-12.93-7.2-20.79-5.57c-1.62,0.34-3.22,0.77-4.82,1.15c-1.44-4.67-0.65-6.26,3.67-6.95
		c13-2.07,28.06,5.61,32.55,20.73c0.79,2.65,1.75,5.26,2.82,7.81c0.92,2.18,1.85,4.43,3.24,6.31c1.28,1.73,3.18,3.01,4.81,4.5
		C116.72,124.67,116.62,124.9,116.51,125.13z"/>
	<path class="st0" d="M69.86,142.64c-2.12,1.4-3.31,2.75-4.67,2.94c-2.01,0.28-3.66-1.28-3.18-3.25c0.33-1.34,2.12-3.18,3.3-3.22
		C66.54,139.08,67.82,140.95,69.86,142.64z"/>
</g>
</svg>
